<svg version="1.1" viewBox="0.0 0.0 960.0 593.0" fill="none" stroke="none" stroke-linecap="square" stroke-miterlimit="10" width="960" height="593" xmlns:xlink="http://www.w3.org/1999/xlink" xmlns="http://www.w3.org/2000/svg"><path fill="#ffffff" d="M0 0L960.0 0L960.0 593.0L0 593.0L0 0Z" fill-rule="nonzero"/><path stroke="#333333" stroke-width="1.0" stroke-linecap="butt" d="M125.5 107.5L125.5 511.5" fill-rule="nonzero"/><path stroke="#cccccc" stroke-width="1.0" stroke-linecap="butt" d="M286.5 107.5L286.5 511.5" fill-rule="nonzero"/><path stroke="#cccccc" stroke-width="1.0" stroke-linecap="butt" d="M447.5 107.5L447.5 511.5" fill-rule="nonzero"/><path stroke="#cccccc" stroke-width="1.0" stroke-linecap="butt" d="M608.5 107.5L608.5 511.5" fill-rule="nonzero"/><path stroke="#cccccc" stroke-width="1.0" stroke-linecap="butt" d="M769.5 107.5L769.5 511.5" fill-rule="nonzero"/><path stroke="#cccccc" stroke-width="1.0" stroke-linecap="butt" d="M930.5 107.5L930.5 511.5" fill-rule="nonzero"/><path stroke="#000000" stroke-width="1.0" stroke-linecap="butt" d="M930.5 511.5L125.5 511.5" fill-rule="nonzero"/><clipPath id="id_0"><path d="M125.65 107.183334L930.35 107.183334L930.35 511.35L125.65 511.35L125.65 107.183334Z" clip-rule="nonzero"/></clipPath><path stroke="#000000" stroke-width="2.0" stroke-linecap="butt" stroke-opacity="0.0" clip-path="url(#id_0)" d="M126.0 188.0L126.0 151.0L817.0 151.0C818.10455 151.0 819.0 151.89543 819.0 153.0L819.0 186.0C819.0 187.10457 818.10455 188.0 817.0 188.0Z" fill-rule="nonzero"/><path fill="#22ab82" clip-path="url(#id_0)" d="M126.0 188.0L126.0 151.0L817.0 151.0C818.10455 151.0 819.0 151.89543 819.0 153.0L819.0 186.0C819.0 187.10457 818.10455 188.0 817.0 188.0Z" fill-rule="nonzero"/><path stroke="#000000" stroke-width="2.0" stroke-linecap="butt" stroke-opacity="0.0" clip-path="url(#id_0)" d="M126.0 308.0L126.0 271.0L803.0 271.0C804.10455 271.0 805.0 271.89542 805.0 273.0L805.0 306.0C805.0 307.10458 804.10455 308.0 803.0 308.0Z" fill-rule="nonzero"/><path fill="#22ab82" clip-path="url(#id_0)" d="M126.0 308.0L126.0 271.0L803.0 271.0C804.10455 271.0 805.0 271.89542 805.0 273.0L805.0 306.0C805.0 307.10458 804.10455 308.0 803.0 308.0Z" fill-rule="nonzero"/><path stroke="#000000" stroke-width="2.0" stroke-linecap="butt" stroke-opacity="0.0" clip-path="url(#id_0)" d="M126.0 429.0L126.0 392.0L759.0 392.0C760.10455 392.0 761.0 392.89542 761.0 394.0L761.0 427.0C761.0 428.10458 760.10455 429.0 759.0 429.0Z" fill-rule="nonzero"/><path fill="#22ab82" clip-path="url(#id_0)" d="M126.0 429.0L126.0 392.0L759.0 392.0C760.10455 392.0 761.0 392.89542 761.0 394.0L761.0 427.0C761.0 428.10458 760.10455 429.0 759.0 429.0Z" fill-rule="nonzero"/><path stroke="#000000" stroke-width="2.0" stroke-linecap="butt" stroke-opacity="0.0" clip-path="url(#id_0)" d="M126.0 227.0L126.0 190.0L817.0 190.0C818.10455 190.0 819.0 190.89543 819.0 192.0L819.0 225.0C819.0 226.10457 818.10455 227.0 817.0 227.0Z" fill-rule="nonzero"/><path fill="#8cab13" clip-path="url(#id_0)" d="M126.0 227.0L126.0 190.0L817.0 190.0C818.10455 190.0 819.0 190.89543 819.0 192.0L819.0 225.0C819.0 226.10457 818.10455 227.0 817.0 227.0Z" fill-rule="nonzero"/><path stroke="#000000" stroke-width="2.0" stroke-linecap="butt" stroke-opacity="0.0" clip-path="url(#id_0)" d="M126.0 347.0L126.0 310.0L571.0 310.0C572.10455 310.0 573.0 310.89542 573.0 312.0L573.0 345.0C573.0 346.10458 572.10455 347.0 571.0 347.0Z" fill-rule="nonzero"/><path fill="#8cab13" clip-path="url(#id_0)" d="M126.0 347.0L126.0 310.0L571.0 310.0C572.10455 310.0 573.0 310.89542 573.0 312.0L573.0 345.0C573.0 346.10458 572.10455 347.0 571.0 347.0Z" fill-rule="nonzero"/><path stroke="#22ab82" stroke-width="3.0" stroke-linejoin="round" stroke-linecap="round" d="M796.78265 171.14062L797.97015 171.14062L797.97015 172.01562L796.78265 172.01562L796.78265 174.0L795.7045 174.0L795.7045 172.01562L791.8139 172.01562L791.8139 171.375L795.6264 165.46875L796.78265 165.46875L796.78265 171.14062ZM793.0483 171.14062L795.7045 171.14062L795.7045 166.95312L795.5639 167.1875L793.0483 171.14062ZM799.28265 175.70312L798.6733 175.28125Q799.22015 174.51562 799.2514 173.6875L799.2514 172.71875L800.3139 172.71875L800.3139 173.5625Q800.3139 174.15625 800.017 174.75Q799.72015 175.34375 799.28265 175.70312ZM802.78265 169.20312L803.59515 169.20312Q804.3764 169.1875 804.8139 168.79688Q805.2514 168.40625 805.2514 167.73438Q805.2514 166.23438 803.7514 166.23438Q803.0483 166.23438 802.6264 166.64062Q802.22015 167.04688 802.22015 167.70312L801.1264 167.70312Q801.1264 166.6875 801.8608 166.01562Q802.6108 165.34375 803.7514 165.34375Q804.9545 165.34375 805.642 165.98438Q806.3295 166.625 806.3295 167.76562Q806.3295 168.32812 805.97015 168.84375Q805.6108 169.35938 804.9858 169.625Q805.6889 169.84375 806.0639 170.35938Q806.4545 170.875 806.4545 171.625Q806.4545 172.76562 805.7045 173.45312Q804.9545 174.125 803.7514 174.125Q802.5639 174.125 801.7983 173.46875Q801.0483 172.8125 801.0483 171.75L802.142 171.75Q802.142 172.42188 802.5795 172.82812Q803.017 173.23438 803.767 173.23438Q804.5483 173.23438 804.9545 172.82812Q805.3764 172.40625 805.3764 171.64062Q805.3764 170.90625 804.9233 170.51562Q804.47015 170.10938 803.59515 170.09375L802.78265 170.09375L802.78265 169.20312ZM811.767 174.0L810.6889 174.0L810.6889 166.78125L808.5014 167.57812L808.5014 166.59375L811.6108 165.42188L811.767 165.42188L811.767 174.0Z" fill-rule="nonzero"/><path fill="#ffffff" d="M796.78265 171.14062L797.97015 171.14062L797.97015 172.01562L796.78265 172.01562L796.78265 174.0L795.7045 174.0L795.7045 172.01562L791.8139 172.01562L791.8139 171.375L795.6264 165.46875L796.78265 165.46875L796.78265 171.14062ZM793.0483 171.14062L795.7045 171.14062L795.7045 166.95312L795.5639 167.1875L793.0483 171.14062ZM799.28265 175.70312L798.6733 175.28125Q799.22015 174.51562 799.2514 173.6875L799.2514 172.71875L800.3139 172.71875L800.3139 173.5625Q800.3139 174.15625 800.017 174.75Q799.72015 175.34375 799.28265 175.70312ZM802.78265 169.20312L803.59515 169.20312Q804.3764 169.1875 804.8139 168.79688Q805.2514 168.40625 805.2514 167.73438Q805.2514 166.23438 803.7514 166.23438Q803.0483 166.23438 802.6264 166.64062Q802.22015 167.04688 802.22015 167.70312L801.1264 167.70312Q801.1264 166.6875 801.8608 166.01562Q802.6108 165.34375 803.7514 165.34375Q804.9545 165.34375 805.642 165.98438Q806.3295 166.625 806.3295 167.76562Q806.3295 168.32812 805.97015 168.84375Q805.6108 169.35938 804.9858 169.625Q805.6889 169.84375 806.0639 170.35938Q806.4545 170.875 806.4545 171.625Q806.4545 172.76562 805.7045 173.45312Q804.9545 174.125 803.7514 174.125Q802.5639 174.125 801.7983 173.46875Q801.0483 172.8125 801.0483 171.75L802.142 171.75Q802.142 172.42188 802.5795 172.82812Q803.017 173.23438 803.767 173.23438Q804.5483 173.23438 804.9545 172.82812Q805.3764 172.40625 805.3764 171.64062Q805.3764 170.90625 804.9233 170.51562Q804.47015 170.10938 803.59515 170.09375L802.78265 170.09375L802.78265 169.20312ZM811.767 174.0L810.6889 174.0L810.6889 166.78125L808.5014 167.57812L808.5014 166.59375L811.6108 165.42188L811.767 165.42188L811.767 174.0Z" fill-rule="nonzero"/><path stroke="#22ab82" stroke-width="3.0" stroke-linejoin="round" stroke-linecap="round" d="M782.29803 291.14062L783.48553 291.14062L783.48553 292.01562L782.29803 292.01562L782.29803 294.0L781.2199 294.0L781.2199 292.01562L777.3293 292.01562L777.3293 291.375L781.1418 285.46875L782.29803 285.46875L782.29803 291.14062ZM778.56366 291.14062L781.2199 291.14062L781.2199 286.95312L781.0793 287.1875L778.56366 291.14062ZM784.79803 295.70312L784.18866 295.28125Q784.73553 294.51562 784.7668 293.6875L784.7668 292.71875L785.8293 292.71875L785.8293 293.5625Q785.8293 294.15625 785.5324 294.75Q785.23553 295.34375 784.79803 295.70312ZM792.31366 294.0L786.7199 294.0L786.7199 293.21875L789.67303 289.9375Q790.3293 289.1875 790.5793 288.73438Q790.8293 288.26562 790.8293 287.76562Q790.8293 287.09375 790.42303 286.67188Q790.0324 286.23438 789.3449 286.23438Q788.54803 286.23438 788.0949 286.70312Q787.6418 287.15625 787.6418 287.98438L786.56366 287.98438Q786.56366 286.79688 787.31366 286.07812Q788.0793 285.34375 789.3449 285.34375Q790.54803 285.34375 791.23553 285.96875Q791.92303 286.59375 791.92303 287.64062Q791.92303 288.89062 790.31366 290.64062L788.0324 293.10938L792.31366 293.10938L792.31366 294.0ZM799.31366 294.0L793.7199 294.0L793.7199 293.21875L796.67303 289.9375Q797.3293 289.1875 797.5793 288.73438Q797.8293 288.26562 797.8293 287.76562Q797.8293 287.09375 797.42303 286.67188Q797.0324 286.23438 796.3449 286.23438Q795.54803 286.23438 795.0949 286.70312Q794.6418 287.15625 794.6418 287.98438L793.56366 287.98438Q793.56366 286.79688 794.31366 286.07812Q795.0793 285.34375 796.3449 285.34375Q797.54803 285.34375 798.23553 285.96875Q798.92303 286.59375 798.92303 287.64062Q798.92303 288.89062 797.31366 290.64062L795.0324 293.10938L799.31366 293.10938L799.31366 294.0Z" fill-rule="nonzero"/><path fill="#ffffff" d="M782.29803 291.14062L783.48553 291.14062L783.48553 292.01562L782.29803 292.01562L782.29803 294.0L781.2199 294.0L781.2199 292.01562L777.3293 292.01562L777.3293 291.375L781.1418 285.46875L782.29803 285.46875L782.29803 291.14062ZM778.56366 291.14062L781.2199 291.14062L781.2199 286.95312L781.0793 287.1875L778.56366 291.14062ZM784.79803 295.70312L784.18866 295.28125Q784.73553 294.51562 784.7668 293.6875L784.7668 292.71875L785.8293 292.71875L785.8293 293.5625Q785.8293 294.15625 785.5324 294.75Q785.23553 295.34375 784.79803 295.70312ZM792.31366 294.0L786.7199 294.0L786.7199 293.21875L789.67303 289.9375Q790.3293 289.1875 790.5793 288.73438Q790.8293 288.26562 790.8293 287.76562Q790.8293 287.09375 790.42303 286.67188Q790.0324 286.23438 789.3449 286.23438Q788.54803 286.23438 788.0949 286.70312Q787.6418 287.15625 787.6418 287.98438L786.56366 287.98438Q786.56366 286.79688 787.31366 286.07812Q788.0793 285.34375 789.3449 285.34375Q790.54803 285.34375 791.23553 285.96875Q791.92303 286.59375 791.92303 287.64062Q791.92303 288.89062 790.31366 290.64062L788.0324 293.10938L792.31366 293.10938L792.31366 294.0ZM799.31366 294.0L793.7199 294.0L793.7199 293.21875L796.67303 289.9375Q797.3293 289.1875 797.5793 288.73438Q797.8293 288.26562 797.8293 287.76562Q797.8293 287.09375 797.42303 286.67188Q797.0324 286.23438 796.3449 286.23438Q795.54803 286.23438 795.0949 286.70312Q794.6418 287.15625 794.6418 287.98438L793.56366 287.98438Q793.56366 286.79688 794.31366 286.07812Q795.0793 285.34375 796.3449 285.34375Q797.54803 285.34375 798.23553 285.96875Q798.92303 286.59375 798.92303 287.64062Q798.92303 288.89062 797.31366 290.64062L795.0324 293.10938L799.31366 293.10938L799.31366 294.0Z" fill-rule="nonzero"/><path stroke="#22ab82" stroke-width="3.0" stroke-linejoin="round" stroke-linecap="round" d="M735.84424 410.20312L736.65674 410.20312Q737.438 410.1875 737.8755 409.79688Q738.313 409.40625 738.313 408.73438Q738.313 407.23438 736.813 407.23438Q736.10986 407.23438 735.688 407.64062Q735.28174 408.04688 735.28174 408.70312L734.188 408.70312Q734.188 407.6875 734.92236 407.01562Q735.67236 406.34375 736.813 406.34375Q738.0161 406.34375 738.7036 406.98438Q739.3911 407.625 739.3911 408.76562Q739.3911 409.32812 739.03174 409.84375Q738.67236 410.35938 738.04736 410.625Q738.7505 410.84375 739.1255 411.35938Q739.5161 411.875 739.5161 412.625Q739.5161 413.76562 738.7661 414.45312Q738.0161 415.125 736.813 415.125Q735.6255 415.125 734.85986 414.46875Q734.10986 413.8125 734.10986 412.75L735.2036 412.75Q735.2036 413.42188 735.6411 413.82812Q736.0786 414.23438 736.8286 414.23438Q737.60986 414.23438 738.0161 413.82812Q738.438 413.40625 738.438 412.64062Q738.438 411.90625 737.98486 411.51562Q737.53174 411.10938 736.65674 411.09375L735.84424 411.09375L735.84424 410.20312ZM741.34424 416.70312L740.73486 416.28125Q741.28174 415.51562 741.313 414.6875L741.313 413.71875L742.3755 413.71875L742.3755 414.5625Q742.3755 415.15625 742.0786 415.75Q741.78174 416.34375 741.34424 416.70312ZM747.42236 411.25Q747.09424 411.65625 746.60986 411.90625Q746.1411 412.14062 745.5786 412.14062Q744.84424 412.14062 744.29736 411.78125Q743.7505 411.42188 743.4536 410.76562Q743.15674 410.09375 743.15674 409.29688Q743.15674 408.45312 743.46924 407.76562Q743.79736 407.07812 744.3911 406.71875Q745.0005 406.34375 745.79736 406.34375Q747.063 406.34375 747.78174 407.29688Q748.5161 408.25 748.5161 409.875L748.5161 410.1875Q748.5161 412.6875 747.53174 413.82812Q746.54736 414.96875 744.563 415.0L744.34424 415.0L744.34424 414.09375L744.5786 414.09375Q745.92236 414.0625 746.6411 413.39062Q747.35986 412.71875 747.42236 411.25ZM745.7505 411.25Q746.29736 411.25 746.7505 410.92188Q747.21924 410.57812 747.438 410.09375L747.438 409.65625Q747.438 408.59375 746.96924 407.92188Q746.5005 407.25 745.79736 407.25Q745.0786 407.25 744.6411 407.79688Q744.21924 408.34375 744.21924 409.25Q744.21924 410.125 744.6255 410.6875Q745.04736 411.25 745.7505 411.25ZM750.7661 410.71875L751.2036 406.46875L755.5786 406.46875L755.5786 407.46875L752.1255 407.46875L751.85986 409.79688Q752.5005 409.42188 753.29736 409.42188Q754.4536 409.42188 755.1411 410.20312Q755.8286 410.96875 755.8286 412.28125Q755.8286 413.59375 755.10986 414.35938Q754.40674 415.125 753.1255 415.125Q752.0005 415.125 751.28174 414.5Q750.563 413.85938 750.46924 412.75L751.48486 412.75Q751.59424 413.48438 752.0161 413.85938Q752.438 414.23438 753.1255 414.23438Q753.8755 414.23438 754.313 413.71875Q754.7505 413.20312 754.7505 412.29688Q754.7505 411.4375 754.28174 410.92188Q753.813 410.40625 753.03174 410.40625Q752.3286 410.40625 751.92236 410.70312L751.6411 410.9375L750.7661 410.71875Z" fill-rule="nonzero"/><path fill="#ffffff" d="M735.84424 410.20312L736.65674 410.20312Q737.438 410.1875 737.8755 409.79688Q738.313 409.40625 738.313 408.73438Q738.313 407.23438 736.813 407.23438Q736.10986 407.23438 735.688 407.64062Q735.28174 408.04688 735.28174 408.70312L734.188 408.70312Q734.188 407.6875 734.92236 407.01562Q735.67236 406.34375 736.813 406.34375Q738.0161 406.34375 738.7036 406.98438Q739.3911 407.625 739.3911 408.76562Q739.3911 409.32812 739.03174 409.84375Q738.67236 410.35938 738.04736 410.625Q738.7505 410.84375 739.1255 411.35938Q739.5161 411.875 739.5161 412.625Q739.5161 413.76562 738.7661 414.45312Q738.0161 415.125 736.813 415.125Q735.6255 415.125 734.85986 414.46875Q734.10986 413.8125 734.10986 412.75L735.2036 412.75Q735.2036 413.42188 735.6411 413.82812Q736.0786 414.23438 736.8286 414.23438Q737.60986 414.23438 738.0161 413.82812Q738.438 413.40625 738.438 412.64062Q738.438 411.90625 737.98486 411.51562Q737.53174 411.10938 736.65674 411.09375L735.84424 411.09375L735.84424 410.20312ZM741.34424 416.70312L740.73486 416.28125Q741.28174 415.51562 741.313 414.6875L741.313 413.71875L742.3755 413.71875L742.3755 414.5625Q742.3755 415.15625 742.0786 415.75Q741.78174 416.34375 741.34424 416.70312ZM747.42236 411.25Q747.09424 411.65625 746.60986 411.90625Q746.1411 412.14062 745.5786 412.14062Q744.84424 412.14062 744.29736 411.78125Q743.7505 411.42188 743.4536 410.76562Q743.15674 410.09375 743.15674 409.29688Q743.15674 408.45312 743.46924 407.76562Q743.79736 407.07812 744.3911 406.71875Q745.0005 406.34375 745.79736 406.34375Q747.063 406.34375 747.78174 407.29688Q748.5161 408.25 748.5161 409.875L748.5161 410.1875Q748.5161 412.6875 747.53174 413.82812Q746.54736 414.96875 744.563 415.0L744.34424 415.0L744.34424 414.09375L744.5786 414.09375Q745.92236 414.0625 746.6411 413.39062Q747.35986 412.71875 747.42236 411.25ZM745.7505 411.25Q746.29736 411.25 746.7505 410.92188Q747.21924 410.57812 747.438 410.09375L747.438 409.65625Q747.438 408.59375 746.96924 407.92188Q746.5005 407.25 745.79736 407.25Q745.0786 407.25 744.6411 407.79688Q744.21924 408.34375 744.21924 409.25Q744.21924 410.125 744.6255 410.6875Q745.04736 411.25 745.7505 411.25ZM750.7661 410.71875L751.2036 406.46875L755.5786 406.46875L755.5786 407.46875L752.1255 407.46875L751.85986 409.79688Q752.5005 409.42188 753.29736 409.42188Q754.4536 409.42188 755.1411 410.20312Q755.8286 410.96875 755.8286 412.28125Q755.8286 413.59375 755.10986 414.35938Q754.40674 415.125 753.1255 415.125Q752.0005 415.125 751.28174 414.5Q750.563 413.85938 750.46924 412.75L751.48486 412.75Q751.59424 413.48438 752.0161 413.85938Q752.438 414.23438 753.1255 414.23438Q753.8755 414.23438 754.313 413.71875Q754.7505 413.20312 754.7505 412.29688Q754.7505 411.4375 754.28174 410.92188Q753.813 410.40625 753.03174 410.40625Q752.3286 410.40625 751.92236 410.70312L751.6411 410.9375L750.7661 410.71875Z" fill-rule="nonzero"/><path stroke="#8cab13" stroke-width="3.0" stroke-linejoin="round" stroke-linecap="round" d="M796.78265 210.14062L797.97015 210.14062L797.97015 211.01562L796.78265 211.01562L796.78265 213.0L795.7045 213.0L795.7045 211.01562L791.8139 211.01562L791.8139 210.375L795.6264 204.46875L796.78265 204.46875L796.78265 210.14062ZM793.0483 210.14062L795.7045 210.14062L795.7045 205.95312L795.5639 206.1875L793.0483 210.14062ZM799.28265 214.70312L798.6733 214.28125Q799.22015 213.51562 799.2514 212.6875L799.2514 211.71875L800.3139 211.71875L800.3139 212.5625Q800.3139 213.15625 800.017 213.75Q799.72015 214.34375 799.28265 214.70312ZM802.78265 208.20312L803.59515 208.20312Q804.3764 208.1875 804.8139 207.79688Q805.2514 207.40625 805.2514 206.73438Q805.2514 205.23438 803.7514 205.23438Q803.0483 205.23438 802.6264 205.64062Q802.22015 206.04688 802.22015 206.70312L801.1264 206.70312Q801.1264 205.6875 801.8608 205.01562Q802.6108 204.34375 803.7514 204.34375Q804.9545 204.34375 805.642 204.98438Q806.3295 205.625 806.3295 206.76562Q806.3295 207.32812 805.97015 207.84375Q805.6108 208.35938 804.9858 208.625Q805.6889 208.84375 806.0639 209.35938Q806.4545 209.875 806.4545 210.625Q806.4545 211.76562 805.7045 212.45312Q804.9545 213.125 803.7514 213.125Q802.5639 213.125 801.7983 212.46875Q801.0483 211.8125 801.0483 210.75L802.142 210.75Q802.142 211.42188 802.5795 211.82812Q803.017 212.23438 803.767 212.23438Q804.5483 212.23438 804.9545 211.82812Q805.3764 211.40625 805.3764 210.64062Q805.3764 209.90625 804.9233 209.51562Q804.47015 209.10938 803.59515 209.09375L802.78265 209.09375L802.78265 208.20312ZM811.767 213.0L810.6889 213.0L810.6889 205.78125L808.5014 206.57812L808.5014 205.59375L811.6108 204.42188L811.767 204.42188L811.767 213.0Z" fill-rule="nonzero"/><path fill="#000000" d="M796.78265 210.14062L797.97015 210.14062L797.97015 211.01562L796.78265 211.01562L796.78265 213.0L795.7045 213.0L795.7045 211.01562L791.8139 211.01562L791.8139 210.375L795.6264 204.46875L796.78265 204.46875L796.78265 210.14062ZM793.0483 210.14062L795.7045 210.14062L795.7045 205.95312L795.5639 206.1875L793.0483 210.14062ZM799.28265 214.70312L798.6733 214.28125Q799.22015 213.51562 799.2514 212.6875L799.2514 211.71875L800.3139 211.71875L800.3139 212.5625Q800.3139 213.15625 800.017 213.75Q799.72015 214.34375 799.28265 214.70312ZM802.78265 208.20312L803.59515 208.20312Q804.3764 208.1875 804.8139 207.79688Q805.2514 207.40625 805.2514 206.73438Q805.2514 205.23438 803.7514 205.23438Q803.0483 205.23438 802.6264 205.64062Q802.22015 206.04688 802.22015 206.70312L801.1264 206.70312Q801.1264 205.6875 801.8608 205.01562Q802.6108 204.34375 803.7514 204.34375Q804.9545 204.34375 805.642 204.98438Q806.3295 205.625 806.3295 206.76562Q806.3295 207.32812 805.97015 207.84375Q805.6108 208.35938 804.9858 208.625Q805.6889 208.84375 806.0639 209.35938Q806.4545 209.875 806.4545 210.625Q806.4545 211.76562 805.7045 212.45312Q804.9545 213.125 803.7514 213.125Q802.5639 213.125 801.7983 212.46875Q801.0483 211.8125 801.0483 210.75L802.142 210.75Q802.142 211.42188 802.5795 211.82812Q803.017 212.23438 803.767 212.23438Q804.5483 212.23438 804.9545 211.82812Q805.3764 211.40625 805.3764 210.64062Q805.3764 209.90625 804.9233 209.51562Q804.47015 209.10938 803.59515 209.09375L802.78265 209.09375L802.78265 208.20312ZM811.767 213.0L810.6889 213.0L810.6889 205.78125L808.5014 206.57812L808.5014 205.59375L811.6108 204.42188L811.767 204.42188L811.767 213.0Z" fill-rule="nonzero"/><path stroke="#8cab13" stroke-width="3.0" stroke-linejoin="round" stroke-linecap="round" d="M551.56006 333.0L545.9663 333.0L545.9663 332.21875L548.91943 328.9375Q549.5757 328.1875 549.8257 327.73438Q550.0757 327.26562 550.0757 326.76562Q550.0757 326.09375 549.66943 325.67188Q549.2788 325.23438 548.5913 325.23438Q547.79443 325.23438 547.3413 325.70312Q546.8882 326.15625 546.8882 326.98438L545.81006 326.98438Q545.81006 325.79688 546.56006 325.07812Q547.3257 324.34375 548.5913 324.34375Q549.79443 324.34375 550.48193 324.96875Q551.16943 325.59375 551.16943 326.64062Q551.16943 327.89062 549.56006 329.64062L547.2788 332.10938L551.56006 332.10938L551.56006 333.0ZM553.04443 334.70312L552.43506 334.28125Q552.98193 333.51562 553.0132 332.6875L553.0132 331.71875L554.0757 331.71875L554.0757 332.5625Q554.0757 333.15625 553.7788 333.75Q553.48193 334.34375 553.04443 334.70312ZM560.48193 325.07812L556.9507 333.0L555.81006 333.0L559.3257 325.35938L554.7163 325.35938L554.7163 324.46875L560.48193 324.46875L560.48193 325.07812ZM567.1538 326.6875Q567.1538 327.32812 566.81006 327.82812Q566.4663 328.32812 565.9038 328.60938Q566.56006 328.89062 566.9507 329.45312Q567.3413 330.0 567.3413 330.70312Q567.3413 331.79688 566.5913 332.46875Q565.85693 333.125 564.6382 333.125Q563.4038 333.125 562.6538 332.46875Q561.91943 331.79688 561.91943 330.70312Q561.91943 330.0 562.29443 329.45312Q562.66943 328.89062 563.3413 328.60938Q562.7788 328.32812 562.4507 327.82812Q562.12256 327.32812 562.12256 326.6875Q562.12256 325.60938 562.81006 324.98438Q563.49756 324.34375 564.6382 324.34375Q565.7632 324.34375 566.4507 324.98438Q567.1538 325.60938 567.1538 326.6875ZM566.2632 330.67188Q566.2632 329.95312 565.81006 329.51562Q565.35693 329.0625 564.62256 329.0625Q563.8882 329.0625 563.43506 329.51562Q562.99756 329.95312 562.99756 330.6875Q562.99756 331.40625 563.43506 331.82812Q563.87256 332.23438 564.6382 332.23438Q565.3882 332.23438 565.8257 331.8125Q566.2632 331.39062 566.2632 330.67188ZM564.6382 325.23438Q563.99756 325.23438 563.5913 325.64062Q563.2007 326.03125 563.2007 326.71875Q563.2007 327.35938 563.5913 327.76562Q563.98193 328.17188 564.62256 328.17188Q565.2788 328.17188 565.66943 327.76562Q566.06006 327.35938 566.06006 326.71875Q566.06006 326.0625 565.6538 325.65625Q565.24756 325.23438 564.6382 325.23438Z" fill-rule="nonzero"/><path fill="#000000" d="M551.56006 333.0L545.9663 333.0L545.9663 332.21875L548.91943 328.9375Q549.5757 328.1875 549.8257 327.73438Q550.0757 327.26562 550.0757 326.76562Q550.0757 326.09375 549.66943 325.67188Q549.2788 325.23438 548.5913 325.23438Q547.79443 325.23438 547.3413 325.70312Q546.8882 326.15625 546.8882 326.98438L545.81006 326.98438Q545.81006 325.79688 546.56006 325.07812Q547.3257 324.34375 548.5913 324.34375Q549.79443 324.34375 550.48193 324.96875Q551.16943 325.59375 551.16943 326.64062Q551.16943 327.89062 549.56006 329.64062L547.2788 332.10938L551.56006 332.10938L551.56006 333.0ZM553.04443 334.70312L552.43506 334.28125Q552.98193 333.51562 553.0132 332.6875L553.0132 331.71875L554.0757 331.71875L554.0757 332.5625Q554.0757 333.15625 553.7788 333.75Q553.48193 334.34375 553.04443 334.70312ZM560.48193 325.07812L556.9507 333.0L555.81006 333.0L559.3257 325.35938L554.7163 325.35938L554.7163 324.46875L560.48193 324.46875L560.48193 325.07812ZM567.1538 326.6875Q567.1538 327.32812 566.81006 327.82812Q566.4663 328.32812 565.9038 328.60938Q566.56006 328.89062 566.9507 329.45312Q567.3413 330.0 567.3413 330.70312Q567.3413 331.79688 566.5913 332.46875Q565.85693 333.125 564.6382 333.125Q563.4038 333.125 562.6538 332.46875Q561.91943 331.79688 561.91943 330.70312Q561.91943 330.0 562.29443 329.45312Q562.66943 328.89062 563.3413 328.60938Q562.7788 328.32812 562.4507 327.82812Q562.12256 327.32812 562.12256 326.6875Q562.12256 325.60938 562.81006 324.98438Q563.49756 324.34375 564.6382 324.34375Q565.7632 324.34375 566.4507 324.98438Q567.1538 325.60938 567.1538 326.6875ZM566.2632 330.67188Q566.2632 329.95312 565.81006 329.51562Q565.35693 329.0625 564.62256 329.0625Q563.8882 329.0625 563.43506 329.51562Q562.99756 329.95312 562.99756 330.6875Q562.99756 331.40625 563.43506 331.82812Q563.87256 332.23438 564.6382 332.23438Q565.3882 332.23438 565.8257 331.8125Q566.2632 331.39062 566.2632 330.67188ZM564.6382 325.23438Q563.99756 325.23438 563.5913 325.64062Q563.2007 326.03125 563.2007 326.71875Q563.2007 327.35938 563.5913 327.76562Q563.98193 328.17188 564.62256 328.17188Q565.2788 328.17188 565.66943 327.76562Q566.06006 327.35938 566.06006 326.71875Q566.06006 326.0625 565.6538 325.65625Q565.24756 325.23438 564.6382 325.23438Z" fill-rule="nonzero"/><path fill="#000000" d="M512.5469 557.58435L513.6094 557.4906Q513.6875 558.14685 513.96875 558.5531Q514.25 558.95935 514.8281 559.225Q515.4219 559.475 516.15625 559.475Q516.7969 559.475 517.2969 559.2875Q517.7969 559.08435 518.03125 558.7562Q518.28125 558.4125 518.28125 558.02185Q518.28125 557.6156 518.0469 557.3187Q517.8125 557.0062 517.28125 556.8031Q516.9219 556.6625 515.7344 556.3812Q514.5625 556.1 514.09375 555.85Q513.46875 555.52185 513.1719 555.0531Q512.875 554.5687 512.875 553.975Q512.875 553.33435 513.2344 552.77185Q513.6094 552.1937 514.3125 551.9125Q515.03125 551.6156 515.8906 551.6156Q516.84375 551.6156 517.5781 551.9281Q518.3125 552.225 518.7031 552.83435Q519.09375 553.4281 519.125 554.1781L518.03125 554.2562Q517.9375 553.4437 517.4219 553.0375Q516.9219 552.6156 515.9375 552.6156Q514.90625 552.6156 514.4375 552.9906Q513.96875 553.3656 513.96875 553.89685Q513.96875 554.3656 514.2969 554.6625Q514.625 554.95935 516.0 555.27185Q517.3906 555.58435 517.90625 555.8187Q518.65625 556.1781 519.0156 556.70935Q519.375 557.225 519.375 557.9281Q519.375 558.6156 518.9844 559.225Q518.59375 559.8187 517.8594 560.1625Q517.125 560.4906 516.2031 560.4906Q515.03125 560.4906 514.2344 560.1625Q513.4531 559.8187 513.0 559.1312Q512.5625 558.4437 512.5469 557.58435ZM524.8594 558.0687L525.8906 558.20935Q525.71875 559.27185 525.0156 559.8812Q524.3125 560.4906 523.2969 560.4906Q522.0156 560.4906 521.2344 559.6625Q520.46875 558.8187 520.46875 557.2562Q520.46875 556.2562 520.7969 555.5062Q521.1406 554.7406 521.8125 554.3656Q522.5 553.9906 523.3125 553.9906Q524.3125 553.9906 524.9531 554.5062Q525.6094 555.0062 525.7969 555.95935L524.7656 556.1156Q524.625 555.4906 524.25 555.1781Q523.875 554.85 523.34375 554.85Q522.5469 554.85 522.0469 555.4281Q521.5469 555.9906 521.5469 557.225Q521.5469 558.4906 522.03125 559.0531Q522.5156 559.6156 523.28125 559.6156Q523.90625 559.6156 524.3125 559.2406Q524.7344 558.8656 524.8594 558.0687ZM526.40625 557.2406Q526.40625 555.5062 527.3594 554.6781Q528.15625 553.9906 529.3125 553.9906Q530.59375 553.9906 531.40625 554.83435Q532.2344 555.6625 532.2344 557.14685Q532.2344 558.35 531.875 559.0375Q531.5156 559.725 530.8125 560.1156Q530.125 560.4906 529.3125 560.4906Q528.0156 560.4906 527.2031 559.6625Q526.40625 558.8187 526.40625 557.2406ZM527.4844 557.2406Q527.4844 558.4281 528.0 559.02185Q528.53125 559.6156 529.3125 559.6156Q530.1094 559.6156 530.625 559.02185Q531.1406 558.4281 531.1406 557.20935Q531.1406 556.0531 530.6094 555.45935Q530.09375 554.8656 529.3125 554.8656Q528.53125 554.8656 528.0 555.45935Q527.4844 556.0375 527.4844 557.2406ZM533.78125 560.35L533.78125 554.1312L534.7344 554.1312L534.7344 555.0687Q535.09375 554.4125 535.3906 554.20935Q535.7031 553.9906 536.0781 553.9906Q536.6094 553.9906 537.15625 554.3187L536.7969 555.3031Q536.40625 555.0687 536.03125 555.0687Q535.6719 555.0687 535.3906 555.2875Q535.125 555.4906 535.0156 555.8656Q534.8281 556.4281 534.8281 557.08435L534.8281 560.35L533.78125 560.35ZM542.0469 558.35L543.1406 558.475Q542.8906 559.4281 542.1875 559.95935Q541.4844 560.4906 540.40625 560.4906Q539.0469 560.4906 538.2344 559.64685Q537.4375 558.8031 537.4375 557.2875Q537.4375 555.725 538.25 554.8656Q539.0625 553.9906 540.34375 553.9906Q541.59375 553.9906 542.375 554.83435Q543.1719 555.6781 543.1719 557.225Q543.1719 557.3187 543.1719 557.5062L538.53125 557.5062Q538.59375 558.5375 539.1094 559.08435Q539.625 559.6156 540.40625 559.6156Q540.9844 559.6156 541.3906 559.3187Q541.8125 559.0062 542.0469 558.35ZM538.59375 556.64685L542.0625 556.64685Q542.0 555.85 541.6719 555.45935Q541.15625 554.85 540.3594 554.85Q539.625 554.85 539.125 555.33435Q538.6406 555.8187 538.59375 556.64685Z" fill-rule="nonzero"/><path fill="#000000" d="M37.88435 353.2198L37.7906 352.1573Q38.44685 352.07916 38.8531 351.7979Q39.25935 351.51666 39.524975 350.93854Q39.774975 350.3448 39.774975 349.6104Q39.774975 348.9698 39.587475 348.4698Q39.38435 347.9698 39.056225 347.7354Q38.712475 347.4854 38.32185 347.4854Q37.9156 347.4854 37.618725 347.7198Q37.306225 347.95416 37.1031 348.4854Q36.962475 348.8448 36.681225 350.0323Q36.399975 351.20416 36.149975 351.6729Q35.82185 352.2979 35.3531 352.5948Q34.868725 352.89166 34.274975 352.89166Q33.63435 352.89166 33.07185 352.5323Q32.493725 352.1573 32.212475 351.45416Q31.9156 350.7354 31.9156 349.87604Q31.9156 348.9229 32.2281 348.18854Q32.524975 347.45416 33.13435 347.06354Q33.7281 346.6729 34.4781 346.64166L34.556225 347.7354Q33.743725 347.82916 33.337475 348.3448Q32.9156 348.8448 32.9156 349.82916Q32.9156 350.8604 33.2906 351.32916Q33.6656 351.7979 34.19685 351.7979Q34.6656 351.7979 34.962475 351.4698Q35.25935 351.14166 35.57185 349.76666Q35.88435 348.37604 36.118725 347.8604Q36.4781 347.1104 37.00935 346.75104Q37.524975 346.39166 38.2281 346.39166Q38.9156 346.39166 39.524975 346.7823Q40.118725 347.1729 40.462475 347.9073Q40.7906 348.64166 40.7906 349.56354Q40.7906 350.7354 40.462475 351.5323Q40.118725 352.31354 39.431225 352.76666Q38.743725 353.20416 37.88435 353.2198ZM38.649975 340.7198L38.774975 339.62604Q39.7281 339.87604 40.25935 340.57916Q40.7906 341.2823 40.7906 342.3604Q40.7906 343.7198 39.94685 344.5323Q39.1031 345.32916 37.587475 345.32916Q36.024975 345.32916 35.1656 344.51666Q34.2906 343.70416 34.2906 342.4229Q34.2906 341.1729 35.13435 340.39166Q35.9781 339.5948 37.524975 339.5948Q37.618725 339.5948 37.806225 339.5948L37.806225 344.2354Q38.837475 344.1729 39.38435 343.6573Q39.9156 343.14166 39.9156 342.3604Q39.9156 341.7823 39.618725 341.37604Q39.306225 340.95416 38.649975 340.7198ZM36.94685 344.1729L36.94685 340.70416Q36.149975 340.76666 35.75935 341.0948Q35.149975 341.6104 35.149975 342.4073Q35.149975 343.14166 35.63435 343.64166Q36.118725 344.12604 36.94685 344.1729ZM39.88435 333.9073Q40.38435 334.50104 40.587475 335.0479Q40.7906 335.57916 40.7906 336.20416Q40.7906 337.2354 40.2906 337.7823Q39.7906 338.32916 39.00935 338.32916Q38.556225 338.32916 38.181225 338.12604Q37.7906 337.9229 37.57185 337.57916Q37.337475 337.2354 37.2281 336.81354Q37.13435 336.51666 37.056225 335.87604Q36.9156 334.6104 36.69685 334.00104Q36.4781 334.00104 36.431225 334.00104Q35.774975 334.00104 35.50935 334.2979Q35.1656 334.70416 35.1656 335.50104Q35.1656 336.2354 35.431225 336.5948Q35.681225 336.95416 36.337475 337.12604L36.19685 338.1573Q35.5406 338.01666 35.13435 337.68854Q34.7281 337.3604 34.50935 336.75104Q34.2906 336.14166 34.2906 335.3448Q34.2906 334.5479 34.4781 334.0479Q34.6656 333.5479 34.94685 333.31354Q35.2281 333.07916 35.6656 332.9854Q35.931225 332.93854 36.63435 332.93854L38.0406 332.93854Q39.50935 332.93854 39.899975 332.87604Q40.2906 332.7979 40.649975 332.5948L40.649975 333.70416Q40.32185 333.8604 39.88435 333.9073ZM37.524975 334.00104Q37.75935 334.57916 37.931225 335.7198Q38.024975 336.37604 38.149975 336.64166Q38.25935 336.9073 38.4781 337.06354Q38.69685 337.20416 38.9781 337.20416Q39.399975 337.20416 39.681225 336.89166Q39.962475 336.56354 39.962475 335.95416Q39.962475 335.3448 39.69685 334.87604Q39.431225 334.39166 38.962475 334.1729Q38.6031 334.00104 37.9156 334.00104L37.524975 334.00104ZM40.649975 330.9854L34.431225 330.9854L34.431225 330.0323L35.368725 330.0323Q34.712475 329.6729 34.50935 329.37604Q34.2906 329.06354 34.2906 328.68854Q34.2906 328.1573 34.618725 327.6104L35.6031 327.9698Q35.368725 328.3604 35.368725 328.7354Q35.368725 329.0948 35.587475 329.37604Q35.7906 329.64166 36.1656 329.75104Q36.7281 329.93854 37.38435 329.93854L40.649975 329.93854L40.649975 330.9854ZM38.368725 322.9073L38.50935 321.87604Q39.57185 322.0479 40.181225 322.75104Q40.7906 323.45416 40.7906 324.4698Q40.7906 325.75104 39.962475 326.5323Q39.118725 327.2979 37.556225 327.2979Q36.556225 327.2979 35.806225 326.9698Q35.0406 326.62604 34.6656 325.95416Q34.2906 325.26666 34.2906 324.45416Q34.2906 323.45416 34.806225 322.81354Q35.306225 322.1573 36.25935 321.9698L36.4156 323.00104Q35.7906 323.14166 35.4781 323.51666Q35.149975 323.89166 35.149975 324.4229Q35.149975 325.2198 35.7281 325.7198Q36.2906 326.2198 37.524975 326.2198Q38.7906 326.2198 39.3531 325.7354Q39.9156 325.25104 39.9156 324.4854Q39.9156 323.8604 39.5406 323.45416Q39.1656 323.0323 38.368725 322.9073ZM40.649975 320.9698L32.056225 320.9698L32.056225 319.9229L35.13435 319.9229Q34.2906 319.18854 34.2906 318.06354Q34.2906 317.3604 34.57185 316.8604Q34.837475 316.3448 35.32185 316.12604Q35.7906 315.9073 36.712475 315.9073L40.649975 315.9073L40.649975 316.95416L36.712475 316.95416Q35.9156 316.95416 35.556225 317.2979Q35.19685 317.64166 35.19685 318.26666Q35.19685 318.7354 35.44685 319.1573Q35.681225 319.56354 36.1031 319.75104Q36.50935 319.9229 37.243725 319.9229L40.649975 319.9229L40.649975 320.9698ZM39.712475 311.6729L40.63435 311.51666Q40.7281 311.9698 40.7281 312.31354Q40.7281 312.89166 40.556225 313.20416Q40.368725 313.51666 40.07185 313.6573Q39.774975 313.7823 38.82185 313.7823L35.243725 313.7823L35.243725 314.5479L34.431225 314.5479L34.431225 313.7823L32.88435 313.7823L32.25935 312.7354L34.431225 312.7354L34.431225 311.6729L35.243725 311.6729L35.243725 312.7354L38.88435 312.7354Q39.337475 312.7354 39.462475 312.68854Q39.587475 312.62604 39.6656 312.50104Q39.743725 312.37604 39.743725 312.14166Q39.743725 311.95416 39.712475 311.6729ZM38.649975 306.7198L38.774975 305.62604Q39.7281 305.87604 40.25935 306.57916Q40.7906 307.2823 40.7906 308.3604Q40.7906 309.7198 39.94685 310.5323Q39.1031 311.32916 37.587475 311.32916Q36.024975 311.32916 35.1656 310.51666Q34.2906 309.70416 34.2906 308.4229Q34.2906 307.1729 35.13435 306.39166Q35.9781 305.5948 37.524975 305.5948Q37.618725 305.5948 37.806225 305.5948L37.806225 310.2354Q38.837475 310.1729 39.38435 309.6573Q39.9156 309.14166 39.9156 308.3604Q39.9156 307.7823 39.618725 307.37604Q39.306225 306.95416 38.649975 306.7198ZM36.94685 310.1729L36.94685 306.70416Q36.149975 306.76666 35.75935 307.0948Q35.149975 307.6104 35.149975 308.4073Q35.149975 309.14166 35.63435 309.64166Q36.118725 310.12604 36.94685 310.1729ZM40.649975 303.9854L34.431225 303.9854L34.431225 303.0323L35.368725 303.0323Q34.712475 302.6729 34.50935 302.37604Q34.2906 302.06354 34.2906 301.68854Q34.2906 301.1573 34.618725 300.6104L35.6031 300.9698Q35.368725 301.3604 35.368725 301.7354Q35.368725 302.0948 35.587475 302.37604Q35.7906 302.64166 36.1656 302.75104Q36.7281 302.93854 37.38435 302.93854L40.649975 302.93854L40.649975 303.9854ZM40.649975 299.9698L34.431225 299.9698L34.431225 299.0323L35.306225 299.0323Q34.837475 298.7354 34.57185 298.25104Q34.2906 297.76666 34.2906 297.14166Q34.2906 296.45416 34.57185 296.01666Q34.8531 295.56354 35.368725 295.39166Q34.2906 294.64166 34.2906 293.4698Q34.2906 292.5323 34.806225 292.0479Q35.306225 291.5479 36.38435 291.5479L40.649975 291.5479L40.649975 292.5948L36.7281 292.5948Q36.1031 292.5948 35.82185 292.70416Q35.5406 292.7979 35.368725 293.06354Q35.19685 293.32916 35.19685 293.70416Q35.19685 294.3604 35.63435 294.7979Q36.07185 295.2198 37.0406 295.2198L40.649975 295.2198L40.649975 296.2823L36.6031 296.2823Q35.899975 296.2823 35.556225 296.5479Q35.19685 296.7979 35.19685 297.37604Q35.19685 297.82916 35.431225 298.20416Q35.6656 298.57916 36.118725 298.75104Q36.57185 298.9229 37.4156 298.9229L40.649975 298.9229L40.649975 299.9698ZM38.7906 290.39166L38.63435 289.3604Q39.25935 289.26666 39.587475 288.87604Q39.9156 288.4698 39.9156 287.7354Q39.9156 287.01666 39.63435 286.6729Q39.337475 286.31354 38.931225 286.31354Q38.57185 286.31354 38.368725 286.62604Q38.2281 286.8448 38.00935 287.70416Q37.712475 288.8604 37.50935 289.31354Q37.2906 289.75104 36.9156 289.9854Q36.5406 290.2198 36.07185 290.2198Q35.6656 290.2198 35.306225 290.0323Q34.94685 289.8448 34.712475 289.51666Q34.5406 289.26666 34.4156 288.8448Q34.2906 288.4229 34.2906 287.9229Q34.2906 287.20416 34.50935 286.6573Q34.712475 286.0948 35.07185 285.82916Q35.431225 285.56354 36.024975 285.4698L36.1656 286.50104Q35.69685 286.56354 35.431225 286.9073Q35.149975 287.2354 35.149975 287.8604Q35.149975 288.57916 35.399975 288.89166Q35.63435 289.20416 35.962475 289.20416Q36.1656 289.20416 36.32185 289.07916Q36.493725 288.93854 36.6031 288.6729Q36.6656 288.51666 36.868725 287.7354Q37.181225 286.6104 37.368725 286.1729Q37.556225 285.7354 37.9156 285.4854Q38.274975 285.2354 38.82185 285.2354Q39.3531 285.2354 39.82185 285.5479Q40.274975 285.8448 40.5406 286.4229Q40.7906 287.00104 40.7906 287.7354Q40.7906 288.95416 40.2906 289.5948Q39.774975 290.2198 38.7906 290.39166Z" fill-rule="nonzero"/><path fill="#000000" d="M93.49375 187.07303L93.19688 185.4324L93.19688 184.02615L94.4 184.02615L94.4 185.4324L94.13438 187.07303L93.49375 187.07303ZM95.43125 187.07303L95.15 185.4324L95.15 184.02615L96.35313 184.02615L96.35313 185.4324L96.07188 187.07303L95.43125 187.07303ZM97.69688 192.6199L97.69688 187.21365L96.75938 187.21365L96.75938 186.40115L97.69688 186.40115L97.69688 185.72928Q97.69688 185.10428 97.80625 184.8074Q97.9625 184.38553 98.3375 184.13553Q98.72813 183.88553 99.41563 183.88553Q99.86875 183.88553 100.4 183.9949L100.24375 184.90115Q99.91563 184.85428 99.61875 184.85428Q99.13438 184.85428 98.93125 185.0574Q98.74375 185.26053 98.74375 185.82303L98.74375 186.40115L99.9625 186.40115L99.9625 187.21365L98.74375 187.21365L98.74375 192.6199L97.69688 192.6199ZM104.50938 191.85428Q103.91563 192.35428 103.36875 192.5574Q102.8375 192.76053 102.2125 192.76053Q101.18125 192.76053 100.63438 192.26053Q100.0875 191.76053 100.0875 190.97928Q100.0875 190.52615 100.29063 190.15115Q100.49375 189.76053 100.8375 189.54178Q101.18125 189.3074 101.60313 189.19803Q101.9 189.10428 102.54063 189.02615Q103.80625 188.88553 104.41563 188.66678Q104.41563 188.44803 104.41563 188.40115Q104.41563 187.7449 104.11875 187.47928Q103.7125 187.13553 102.91563 187.13553Q102.18125 187.13553 101.82188 187.40115Q101.4625 187.65115 101.29063 188.3074L100.25938 188.16678Q100.4 187.51053 100.72813 187.10428Q101.05625 186.69803 101.66563 186.47928Q102.275 186.26053 103.07188 186.26053Q103.86875 186.26053 104.36875 186.44803Q104.86875 186.63553 105.10313 186.91678Q105.3375 187.19803 105.43125 187.63553Q105.47813 187.90115 105.47813 188.60428L105.47813 190.01053Q105.47813 191.47928 105.54063 191.8699Q105.61875 192.26053 105.82188 192.6199L104.7125 192.6199Q104.55625 192.29178 104.50938 191.85428ZM104.41563 189.4949Q103.8375 189.72928 102.69688 189.90115Q102.04063 189.9949 101.775 190.1199Q101.50938 190.22928 101.35313 190.44803Q101.2125 190.66678 101.2125 190.94803Q101.2125 191.3699 101.525 191.65115Q101.85313 191.9324 102.4625 191.9324Q103.07188 191.9324 103.54063 191.66678Q104.025 191.40115 104.24375 190.9324Q104.41563 190.57303 104.41563 189.88553L104.41563 189.4949ZM107.025 190.76053L108.05625 190.60428Q108.15 191.22928 108.54063 191.5574Q108.94688 191.88553 109.68125 191.88553Q110.4 191.88553 110.74375 191.60428Q111.10313 191.3074 111.10313 190.90115Q111.10313 190.54178 110.79063 190.33865Q110.57188 190.19803 109.7125 189.97928Q108.55625 189.6824 108.10313 189.47928Q107.66563 189.26053 107.43125 188.88553Q107.19688 188.51053 107.19688 188.04178Q107.19688 187.63553 107.38438 187.27615Q107.57188 186.91678 107.9 186.6824Q108.15 186.51053 108.57188 186.38553Q108.99375 186.26053 109.49375 186.26053Q110.2125 186.26053 110.75938 186.47928Q111.32188 186.6824 111.5875 187.04178Q111.85313 187.40115 111.94688 187.9949L110.91563 188.13553Q110.85313 187.66678 110.50938 187.40115Q110.18125 187.1199 109.55625 187.1199Q108.8375 187.1199 108.525 187.3699Q108.2125 187.60428 108.2125 187.9324Q108.2125 188.13553 108.3375 188.29178Q108.47813 188.46365 108.74375 188.57303Q108.9 188.63553 109.68125 188.83865Q110.80625 189.15115 111.24375 189.33865Q111.68125 189.52615 111.93125 189.88553Q112.18125 190.2449 112.18125 190.79178Q112.18125 191.32303 111.86875 191.79178Q111.57188 192.2449 110.99375 192.51053Q110.41563 192.76053 109.68125 192.76053Q108.4625 192.76053 107.82188 192.26053Q107.19688 191.7449 107.025 190.76053ZM115.74375 191.6824L115.9 192.60428Q115.44688 192.69803 115.10313 192.69803Q114.525 192.69803 114.2125 192.52615Q113.9 192.33865 113.75938 192.04178Q113.63438 191.7449 113.63438 190.79178L113.63438 187.21365L112.86875 187.21365L112.86875 186.40115L113.63438 186.40115L113.63438 184.85428L114.68125 184.22928L114.68125 186.40115L115.74375 186.40115L115.74375 187.21365L114.68125 187.21365L114.68125 190.85428Q114.68125 191.3074 114.72813 191.4324Q114.79063 191.5574 114.91563 191.63553Q115.04063 191.71365 115.275 191.71365Q115.4625 191.71365 115.74375 191.6824ZM116.49375 187.07303L116.19688 185.4324L116.19688 184.02615L117.4 184.02615L117.4 185.4324L117.13438 187.07303L116.49375 187.07303ZM118.43125 187.07303L118.15 185.4324L118.15 184.02615L119.35313 184.02615L119.35313 185.4324L119.07188 187.07303L118.43125 187.07303Z" fill-rule="nonzero"/><path fill="#000000" d="M62.49375 307.7198L62.196877 306.07916L62.196877 304.6729L63.4 304.6729L63.4 306.07916L63.134377 307.7198L62.49375 307.7198ZM64.43125 307.7198L64.15 306.07916L64.15 304.6729L65.35313 304.6729L65.35313 306.07916L65.07188 307.7198L64.43125 307.7198ZM68.74375 312.32916L68.9 313.25104Q68.44688 313.3448 68.10313 313.3448Q67.525 313.3448 67.2125 313.1729Q66.9 312.9854 66.75938 312.68854Q66.63438 312.39166 66.63438 311.43854L66.63438 307.8604L65.86875 307.8604L65.86875 307.0479L66.63438 307.0479L66.63438 305.50104L67.68125 304.87604L67.68125 307.0479L68.74375 307.0479L68.74375 307.8604L67.68125 307.8604L67.68125 311.50104Q67.68125 311.95416 67.72813 312.07916Q67.79063 312.20416 67.91563 312.2823Q68.04063 312.3604 68.275 312.3604Q68.4625 312.3604 68.74375 312.32916ZM69.43125 313.26666L69.43125 307.0479L70.38438 307.0479L70.38438 307.9854Q70.74375 307.32916 71.04063 307.12604Q71.35313 306.9073 71.72813 306.9073Q72.25938 306.9073 72.80625 307.2354L72.44688 308.2198Q72.05625 307.9854 71.68125 307.9854Q71.32188 307.9854 71.04063 308.20416Q70.775 308.4073 70.66563 308.7823Q70.47813 309.3448 70.47813 310.00104L70.47813 313.26666L69.43125 313.26666ZM77.50938 312.50104Q76.91563 313.00104 76.36875 313.20416Q75.8375 313.4073 75.2125 313.4073Q74.18125 313.4073 73.63438 312.9073Q73.0875 312.4073 73.0875 311.62604Q73.0875 311.1729 73.29063 310.7979Q73.49375 310.4073 73.8375 310.18854Q74.18125 309.95416 74.60313 309.8448Q74.9 309.75104 75.54063 309.6729Q76.80625 309.5323 77.41563 309.31354Q77.41563 309.0948 77.41563 309.0479Q77.41563 308.39166 77.11875 308.12604Q76.7125 307.7823 75.91563 307.7823Q75.18125 307.7823 74.82188 308.0479Q74.4625 308.2979 74.29063 308.95416L73.25938 308.81354Q73.4 308.1573 73.72813 307.75104Q74.05625 307.3448 74.66563 307.12604Q75.275 306.9073 76.07188 306.9073Q76.86875 306.9073 77.36875 307.0948Q77.86875 307.2823 78.10313 307.56354Q78.3375 307.8448 78.43125 308.2823Q78.47813 308.5479 78.47813 309.25104L78.47813 310.6573Q78.47813 312.12604 78.54063 312.51666Q78.61875 312.9073 78.82188 313.26666L77.7125 313.26666Q77.55625 312.93854 77.50938 312.50104ZM77.41563 310.14166Q76.8375 310.37604 75.69688 310.5479Q75.04063 310.64166 74.775 310.76666Q74.50938 310.87604 74.35313 311.0948Q74.2125 311.31354 74.2125 311.5948Q74.2125 312.01666 74.525 312.2979Q74.85313 312.57916 75.4625 312.57916Q76.07188 312.57916 76.54063 312.31354Q77.025 312.0479 77.24375 311.57916Q77.41563 311.2198 77.41563 310.5323L77.41563 310.14166ZM80.44688 313.26666L80.44688 307.0479L81.38438 307.0479L81.38438 307.9229Q82.07188 306.9073 83.36875 306.9073Q83.93125 306.9073 84.4 307.1104Q84.88438 307.31354 85.11875 307.64166Q85.35313 307.9698 85.44688 308.4073Q85.49375 308.70416 85.49375 309.43854L85.49375 313.26666L84.44688 313.26666L84.44688 309.4854Q84.44688 308.82916 84.32188 308.51666Q84.19688 308.20416 83.88438 308.01666Q83.57188 307.81354 83.15 307.81354Q82.47813 307.81354 81.97813 308.25104Q81.49375 308.6729 81.49375 309.8604L81.49375 313.26666L80.44688 313.26666ZM87.025 311.4073L88.05625 311.25104Q88.15 311.87604 88.54063 312.20416Q88.94688 312.5323 89.68125 312.5323Q90.4 312.5323 90.74375 312.25104Q91.10313 311.95416 91.10313 311.5479Q91.10313 311.18854 90.79063 310.9854Q90.57188 310.8448 89.7125 310.62604Q88.55625 310.32916 88.10313 310.12604Q87.66563 309.9073 87.43125 309.5323Q87.19688 309.1573 87.19688 308.68854Q87.19688 308.2823 87.38438 307.9229Q87.57188 307.56354 87.9 307.32916Q88.15 307.1573 88.57188 307.0323Q88.99375 306.9073 89.49375 306.9073Q90.2125 306.9073 90.75938 307.12604Q91.32188 307.32916 91.5875 307.68854Q91.85313 308.0479 91.94688 308.64166L90.91563 308.7823Q90.85313 308.31354 90.50938 308.0479Q90.18125 307.76666 89.55625 307.76666Q88.8375 307.76666 88.525 308.01666Q88.2125 308.25104 88.2125 308.57916Q88.2125 308.7823 88.3375 308.93854Q88.47813 309.1104 88.74375 309.2198Q88.9 309.2823 89.68125 309.4854Q90.80625 309.7979 91.24375 309.9854Q91.68125 310.1729 91.93125 310.5323Q92.18125 310.89166 92.18125 311.43854Q92.18125 311.9698 91.86875 312.43854Q91.57188 312.89166 90.99375 313.1573Q90.41563 313.4073 89.68125 313.4073Q88.4625 313.4073 87.82188 312.9073Q87.19688 312.39166 87.025 311.4073ZM93.44688 305.89166L93.44688 304.6729L94.50938 304.6729L94.50938 305.89166L93.44688 305.89166ZM93.44688 313.26666L93.44688 307.0479L94.50938 307.0479L94.50938 313.26666L93.44688 313.26666ZM96.025 311.4073L97.05625 311.25104Q97.15 311.87604 97.54063 312.20416Q97.94688 312.5323 98.68125 312.5323Q99.4 312.5323 99.74375 312.25104Q100.10313 311.95416 100.10313 311.5479Q100.10313 311.18854 99.79063 310.9854Q99.57188 310.8448 98.7125 310.62604Q97.55625 310.32916 97.10313 310.12604Q96.66563 309.9073 96.43125 309.5323Q96.19688 309.1573 96.19688 308.68854Q96.19688 308.2823 96.38438 307.9229Q96.57188 307.56354 96.9 307.32916Q97.15 307.1573 97.57188 307.0323Q97.99375 306.9073 98.49375 306.9073Q99.2125 306.9073 99.75938 307.12604Q100.32188 307.32916 100.5875 307.68854Q100.85313 308.0479 100.94688 308.64166L99.91563 308.7823Q99.85313 308.31354 99.50938 308.0479Q99.18125 307.76666 98.55625 307.76666Q97.8375 307.76666 97.525 308.01666Q97.2125 308.25104 97.2125 308.57916Q97.2125 308.7823 97.3375 308.93854Q97.47813 309.1104 97.74375 309.2198Q97.9 309.2823 98.68125 309.4854Q99.80625 309.7979 100.24375 309.9854Q100.68125 310.1729 100.93125 310.5323Q101.18125 310.89166 101.18125 311.43854Q101.18125 311.9698 100.86875 312.43854Q100.57188 312.89166 99.99375 313.1573Q99.41563 313.4073 98.68125 313.4073Q97.4625 313.4073 96.82188 312.9073Q96.19688 312.39166 96.025 311.4073ZM104.74375 312.32916L104.9 313.25104Q104.44688 313.3448 104.10313 313.3448Q103.525 313.3448 103.2125 313.1729Q102.9 312.9854 102.75938 312.68854Q102.63438 312.39166 102.63438 311.43854L102.63438 307.8604L101.86875 307.8604L101.86875 307.0479L102.63438 307.0479L102.63438 305.50104L103.68125 304.87604L103.68125 307.0479L104.74375 307.0479L104.74375 307.8604L103.68125 307.8604L103.68125 311.50104Q103.68125 311.95416 103.72813 312.07916Q103.79063 312.20416 103.91563 312.2823Q104.04063 312.3604 104.275 312.3604Q104.4625 312.3604 104.74375 312.32916ZM105.05625 310.1573Q105.05625 308.4229 106.00938 307.5948Q106.80625 306.9073 107.9625 306.9073Q109.24375 306.9073 110.05625 307.75104Q110.88438 308.57916 110.88438 310.06354Q110.88438 311.26666 110.525 311.95416Q110.16563 312.64166 109.4625 313.0323Q108.775 313.4073 107.9625 313.4073Q106.66563 313.4073 105.85313 312.57916Q105.05625 311.7354 105.05625 310.1573ZM106.13438 310.1573Q106.13438 311.3448 106.65 311.93854Q107.18125 312.5323 107.9625 312.5323Q108.75938 312.5323 109.275 311.93854Q109.79063 311.3448 109.79063 310.12604Q109.79063 308.9698 109.25938 308.37604Q108.74375 307.7823 107.9625 307.7823Q107.18125 307.7823 106.65 308.37604Q106.13438 308.95416 106.13438 310.1573ZM112.43125 313.26666L112.43125 307.0479L113.38438 307.0479L113.38438 307.9854Q113.74375 307.32916 114.04063 307.12604Q114.35313 306.9073 114.72813 306.9073Q115.25938 306.9073 115.80625 307.2354L115.44688 308.2198Q115.05625 307.9854 114.68125 307.9854Q114.32188 307.9854 114.04063 308.20416Q113.775 308.4073 113.66563 308.7823Q113.47813 309.3448 113.47813 310.00104L113.47813 313.26666L112.43125 313.26666ZM116.49375 307.7198L116.19688 306.07916L116.19688 304.6729L117.4 304.6729L117.4 306.07916L117.13438 307.7198L116.49375 307.7198ZM118.43125 307.7198L118.15 306.07916L118.15 304.6729L119.35313 304.6729L119.35313 306.07916L119.07188 307.7198L118.43125 307.7198Z" fill-rule="nonzero"/><path fill="#000000" d="M71.49375 428.36655L71.19688 426.72592L71.19688 425.31967L72.4 425.31967L72.4 426.72592L72.13438 428.36655L71.49375 428.36655ZM73.43125 428.36655L73.15 426.72592L73.15 425.31967L74.35313 425.31967L74.35313 426.72592L74.07188 428.36655L73.43125 428.36655ZM79.50938 431.63217L80.54063 431.7728Q80.36875 432.8353 79.66563 433.44467Q78.9625 434.05405 77.94688 434.05405Q76.66563 434.05405 75.88438 433.22592Q75.11875 432.38217 75.11875 430.81967Q75.11875 429.81967 75.44688 429.06967Q75.79063 428.30405 76.4625 427.92905Q77.15 427.55405 77.9625 427.55405Q78.9625 427.55405 79.60313 428.06967Q80.25938 428.56967 80.44688 429.5228L79.41563 429.67905Q79.275 429.05405 78.9 428.74155Q78.525 428.41342 77.99375 428.41342Q77.19688 428.41342 76.69688 428.99155Q76.19688 429.55405 76.19688 430.78842Q76.19688 432.05405 76.68125 432.61655Q77.16563 433.17905 77.93125 433.17905Q78.55625 433.17905 78.9625 432.80405Q79.38438 432.42905 79.50938 431.63217ZM81.05625 430.80405Q81.05625 429.06967 82.00938 428.24155Q82.80625 427.55405 83.9625 427.55405Q85.24375 427.55405 86.05625 428.3978Q86.88438 429.22592 86.88438 430.7103Q86.88438 431.91342 86.525 432.60092Q86.16563 433.28842 85.4625 433.67905Q84.775 434.05405 83.9625 434.05405Q82.66563 434.05405 81.85313 433.22592Q81.05625 432.38217 81.05625 430.80405ZM82.13438 430.80405Q82.13438 431.99155 82.65 432.5853Q83.18125 433.17905 83.9625 433.17905Q84.75938 433.17905 85.275 432.5853Q85.79063 431.99155 85.79063 430.7728Q85.79063 429.61655 85.25938 429.0228Q84.74375 428.42905 83.9625 428.42905Q83.18125 428.42905 82.65 429.0228Q82.13438 429.60092 82.13438 430.80405ZM92.525 433.91342L92.525 432.99155Q91.79063 434.05405 90.54063 434.05405Q89.99375 434.05405 89.50938 433.85092Q89.04063 433.63217 88.80625 433.31967Q88.57188 432.99155 88.47813 432.5228Q88.41563 432.22592 88.41563 431.53842L88.41563 427.69467L89.47813 427.69467L89.47813 431.1478Q89.47813 431.9603 89.54063 432.25717Q89.63438 432.66342 89.94688 432.91342Q90.275 433.1478 90.75938 433.1478Q91.22813 433.1478 91.63438 432.91342Q92.05625 432.66342 92.22813 432.24155Q92.41563 431.81967 92.41563 431.0228L92.41563 427.69467L93.4625 427.69467L93.4625 433.91342L92.525 433.91342ZM95.44688 433.91342L95.44688 427.69467L96.38438 427.69467L96.38438 428.56967Q97.07188 427.55405 98.36875 427.55405Q98.93125 427.55405 99.4 427.75717Q99.88438 427.9603 100.11875 428.28842Q100.35313 428.61655 100.44688 429.05405Q100.49375 429.35092 100.49375 430.0853L100.49375 433.91342L99.44688 433.91342L99.44688 430.13217Q99.44688 429.47592 99.32188 429.16342Q99.19688 428.85092 98.88438 428.66342Q98.57188 428.4603 98.15 428.4603Q97.47813 428.4603 96.97813 428.8978Q96.49375 429.31967 96.49375 430.50717L96.49375 433.91342L95.44688 433.91342ZM104.74375 432.97592L104.9 433.8978Q104.44688 433.99155 104.10313 433.99155Q103.525 433.99155 103.2125 433.81967Q102.9 433.63217 102.75938 433.3353Q102.63438 433.03842 102.63438 432.0853L102.63438 428.50717L101.86875 428.50717L101.86875 427.69467L102.63438 427.69467L102.63438 426.1478L103.68125 425.5228L103.68125 427.69467L104.74375 427.69467L104.74375 428.50717L103.68125 428.50717L103.68125 432.1478Q103.68125 432.60092 103.72813 432.72592Q103.79063 432.85092 103.91563 432.92905Q104.04063 433.00717 104.275 433.00717Q104.4625 433.00717 104.74375 432.97592ZM109.69688 431.91342L110.79063 432.03842Q110.54063 432.99155 109.8375 433.5228Q109.13438 434.05405 108.05625 434.05405Q106.69688 434.05405 105.88438 433.2103Q105.0875 432.36655 105.0875 430.85092Q105.0875 429.28842 105.9 428.42905Q106.7125 427.55405 107.99375 427.55405Q109.24375 427.55405 110.025 428.3978Q110.82188 429.24155 110.82188 430.78842Q110.82188 430.88217 110.82188 431.06967L106.18125 431.06967Q106.24375 432.10092 106.75938 432.6478Q107.275 433.17905 108.05625 433.17905Q108.63438 433.17905 109.04063 432.88217Q109.4625 432.56967 109.69688 431.91342ZM106.24375 430.2103L109.7125 430.2103Q109.65 429.41342 109.32188 429.0228Q108.80625 428.41342 108.00938 428.41342Q107.275 428.41342 106.775 428.8978Q106.29063 429.38217 106.24375 430.2103ZM112.43125 433.91342L112.43125 427.69467L113.38438 427.69467L113.38438 428.63217Q113.74375 427.97592 114.04063 427.7728Q114.35313 427.55405 114.72813 427.55405Q115.25938 427.55405 115.80625 427.88217L115.44688 428.86655Q115.05625 428.63217 114.68125 428.63217Q114.32188 428.63217 114.04063 428.85092Q113.775 429.05405 113.66563 429.42905Q113.47813 429.99155 113.47813 430.6478L113.47813 433.91342L112.43125 433.91342ZM116.49375 428.36655L116.19688 426.72592L116.19688 425.31967L117.4 425.31967L117.4 426.72592L117.13438 428.36655L116.49375 428.36655ZM118.43125 428.36655L118.15 426.72592L118.15 425.31967L119.35313 425.31967L119.35313 426.72592L119.07188 428.36655L118.43125 428.36655Z" fill-rule="nonzero"/><path fill="#000000" d="M122.65 524.1156Q122.65 522.58435 122.9625 521.6625Q123.275 520.725 123.88438 520.225Q124.50938 519.725 125.44688 519.725Q126.13438 519.725 126.65 520.0062Q127.18125 520.2875 127.525 520.8187Q127.86875 521.33435 128.05624 522.08435Q128.24374 522.83435 128.24374 524.1156Q128.24374 525.6312 127.93125 526.5531Q127.63438 527.475 127.00938 527.9906Q126.4 528.4906 125.44688 528.4906Q124.2125 528.4906 123.49375 527.6Q122.65 526.5375 122.65 524.1156ZM123.72813 524.1156Q123.72813 526.225 124.22813 526.9281Q124.72813 527.6312 125.44688 527.6312Q126.18125 527.6312 126.66563 526.9281Q127.16563 526.225 127.16563 524.1156Q127.16563 521.9906 126.66563 521.3031Q126.18125 520.6 125.43125 520.6Q124.7125 520.6 124.275 521.20935Q123.72813 521.9906 123.72813 524.1156Z" fill-rule="nonzero"/><path fill="#000000" d="M287.55875 528.35L286.51187 528.35L286.51187 521.6312Q286.12125 521.9906 285.49625 522.3656Q284.88687 522.725 284.4025 522.89685L284.4025 521.8812Q285.2775 521.45935 285.93375 520.8812Q286.60562 520.2875 286.88687 519.725L287.55875 519.725L287.55875 528.35Z" fill-rule="nonzero"/><path fill="#000000" d="M450.07687 527.33435L450.07687 528.35L444.38937 528.35Q444.38937 527.975 444.51437 527.6156Q444.73312 527.0375 445.20187 526.475Q445.68625 525.9125 446.5925 525.1781Q447.99875 524.02185 448.48312 523.35Q448.98312 522.6781 448.98312 522.08435Q448.98312 521.45935 448.53 521.0375Q448.07687 520.6 447.35812 520.6Q446.5925 520.6 446.13937 521.0531Q445.68625 521.5062 445.67062 522.3187L444.5925 522.20935Q444.70187 520.9906 445.42062 520.3656Q446.155 519.725 447.38937 519.725Q448.62375 519.725 449.3425 520.4125Q450.06125 521.1 450.06125 522.1156Q450.06125 522.6312 449.8425 523.1312Q449.63937 523.6156 449.13937 524.1781Q448.655 524.725 447.53 525.6781Q446.57687 526.475 446.29562 526.77185Q446.03 527.0531 445.85812 527.33435L450.07687 527.33435Z" fill-rule="nonzero"/><path fill="#000000" d="M605.47 526.08435L606.5325 525.9437Q606.70435 526.83435 607.14185 527.2406Q607.57935 527.6312 608.20435 527.6312Q608.95435 527.6312 609.47 527.1156Q609.9856 526.6 609.9856 525.83435Q609.9856 525.1156 609.5012 524.64685Q609.0325 524.1625 608.2981 524.1625Q608.0012 524.1625 607.5481 524.2875L607.6731 523.35Q607.7825 523.3656 607.845 523.3656Q608.51685 523.3656 609.0481 523.02185Q609.595 522.6625 609.595 521.9281Q609.595 521.35 609.20435 520.975Q608.8137 520.58435 608.1887 520.58435Q607.57935 520.58435 607.1575 520.975Q606.7512 521.3656 606.64185 522.1312L605.57935 521.9437Q605.76685 520.89685 606.45435 520.3187Q607.14185 519.725 608.1575 519.725Q608.8606 519.725 609.45435 520.0375Q610.0481 520.33435 610.3606 520.85Q610.6731 521.3656 610.6731 521.95935Q610.6731 522.5062 610.3762 522.975Q610.07935 523.4281 609.5012 523.6937Q610.2512 523.8656 610.6731 524.4281Q611.095 524.975 611.095 525.8187Q611.095 526.9437 610.26685 527.725Q609.45435 528.5062 608.20435 528.5062Q607.07935 528.5062 606.32935 527.83435Q605.57935 527.14685 605.47 526.08435Z" fill-rule="nonzero"/><path fill="#000000" d="M769.785 528.35L769.785 526.2875L766.0662 526.2875L766.0662 525.3187L769.9881 519.7562L770.8475 519.7562L770.8475 525.3187L772.0037 525.3187L772.0037 526.2875L770.8475 526.2875L770.8475 528.35L769.785 528.35ZM769.785 525.3187L769.785 521.45935L767.0975 525.3187L769.785 525.3187Z" fill-rule="nonzero"/><path fill="#000000" d="M927.35 526.1L928.45935 526.0062Q928.58435 526.8187 929.02185 527.225Q929.475 527.6312 930.1156 527.6312Q930.8656 527.6312 931.39685 527.0531Q931.9281 526.475 931.9281 525.5375Q931.9281 524.6312 931.4125 524.1156Q930.9125 523.58435 930.08435 523.58435Q929.58435 523.58435 929.1625 523.8187Q928.7562 524.0531 928.52185 524.4125L927.5375 524.2875L928.3656 519.8812L932.64685 519.8812L932.64685 520.8812L929.20935 520.8812L928.7562 523.1937Q929.52185 522.64685 930.3656 522.64685Q931.4906 522.64685 932.2562 523.4281Q933.0375 524.20935 933.0375 525.4437Q933.0375 526.6 932.3656 527.45935Q931.5375 528.4906 930.1156 528.4906Q928.9437 528.4906 928.1937 527.83435Q927.45935 527.1781 927.35 526.1Z" fill-rule="nonzero"/><path fill="#22ab82" d="M343.5 75.416664C343.5 74.86438 343.94772 74.416664 344.5 74.416664L354.5 74.416664C355.05228 74.416664 355.5 74.86438 355.5 75.416664L355.5 85.416664C355.5 85.96895 355.05228 86.416664 354.5 86.416664L344.5 86.416664C343.94772 86.416664 343.5 85.96895 343.5 85.416664Z" fill-rule="nonzero"/><path fill="#1a1a1a" d="M364.04688 81.65104L365.10938 81.55729Q365.1875 82.21354 365.46875 82.61979Q365.75 83.02604 366.32812 83.291664Q366.92188 83.541664 367.65625 83.541664Q368.29688 83.541664 368.79688 83.354164Q369.29688 83.15104 369.53125 82.822914Q369.78125 82.479164 369.78125 82.08854Q369.78125 81.68229 369.54688 81.385414Q369.3125 81.072914 368.78125 80.86979Q368.42188 80.729164 367.23438 80.447914Q366.0625 80.166664 365.59375 79.916664Q364.96875 79.58854 364.67188 79.11979Q364.375 78.635414 364.375 78.041664Q364.375 77.40104 364.73438 76.83854Q365.10938 76.260414 365.8125 75.979164Q366.53125 75.68229 367.39062 75.68229Q368.34375 75.68229 369.07812 75.99479Q369.8125 76.291664 370.20312 76.90104Q370.59375 77.49479 370.625 78.24479L369.53125 78.322914Q369.4375 77.510414 368.92188 77.104164Q368.42188 76.68229 367.4375 76.68229Q366.40625 76.68229 365.9375 77.05729Q365.46875 77.43229 365.46875 77.96354Q365.46875 78.43229 365.79688 78.729164Q366.125 79.02604 367.5 79.33854Q368.89062 79.65104 369.40625 79.885414Q370.15625 80.24479 370.51562 80.77604Q370.875 81.291664 370.875 81.99479Q370.875 82.68229 370.48438 83.291664Q370.09375 83.885414 369.35938 84.229164Q368.625 84.55729 367.70312 84.55729Q366.53125 84.55729 365.73438 84.229164Q364.95312 83.885414 364.5 83.197914Q364.0625 82.510414 364.04688 81.65104ZM374.59375 83.479164L374.75 84.40104Q374.29688 84.49479 373.95312 84.49479Q373.375 84.49479 373.0625 84.322914Q372.75 84.135414 372.60938 83.83854Q372.48438 83.541664 372.48438 82.58854L372.48438 79.010414L371.71875 79.010414L371.71875 78.197914L372.48438 78.197914L372.48438 76.65104L373.53125 76.02604L373.53125 78.197914L374.59375 78.197914L374.59375 79.010414L373.53125 79.010414L373.53125 82.65104Q373.53125 83.104164 373.57812 83.229164Q373.64062 83.354164 373.76562 83.43229Q373.89062 83.510414 374.125 83.510414Q374.3125 83.510414 374.59375 83.479164ZM379.54688 82.416664L380.64062 82.541664Q380.39062 83.49479 379.6875 84.02604Q378.98438 84.55729 377.90625 84.55729Q376.54688 84.55729 375.73438 83.71354Q374.9375 82.86979 374.9375 81.354164Q374.9375 79.791664 375.75 78.93229Q376.5625 78.05729 377.84375 78.05729Q379.09375 78.05729 379.875 78.90104Q380.67188 79.74479 380.67188 81.291664Q380.67188 81.385414 380.67188 81.572914L376.03125 81.572914Q376.09375 82.604164 376.60938 83.15104Q377.125 83.68229 377.90625 83.68229Q378.48438 83.68229 378.89062 83.385414Q379.3125 83.072914 379.54688 82.416664ZM376.09375 80.71354L379.5625 80.71354Q379.5 79.916664 379.17188 79.52604Q378.65625 78.916664 377.85938 78.916664Q377.125 78.916664 376.625 79.40104Q376.14062 79.885414 376.09375 80.71354ZM382.29688 84.416664L382.29688 78.197914L383.23438 78.197914L383.23438 79.072914Q383.53125 78.604164 384.01562 78.33854Q384.5 78.05729 385.125 78.05729Q385.8125 78.05729 386.25 78.33854Q386.70312 78.61979 386.875 79.135414Q387.625 78.05729 388.79688 78.05729Q389.73438 78.05729 390.21875 78.572914Q390.71875 79.072914 390.71875 80.15104L390.71875 84.416664L389.67188 84.416664L389.67188 80.49479Q389.67188 79.86979 389.5625 79.58854Q389.46875 79.30729 389.20312 79.135414Q388.9375 78.96354 388.5625 78.96354Q387.90625 78.96354 387.46875 79.40104Q387.04688 79.83854 387.04688 80.80729L387.04688 84.416664L385.98438 84.416664L385.98438 80.36979Q385.98438 79.666664 385.71875 79.322914Q385.46875 78.96354 384.89062 78.96354Q384.4375 78.96354 384.0625 79.197914Q383.6875 79.43229 383.51562 79.885414Q383.34375 80.33854 383.34375 81.18229L383.34375 84.416664L382.29688 84.416664ZM392.29688 84.416664L392.29688 78.197914L393.23438 78.197914L393.23438 79.072914Q393.53125 78.604164 394.01562 78.33854Q394.5 78.05729 395.125 78.05729Q395.8125 78.05729 396.25 78.33854Q396.70312 78.61979 396.875 79.135414Q397.625 78.05729 398.79688 78.05729Q399.73438 78.05729 400.21875 78.572914Q400.71875 79.072914 400.71875 80.15104L400.71875 84.416664L399.67188 84.416664L399.67188 80.49479Q399.67188 79.86979 399.5625 79.58854Q399.46875 79.30729 399.20312 79.135414Q398.9375 78.96354 398.5625 78.96354Q397.90625 78.96354 397.46875 79.40104Q397.04688 79.83854 397.04688 80.80729L397.04688 84.416664L395.98438 84.416664L395.98438 80.36979Q395.98438 79.666664 395.71875 79.322914Q395.46875 78.96354 394.89062 78.96354Q394.4375 78.96354 394.0625 79.197914Q393.6875 79.43229 393.51562 79.885414Q393.34375 80.33854 393.34375 81.18229L393.34375 84.416664L392.29688 84.416664ZM406.54688 82.416664L407.64062 82.541664Q407.39062 83.49479 406.6875 84.02604Q405.98438 84.55729 404.90625 84.55729Q403.54688 84.55729 402.73438 83.71354Q401.9375 82.86979 401.9375 81.354164Q401.9375 79.791664 402.75 78.93229Q403.5625 78.05729 404.84375 78.05729Q406.09375 78.05729 406.875 78.90104Q407.67188 79.74479 407.67188 81.291664Q407.67188 81.385414 407.67188 81.572914L403.03125 81.572914Q403.09375 82.604164 403.60938 83.15104Q404.125 83.68229 404.90625 83.68229Q405.48438 83.68229 405.89062 83.385414Q406.3125 83.072914 406.54688 82.416664ZM403.09375 80.71354L406.5625 80.71354Q406.5 79.916664 406.17188 79.52604Q405.65625 78.916664 404.85938 78.916664Q404.125 78.916664 403.625 79.40104Q403.14062 79.885414 403.09375 80.71354ZM409.28125 84.416664L409.28125 78.197914L410.23438 78.197914L410.23438 79.135414Q410.59375 78.479164 410.89062 78.27604Q411.20312 78.05729 411.57812 78.05729Q412.10938 78.05729 412.65625 78.385414L412.29688 79.36979Q411.90625 79.135414 411.53125 79.135414Q411.17188 79.135414 410.89062 79.354164Q410.625 79.55729 410.51562 79.93229Q410.32812 80.49479 410.32812 81.15104L410.32812 84.416664L409.28125 84.416664ZM418.60938 84.416664L418.60938 76.83854L415.78125 76.83854L415.78125 75.822914L422.59375 75.822914L422.59375 76.83854L419.75 76.83854L419.75 84.416664L418.60938 84.416664ZM422.90625 81.30729Q422.90625 79.572914 423.85938 78.74479Q424.65625 78.05729 425.8125 78.05729Q427.09375 78.05729 427.90625 78.90104Q428.73438 79.729164 428.73438 81.21354Q428.73438 82.416664 428.375 83.104164Q428.01562 83.791664 427.3125 84.18229Q426.625 84.55729 425.8125 84.55729Q424.51562 84.55729 423.70312 83.729164Q422.90625 82.885414 422.90625 81.30729ZM423.98438 81.30729Q423.98438 82.49479 424.5 83.08854Q425.03125 83.68229 425.8125 83.68229Q426.60938 83.68229 427.125 83.08854Q427.64062 82.49479 427.64062 81.27604Q427.64062 80.11979 427.10938 79.52604Q426.59375 78.93229 425.8125 78.93229Q425.03125 78.93229 424.5 79.52604Q423.98438 80.104164 423.98438 81.30729ZM430.29688 84.416664L430.29688 75.822914L431.35938 75.822914L431.35938 80.729164L433.84375 78.197914L435.21875 78.197914L432.82812 80.49479L435.45312 84.416664L434.15625 84.416664L432.09375 81.229164L431.35938 81.947914L431.35938 84.416664L430.29688 84.416664ZM440.54688 82.416664L441.64062 82.541664Q441.39062 83.49479 440.6875 84.02604Q439.98438 84.55729 438.90625 84.55729Q437.54688 84.55729 436.73438 83.71354Q435.9375 82.86979 435.9375 81.354164Q435.9375 79.791664 436.75 78.93229Q437.5625 78.05729 438.84375 78.05729Q440.09375 78.05729 440.875 78.90104Q441.67188 79.74479 441.67188 81.291664Q441.67188 81.385414 441.67188 81.572914L437.03125 81.572914Q437.09375 82.604164 437.60938 83.15104Q438.125 83.68229 438.90625 83.68229Q439.48438 83.68229 439.89062 83.385414Q440.3125 83.072914 440.54688 82.416664ZM437.09375 80.71354L440.5625 80.71354Q440.5 79.916664 440.17188 79.52604Q439.65625 78.916664 438.85938 78.916664Q438.125 78.916664 437.625 79.40104Q437.14062 79.885414 437.09375 80.71354ZM443.29688 84.416664L443.29688 78.197914L444.23438 78.197914L444.23438 79.072914Q444.92188 78.05729 446.21875 78.05729Q446.78125 78.05729 447.25 78.260414Q447.73438 78.46354 447.96875 78.791664Q448.20312 79.11979 448.29688 79.55729Q448.34375 79.854164 448.34375 80.58854L448.34375 84.416664L447.29688 84.416664L447.29688 80.635414Q447.29688 79.979164 447.17188 79.666664Q447.04688 79.354164 446.73438 79.166664Q446.42188 78.96354 446.0 78.96354Q445.32812 78.96354 444.82812 79.40104Q444.34375 79.822914 444.34375 81.010414L444.34375 84.416664L443.29688 84.416664ZM453.48438 84.416664L453.48438 75.822914L459.28125 75.822914L459.28125 76.83854L454.625 76.83854L454.625 79.49479L458.65625 79.49479L458.65625 80.510414L454.625 80.510414L454.625 84.416664L453.48438 84.416664ZM460.29688 77.041664L460.29688 75.822914L461.35938 75.822914L461.35938 77.041664L460.29688 77.041664ZM460.29688 84.416664L460.29688 78.197914L461.35938 78.197914L461.35938 84.416664L460.29688 84.416664ZM463.26562 84.416664L463.26562 75.822914L464.32812 75.822914L464.32812 84.416664L463.26562 84.416664ZM468.59375 83.479164L468.75 84.40104Q468.29688 84.49479 467.95312 84.49479Q467.375 84.49479 467.0625 84.322914Q466.75 84.135414 466.60938 83.83854Q466.48438 83.541664 466.48438 82.58854L466.48438 79.010414L465.71875 79.010414L465.71875 78.197914L466.48438 78.197914L466.48438 76.65104L467.53125 76.02604L467.53125 78.197914L468.59375 78.197914L468.59375 79.010414L467.53125 79.010414L467.53125 82.65104Q467.53125 83.104164 467.57812 83.229164Q467.64062 83.354164 467.76562 83.43229Q467.89062 83.510414 468.125 83.510414Q468.3125 83.510414 468.59375 83.479164ZM473.54688 82.416664L474.64062 82.541664Q474.39062 83.49479 473.6875 84.02604Q472.98438 84.55729 471.90625 84.55729Q470.54688 84.55729 469.73438 83.71354Q468.9375 82.86979 468.9375 81.354164Q468.9375 79.791664 469.75 78.93229Q470.5625 78.05729 471.84375 78.05729Q473.09375 78.05729 473.875 78.90104Q474.67188 79.74479 474.67188 81.291664Q474.67188 81.385414 474.67188 81.572914L470.03125 81.572914Q470.09375 82.604164 470.60938 83.15104Q471.125 83.68229 471.90625 83.68229Q472.48438 83.68229 472.89062 83.385414Q473.3125 83.072914 473.54688 82.416664ZM470.09375 80.71354L473.5625 80.71354Q473.5 79.916664 473.17188 79.52604Q472.65625 78.916664 471.85938 78.916664Q471.125 78.916664 470.625 79.40104Q470.14062 79.885414 470.09375 80.71354ZM476.28125 84.416664L476.28125 78.197914L477.23438 78.197914L477.23438 79.135414Q477.59375 78.479164 477.89062 78.27604Q478.20312 78.05729 478.57812 78.05729Q479.10938 78.05729 479.65625 78.385414L479.29688 79.36979Q478.90625 79.135414 478.53125 79.135414Q478.17188 79.135414 477.89062 79.354164Q477.625 79.55729 477.51562 79.93229Q477.32812 80.49479 477.32812 81.15104L477.32812 84.416664L476.28125 84.416664Z" fill-rule="nonzero"/><path fill="#8cab13" d="M495.5 75.416664C495.5 74.86438 495.94772 74.416664 496.5 74.416664L506.5 74.416664C507.05228 74.416664 507.5 74.86438 507.5 75.416664L507.5 85.416664C507.5 85.96895 507.05228 86.416664 506.5 86.416664L496.5 86.416664C495.94772 86.416664 495.5 85.96895 495.5 85.416664Z" fill-rule="nonzero"/><path fill="#1a1a1a" d="M516.0469 81.65104L517.1094 81.55729Q517.1875 82.21354 517.46875 82.61979Q517.75 83.02604 518.3281 83.291664Q518.9219 83.541664 519.65625 83.541664Q520.2969 83.541664 520.7969 83.354164Q521.2969 83.15104 521.53125 82.822914Q521.78125 82.479164 521.78125 82.08854Q521.78125 81.68229 521.5469 81.385414Q521.3125 81.072914 520.78125 80.86979Q520.4219 80.729164 519.2344 80.447914Q518.0625 80.166664 517.59375 79.916664Q516.96875 79.58854 516.6719 79.11979Q516.375 78.635414 516.375 78.041664Q516.375 77.40104 516.7344 76.83854Q517.1094 76.260414 517.8125 75.979164Q518.53125 75.68229 519.3906 75.68229Q520.34375 75.68229 521.0781 75.99479Q521.8125 76.291664 522.2031 76.90104Q522.59375 77.49479 522.625 78.24479L521.53125 78.322914Q521.4375 77.510414 520.9219 77.104164Q520.4219 76.68229 519.4375 76.68229Q518.40625 76.68229 517.9375 77.05729Q517.46875 77.43229 517.46875 77.96354Q517.46875 78.43229 517.7969 78.729164Q518.125 79.02604 519.5 79.33854Q520.8906 79.65104 521.40625 79.885414Q522.15625 80.24479 522.5156 80.77604Q522.875 81.291664 522.875 81.99479Q522.875 82.68229 522.4844 83.291664Q522.09375 83.885414 521.3594 84.229164Q520.625 84.55729 519.7031 84.55729Q518.53125 84.55729 517.7344 84.229164Q516.9531 83.885414 516.5 83.197914Q516.0625 82.510414 516.0469 81.65104ZM526.59375 83.479164L526.75 84.40104Q526.2969 84.49479 525.9531 84.49479Q525.375 84.49479 525.0625 84.322914Q524.75 84.135414 524.6094 83.83854Q524.4844 83.541664 524.4844 82.58854L524.4844 79.010414L523.71875 79.010414L523.71875 78.197914L524.4844 78.197914L524.4844 76.65104L525.53125 76.02604L525.53125 78.197914L526.59375 78.197914L526.59375 79.010414L525.53125 79.010414L525.53125 82.65104Q525.53125 83.104164 525.5781 83.229164Q525.6406 83.354164 525.7656 83.43229Q525.8906 83.510414 526.125 83.510414Q526.3125 83.510414 526.59375 83.479164ZM531.3594 83.65104Q530.7656 84.15104 530.21875 84.354164Q529.6875 84.55729 529.0625 84.55729Q528.03125 84.55729 527.4844 84.05729Q526.9375 83.55729 526.9375 82.77604Q526.9375 82.322914 527.1406 81.947914Q527.34375 81.55729 527.6875 81.33854Q528.03125 81.104164 528.4531 80.99479Q528.75 80.90104 529.3906 80.822914Q530.65625 80.68229 531.2656 80.46354Q531.2656 80.24479 531.2656 80.197914Q531.2656 79.541664 530.96875 79.27604Q530.5625 78.93229 529.7656 78.93229Q529.03125 78.93229 528.6719 79.197914Q528.3125 79.447914 528.1406 80.104164L527.1094 79.96354Q527.25 79.30729 527.5781 78.90104Q527.90625 78.49479 528.5156 78.27604Q529.125 78.05729 529.9219 78.05729Q530.71875 78.05729 531.21875 78.24479Q531.71875 78.43229 531.9531 78.71354Q532.1875 78.99479 532.28125 79.43229Q532.3281 79.697914 532.3281 80.40104L532.3281 81.80729Q532.3281 83.27604 532.3906 83.666664Q532.46875 84.05729 532.6719 84.416664L531.5625 84.416664Q531.40625 84.08854 531.3594 83.65104ZM531.2656 81.291664Q530.6875 81.52604 529.5469 81.697914Q528.8906 81.791664 528.625 81.916664Q528.3594 82.02604 528.2031 82.24479Q528.0625 82.46354 528.0625 82.74479Q528.0625 83.166664 528.375 83.447914Q528.7031 83.729164 529.3125 83.729164Q529.9219 83.729164 530.3906 83.46354Q530.875 83.197914 531.09375 82.729164Q531.2656 82.36979 531.2656 81.68229L531.2656 81.291664ZM534.2969 84.416664L534.2969 78.197914L535.2344 78.197914L535.2344 79.072914Q535.9219 78.05729 537.21875 78.05729Q537.78125 78.05729 538.25 78.260414Q538.7344 78.46354 538.96875 78.791664Q539.2031 79.11979 539.2969 79.55729Q539.34375 79.854164 539.34375 80.58854L539.34375 84.416664L538.2969 84.416664L538.2969 80.635414Q538.2969 79.979164 538.1719 79.666664Q538.0469 79.354164 537.7344 79.166664Q537.4219 78.96354 537.0 78.96354Q536.3281 78.96354 535.8281 79.40104Q535.34375 79.822914 535.34375 81.010414L535.34375 84.416664L534.2969 84.416664ZM545.3281 84.416664L545.3281 83.635414Q544.7344 84.55729 543.59375 84.55729Q542.84375 84.55729 542.21875 84.15104Q541.59375 83.729164 541.25 82.99479Q540.90625 82.260414 540.90625 81.30729Q540.90625 80.385414 541.21875 79.61979Q541.53125 78.854164 542.15625 78.46354Q542.78125 78.05729 543.5469 78.05729Q544.1094 78.05729 544.5469 78.291664Q544.9844 78.52604 545.2656 78.90104L545.2656 75.822914L546.3125 75.822914L546.3125 84.416664L545.3281 84.416664ZM542.0 81.30729Q542.0 82.510414 542.5 83.104164Q543.0 83.68229 543.6875 83.68229Q544.375 83.68229 544.8594 83.11979Q545.34375 82.55729 545.34375 81.40104Q545.34375 80.11979 544.84375 79.52604Q544.3594 78.93229 543.6406 78.93229Q542.9375 78.93229 542.46875 79.510414Q542.0 80.072914 542.0 81.30729ZM552.3594 83.65104Q551.7656 84.15104 551.21875 84.354164Q550.6875 84.55729 550.0625 84.55729Q549.03125 84.55729 548.4844 84.05729Q547.9375 83.55729 547.9375 82.77604Q547.9375 82.322914 548.1406 81.947914Q548.34375 81.55729 548.6875 81.33854Q549.03125 81.104164 549.4531 80.99479Q549.75 80.90104 550.3906 80.822914Q551.65625 80.68229 552.2656 80.46354Q552.2656 80.24479 552.2656 80.197914Q552.2656 79.541664 551.96875 79.27604Q551.5625 78.93229 550.7656 78.93229Q550.03125 78.93229 549.6719 79.197914Q549.3125 79.447914 549.1406 80.104164L548.1094 79.96354Q548.25 79.30729 548.5781 78.90104Q548.90625 78.49479 549.5156 78.27604Q550.125 78.05729 550.9219 78.05729Q551.71875 78.05729 552.21875 78.24479Q552.71875 78.43229 552.9531 78.71354Q553.1875 78.99479 553.28125 79.43229Q553.3281 79.697914 553.3281 80.40104L553.3281 81.80729Q553.3281 83.27604 553.3906 83.666664Q553.46875 84.05729 553.6719 84.416664L552.5625 84.416664Q552.40625 84.08854 552.3594 83.65104ZM552.2656 81.291664Q551.6875 81.52604 550.5469 81.697914Q549.8906 81.791664 549.625 81.916664Q549.3594 82.02604 549.2031 82.24479Q549.0625 82.46354 549.0625 82.74479Q549.0625 83.166664 549.375 83.447914Q549.7031 83.729164 550.3125 83.729164Q550.9219 83.729164 551.3906 83.46354Q551.875 83.197914 552.09375 82.729164Q552.2656 82.36979 552.2656 81.68229L552.2656 81.291664ZM555.28125 84.416664L555.28125 78.197914L556.2344 78.197914L556.2344 79.135414Q556.59375 78.479164 556.8906 78.27604Q557.2031 78.05729 557.5781 78.05729Q558.1094 78.05729 558.65625 78.385414L558.2969 79.36979Q557.90625 79.135414 557.53125 79.135414Q557.1719 79.135414 556.8906 79.354164Q556.625 79.55729 556.5156 79.93229Q556.3281 80.49479 556.3281 81.15104L556.3281 84.416664L555.28125 84.416664ZM563.3281 84.416664L563.3281 83.635414Q562.7344 84.55729 561.59375 84.55729Q560.84375 84.55729 560.21875 84.15104Q559.59375 83.729164 559.25 82.99479Q558.90625 82.260414 558.90625 81.30729Q558.90625 80.385414 559.21875 79.61979Q559.53125 78.854164 560.15625 78.46354Q560.78125 78.05729 561.5469 78.05729Q562.1094 78.05729 562.5469 78.291664Q562.9844 78.52604 563.2656 78.90104L563.2656 75.822914L564.3125 75.822914L564.3125 84.416664L563.3281 84.416664ZM560.0 81.30729Q560.0 82.510414 560.5 83.104164Q561.0 83.68229 561.6875 83.68229Q562.375 83.68229 562.8594 83.11979Q563.34375 82.55729 563.34375 81.40104Q563.34375 80.11979 562.84375 79.52604Q562.3594 78.93229 561.6406 78.93229Q560.9375 78.93229 560.46875 79.510414Q560.0 80.072914 560.0 81.30729ZM568.4844 84.416664L571.78125 75.822914L573.0 75.822914L576.5156 84.416664L575.2344 84.416664L574.21875 81.80729L570.6406 81.80729L569.6875 84.416664L568.4844 84.416664ZM570.96875 80.885414L573.875 80.885414L572.9844 78.510414Q572.5625 77.43229 572.375 76.729164Q572.2031 77.55729 571.90625 78.36979L570.96875 80.885414ZM577.2969 84.416664L577.2969 78.197914L578.2344 78.197914L578.2344 79.072914Q578.9219 78.05729 580.21875 78.05729Q580.78125 78.05729 581.25 78.260414Q581.7344 78.46354 581.96875 78.791664Q582.2031 79.11979 582.2969 79.55729Q582.34375 79.854164 582.34375 80.58854L582.34375 84.416664L581.2969 84.416664L581.2969 80.635414Q581.2969 79.979164 581.1719 79.666664Q581.0469 79.354164 580.7344 79.166664Q580.4219 78.96354 580.0 78.96354Q579.3281 78.96354 578.8281 79.40104Q578.34375 79.822914 578.34375 81.010414L578.34375 84.416664L577.2969 84.416664ZM588.3594 83.65104Q587.7656 84.15104 587.21875 84.354164Q586.6875 84.55729 586.0625 84.55729Q585.03125 84.55729 584.4844 84.05729Q583.9375 83.55729 583.9375 82.77604Q583.9375 82.322914 584.1406 81.947914Q584.34375 81.55729 584.6875 81.33854Q585.03125 81.104164 585.4531 80.99479Q585.75 80.90104 586.3906 80.822914Q587.65625 80.68229 588.2656 80.46354Q588.2656 80.24479 588.2656 80.197914Q588.2656 79.541664 587.96875 79.27604Q587.5625 78.93229 586.7656 78.93229Q586.03125 78.93229 585.6719 79.197914Q585.3125 79.447914 585.1406 80.104164L584.1094 79.96354Q584.25 79.30729 584.5781 78.90104Q584.90625 78.49479 585.5156 78.27604Q586.125 78.05729 586.9219 78.05729Q587.71875 78.05729 588.21875 78.24479Q588.71875 78.43229 588.9531 78.71354Q589.1875 78.99479 589.28125 79.43229Q589.3281 79.697914 589.3281 80.40104L589.3281 81.80729Q589.3281 83.27604 589.3906 83.666664Q589.46875 84.05729 589.6719 84.416664L588.5625 84.416664Q588.40625 84.08854 588.3594 83.65104ZM588.2656 81.291664Q587.6875 81.52604 586.5469 81.697914Q585.8906 81.791664 585.625 81.916664Q585.3594 82.02604 585.2031 82.24479Q585.0625 82.46354 585.0625 82.74479Q585.0625 83.166664 585.375 83.447914Q585.7031 83.729164 586.3125 83.729164Q586.9219 83.729164 587.3906 83.46354Q587.875 83.197914 588.09375 82.729164Q588.2656 82.36979 588.2656 81.68229L588.2656 81.291664ZM591.2656 84.416664L591.2656 75.822914L592.3281 75.822914L592.3281 84.416664L591.2656 84.416664ZM594.25 86.80729L594.125 85.822914Q594.46875 85.916664 594.7344 85.916664Q595.0781 85.916664 595.28125 85.791664Q595.5 85.68229 595.6406 85.479164Q595.7344 85.30729 595.96875 84.68229Q595.9844 84.604164 596.0625 84.43229L593.6875 78.197914L594.8281 78.197914L596.125 81.791664Q596.375 82.479164 596.5781 83.24479Q596.7656 82.510414 597.0156 81.822914L598.34375 78.197914L599.3906 78.197914L597.03125 84.52604Q596.6406 85.541664 596.4375 85.93229Q596.15625 86.46354 595.78125 86.697914Q595.4219 86.947914 594.9219 86.947914Q594.625 86.947914 594.25 86.80729ZM599.7344 84.416664L599.7344 83.55729L603.7031 79.010414Q603.0156 79.041664 602.5 79.041664L599.96875 79.041664L599.96875 78.197914L605.0625 78.197914L605.0625 78.885414L601.6875 82.83854L601.03125 83.55729Q601.75 83.510414 602.3594 83.510414L605.25 83.510414L605.25 84.416664L599.7344 84.416664ZM610.5469 82.416664L611.6406 82.541664Q611.3906 83.49479 610.6875 84.02604Q609.9844 84.55729 608.90625 84.55729Q607.5469 84.55729 606.7344 83.71354Q605.9375 82.86979 605.9375 81.354164Q605.9375 79.791664 606.75 78.93229Q607.5625 78.05729 608.84375 78.05729Q610.09375 78.05729 610.875 78.90104Q611.6719 79.74479 611.6719 81.291664Q611.6719 81.385414 611.6719 81.572914L607.03125 81.572914Q607.09375 82.604164 607.6094 83.15104Q608.125 83.68229 608.90625 83.68229Q609.4844 83.68229 609.8906 83.385414Q610.3125 83.072914 610.5469 82.416664ZM607.09375 80.71354L610.5625 80.71354Q610.5 79.916664 610.1719 79.52604Q609.65625 78.916664 608.8594 78.916664Q608.125 78.916664 607.625 79.40104Q607.1406 79.885414 607.09375 80.71354ZM613.28125 84.416664L613.28125 78.197914L614.2344 78.197914L614.2344 79.135414Q614.59375 78.479164 614.8906 78.27604Q615.2031 78.05729 615.5781 78.05729Q616.1094 78.05729 616.65625 78.385414L616.2969 79.36979Q615.90625 79.135414 615.53125 79.135414Q615.1719 79.135414 614.8906 79.354164Q614.625 79.55729 614.5156 79.93229Q614.3281 80.49479 614.3281 81.15104L614.3281 84.416664L613.28125 84.416664Z" fill-rule="nonzero"/><path fill="#757575" d="M31.18125 48.65L31.18125 34.3375L33.11875 34.3375L40.634377 45.571877L40.634377 34.3375L42.446877 34.3375L42.446877 48.65L40.509377 48.65L32.99375 37.4L32.99375 48.65L31.18125 48.65ZM45.196877 48.65L45.196877 34.3375L50.5875 34.3375Q52.025 34.3375 52.775 34.4625Q53.821877 34.65 54.540627 35.15Q55.259377 35.634377 55.68125 36.525Q56.11875 37.415627 56.11875 38.478127Q56.11875 40.30625 54.946877 41.571877Q53.790627 42.821877 50.759377 42.821877L47.0875 42.821877L47.0875 48.65L45.196877 48.65ZM47.0875 41.134377L50.790627 41.134377Q52.61875 41.134377 53.384377 40.4625Q54.165627 39.775 54.165627 38.525Q54.165627 37.634377 53.7125 36.99375Q53.259377 36.353127 52.525 36.15Q52.040627 36.025 50.74375 36.025L47.0875 36.025L47.0875 41.134377ZM58.11875 48.65L58.11875 34.3375L60.009377 34.3375L60.009377 46.9625L67.05625 46.9625L67.05625 48.65L58.11875 48.65ZM86.04063 47.11875Q87.36875 48.025 88.47813 48.446877L87.91563 49.759377Q86.36875 49.2125 84.8375 48.009377Q83.24375 48.9 81.32188 48.9Q79.38438 48.9 77.79063 47.9625Q76.2125 47.025 75.35313 45.321877Q74.50938 43.61875 74.50938 41.49375Q74.50938 39.36875 75.36875 37.634377Q76.22813 35.9 77.80625 34.99375Q79.4 34.071877 81.36875 34.071877Q83.35313 34.071877 84.93125 35.025Q86.525 35.9625 87.35313 37.665627Q88.19688 39.353127 88.19688 41.478127Q88.19688 43.24375 87.66563 44.665627Q87.13438 46.071877 86.04063 47.11875ZM81.86875 44.696877Q83.50938 45.15 84.57188 46.05625Q86.24375 44.540627 86.24375 41.478127Q86.24375 39.74375 85.65 38.446877Q85.07188 37.15 83.93125 36.43125Q82.79063 35.7125 81.36875 35.7125Q79.25938 35.7125 77.85313 37.165627Q76.4625 38.603127 76.4625 41.49375Q76.4625 44.290627 77.8375 45.790627Q79.22813 47.275 81.36875 47.275Q82.38438 47.275 83.29063 46.884377Q82.4 46.321877 81.41563 46.071877L81.86875 44.696877ZM97.75938 48.65L97.75938 47.11875Q96.55625 48.884377 94.47813 48.884377Q93.55625 48.884377 92.75938 48.540627Q91.9625 48.18125 91.57188 47.65Q91.19688 47.11875 91.04063 46.3375Q90.93125 45.821877 90.93125 44.696877L90.93125 38.275L92.68125 38.275L92.68125 44.025Q92.68125 45.4 92.79063 45.884377Q92.9625 46.571877 93.49375 46.978127Q94.04063 47.36875 94.82188 47.36875Q95.61875 47.36875 96.30625 46.9625Q97.00938 46.55625 97.29063 45.86875Q97.5875 45.165627 97.5875 43.8375L97.5875 38.275L99.3375 38.275L99.3375 48.65L97.75938 48.65ZM109.07188 45.30625L110.88438 45.540627Q110.4625 47.11875 109.29063 48.009377Q108.13438 48.884377 106.32188 48.884377Q104.05625 48.884377 102.7125 47.49375Q101.38438 46.0875 101.38438 43.55625Q101.38438 40.93125 102.72813 39.49375Q104.07188 38.040627 106.22813 38.040627Q108.30625 38.040627 109.61875 39.4625Q110.94688 40.86875 110.94688 43.446877Q110.94688 43.603127 110.93125 43.915627L103.19688 43.915627Q103.29063 45.61875 104.16563 46.525Q105.04063 47.43125 106.3375 47.43125Q107.30625 47.43125 107.97813 46.93125Q108.66563 46.415627 109.07188 45.30625ZM103.29063 42.4625L109.0875 42.4625Q108.97813 41.165627 108.43125 40.509377Q107.5875 39.49375 106.24375 39.49375Q105.04063 39.49375 104.2125 40.30625Q103.38438 41.103127 103.29063 42.4625ZM112.94688 48.65L112.94688 38.275L114.525 38.275L114.525 39.853127Q115.13438 38.74375 115.65 38.4Q116.16563 38.040627 116.775 38.040627Q117.66563 38.040627 118.5875 38.603127L117.97813 40.24375Q117.3375 39.853127 116.69688 39.853127Q116.11875 39.853127 115.65 40.2125Q115.19688 40.55625 114.99375 41.165627Q114.7125 42.103127 114.7125 43.2125L114.7125 48.65L112.94688 48.65ZM119.88438 52.65L119.69688 50.99375Q120.275 51.15 120.69688 51.15Q121.29063 51.15 121.63438 50.946877Q121.99375 50.759377 122.2125 50.415627Q122.38438 50.15 122.75938 49.103127Q122.80625 48.946877 122.91563 48.665627L118.97813 38.275L120.86875 38.275L123.025 44.290627Q123.44688 45.43125 123.775 46.68125Q124.0875 45.478127 124.49375 44.321877L126.7125 38.275L128.47812 38.275L124.525 48.821877Q123.9 50.540627 123.54063 51.18125Q123.07188 52.05625 122.4625 52.446877Q121.86875 52.853127 121.025 52.853127Q120.50938 52.853127 119.88438 52.65ZM144.60312 37.8375L142.85312 37.978127Q142.61874 36.946877 142.19687 36.478127Q141.47812 35.7125 140.43124 35.7125Q139.5875 35.7125 138.9625 36.18125Q138.13437 36.790627 137.65 37.9625Q137.16562 39.11875 137.15 41.259377Q137.79062 40.30625 138.69687 39.8375Q139.61874 39.36875 140.63437 39.36875Q142.38437 39.36875 143.61874 40.665627Q144.85312 41.946877 144.85312 43.99375Q144.85312 45.353127 144.275 46.509377Q143.69687 47.665627 142.68124 48.290627Q141.66562 48.9 140.36874 48.9Q138.18124 48.9 136.79062 47.290627Q135.4 45.665627 135.4 41.946877Q135.4 37.80625 136.93124 35.915627Q138.275 34.275 140.54062 34.275Q142.22812 34.275 143.30624 35.228127Q144.38437 36.165627 144.60312 37.8375ZM137.43124 44.009377Q137.43124 44.915627 137.80624 45.74375Q138.19687 46.571877 138.88437 47.009377Q139.5875 47.446877 140.3375 47.446877Q141.4625 47.446877 142.25937 46.55625Q143.05624 45.65 143.05624 44.103127Q143.05624 42.61875 142.25937 41.775Q141.47812 40.915627 140.275 40.915627Q139.0875 40.915627 138.25937 41.775Q137.43124 42.61875 137.43124 44.009377ZM155.7125 46.9625L155.7125 48.65L146.25937 48.65Q146.24374 48.009377 146.4625 47.43125Q146.82187 46.4625 147.61874 45.525Q148.41562 44.5875 149.91562 43.353127Q152.25937 41.446877 153.07187 40.3375Q153.9 39.2125 153.9 38.2125Q153.9 37.165627 153.15 36.446877Q152.4 35.728127 151.19687 35.728127Q149.93124 35.728127 149.16562 36.49375Q148.4 37.259377 148.4 38.603127L146.5875 38.415627Q146.775 36.4 147.97812 35.3375Q149.19687 34.275 151.24374 34.275Q153.29062 34.275 154.49374 35.415627Q155.69687 36.55625 155.69687 38.24375Q155.69687 39.103127 155.3375 39.946877Q154.99374 40.775 154.18124 41.696877Q153.36874 42.603127 151.47812 44.2125Q149.88437 45.540627 149.43124 46.009377Q148.99374 46.478127 148.69687 46.9625L155.7125 46.9625ZM158.4625 40.275L158.4625 38.275L160.4625 38.275L160.4625 40.275L158.4625 40.275ZM158.4625 48.65L158.4625 46.65L160.4625 46.65L160.4625 48.65L158.4625 48.65ZM170.05624 39.4L169.57187 36.68125L169.57187 34.3375L171.57187 34.3375L171.57187 36.68125L171.13437 39.4L170.05624 39.4ZM173.29062 39.4L172.80624 36.68125L172.80624 34.3375L174.80624 34.3375L174.80624 36.68125L174.3375 39.4L173.29062 39.4ZM177.29062 48.65L177.29062 34.3375L186.94687 34.3375L186.94687 36.025L179.18124 36.025L179.18124 40.4625L185.9 40.4625L185.9 42.15L179.18124 42.15L179.18124 48.65L177.29062 48.65ZM187.61874 48.65L193.11874 34.3375L195.16562 34.3375L201.025 48.65L198.86874 48.65L197.19687 44.30625L191.2125 44.30625L189.63437 48.65L187.61874 48.65ZM191.75937 42.775L196.60312 42.775L195.11874 38.80625Q194.43124 36.99375 194.10312 35.8375Q193.82187 37.2125 193.32187 38.571877L191.75937 42.775ZM201.55624 44.05625L203.3375 43.9Q203.4625 44.9625 203.91562 45.65Q204.38437 46.3375 205.35312 46.775Q206.3375 47.196877 207.57187 47.196877Q208.65 47.196877 209.47812 46.884377Q210.30624 46.55625 210.7125 45.99375Q211.11874 45.43125 211.11874 44.759377Q211.11874 44.0875 210.72812 43.5875Q210.3375 43.0875 209.44687 42.74375Q208.86874 42.509377 206.88437 42.040627Q204.91562 41.571877 204.13437 41.15Q203.10312 40.61875 202.60312 39.821877Q202.10312 39.025 202.10312 38.040627Q202.10312 36.946877 202.7125 36.009377Q203.32187 35.071877 204.50937 34.5875Q205.69687 34.0875 207.13437 34.0875Q208.72812 34.0875 209.94687 34.603127Q211.16562 35.11875 211.80624 36.11875Q212.4625 37.103127 212.50937 38.36875L210.69687 38.509377Q210.55624 37.15 209.7125 36.4625Q208.86874 35.759377 207.2125 35.759377Q205.49374 35.759377 204.69687 36.4Q203.91562 37.025 203.91562 37.9Q203.91562 38.68125 204.47812 39.18125Q205.025 39.68125 207.3375 40.196877Q209.65 40.7125 210.50937 41.103127Q211.75937 41.68125 212.35312 42.571877Q212.94687 43.446877 212.94687 44.603127Q212.94687 45.74375 212.29062 46.759377Q211.63437 47.775 210.4 48.3375Q209.18124 48.9 207.65 48.9Q205.7125 48.9 204.4 48.3375Q203.0875 47.759377 202.3375 46.61875Q201.5875 45.478127 201.55624 44.05625ZM218.8375 48.65L218.8375 36.025L214.11874 36.025L214.11874 34.3375L225.4625 34.3375L225.4625 36.025L220.72812 36.025L220.72812 48.65L218.8375 48.65ZM236.8375 48.65L236.8375 36.025L232.11874 36.025L232.11874 34.3375L243.4625 34.3375L243.4625 36.025L238.72812 36.025L238.72812 48.65L236.8375 48.65ZM245.22812 48.65L245.22812 34.3375L251.57187 34.3375Q253.47812 34.3375 254.47812 34.728127Q255.47812 35.103127 256.07187 36.0875Q256.66562 37.05625 256.66562 38.24375Q256.66562 39.759377 255.68124 40.80625Q254.69687 41.853127 252.63437 42.134377Q253.38437 42.49375 253.775 42.853127Q254.60312 43.603127 255.35312 44.759377L257.8375 48.65L255.4625 48.65L253.55624 45.665627Q252.72812 44.384377 252.19687 43.696877Q251.66562 43.009377 251.22812 42.74375Q250.80624 42.4625 250.36874 42.353127Q250.04062 42.290627 249.32187 42.290627L247.11874 42.290627L247.11874 48.65L245.22812 48.65ZM247.11874 40.65L251.19687 40.65Q252.49374 40.65 253.2125 40.384377Q253.94687 40.11875 254.32187 39.525Q254.7125 38.93125 254.7125 38.24375Q254.7125 37.228127 253.97812 36.571877Q253.24374 35.915627 251.65 35.915627L247.11874 35.915627L247.11874 40.65ZM257.61874 48.65L263.11874 34.3375L265.16562 34.3375L271.025 48.65L268.86874 48.65L267.19687 44.30625L261.2125 44.30625L259.63437 48.65L257.61874 48.65ZM261.75937 42.775L266.60312 42.775L265.11874 38.80625Q264.43124 36.99375 264.10312 35.8375Q263.82187 37.2125 263.32187 38.571877L261.75937 42.775ZM272.18124 48.65L272.18124 34.3375L274.11874 34.3375L281.63437 45.571877L281.63437 34.3375L283.44687 34.3375L283.44687 48.65L281.50937 48.65L273.99374 37.4L273.99374 48.65L272.18124 48.65ZM285.55624 44.05625L287.3375 43.9Q287.4625 44.9625 287.91562 45.65Q288.38437 46.3375 289.35312 46.775Q290.3375 47.196877 291.57187 47.196877Q292.65 47.196877 293.47812 46.884377Q294.30624 46.55625 294.7125 45.99375Q295.11874 45.43125 295.11874 44.759377Q295.11874 44.0875 294.72812 43.5875Q294.3375 43.0875 293.44687 42.74375Q292.86874 42.509377 290.88437 42.040627Q288.91562 41.571877 288.13437 41.15Q287.10312 40.61875 286.60312 39.821877Q286.10312 39.025 286.10312 38.040627Q286.10312 36.946877 286.7125 36.009377Q287.32187 35.071877 288.50937 34.5875Q289.69687 34.0875 291.13437 34.0875Q292.72812 34.0875 293.94687 34.603127Q295.16562 35.11875 295.80624 36.11875Q296.4625 37.103127 296.50937 38.36875L294.69687 38.509377Q294.55624 37.15 293.7125 36.4625Q292.86874 35.759377 291.2125 35.759377Q289.49374 35.759377 288.69687 36.4Q287.91562 37.025 287.91562 37.9Q287.91562 38.68125 288.47812 39.18125Q289.025 39.68125 291.3375 40.196877Q293.65 40.7125 294.50937 41.103127Q295.75937 41.68125 296.35312 42.571877Q296.94687 43.446877 296.94687 44.603127Q296.94687 45.74375 296.29062 46.759377Q295.63437 47.775 294.4 48.3375Q293.18124 48.9 291.65 48.9Q289.7125 48.9 288.4 48.3375Q287.0875 47.759377 286.3375 46.61875Q285.5875 45.478127 285.55624 44.05625ZM299.50937 48.65L299.50937 34.3375L301.41562 34.3375L301.41562 48.65L299.50937 48.65ZM304.55624 44.05625L306.3375 43.9Q306.4625 44.9625 306.91562 45.65Q307.38437 46.3375 308.35312 46.775Q309.3375 47.196877 310.57187 47.196877Q311.65 47.196877 312.47812 46.884377Q313.30624 46.55625 313.7125 45.99375Q314.11874 45.43125 314.11874 44.759377Q314.11874 44.0875 313.72812 43.5875Q313.3375 43.0875 312.44687 42.74375Q311.86874 42.509377 309.88437 42.040627Q307.91562 41.571877 307.13437 41.15Q306.10312 40.61875 305.60312 39.821877Q305.10312 39.025 305.10312 38.040627Q305.10312 36.946877 305.7125 36.009377Q306.32187 35.071877 307.50937 34.5875Q308.69687 34.0875 310.13437 34.0875Q311.72812 34.0875 312.94687 34.603127Q314.16562 35.11875 314.80624 36.11875Q315.4625 37.103127 315.50937 38.36875L313.69687 38.509377Q313.55624 37.15 312.7125 36.4625Q311.86874 35.759377 310.2125 35.759377Q308.49374 35.759377 307.69687 36.4Q306.91562 37.025 306.91562 37.9Q306.91562 38.68125 307.47812 39.18125Q308.025 39.68125 310.3375 40.196877Q312.65 40.7125 313.50937 41.103127Q314.75937 41.68125 315.35312 42.571877Q315.94687 43.446877 315.94687 44.603127Q315.94687 45.74375 315.29062 46.759377Q314.63437 47.775 313.4 48.3375Q312.18124 48.9 310.65 48.9Q308.7125 48.9 307.4 48.3375Q306.0875 47.759377 305.3375 46.61875Q304.5875 45.478127 304.55624 44.05625ZM321.8375 48.65L321.8375 36.025L317.11874 36.025L317.11874 34.3375L328.4625 34.3375L328.4625 36.025L323.72812 36.025L323.72812 48.65L321.8375 48.65ZM329.61874 41.68125Q329.61874 38.11875 331.525 36.103127Q333.44687 34.071877 336.47812 34.071877Q338.4625 34.071877 340.04062 35.025Q341.63437 35.978127 342.4625 37.68125Q343.30624 39.36875 343.30624 41.509377Q343.30624 43.68125 342.43124 45.4Q341.55624 47.11875 339.93124 48.009377Q338.32187 48.9 336.4625 48.9Q334.44687 48.9 332.85312 47.93125Q331.25937 46.946877 330.43124 45.259377Q329.61874 43.55625 329.61874 41.68125ZM331.57187 41.7125Q331.57187 44.290627 332.9625 45.790627Q334.35312 47.275 336.44687 47.275Q338.5875 47.275 339.9625 45.775Q341.35312 44.259377 341.35312 41.49375Q341.35312 39.759377 340.75937 38.4625Q340.18124 37.15 339.04062 36.43125Q337.9 35.7125 336.47812 35.7125Q334.47812 35.7125 333.025 37.103127Q331.57187 38.478127 331.57187 41.7125ZM346.22812 48.65L346.22812 34.3375L352.57187 34.3375Q354.47812 34.3375 355.47812 34.728127Q356.47812 35.103127 357.07187 36.0875Q357.66562 37.05625 357.66562 38.24375Q357.66562 39.759377 356.68124 40.80625Q355.69687 41.853127 353.63437 42.134377Q354.38437 42.49375 354.775 42.853127Q355.60312 43.603127 356.35312 44.759377L358.8375 48.65L356.4625 48.65L354.55624 45.665627Q353.72812 44.384377 353.19687 43.696877Q352.66562 43.009377 352.22812 42.74375Q351.80624 42.4625 351.36874 42.353127Q351.04062 42.290627 350.32187 42.290627L348.11874 42.290627L348.11874 48.65L346.22812 48.65ZM348.11874 40.65L352.19687 40.65Q353.49374 40.65 354.2125 40.384377Q354.94687 40.11875 355.32187 39.525Q355.7125 38.93125 355.7125 38.24375Q355.7125 37.228127 354.97812 36.571877Q354.24374 35.915627 352.65 35.915627L348.11874 35.915627L348.11874 40.65ZM376.41562 43.634377L378.30624 44.103127Q377.7125 46.446877 376.16562 47.68125Q374.61874 48.9 372.36874 48.9Q370.05624 48.9 368.60312 47.9625Q367.16562 47.009377 366.4 45.228127Q365.65 43.43125 365.65 41.384377Q365.65 39.15 366.49374 37.49375Q367.35312 35.821877 368.93124 34.9625Q370.50937 34.0875 372.4 34.0875Q374.55624 34.0875 376.00937 35.18125Q377.47812 36.275 378.05624 38.259377L376.19687 38.696877Q375.69687 37.134377 374.74374 36.43125Q373.80624 35.7125 372.36874 35.7125Q370.7125 35.7125 369.60312 36.509377Q368.49374 37.290627 368.04062 38.634377Q367.60312 39.9625 367.60312 41.36875Q367.60312 43.196877 368.13437 44.571877Q368.66562 45.93125 369.79062 46.603127Q370.91562 47.275 372.2125 47.275Q373.80624 47.275 374.91562 46.353127Q376.025 45.43125 376.41562 43.634377ZM379.61874 41.68125Q379.61874 38.11875 381.525 36.103127Q383.44687 34.071877 386.47812 34.071877Q388.4625 34.071877 390.04062 35.025Q391.63437 35.978127 392.4625 37.68125Q393.30624 39.36875 393.30624 41.509377Q393.30624 43.68125 392.43124 45.4Q391.55624 47.11875 389.93124 48.009377Q388.32187 48.9 386.4625 48.9Q384.44687 48.9 382.85312 47.93125Q381.25937 46.946877 380.43124 45.259377Q379.61874 43.55625 379.61874 41.68125ZM381.57187 41.7125Q381.57187 44.290627 382.9625 45.790627Q384.35312 47.275 386.44687 47.275Q388.5875 47.275 389.9625 45.775Q391.35312 44.259377 391.35312 41.49375Q391.35312 39.759377 390.75937 38.4625Q390.18124 37.15 389.04062 36.43125Q387.9 35.7125 386.47812 35.7125Q384.47812 35.7125 383.025 37.103127Q381.57187 38.478127 381.57187 41.7125ZM405.5875 34.3375L407.47812 34.3375L407.47812 42.603127Q407.47812 44.759377 406.99374 46.040627Q406.50937 47.30625 405.22812 48.103127Q403.9625 48.9 401.88437 48.9Q399.86874 48.9 398.5875 48.2125Q397.32187 47.509377 396.775 46.196877Q396.22812 44.884377 396.22812 42.603127L396.22812 34.3375L398.11874 34.3375L398.11874 42.5875Q398.11874 44.4625 398.4625 45.353127Q398.80624 46.228127 399.65 46.7125Q400.49374 47.18125 401.72812 47.18125Q403.80624 47.18125 404.69687 46.24375Q405.5875 45.290627 405.5875 42.5875L405.5875 34.3375ZM410.18124 48.65L410.18124 34.3375L412.11874 34.3375L419.63437 45.571877L419.63437 34.3375L421.44687 34.3375L421.44687 48.65L419.50937 48.65L411.99374 37.4L411.99374 48.65L410.18124 48.65ZM427.8375 48.65L427.8375 36.025L423.11874 36.025L423.11874 34.3375L434.4625 34.3375L434.4625 36.025L429.72812 36.025L429.72812 48.65L427.8375 48.65ZM436.22812 48.65L436.22812 34.3375L446.5875 34.3375L446.5875 36.025L438.13437 36.025L438.13437 40.4L446.04062 40.4L446.04062 42.0875L438.13437 42.0875L438.13437 46.9625L446.91562 46.9625L446.91562 48.65L436.22812 48.65ZM449.22812 48.65L449.22812 34.3375L455.57187 34.3375Q457.47812 34.3375 458.47812 34.728127Q459.47812 35.103127 460.07187 36.0875Q460.66562 37.05625 460.66562 38.24375Q460.66562 39.759377 459.68124 40.80625Q458.69687 41.853127 456.63437 42.134377Q457.38437 42.49375 457.775 42.853127Q458.60312 43.603127 459.35312 44.759377L461.8375 48.65L459.4625 48.65L457.55624 45.665627Q456.72812 44.384377 456.19687 43.696877Q455.66562 43.009377 455.22812 42.74375Q454.80624 42.4625 454.36874 42.353127Q454.04062 42.290627 453.32187 42.290627L451.11874 42.290627L451.11874 48.65L449.22812 48.65ZM451.11874 40.65L455.19687 40.65Q456.49374 40.65 457.2125 40.384377Q457.94687 40.11875 458.32187 39.525Q458.7125 38.93125 458.7125 38.24375Q458.7125 37.228127 457.97812 36.571877Q457.24374 35.915627 455.65 35.915627L451.11874 35.915627L451.11874 40.65ZM462.55624 44.05625L464.3375 43.9Q464.4625 44.9625 464.91562 45.65Q465.38437 46.3375 466.35312 46.775Q467.3375 47.196877 468.57187 47.196877Q469.65 47.196877 470.47812 46.884377Q471.30624 46.55625 471.7125 45.99375Q472.11874 45.43125 472.11874 44.759377Q472.11874 44.0875 471.72812 43.5875Q471.3375 43.0875 470.44687 42.74375Q469.86874 42.509377 467.88437 42.040627Q465.91562 41.571877 465.13437 41.15Q464.10312 40.61875 463.60312 39.821877Q463.10312 39.025 463.10312 38.040627Q463.10312 36.946877 463.7125 36.009377Q464.32187 35.071877 465.50937 34.5875Q466.69687 34.0875 468.13437 34.0875Q469.72812 34.0875 470.94687 34.603127Q472.16562 35.11875 472.80624 36.11875Q473.4625 37.103127 473.50937 38.36875L471.69687 38.509377Q471.55624 37.15 470.7125 36.4625Q469.86874 35.759377 468.2125 35.759377Q466.49374 35.759377 465.69687 36.4Q464.91562 37.025 464.91562 37.9Q464.91562 38.68125 465.47812 39.18125Q466.025 39.68125 468.3375 40.196877Q470.65 40.7125 471.50937 41.103127Q472.75937 41.68125 473.35312 42.571877Q473.94687 43.446877 473.94687 44.603127Q473.94687 45.74375 473.29062 46.759377Q472.63437 47.775 471.4 48.3375Q470.18124 48.9 468.65 48.9Q466.7125 48.9 465.4 48.3375Q464.0875 47.759377 463.3375 46.61875Q462.5875 45.478127 462.55624 44.05625ZM476.05624 39.4L475.57187 36.68125L475.57187 34.3375L477.57187 34.3375L477.57187 36.68125L477.13437 39.4L476.05624 39.4ZM479.29062 39.4L478.80624 36.68125L478.80624 34.3375L480.80624 34.3375L480.80624 36.68125L480.3375 39.4L479.29062 39.4Z" fill-rule="nonzero"/></svg>