<?xml version="1.0" encoding="utf-8" standalone="no"?>
<!DOCTYPE svg PUBLIC "-//W3C//DTD SVG 1.1//EN"
  "http://www.w3.org/Graphics/SVG/1.1/DTD/svg11.dtd">
<!-- Created with matplotlib (https://matplotlib.org/) -->
<svg height="576pt" version="1.1" viewBox="0 0 1152 576" width="1152pt" xmlns="http://www.w3.org/2000/svg" xmlns:xlink="http://www.w3.org/1999/xlink">
 <defs>
  <style type="text/css">
*{stroke-linecap:butt;stroke-linejoin:round;}
  </style>
 </defs>
 <g id="figure_1">
  <g id="patch_1">
   <path d="M 0 576 
L 1152 576 
L 1152 0 
L 0 0 
z
" style="fill:#ffffff;"/>
  </g>
  <g id="axes_1">
   <g id="patch_2">
    <path d="M 127.133333 520.4 
L 1123.2 520.4 
L 1123.2 53.6 
L 127.133333 53.6 
z
" style="fill:#ffffff;"/>
   </g>
   <g id="patch_3">
    <path clip-path="url(#ped78ef60d9)" d="M 172.409091 520.4 
L 200.559821 520.4 
L 200.559821 219.998376 
L 172.409091 219.998376 
z
" style="fill:#ffb900;"/>
   </g>
   <g id="patch_4">
    <path clip-path="url(#ped78ef60d9)" d="M 289.7038 520.4 
L 317.85453 520.4 
L 317.85453 364.16818 
L 289.7038 364.16818 
z
" style="fill:#ffb900;"/>
   </g>
   <g id="patch_5">
    <path clip-path="url(#ped78ef60d9)" d="M 406.998508 520.4 
L 435.149238 520.4 
L 435.149238 456.069251 
L 406.998508 456.069251 
z
" style="fill:#ffb900;"/>
   </g>
   <g id="patch_6">
    <path clip-path="url(#ped78ef60d9)" d="M 524.293217 520.4 
L 552.443947 520.4 
L 552.443947 224.019048 
L 524.293217 224.019048 
z
" style="fill:#ffb900;"/>
   </g>
   <g id="patch_7">
    <path clip-path="url(#ped78ef60d9)" d="M 641.587926 520.4 
L 669.738656 520.4 
L 669.738656 332.002805 
L 641.587926 332.002805 
z
" style="fill:#ffb900;"/>
   </g>
   <g id="patch_8">
    <path clip-path="url(#ped78ef60d9)" d="M 758.882635 520.4 
L 787.033365 520.4 
L 787.033365 327.982134 
L 758.882635 327.982134 
z
" style="fill:#ffb900;"/>
   </g>
   <g id="patch_9">
    <path clip-path="url(#ped78ef60d9)" d="M 876.177343 520.4 
L 904.328073 520.4 
L 904.328073 382.548394 
L 876.177343 382.548394 
z
" style="fill:#ffb900;"/>
   </g>
   <g id="patch_10">
    <path clip-path="url(#ped78ef60d9)" d="M 993.472052 520.4 
L 1021.622782 520.4 
L 1021.622782 76.977335 
L 993.472052 76.977335 
z
" style="fill:#ffb900;"/>
   </g>
   <g id="patch_11">
    <path clip-path="url(#ped78ef60d9)" d="M 200.559821 520.4 
L 228.710551 520.4 
L 228.710551 217.126467 
L 200.559821 217.126467 
z
" style="fill:#8cab13;"/>
   </g>
   <g id="patch_12">
    <path clip-path="url(#ped78ef60d9)" d="M 317.85453 520.4 
L 346.00526 520.4 
L 346.00526 454.920487 
L 317.85453 454.920487 
z
" style="fill:#8cab13;"/>
   </g>
   <g id="patch_13">
    <path clip-path="url(#ped78ef60d9)" d="M 435.149238 520.4 
L 463.299969 520.4 
L 463.299969 481.916427 
L 435.149238 481.916427 
z
" style="fill:#8cab13;"/>
   </g>
   <g id="patch_14">
    <path clip-path="url(#ped78ef60d9)" d="M 552.443947 520.4 
L 580.594677 520.4 
L 580.594677 380.825249 
L 552.443947 380.825249 
z
" style="fill:#8cab13;"/>
   </g>
   <g id="patch_15">
    <path clip-path="url(#ped78ef60d9)" d="M 669.738656 520.4 
L 697.889386 520.4 
L 697.889386 446.304762 
L 669.738656 446.304762 
z
" style="fill:#8cab13;"/>
   </g>
   <g id="patch_16">
    <path clip-path="url(#ped78ef60d9)" d="M 787.033365 520.4 
L 815.184095 520.4 
L 815.184095 422.180731 
L 787.033365 422.180731 
z
" style="fill:#8cab13;"/>
   </g>
   <g id="patch_17">
    <path clip-path="url(#ped78ef60d9)" d="M 904.328073 520.4 
L 932.478804 520.4 
L 932.478804 463.536213 
L 904.328073 463.536213 
z
" style="fill:#8cab13;"/>
   </g>
   <g id="patch_18">
    <path clip-path="url(#ped78ef60d9)" d="M 1021.622782 520.4 
L 1049.773512 520.4 
L 1049.773512 187.258619 
L 1021.622782 187.258619 
z
" style="fill:#8cab13;"/>
   </g>
   <g id="patch_19">
    <path clip-path="url(#ped78ef60d9)" d="M 228.710551 520.4 
L 256.861281 520.4 
L 256.861281 211.38265 
L 228.710551 211.38265 
z
" style="fill:#242526;"/>
   </g>
   <g id="patch_20">
    <path clip-path="url(#ped78ef60d9)" d="M 346.00526 520.4 
L 374.15599 520.4 
L 374.15599 364.16818 
L 346.00526 364.16818 
z
" style="fill:#242526;"/>
   </g>
   <g id="patch_21">
    <path clip-path="url(#ped78ef60d9)" d="M 463.299969 520.4 
L 491.450699 520.4 
L 491.450699 456.069251 
L 463.299969 456.069251 
z
" style="fill:#242526;"/>
   </g>
   <g id="patch_22">
    <path clip-path="url(#ped78ef60d9)" d="M 580.594677 520.4 
L 608.745407 520.4 
L 608.745407 225.167811 
L 580.594677 225.167811 
z
" style="fill:#242526;"/>
   </g>
   <g id="patch_23">
    <path clip-path="url(#ped78ef60d9)" d="M 697.889386 520.4 
L 726.040116 520.4 
L 726.040116 316.4945 
L 697.889386 316.4945 
z
" style="fill:#242526;"/>
   </g>
   <g id="patch_24">
    <path clip-path="url(#ped78ef60d9)" d="M 815.184095 520.4 
L 843.334825 520.4 
L 843.334825 327.982134 
L 815.184095 327.982134 
z
" style="fill:#242526;"/>
   </g>
   <g id="patch_25">
    <path clip-path="url(#ped78ef60d9)" d="M 932.478804 520.4 
L 960.629534 520.4 
L 960.629534 382.548394 
L 932.478804 382.548394 
z
" style="fill:#242526;"/>
   </g>
   <g id="patch_26">
    <path clip-path="url(#ped78ef60d9)" d="M 1049.773512 520.4 
L 1077.924242 520.4 
L 1077.924242 75.828571 
L 1049.773512 75.828571 
z
" style="fill:#242526;"/>
   </g>
   <g id="matplotlib.axis_1">
    <g id="xtick_1">
     <g id="line2d_1">
      <defs>
       <path d="M 0 0 
L 0 3.5 
" id="m542da35b23" style="stroke:#000000;stroke-width:0.8;"/>
      </defs>
      <g>
       <use style="stroke:#000000;stroke-width:0.8;" x="214.635186" xlink:href="#m542da35b23" y="520.4"/>
      </g>
     </g>
     <g id="text_1">
      <!-- ADI -->
      <defs>
       <path d="M 34.1875 63.1875 
L 20.796875 26.90625 
L 47.609375 26.90625 
z
M 28.609375 72.90625 
L 39.796875 72.90625 
L 67.578125 0 
L 57.328125 0 
L 50.6875 18.703125 
L 17.828125 18.703125 
L 11.1875 0 
L 0.78125 0 
z
" id="DejaVuSans-65"/>
       <path d="M 19.671875 64.796875 
L 19.671875 8.109375 
L 31.59375 8.109375 
Q 46.6875 8.109375 53.6875 14.9375 
Q 60.6875 21.78125 60.6875 36.53125 
Q 60.6875 51.171875 53.6875 57.984375 
Q 46.6875 64.796875 31.59375 64.796875 
z
M 9.8125 72.90625 
L 30.078125 72.90625 
Q 51.265625 72.90625 61.171875 64.09375 
Q 71.09375 55.28125 71.09375 36.53125 
Q 71.09375 17.671875 61.125 8.828125 
Q 51.171875 0 30.078125 0 
L 9.8125 0 
z
" id="DejaVuSans-68"/>
       <path d="M 9.8125 72.90625 
L 19.671875 72.90625 
L 19.671875 0 
L 9.8125 0 
z
" id="DejaVuSans-73"/>
      </defs>
      <g transform="translate(205.889874 534.998438)scale(0.1 -0.1)">
       <use xlink:href="#DejaVuSans-65"/>
       <use x="68.408203" xlink:href="#DejaVuSans-68"/>
       <use x="145.410156" xlink:href="#DejaVuSans-73"/>
      </g>
     </g>
    </g>
    <g id="xtick_2">
     <g id="line2d_2">
      <g>
       <use style="stroke:#000000;stroke-width:0.8;" x="331.929895" xlink:href="#m542da35b23" y="520.4"/>
      </g>
     </g>
     <g id="text_2">
      <!-- CACM -->
      <defs>
       <path d="M 64.40625 67.28125 
L 64.40625 56.890625 
Q 59.421875 61.53125 53.78125 63.8125 
Q 48.140625 66.109375 41.796875 66.109375 
Q 29.296875 66.109375 22.65625 58.46875 
Q 16.015625 50.828125 16.015625 36.375 
Q 16.015625 21.96875 22.65625 14.328125 
Q 29.296875 6.6875 41.796875 6.6875 
Q 48.140625 6.6875 53.78125 8.984375 
Q 59.421875 11.28125 64.40625 15.921875 
L 64.40625 5.609375 
Q 59.234375 2.09375 53.4375 0.328125 
Q 47.65625 -1.421875 41.21875 -1.421875 
Q 24.65625 -1.421875 15.125 8.703125 
Q 5.609375 18.84375 5.609375 36.375 
Q 5.609375 53.953125 15.125 64.078125 
Q 24.65625 74.21875 41.21875 74.21875 
Q 47.75 74.21875 53.53125 72.484375 
Q 59.328125 70.75 64.40625 67.28125 
z
" id="DejaVuSans-67"/>
       <path d="M 9.8125 72.90625 
L 24.515625 72.90625 
L 43.109375 23.296875 
L 61.8125 72.90625 
L 76.515625 72.90625 
L 76.515625 0 
L 66.890625 0 
L 66.890625 64.015625 
L 48.09375 14.015625 
L 38.1875 14.015625 
L 19.390625 64.015625 
L 19.390625 0 
L 9.8125 0 
z
" id="DejaVuSans-77"/>
      </defs>
      <g transform="translate(317.300207 534.998438)scale(0.1 -0.1)">
       <use xlink:href="#DejaVuSans-67"/>
       <use x="69.824219" xlink:href="#DejaVuSans-65"/>
       <use x="136.482422" xlink:href="#DejaVuSans-67"/>
       <use x="206.306641" xlink:href="#DejaVuSans-77"/>
      </g>
     </g>
    </g>
    <g id="xtick_3">
     <g id="line2d_3">
      <g>
       <use style="stroke:#000000;stroke-width:0.8;" x="449.224604" xlink:href="#m542da35b23" y="520.4"/>
      </g>
     </g>
     <g id="text_3">
      <!-- CISI -->
      <defs>
       <path d="M 53.515625 70.515625 
L 53.515625 60.890625 
Q 47.90625 63.578125 42.921875 64.890625 
Q 37.9375 66.21875 33.296875 66.21875 
Q 25.25 66.21875 20.875 63.09375 
Q 16.5 59.96875 16.5 54.203125 
Q 16.5 49.359375 19.40625 46.890625 
Q 22.3125 44.4375 30.421875 42.921875 
L 36.375 41.703125 
Q 47.40625 39.59375 52.65625 34.296875 
Q 57.90625 29 57.90625 20.125 
Q 57.90625 9.515625 50.796875 4.046875 
Q 43.703125 -1.421875 29.984375 -1.421875 
Q 24.8125 -1.421875 18.96875 -0.25 
Q 13.140625 0.921875 6.890625 3.21875 
L 6.890625 13.375 
Q 12.890625 10.015625 18.65625 8.296875 
Q 24.421875 6.59375 29.984375 6.59375 
Q 38.421875 6.59375 43.015625 9.90625 
Q 47.609375 13.234375 47.609375 19.390625 
Q 47.609375 24.75 44.3125 27.78125 
Q 41.015625 30.8125 33.5 32.328125 
L 27.484375 33.5 
Q 16.453125 35.6875 11.515625 40.375 
Q 6.59375 45.0625 6.59375 53.421875 
Q 6.59375 63.09375 13.40625 68.65625 
Q 20.21875 74.21875 32.171875 74.21875 
Q 37.3125 74.21875 42.625 73.28125 
Q 47.953125 72.359375 53.515625 70.515625 
z
" id="DejaVuSans-83"/>
      </defs>
      <g transform="translate(439.608979 534.998438)scale(0.1 -0.1)">
       <use xlink:href="#DejaVuSans-67"/>
       <use x="69.824219" xlink:href="#DejaVuSans-73"/>
       <use x="99.316406" xlink:href="#DejaVuSans-83"/>
       <use x="162.792969" xlink:href="#DejaVuSans-73"/>
      </g>
     </g>
    </g>
    <g id="xtick_4">
     <g id="line2d_4">
      <g>
       <use style="stroke:#000000;stroke-width:0.8;" x="566.519312" xlink:href="#m542da35b23" y="520.4"/>
      </g>
     </g>
     <g id="text_4">
      <!-- Cranfield -->
      <defs>
       <path d="M 41.109375 46.296875 
Q 39.59375 47.171875 37.8125 47.578125 
Q 36.03125 48 33.890625 48 
Q 26.265625 48 22.1875 43.046875 
Q 18.109375 38.09375 18.109375 28.8125 
L 18.109375 0 
L 9.078125 0 
L 9.078125 54.6875 
L 18.109375 54.6875 
L 18.109375 46.1875 
Q 20.953125 51.171875 25.484375 53.578125 
Q 30.03125 56 36.53125 56 
Q 37.453125 56 38.578125 55.875 
Q 39.703125 55.765625 41.0625 55.515625 
z
" id="DejaVuSans-114"/>
       <path d="M 34.28125 27.484375 
Q 23.390625 27.484375 19.1875 25 
Q 14.984375 22.515625 14.984375 16.5 
Q 14.984375 11.71875 18.140625 8.90625 
Q 21.296875 6.109375 26.703125 6.109375 
Q 34.1875 6.109375 38.703125 11.40625 
Q 43.21875 16.703125 43.21875 25.484375 
L 43.21875 27.484375 
z
M 52.203125 31.203125 
L 52.203125 0 
L 43.21875 0 
L 43.21875 8.296875 
Q 40.140625 3.328125 35.546875 0.953125 
Q 30.953125 -1.421875 24.3125 -1.421875 
Q 15.921875 -1.421875 10.953125 3.296875 
Q 6 8.015625 6 15.921875 
Q 6 25.140625 12.171875 29.828125 
Q 18.359375 34.515625 30.609375 34.515625 
L 43.21875 34.515625 
L 43.21875 35.40625 
Q 43.21875 41.609375 39.140625 45 
Q 35.0625 48.390625 27.6875 48.390625 
Q 23 48.390625 18.546875 47.265625 
Q 14.109375 46.140625 10.015625 43.890625 
L 10.015625 52.203125 
Q 14.9375 54.109375 19.578125 55.046875 
Q 24.21875 56 28.609375 56 
Q 40.484375 56 46.34375 49.84375 
Q 52.203125 43.703125 52.203125 31.203125 
z
" id="DejaVuSans-97"/>
       <path d="M 54.890625 33.015625 
L 54.890625 0 
L 45.90625 0 
L 45.90625 32.71875 
Q 45.90625 40.484375 42.875 44.328125 
Q 39.84375 48.1875 33.796875 48.1875 
Q 26.515625 48.1875 22.3125 43.546875 
Q 18.109375 38.921875 18.109375 30.90625 
L 18.109375 0 
L 9.078125 0 
L 9.078125 54.6875 
L 18.109375 54.6875 
L 18.109375 46.1875 
Q 21.34375 51.125 25.703125 53.5625 
Q 30.078125 56 35.796875 56 
Q 45.21875 56 50.046875 50.171875 
Q 54.890625 44.34375 54.890625 33.015625 
z
" id="DejaVuSans-110"/>
       <path d="M 37.109375 75.984375 
L 37.109375 68.5 
L 28.515625 68.5 
Q 23.6875 68.5 21.796875 66.546875 
Q 19.921875 64.59375 19.921875 59.515625 
L 19.921875 54.6875 
L 34.71875 54.6875 
L 34.71875 47.703125 
L 19.921875 47.703125 
L 19.921875 0 
L 10.890625 0 
L 10.890625 47.703125 
L 2.296875 47.703125 
L 2.296875 54.6875 
L 10.890625 54.6875 
L 10.890625 58.5 
Q 10.890625 67.625 15.140625 71.796875 
Q 19.390625 75.984375 28.609375 75.984375 
z
" id="DejaVuSans-102"/>
       <path d="M 9.421875 54.6875 
L 18.40625 54.6875 
L 18.40625 0 
L 9.421875 0 
z
M 9.421875 75.984375 
L 18.40625 75.984375 
L 18.40625 64.59375 
L 9.421875 64.59375 
z
" id="DejaVuSans-105"/>
       <path d="M 56.203125 29.59375 
L 56.203125 25.203125 
L 14.890625 25.203125 
Q 15.484375 15.921875 20.484375 11.0625 
Q 25.484375 6.203125 34.421875 6.203125 
Q 39.59375 6.203125 44.453125 7.46875 
Q 49.3125 8.734375 54.109375 11.28125 
L 54.109375 2.78125 
Q 49.265625 0.734375 44.1875 -0.34375 
Q 39.109375 -1.421875 33.890625 -1.421875 
Q 20.796875 -1.421875 13.15625 6.1875 
Q 5.515625 13.8125 5.515625 26.8125 
Q 5.515625 40.234375 12.765625 48.109375 
Q 20.015625 56 32.328125 56 
Q 43.359375 56 49.78125 48.890625 
Q 56.203125 41.796875 56.203125 29.59375 
z
M 47.21875 32.234375 
Q 47.125 39.59375 43.09375 43.984375 
Q 39.0625 48.390625 32.421875 48.390625 
Q 24.90625 48.390625 20.390625 44.140625 
Q 15.875 39.890625 15.1875 32.171875 
z
" id="DejaVuSans-101"/>
       <path d="M 9.421875 75.984375 
L 18.40625 75.984375 
L 18.40625 0 
L 9.421875 0 
z
" id="DejaVuSans-108"/>
       <path d="M 45.40625 46.390625 
L 45.40625 75.984375 
L 54.390625 75.984375 
L 54.390625 0 
L 45.40625 0 
L 45.40625 8.203125 
Q 42.578125 3.328125 38.25 0.953125 
Q 33.9375 -1.421875 27.875 -1.421875 
Q 17.96875 -1.421875 11.734375 6.484375 
Q 5.515625 14.40625 5.515625 27.296875 
Q 5.515625 40.1875 11.734375 48.09375 
Q 17.96875 56 27.875 56 
Q 33.9375 56 38.25 53.625 
Q 42.578125 51.265625 45.40625 46.390625 
z
M 14.796875 27.296875 
Q 14.796875 17.390625 18.875 11.75 
Q 22.953125 6.109375 30.078125 6.109375 
Q 37.203125 6.109375 41.296875 11.75 
Q 45.40625 17.390625 45.40625 27.296875 
Q 45.40625 37.203125 41.296875 42.84375 
Q 37.203125 48.484375 30.078125 48.484375 
Q 22.953125 48.484375 18.875 42.84375 
Q 14.796875 37.203125 14.796875 27.296875 
z
" id="DejaVuSans-100"/>
      </defs>
      <g transform="translate(543.950562 534.998438)scale(0.1 -0.1)">
       <use xlink:href="#DejaVuSans-67"/>
       <use x="69.824219" xlink:href="#DejaVuSans-114"/>
       <use x="110.9375" xlink:href="#DejaVuSans-97"/>
       <use x="172.216797" xlink:href="#DejaVuSans-110"/>
       <use x="235.595703" xlink:href="#DejaVuSans-102"/>
       <use x="270.800781" xlink:href="#DejaVuSans-105"/>
       <use x="298.583984" xlink:href="#DejaVuSans-101"/>
       <use x="360.107422" xlink:href="#DejaVuSans-108"/>
       <use x="387.890625" xlink:href="#DejaVuSans-100"/>
      </g>
     </g>
    </g>
    <g id="xtick_5">
     <g id="line2d_5">
      <g>
       <use style="stroke:#000000;stroke-width:0.8;" x="683.814021" xlink:href="#m542da35b23" y="520.4"/>
      </g>
     </g>
     <g id="text_5">
      <!-- LISA -->
      <defs>
       <path d="M 9.8125 72.90625 
L 19.671875 72.90625 
L 19.671875 8.296875 
L 55.171875 8.296875 
L 55.171875 0 
L 9.8125 0 
z
" id="DejaVuSans-76"/>
      </defs>
      <g transform="translate(672.864802 534.998438)scale(0.1 -0.1)">
       <use xlink:href="#DejaVuSans-76"/>
       <use x="55.712891" xlink:href="#DejaVuSans-73"/>
       <use x="85.205078" xlink:href="#DejaVuSans-83"/>
       <use x="150.556641" xlink:href="#DejaVuSans-65"/>
      </g>
     </g>
    </g>
    <g id="xtick_6">
     <g id="line2d_6">
      <g>
       <use style="stroke:#000000;stroke-width:0.8;" x="801.10873" xlink:href="#m542da35b23" y="520.4"/>
      </g>
     </g>
     <g id="text_6">
      <!-- Medline -->
      <g transform="translate(781.520449 534.998438)scale(0.1 -0.1)">
       <use xlink:href="#DejaVuSans-77"/>
       <use x="86.279297" xlink:href="#DejaVuSans-101"/>
       <use x="147.802734" xlink:href="#DejaVuSans-100"/>
       <use x="211.279297" xlink:href="#DejaVuSans-108"/>
       <use x="239.0625" xlink:href="#DejaVuSans-105"/>
       <use x="266.845703" xlink:href="#DejaVuSans-110"/>
       <use x="330.224609" xlink:href="#DejaVuSans-101"/>
      </g>
     </g>
    </g>
    <g id="xtick_7">
     <g id="line2d_7">
      <g>
       <use style="stroke:#000000;stroke-width:0.8;" x="918.403439" xlink:href="#m542da35b23" y="520.4"/>
      </g>
     </g>
     <g id="text_7">
      <!-- NPL -->
      <defs>
       <path d="M 9.8125 72.90625 
L 23.09375 72.90625 
L 55.421875 11.921875 
L 55.421875 72.90625 
L 64.984375 72.90625 
L 64.984375 0 
L 51.703125 0 
L 19.390625 60.984375 
L 19.390625 0 
L 9.8125 0 
z
" id="DejaVuSans-78"/>
       <path d="M 19.671875 64.796875 
L 19.671875 37.40625 
L 32.078125 37.40625 
Q 38.96875 37.40625 42.71875 40.96875 
Q 46.484375 44.53125 46.484375 51.125 
Q 46.484375 57.671875 42.71875 61.234375 
Q 38.96875 64.796875 32.078125 64.796875 
z
M 9.8125 72.90625 
L 32.078125 72.90625 
Q 44.34375 72.90625 50.609375 67.359375 
Q 56.890625 61.8125 56.890625 51.125 
Q 56.890625 40.328125 50.609375 34.8125 
Q 44.34375 29.296875 32.078125 29.296875 
L 19.671875 29.296875 
L 19.671875 0 
L 9.8125 0 
z
" id="DejaVuSans-80"/>
      </defs>
      <g transform="translate(908.862032 534.998438)scale(0.1 -0.1)">
       <use xlink:href="#DejaVuSans-78"/>
       <use x="74.804688" xlink:href="#DejaVuSans-80"/>
       <use x="135.107422" xlink:href="#DejaVuSans-76"/>
      </g>
     </g>
    </g>
    <g id="xtick_8">
     <g id="line2d_8">
      <g>
       <use style="stroke:#000000;stroke-width:0.8;" x="1035.698147" xlink:href="#m542da35b23" y="520.4"/>
      </g>
     </g>
     <g id="text_8">
      <!-- Time -->
      <defs>
       <path d="M -0.296875 72.90625 
L 61.375 72.90625 
L 61.375 64.59375 
L 35.5 64.59375 
L 35.5 0 
L 25.59375 0 
L 25.59375 64.59375 
L -0.296875 64.59375 
z
" id="DejaVuSans-84"/>
       <path d="M 52 44.1875 
Q 55.375 50.25 60.0625 53.125 
Q 64.75 56 71.09375 56 
Q 79.640625 56 84.28125 50.015625 
Q 88.921875 44.046875 88.921875 33.015625 
L 88.921875 0 
L 79.890625 0 
L 79.890625 32.71875 
Q 79.890625 40.578125 77.09375 44.375 
Q 74.3125 48.1875 68.609375 48.1875 
Q 61.625 48.1875 57.5625 43.546875 
Q 53.515625 38.921875 53.515625 30.90625 
L 53.515625 0 
L 44.484375 0 
L 44.484375 32.71875 
Q 44.484375 40.625 41.703125 44.40625 
Q 38.921875 48.1875 33.109375 48.1875 
Q 26.21875 48.1875 22.15625 43.53125 
Q 18.109375 38.875 18.109375 30.90625 
L 18.109375 0 
L 9.078125 0 
L 9.078125 54.6875 
L 18.109375 54.6875 
L 18.109375 46.1875 
Q 21.1875 51.21875 25.484375 53.609375 
Q 29.78125 56 35.6875 56 
Q 41.65625 56 45.828125 52.96875 
Q 50 49.953125 52 44.1875 
z
" id="DejaVuSans-109"/>
      </defs>
      <g transform="translate(1023.464554 534.998438)scale(0.1 -0.1)">
       <use xlink:href="#DejaVuSans-84"/>
       <use x="57.958984" xlink:href="#DejaVuSans-105"/>
       <use x="85.742188" xlink:href="#DejaVuSans-109"/>
       <use x="183.154297" xlink:href="#DejaVuSans-101"/>
      </g>
     </g>
    </g>
   </g>
   <g id="matplotlib.axis_2">
    <g id="ytick_1">
     <g id="line2d_9">
      <defs>
       <path d="M 0 0 
L -3.5 0 
" id="mfe6c929f48" style="stroke:#000000;stroke-width:0.8;"/>
      </defs>
      <g>
       <use style="stroke:#000000;stroke-width:0.8;" x="127.133333" xlink:href="#mfe6c929f48" y="520.4"/>
      </g>
     </g>
     <g id="text_9">
      <!-- 0.0 -->
      <defs>
       <path d="M 31.78125 66.40625 
Q 24.171875 66.40625 20.328125 58.90625 
Q 16.5 51.421875 16.5 36.375 
Q 16.5 21.390625 20.328125 13.890625 
Q 24.171875 6.390625 31.78125 6.390625 
Q 39.453125 6.390625 43.28125 13.890625 
Q 47.125 21.390625 47.125 36.375 
Q 47.125 51.421875 43.28125 58.90625 
Q 39.453125 66.40625 31.78125 66.40625 
z
M 31.78125 74.21875 
Q 44.046875 74.21875 50.515625 64.515625 
Q 56.984375 54.828125 56.984375 36.375 
Q 56.984375 17.96875 50.515625 8.265625 
Q 44.046875 -1.421875 31.78125 -1.421875 
Q 19.53125 -1.421875 13.0625 8.265625 
Q 6.59375 17.96875 6.59375 36.375 
Q 6.59375 54.828125 13.0625 64.515625 
Q 19.53125 74.21875 31.78125 74.21875 
z
" id="DejaVuSans-48"/>
       <path d="M 10.6875 12.40625 
L 21 12.40625 
L 21 0 
L 10.6875 0 
z
" id="DejaVuSans-46"/>
      </defs>
      <g transform="translate(104.230208 524.199219)scale(0.1 -0.1)">
       <use xlink:href="#DejaVuSans-48"/>
       <use x="63.623047" xlink:href="#DejaVuSans-46"/>
       <use x="95.410156" xlink:href="#DejaVuSans-48"/>
      </g>
     </g>
    </g>
    <g id="ytick_2">
     <g id="line2d_10">
      <g>
       <use style="stroke:#000000;stroke-width:0.8;" x="127.133333" xlink:href="#mfe6c929f48" y="462.961831"/>
      </g>
     </g>
     <g id="text_10">
      <!-- 0.1 -->
      <defs>
       <path d="M 12.40625 8.296875 
L 28.515625 8.296875 
L 28.515625 63.921875 
L 10.984375 60.40625 
L 10.984375 69.390625 
L 28.421875 72.90625 
L 38.28125 72.90625 
L 38.28125 8.296875 
L 54.390625 8.296875 
L 54.390625 0 
L 12.40625 0 
z
" id="DejaVuSans-49"/>
      </defs>
      <g transform="translate(104.230208 466.76105)scale(0.1 -0.1)">
       <use xlink:href="#DejaVuSans-48"/>
       <use x="63.623047" xlink:href="#DejaVuSans-46"/>
       <use x="95.410156" xlink:href="#DejaVuSans-49"/>
      </g>
     </g>
    </g>
    <g id="ytick_3">
     <g id="line2d_11">
      <g>
       <use style="stroke:#000000;stroke-width:0.8;" x="127.133333" xlink:href="#mfe6c929f48" y="405.523662"/>
      </g>
     </g>
     <g id="text_11">
      <!-- 0.2 -->
      <defs>
       <path d="M 19.1875 8.296875 
L 53.609375 8.296875 
L 53.609375 0 
L 7.328125 0 
L 7.328125 8.296875 
Q 12.9375 14.109375 22.625 23.890625 
Q 32.328125 33.6875 34.8125 36.53125 
Q 39.546875 41.84375 41.421875 45.53125 
Q 43.3125 49.21875 43.3125 52.78125 
Q 43.3125 58.59375 39.234375 62.25 
Q 35.15625 65.921875 28.609375 65.921875 
Q 23.96875 65.921875 18.8125 64.3125 
Q 13.671875 62.703125 7.8125 59.421875 
L 7.8125 69.390625 
Q 13.765625 71.78125 18.9375 73 
Q 24.125 74.21875 28.421875 74.21875 
Q 39.75 74.21875 46.484375 68.546875 
Q 53.21875 62.890625 53.21875 53.421875 
Q 53.21875 48.921875 51.53125 44.890625 
Q 49.859375 40.875 45.40625 35.40625 
Q 44.1875 33.984375 37.640625 27.21875 
Q 31.109375 20.453125 19.1875 8.296875 
z
" id="DejaVuSans-50"/>
      </defs>
      <g transform="translate(104.230208 409.322881)scale(0.1 -0.1)">
       <use xlink:href="#DejaVuSans-48"/>
       <use x="63.623047" xlink:href="#DejaVuSans-46"/>
       <use x="95.410156" xlink:href="#DejaVuSans-50"/>
      </g>
     </g>
    </g>
    <g id="ytick_4">
     <g id="line2d_12">
      <g>
       <use style="stroke:#000000;stroke-width:0.8;" x="127.133333" xlink:href="#mfe6c929f48" y="348.085493"/>
      </g>
     </g>
     <g id="text_12">
      <!-- 0.3 -->
      <defs>
       <path d="M 40.578125 39.3125 
Q 47.65625 37.796875 51.625 33 
Q 55.609375 28.21875 55.609375 21.1875 
Q 55.609375 10.40625 48.1875 4.484375 
Q 40.765625 -1.421875 27.09375 -1.421875 
Q 22.515625 -1.421875 17.65625 -0.515625 
Q 12.796875 0.390625 7.625 2.203125 
L 7.625 11.71875 
Q 11.71875 9.328125 16.59375 8.109375 
Q 21.484375 6.890625 26.8125 6.890625 
Q 36.078125 6.890625 40.9375 10.546875 
Q 45.796875 14.203125 45.796875 21.1875 
Q 45.796875 27.640625 41.28125 31.265625 
Q 36.765625 34.90625 28.71875 34.90625 
L 20.21875 34.90625 
L 20.21875 43.015625 
L 29.109375 43.015625 
Q 36.375 43.015625 40.234375 45.921875 
Q 44.09375 48.828125 44.09375 54.296875 
Q 44.09375 59.90625 40.109375 62.90625 
Q 36.140625 65.921875 28.71875 65.921875 
Q 24.65625 65.921875 20.015625 65.03125 
Q 15.375 64.15625 9.8125 62.3125 
L 9.8125 71.09375 
Q 15.4375 72.65625 20.34375 73.4375 
Q 25.25 74.21875 29.59375 74.21875 
Q 40.828125 74.21875 47.359375 69.109375 
Q 53.90625 64.015625 53.90625 55.328125 
Q 53.90625 49.265625 50.4375 45.09375 
Q 46.96875 40.921875 40.578125 39.3125 
z
" id="DejaVuSans-51"/>
      </defs>
      <g transform="translate(104.230208 351.884712)scale(0.1 -0.1)">
       <use xlink:href="#DejaVuSans-48"/>
       <use x="63.623047" xlink:href="#DejaVuSans-46"/>
       <use x="95.410156" xlink:href="#DejaVuSans-51"/>
      </g>
     </g>
    </g>
    <g id="ytick_5">
     <g id="line2d_13">
      <g>
       <use style="stroke:#000000;stroke-width:0.8;" x="127.133333" xlink:href="#mfe6c929f48" y="290.647324"/>
      </g>
     </g>
     <g id="text_13">
      <!-- 0.4 -->
      <defs>
       <path d="M 37.796875 64.3125 
L 12.890625 25.390625 
L 37.796875 25.390625 
z
M 35.203125 72.90625 
L 47.609375 72.90625 
L 47.609375 25.390625 
L 58.015625 25.390625 
L 58.015625 17.1875 
L 47.609375 17.1875 
L 47.609375 0 
L 37.796875 0 
L 37.796875 17.1875 
L 4.890625 17.1875 
L 4.890625 26.703125 
z
" id="DejaVuSans-52"/>
      </defs>
      <g transform="translate(104.230208 294.446542)scale(0.1 -0.1)">
       <use xlink:href="#DejaVuSans-48"/>
       <use x="63.623047" xlink:href="#DejaVuSans-46"/>
       <use x="95.410156" xlink:href="#DejaVuSans-52"/>
      </g>
     </g>
    </g>
    <g id="ytick_6">
     <g id="line2d_14">
      <g>
       <use style="stroke:#000000;stroke-width:0.8;" x="127.133333" xlink:href="#mfe6c929f48" y="233.209155"/>
      </g>
     </g>
     <g id="text_14">
      <!-- 0.5 -->
      <defs>
       <path d="M 10.796875 72.90625 
L 49.515625 72.90625 
L 49.515625 64.59375 
L 19.828125 64.59375 
L 19.828125 46.734375 
Q 21.96875 47.46875 24.109375 47.828125 
Q 26.265625 48.1875 28.421875 48.1875 
Q 40.625 48.1875 47.75 41.5 
Q 54.890625 34.8125 54.890625 23.390625 
Q 54.890625 11.625 47.5625 5.09375 
Q 40.234375 -1.421875 26.90625 -1.421875 
Q 22.3125 -1.421875 17.546875 -0.640625 
Q 12.796875 0.140625 7.71875 1.703125 
L 7.71875 11.625 
Q 12.109375 9.234375 16.796875 8.0625 
Q 21.484375 6.890625 26.703125 6.890625 
Q 35.15625 6.890625 40.078125 11.328125 
Q 45.015625 15.765625 45.015625 23.390625 
Q 45.015625 31 40.078125 35.4375 
Q 35.15625 39.890625 26.703125 39.890625 
Q 22.75 39.890625 18.8125 39.015625 
Q 14.890625 38.140625 10.796875 36.28125 
z
" id="DejaVuSans-53"/>
      </defs>
      <g transform="translate(104.230208 237.008373)scale(0.1 -0.1)">
       <use xlink:href="#DejaVuSans-48"/>
       <use x="63.623047" xlink:href="#DejaVuSans-46"/>
       <use x="95.410156" xlink:href="#DejaVuSans-53"/>
      </g>
     </g>
    </g>
    <g id="ytick_7">
     <g id="line2d_15">
      <g>
       <use style="stroke:#000000;stroke-width:0.8;" x="127.133333" xlink:href="#mfe6c929f48" y="175.770986"/>
      </g>
     </g>
     <g id="text_15">
      <!-- 0.6 -->
      <defs>
       <path d="M 33.015625 40.375 
Q 26.375 40.375 22.484375 35.828125 
Q 18.609375 31.296875 18.609375 23.390625 
Q 18.609375 15.53125 22.484375 10.953125 
Q 26.375 6.390625 33.015625 6.390625 
Q 39.65625 6.390625 43.53125 10.953125 
Q 47.40625 15.53125 47.40625 23.390625 
Q 47.40625 31.296875 43.53125 35.828125 
Q 39.65625 40.375 33.015625 40.375 
z
M 52.59375 71.296875 
L 52.59375 62.3125 
Q 48.875 64.0625 45.09375 64.984375 
Q 41.3125 65.921875 37.59375 65.921875 
Q 27.828125 65.921875 22.671875 59.328125 
Q 17.53125 52.734375 16.796875 39.40625 
Q 19.671875 43.65625 24.015625 45.921875 
Q 28.375 48.1875 33.59375 48.1875 
Q 44.578125 48.1875 50.953125 41.515625 
Q 57.328125 34.859375 57.328125 23.390625 
Q 57.328125 12.15625 50.6875 5.359375 
Q 44.046875 -1.421875 33.015625 -1.421875 
Q 20.359375 -1.421875 13.671875 8.265625 
Q 6.984375 17.96875 6.984375 36.375 
Q 6.984375 53.65625 15.1875 63.9375 
Q 23.390625 74.21875 37.203125 74.21875 
Q 40.921875 74.21875 44.703125 73.484375 
Q 48.484375 72.75 52.59375 71.296875 
z
" id="DejaVuSans-54"/>
      </defs>
      <g transform="translate(104.230208 179.570204)scale(0.1 -0.1)">
       <use xlink:href="#DejaVuSans-48"/>
       <use x="63.623047" xlink:href="#DejaVuSans-46"/>
       <use x="95.410156" xlink:href="#DejaVuSans-54"/>
      </g>
     </g>
    </g>
    <g id="ytick_8">
     <g id="line2d_16">
      <g>
       <use style="stroke:#000000;stroke-width:0.8;" x="127.133333" xlink:href="#mfe6c929f48" y="118.332817"/>
      </g>
     </g>
     <g id="text_16">
      <!-- 0.7 -->
      <defs>
       <path d="M 8.203125 72.90625 
L 55.078125 72.90625 
L 55.078125 68.703125 
L 28.609375 0 
L 18.3125 0 
L 43.21875 64.59375 
L 8.203125 64.59375 
z
" id="DejaVuSans-55"/>
      </defs>
      <g transform="translate(104.230208 122.132035)scale(0.1 -0.1)">
       <use xlink:href="#DejaVuSans-48"/>
       <use x="63.623047" xlink:href="#DejaVuSans-46"/>
       <use x="95.410156" xlink:href="#DejaVuSans-55"/>
      </g>
     </g>
    </g>
    <g id="ytick_9">
     <g id="line2d_17">
      <g>
       <use style="stroke:#000000;stroke-width:0.8;" x="127.133333" xlink:href="#mfe6c929f48" y="60.894647"/>
      </g>
     </g>
     <g id="text_17">
      <!-- 0.8 -->
      <defs>
       <path d="M 31.78125 34.625 
Q 24.75 34.625 20.71875 30.859375 
Q 16.703125 27.09375 16.703125 20.515625 
Q 16.703125 13.921875 20.71875 10.15625 
Q 24.75 6.390625 31.78125 6.390625 
Q 38.8125 6.390625 42.859375 10.171875 
Q 46.921875 13.96875 46.921875 20.515625 
Q 46.921875 27.09375 42.890625 30.859375 
Q 38.875 34.625 31.78125 34.625 
z
M 21.921875 38.8125 
Q 15.578125 40.375 12.03125 44.71875 
Q 8.5 49.078125 8.5 55.328125 
Q 8.5 64.0625 14.71875 69.140625 
Q 20.953125 74.21875 31.78125 74.21875 
Q 42.671875 74.21875 48.875 69.140625 
Q 55.078125 64.0625 55.078125 55.328125 
Q 55.078125 49.078125 51.53125 44.71875 
Q 48 40.375 41.703125 38.8125 
Q 48.828125 37.15625 52.796875 32.3125 
Q 56.78125 27.484375 56.78125 20.515625 
Q 56.78125 9.90625 50.3125 4.234375 
Q 43.84375 -1.421875 31.78125 -1.421875 
Q 19.734375 -1.421875 13.25 4.234375 
Q 6.78125 9.90625 6.78125 20.515625 
Q 6.78125 27.484375 10.78125 32.3125 
Q 14.796875 37.15625 21.921875 38.8125 
z
M 18.3125 54.390625 
Q 18.3125 48.734375 21.84375 45.5625 
Q 25.390625 42.390625 31.78125 42.390625 
Q 38.140625 42.390625 41.71875 45.5625 
Q 45.3125 48.734375 45.3125 54.390625 
Q 45.3125 60.0625 41.71875 63.234375 
Q 38.140625 66.40625 31.78125 66.40625 
Q 25.390625 66.40625 21.84375 63.234375 
Q 18.3125 60.0625 18.3125 54.390625 
z
" id="DejaVuSans-56"/>
      </defs>
      <g transform="translate(104.230208 64.693866)scale(0.1 -0.1)">
       <use xlink:href="#DejaVuSans-48"/>
       <use x="63.623047" xlink:href="#DejaVuSans-46"/>
       <use x="95.410156" xlink:href="#DejaVuSans-56"/>
      </g>
     </g>
    </g>
    <g id="text_18">
     <!-- metric scores -->
     <defs>
      <path d="M 18.3125 70.21875 
L 18.3125 54.6875 
L 36.8125 54.6875 
L 36.8125 47.703125 
L 18.3125 47.703125 
L 18.3125 18.015625 
Q 18.3125 11.328125 20.140625 9.421875 
Q 21.96875 7.515625 27.59375 7.515625 
L 36.8125 7.515625 
L 36.8125 0 
L 27.59375 0 
Q 17.1875 0 13.234375 3.875 
Q 9.28125 7.765625 9.28125 18.015625 
L 9.28125 47.703125 
L 2.6875 47.703125 
L 2.6875 54.6875 
L 9.28125 54.6875 
L 9.28125 70.21875 
z
" id="DejaVuSans-116"/>
      <path d="M 48.78125 52.59375 
L 48.78125 44.1875 
Q 44.96875 46.296875 41.140625 47.34375 
Q 37.3125 48.390625 33.40625 48.390625 
Q 24.65625 48.390625 19.8125 42.84375 
Q 14.984375 37.3125 14.984375 27.296875 
Q 14.984375 17.28125 19.8125 11.734375 
Q 24.65625 6.203125 33.40625 6.203125 
Q 37.3125 6.203125 41.140625 7.25 
Q 44.96875 8.296875 48.78125 10.40625 
L 48.78125 2.09375 
Q 45.015625 0.34375 40.984375 -0.53125 
Q 36.96875 -1.421875 32.421875 -1.421875 
Q 20.0625 -1.421875 12.78125 6.34375 
Q 5.515625 14.109375 5.515625 27.296875 
Q 5.515625 40.671875 12.859375 48.328125 
Q 20.21875 56 33.015625 56 
Q 37.15625 56 41.109375 55.140625 
Q 45.0625 54.296875 48.78125 52.59375 
z
" id="DejaVuSans-99"/>
      <path id="DejaVuSans-32"/>
      <path d="M 44.28125 53.078125 
L 44.28125 44.578125 
Q 40.484375 46.53125 36.375 47.5 
Q 32.28125 48.484375 27.875 48.484375 
Q 21.1875 48.484375 17.84375 46.4375 
Q 14.5 44.390625 14.5 40.28125 
Q 14.5 37.15625 16.890625 35.375 
Q 19.28125 33.59375 26.515625 31.984375 
L 29.59375 31.296875 
Q 39.15625 29.25 43.1875 25.515625 
Q 47.21875 21.78125 47.21875 15.09375 
Q 47.21875 7.46875 41.1875 3.015625 
Q 35.15625 -1.421875 24.609375 -1.421875 
Q 20.21875 -1.421875 15.453125 -0.5625 
Q 10.6875 0.296875 5.421875 2 
L 5.421875 11.28125 
Q 10.40625 8.6875 15.234375 7.390625 
Q 20.0625 6.109375 24.8125 6.109375 
Q 31.15625 6.109375 34.5625 8.28125 
Q 37.984375 10.453125 37.984375 14.40625 
Q 37.984375 18.0625 35.515625 20.015625 
Q 33.0625 21.96875 24.703125 23.78125 
L 21.578125 24.515625 
Q 13.234375 26.265625 9.515625 29.90625 
Q 5.8125 33.546875 5.8125 39.890625 
Q 5.8125 47.609375 11.28125 51.796875 
Q 16.75 56 26.8125 56 
Q 31.78125 56 36.171875 55.265625 
Q 40.578125 54.546875 44.28125 53.078125 
z
" id="DejaVuSans-115"/>
      <path d="M 30.609375 48.390625 
Q 23.390625 48.390625 19.1875 42.75 
Q 14.984375 37.109375 14.984375 27.296875 
Q 14.984375 17.484375 19.15625 11.84375 
Q 23.34375 6.203125 30.609375 6.203125 
Q 37.796875 6.203125 41.984375 11.859375 
Q 46.1875 17.53125 46.1875 27.296875 
Q 46.1875 37.015625 41.984375 42.703125 
Q 37.796875 48.390625 30.609375 48.390625 
z
M 30.609375 56 
Q 42.328125 56 49.015625 48.375 
Q 55.71875 40.765625 55.71875 27.296875 
Q 55.71875 13.875 49.015625 6.21875 
Q 42.328125 -1.421875 30.609375 -1.421875 
Q 18.84375 -1.421875 12.171875 6.21875 
Q 5.515625 13.875 5.515625 27.296875 
Q 5.515625 40.765625 12.171875 48.375 
Q 18.84375 56 30.609375 56 
z
" id="DejaVuSans-111"/>
     </defs>
     <g transform="translate(98.150521 320.727344)rotate(-90)scale(0.1 -0.1)">
      <use xlink:href="#DejaVuSans-109"/>
      <use x="97.412109" xlink:href="#DejaVuSans-101"/>
      <use x="158.935547" xlink:href="#DejaVuSans-116"/>
      <use x="198.144531" xlink:href="#DejaVuSans-114"/>
      <use x="239.257812" xlink:href="#DejaVuSans-105"/>
      <use x="267.041016" xlink:href="#DejaVuSans-99"/>
      <use x="322.021484" xlink:href="#DejaVuSans-32"/>
      <use x="353.808594" xlink:href="#DejaVuSans-115"/>
      <use x="405.908203" xlink:href="#DejaVuSans-99"/>
      <use x="460.888672" xlink:href="#DejaVuSans-111"/>
      <use x="522.070312" xlink:href="#DejaVuSans-114"/>
      <use x="560.933594" xlink:href="#DejaVuSans-101"/>
      <use x="622.457031" xlink:href="#DejaVuSans-115"/>
     </g>
    </g>
   </g>
   <g id="patch_27">
    <path d="M 127.133333 520.4 
L 127.133333 53.6 
" style="fill:none;stroke:#000000;stroke-linecap:square;stroke-linejoin:miter;stroke-width:0.8;"/>
   </g>
   <g id="patch_28">
    <path d="M 1123.2 520.4 
L 1123.2 53.6 
" style="fill:none;stroke:#000000;stroke-linecap:square;stroke-linejoin:miter;stroke-width:0.8;"/>
   </g>
   <g id="patch_29">
    <path d="M 127.133333 520.4 
L 1123.2 520.4 
" style="fill:none;stroke:#000000;stroke-linecap:square;stroke-linejoin:miter;stroke-width:0.8;"/>
   </g>
   <g id="patch_30">
    <path d="M 127.133333 53.6 
L 1123.2 53.6 
" style="fill:none;stroke:#000000;stroke-linecap:square;stroke-linejoin:miter;stroke-width:0.8;"/>
   </g>
   <g id="text_19">
    <!-- 0.523 -->
    <g transform="translate(172.170393 214.918688)scale(0.1 -0.1)">
     <use xlink:href="#DejaVuSans-48"/>
     <use x="63.623047" xlink:href="#DejaVuSans-46"/>
     <use x="95.410156" xlink:href="#DejaVuSans-53"/>
     <use x="159.033203" xlink:href="#DejaVuSans-50"/>
     <use x="222.65625" xlink:href="#DejaVuSans-51"/>
    </g>
   </g>
   <g id="text_20">
    <!-- 0.272 -->
    <g transform="translate(289.465102 359.088493)scale(0.1 -0.1)">
     <use xlink:href="#DejaVuSans-48"/>
     <use x="63.623047" xlink:href="#DejaVuSans-46"/>
     <use x="95.410156" xlink:href="#DejaVuSans-50"/>
     <use x="159.033203" xlink:href="#DejaVuSans-55"/>
     <use x="222.65625" xlink:href="#DejaVuSans-50"/>
    </g>
   </g>
   <g id="text_21">
    <!-- 0.112 -->
    <g transform="translate(406.759811 450.989563)scale(0.1 -0.1)">
     <use xlink:href="#DejaVuSans-48"/>
     <use x="63.623047" xlink:href="#DejaVuSans-46"/>
     <use x="95.410156" xlink:href="#DejaVuSans-49"/>
     <use x="159.033203" xlink:href="#DejaVuSans-49"/>
     <use x="222.65625" xlink:href="#DejaVuSans-50"/>
    </g>
   </g>
   <g id="text_22">
    <!-- 0.516 -->
    <g transform="translate(524.05452 218.93936)scale(0.1 -0.1)">
     <use xlink:href="#DejaVuSans-48"/>
     <use x="63.623047" xlink:href="#DejaVuSans-46"/>
     <use x="95.410156" xlink:href="#DejaVuSans-53"/>
     <use x="159.033203" xlink:href="#DejaVuSans-49"/>
     <use x="222.65625" xlink:href="#DejaVuSans-54"/>
    </g>
   </g>
   <g id="text_23">
    <!-- 0.328 -->
    <g transform="translate(641.349228 326.923118)scale(0.1 -0.1)">
     <use xlink:href="#DejaVuSans-48"/>
     <use x="63.623047" xlink:href="#DejaVuSans-46"/>
     <use x="95.410156" xlink:href="#DejaVuSans-51"/>
     <use x="159.033203" xlink:href="#DejaVuSans-50"/>
     <use x="222.65625" xlink:href="#DejaVuSans-56"/>
    </g>
   </g>
   <g id="text_24">
    <!-- 0.335 -->
    <g transform="translate(758.643937 322.902446)scale(0.1 -0.1)">
     <use xlink:href="#DejaVuSans-48"/>
     <use x="63.623047" xlink:href="#DejaVuSans-46"/>
     <use x="95.410156" xlink:href="#DejaVuSans-51"/>
     <use x="159.033203" xlink:href="#DejaVuSans-51"/>
     <use x="222.65625" xlink:href="#DejaVuSans-53"/>
    </g>
   </g>
   <g id="text_25">
    <!-- 0.24 -->
    <g transform="translate(879.119896 377.468707)scale(0.1 -0.1)">
     <use xlink:href="#DejaVuSans-48"/>
     <use x="63.623047" xlink:href="#DejaVuSans-46"/>
     <use x="95.410156" xlink:href="#DejaVuSans-50"/>
     <use x="159.033203" xlink:href="#DejaVuSans-52"/>
    </g>
   </g>
   <g id="text_26">
    <!-- 0.772 -->
    <g transform="translate(993.233355 71.897647)scale(0.1 -0.1)">
     <use xlink:href="#DejaVuSans-48"/>
     <use x="63.623047" xlink:href="#DejaVuSans-46"/>
     <use x="95.410156" xlink:href="#DejaVuSans-55"/>
     <use x="159.033203" xlink:href="#DejaVuSans-55"/>
     <use x="222.65625" xlink:href="#DejaVuSans-50"/>
    </g>
   </g>
   <g id="text_27">
    <!-- 0.528 -->
    <g transform="translate(200.321124 212.04678)scale(0.1 -0.1)">
     <use xlink:href="#DejaVuSans-48"/>
     <use x="63.623047" xlink:href="#DejaVuSans-46"/>
     <use x="95.410156" xlink:href="#DejaVuSans-53"/>
     <use x="159.033203" xlink:href="#DejaVuSans-50"/>
     <use x="222.65625" xlink:href="#DejaVuSans-56"/>
    </g>
   </g>
   <g id="text_28">
    <!-- 0.114 -->
    <g transform="translate(317.615832 449.8408)scale(0.1 -0.1)">
     <use xlink:href="#DejaVuSans-48"/>
     <use x="63.623047" xlink:href="#DejaVuSans-46"/>
     <use x="95.410156" xlink:href="#DejaVuSans-49"/>
     <use x="159.033203" xlink:href="#DejaVuSans-49"/>
     <use x="222.65625" xlink:href="#DejaVuSans-52"/>
    </g>
   </g>
   <g id="text_29">
    <!-- 0.067 -->
    <g transform="translate(434.910541 476.836739)scale(0.1 -0.1)">
     <use xlink:href="#DejaVuSans-48"/>
     <use x="63.623047" xlink:href="#DejaVuSans-46"/>
     <use x="95.410156" xlink:href="#DejaVuSans-48"/>
     <use x="159.033203" xlink:href="#DejaVuSans-54"/>
     <use x="222.65625" xlink:href="#DejaVuSans-55"/>
    </g>
   </g>
   <g id="text_30">
    <!-- 0.243 -->
    <g transform="translate(552.20525 375.745562)scale(0.1 -0.1)">
     <use xlink:href="#DejaVuSans-48"/>
     <use x="63.623047" xlink:href="#DejaVuSans-46"/>
     <use x="95.410156" xlink:href="#DejaVuSans-50"/>
     <use x="159.033203" xlink:href="#DejaVuSans-52"/>
     <use x="222.65625" xlink:href="#DejaVuSans-51"/>
    </g>
   </g>
   <g id="text_31">
    <!-- 0.129 -->
    <defs>
     <path d="M 10.984375 1.515625 
L 10.984375 10.5 
Q 14.703125 8.734375 18.5 7.8125 
Q 22.3125 6.890625 25.984375 6.890625 
Q 35.75 6.890625 40.890625 13.453125 
Q 46.046875 20.015625 46.78125 33.40625 
Q 43.953125 29.203125 39.59375 26.953125 
Q 35.25 24.703125 29.984375 24.703125 
Q 19.046875 24.703125 12.671875 31.3125 
Q 6.296875 37.9375 6.296875 49.421875 
Q 6.296875 60.640625 12.9375 67.421875 
Q 19.578125 74.21875 30.609375 74.21875 
Q 43.265625 74.21875 49.921875 64.515625 
Q 56.59375 54.828125 56.59375 36.375 
Q 56.59375 19.140625 48.40625 8.859375 
Q 40.234375 -1.421875 26.421875 -1.421875 
Q 22.703125 -1.421875 18.890625 -0.6875 
Q 15.09375 0.046875 10.984375 1.515625 
z
M 30.609375 32.421875 
Q 37.25 32.421875 41.125 36.953125 
Q 45.015625 41.5 45.015625 49.421875 
Q 45.015625 57.28125 41.125 61.84375 
Q 37.25 66.40625 30.609375 66.40625 
Q 23.96875 66.40625 20.09375 61.84375 
Q 16.21875 57.28125 16.21875 49.421875 
Q 16.21875 41.5 20.09375 36.953125 
Q 23.96875 32.421875 30.609375 32.421875 
z
" id="DejaVuSans-57"/>
    </defs>
    <g transform="translate(669.499959 441.225074)scale(0.1 -0.1)">
     <use xlink:href="#DejaVuSans-48"/>
     <use x="63.623047" xlink:href="#DejaVuSans-46"/>
     <use x="95.410156" xlink:href="#DejaVuSans-49"/>
     <use x="159.033203" xlink:href="#DejaVuSans-50"/>
     <use x="222.65625" xlink:href="#DejaVuSans-57"/>
    </g>
   </g>
   <g id="text_32">
    <!-- 0.171 -->
    <g transform="translate(786.794667 417.101043)scale(0.1 -0.1)">
     <use xlink:href="#DejaVuSans-48"/>
     <use x="63.623047" xlink:href="#DejaVuSans-46"/>
     <use x="95.410156" xlink:href="#DejaVuSans-49"/>
     <use x="159.033203" xlink:href="#DejaVuSans-55"/>
     <use x="222.65625" xlink:href="#DejaVuSans-49"/>
    </g>
   </g>
   <g id="text_33">
    <!-- 0.099 -->
    <g transform="translate(904.089376 458.456525)scale(0.1 -0.1)">
     <use xlink:href="#DejaVuSans-48"/>
     <use x="63.623047" xlink:href="#DejaVuSans-46"/>
     <use x="95.410156" xlink:href="#DejaVuSans-48"/>
     <use x="159.033203" xlink:href="#DejaVuSans-57"/>
     <use x="222.65625" xlink:href="#DejaVuSans-57"/>
    </g>
   </g>
   <g id="text_34">
    <!-- 0.58 -->
    <g transform="translate(1024.565335 182.178932)scale(0.1 -0.1)">
     <use xlink:href="#DejaVuSans-48"/>
     <use x="63.623047" xlink:href="#DejaVuSans-46"/>
     <use x="95.410156" xlink:href="#DejaVuSans-53"/>
     <use x="159.033203" xlink:href="#DejaVuSans-56"/>
    </g>
   </g>
   <g id="text_35">
    <!-- 0.538 -->
    <g transform="translate(228.471854 206.302963)scale(0.1 -0.1)">
     <use xlink:href="#DejaVuSans-48"/>
     <use x="63.623047" xlink:href="#DejaVuSans-46"/>
     <use x="95.410156" xlink:href="#DejaVuSans-53"/>
     <use x="159.033203" xlink:href="#DejaVuSans-51"/>
     <use x="222.65625" xlink:href="#DejaVuSans-56"/>
    </g>
   </g>
   <g id="text_36">
    <!-- 0.272 -->
    <g transform="translate(345.766562 359.088493)scale(0.1 -0.1)">
     <use xlink:href="#DejaVuSans-48"/>
     <use x="63.623047" xlink:href="#DejaVuSans-46"/>
     <use x="95.410156" xlink:href="#DejaVuSans-50"/>
     <use x="159.033203" xlink:href="#DejaVuSans-55"/>
     <use x="222.65625" xlink:href="#DejaVuSans-50"/>
    </g>
   </g>
   <g id="text_37">
    <!-- 0.112 -->
    <g transform="translate(463.061271 450.989563)scale(0.1 -0.1)">
     <use xlink:href="#DejaVuSans-48"/>
     <use x="63.623047" xlink:href="#DejaVuSans-46"/>
     <use x="95.410156" xlink:href="#DejaVuSans-49"/>
     <use x="159.033203" xlink:href="#DejaVuSans-49"/>
     <use x="222.65625" xlink:href="#DejaVuSans-50"/>
    </g>
   </g>
   <g id="text_38">
    <!-- 0.514 -->
    <g transform="translate(580.35598 220.088124)scale(0.1 -0.1)">
     <use xlink:href="#DejaVuSans-48"/>
     <use x="63.623047" xlink:href="#DejaVuSans-46"/>
     <use x="95.410156" xlink:href="#DejaVuSans-53"/>
     <use x="159.033203" xlink:href="#DejaVuSans-49"/>
     <use x="222.65625" xlink:href="#DejaVuSans-52"/>
    </g>
   </g>
   <g id="text_39">
    <!-- 0.355 -->
    <g transform="translate(697.650689 311.414812)scale(0.1 -0.1)">
     <use xlink:href="#DejaVuSans-48"/>
     <use x="63.623047" xlink:href="#DejaVuSans-46"/>
     <use x="95.410156" xlink:href="#DejaVuSans-51"/>
     <use x="159.033203" xlink:href="#DejaVuSans-53"/>
     <use x="222.65625" xlink:href="#DejaVuSans-53"/>
    </g>
   </g>
   <g id="text_40">
    <!-- 0.335 -->
    <g transform="translate(814.945397 322.902446)scale(0.1 -0.1)">
     <use xlink:href="#DejaVuSans-48"/>
     <use x="63.623047" xlink:href="#DejaVuSans-46"/>
     <use x="95.410156" xlink:href="#DejaVuSans-51"/>
     <use x="159.033203" xlink:href="#DejaVuSans-51"/>
     <use x="222.65625" xlink:href="#DejaVuSans-53"/>
    </g>
   </g>
   <g id="text_41">
    <!-- 0.24 -->
    <g transform="translate(935.421356 377.468707)scale(0.1 -0.1)">
     <use xlink:href="#DejaVuSans-48"/>
     <use x="63.623047" xlink:href="#DejaVuSans-46"/>
     <use x="95.410156" xlink:href="#DejaVuSans-50"/>
     <use x="159.033203" xlink:href="#DejaVuSans-52"/>
    </g>
   </g>
   <g id="text_42">
    <!-- 0.774 -->
    <g transform="translate(1049.534815 70.748884)scale(0.1 -0.1)">
     <use xlink:href="#DejaVuSans-48"/>
     <use x="63.623047" xlink:href="#DejaVuSans-46"/>
     <use x="95.410156" xlink:href="#DejaVuSans-55"/>
     <use x="159.033203" xlink:href="#DejaVuSans-55"/>
     <use x="222.65625" xlink:href="#DejaVuSans-52"/>
    </g>
   </g>
   <g id="text_43">
    <!-- Recall scores on text field by corpus -->
    <defs>
     <path d="M 44.390625 34.1875 
Q 47.5625 33.109375 50.5625 29.59375 
Q 53.5625 26.078125 56.59375 19.921875 
L 66.609375 0 
L 56 0 
L 46.6875 18.703125 
Q 43.0625 26.03125 39.671875 28.421875 
Q 36.28125 30.8125 30.421875 30.8125 
L 19.671875 30.8125 
L 19.671875 0 
L 9.8125 0 
L 9.8125 72.90625 
L 32.078125 72.90625 
Q 44.578125 72.90625 50.734375 67.671875 
Q 56.890625 62.453125 56.890625 51.90625 
Q 56.890625 45.015625 53.6875 40.46875 
Q 50.484375 35.9375 44.390625 34.1875 
z
M 19.671875 64.796875 
L 19.671875 38.921875 
L 32.078125 38.921875 
Q 39.203125 38.921875 42.84375 42.21875 
Q 46.484375 45.515625 46.484375 51.90625 
Q 46.484375 58.296875 42.84375 61.546875 
Q 39.203125 64.796875 32.078125 64.796875 
z
" id="DejaVuSans-82"/>
     <path d="M 54.890625 54.6875 
L 35.109375 28.078125 
L 55.90625 0 
L 45.3125 0 
L 29.390625 21.484375 
L 13.484375 0 
L 2.875 0 
L 24.125 28.609375 
L 4.6875 54.6875 
L 15.28125 54.6875 
L 29.78125 35.203125 
L 44.28125 54.6875 
z
" id="DejaVuSans-120"/>
     <path d="M 48.6875 27.296875 
Q 48.6875 37.203125 44.609375 42.84375 
Q 40.53125 48.484375 33.40625 48.484375 
Q 26.265625 48.484375 22.1875 42.84375 
Q 18.109375 37.203125 18.109375 27.296875 
Q 18.109375 17.390625 22.1875 11.75 
Q 26.265625 6.109375 33.40625 6.109375 
Q 40.53125 6.109375 44.609375 11.75 
Q 48.6875 17.390625 48.6875 27.296875 
z
M 18.109375 46.390625 
Q 20.953125 51.265625 25.265625 53.625 
Q 29.59375 56 35.59375 56 
Q 45.5625 56 51.78125 48.09375 
Q 58.015625 40.1875 58.015625 27.296875 
Q 58.015625 14.40625 51.78125 6.484375 
Q 45.5625 -1.421875 35.59375 -1.421875 
Q 29.59375 -1.421875 25.265625 0.953125 
Q 20.953125 3.328125 18.109375 8.203125 
L 18.109375 0 
L 9.078125 0 
L 9.078125 75.984375 
L 18.109375 75.984375 
z
" id="DejaVuSans-98"/>
     <path d="M 32.171875 -5.078125 
Q 28.375 -14.84375 24.75 -17.8125 
Q 21.140625 -20.796875 15.09375 -20.796875 
L 7.90625 -20.796875 
L 7.90625 -13.28125 
L 13.1875 -13.28125 
Q 16.890625 -13.28125 18.9375 -11.515625 
Q 21 -9.765625 23.484375 -3.21875 
L 25.09375 0.875 
L 2.984375 54.6875 
L 12.5 54.6875 
L 29.59375 11.921875 
L 46.6875 54.6875 
L 56.203125 54.6875 
z
" id="DejaVuSans-121"/>
     <path d="M 18.109375 8.203125 
L 18.109375 -20.796875 
L 9.078125 -20.796875 
L 9.078125 54.6875 
L 18.109375 54.6875 
L 18.109375 46.390625 
Q 20.953125 51.265625 25.265625 53.625 
Q 29.59375 56 35.59375 56 
Q 45.5625 56 51.78125 48.09375 
Q 58.015625 40.1875 58.015625 27.296875 
Q 58.015625 14.40625 51.78125 6.484375 
Q 45.5625 -1.421875 35.59375 -1.421875 
Q 29.59375 -1.421875 25.265625 0.953125 
Q 20.953125 3.328125 18.109375 8.203125 
z
M 48.6875 27.296875 
Q 48.6875 37.203125 44.609375 42.84375 
Q 40.53125 48.484375 33.40625 48.484375 
Q 26.265625 48.484375 22.1875 42.84375 
Q 18.109375 37.203125 18.109375 27.296875 
Q 18.109375 17.390625 22.1875 11.75 
Q 26.265625 6.109375 33.40625 6.109375 
Q 40.53125 6.109375 44.609375 11.75 
Q 48.6875 17.390625 48.6875 27.296875 
z
" id="DejaVuSans-112"/>
     <path d="M 8.5 21.578125 
L 8.5 54.6875 
L 17.484375 54.6875 
L 17.484375 21.921875 
Q 17.484375 14.15625 20.5 10.265625 
Q 23.53125 6.390625 29.59375 6.390625 
Q 36.859375 6.390625 41.078125 11.03125 
Q 45.3125 15.671875 45.3125 23.6875 
L 45.3125 54.6875 
L 54.296875 54.6875 
L 54.296875 0 
L 45.3125 0 
L 45.3125 8.40625 
Q 42.046875 3.421875 37.71875 1 
Q 33.40625 -1.421875 27.6875 -1.421875 
Q 18.265625 -1.421875 13.375 4.4375 
Q 8.5 10.296875 8.5 21.578125 
z
M 31.109375 56 
z
" id="DejaVuSans-117"/>
    </defs>
    <g transform="translate(516.782292 47.6)scale(0.12 -0.12)">
     <use xlink:href="#DejaVuSans-82"/>
     <use x="64.982422" xlink:href="#DejaVuSans-101"/>
     <use x="126.505859" xlink:href="#DejaVuSans-99"/>
     <use x="181.486328" xlink:href="#DejaVuSans-97"/>
     <use x="242.765625" xlink:href="#DejaVuSans-108"/>
     <use x="270.548828" xlink:href="#DejaVuSans-108"/>
     <use x="298.332031" xlink:href="#DejaVuSans-32"/>
     <use x="330.119141" xlink:href="#DejaVuSans-115"/>
     <use x="382.21875" xlink:href="#DejaVuSans-99"/>
     <use x="437.199219" xlink:href="#DejaVuSans-111"/>
     <use x="498.380859" xlink:href="#DejaVuSans-114"/>
     <use x="537.244141" xlink:href="#DejaVuSans-101"/>
     <use x="598.767578" xlink:href="#DejaVuSans-115"/>
     <use x="650.867188" xlink:href="#DejaVuSans-32"/>
     <use x="682.654297" xlink:href="#DejaVuSans-111"/>
     <use x="743.835938" xlink:href="#DejaVuSans-110"/>
     <use x="807.214844" xlink:href="#DejaVuSans-32"/>
     <use x="839.001953" xlink:href="#DejaVuSans-116"/>
     <use x="878.210938" xlink:href="#DejaVuSans-101"/>
     <use x="937.984375" xlink:href="#DejaVuSans-120"/>
     <use x="997.164062" xlink:href="#DejaVuSans-116"/>
     <use x="1036.373047" xlink:href="#DejaVuSans-32"/>
     <use x="1068.160156" xlink:href="#DejaVuSans-102"/>
     <use x="1103.365234" xlink:href="#DejaVuSans-105"/>
     <use x="1131.148438" xlink:href="#DejaVuSans-101"/>
     <use x="1192.671875" xlink:href="#DejaVuSans-108"/>
     <use x="1220.455078" xlink:href="#DejaVuSans-100"/>
     <use x="1283.931641" xlink:href="#DejaVuSans-32"/>
     <use x="1315.71875" xlink:href="#DejaVuSans-98"/>
     <use x="1379.195312" xlink:href="#DejaVuSans-121"/>
     <use x="1438.375" xlink:href="#DejaVuSans-32"/>
     <use x="1470.162109" xlink:href="#DejaVuSans-99"/>
     <use x="1525.142578" xlink:href="#DejaVuSans-111"/>
     <use x="1586.324219" xlink:href="#DejaVuSans-114"/>
     <use x="1627.4375" xlink:href="#DejaVuSans-112"/>
     <use x="1690.914062" xlink:href="#DejaVuSans-117"/>
     <use x="1754.292969" xlink:href="#DejaVuSans-115"/>
    </g>
   </g>
   <g id="legend_1">
    <g id="patch_31">
     <path d="M 134.133333 105.634375 
L 362.066146 105.634375 
Q 364.066146 105.634375 364.066146 103.634375 
L 364.066146 60.6 
Q 364.066146 58.6 362.066146 58.6 
L 134.133333 58.6 
Q 132.133333 58.6 132.133333 60.6 
L 132.133333 103.634375 
Q 132.133333 105.634375 134.133333 105.634375 
z
" style="fill:#ffffff;opacity:0.8;stroke:#cccccc;stroke-linejoin:miter;"/>
    </g>
    <g id="patch_32">
     <path d="M 136.133333 70.198437 
L 156.133333 70.198437 
L 156.133333 63.198437 
L 136.133333 63.198437 
z
" style="fill:#ffb900;"/>
    </g>
    <g id="text_44">
     <!-- With standard analyzer query text field -->
     <defs>
      <path d="M 3.328125 72.90625 
L 13.28125 72.90625 
L 28.609375 11.28125 
L 43.890625 72.90625 
L 54.984375 72.90625 
L 70.3125 11.28125 
L 85.59375 72.90625 
L 95.609375 72.90625 
L 77.296875 0 
L 64.890625 0 
L 49.515625 63.28125 
L 33.984375 0 
L 21.578125 0 
z
" id="DejaVuSans-87"/>
      <path d="M 54.890625 33.015625 
L 54.890625 0 
L 45.90625 0 
L 45.90625 32.71875 
Q 45.90625 40.484375 42.875 44.328125 
Q 39.84375 48.1875 33.796875 48.1875 
Q 26.515625 48.1875 22.3125 43.546875 
Q 18.109375 38.921875 18.109375 30.90625 
L 18.109375 0 
L 9.078125 0 
L 9.078125 75.984375 
L 18.109375 75.984375 
L 18.109375 46.1875 
Q 21.34375 51.125 25.703125 53.5625 
Q 30.078125 56 35.796875 56 
Q 45.21875 56 50.046875 50.171875 
Q 54.890625 44.34375 54.890625 33.015625 
z
" id="DejaVuSans-104"/>
      <path d="M 5.515625 54.6875 
L 48.1875 54.6875 
L 48.1875 46.484375 
L 14.40625 7.171875 
L 48.1875 7.171875 
L 48.1875 0 
L 4.296875 0 
L 4.296875 8.203125 
L 38.09375 47.515625 
L 5.515625 47.515625 
z
" id="DejaVuSans-122"/>
      <path d="M 14.796875 27.296875 
Q 14.796875 17.390625 18.875 11.75 
Q 22.953125 6.109375 30.078125 6.109375 
Q 37.203125 6.109375 41.296875 11.75 
Q 45.40625 17.390625 45.40625 27.296875 
Q 45.40625 37.203125 41.296875 42.84375 
Q 37.203125 48.484375 30.078125 48.484375 
Q 22.953125 48.484375 18.875 42.84375 
Q 14.796875 37.203125 14.796875 27.296875 
z
M 45.40625 8.203125 
Q 42.578125 3.328125 38.25 0.953125 
Q 33.9375 -1.421875 27.875 -1.421875 
Q 17.96875 -1.421875 11.734375 6.484375 
Q 5.515625 14.40625 5.515625 27.296875 
Q 5.515625 40.1875 11.734375 48.09375 
Q 17.96875 56 27.875 56 
Q 33.9375 56 38.25 53.625 
Q 42.578125 51.265625 45.40625 46.390625 
L 45.40625 54.6875 
L 54.390625 54.6875 
L 54.390625 -20.796875 
L 45.40625 -20.796875 
z
" id="DejaVuSans-113"/>
     </defs>
     <g transform="translate(164.133333 70.198437)scale(0.1 -0.1)">
      <use xlink:href="#DejaVuSans-87"/>
      <use x="96.626953" xlink:href="#DejaVuSans-105"/>
      <use x="124.410156" xlink:href="#DejaVuSans-116"/>
      <use x="163.619141" xlink:href="#DejaVuSans-104"/>
      <use x="226.998047" xlink:href="#DejaVuSans-32"/>
      <use x="258.785156" xlink:href="#DejaVuSans-115"/>
      <use x="310.884766" xlink:href="#DejaVuSans-116"/>
      <use x="350.09375" xlink:href="#DejaVuSans-97"/>
      <use x="411.373047" xlink:href="#DejaVuSans-110"/>
      <use x="474.751953" xlink:href="#DejaVuSans-100"/>
      <use x="538.228516" xlink:href="#DejaVuSans-97"/>
      <use x="599.507812" xlink:href="#DejaVuSans-114"/>
      <use x="638.871094" xlink:href="#DejaVuSans-100"/>
      <use x="702.347656" xlink:href="#DejaVuSans-32"/>
      <use x="734.134766" xlink:href="#DejaVuSans-97"/>
      <use x="795.414062" xlink:href="#DejaVuSans-110"/>
      <use x="858.792969" xlink:href="#DejaVuSans-97"/>
      <use x="920.072266" xlink:href="#DejaVuSans-108"/>
      <use x="947.855469" xlink:href="#DejaVuSans-121"/>
      <use x="1007.035156" xlink:href="#DejaVuSans-122"/>
      <use x="1059.525391" xlink:href="#DejaVuSans-101"/>
      <use x="1121.048828" xlink:href="#DejaVuSans-114"/>
      <use x="1162.162109" xlink:href="#DejaVuSans-32"/>
      <use x="1193.949219" xlink:href="#DejaVuSans-113"/>
      <use x="1257.425781" xlink:href="#DejaVuSans-117"/>
      <use x="1320.804688" xlink:href="#DejaVuSans-101"/>
      <use x="1382.328125" xlink:href="#DejaVuSans-114"/>
      <use x="1423.441406" xlink:href="#DejaVuSans-121"/>
      <use x="1482.621094" xlink:href="#DejaVuSans-32"/>
      <use x="1514.408203" xlink:href="#DejaVuSans-116"/>
      <use x="1553.617188" xlink:href="#DejaVuSans-101"/>
      <use x="1613.390625" xlink:href="#DejaVuSans-120"/>
      <use x="1672.570312" xlink:href="#DejaVuSans-116"/>
      <use x="1711.779297" xlink:href="#DejaVuSans-32"/>
      <use x="1743.566406" xlink:href="#DejaVuSans-102"/>
      <use x="1778.771484" xlink:href="#DejaVuSans-105"/>
      <use x="1806.554688" xlink:href="#DejaVuSans-101"/>
      <use x="1868.078125" xlink:href="#DejaVuSans-108"/>
      <use x="1895.861328" xlink:href="#DejaVuSans-100"/>
     </g>
    </g>
    <g id="patch_33">
     <path d="M 136.133333 84.876562 
L 156.133333 84.876562 
L 156.133333 77.876562 
L 136.133333 77.876562 
z
" style="fill:#8cab13;"/>
    </g>
    <g id="text_45">
     <!-- With BERT on text field -->
     <defs>
      <path d="M 19.671875 34.8125 
L 19.671875 8.109375 
L 35.5 8.109375 
Q 43.453125 8.109375 47.28125 11.40625 
Q 51.125 14.703125 51.125 21.484375 
Q 51.125 28.328125 47.28125 31.5625 
Q 43.453125 34.8125 35.5 34.8125 
z
M 19.671875 64.796875 
L 19.671875 42.828125 
L 34.28125 42.828125 
Q 41.5 42.828125 45.03125 45.53125 
Q 48.578125 48.25 48.578125 53.8125 
Q 48.578125 59.328125 45.03125 62.0625 
Q 41.5 64.796875 34.28125 64.796875 
z
M 9.8125 72.90625 
L 35.015625 72.90625 
Q 46.296875 72.90625 52.390625 68.21875 
Q 58.5 63.53125 58.5 54.890625 
Q 58.5 48.1875 55.375 44.234375 
Q 52.25 40.28125 46.1875 39.3125 
Q 53.46875 37.75 57.5 32.78125 
Q 61.53125 27.828125 61.53125 20.40625 
Q 61.53125 10.640625 54.890625 5.3125 
Q 48.25 0 35.984375 0 
L 9.8125 0 
z
" id="DejaVuSans-66"/>
      <path d="M 9.8125 72.90625 
L 55.90625 72.90625 
L 55.90625 64.59375 
L 19.671875 64.59375 
L 19.671875 43.015625 
L 54.390625 43.015625 
L 54.390625 34.71875 
L 19.671875 34.71875 
L 19.671875 8.296875 
L 56.78125 8.296875 
L 56.78125 0 
L 9.8125 0 
z
" id="DejaVuSans-69"/>
     </defs>
     <g transform="translate(164.133333 84.876562)scale(0.1 -0.1)">
      <use xlink:href="#DejaVuSans-87"/>
      <use x="96.626953" xlink:href="#DejaVuSans-105"/>
      <use x="124.410156" xlink:href="#DejaVuSans-116"/>
      <use x="163.619141" xlink:href="#DejaVuSans-104"/>
      <use x="226.998047" xlink:href="#DejaVuSans-32"/>
      <use x="258.785156" xlink:href="#DejaVuSans-66"/>
      <use x="327.388672" xlink:href="#DejaVuSans-69"/>
      <use x="390.572266" xlink:href="#DejaVuSans-82"/>
      <use x="452.804688" xlink:href="#DejaVuSans-84"/>
      <use x="513.888672" xlink:href="#DejaVuSans-32"/>
      <use x="545.675781" xlink:href="#DejaVuSans-111"/>
      <use x="606.857422" xlink:href="#DejaVuSans-110"/>
      <use x="670.236328" xlink:href="#DejaVuSans-32"/>
      <use x="702.023438" xlink:href="#DejaVuSans-116"/>
      <use x="741.232422" xlink:href="#DejaVuSans-101"/>
      <use x="801.005859" xlink:href="#DejaVuSans-120"/>
      <use x="860.185547" xlink:href="#DejaVuSans-116"/>
      <use x="899.394531" xlink:href="#DejaVuSans-32"/>
      <use x="931.181641" xlink:href="#DejaVuSans-102"/>
      <use x="966.386719" xlink:href="#DejaVuSans-105"/>
      <use x="994.169922" xlink:href="#DejaVuSans-101"/>
      <use x="1055.693359" xlink:href="#DejaVuSans-108"/>
      <use x="1083.476562" xlink:href="#DejaVuSans-100"/>
     </g>
    </g>
    <g id="patch_34">
     <path d="M 136.133333 99.554687 
L 156.133333 99.554687 
L 156.133333 92.554687 
L 136.133333 92.554687 
z
" style="fill:#242526;"/>
    </g>
    <g id="text_46">
     <!-- With re-ranking on text field -->
     <defs>
      <path d="M 4.890625 31.390625 
L 31.203125 31.390625 
L 31.203125 23.390625 
L 4.890625 23.390625 
z
" id="DejaVuSans-45"/>
      <path d="M 9.078125 75.984375 
L 18.109375 75.984375 
L 18.109375 31.109375 
L 44.921875 54.6875 
L 56.390625 54.6875 
L 27.390625 29.109375 
L 57.625 0 
L 45.90625 0 
L 18.109375 26.703125 
L 18.109375 0 
L 9.078125 0 
z
" id="DejaVuSans-107"/>
      <path d="M 45.40625 27.984375 
Q 45.40625 37.75 41.375 43.109375 
Q 37.359375 48.484375 30.078125 48.484375 
Q 22.859375 48.484375 18.828125 43.109375 
Q 14.796875 37.75 14.796875 27.984375 
Q 14.796875 18.265625 18.828125 12.890625 
Q 22.859375 7.515625 30.078125 7.515625 
Q 37.359375 7.515625 41.375 12.890625 
Q 45.40625 18.265625 45.40625 27.984375 
z
M 54.390625 6.78125 
Q 54.390625 -7.171875 48.1875 -13.984375 
Q 42 -20.796875 29.203125 -20.796875 
Q 24.46875 -20.796875 20.265625 -20.09375 
Q 16.0625 -19.390625 12.109375 -17.921875 
L 12.109375 -9.1875 
Q 16.0625 -11.328125 19.921875 -12.34375 
Q 23.78125 -13.375 27.78125 -13.375 
Q 36.625 -13.375 41.015625 -8.765625 
Q 45.40625 -4.15625 45.40625 5.171875 
L 45.40625 9.625 
Q 42.625 4.78125 38.28125 2.390625 
Q 33.9375 0 27.875 0 
Q 17.828125 0 11.671875 7.65625 
Q 5.515625 15.328125 5.515625 27.984375 
Q 5.515625 40.671875 11.671875 48.328125 
Q 17.828125 56 27.875 56 
Q 33.9375 56 38.28125 53.609375 
Q 42.625 51.21875 45.40625 46.390625 
L 45.40625 54.6875 
L 54.390625 54.6875 
z
" id="DejaVuSans-103"/>
     </defs>
     <g transform="translate(164.133333 99.554687)scale(0.1 -0.1)">
      <use xlink:href="#DejaVuSans-87"/>
      <use x="96.626953" xlink:href="#DejaVuSans-105"/>
      <use x="124.410156" xlink:href="#DejaVuSans-116"/>
      <use x="163.619141" xlink:href="#DejaVuSans-104"/>
      <use x="226.998047" xlink:href="#DejaVuSans-32"/>
      <use x="258.785156" xlink:href="#DejaVuSans-114"/>
      <use x="297.648438" xlink:href="#DejaVuSans-101"/>
      <use x="359.171875" xlink:href="#DejaVuSans-45"/>
      <use x="395.255859" xlink:href="#DejaVuSans-114"/>
      <use x="436.369141" xlink:href="#DejaVuSans-97"/>
      <use x="497.648438" xlink:href="#DejaVuSans-110"/>
      <use x="561.027344" xlink:href="#DejaVuSans-107"/>
      <use x="618.9375" xlink:href="#DejaVuSans-105"/>
      <use x="646.720703" xlink:href="#DejaVuSans-110"/>
      <use x="710.099609" xlink:href="#DejaVuSans-103"/>
      <use x="773.576172" xlink:href="#DejaVuSans-32"/>
      <use x="805.363281" xlink:href="#DejaVuSans-111"/>
      <use x="866.544922" xlink:href="#DejaVuSans-110"/>
      <use x="929.923828" xlink:href="#DejaVuSans-32"/>
      <use x="961.710938" xlink:href="#DejaVuSans-116"/>
      <use x="1000.919922" xlink:href="#DejaVuSans-101"/>
      <use x="1060.693359" xlink:href="#DejaVuSans-120"/>
      <use x="1119.873047" xlink:href="#DejaVuSans-116"/>
      <use x="1159.082031" xlink:href="#DejaVuSans-32"/>
      <use x="1190.869141" xlink:href="#DejaVuSans-102"/>
      <use x="1226.074219" xlink:href="#DejaVuSans-105"/>
      <use x="1253.857422" xlink:href="#DejaVuSans-101"/>
      <use x="1315.380859" xlink:href="#DejaVuSans-108"/>
      <use x="1343.164062" xlink:href="#DejaVuSans-100"/>
     </g>
    </g>
   </g>
  </g>
 </g>
 <defs>
  <clipPath id="ped78ef60d9">
   <rect height="466.8" width="996.066667" x="127.133333" y="53.6"/>
  </clipPath>
 </defs>
</svg>
