<svg version="1.1" viewBox="0.0 0.0 600.0 371.0" fill="none" stroke="none" stroke-linecap="square" stroke-miterlimit="10" width="600" height="371" xmlns:xlink="http://www.w3.org/1999/xlink" xmlns="http://www.w3.org/2000/svg"><path fill="#ffffff" d="M0 0L600.0 0L600.0 371.0L0 371.0L0 0Z" fill-rule="nonzero"/><path stroke="#333333" stroke-width="1.0" stroke-linecap="butt" d="M137.5 45.5L137.5 331.5" fill-rule="nonzero"/><path stroke="#cccccc" stroke-width="1.0" stroke-linecap="butt" d="M248.5 45.5L248.5 331.5" fill-rule="nonzero"/><path stroke="#cccccc" stroke-width="1.0" stroke-linecap="butt" d="M359.5 45.5L359.5 331.5" fill-rule="nonzero"/><path stroke="#cccccc" stroke-width="1.0" stroke-linecap="butt" d="M470.5 45.5L470.5 331.5" fill-rule="nonzero"/><path stroke="#cccccc" stroke-width="1.0" stroke-linecap="butt" d="M581.5 45.5L581.5 331.5" fill-rule="nonzero"/><clipPath id="id_0"><path d="M137.13 45.916668L581.45 45.916668L581.45 331.45L137.13 331.45L137.13 45.916668Z" clip-rule="nonzero"/></clipPath><path stroke="#000000" stroke-width="2.0" stroke-linecap="butt" stroke-opacity="0.0" clip-path="url(#id_0)" d="M137.0 81.0L137.0 66.0L352.0 66.0C353.10458 66.0 354.0 66.89543 354.0 68.0L354.0 79.0C354.0 80.10457 353.10458 81.0 352.0 81.0Z" fill-rule="nonzero"/><path fill="#ffcc00" clip-path="url(#id_0)" d="M137.0 81.0L137.0 66.0L352.0 66.0C353.10458 66.0 354.0 66.89543 354.0 68.0L354.0 79.0C354.0 80.10457 353.10458 81.0 352.0 81.0Z" fill-rule="nonzero"/><path stroke="#000000" stroke-width="2.0" stroke-linecap="butt" stroke-opacity="0.0" clip-path="url(#id_0)" d="M137.0 134.0L137.0 119.0L452.0 119.0C453.10458 119.0 454.0 119.89543 454.0 121.0L454.0 132.0C454.0 133.10457 453.10458 134.0 452.0 134.0Z" fill-rule="nonzero"/><path fill="#ffcc00" clip-path="url(#id_0)" d="M137.0 134.0L137.0 119.0L452.0 119.0C453.10458 119.0 454.0 119.89543 454.0 121.0L454.0 132.0C454.0 133.10457 453.10458 134.0 452.0 134.0Z" fill-rule="nonzero"/><path stroke="#000000" stroke-width="2.0" stroke-linecap="butt" stroke-opacity="0.0" clip-path="url(#id_0)" d="M137.0 188.0L137.0 173.0L509.0 173.0C510.10458 173.0 511.0 173.89543 511.0 175.0L511.0 186.0C511.0 187.10457 510.10458 188.0 509.0 188.0Z" fill-rule="nonzero"/><path fill="#ffcc00" clip-path="url(#id_0)" d="M137.0 188.0L137.0 173.0L509.0 173.0C510.10458 173.0 511.0 173.89543 511.0 175.0L511.0 186.0C511.0 187.10457 510.10458 188.0 509.0 188.0Z" fill-rule="nonzero"/><path stroke="#000000" stroke-width="2.0" stroke-linecap="butt" stroke-opacity="0.0" clip-path="url(#id_0)" d="M137.0 241.0L137.0 226.0L459.0 226.0C460.10458 226.0 461.0 226.89543 461.0 228.0L461.0 239.0C461.0 240.10457 460.10458 241.0 459.0 241.0Z" fill-rule="nonzero"/><path fill="#ffcc00" clip-path="url(#id_0)" d="M137.0 241.0L137.0 226.0L459.0 226.0C460.10458 226.0 461.0 226.89543 461.0 228.0L461.0 239.0C461.0 240.10457 460.10458 241.0 459.0 241.0Z" fill-rule="nonzero"/><path stroke="#000000" stroke-width="2.0" stroke-linecap="butt" stroke-opacity="0.0" clip-path="url(#id_0)" d="M137.0 294.0L137.0 279.0L137.0 279.0L137.0 294.0Z" fill-rule="nonzero"/><path fill="#ffcc00" clip-path="url(#id_0)" d="M137.0 294.0L137.0 279.0L137.0 279.0L137.0 294.0Z" fill-rule="nonzero"/><path stroke="#000000" stroke-width="2.0" stroke-linecap="butt" stroke-opacity="0.0" clip-path="url(#id_0)" d="M137.0 98.0L137.0 83.0L297.0 83.0C298.10458 83.0 299.0 83.89543 299.0 85.0L299.0 96.0C299.0 97.10457 298.10458 98.0 297.0 98.0Z" fill-rule="nonzero"/><path fill="#8cab13" clip-path="url(#id_0)" d="M137.0 98.0L137.0 83.0L297.0 83.0C298.10458 83.0 299.0 83.89543 299.0 85.0L299.0 96.0C299.0 97.10457 298.10458 98.0 297.0 98.0Z" fill-rule="nonzero"/><path stroke="#000000" stroke-width="2.0" stroke-linecap="butt" stroke-opacity="0.0" clip-path="url(#id_0)" d="M137.0 151.0L137.0 136.0L461.0 136.0C462.10458 136.0 463.0 136.89543 463.0 138.0L463.0 149.0C463.0 150.10457 462.10458 151.0 461.0 151.0Z" fill-rule="nonzero"/><path fill="#8cab13" clip-path="url(#id_0)" d="M137.0 151.0L137.0 136.0L461.0 136.0C462.10458 136.0 463.0 136.89543 463.0 138.0L463.0 149.0C463.0 150.10457 462.10458 151.0 461.0 151.0Z" fill-rule="nonzero"/><path stroke="#000000" stroke-width="2.0" stroke-linecap="butt" stroke-opacity="0.0" clip-path="url(#id_0)" d="M137.0 205.0L137.0 190.0L302.0 190.0C303.10458 190.0 304.0 190.89543 304.0 192.0L304.0 203.0C304.0 204.10457 303.10458 205.0 302.0 205.0Z" fill-rule="nonzero"/><path fill="#8cab13" clip-path="url(#id_0)" d="M137.0 205.0L137.0 190.0L302.0 190.0C303.10458 190.0 304.0 190.89543 304.0 192.0L304.0 203.0C304.0 204.10457 303.10458 205.0 302.0 205.0Z" fill-rule="nonzero"/><path stroke="#000000" stroke-width="2.0" stroke-linecap="butt" stroke-opacity="0.0" clip-path="url(#id_0)" d="M137.0 258.0L137.0 243.0L391.0 243.0C392.10458 243.0 393.0 243.89543 393.0 245.0L393.0 256.0C393.0 257.10458 392.10458 258.0 391.0 258.0Z" fill-rule="nonzero"/><path fill="#8cab13" clip-path="url(#id_0)" d="M137.0 258.0L137.0 243.0L391.0 243.0C392.10458 243.0 393.0 243.89543 393.0 245.0L393.0 256.0C393.0 257.10458 392.10458 258.0 391.0 258.0Z" fill-rule="nonzero"/><path stroke="#000000" stroke-width="2.0" stroke-linecap="butt" stroke-opacity="0.0" clip-path="url(#id_0)" d="M137.0 311.0L137.0 296.0L285.0 296.0C286.10458 296.0 287.0 296.89542 287.0 298.0L287.0 309.0C287.0 310.10458 286.10458 311.0 285.0 311.0Z" fill-rule="nonzero"/><path fill="#8cab13" clip-path="url(#id_0)" d="M137.0 311.0L137.0 296.0L285.0 296.0C286.10458 296.0 287.0 296.89542 287.0 298.0L287.0 309.0C287.0 310.10458 286.10458 311.0 285.0 311.0Z" fill-rule="nonzero"/><path fill="#757575" d="M109.30187 68.34815Q109.30187 69.78565 108.64562 70.67628Q107.98937 71.5669 106.84875 71.5669Q105.6925 71.5669 105.03625 70.83253L105.03625 73.8794L103.95812 73.8794L103.95812 65.09815L104.9425 65.09815L104.98937 65.80128Q105.66125 64.98878 106.83312 64.98878Q107.97375 64.98878 108.63 65.84815Q109.30187 66.70753 109.30187 68.23878L109.30187 68.34815ZM108.22375 68.22315Q108.22375 67.14503 107.755 66.53565Q107.30187 65.91065 106.505 65.91065Q105.52062 65.91065 105.03625 66.77003L105.03625 69.80128Q105.52062 70.67628 106.52062 70.67628Q107.30187 70.67628 107.755 70.0669Q108.22375 69.4419 108.22375 68.22315ZM114.02062 66.0669Q113.77062 66.03565 113.48937 66.03565Q112.41125 66.03565 112.03625 66.9419L112.03625 71.4419L110.95812 71.4419L110.95812 65.09815L112.005 65.09815L112.02062 65.83253Q112.55187 64.98878 113.53625 64.98878Q113.84875 64.98878 114.02062 65.0669L114.02062 66.0669ZM114.66125 68.20753Q114.66125 67.28565 115.02062 66.53565Q115.39562 65.78565 116.05187 65.39503Q116.70812 64.98878 117.53625 64.98878Q118.83312 64.98878 119.63 65.8794Q120.4425 66.77003 120.4425 68.27003L120.4425 68.34815Q120.4425 69.27003 120.08312 70.0044Q119.72375 70.73878 119.0675 71.16065Q118.41125 71.5669 117.55187 71.5669Q116.27062 71.5669 115.45812 70.67628Q114.66125 69.77003 114.66125 68.28565L114.66125 68.20753ZM115.755 68.34815Q115.755 69.39503 116.23937 70.03565Q116.73937 70.67628 117.55187 70.67628Q118.38 70.67628 118.86437 70.03565Q119.34875 69.3794 119.34875 68.20753Q119.34875 67.17628 118.84875 66.53565Q118.36437 65.8794 117.53625 65.8794Q116.73937 65.8794 116.23937 66.52003Q115.755 67.14503 115.755 68.34815ZM127.3175 68.34815Q127.3175 69.80128 126.64562 70.6919Q125.98937 71.5669 124.86437 71.5669Q123.66125 71.5669 123.005 70.70753L122.9425 71.4419L121.95812 71.4419L121.95812 62.441902L123.03625 62.441902L123.03625 65.80128Q123.6925 64.98878 124.84875 64.98878Q126.005 64.98878 126.66125 65.86378Q127.3175 66.72315 127.3175 68.2544L127.3175 68.34815ZM126.23937 68.22315Q126.23937 67.11378 125.80187 66.52003Q125.38 65.91065 124.58312 65.91065Q123.505 65.91065 123.03625 66.89503L123.03625 69.64503Q123.53625 70.64503 124.58312 70.64503Q125.36437 70.64503 125.80187 70.03565Q126.23937 69.42628 126.23937 68.22315ZM130.13 71.4419L129.05188 71.4419L129.05188 62.441902L130.13 62.441902L130.13 71.4419Z" fill-rule="nonzero"/><path fill="#757575" d="M92.30187 98.34815Q92.30187 99.78565 91.64562 100.67628Q90.98937 101.5669 89.84875 101.5669Q88.6925 101.5669 88.03625 100.83253L88.03625 103.8794L86.95812 103.8794L86.95812 95.09815L87.9425 95.09815L87.98937 95.80128Q88.66125 94.98878 89.83312 94.98878Q90.97375 94.98878 91.63 95.84815Q92.30187 96.70753 92.30187 98.23878L92.30187 98.34815ZM91.22375 98.22315Q91.22375 97.14503 90.755 96.53565Q90.30187 95.91065 89.505 95.91065Q88.52062 95.91065 88.03625 96.77003L88.03625 99.80128Q88.52062 100.67628 89.52062 100.67628Q90.30187 100.67628 90.755 100.0669Q91.22375 99.4419 91.22375 98.22315ZM97.02062 96.0669Q96.77062 96.03565 96.48937 96.03565Q95.41125 96.03565 95.03625 96.9419L95.03625 101.4419L93.95812 101.4419L93.95812 95.09815L95.005 95.09815L95.02062 95.83253Q95.55187 94.98878 96.53625 94.98878Q96.84875 94.98878 97.02062 95.0669L97.02062 96.0669ZM97.66125 98.20753Q97.66125 97.28565 98.02062 96.53565Q98.39562 95.78565 99.05187 95.39503Q99.70812 94.98878 100.53625 94.98878Q101.83312 94.98878 102.63 95.8794Q103.4425 96.77003 103.4425 98.27003L103.4425 98.34815Q103.4425 99.27003 103.08312 100.0044Q102.72375 100.73878 102.0675 101.16065Q101.41125 101.5669 100.55187 101.5669Q99.27062 101.5669 98.45812 100.67628Q97.66125 99.77003 97.66125 98.28565L97.66125 98.20753ZM98.755 98.34815Q98.755 99.39503 99.23937 100.03565Q99.73937 100.67628 100.55187 100.67628Q101.38 100.67628 101.86437 100.03565Q102.34875 99.3794 102.34875 98.20753Q102.34875 97.17628 101.84875 96.53565Q101.36437 95.8794 100.53625 95.8794Q99.73937 95.8794 99.23937 96.52003Q98.755 97.14503 98.755 98.34815ZM110.3175 98.34815Q110.3175 99.80128 109.64562 100.6919Q108.98937 101.5669 107.86437 101.5669Q106.66125 101.5669 106.005 100.70753L105.9425 101.4419L104.95812 101.4419L104.95812 92.4419L106.03625 92.4419L106.03625 95.80128Q106.6925 94.98878 107.84875 94.98878Q109.005 94.98878 109.66125 95.86378Q110.3175 96.72315 110.3175 98.2544L110.3175 98.34815ZM109.23937 98.22315Q109.23937 97.11378 108.80187 96.52003Q108.38 95.91065 107.58312 95.91065Q106.505 95.91065 106.03625 96.89503L106.03625 99.64503Q106.53625 100.64503 107.58312 100.64503Q108.36437 100.64503 108.80187 100.03565Q109.23937 99.42628 109.23937 98.22315ZM113.13 101.4419L112.05187 101.4419L112.05187 92.4419L113.13 92.4419L113.13 101.4419ZM117.58312 101.5669Q116.28625 101.5669 115.47375 100.72315Q114.67687 99.86378 114.67687 98.4419L114.67687 98.2544Q114.67687 97.30128 115.03625 96.5669Q115.39562 95.8169 116.03625 95.41065Q116.6925 94.98878 117.4425 94.98878Q118.67687 94.98878 119.36437 95.80128Q120.05187 96.61378 120.05187 98.1294L120.05187 98.58253L115.755 98.58253Q115.78625 99.52003 116.30187 100.09815Q116.83312 100.67628 117.64562 100.67628Q118.20812 100.67628 118.59875 100.4419Q119.005 100.20753 119.3175 99.8169L119.97375 100.33253Q119.17687 101.5669 117.58312 101.5669ZM117.4425 95.8794Q116.78625 95.8794 116.33312 96.36378Q115.89562 96.83253 115.80187 97.6919L118.97375 97.6919L118.97375 97.61378Q118.92687 96.78565 118.52062 96.33253Q118.13 95.8794 117.4425 95.8794ZM121.97375 95.09815L122.005 95.80128Q122.6925 94.98878 123.88 94.98878Q125.20812 94.98878 125.6925 96.0044Q126.005 95.55128 126.505 95.27003Q127.02062 94.98878 127.70812 94.98878Q129.80188 94.98878 129.83313 97.1919L129.83313 101.4419L128.755 101.4419L128.755 97.2544Q128.755 96.58253 128.4425 96.2544Q128.13 95.91065 127.39562 95.91065Q126.78625 95.91065 126.38 96.27003Q125.98937 96.6294 125.92687 97.23878L125.92687 101.4419L124.84875 101.4419L124.84875 97.28565Q124.84875 95.91065 123.48937 95.91065Q122.42687 95.91065 122.03625 96.8169L122.03625 101.4419L120.9425 101.4419L120.9425 95.09815L121.97375 95.09815Z" fill-rule="nonzero"/><path fill="#757575" d="M109.30187 121.718864Q109.30187 123.156364 108.64562 124.04699Q107.98937 124.937614 106.84875 124.937614Q105.6925 124.937614 105.03625 124.20324L105.03625 127.250114L103.95812 127.250114L103.95812 118.468864L104.9425 118.468864L104.98937 119.17199Q105.66125 118.35949 106.83312 118.35949Q107.97375 118.35949 108.63 119.218864Q109.30187 120.07824 109.30187 121.60949L109.30187 121.718864ZM108.22375 121.593864Q108.22375 120.51574 107.755 119.906364Q107.30187 119.281364 106.505 119.281364Q105.52062 119.281364 105.03625 120.14074L105.03625 123.17199Q105.52062 124.04699 106.52062 124.04699Q107.30187 124.04699 107.755 123.437614Q108.22375 122.812614 108.22375 121.593864ZM114.02062 119.437614Q113.77062 119.406364 113.48937 119.406364Q112.41125 119.406364 112.03625 120.312614L112.03625 124.812614L110.95812 124.812614L110.95812 118.468864L112.005 118.468864L112.02062 119.20324Q112.55187 118.35949 113.53625 118.35949Q113.84875 118.35949 114.02062 118.437614L114.02062 119.437614ZM114.66125 121.57824Q114.66125 120.656364 115.02062 119.906364Q115.39562 119.156364 116.05187 118.76574Q116.70812 118.35949 117.53625 118.35949Q118.83312 118.35949 119.63 119.250114Q120.4425 120.14074 120.4425 121.64074L120.4425 121.718864Q120.4425 122.64074 120.08312 123.375114Q119.72375 124.10949 119.0675 124.531364Q118.41125 124.937614 117.55187 124.937614Q116.27062 124.937614 115.45812 124.04699Q114.66125 123.14074 114.66125 121.656364L114.66125 121.57824ZM115.755 121.718864Q115.755 122.76574 116.23937 123.406364Q116.73937 124.04699 117.55187 124.04699Q118.38 124.04699 118.86437 123.406364Q119.34875 122.750114 119.34875 121.57824Q119.34875 120.54699 118.84875 119.906364Q118.36437 119.250114 117.53625 119.250114Q116.73937 119.250114 116.23937 119.89074Q115.755 120.51574 115.755 121.718864ZM127.3175 121.718864Q127.3175 123.17199 126.64562 124.062614Q125.98937 124.937614 124.86437 124.937614Q123.66125 124.937614 123.005 124.07824L122.9425 124.812614L121.95812 124.812614L121.95812 115.812614L123.03625 115.812614L123.03625 119.17199Q123.6925 118.35949 124.84875 118.35949Q126.005 118.35949 126.66125 119.23449Q127.3175 120.093864 127.3175 121.625114L127.3175 121.718864ZM126.23937 121.593864Q126.23937 120.48449 125.80187 119.89074Q125.38 119.281364 124.58312 119.281364Q123.505 119.281364 123.03625 120.26574L123.03625 123.01574Q123.53625 124.01574 124.58312 124.01574Q125.36437 124.01574 125.80187 123.406364Q126.23937 122.79699 126.23937 121.593864ZM130.13 124.812614L129.05188 124.812614L129.05188 115.812614L130.13 115.812614L130.13 124.812614Z" fill-rule="nonzero"/><path fill="#757575" d="M92.30187 151.71887Q92.30187 153.15637 91.64562 154.047Q90.98937 154.93762 89.84875 154.93762Q88.6925 154.93762 88.03625 154.20325L88.03625 157.25012L86.95812 157.25012L86.95812 148.46887L87.9425 148.46887L87.98937 149.172Q88.66125 148.3595 89.83312 148.3595Q90.97375 148.3595 91.63 149.21887Q92.30187 150.07825 92.30187 151.6095L92.30187 151.71887ZM91.22375 151.59387Q91.22375 150.51575 90.755 149.90637Q90.30187 149.28137 89.505 149.28137Q88.52062 149.28137 88.03625 150.14075L88.03625 153.172Q88.52062 154.047 89.52062 154.047Q90.30187 154.047 90.755 153.43762Q91.22375 152.81262 91.22375 151.59387ZM97.02062 149.43762Q96.77062 149.40637 96.48937 149.40637Q95.41125 149.40637 95.03625 150.31262L95.03625 154.81262L93.95812 154.81262L93.95812 148.46887L95.005 148.46887L95.02062 149.20325Q95.55187 148.3595 96.53625 148.3595Q96.84875 148.3595 97.02062 148.43762L97.02062 149.43762ZM97.66125 151.57825Q97.66125 150.65637 98.02062 149.90637Q98.39562 149.15637 99.05187 148.76575Q99.70812 148.3595 100.53625 148.3595Q101.83312 148.3595 102.63 149.25012Q103.4425 150.14075 103.4425 151.64075L103.4425 151.71887Q103.4425 152.64075 103.08312 153.37512Q102.72375 154.1095 102.0675 154.53137Q101.41125 154.93762 100.55187 154.93762Q99.27062 154.93762 98.45812 154.047Q97.66125 153.14075 97.66125 151.65637L97.66125 151.57825ZM98.755 151.71887Q98.755 152.76575 99.23937 153.40637Q99.73937 154.047 100.55187 154.047Q101.38 154.047 101.86437 153.40637Q102.34875 152.75012 102.34875 151.57825Q102.34875 150.547 101.84875 149.90637Q101.36437 149.25012 100.53625 149.25012Q99.73937 149.25012 99.23937 149.89075Q98.755 150.51575 98.755 151.71887ZM110.3175 151.71887Q110.3175 153.172 109.64562 154.06262Q108.98937 154.93762 107.86437 154.93762Q106.66125 154.93762 106.005 154.07825L105.9425 154.81262L104.95812 154.81262L104.95812 145.81262L106.03625 145.81262L106.03625 149.172Q106.6925 148.3595 107.84875 148.3595Q109.005 148.3595 109.66125 149.2345Q110.3175 150.09387 110.3175 151.62512L110.3175 151.71887ZM109.23937 151.59387Q109.23937 150.4845 108.80187 149.89075Q108.38 149.28137 107.58312 149.28137Q106.505 149.28137 106.03625 150.26575L106.03625 153.01575Q106.53625 154.01575 107.58312 154.01575Q108.36437 154.01575 108.80187 153.40637Q109.23937 152.797 109.23937 151.59387ZM113.13 154.81262L112.05187 154.81262L112.05187 145.81262L113.13 145.81262L113.13 154.81262ZM117.58312 154.93762Q116.28625 154.93762 115.47375 154.09387Q114.67687 153.2345 114.67687 151.81262L114.67687 151.62512Q114.67687 150.672 115.03625 149.93762Q115.39562 149.18762 116.03625 148.78137Q116.6925 148.3595 117.4425 148.3595Q118.67687 148.3595 119.36437 149.172Q120.05187 149.9845 120.05187 151.50012L120.05187 151.95325L115.755 151.95325Q115.78625 152.89075 116.30187 153.46887Q116.83312 154.047 117.64562 154.047Q118.20812 154.047 118.59875 153.81262Q119.005 153.57825 119.3175 153.18762L119.97375 153.70325Q119.17687 154.93762 117.58312 154.93762ZM117.4425 149.25012Q116.78625 149.25012 116.33312 149.7345Q115.89562 150.20325 115.80187 151.06262L118.97375 151.06262L118.97375 150.9845Q118.92687 150.15637 118.52062 149.70325Q118.13 149.25012 117.4425 149.25012ZM121.97375 148.46887L122.005 149.172Q122.6925 148.3595 123.88 148.3595Q125.20812 148.3595 125.6925 149.37512Q126.005 148.922 126.505 148.64075Q127.02062 148.3595 127.70812 148.3595Q129.80188 148.3595 129.83313 150.56262L129.83313 154.81262L128.755 154.81262L128.755 150.62512Q128.755 149.95325 128.4425 149.62512Q128.13 149.28137 127.39562 149.28137Q126.78625 149.28137 126.38 149.64075Q125.98937 150.00012 125.92687 150.6095L125.92687 154.81262L124.84875 154.81262L124.84875 150.65637Q124.84875 149.28137 123.48937 149.28137Q122.42687 149.28137 122.03625 150.18762L122.03625 154.81262L120.9425 154.81262L120.9425 148.46887L121.97375 148.46887Z" fill-rule="nonzero"/><path fill="#757575" d="M47.864376 178.18333Q47.770626 177.99583 47.708126 177.51146Q46.958126 178.30833 45.91125 178.30833Q44.97375 178.30833 44.364376 177.77708Q43.770626 177.24583 43.770626 176.41771Q43.770626 175.43333 44.520626 174.88646Q45.270626 174.33958 46.645626 174.33958L47.6925 174.33958L47.6925 173.83958Q47.6925 173.27708 47.34875 172.94896Q47.020626 172.60521 46.34875 172.60521Q45.770626 172.60521 45.38 172.90208Q44.989376 173.18333 44.989376 173.60521L43.895626 173.60521Q43.895626 173.12083 44.22375 172.68333Q44.5675 172.24583 45.145626 171.99583Q45.72375 171.73021 46.41125 171.73021Q47.520626 171.73021 48.13 172.27708Q48.755 172.82396 48.78625 173.77708L48.78625 176.69896Q48.78625 177.57396 49.005 178.08958L49.005 178.18333L47.864376 178.18333ZM46.0675 177.35521Q46.583126 177.35521 47.03625 177.08958Q47.489376 176.82396 47.6925 176.40208L47.6925 175.10521L46.84875 175.10521Q44.84875 175.10521 44.84875 176.27708Q44.84875 176.77708 45.1925 177.07396Q45.53625 177.35521 46.0675 177.35521ZM54.020626 172.80833Q53.770626 172.77708 53.489376 172.77708Q52.41125 172.77708 52.03625 173.68333L52.03625 178.18333L50.958126 178.18333L50.958126 171.83958L52.005 171.83958L52.020626 172.57396Q52.551876 171.73021 53.53625 171.73021Q53.84875 171.73021 54.020626 171.80833L54.020626 172.80833ZM55.97375 171.83958L56.005 172.54271Q56.6925 171.73021 57.88 171.73021Q59.208126 171.73021 59.6925 172.74583Q60.005 172.29271 60.505 172.01146Q61.020626 171.73021 61.708126 171.73021Q63.801876 171.73021 63.833126 173.93333L63.833126 178.18333L62.755 178.18333L62.755 173.99583Q62.755 173.32396 62.4425 172.99583Q62.13 172.65208 61.395626 172.65208Q60.78625 172.65208 60.38 173.01146Q59.989376 173.37083 59.926876 173.98021L59.926876 178.18333L58.84875 178.18333L58.84875 174.02708Q58.84875 172.65208 57.489376 172.65208Q56.426876 172.65208 56.03625 173.55833L56.03625 178.18333L54.9425 178.18333L54.9425 171.83958L55.97375 171.83958ZM68.58313 178.30833Q67.286255 178.30833 66.473755 177.46458Q65.67688 176.60521 65.67688 175.18333L65.67688 174.99583Q65.67688 174.04271 66.036255 173.30833Q66.39563 172.55833 67.036255 172.15208Q67.692505 171.73021 68.442505 171.73021Q69.67688 171.73021 70.36438 172.54271Q71.05188 173.35521 71.05188 174.87083L71.05188 175.32396L66.755005 175.32396Q66.786255 176.26146 67.30188 176.83958Q67.83313 177.41771 68.64563 177.41771Q69.20813 177.41771 69.598755 177.18333Q70.005005 176.94896 70.317505 176.55833L70.973755 177.07396Q70.17688 178.30833 68.58313 178.30833ZM68.442505 172.62083Q67.786255 172.62083 67.33313 173.10521Q66.89563 173.57396 66.80188 174.43333L69.973755 174.43333L69.973755 174.35521Q69.92688 173.52708 69.52063 173.07396Q69.130005 172.62083 68.442505 172.62083ZM73.130005 178.18333L72.05188 178.18333L72.05188 169.18333L73.130005 169.18333L73.130005 178.18333ZM74.911255 179.88646L74.30188 179.46458Q74.848755 178.69896 74.880005 177.87083L74.880005 176.90208L75.942505 176.90208L75.942505 177.74583Q75.942505 178.33958 75.64563 178.93333Q75.348755 179.52708 74.911255 179.88646ZM81.130005 178.18333L80.05188 178.18333L80.05188 169.18333L81.130005 169.18333L81.130005 178.18333ZM85.58313 178.30833Q84.286255 178.30833 83.473755 177.46458Q82.67688 176.60521 82.67688 175.18333L82.67688 174.99583Q82.67688 174.04271 83.036255 173.30833Q83.39563 172.55833 84.036255 172.15208Q84.692505 171.73021 85.442505 171.73021Q86.67688 171.73021 87.36438 172.54271Q88.05188 173.35521 88.05188 174.87083L88.05188 175.32396L83.755005 175.32396Q83.786255 176.26146 84.30188 176.83958Q84.83313 177.41771 85.64563 177.41771Q86.20813 177.41771 86.598755 177.18333Q87.005005 176.94896 87.317505 176.55833L87.973755 177.07396Q87.17688 178.30833 85.58313 178.30833ZM85.442505 172.62083Q84.786255 172.62083 84.33313 173.10521Q83.89563 173.57396 83.80188 174.43333L86.973755 174.43333L86.973755 174.35521Q86.92688 173.52708 86.52063 173.07396Q86.130005 172.62083 85.442505 172.62083ZM90.130005 178.18333L89.05188 178.18333L89.05188 171.83958L90.130005 171.83958L90.130005 178.18333ZM88.95813 170.16771Q88.95813 169.90208 89.11438 169.71458Q89.286255 169.52708 89.598755 169.52708Q89.911255 169.52708 90.067505 169.71458Q90.23938 169.90208 90.23938 170.16771Q90.23938 170.41771 90.067505 170.60521Q89.911255 170.77708 89.598755 170.77708Q89.286255 170.77708 89.11438 170.60521Q88.95813 170.41771 88.95813 170.16771ZM93.42688 170.30833L93.42688 171.83958L94.598755 171.83958L94.598755 172.68333L93.42688 172.68333L93.42688 176.60521Q93.42688 176.99583 93.58313 177.18333Q93.73938 177.37083 94.11438 177.37083Q94.30188 177.37083 94.630005 177.30833L94.630005 178.18333Q94.20813 178.30833 93.80188 178.30833Q93.08313 178.30833 92.70813 177.87083Q92.33313 177.41771 92.33313 176.60521L92.33313 172.68333L91.17688 172.68333L91.17688 171.83958L92.33313 171.83958L92.33313 170.30833L93.42688 170.30833ZM95.911255 179.88646L95.30188 179.46458Q95.848755 178.69896 95.880005 177.87083L95.880005 176.90208L96.942505 176.90208L96.942505 177.74583Q96.942505 178.33958 96.64563 178.93333Q96.348755 179.52708 95.911255 179.88646ZM106.567505 176.68333L107.786255 171.83958L108.86438 171.83958L107.02063 178.18333L106.14563 178.18333L104.598755 173.37083L103.098755 178.18333L102.223755 178.18333L100.380005 171.83958L101.45813 171.83958L102.70813 176.58958L104.192505 171.83958L105.05188 171.83958L106.567505 176.68333ZM113.86438 178.18333Q113.77063 177.99583 113.70813 177.51146Q112.95813 178.30833 111.911255 178.30833Q110.973755 178.30833 110.36438 177.77708Q109.77063 177.24583 109.77063 176.41771Q109.77063 175.43333 110.52063 174.88646Q111.27063 174.33958 112.64563 174.33958L113.692505 174.33958L113.692505 173.83958Q113.692505 173.27708 113.348755 172.94896Q113.02063 172.60521 112.348755 172.60521Q111.77063 172.60521 111.380005 172.90208Q110.98938 173.18333 110.98938 173.60521L109.89563 173.60521Q109.89563 173.12083 110.223755 172.68333Q110.567505 172.24583 111.14563 171.99583Q111.723755 171.73021 112.411255 171.73021Q113.52063 171.73021 114.130005 172.27708Q114.755005 172.82396 114.786255 173.77708L114.786255 176.69896Q114.786255 177.57396 115.005005 178.08958L115.005005 178.18333L113.86438 178.18333ZM112.067505 177.35521Q112.58313 177.35521 113.036255 177.08958Q113.48938 176.82396 113.692505 176.40208L113.692505 175.10521L112.848755 175.10521Q110.848755 175.10521 110.848755 176.27708Q110.848755 176.77708 111.192505 177.07396Q111.536255 177.35521 112.067505 177.35521ZM120.02063 172.80833Q119.77063 172.77708 119.48938 172.77708Q118.411255 172.77708 118.036255 173.68333L118.036255 178.18333L116.95813 178.18333L116.95813 171.83958L118.005005 171.83958L118.02063 172.57396Q118.55188 171.73021 119.536255 171.73021Q119.848755 171.73021 120.02063 171.80833L120.02063 172.80833ZM121.973755 171.83958L122.005005 172.54271Q122.692505 171.73021 123.880005 171.73021Q125.20813 171.73021 125.692505 172.74583Q126.005005 172.29271 126.505005 172.01146Q127.02063 171.73021 127.70813 171.73021Q129.80188 171.73021 129.83313 173.93333L129.83313 178.18333L128.755 178.18333L128.755 173.99583Q128.755 173.32396 128.4425 172.99583Q128.13 172.65208 127.39563 172.65208Q126.786255 172.65208 126.380005 173.01146Q125.98938 173.37083 125.92688 173.98021L125.92688 178.18333L124.848755 178.18333L124.848755 174.02708Q124.848755 172.65208 123.48938 172.65208Q122.42688 172.65208 122.036255 173.55833L122.036255 178.18333L120.942505 178.18333L120.942505 171.83958L121.973755 171.83958Z" fill-rule="nonzero"/><path fill="#757575" d="M63.5675 206.68333L64.786255 201.83958L65.86438 201.83958L64.02063 208.18333L63.145626 208.18333L61.59875 203.37083L60.09875 208.18333L59.22375 208.18333L57.38 201.83958L58.458126 201.83958L59.708126 206.58958L61.1925 201.83958L62.051876 201.83958L63.5675 206.68333ZM70.86438 208.18333Q70.77063 207.99583 70.70813 207.51146Q69.95813 208.30833 68.911255 208.30833Q67.973755 208.30833 67.36438 207.77708Q66.77063 207.24583 66.77063 206.41771Q66.77063 205.43333 67.52063 204.88646Q68.27063 204.33958 69.64563 204.33958L70.692505 204.33958L70.692505 203.83958Q70.692505 203.27708 70.348755 202.94896Q70.02063 202.60521 69.348755 202.60521Q68.77063 202.60521 68.380005 202.90208Q67.98938 203.18333 67.98938 203.60521L66.89563 203.60521Q66.89563 203.12083 67.223755 202.68333Q67.567505 202.24583 68.14563 201.99583Q68.723755 201.73021 69.411255 201.73021Q70.52063 201.73021 71.130005 202.27708Q71.755005 202.82396 71.786255 203.77708L71.786255 206.69896Q71.786255 207.57396 72.005005 208.08958L72.005005 208.18333L70.86438 208.18333ZM69.067505 207.35521Q69.58313 207.35521 70.036255 207.08958Q70.48938 206.82396 70.692505 206.40208L70.692505 205.10521L69.848755 205.10521Q67.848755 205.10521 67.848755 206.27708Q67.848755 206.77708 68.192505 207.07396Q68.536255 207.35521 69.067505 207.35521ZM77.02063 202.80833Q76.77063 202.77708 76.48938 202.77708Q75.411255 202.77708 75.036255 203.68333L75.036255 208.18333L73.95813 208.18333L73.95813 201.83958L75.005005 201.83958L75.02063 202.57396Q75.55188 201.73021 76.536255 201.73021Q76.848755 201.73021 77.02063 201.80833L77.02063 202.80833ZM78.973755 201.83958L79.005005 202.54271Q79.692505 201.73021 80.880005 201.73021Q82.20813 201.73021 82.692505 202.74583Q83.005005 202.29271 83.505005 202.01146Q84.02063 201.73021 84.70813 201.73021Q86.80188 201.73021 86.83313 203.93333L86.83313 208.18333L85.755005 208.18333L85.755005 203.99583Q85.755005 203.32396 85.442505 202.99583Q85.130005 202.65208 84.39563 202.65208Q83.786255 202.65208 83.380005 203.01146Q82.98938 203.37083 82.92688 203.98021L82.92688 208.18333L81.848755 208.18333L81.848755 204.02708Q81.848755 202.65208 80.48938 202.65208Q79.42688 202.65208 79.036255 203.55833L79.036255 208.18333L77.942505 208.18333L77.942505 201.83958L78.973755 201.83958ZM91.58313 208.30833Q90.286255 208.30833 89.473755 207.46458Q88.67688 206.60521 88.67688 205.18333L88.67688 204.99583Q88.67688 204.04271 89.036255 203.30833Q89.39563 202.55833 90.036255 202.15208Q90.692505 201.73021 91.442505 201.73021Q92.67688 201.73021 93.36438 202.54271Q94.05188 203.35521 94.05188 204.87083L94.05188 205.32396L89.755005 205.32396Q89.786255 206.26146 90.30188 206.83958Q90.83313 207.41771 91.64563 207.41771Q92.20813 207.41771 92.598755 207.18333Q93.005005 206.94896 93.317505 206.55833L93.973755 207.07396Q93.17688 208.30833 91.58313 208.30833ZM91.442505 202.62083Q90.786255 202.62083 90.33313 203.10521Q89.89563 203.57396 89.80188 204.43333L92.973755 204.43333L92.973755 204.35521Q92.92688 203.52708 92.52063 203.07396Q92.130005 202.62083 91.442505 202.62083ZM96.130005 208.18333L95.05188 208.18333L95.05188 199.18333L96.130005 199.18333L96.130005 208.18333ZM100.58313 208.30833Q99.286255 208.30833 98.473755 207.46458Q97.67688 206.60521 97.67688 205.18333L97.67688 204.99583Q97.67688 204.04271 98.036255 203.30833Q98.39563 202.55833 99.036255 202.15208Q99.692505 201.73021 100.442505 201.73021Q101.67688 201.73021 102.36438 202.54271Q103.05188 203.35521 103.05188 204.87083L103.05188 205.32396L98.755005 205.32396Q98.786255 206.26146 99.30188 206.83958Q99.83313 207.41771 100.64563 207.41771Q101.20813 207.41771 101.598755 207.18333Q102.005005 206.94896 102.317505 206.55833L102.973755 207.07396Q102.17688 208.30833 100.58313 208.30833ZM100.442505 202.62083Q99.786255 202.62083 99.33313 203.10521Q98.89563 203.57396 98.80188 204.43333L101.973755 204.43333L101.973755 204.35521Q101.92688 203.52708 101.52063 203.07396Q101.130005 202.62083 100.442505 202.62083ZM105.130005 208.18333L104.05188 208.18333L104.05188 201.83958L105.130005 201.83958L105.130005 208.18333ZM103.95813 200.16771Q103.95813 199.90208 104.11438 199.71458Q104.286255 199.52708 104.598755 199.52708Q104.911255 199.52708 105.067505 199.71458Q105.23938 199.90208 105.23938 200.16771Q105.23938 200.41771 105.067505 200.60521Q104.911255 200.77708 104.598755 200.77708Q104.286255 200.77708 104.11438 200.60521Q103.95813 200.41771 103.95813 200.16771ZM108.42688 200.30833L108.42688 201.83958L109.598755 201.83958L109.598755 202.68333L108.42688 202.68333L108.42688 206.60521Q108.42688 206.99583 108.58313 207.18333Q108.73938 207.37083 109.11438 207.37083Q109.30188 207.37083 109.630005 207.30833L109.630005 208.18333Q109.20813 208.30833 108.80188 208.30833Q108.08313 208.30833 107.70813 207.87083Q107.33313 207.41771 107.33313 206.60521L107.33313 202.68333L106.17688 202.68333L106.17688 201.83958L107.33313 201.83958L107.33313 200.30833L108.42688 200.30833ZM114.86438 207.55833Q114.23938 208.30833 113.005005 208.30833Q111.98938 208.30833 111.45813 207.71458Q110.92688 207.12083 110.92688 205.96458L110.92688 201.83958L112.005005 201.83958L112.005005 205.93333Q112.005005 207.38646 113.17688 207.38646Q114.42688 207.38646 114.83313 206.44896L114.83313 201.83958L115.92688 201.83958L115.92688 208.18333L114.89563 208.18333L114.86438 207.55833ZM118.973755 201.83958L119.005005 202.63646Q119.73938 201.73021 120.911255 201.73021Q122.92688 201.73021 122.942505 203.99583L122.942505 208.18333L121.848755 208.18333L121.848755 203.98021Q121.848755 203.30833 121.536255 202.98021Q121.23938 202.65208 120.58313 202.65208Q120.05188 202.65208 119.64563 202.93333Q119.255005 203.21458 119.036255 203.66771L119.036255 208.18333L117.95813 208.18333L117.95813 201.83958L118.973755 201.83958ZM124.692505 204.96458Q124.692505 203.48021 125.380005 202.60521Q126.067505 201.73021 127.192505 201.73021Q128.34875 201.73021 129.005 202.54271L129.05188 201.83958L130.05188 201.83958L130.05188 208.02708Q130.05188 209.26146 129.3175 209.96458Q128.58313 210.68333 127.36438 210.68333Q126.67688 210.68333 126.02063 210.38646Q125.36438 210.08958 125.02063 209.58958L125.58313 208.93333Q126.27063 209.79271 127.286255 209.79271Q128.0675 209.79271 128.505 209.33958Q128.95813 208.90208 128.95813 208.08958L128.95813 207.54271Q128.30188 208.30833 127.17688 208.30833Q126.067505 208.30833 125.380005 207.41771Q124.692505 206.51146 124.692505 204.96458ZM125.786255 205.08958Q125.786255 206.15208 126.223755 206.77708Q126.661255 207.38646 127.45813 207.38646Q128.47375 207.38646 128.95813 206.44896L128.95813 203.55833Q128.45813 202.65208 127.45813 202.65208Q126.67688 202.65208 126.223755 203.26146Q125.786255 203.87083 125.786255 205.08958Z" fill-rule="nonzero"/><path fill="#757575" d="M47.864376 231.55405Q47.770626 231.36655 47.708126 230.88217Q46.958126 231.67905 45.91125 231.67905Q44.97375 231.67905 44.364376 231.1478Q43.770626 230.61655 43.770626 229.78842Q43.770626 228.80405 44.520626 228.25717Q45.270626 227.7103 46.645626 227.7103L47.6925 227.7103L47.6925 227.2103Q47.6925 226.6478 47.34875 226.31967Q47.020626 225.97592 46.34875 225.97592Q45.770626 225.97592 45.38 226.2728Q44.989376 226.55405 44.989376 226.97592L43.895626 226.97592Q43.895626 226.49155 44.22375 226.05405Q44.5675 225.61655 45.145626 225.36655Q45.72375 225.10092 46.41125 225.10092Q47.520626 225.10092 48.13 225.6478Q48.755 226.19467 48.78625 227.1478L48.78625 230.06967Q48.78625 230.94467 49.005 231.4603L49.005 231.55405L47.864376 231.55405ZM46.0675 230.72592Q46.583126 230.72592 47.03625 230.4603Q47.489376 230.19467 47.6925 229.7728L47.6925 228.47592L46.84875 228.47592Q44.84875 228.47592 44.84875 229.6478Q44.84875 230.1478 45.1925 230.44467Q45.53625 230.72592 46.0675 230.72592ZM54.020626 226.17905Q53.770626 226.1478 53.489376 226.1478Q52.41125 226.1478 52.03625 227.05405L52.03625 231.55405L50.958126 231.55405L50.958126 225.2103L52.005 225.2103L52.020626 225.94467Q52.551876 225.10092 53.53625 225.10092Q53.84875 225.10092 54.020626 225.17905L54.020626 226.17905ZM55.97375 225.2103L56.005 225.91342Q56.6925 225.10092 57.88 225.10092Q59.208126 225.10092 59.6925 226.11655Q60.005 225.66342 60.505 225.38217Q61.020626 225.10092 61.708126 225.10092Q63.801876 225.10092 63.833126 227.30405L63.833126 231.55405L62.755 231.55405L62.755 227.36655Q62.755 226.69467 62.4425 226.36655Q62.13 226.0228 61.395626 226.0228Q60.78625 226.0228 60.38 226.38217Q59.989376 226.74155 59.926876 227.35092L59.926876 231.55405L58.84875 231.55405L58.84875 227.3978Q58.84875 226.0228 57.489376 226.0228Q56.426876 226.0228 56.03625 226.92905L56.03625 231.55405L54.9425 231.55405L54.9425 225.2103L55.97375 225.2103ZM68.58313 231.67905Q67.286255 231.67905 66.473755 230.8353Q65.67688 229.97592 65.67688 228.55405L65.67688 228.36655Q65.67688 227.41342 66.036255 226.67905Q66.39563 225.92905 67.036255 225.5228Q67.692505 225.10092 68.442505 225.10092Q69.67688 225.10092 70.36438 225.91342Q71.05188 226.72592 71.05188 228.24155L71.05188 228.69467L66.755005 228.69467Q66.786255 229.63217 67.30188 230.2103Q67.83313 230.78842 68.64563 230.78842Q69.20813 230.78842 69.598755 230.55405Q70.005005 230.31967 70.317505 229.92905L70.973755 230.44467Q70.17688 231.67905 68.58313 231.67905ZM68.442505 225.99155Q67.786255 225.99155 67.33313 226.47592Q66.89563 226.94467 66.80188 227.80405L69.973755 227.80405L69.973755 227.72592Q69.92688 226.8978 69.52063 226.44467Q69.130005 225.99155 68.442505 225.99155ZM73.130005 231.55405L72.05188 231.55405L72.05188 222.55405L73.130005 222.55405L73.130005 231.55405ZM74.911255 233.25717L74.30188 232.8353Q74.848755 232.06967 74.880005 231.24155L74.880005 230.2728L75.942505 230.2728L75.942505 231.11655Q75.942505 231.7103 75.64563 232.30405Q75.348755 232.8978 74.911255 233.25717ZM81.130005 231.55405L80.05188 231.55405L80.05188 222.55405L81.130005 222.55405L81.130005 231.55405ZM85.58313 231.67905Q84.286255 231.67905 83.473755 230.8353Q82.67688 229.97592 82.67688 228.55405L82.67688 228.36655Q82.67688 227.41342 83.036255 226.67905Q83.39563 225.92905 84.036255 225.5228Q84.692505 225.10092 85.442505 225.10092Q86.67688 225.10092 87.36438 225.91342Q88.05188 226.72592 88.05188 228.24155L88.05188 228.69467L83.755005 228.69467Q83.786255 229.63217 84.30188 230.2103Q84.83313 230.78842 85.64563 230.78842Q86.20813 230.78842 86.598755 230.55405Q87.005005 230.31967 87.317505 229.92905L87.973755 230.44467Q87.17688 231.67905 85.58313 231.67905ZM85.442505 225.99155Q84.786255 225.99155 84.33313 226.47592Q83.89563 226.94467 83.80188 227.80405L86.973755 227.80405L86.973755 227.72592Q86.92688 226.8978 86.52063 226.44467Q86.130005 225.99155 85.442505 225.99155ZM90.130005 231.55405L89.05188 231.55405L89.05188 225.2103L90.130005 225.2103L90.130005 231.55405ZM88.95813 223.53842Q88.95813 223.2728 89.11438 223.0853Q89.286255 222.8978 89.598755 222.8978Q89.911255 222.8978 90.067505 223.0853Q90.23938 223.2728 90.23938 223.53842Q90.23938 223.78842 90.067505 223.97592Q89.911255 224.1478 89.598755 224.1478Q89.286255 224.1478 89.11438 223.97592Q88.95813 223.78842 88.95813 223.53842ZM93.42688 223.67905L93.42688 225.2103L94.598755 225.2103L94.598755 226.05405L93.42688 226.05405L93.42688 229.97592Q93.42688 230.36655 93.58313 230.55405Q93.73938 230.74155 94.11438 230.74155Q94.30188 230.74155 94.630005 230.67905L94.630005 231.55405Q94.20813 231.67905 93.80188 231.67905Q93.08313 231.67905 92.70813 231.24155Q92.33313 230.78842 92.33313 229.97592L92.33313 226.05405L91.17688 226.05405L91.17688 225.2103L92.33313 225.2103L92.33313 223.67905L93.42688 223.67905ZM95.911255 233.25717L95.30188 232.8353Q95.848755 232.06967 95.880005 231.24155L95.880005 230.2728L96.942505 230.2728L96.942505 231.11655Q96.942505 231.7103 96.64563 232.30405Q96.348755 232.8978 95.911255 233.25717ZM106.567505 230.05405L107.786255 225.2103L108.86438 225.2103L107.02063 231.55405L106.14563 231.55405L104.598755 226.74155L103.098755 231.55405L102.223755 231.55405L100.380005 225.2103L101.45813 225.2103L102.70813 229.9603L104.192505 225.2103L105.05188 225.2103L106.567505 230.05405ZM113.86438 231.55405Q113.77063 231.36655 113.70813 230.88217Q112.95813 231.67905 111.911255 231.67905Q110.973755 231.67905 110.36438 231.1478Q109.77063 230.61655 109.77063 229.78842Q109.77063 228.80405 110.52063 228.25717Q111.27063 227.7103 112.64563 227.7103L113.692505 227.7103L113.692505 227.2103Q113.692505 226.6478 113.348755 226.31967Q113.02063 225.97592 112.348755 225.97592Q111.77063 225.97592 111.380005 226.2728Q110.98938 226.55405 110.98938 226.97592L109.89563 226.97592Q109.89563 226.49155 110.223755 226.05405Q110.567505 225.61655 111.14563 225.36655Q111.723755 225.10092 112.411255 225.10092Q113.52063 225.10092 114.130005 225.6478Q114.755005 226.19467 114.786255 227.1478L114.786255 230.06967Q114.786255 230.94467 115.005005 231.4603L115.005005 231.55405L113.86438 231.55405ZM112.067505 230.72592Q112.58313 230.72592 113.036255 230.4603Q113.48938 230.19467 113.692505 229.7728L113.692505 228.47592L112.848755 228.47592Q110.848755 228.47592 110.848755 229.6478Q110.848755 230.1478 111.192505 230.44467Q111.536255 230.72592 112.067505 230.72592ZM120.02063 226.17905Q119.77063 226.1478 119.48938 226.1478Q118.411255 226.1478 118.036255 227.05405L118.036255 231.55405L116.95813 231.55405L116.95813 225.2103L118.005005 225.2103L118.02063 225.94467Q118.55188 225.10092 119.536255 225.10092Q119.848755 225.10092 120.02063 225.17905L120.02063 226.17905ZM121.973755 225.2103L122.005005 225.91342Q122.692505 225.10092 123.880005 225.10092Q125.20813 225.10092 125.692505 226.11655Q126.005005 225.66342 126.505005 225.38217Q127.02063 225.10092 127.70813 225.10092Q129.80188 225.10092 129.83313 227.30405L129.83313 231.55405L128.755 231.55405L128.755 227.36655Q128.755 226.69467 128.4425 226.36655Q128.13 226.0228 127.39563 226.0228Q126.786255 226.0228 126.380005 226.38217Q125.98938 226.74155 125.92688 227.35092L125.92688 231.55405L124.848755 231.55405L124.848755 227.3978Q124.848755 226.0228 123.48938 226.0228Q122.42688 226.0228 122.036255 226.92905L122.036255 231.55405L120.942505 231.55405L120.942505 225.2103L121.973755 225.2103Z" fill-rule="nonzero"/><path fill="#757575" d="M63.5675 260.05405L64.786255 255.2103L65.86438 255.2103L64.02063 261.55405L63.145626 261.55405L61.59875 256.74155L60.09875 261.55405L59.22375 261.55405L57.38 255.2103L58.458126 255.2103L59.708126 259.9603L61.1925 255.2103L62.051876 255.2103L63.5675 260.05405ZM70.86438 261.55405Q70.77063 261.36655 70.70813 260.88217Q69.95813 261.67905 68.911255 261.67905Q67.973755 261.67905 67.36438 261.1478Q66.77063 260.61655 66.77063 259.78842Q66.77063 258.80405 67.52063 258.25717Q68.27063 257.7103 69.64563 257.7103L70.692505 257.7103L70.692505 257.2103Q70.692505 256.6478 70.348755 256.31967Q70.02063 255.97592 69.348755 255.97592Q68.77063 255.97592 68.380005 256.2728Q67.98938 256.55405 67.98938 256.97592L66.89563 256.97592Q66.89563 256.49155 67.223755 256.05405Q67.567505 255.61655 68.14563 255.36655Q68.723755 255.10092 69.411255 255.10092Q70.52063 255.10092 71.130005 255.6478Q71.755005 256.19467 71.786255 257.1478L71.786255 260.06967Q71.786255 260.94467 72.005005 261.4603L72.005005 261.55405L70.86438 261.55405ZM69.067505 260.72592Q69.58313 260.72592 70.036255 260.4603Q70.48938 260.19467 70.692505 259.7728L70.692505 258.47592L69.848755 258.47592Q67.848755 258.47592 67.848755 259.6478Q67.848755 260.1478 68.192505 260.44467Q68.536255 260.72592 69.067505 260.72592ZM77.02063 256.17905Q76.77063 256.1478 76.48938 256.1478Q75.411255 256.1478 75.036255 257.05405L75.036255 261.55405L73.95813 261.55405L73.95813 255.2103L75.005005 255.2103L75.02063 255.94467Q75.55188 255.10092 76.536255 255.10092Q76.848755 255.10092 77.02063 255.17905L77.02063 256.17905ZM78.973755 255.2103L79.005005 255.91342Q79.692505 255.10092 80.880005 255.10092Q82.20813 255.10092 82.692505 256.11655Q83.005005 255.66342 83.505005 255.38217Q84.02063 255.10092 84.70813 255.10092Q86.80188 255.10092 86.83313 257.30405L86.83313 261.55405L85.755005 261.55405L85.755005 257.36655Q85.755005 256.69467 85.442505 256.36655Q85.130005 256.0228 84.39563 256.0228Q83.786255 256.0228 83.380005 256.38217Q82.98938 256.74155 82.92688 257.35092L82.92688 261.55405L81.848755 261.55405L81.848755 257.3978Q81.848755 256.0228 80.48938 256.0228Q79.42688 256.0228 79.036255 256.92905L79.036255 261.55405L77.942505 261.55405L77.942505 255.2103L78.973755 255.2103ZM91.58313 261.67905Q90.286255 261.67905 89.473755 260.8353Q88.67688 259.97592 88.67688 258.55405L88.67688 258.36655Q88.67688 257.41342 89.036255 256.67905Q89.39563 255.92905 90.036255 255.5228Q90.692505 255.10092 91.442505 255.10092Q92.67688 255.10092 93.36438 255.91342Q94.05188 256.72592 94.05188 258.24155L94.05188 258.69467L89.755005 258.69467Q89.786255 259.63217 90.30188 260.2103Q90.83313 260.78842 91.64563 260.78842Q92.20813 260.78842 92.598755 260.55405Q93.005005 260.31967 93.317505 259.92905L93.973755 260.44467Q93.17688 261.67905 91.58313 261.67905ZM91.442505 255.99155Q90.786255 255.99155 90.33313 256.47592Q89.89563 256.94467 89.80188 257.80405L92.973755 257.80405L92.973755 257.72592Q92.92688 256.8978 92.52063 256.44467Q92.130005 255.99155 91.442505 255.99155ZM96.130005 261.55405L95.05188 261.55405L95.05188 252.55405L96.130005 252.55405L96.130005 261.55405ZM100.58313 261.67905Q99.286255 261.67905 98.473755 260.8353Q97.67688 259.97592 97.67688 258.55405L97.67688 258.36655Q97.67688 257.41342 98.036255 256.67905Q98.39563 255.92905 99.036255 255.5228Q99.692505 255.10092 100.442505 255.10092Q101.67688 255.10092 102.36438 255.91342Q103.05188 256.72592 103.05188 258.24155L103.05188 258.69467L98.755005 258.69467Q98.786255 259.63217 99.30188 260.2103Q99.83313 260.78842 100.64563 260.78842Q101.20813 260.78842 101.598755 260.55405Q102.005005 260.31967 102.317505 259.92905L102.973755 260.44467Q102.17688 261.67905 100.58313 261.67905ZM100.442505 255.99155Q99.786255 255.99155 99.33313 256.47592Q98.89563 256.94467 98.80188 257.80405L101.973755 257.80405L101.973755 257.72592Q101.92688 256.8978 101.52063 256.44467Q101.130005 255.99155 100.442505 255.99155ZM105.130005 261.55405L104.05188 261.55405L104.05188 255.2103L105.130005 255.2103L105.130005 261.55405ZM103.95813 253.53842Q103.95813 253.2728 104.11438 253.0853Q104.286255 252.8978 104.598755 252.8978Q104.911255 252.8978 105.067505 253.0853Q105.23938 253.2728 105.23938 253.53842Q105.23938 253.78842 105.067505 253.97592Q104.911255 254.1478 104.598755 254.1478Q104.286255 254.1478 104.11438 253.97592Q103.95813 253.78842 103.95813 253.53842ZM108.42688 253.67905L108.42688 255.2103L109.598755 255.2103L109.598755 256.05405L108.42688 256.05405L108.42688 259.97592Q108.42688 260.36655 108.58313 260.55405Q108.73938 260.74155 109.11438 260.74155Q109.30188 260.74155 109.630005 260.67905L109.630005 261.55405Q109.20813 261.67905 108.80188 261.67905Q108.08313 261.67905 107.70813 261.24155Q107.33313 260.78842 107.33313 259.97592L107.33313 256.05405L106.17688 256.05405L106.17688 255.2103L107.33313 255.2103L107.33313 253.67905L108.42688 253.67905ZM114.86438 260.92905Q114.23938 261.67905 113.005005 261.67905Q111.98938 261.67905 111.45813 261.0853Q110.92688 260.49155 110.92688 259.3353L110.92688 255.2103L112.005005 255.2103L112.005005 259.30405Q112.005005 260.75717 113.17688 260.75717Q114.42688 260.75717 114.83313 259.81967L114.83313 255.2103L115.92688 255.2103L115.92688 261.55405L114.89563 261.55405L114.86438 260.92905ZM118.973755 255.2103L119.005005 256.00717Q119.73938 255.10092 120.911255 255.10092Q122.92688 255.10092 122.942505 257.36655L122.942505 261.55405L121.848755 261.55405L121.848755 257.35092Q121.848755 256.67905 121.536255 256.35092Q121.23938 256.0228 120.58313 256.0228Q120.05188 256.0228 119.64563 256.30405Q119.255005 256.5853 119.036255 257.03842L119.036255 261.55405L117.95813 261.55405L117.95813 255.2103L118.973755 255.2103ZM124.692505 258.3353Q124.692505 256.85092 125.380005 255.97592Q126.067505 255.10092 127.192505 255.10092Q128.34875 255.10092 129.005 255.91342L129.05188 255.2103L130.05188 255.2103L130.05188 261.3978Q130.05188 262.63217 129.3175 263.3353Q128.58313 264.05405 127.36438 264.05405Q126.67688 264.05405 126.02063 263.75717Q125.36438 263.4603 125.02063 262.9603L125.58313 262.30405Q126.27063 263.16342 127.286255 263.16342Q128.0675 263.16342 128.505 262.7103Q128.95813 262.2728 128.95813 261.4603L128.95813 260.91342Q128.30188 261.67905 127.17688 261.67905Q126.067505 261.67905 125.380005 260.78842Q124.692505 259.88217 124.692505 258.3353ZM125.786255 258.4603Q125.786255 259.5228 126.223755 260.1478Q126.661255 260.75717 127.45813 260.75717Q128.47375 260.75717 128.95813 259.81967L128.95813 256.92905Q128.45813 256.0228 127.45813 256.0228Q126.67688 256.0228 126.223755 256.63217Q125.786255 257.24155 125.786255 258.4603Z" fill-rule="nonzero"/><path fill="#757575" d="M54.3175 289.33102Q54.3175 290.78415 53.645626 291.67477Q52.989376 292.54977 51.864376 292.54977Q50.66125 292.54977 50.005 291.6904L49.9425 292.42477L48.958126 292.42477L48.958126 283.42477L50.03625 283.42477L50.03625 286.78415Q50.6925 285.97165 51.84875 285.97165Q53.005 285.97165 53.66125 286.84665Q54.3175 287.70602 54.3175 289.23727L54.3175 289.33102ZM53.239376 289.20602Q53.239376 288.09665 52.801876 287.5029Q52.38 286.89352 51.583126 286.89352Q50.505 286.89352 50.03625 287.8779L50.03625 290.6279Q50.53625 291.6279 51.583126 291.6279Q52.364376 291.6279 52.801876 291.01852Q53.239376 290.40915 53.239376 289.20602ZM59.864376 291.79977Q59.239376 292.54977 58.005 292.54977Q56.989376 292.54977 56.458126 291.95602Q55.926876 291.36227 55.926876 290.20602L55.926876 286.08102L57.005 286.08102L57.005 290.17477Q57.005 291.6279 58.176876 291.6279Q59.426876 291.6279 59.833126 290.6904L59.833126 286.08102L60.926876 286.08102L60.926876 292.42477L59.895626 292.42477L59.864376 291.79977ZM63.97375 286.08102L64.005005 286.8779Q64.73938 285.97165 65.911255 285.97165Q67.92688 285.97165 67.942505 288.23727L67.942505 292.42477L66.848755 292.42477L66.848755 288.22165Q66.848755 287.54977 66.536255 287.22165Q66.23938 286.89352 65.58313 286.89352Q65.05188 286.89352 64.64563 287.17477Q64.255005 287.45602 64.036255 287.90915L64.036255 292.42477L62.958126 292.42477L62.958126 286.08102L63.97375 286.08102ZM69.692505 289.20602Q69.692505 287.73727 70.380005 286.86227Q71.067505 285.97165 72.192505 285.97165Q73.30188 285.97165 73.95813 286.72165L73.95813 283.42477L75.036255 283.42477L75.036255 292.42477L74.036255 292.42477L73.98938 291.73727Q73.33313 292.54977 72.17688 292.54977Q71.08313 292.54977 70.380005 291.64352Q69.692505 290.73727 69.692505 289.28415L69.692505 289.20602ZM70.77063 289.33102Q70.77063 290.40915 71.20813 291.01852Q71.661255 291.6279 72.442505 291.6279Q73.473755 291.6279 73.95813 290.6904L73.95813 287.78415Q73.473755 286.89352 72.45813 286.89352Q71.661255 286.89352 71.20813 287.5029Q70.77063 288.11227 70.77063 289.33102ZM76.911255 294.1279L76.30188 293.70602Q76.848755 292.9404 76.880005 292.11227L76.880005 291.14352L77.942505 291.14352L77.942505 291.98727Q77.942505 292.58102 77.64563 293.17477Q77.348755 293.76852 76.911255 294.1279ZM83.130005 292.42477L82.05188 292.42477L82.05188 283.42477L83.130005 283.42477L83.130005 292.42477ZM88.86438 292.42477Q88.77063 292.23727 88.70813 291.7529Q87.95813 292.54977 86.911255 292.54977Q85.973755 292.54977 85.36438 292.01852Q84.77063 291.48727 84.77063 290.65915Q84.77063 289.67477 85.52063 289.1279Q86.27063 288.58102 87.64563 288.58102L88.692505 288.58102L88.692505 288.08102Q88.692505 287.51852 88.348755 287.1904Q88.02063 286.84665 87.348755 286.84665Q86.77063 286.84665 86.380005 287.14352Q85.98938 287.42477 85.98938 287.84665L84.89563 287.84665Q84.89563 287.36227 85.223755 286.92477Q85.567505 286.48727 86.14563 286.23727Q86.723755 285.97165 87.411255 285.97165Q88.52063 285.97165 89.130005 286.51852Q89.755005 287.0654 89.786255 288.01852L89.786255 290.9404Q89.786255 291.8154 90.005005 292.33102L90.005005 292.42477L88.86438 292.42477ZM87.067505 291.59665Q87.58313 291.59665 88.036255 291.33102Q88.48938 291.0654 88.692505 290.64352L88.692505 289.34665L87.848755 289.34665Q85.848755 289.34665 85.848755 290.51852Q85.848755 291.01852 86.192505 291.3154Q86.536255 291.59665 87.067505 291.59665ZM93.42688 284.54977L93.42688 286.08102L94.598755 286.08102L94.598755 286.92477L93.42688 286.92477L93.42688 290.84665Q93.42688 291.23727 93.58313 291.42477Q93.73938 291.61227 94.11438 291.61227Q94.30188 291.61227 94.630005 291.54977L94.630005 292.42477Q94.20813 292.54977 93.80188 292.54977Q93.08313 292.54977 92.70813 292.11227Q92.33313 291.65915 92.33313 290.84665L92.33313 286.92477L91.17688 286.92477L91.17688 286.08102L92.33313 286.08102L92.33313 284.54977L93.42688 284.54977ZM97.42688 284.54977L97.42688 286.08102L98.598755 286.08102L98.598755 286.92477L97.42688 286.92477L97.42688 290.84665Q97.42688 291.23727 97.58313 291.42477Q97.73938 291.61227 98.11438 291.61227Q98.30188 291.61227 98.630005 291.54977L98.630005 292.42477Q98.20813 292.54977 97.80188 292.54977Q97.08313 292.54977 96.70813 292.11227Q96.33313 291.65915 96.33313 290.84665L96.33313 286.92477L95.17688 286.92477L95.17688 286.08102L96.33313 286.08102L96.33313 284.54977L97.42688 284.54977ZM99.911255 294.1279L99.30188 293.70602Q99.848755 292.9404 99.880005 292.11227L99.880005 291.14352L100.942505 291.14352L100.942505 291.98727Q100.942505 292.58102 100.64563 293.17477Q100.348755 293.76852 99.911255 294.1279ZM110.30188 289.33102Q110.30188 290.76852 109.64563 291.65915Q108.98938 292.54977 107.848755 292.54977Q106.692505 292.54977 106.036255 291.8154L106.036255 294.86227L104.95813 294.86227L104.95813 286.08102L105.942505 286.08102L105.98938 286.78415Q106.661255 285.97165 107.83313 285.97165Q108.973755 285.97165 109.630005 286.83102Q110.30188 287.6904 110.30188 289.22165L110.30188 289.33102ZM109.223755 289.20602Q109.223755 288.1279 108.755005 287.51852Q108.30188 286.89352 107.505005 286.89352Q106.52063 286.89352 106.036255 287.7529L106.036255 290.78415Q106.52063 291.65915 107.52063 291.65915Q108.30188 291.65915 108.755005 291.04977Q109.223755 290.42477 109.223755 289.20602ZM113.130005 292.42477L112.05188 292.42477L112.05188 283.42477L113.130005 283.42477L113.130005 292.42477ZM118.86438 292.42477Q118.77063 292.23727 118.70813 291.7529Q117.95813 292.54977 116.911255 292.54977Q115.973755 292.54977 115.36438 292.01852Q114.77063 291.48727 114.77063 290.65915Q114.77063 289.67477 115.52063 289.1279Q116.27063 288.58102 117.64563 288.58102L118.692505 288.58102L118.692505 288.08102Q118.692505 287.51852 118.348755 287.1904Q118.02063 286.84665 117.348755 286.84665Q116.77063 286.84665 116.380005 287.14352Q115.98938 287.42477 115.98938 287.84665L114.89563 287.84665Q114.89563 287.36227 115.223755 286.92477Q115.567505 286.48727 116.14563 286.23727Q116.723755 285.97165 117.411255 285.97165Q118.52063 285.97165 119.130005 286.51852Q119.755005 287.0654 119.786255 288.01852L119.786255 290.9404Q119.786255 291.8154 120.005005 292.33102L120.005005 292.42477L118.86438 292.42477ZM117.067505 291.59665Q117.58313 291.59665 118.036255 291.33102Q118.48938 291.0654 118.692505 290.64352L118.692505 289.34665L117.848755 289.34665Q115.848755 289.34665 115.848755 290.51852Q115.848755 291.01852 116.192505 291.3154Q116.536255 291.59665 117.067505 291.59665ZM123.42688 284.54977L123.42688 286.08102L124.598755 286.08102L124.598755 286.92477L123.42688 286.92477L123.42688 290.84665Q123.42688 291.23727 123.58313 291.42477Q123.73938 291.61227 124.11438 291.61227Q124.30188 291.61227 124.630005 291.54977L124.630005 292.42477Q124.20813 292.54977 123.80188 292.54977Q123.08313 292.54977 122.70813 292.11227Q122.33313 291.65915 122.33313 290.84665L122.33313 286.92477L121.17688 286.92477L121.17688 286.08102L122.33313 286.08102L122.33313 284.54977L123.42688 284.54977ZM127.42688 284.54977L127.42688 286.08102L128.59875 286.08102L128.59875 286.92477L127.42688 286.92477L127.42688 290.84665Q127.42688 291.23727 127.58313 291.42477Q127.73938 291.61227 128.11438 291.61227Q128.30188 291.61227 128.63 291.54977L128.63 292.42477Q128.20813 292.54977 127.80188 292.54977Q127.08313 292.54977 126.70813 292.11227Q126.33313 291.65915 126.33313 290.84665L126.33313 286.92477L125.17688 286.92477L125.17688 286.08102L126.33313 286.08102L126.33313 284.54977L127.42688 284.54977ZM129.91125 294.1279L129.30188 293.70602Q129.84875 292.9404 129.88 292.11227L129.88 291.14352L130.9425 291.14352L130.9425 291.98727Q130.9425 292.58102 130.64563 293.17477Q130.34875 293.76852 129.91125 294.1279Z" fill-rule="nonzero"/><path fill="#757575" d="M90.03625 305.95602L91.61437 301.08102L92.72375 301.08102L90.4425 307.42477L89.61437 307.42477L87.3175 301.08102L88.42687 301.08102L90.03625 305.95602ZM96.58312 307.54977Q95.28625 307.54977 94.47375 306.70602Q93.67687 305.84665 93.67687 304.42477L93.67687 304.23727Q93.67687 303.28415 94.03625 302.54977Q94.39562 301.79977 95.03625 301.39352Q95.6925 300.97165 96.4425 300.97165Q97.67687 300.97165 98.36437 301.78415Q99.05187 302.59665 99.05187 304.11227L99.05187 304.5654L94.755 304.5654Q94.78625 305.5029 95.30187 306.08102Q95.83312 306.65915 96.64562 306.65915Q97.20812 306.65915 97.59875 306.42477Q98.005 306.1904 98.3175 305.79977L98.97375 306.3154Q98.17687 307.54977 96.58312 307.54977ZM96.4425 301.86227Q95.78625 301.86227 95.33312 302.34665Q94.89562 302.8154 94.80187 303.67477L97.97375 303.67477L97.97375 303.59665Q97.92687 302.76852 97.52062 302.3154Q97.13 301.86227 96.4425 301.86227ZM103.02062 302.04977Q102.77062 302.01852 102.48937 302.01852Q101.41125 302.01852 101.03625 302.92477L101.03625 307.42477L99.95812 307.42477L99.95812 301.08102L101.005 301.08102L101.02062 301.8154Q101.55187 300.97165 102.53625 300.97165Q102.84875 300.97165 103.02062 301.04977L103.02062 302.04977ZM109.3175 304.33102Q109.3175 305.78415 108.64562 306.67477Q107.98937 307.54977 106.86437 307.54977Q105.66125 307.54977 105.005 306.6904L104.9425 307.42477L103.95812 307.42477L103.95812 298.42477L105.03625 298.42477L105.03625 301.78415Q105.6925 300.97165 106.84875 300.97165Q108.005 300.97165 108.66125 301.84665Q109.3175 302.70602 109.3175 304.23727L109.3175 304.33102ZM108.23937 304.20602Q108.23937 303.09665 107.80187 302.5029Q107.38 301.89352 106.58312 301.89352Q105.505 301.89352 105.03625 302.8779L105.03625 305.6279Q105.53625 306.6279 106.58312 306.6279Q107.36437 306.6279 107.80187 306.01852Q108.23937 305.40915 108.23937 304.20602ZM114.86437 306.79977Q114.23937 307.54977 113.005 307.54977Q111.98937 307.54977 111.45812 306.95602Q110.92687 306.36227 110.92687 305.20602L110.92687 301.08102L112.005 301.08102L112.005 305.17477Q112.005 306.6279 113.17687 306.6279Q114.42687 306.6279 114.83312 305.6904L114.83312 301.08102L115.92687 301.08102L115.92687 307.42477L114.89562 307.42477L114.86437 306.79977ZM118.97375 301.08102L119.005 301.8779Q119.73937 300.97165 120.91125 300.97165Q122.92687 300.97165 122.9425 303.23727L122.9425 307.42477L121.84875 307.42477L121.84875 303.22165Q121.84875 302.54977 121.53625 302.22165Q121.23937 301.89352 120.58312 301.89352Q120.05187 301.89352 119.64562 302.17477Q119.255 302.45602 119.03625 302.90915L119.03625 307.42477L117.95812 307.42477L117.95812 301.08102L118.97375 301.08102ZM124.6925 304.20602Q124.6925 302.73727 125.38 301.86227Q126.0675 300.97165 127.1925 300.97165Q128.30188 300.97165 128.95813 301.72165L128.95813 298.42477L130.03625 298.42477L130.03625 307.42477L129.03625 307.42477L128.98938 306.73727Q128.33313 307.54977 127.17687 307.54977Q126.08312 307.54977 125.38 306.64352Q124.6925 305.73727 124.6925 304.28415L124.6925 304.20602ZM125.77062 304.33102Q125.77062 305.40915 126.20812 306.01852Q126.66125 306.6279 127.4425 306.6279Q128.47375 306.6279 128.95813 305.6904L128.95813 302.78415Q128.47375 301.89352 127.45812 301.89352Q126.66125 301.89352 126.20812 302.5029Q125.77062 303.11227 125.77062 304.33102Z" fill-rule="nonzero"/><path fill="#757575" d="M139.6925 345.8094Q139.6925 347.71564 139.03625 348.65314Q138.39563 349.575 137.005 349.575Q135.64563 349.575 134.98938 348.66876Q134.33313 347.7625 134.30188 345.95L134.30188 344.5125Q134.30188 342.6219 134.9425 341.71564Q135.59875 340.79376 136.98938 340.79376Q138.36438 340.79376 139.02063 341.6844Q139.67688 342.5594 139.6925 344.40314L139.6925 345.8094ZM138.59875 344.325Q138.59875 342.95 138.20813 342.325Q137.83313 341.6844 136.98938 341.6844Q136.16125 341.6844 135.77063 342.325Q135.39563 342.95 135.39563 344.2469L135.39563 345.98126Q135.39563 347.35626 135.78625 348.02814Q136.1925 348.6844 137.005 348.6844Q137.80188 348.6844 138.1925 348.0594Q138.58313 347.4344 138.59875 346.10626L138.59875 344.325Z" fill-rule="nonzero"/><path fill="#757575" d="M251.00688 349.45L245.41313 349.45L245.41313 348.66876L248.36626 345.3875Q249.0225 344.6375 249.2725 344.1844Q249.5225 343.71564 249.5225 343.21564Q249.5225 342.54376 249.11626 342.1219Q248.72563 341.6844 248.03813 341.6844Q247.24126 341.6844 246.78813 342.15314Q246.335 342.60626 246.335 343.4344L245.25688 343.4344Q245.25688 342.2469 246.00688 341.52814Q246.7725 340.79376 248.03813 340.79376Q249.24126 340.79376 249.92876 341.41876Q250.61626 342.04376 250.61626 343.09064Q250.61626 344.34064 249.00688 346.09064L246.72563 348.5594L251.00688 348.5594L251.00688 349.45Z" fill-rule="nonzero"/><path fill="#757575" d="M361.07126 346.59064L362.25876 346.59064L362.25876 347.46564L361.07126 347.46564L361.07126 349.45L359.99313 349.45L359.99313 347.46564L356.1025 347.46564L356.1025 346.825L359.915 340.91876L361.07126 340.91876L361.07126 346.59064ZM357.33688 346.59064L359.99313 346.59064L359.99313 342.40314L359.8525 342.6375L357.33688 346.59064Z" fill-rule="nonzero"/><path fill="#757575" d="M471.83875 340.91876L471.83875 341.825L471.63562 341.825Q470.37 341.85626 469.62 342.59064Q468.87 343.3094 468.745 344.6219Q469.4325 343.85626 470.58875 343.85626Q471.69812 343.85626 472.37 344.6375Q473.04187 345.41876 473.04187 346.66876Q473.04187 347.98126 472.32312 348.77814Q471.60437 349.575 470.38562 349.575Q469.16687 349.575 468.40125 348.6375Q467.65125 347.6844 467.65125 346.2L467.65125 345.79376Q467.65125 343.4344 468.65125 342.1844Q469.65125 340.9344 471.63562 340.91876L471.83875 340.91876ZM470.41687 344.7625Q469.85437 344.7625 469.38562 345.09064Q468.91687 345.41876 468.72937 345.9344L468.72937 346.325Q468.72937 347.3875 469.19812 348.02814Q469.6825 348.66876 470.38562 348.66876Q471.12 348.66876 471.54187 348.1375Q471.96375 347.59064 471.96375 346.71564Q471.96375 345.84064 471.54187 345.3094Q471.12 344.7625 470.41687 344.7625Z" fill-rule="nonzero"/><path fill="#757575" d="M583.84064 343.1375Q583.84064 343.77814 583.4969 344.27814Q583.15314 344.77814 582.59064 345.0594Q583.2469 345.34064 583.6375 345.90314Q584.02814 346.45 584.02814 347.15314Q584.02814 348.2469 583.27814 348.91876Q582.54376 349.575 581.325 349.575Q580.09064 349.575 579.34064 348.91876Q578.60626 348.2469 578.60626 347.15314Q578.60626 346.45 578.98126 345.90314Q579.35626 345.34064 580.02814 345.0594Q579.46564 344.77814 579.1375 344.27814Q578.8094 343.77814 578.8094 343.1375Q578.8094 342.0594 579.4969 341.4344Q580.1844 340.79376 581.325 340.79376Q582.45 340.79376 583.1375 341.4344Q583.84064 342.0594 583.84064 343.1375ZM582.95 347.1219Q582.95 346.40314 582.4969 345.96564Q582.04376 345.5125 581.3094 345.5125Q580.575 345.5125 580.1219 345.96564Q579.6844 346.40314 579.6844 347.1375Q579.6844 347.85626 580.1219 348.27814Q580.5594 348.6844 581.325 348.6844Q582.075 348.6844 582.5125 348.2625Q582.95 347.84064 582.95 347.1219ZM581.325 341.6844Q580.6844 341.6844 580.27814 342.09064Q579.8875 342.48126 579.8875 343.16876Q579.8875 343.8094 580.27814 344.21564Q580.66876 344.6219 581.3094 344.6219Q581.96564 344.6219 582.35626 344.21564Q582.7469 343.8094 582.7469 343.16876Q582.7469 342.5125 582.34064 342.10626Q581.9344 341.6844 581.325 341.6844Z" fill-rule="nonzero"/><path fill="#ffcc00" d="M155.0 21.05C155.0 20.497715 155.44771 20.05 156.0 20.05L166.0 20.05C166.55229 20.05 167.0 20.497715 167.0 21.05L167.0 31.05C167.0 31.602285 166.55229 32.05 166.0 32.05L156.0 32.05C155.44771 32.05 155.0 31.602285 155.0 31.05Z" fill-rule="nonzero"/><path fill="#757575" d="M182.29688 29.425Q181.85938 30.05 181.07812 30.3625Q180.29688 30.675 179.26562 30.675Q178.23438 30.675 177.42188 30.190624Q176.60938 29.690624 176.17188 28.784374Q175.73438 27.878124 175.71875 26.690624L175.71875 25.95625Q175.71875 24.01875 176.60938 22.95625Q177.51562 21.89375 179.14062 21.89375Q180.48438 21.89375 181.29688 22.58125Q182.10938 23.26875 182.29688 24.51875L181.17188 24.51875Q180.84375 22.83125 179.15625 22.83125Q178.01562 22.83125 177.4375 23.628124Q176.85938 24.409374 176.84375 25.925L176.84375 26.6125Q176.84375 28.05 177.5 28.909374Q178.15625 29.753124 179.28125 29.753124Q179.90625 29.753124 180.375 29.6125Q180.85938 29.471874 181.17188 29.128124L181.17188 27.221874L179.20312 27.221874L179.20312 26.3L182.29688 26.3L182.29688 29.425ZM186.45312 30.675Q185.15625 30.675 184.34375 29.83125Q183.54688 28.971874 183.54688 27.55L183.54688 27.3625Q183.54688 26.409374 183.90625 25.675Q184.26562 24.925 184.90625 24.51875Q185.5625 24.096874 186.3125 24.096874Q187.54688 24.096874 188.23438 24.909374Q188.92188 25.721874 188.92188 27.2375L188.92188 27.690624L184.625 27.690624Q184.65625 28.628124 185.17188 29.20625Q185.70312 29.784374 186.51562 29.784374Q187.07812 29.784374 187.46875 29.55Q187.875 29.315624 188.1875 28.925L188.84375 29.440624Q188.04688 30.675 186.45312 30.675ZM186.3125 24.9875Q185.65625 24.9875 185.20312 25.471874Q184.76562 25.940624 184.67188 26.8L187.84375 26.8L187.84375 26.721874Q187.79688 25.89375 187.39062 25.440624Q187.0 24.9875 186.3125 24.9875ZM192.89062 25.175Q192.64062 25.14375 192.35938 25.14375Q191.28125 25.14375 190.90625 26.05L190.90625 30.55L189.82812 30.55L189.82812 24.20625L190.875 24.20625L190.89062 24.940624Q191.42188 24.096874 192.40625 24.096874Q192.71875 24.096874 192.89062 24.175L192.89062 25.175ZM194.84375 24.20625L194.875 24.909374Q195.5625 24.096874 196.75 24.096874Q198.07812 24.096874 198.5625 25.1125Q198.875 24.659374 199.375 24.378124Q199.89062 24.096874 200.57812 24.096874Q202.67188 24.096874 202.70312 26.3L202.70312 30.55L201.625 30.55L201.625 26.3625Q201.625 25.690624 201.3125 25.3625Q201.0 25.01875 200.26562 25.01875Q199.65625 25.01875 199.25 25.378124Q198.85938 25.7375 198.79688 26.346874L198.79688 30.55L197.71875 30.55L197.71875 26.39375Q197.71875 25.01875 196.35938 25.01875Q195.29688 25.01875 194.90625 25.925L194.90625 30.55L193.8125 30.55L193.8125 24.20625L194.84375 24.20625ZM208.73438 30.55Q208.64062 30.3625 208.57812 29.878124Q207.82812 30.675 206.78125 30.675Q205.84375 30.675 205.23438 30.14375Q204.64062 29.6125 204.64062 28.784374Q204.64062 27.8 205.39062 27.253124Q206.14062 26.70625 207.51562 26.70625L208.5625 26.70625L208.5625 26.20625Q208.5625 25.64375 208.21875 25.315624Q207.89062 24.971874 207.21875 24.971874Q206.64062 24.971874 206.25 25.26875Q205.85938 25.55 205.85938 25.971874L204.76562 25.971874Q204.76562 25.4875 205.09375 25.05Q205.4375 24.6125 206.01562 24.3625Q206.59375 24.096874 207.28125 24.096874Q208.39062 24.096874 209.0 24.64375Q209.625 25.190624 209.65625 26.14375L209.65625 29.065624Q209.65625 29.940624 209.875 30.45625L209.875 30.55L208.73438 30.55ZM206.9375 29.721874Q207.45312 29.721874 207.90625 29.45625Q208.35938 29.190624 208.5625 28.76875L208.5625 27.471874L207.71875 27.471874Q205.71875 27.471874 205.71875 28.64375Q205.71875 29.14375 206.0625 29.440624Q206.40625 29.721874 206.9375 29.721874ZM212.84375 24.20625L212.875 25.003124Q213.60938 24.096874 214.78125 24.096874Q216.79688 24.096874 216.8125 26.3625L216.8125 30.55L215.71875 30.55L215.71875 26.346874Q215.71875 25.675 215.40625 25.346874Q215.10938 25.01875 214.45312 25.01875Q213.92188 25.01875 213.51562 25.3Q213.125 25.58125 212.90625 26.034374L212.90625 30.55L211.82812 30.55L211.82812 24.20625L212.84375 24.20625ZM226.70312 28.315624L223.125 28.315624L222.32812 30.55L221.17188 30.55L224.42188 22.01875L225.40625 22.01875L228.67188 30.55L227.51562 30.55L226.70312 28.315624ZM223.46875 27.39375L226.375 27.39375L224.92188 23.409374L223.46875 27.39375ZM230.84375 24.20625L230.875 25.003124Q231.60938 24.096874 232.78125 24.096874Q234.79688 24.096874 234.8125 26.3625L234.8125 30.55L233.71875 30.55L233.71875 26.346874Q233.71875 25.675 233.40625 25.346874Q233.10938 25.01875 232.45312 25.01875Q231.92188 25.01875 231.51562 25.3Q231.125 25.58125 230.90625 26.034374L230.90625 30.55L229.82812 30.55L229.82812 24.20625L230.84375 24.20625ZM240.73438 30.55Q240.64062 30.3625 240.57812 29.878124Q239.82812 30.675 238.78125 30.675Q237.84375 30.675 237.23438 30.14375Q236.64062 29.6125 236.64062 28.784374Q236.64062 27.8 237.39062 27.253124Q238.14062 26.70625 239.51562 26.70625L240.5625 26.70625L240.5625 26.20625Q240.5625 25.64375 240.21875 25.315624Q239.89062 24.971874 239.21875 24.971874Q238.64062 24.971874 238.25 25.26875Q237.85938 25.55 237.85938 25.971874L236.76562 25.971874Q236.76562 25.4875 237.09375 25.05Q237.4375 24.6125 238.01562 24.3625Q238.59375 24.096874 239.28125 24.096874Q240.39062 24.096874 241.0 24.64375Q241.625 25.190624 241.65625 26.14375L241.65625 29.065624Q241.65625 29.940624 241.875 30.45625L241.875 30.55L240.73438 30.55ZM238.9375 29.721874Q239.45312 29.721874 239.90625 29.45625Q240.35938 29.190624 240.5625 28.76875L240.5625 27.471874L239.71875 27.471874Q237.71875 27.471874 237.71875 28.64375Q237.71875 29.14375 238.0625 29.440624Q238.40625 29.721874 238.9375 29.721874ZM245.0 30.55L243.92188 30.55L243.92188 21.55L245.0 21.55L245.0 30.55ZM248.89062 28.95625L250.375 24.20625L251.53125 24.20625L248.98438 31.534374Q248.39062 33.1125 247.10938 33.1125L246.89062 33.096874L246.5 33.01875L246.5 32.14375L246.78125 32.159374Q247.34375 32.159374 247.64062 31.940624Q247.95312 31.721874 248.15625 31.128124L248.39062 30.471874L246.125 24.20625L247.3125 24.20625L248.89062 28.95625ZM253.84375 29.659374L257.54688 29.659374L257.54688 30.55L252.51562 30.55L252.51562 29.753124L256.01562 25.1125L252.5625 25.1125L252.5625 24.20625L257.375 24.20625L257.375 24.971874L253.84375 29.659374ZM261.45312 30.675Q260.15625 30.675 259.34375 29.83125Q258.54688 28.971874 258.54688 27.55L258.54688 27.3625Q258.54688 26.409374 258.90625 25.675Q259.26562 24.925 259.90625 24.51875Q260.5625 24.096874 261.3125 24.096874Q262.54688 24.096874 263.23438 24.909374Q263.92188 25.721874 263.92188 27.2375L263.92188 27.690624L259.625 27.690624Q259.65625 28.628124 260.17188 29.20625Q260.70312 29.784374 261.51562 29.784374Q262.07812 29.784374 262.46875 29.55Q262.875 29.315624 263.1875 28.925L263.84375 29.440624Q263.04688 30.675 261.45312 30.675ZM261.3125 24.9875Q260.65625 24.9875 260.20312 25.471874Q259.76562 25.940624 259.67188 26.8L262.84375 26.8L262.84375 26.721874Q262.79688 25.89375 262.39062 25.440624Q262.0 24.9875 261.3125 24.9875ZM267.89062 25.175Q267.64062 25.14375 267.35938 25.14375Q266.28125 25.14375 265.90625 26.05L265.90625 30.55L264.82812 30.55L264.82812 24.20625L265.875 24.20625L265.89062 24.940624Q266.42188 24.096874 267.40625 24.096874Q267.71875 24.096874 267.89062 24.175L267.89062 25.175Z" fill-rule="nonzero"/><path fill="#8cab13" d="M284.0 21.05C284.0 20.497715 284.44772 20.05 285.0 20.05L295.0 20.05C295.55228 20.05 296.0 20.497715 296.0 21.05L296.0 31.05C296.0 31.602285 295.55228 32.05 295.0 32.05L285.0 32.05C284.44772 32.05 284.0 31.602285 284.0 31.05Z" fill-rule="nonzero"/><path fill="#757575" d="M304.98438 30.55L304.98438 22.01875L307.40625 22.01875Q308.51562 22.01875 309.35938 22.51875Q310.21875 23.003124 310.6875 23.909374Q311.15625 24.815624 311.15625 26.003124L311.15625 26.534374Q311.15625 27.753124 310.6875 28.659374Q310.23438 29.565624 309.35938 30.05Q308.5 30.534374 307.35938 30.55L304.98438 30.55ZM306.10938 22.940624L306.10938 29.628124L307.29688 29.628124Q308.59375 29.628124 309.3125 28.83125Q310.04688 28.01875 310.04688 26.51875L310.04688 26.01875Q310.04688 24.565624 309.35938 23.76875Q308.6875 22.95625 307.42188 22.940624L306.10938 22.940624ZM314.0 30.55L312.92188 30.55L312.92188 24.20625L314.0 24.20625L314.0 30.55ZM312.82812 22.534374Q312.82812 22.26875 312.98438 22.08125Q313.15625 21.89375 313.46875 21.89375Q313.78125 21.89375 313.9375 22.08125Q314.10938 22.26875 314.10938 22.534374Q314.10938 22.784374 313.9375 22.971874Q313.78125 23.14375 313.46875 23.14375Q313.15625 23.14375 312.98438 22.971874Q312.82812 22.784374 312.82812 22.534374ZM318.35938 29.784374Q318.9375 29.784374 319.375 29.440624Q319.8125 29.08125 319.85938 28.55L320.89062 28.55Q320.85938 29.096874 320.5 29.596874Q320.15625 30.08125 319.57812 30.378124Q319.01562 30.675 318.35938 30.675Q317.0625 30.675 316.29688 29.815624Q315.54688 28.940624 315.54688 27.440624L315.54688 27.253124Q315.54688 26.33125 315.875 25.6125Q316.21875 24.89375 316.84375 24.503124Q317.48438 24.096874 318.35938 24.096874Q319.42188 24.096874 320.125 24.7375Q320.84375 25.3625 320.89062 26.39375L319.85938 26.39375Q319.8125 25.76875 319.39062 25.378124Q318.96875 24.9875 318.35938 24.9875Q317.53125 24.9875 317.07812 25.58125Q316.625 26.175 316.625 27.3L316.625 27.503124Q316.625 28.596874 317.07812 29.190624Q317.53125 29.784374 318.35938 29.784374ZM323.29688 22.675L323.29688 24.20625L324.46875 24.20625L324.46875 25.05L323.29688 25.05L323.29688 28.971874Q323.29688 29.3625 323.45312 29.55Q323.60938 29.7375 323.98438 29.7375Q324.17188 29.7375 324.5 29.675L324.5 30.55Q324.07812 30.675 323.67188 30.675Q322.95312 30.675 322.57812 30.2375Q322.20312 29.784374 322.20312 28.971874L322.20312 25.05L321.04688 25.05L321.04688 24.20625L322.20312 24.20625L322.20312 22.675L323.29688 22.675ZM327.0 30.55L325.92188 30.55L325.92188 24.20625L327.0 24.20625L327.0 30.55ZM325.82812 22.534374Q325.82812 22.26875 325.98438 22.08125Q326.15625 21.89375 326.46875 21.89375Q326.78125 21.89375 326.9375 22.08125Q327.10938 22.26875 327.10938 22.534374Q327.10938 22.784374 326.9375 22.971874Q326.78125 23.14375 326.46875 23.14375Q326.15625 23.14375 325.98438 22.971874Q325.82812 22.784374 325.82812 22.534374ZM328.53125 27.315624Q328.53125 26.39375 328.89062 25.64375Q329.26562 24.89375 329.92188 24.503124Q330.57812 24.096874 331.40625 24.096874Q332.70312 24.096874 333.5 24.9875Q334.3125 25.878124 334.3125 27.378124L334.3125 27.45625Q334.3125 28.378124 333.95312 29.1125Q333.59375 29.846874 332.9375 30.26875Q332.28125 30.675 331.42188 30.675Q330.14062 30.675 329.32812 29.784374Q328.53125 28.878124 328.53125 27.39375L328.53125 27.315624ZM329.625 27.45625Q329.625 28.503124 330.10938 29.14375Q330.60938 29.784374 331.42188 29.784374Q332.25 29.784374 332.73438 29.14375Q333.21875 28.4875 333.21875 27.315624Q333.21875 26.284374 332.71875 25.64375Q332.23438 24.9875 331.40625 24.9875Q330.60938 24.9875 330.10938 25.628124Q329.625 26.253124 329.625 27.45625ZM336.84375 24.20625L336.875 25.003124Q337.60938 24.096874 338.78125 24.096874Q340.79688 24.096874 340.8125 26.3625L340.8125 30.55L339.71875 30.55L339.71875 26.346874Q339.71875 25.675 339.40625 25.346874Q339.10938 25.01875 338.45312 25.01875Q337.92188 25.01875 337.51562 25.3Q337.125 25.58125 336.90625 26.034374L336.90625 30.55L335.82812 30.55L335.82812 24.20625L336.84375 24.20625ZM346.73438 30.55Q346.64062 30.3625 346.57812 29.878124Q345.82812 30.675 344.78125 30.675Q343.84375 30.675 343.23438 30.14375Q342.64062 29.6125 342.64062 28.784374Q342.64062 27.8 343.39062 27.253124Q344.14062 26.70625 345.51562 26.70625L346.5625 26.70625L346.5625 26.20625Q346.5625 25.64375 346.21875 25.315624Q345.89062 24.971874 345.21875 24.971874Q344.64062 24.971874 344.25 25.26875Q343.85938 25.55 343.85938 25.971874L342.76562 25.971874Q342.76562 25.4875 343.09375 25.05Q343.4375 24.6125 344.01562 24.3625Q344.59375 24.096874 345.28125 24.096874Q346.39062 24.096874 347.0 24.64375Q347.625 25.190624 347.65625 26.14375L347.65625 29.065624Q347.65625 29.940624 347.875 30.45625L347.875 30.55L346.73438 30.55ZM344.9375 29.721874Q345.45312 29.721874 345.90625 29.45625Q346.35938 29.190624 346.5625 28.76875L346.5625 27.471874L345.71875 27.471874Q343.71875 27.471874 343.71875 28.64375Q343.71875 29.14375 344.0625 29.440624Q344.40625 29.721874 344.9375 29.721874ZM352.89062 25.175Q352.64062 25.14375 352.35938 25.14375Q351.28125 25.14375 350.90625 26.05L350.90625 30.55L349.82812 30.55L349.82812 24.20625L350.875 24.20625L350.89062 24.940624Q351.42188 24.096874 352.40625 24.096874Q352.71875 24.096874 352.89062 24.175L352.89062 25.175ZM355.89062 28.95625L357.375 24.20625L358.53125 24.20625L355.98438 31.534374Q355.39062 33.1125 354.10938 33.1125L353.89062 33.096874L353.5 33.01875L353.5 32.14375L353.78125 32.159374Q354.34375 32.159374 354.64062 31.940624Q354.95312 31.721874 355.15625 31.128124L355.39062 30.471874L353.125 24.20625L354.3125 24.20625L355.89062 28.95625ZM362.98438 30.55L362.98438 22.01875L365.40625 22.01875Q366.51562 22.01875 367.35938 22.51875Q368.21875 23.003124 368.6875 23.909374Q369.15625 24.815624 369.15625 26.003124L369.15625 26.534374Q369.15625 27.753124 368.6875 28.659374Q368.23438 29.565624 367.35938 30.05Q366.5 30.534374 365.35938 30.55L362.98438 30.55ZM364.10938 22.940624L364.10938 29.628124L365.29688 29.628124Q366.59375 29.628124 367.3125 28.83125Q368.04688 28.01875 368.04688 26.51875L368.04688 26.01875Q368.04688 24.565624 367.35938 23.76875Q366.6875 22.95625 365.42188 22.940624L364.10938 22.940624ZM373.45312 30.675Q372.15625 30.675 371.34375 29.83125Q370.54688 28.971874 370.54688 27.55L370.54688 27.3625Q370.54688 26.409374 370.90625 25.675Q371.26562 24.925 371.90625 24.51875Q372.5625 24.096874 373.3125 24.096874Q374.54688 24.096874 375.23438 24.909374Q375.92188 25.721874 375.92188 27.2375L375.92188 27.690624L371.625 27.690624Q371.65625 28.628124 372.17188 29.20625Q372.70312 29.784374 373.51562 29.784374Q374.07812 29.784374 374.46875 29.55Q374.875 29.315624 375.1875 28.925L375.84375 29.440624Q375.04688 30.675 373.45312 30.675ZM373.3125 24.9875Q372.65625 24.9875 372.20312 25.471874Q371.76562 25.940624 371.67188 26.8L374.84375 26.8L374.84375 26.721874Q374.79688 25.89375 374.39062 25.440624Q374.0 24.9875 373.3125 24.9875ZM379.35938 29.784374Q379.9375 29.784374 380.375 29.440624Q380.8125 29.08125 380.85938 28.55L381.89062 28.55Q381.85938 29.096874 381.5 29.596874Q381.15625 30.08125 380.57812 30.378124Q380.01562 30.675 379.35938 30.675Q378.0625 30.675 377.29688 29.815624Q376.54688 28.940624 376.54688 27.440624L376.54688 27.253124Q376.54688 26.33125 376.875 25.6125Q377.21875 24.89375 377.84375 24.503124Q378.48438 24.096874 379.35938 24.096874Q380.42188 24.096874 381.125 24.7375Q381.84375 25.3625 381.89062 26.39375L380.85938 26.39375Q380.8125 25.76875 380.39062 25.378124Q379.96875 24.9875 379.35938 24.9875Q378.53125 24.9875 378.07812 25.58125Q377.625 26.175 377.625 27.3L377.625 27.503124Q377.625 28.596874 378.07812 29.190624Q378.53125 29.784374 379.35938 29.784374ZM382.53125 27.315624Q382.53125 26.39375 382.89062 25.64375Q383.26562 24.89375 383.92188 24.503124Q384.57812 24.096874 385.40625 24.096874Q386.70312 24.096874 387.5 24.9875Q388.3125 25.878124 388.3125 27.378124L388.3125 27.45625Q388.3125 28.378124 387.95312 29.1125Q387.59375 29.846874 386.9375 30.26875Q386.28125 30.675 385.42188 30.675Q384.14062 30.675 383.32812 29.784374Q382.53125 28.878124 382.53125 27.39375L382.53125 27.315624ZM383.625 27.45625Q383.625 28.503124 384.10938 29.14375Q384.60938 29.784374 385.42188 29.784374Q386.25 29.784374 386.73438 29.14375Q387.21875 28.4875 387.21875 27.315624Q387.21875 26.284374 386.71875 25.64375Q386.23438 24.9875 385.40625 24.9875Q384.60938 24.9875 384.10938 25.628124Q383.625 26.253124 383.625 27.45625ZM390.84375 24.20625L390.875 24.909374Q391.5625 24.096874 392.75 24.096874Q394.07812 24.096874 394.5625 25.1125Q394.875 24.659374 395.375 24.378124Q395.89062 24.096874 396.57812 24.096874Q398.67188 24.096874 398.70312 26.3L398.70312 30.55L397.625 30.55L397.625 26.3625Q397.625 25.690624 397.3125 25.3625Q397.0 25.01875 396.26562 25.01875Q395.65625 25.01875 395.25 25.378124Q394.85938 25.7375 394.79688 26.346874L394.79688 30.55L393.71875 30.55L393.71875 26.39375Q393.71875 25.01875 392.35938 25.01875Q391.29688 25.01875 390.90625 25.925L390.90625 30.55L389.8125 30.55L389.8125 24.20625L390.84375 24.20625ZM406.17188 27.45625Q406.17188 28.89375 405.51562 29.784374Q404.85938 30.675 403.71875 30.675Q402.5625 30.675 401.90625 29.940624L401.90625 32.9875L400.82812 32.9875L400.82812 24.20625L401.8125 24.20625L401.85938 24.909374Q402.53125 24.096874 403.70312 24.096874Q404.84375 24.096874 405.5 24.95625Q406.17188 25.815624 406.17188 27.346874L406.17188 27.45625ZM405.09375 27.33125Q405.09375 26.253124 404.625 25.64375Q404.17188 25.01875 403.375 25.01875Q402.39062 25.01875 401.90625 25.878124L401.90625 28.909374Q402.39062 29.784374 403.39062 29.784374Q404.17188 29.784374 404.625 29.175Q405.09375 28.55 405.09375 27.33125ZM407.53125 27.315624Q407.53125 26.39375 407.89062 25.64375Q408.26562 24.89375 408.92188 24.503124Q409.57812 24.096874 410.40625 24.096874Q411.70312 24.096874 412.5 24.9875Q413.3125 25.878124 413.3125 27.378124L413.3125 27.45625Q413.3125 28.378124 412.95312 29.1125Q412.59375 29.846874 411.9375 30.26875Q411.28125 30.675 410.42188 30.675Q409.14062 30.675 408.32812 29.784374Q407.53125 28.878124 407.53125 27.39375L407.53125 27.315624ZM408.625 27.45625Q408.625 28.503124 409.10938 29.14375Q409.60938 29.784374 410.42188 29.784374Q411.25 29.784374 411.73438 29.14375Q412.21875 28.4875 412.21875 27.315624Q412.21875 26.284374 411.71875 25.64375Q411.23438 24.9875 410.40625 24.9875Q409.60938 24.9875 409.10938 25.628124Q408.625 26.253124 408.625 27.45625ZM418.73438 29.925Q418.10938 30.675 416.875 30.675Q415.85938 30.675 415.32812 30.08125Q414.79688 29.4875 414.79688 28.33125L414.79688 24.20625L415.875 24.20625L415.875 28.3Q415.875 29.753124 417.04688 29.753124Q418.29688 29.753124 418.70312 28.815624L418.70312 24.20625L419.79688 24.20625L419.79688 30.55L418.76562 30.55L418.73438 29.925ZM422.84375 24.20625L422.875 25.003124Q423.60938 24.096874 424.78125 24.096874Q426.79688 24.096874 426.8125 26.3625L426.8125 30.55L425.71875 30.55L425.71875 26.346874Q425.71875 25.675 425.40625 25.346874Q425.10938 25.01875 424.45312 25.01875Q423.92188 25.01875 423.51562 25.3Q423.125 25.58125 422.90625 26.034374L422.90625 30.55L421.82812 30.55L421.82812 24.20625L422.84375 24.20625ZM428.5625 27.33125Q428.5625 25.8625 429.25 24.9875Q429.9375 24.096874 431.0625 24.096874Q432.17188 24.096874 432.82812 24.846874L432.82812 21.55L433.90625 21.55L433.90625 30.55L432.90625 30.55L432.85938 29.8625Q432.20312 30.675 431.04688 30.675Q429.95312 30.675 429.25 29.76875Q428.5625 28.8625 428.5625 27.409374L428.5625 27.33125ZM429.64062 27.45625Q429.64062 28.534374 430.07812 29.14375Q430.53125 29.753124 431.3125 29.753124Q432.34375 29.753124 432.82812 28.815624L432.82812 25.909374Q432.34375 25.01875 431.32812 25.01875Q430.53125 25.01875 430.07812 25.628124Q429.64062 26.2375 429.64062 27.45625ZM438.45312 30.675Q437.15625 30.675 436.34375 29.83125Q435.54688 28.971874 435.54688 27.55L435.54688 27.3625Q435.54688 26.409374 435.90625 25.675Q436.26562 24.925 436.90625 24.51875Q437.5625 24.096874 438.3125 24.096874Q439.54688 24.096874 440.23438 24.909374Q440.92188 25.721874 440.92188 27.2375L440.92188 27.690624L436.625 27.690624Q436.65625 28.628124 437.17188 29.20625Q437.70312 29.784374 438.51562 29.784374Q439.07812 29.784374 439.46875 29.55Q439.875 29.315624 440.1875 28.925L440.84375 29.440624Q440.04688 30.675 438.45312 30.675ZM438.3125 24.9875Q437.65625 24.9875 437.20312 25.471874Q436.76562 25.940624 436.67188 26.8L439.84375 26.8L439.84375 26.721874Q439.79688 25.89375 439.39062 25.440624Q439.0 24.9875 438.3125 24.9875ZM444.89062 25.175Q444.64062 25.14375 444.35938 25.14375Q443.28125 25.14375 442.90625 26.05L442.90625 30.55L441.82812 30.55L441.82812 24.20625L442.875 24.20625L442.89062 24.940624Q443.42188 24.096874 444.40625 24.096874Q444.71875 24.096874 444.89062 24.175L444.89062 25.175Z" fill-rule="nonzero"/></svg>