<svg version="1.1" viewBox="0.0 0.0 600.0 371.0" fill="none" stroke="none" stroke-linecap="square" stroke-miterlimit="10" width="600" height="371" xmlns:xlink="http://www.w3.org/1999/xlink" xmlns="http://www.w3.org/2000/svg"><path fill="#ffffff" d="M0 0L600.0 0L600.0 371.0L0 371.0L0 0Z" fill-rule="nonzero"/><path stroke="#333333" stroke-width="1.0" stroke-linecap="butt" d="M64.5 45.5L64.5 331.5" fill-rule="nonzero"/><path stroke="#cccccc" stroke-width="1.0" stroke-linecap="butt" d="M193.5 45.5L193.5 331.5" fill-rule="nonzero"/><path stroke="#cccccc" stroke-width="1.0" stroke-linecap="butt" d="M323.5 45.5L323.5 331.5" fill-rule="nonzero"/><path stroke="#cccccc" stroke-width="1.0" stroke-linecap="butt" d="M452.5 45.5L452.5 331.5" fill-rule="nonzero"/><path stroke="#cccccc" stroke-width="1.0" stroke-linecap="butt" d="M581.5 45.5L581.5 331.5" fill-rule="nonzero"/><clipPath id="id_0"><path d="M64.55 45.916668L581.45 45.916668L581.45 331.45L64.55 331.45L64.55 45.916668Z" clip-rule="nonzero"/></clipPath><path stroke="#000000" stroke-width="2.0" stroke-linecap="butt" stroke-opacity="0.0" clip-path="url(#id_0)" d="M65.0 102.0L65.0 76.0L242.0 76.0C243.10457 76.0 244.0 76.89543 244.0 78.0L244.0 100.0C244.0 101.10457 243.10457 102.0 242.0 102.0Z" fill-rule="nonzero"/><path fill="#fad74b" clip-path="url(#id_0)" d="M65.0 102.0L65.0 76.0L242.0 76.0C243.10457 76.0 244.0 76.89543 244.0 78.0L244.0 100.0C244.0 101.10457 243.10457 102.0 242.0 102.0Z" fill-rule="nonzero"/><path stroke="#000000" stroke-width="2.0" stroke-linecap="butt" stroke-opacity="0.0" clip-path="url(#id_0)" d="M65.0 188.0L65.0 162.0L72.0 162.0C73.10457 162.0 74.0 162.89543 74.0 164.0L74.0 186.0C74.0 187.10457 73.10457 188.0 72.0 188.0Z" fill-rule="nonzero"/><path fill="#fad74b" clip-path="url(#id_0)" d="M65.0 188.0L65.0 162.0L72.0 162.0C73.10457 162.0 74.0 162.89543 74.0 164.0L74.0 186.0C74.0 187.10457 73.10457 188.0 72.0 188.0Z" fill-rule="nonzero"/><path stroke="#000000" stroke-width="2.0" stroke-linecap="butt" stroke-opacity="0.0" clip-path="url(#id_0)" d="M65.0 273.0L65.0 247.0L65.0 247.0L65.0 273.0Z" fill-rule="nonzero"/><path fill="#fad74b" clip-path="url(#id_0)" d="M65.0 273.0L65.0 247.0L65.0 247.0L65.0 273.0Z" fill-rule="nonzero"/><path stroke="#000000" stroke-width="2.0" stroke-linecap="butt" stroke-opacity="0.0" clip-path="url(#id_0)" d="M65.0 130.0L65.0 104.0L520.0 104.0C521.10455 104.0 522.0 104.89543 522.0 106.0L522.0 128.0C522.0 129.10457 521.10455 130.0 520.0 130.0Z" fill-rule="nonzero"/><path fill="#ffb900" clip-path="url(#id_0)" d="M65.0 130.0L65.0 104.0L520.0 104.0C521.10455 104.0 522.0 104.89543 522.0 106.0L522.0 128.0C522.0 129.10457 521.10455 130.0 520.0 130.0Z" fill-rule="nonzero"/><path stroke="#000000" stroke-width="2.0" stroke-linecap="butt" stroke-opacity="0.0" clip-path="url(#id_0)" d="M65.0 216.0L65.0 190.0L65.0 190.0L65.0 216.0Z" fill-rule="nonzero"/><path fill="#ffb900" clip-path="url(#id_0)" d="M65.0 216.0L65.0 190.0L65.0 190.0L65.0 216.0Z" fill-rule="nonzero"/><path stroke="#000000" stroke-width="2.0" stroke-linecap="butt" stroke-opacity="0.0" clip-path="url(#id_0)" d="M65.0 301.0L65.0 275.0L190.0 275.0C191.10457 275.0 192.0 275.89542 192.0 277.0L192.0 299.0C192.0 300.10458 191.10457 301.0 190.0 301.0Z" fill-rule="nonzero"/><path fill="#ffb900" clip-path="url(#id_0)" d="M65.0 301.0L65.0 275.0L190.0 275.0C191.10457 275.0 192.0 275.89542 192.0 277.0L192.0 299.0C192.0 300.10458 191.10457 301.0 190.0 301.0Z" fill-rule="nonzero"/><path fill="#757575" d="M24.721874 104.85575Q24.721874 106.29325 24.065624 107.183876Q23.409374 108.0745 22.26875 108.0745Q21.1125 108.0745 20.45625 107.340126L20.45625 110.387L19.378124 110.387L19.378124 101.60575L20.3625 101.60575L20.409374 102.308876Q21.08125 101.496376 22.253124 101.496376Q23.39375 101.496376 24.05 102.35575Q24.721874 103.215126 24.721874 104.746376L24.721874 104.85575ZM23.64375 104.73075Q23.64375 103.652626 23.175 103.04325Q22.721874 102.41825 21.925 102.41825Q20.940624 102.41825 20.45625 103.277626L20.45625 106.308876Q20.940624 107.183876 21.940624 107.183876Q22.721874 107.183876 23.175 106.5745Q23.64375 105.9495 23.64375 104.73075ZM30.284374 107.9495Q30.190624 107.762 30.128124 107.277626Q29.378124 108.0745 28.33125 108.0745Q27.39375 108.0745 26.784374 107.54325Q26.190624 107.012 26.190624 106.183876Q26.190624 105.1995 26.940624 104.652626Q27.690624 104.10575 29.065624 104.10575L30.1125 104.10575L30.1125 103.60575Q30.1125 103.04325 29.76875 102.715126Q29.440624 102.371376 28.76875 102.371376Q28.190624 102.371376 27.8 102.66825Q27.409374 102.9495 27.409374 103.371376L26.315624 103.371376Q26.315624 102.887 26.64375 102.4495Q26.9875 102.012 27.565624 101.762Q28.14375 101.496376 28.83125 101.496376Q29.940624 101.496376 30.55 102.04325Q31.175 102.590126 31.20625 103.54325L31.20625 106.465126Q31.20625 107.340126 31.425 107.85575L31.425 107.9495L30.284374 107.9495ZM28.4875 107.121376Q29.003124 107.121376 29.45625 106.85575Q29.909374 106.590126 30.1125 106.16825L30.1125 104.871376L29.26875 104.871376Q27.26875 104.871376 27.26875 106.04325Q27.26875 106.54325 27.6125 106.840126Q27.95625 107.121376 28.4875 107.121376ZM36.440624 102.5745Q36.190624 102.54325 35.909374 102.54325Q34.83125 102.54325 34.45625 103.4495L34.45625 107.9495L33.378124 107.9495L33.378124 101.60575L34.425 101.60575L34.440624 102.340126Q34.971874 101.496376 35.95625 101.496376Q36.26875 101.496376 36.440624 101.5745L36.440624 102.5745ZM41.284374 107.9495Q41.190624 107.762 41.128124 107.277626Q40.378124 108.0745 39.33125 108.0745Q38.39375 108.0745 37.784374 107.54325Q37.190624 107.012 37.190624 106.183876Q37.190624 105.1995 37.940624 104.652626Q38.690624 104.10575 40.065624 104.10575L41.1125 104.10575L41.1125 103.60575Q41.1125 103.04325 40.76875 102.715126Q40.440624 102.371376 39.76875 102.371376Q39.190624 102.371376 38.8 102.66825Q38.409374 102.9495 38.409374 103.371376L37.315624 103.371376Q37.315624 102.887 37.64375 102.4495Q37.9875 102.012 38.565624 101.762Q39.14375 101.496376 39.83125 101.496376Q40.940624 101.496376 41.55 102.04325Q42.175 102.590126 42.20625 103.54325L42.20625 106.465126Q42.20625 107.340126 42.425 107.85575L42.425 107.9495L41.284374 107.9495ZM39.4875 107.121376Q40.003124 107.121376 40.45625 106.85575Q40.909374 106.590126 41.1125 106.16825L41.1125 104.871376L40.26875 104.871376Q38.26875 104.871376 38.26875 106.04325Q38.26875 106.54325 38.6125 106.840126Q38.95625 107.121376 39.4875 107.121376ZM45.55 107.9495L44.471874 107.9495L44.471874 98.9495L45.55 98.9495L45.55 107.9495ZM48.55 107.9495L47.471874 107.9495L47.471874 98.9495L48.55 98.9495L48.55 107.9495ZM53.003124 108.0745Q51.70625 108.0745 50.89375 107.23075Q50.096874 106.371376 50.096874 104.9495L50.096874 104.762Q50.096874 103.808876 50.45625 103.0745Q50.815624 102.3245 51.45625 101.91825Q52.1125 101.496376 52.8625 101.496376Q54.096874 101.496376 54.784374 102.308876Q55.471874 103.121376 55.471874 104.637L55.471874 105.090126L51.175 105.090126Q51.20625 106.027626 51.721874 106.60575Q52.253124 107.183876 53.065624 107.183876Q53.628124 107.183876 54.01875 106.9495Q54.425 106.715126 54.7375 106.3245L55.39375 106.840126Q54.596874 108.0745 53.003124 108.0745ZM52.8625 102.387Q52.20625 102.387 51.753124 102.871376Q51.315624 103.340126 51.221874 104.1995L54.39375 104.1995L54.39375 104.121376Q54.346874 103.29325 53.940624 102.840126Q53.55 102.387 52.8625 102.387ZM57.55 107.9495L56.471874 107.9495L56.471874 98.9495L57.55 98.9495L57.55 107.9495Z" fill-rule="nonzero"/><path fill="#757575" d="M44.909374 193.18333L44.909374 187.68333L43.909374 187.68333L43.909374 186.83958L44.909374 186.83958L44.909374 186.19896Q44.909374 185.16771 45.440624 184.62083Q45.9875 184.05833 46.9875 184.05833Q47.3625 184.05833 47.7375 184.15208L47.675 185.04271Q47.39375 184.98021 47.096874 184.98021Q46.565624 184.98021 46.26875 185.29271Q45.9875 185.60521 45.9875 186.16771L45.9875 186.83958L47.346874 186.83958L47.346874 187.68333L45.9875 187.68333L45.9875 193.18333L44.909374 193.18333ZM52.284374 192.55833Q51.659374 193.30833 50.425 193.30833Q49.409374 193.30833 48.878124 192.71458Q48.346874 192.12083 48.346874 190.96458L48.346874 186.83958L49.425 186.83958L49.425 190.93333Q49.425 192.38646 50.596874 192.38646Q51.846874 192.38646 52.253124 191.44896L52.253124 186.83958L53.346874 186.83958L53.346874 193.18333L52.315624 193.18333L52.284374 192.55833ZM49.14375 185.15208Q49.14375 184.88646 49.3 184.71458Q49.471874 184.52708 49.784374 184.52708Q50.096874 184.52708 50.253124 184.71458Q50.425 184.88646 50.425 185.15208Q50.425 185.41771 50.253124 185.58958Q50.096874 185.76146 49.784374 185.76146Q49.471874 185.76146 49.3 185.58958Q49.14375 185.41771 49.14375 185.15208ZM51.659374 185.16771Q51.659374 184.90208 51.815624 184.71458Q51.9875 184.52708 52.3 184.52708Q52.6125 184.52708 52.76875 184.71458Q52.940624 184.90208 52.940624 185.16771Q52.940624 185.41771 52.76875 185.60521Q52.6125 185.77708 52.3 185.77708Q51.9875 185.77708 51.815624 185.60521Q51.659374 185.41771 51.659374 185.16771ZM58.440624 187.80833Q58.190624 187.77708 57.909374 187.77708Q56.83125 187.77708 56.45625 188.68333L56.45625 193.18333L55.378124 193.18333L55.378124 186.83958L56.425 186.83958L56.440624 187.57396Q56.971874 186.73021 57.95625 186.73021Q58.26875 186.73021 58.440624 186.80833L58.440624 187.80833Z" fill-rule="nonzero"/><path fill="#757575" d="M26.065624 276.72968Q26.065624 276.29218 25.721874 276.0578Q25.39375 275.8078 24.565624 275.63593Q23.753124 275.46405 23.26875 275.21405Q22.784374 274.96405 22.55 274.63593Q22.33125 274.29218 22.33125 273.82343Q22.33125 273.04218 22.9875 272.51093Q23.64375 271.96405 24.675 271.96405Q25.753124 271.96405 26.409374 272.52655Q27.08125 273.07343 27.08125 273.9328L26.003124 273.9328Q26.003124 273.4953 25.6125 273.1828Q25.2375 272.85468 24.675 272.85468Q24.08125 272.85468 23.7375 273.1203Q23.409374 273.3703 23.409374 273.77655Q23.409374 274.16718 23.721874 274.3703Q24.034374 274.57343 24.846874 274.76093Q25.659374 274.9328 26.159374 275.1828Q26.659374 275.4328 26.89375 275.79218Q27.14375 276.15155 27.14375 276.65155Q27.14375 277.51093 26.45625 278.02655Q25.784374 278.54218 24.70625 278.54218Q23.940624 278.54218 23.346874 278.27655Q22.76875 277.9953 22.440624 277.51093Q22.1125 277.02655 22.1125 276.46405L23.190624 276.46405Q23.221874 277.01093 23.628124 277.33905Q24.034374 277.65155 24.70625 277.65155Q25.315624 277.65155 25.690624 277.40155Q26.065624 277.15155 26.065624 276.72968ZM33.721874 275.32343Q33.721874 276.76093 33.065624 277.65155Q32.409374 278.54218 31.26875 278.54218Q30.1125 278.54218 29.45625 277.8078L29.45625 280.85468L28.378124 280.85468L28.378124 272.07343L29.3625 272.07343L29.409374 272.77655Q30.08125 271.96405 31.253124 271.96405Q32.39375 271.96405 33.05 272.82343Q33.721874 273.6828 33.721874 275.21405L33.721874 275.32343ZM32.64375 275.19843Q32.64375 274.1203 32.175 273.51093Q31.721874 272.88593 30.925 272.88593Q29.940624 272.88593 29.45625 273.7453L29.45625 276.77655Q29.940624 277.65155 30.940624 277.65155Q31.721874 277.65155 32.175 277.04218Q32.64375 276.41718 32.64375 275.19843ZM38.440624 273.04218Q38.190624 273.01093 37.909374 273.01093Q36.83125 273.01093 36.45625 273.91718L36.45625 278.41718L35.378124 278.41718L35.378124 272.07343L36.425 272.07343L36.440624 272.8078Q36.971874 271.96405 37.95625 271.96405Q38.26875 271.96405 38.440624 272.04218L38.440624 273.04218ZM43.284374 278.41718Q43.190624 278.22968 43.128124 277.7453Q42.378124 278.54218 41.33125 278.54218Q40.39375 278.54218 39.784374 278.01093Q39.190624 277.47968 39.190624 276.65155Q39.190624 275.66718 39.940624 275.1203Q40.690624 274.57343 42.065624 274.57343L43.1125 274.57343L43.1125 274.07343Q43.1125 273.51093 42.76875 273.1828Q42.440624 272.83905 41.76875 272.83905Q41.190624 272.83905 40.8 273.13593Q40.409374 273.41718 40.409374 273.83905L39.315624 273.83905Q39.315624 273.35468 39.64375 272.91718Q39.9875 272.47968 40.565624 272.22968Q41.14375 271.96405 41.83125 271.96405Q42.940624 271.96405 43.55 272.51093Q44.175 273.0578 44.20625 274.01093L44.20625 276.9328Q44.20625 277.8078 44.425 278.32343L44.425 278.41718L43.284374 278.41718ZM41.4875 277.58905Q42.003124 277.58905 42.45625 277.32343Q42.909374 277.0578 43.1125 276.63593L43.1125 275.33905L42.26875 275.33905Q40.26875 275.33905 40.26875 276.51093Q40.26875 277.01093 40.6125 277.3078Q40.95625 277.58905 41.4875 277.58905ZM48.909374 277.65155Q49.4875 277.65155 49.925 277.3078Q50.3625 276.94843 50.409374 276.41718L51.440624 276.41718Q51.409374 276.96405 51.05 277.46405Q50.70625 277.94843 50.128124 278.2453Q49.565624 278.54218 48.909374 278.54218Q47.6125 278.54218 46.846874 277.6828Q46.096874 276.8078 46.096874 275.3078L46.096874 275.1203Q46.096874 274.19843 46.425 273.47968Q46.76875 272.76093 47.39375 272.3703Q48.034374 271.96405 48.909374 271.96405Q49.971874 271.96405 50.675 272.60468Q51.39375 273.22968 51.440624 274.26093L50.409374 274.26093Q50.3625 273.63593 49.940624 273.2453Q49.51875 272.85468 48.909374 272.85468Q48.08125 272.85468 47.628124 273.44843Q47.175 274.04218 47.175 275.16718L47.175 275.3703Q47.175 276.46405 47.628124 277.0578Q48.08125 277.65155 48.909374 277.65155ZM53.45625 272.83905Q54.175 271.96405 55.33125 271.96405Q57.346874 271.96405 57.3625 274.22968L57.3625 278.41718L56.26875 278.41718L56.26875 274.21405Q56.26875 273.54218 55.95625 273.21405Q55.659374 272.88593 55.003124 272.88593Q54.471874 272.88593 54.065624 273.16718Q53.675 273.44843 53.45625 273.90155L53.45625 278.41718L52.378124 278.41718L52.378124 269.41718L53.45625 269.41718L53.45625 272.83905Z" fill-rule="nonzero"/><path fill="#757575" d="M67.1125 345.8094Q67.1125 347.71564 66.45625 348.65314Q65.81563 349.575 64.425 349.575Q63.065624 349.575 62.409374 348.66876Q61.753124 347.7625 61.721874 345.95L61.721874 344.5125Q61.721874 342.6219 62.3625 341.71564Q63.01875 340.79376 64.40938 340.79376Q65.78438 340.79376 66.44063 341.6844Q67.09688 342.5594 67.1125 344.40314L67.1125 345.8094ZM66.01875 344.325Q66.01875 342.95 65.62813 342.325Q65.25313 341.6844 64.40938 341.6844Q63.58125 341.6844 63.190624 342.325Q62.815624 342.95 62.815624 344.2469L62.815624 345.98126Q62.815624 347.35626 63.20625 348.02814Q63.6125 348.6844 64.425 348.6844Q65.22188 348.6844 65.6125 348.0594Q66.00313 347.4344 66.01875 346.10626L66.01875 344.325Z" fill-rule="nonzero"/><path fill="#757575" d="M191.47812 345.16876L191.91562 340.91876L196.29062 340.91876L196.29062 341.91876L192.8375 341.91876L192.57187 344.2469Q193.2125 343.8719 194.00937 343.8719Q195.16562 343.8719 195.85312 344.65314Q196.54062 345.41876 196.54062 346.73126Q196.54062 348.04376 195.82187 348.8094Q195.11874 349.575 193.8375 349.575Q192.7125 349.575 191.99374 348.95Q191.275 348.3094 191.18124 347.2L192.19687 347.2Q192.30624 347.9344 192.72812 348.3094Q193.15 348.6844 193.8375 348.6844Q194.5875 348.6844 195.025 348.16876Q195.4625 347.65314 195.4625 346.7469Q195.4625 345.8875 194.99374 345.3719Q194.525 344.85626 193.74374 344.85626Q193.04062 344.85626 192.63437 345.15314L192.35312 345.3875L191.47812 345.16876Z" fill-rule="nonzero"/><path fill="#757575" d="M320.26562 349.45L319.1875 349.45L319.1875 342.23126L317.0 343.02814L317.0 342.04376L320.10938 340.8719L320.26562 340.8719L320.26562 349.45ZM329.0625 345.8094Q329.0625 347.71564 328.40625 348.65314Q327.76562 349.575 326.375 349.575Q325.01562 349.575 324.35938 348.66876Q323.70312 347.7625 323.67188 345.95L323.67188 344.5125Q323.67188 342.6219 324.3125 341.71564Q324.96875 340.79376 326.35938 340.79376Q327.73438 340.79376 328.39062 341.6844Q329.04688 342.5594 329.0625 344.40314L329.0625 345.8094ZM327.96875 344.325Q327.96875 342.95 327.57812 342.325Q327.20312 341.6844 326.35938 341.6844Q325.53125 341.6844 325.14062 342.325Q324.76562 342.95 324.76562 344.2469L324.76562 345.98126Q324.76562 347.35626 325.15625 348.02814Q325.5625 348.6844 326.375 348.6844Q327.17188 348.6844 327.5625 348.0594Q327.95312 347.4344 327.96875 346.10626L327.96875 344.325Z" fill-rule="nonzero"/><path fill="#757575" d="M449.49063 349.45L448.4125 349.45L448.4125 342.23126L446.225 343.02814L446.225 342.04376L449.33438 340.8719L449.49063 340.8719L449.49063 349.45ZM453.42813 345.16876L453.86563 340.91876L458.24063 340.91876L458.24063 341.91876L454.7875 341.91876L454.52188 344.2469Q455.1625 343.8719 455.95938 343.8719Q457.11563 343.8719 457.80313 344.65314Q458.49063 345.41876 458.49063 346.73126Q458.49063 348.04376 457.77188 348.8094Q457.06876 349.575 455.7875 349.575Q454.6625 349.575 453.94376 348.95Q453.225 348.3094 453.13126 347.2L454.14688 347.2Q454.25626 347.9344 454.67813 348.3094Q455.1 348.6844 455.7875 348.6844Q456.5375 348.6844 456.975 348.16876Q457.4125 347.65314 457.4125 346.7469Q457.4125 345.8875 456.94376 345.3719Q456.475 344.85626 455.69376 344.85626Q454.99063 344.85626 454.58438 345.15314L454.30313 345.3875L453.42813 345.16876Z" fill-rule="nonzero"/><path fill="#757575" d="M580.7469 349.45L575.15314 349.45L575.15314 348.66876L578.10626 345.3875Q578.7625 344.6375 579.0125 344.1844Q579.2625 343.71564 579.2625 343.21564Q579.2625 342.54376 578.85626 342.1219Q578.46564 341.6844 577.77814 341.6844Q576.98126 341.6844 576.52814 342.15314Q576.075 342.60626 576.075 343.4344L574.9969 343.4344Q574.9969 342.2469 575.7469 341.52814Q576.5125 340.79376 577.77814 340.79376Q578.98126 340.79376 579.66876 341.41876Q580.35626 342.04376 580.35626 343.09064Q580.35626 344.34064 578.7469 346.09064L576.46564 348.5594L580.7469 348.5594L580.7469 349.45ZM587.5125 345.8094Q587.5125 347.71564 586.85626 348.65314Q586.21564 349.575 584.825 349.575Q583.46564 349.575 582.8094 348.66876Q582.15314 347.7625 582.1219 345.95L582.1219 344.5125Q582.1219 342.6219 582.7625 341.71564Q583.41876 340.79376 584.8094 340.79376Q586.1844 340.79376 586.84064 341.6844Q587.4969 342.5594 587.5125 344.40314L587.5125 345.8094ZM586.41876 344.325Q586.41876 342.95 586.02814 342.325Q585.65314 341.6844 584.8094 341.6844Q583.98126 341.6844 583.59064 342.325Q583.21564 342.95 583.21564 344.2469L583.21564 345.98126Q583.21564 347.35626 583.60626 348.02814Q584.0125 348.6844 584.825 348.6844Q585.6219 348.6844 586.0125 348.0594Q586.40314 347.4344 586.41876 346.10626L586.41876 344.325Z" fill-rule="nonzero"/><path fill="#fad74b" d="M175.5 21.05C175.5 20.497715 175.94771 20.05 176.5 20.05L186.5 20.05C187.05229 20.05 187.5 20.497715 187.5 21.05L187.5 31.05C187.5 31.602285 187.05229 32.05 186.5 32.05L176.5 32.05C175.94771 32.05 175.5 31.602285 175.5 31.05Z" fill-rule="nonzero"/><path fill="#757575" d="M199.0 26.753124Q197.5625 26.33125 196.89062 25.721874Q196.23438 25.1125 196.23438 24.221874Q196.23438 23.221874 197.03125 22.565624Q197.84375 21.89375 199.14062 21.89375Q200.01562 21.89375 200.70312 22.2375Q201.39062 22.58125 201.76562 23.175Q202.15625 23.76875 202.15625 24.4875L201.01562 24.4875Q201.01562 23.70625 200.51562 23.26875Q200.03125 22.83125 199.14062 22.83125Q198.3125 22.83125 197.84375 23.20625Q197.375 23.565624 197.375 24.20625Q197.375 24.7375 197.8125 25.096874Q198.26562 25.45625 199.32812 25.753124Q200.39062 26.05 200.98438 26.409374Q201.59375 26.76875 201.875 27.253124Q202.17188 27.7375 202.17188 28.378124Q202.17188 29.425 201.35938 30.05Q200.54688 30.675 199.20312 30.675Q198.3125 30.675 197.54688 30.33125Q196.79688 29.9875 196.375 29.409374Q195.96875 28.815624 195.96875 28.08125L197.09375 28.08125Q197.09375 28.846874 197.67188 29.3Q198.25 29.753124 199.20312 29.753124Q200.09375 29.753124 200.5625 29.39375Q201.03125 29.01875 201.03125 28.39375Q201.03125 27.76875 200.59375 27.425Q200.15625 27.08125 199.0 26.753124ZM204.79688 22.675L204.79688 24.20625L205.96875 24.20625L205.96875 25.05L204.79688 25.05L204.79688 28.971874Q204.79688 29.3625 204.95312 29.55Q205.10938 29.7375 205.48438 29.7375Q205.67188 29.7375 206.0 29.675L206.0 30.55Q205.57812 30.675 205.17188 30.675Q204.45312 30.675 204.07812 30.2375Q203.70312 29.784374 203.70312 28.971874L203.70312 25.05L202.54688 25.05L202.54688 24.20625L203.70312 24.20625L203.70312 22.675L204.79688 22.675ZM211.23438 30.55Q211.14062 30.3625 211.07812 29.878124Q210.32812 30.675 209.28125 30.675Q208.34375 30.675 207.73438 30.14375Q207.14062 29.6125 207.14062 28.784374Q207.14062 27.8 207.89062 27.253124Q208.64062 26.70625 210.01562 26.70625L211.0625 26.70625L211.0625 26.20625Q211.0625 25.64375 210.71875 25.315624Q210.39062 24.971874 209.71875 24.971874Q209.14062 24.971874 208.75 25.26875Q208.35938 25.55 208.35938 25.971874L207.26562 25.971874Q207.26562 25.4875 207.59375 25.05Q207.9375 24.6125 208.51562 24.3625Q209.09375 24.096874 209.78125 24.096874Q210.89062 24.096874 211.5 24.64375Q212.125 25.190624 212.15625 26.14375L212.15625 29.065624Q212.15625 29.940624 212.375 30.45625L212.375 30.55L211.23438 30.55ZM209.4375 29.721874Q209.95312 29.721874 210.40625 29.45625Q210.85938 29.190624 211.0625 28.76875L211.0625 27.471874L210.21875 27.471874Q208.21875 27.471874 208.21875 28.64375Q208.21875 29.14375 208.5625 29.440624Q208.90625 29.721874 209.4375 29.721874ZM215.34375 24.20625L215.375 25.003124Q216.10938 24.096874 217.28125 24.096874Q219.29688 24.096874 219.3125 26.3625L219.3125 30.55L218.21875 30.55L218.21875 26.346874Q218.21875 25.675 217.90625 25.346874Q217.60938 25.01875 216.95312 25.01875Q216.42188 25.01875 216.01562 25.3Q215.625 25.58125 215.40625 26.034374L215.40625 30.55L214.32812 30.55L214.32812 24.20625L215.34375 24.20625ZM221.0625 27.33125Q221.0625 25.8625 221.75 24.9875Q222.4375 24.096874 223.5625 24.096874Q224.67188 24.096874 225.32812 24.846874L225.32812 21.55L226.40625 21.55L226.40625 30.55L225.40625 30.55L225.35938 29.8625Q224.70312 30.675 223.54688 30.675Q222.45312 30.675 221.75 29.76875Q221.0625 28.8625 221.0625 27.409374L221.0625 27.33125ZM222.14062 27.45625Q222.14062 28.534374 222.57812 29.14375Q223.03125 29.753124 223.8125 29.753124Q224.84375 29.753124 225.32812 28.815624L225.32812 25.909374Q224.84375 25.01875 223.82812 25.01875Q223.03125 25.01875 222.57812 25.628124Q222.14062 26.2375 222.14062 27.45625ZM232.23438 30.55Q232.14062 30.3625 232.07812 29.878124Q231.32812 30.675 230.28125 30.675Q229.34375 30.675 228.73438 30.14375Q228.14062 29.6125 228.14062 28.784374Q228.14062 27.8 228.89062 27.253124Q229.64062 26.70625 231.01562 26.70625L232.0625 26.70625L232.0625 26.20625Q232.0625 25.64375 231.71875 25.315624Q231.39062 24.971874 230.71875 24.971874Q230.14062 24.971874 229.75 25.26875Q229.35938 25.55 229.35938 25.971874L228.26562 25.971874Q228.26562 25.4875 228.59375 25.05Q228.9375 24.6125 229.51562 24.3625Q230.09375 24.096874 230.78125 24.096874Q231.89062 24.096874 232.5 24.64375Q233.125 25.190624 233.15625 26.14375L233.15625 29.065624Q233.15625 29.940624 233.375 30.45625L233.375 30.55L232.23438 30.55ZM230.4375 29.721874Q230.95312 29.721874 231.40625 29.45625Q231.85938 29.190624 232.0625 28.76875L232.0625 27.471874L231.21875 27.471874Q229.21875 27.471874 229.21875 28.64375Q229.21875 29.14375 229.5625 29.440624Q229.90625 29.721874 230.4375 29.721874ZM238.39062 25.175Q238.14062 25.14375 237.85938 25.14375Q236.78125 25.14375 236.40625 26.05L236.40625 30.55L235.32812 30.55L235.32812 24.20625L236.375 24.20625L236.39062 24.940624Q236.92188 24.096874 237.90625 24.096874Q238.21875 24.096874 238.39062 24.175L238.39062 25.175ZM239.0625 27.33125Q239.0625 25.8625 239.75 24.9875Q240.4375 24.096874 241.5625 24.096874Q242.67188 24.096874 243.32812 24.846874L243.32812 21.55L244.40625 21.55L244.40625 30.55L243.40625 30.55L243.35938 29.8625Q242.70312 30.675 241.54688 30.675Q240.45312 30.675 239.75 29.76875Q239.0625 28.8625 239.0625 27.409374L239.0625 27.33125ZM240.14062 27.45625Q240.14062 28.534374 240.57812 29.14375Q241.03125 29.753124 241.8125 29.753124Q242.84375 29.753124 243.32812 28.815624L243.32812 25.909374Q242.84375 25.01875 241.82812 25.01875Q241.03125 25.01875 240.57812 25.628124Q240.14062 26.2375 240.14062 27.45625ZM254.20312 28.315624L250.625 28.315624L249.82812 30.55L248.67188 30.55L251.92188 22.01875L252.90625 22.01875L256.17188 30.55L255.01562 30.55L254.20312 28.315624ZM250.96875 27.39375L253.875 27.39375L252.42188 23.409374L250.96875 27.39375ZM258.34375 24.20625L258.375 25.003124Q259.10938 24.096874 260.28125 24.096874Q262.29688 24.096874 262.3125 26.3625L262.3125 30.55L261.21875 30.55L261.21875 26.346874Q261.21875 25.675 260.90625 25.346874Q260.60938 25.01875 259.95312 25.01875Q259.42188 25.01875 259.01562 25.3Q258.625 25.58125 258.40625 26.034374L258.40625 30.55L257.32812 30.55L257.32812 24.20625L258.34375 24.20625ZM268.23438 30.55Q268.14062 30.3625 268.07812 29.878124Q267.32812 30.675 266.28125 30.675Q265.34375 30.675 264.73438 30.14375Q264.14062 29.6125 264.14062 28.784374Q264.14062 27.8 264.89062 27.253124Q265.64062 26.70625 267.01562 26.70625L268.0625 26.70625L268.0625 26.20625Q268.0625 25.64375 267.71875 25.315624Q267.39062 24.971874 266.71875 24.971874Q266.14062 24.971874 265.75 25.26875Q265.35938 25.55 265.35938 25.971874L264.26562 25.971874Q264.26562 25.4875 264.59375 25.05Q264.9375 24.6125 265.51562 24.3625Q266.09375 24.096874 266.78125 24.096874Q267.89062 24.096874 268.5 24.64375Q269.125 25.190624 269.15625 26.14375L269.15625 29.065624Q269.15625 29.940624 269.375 30.45625L269.375 30.55L268.23438 30.55ZM266.4375 29.721874Q266.95312 29.721874 267.40625 29.45625Q267.85938 29.190624 268.0625 28.76875L268.0625 27.471874L267.21875 27.471874Q265.21875 27.471874 265.21875 28.64375Q265.21875 29.14375 265.5625 29.440624Q265.90625 29.721874 266.4375 29.721874ZM272.5 30.55L271.42188 30.55L271.42188 21.55L272.5 21.55L272.5 30.55ZM276.39062 28.95625L277.875 24.20625L279.03125 24.20625L276.48438 31.534374Q275.89062 33.1125 274.60938 33.1125L274.39062 33.096874L274.0 33.01875L274.0 32.14375L274.28125 32.159374Q274.84375 32.159374 275.14062 31.940624Q275.45312 31.721874 275.65625 31.128124L275.89062 30.471874L273.625 24.20625L274.8125 24.20625L276.39062 28.95625ZM281.34375 29.659374L285.04688 29.659374L285.04688 30.55L280.01562 30.55L280.01562 29.753124L283.51562 25.1125L280.0625 25.1125L280.0625 24.20625L284.875 24.20625L284.875 24.971874L281.34375 29.659374ZM288.95312 30.675Q287.65625 30.675 286.84375 29.83125Q286.04688 28.971874 286.04688 27.55L286.04688 27.3625Q286.04688 26.409374 286.40625 25.675Q286.76562 24.925 287.40625 24.51875Q288.0625 24.096874 288.8125 24.096874Q290.04688 24.096874 290.73438 24.909374Q291.42188 25.721874 291.42188 27.2375L291.42188 27.690624L287.125 27.690624Q287.15625 28.628124 287.67188 29.20625Q288.20312 29.784374 289.01562 29.784374Q289.57812 29.784374 289.96875 29.55Q290.375 29.315624 290.6875 28.925L291.34375 29.440624Q290.54688 30.675 288.95312 30.675ZM288.8125 24.9875Q288.15625 24.9875 287.70312 25.471874Q287.26562 25.940624 287.17188 26.8L290.34375 26.8L290.34375 26.721874Q290.29688 25.89375 289.89062 25.440624Q289.5 24.9875 288.8125 24.9875ZM295.39062 25.175Q295.14062 25.14375 294.85938 25.14375Q293.78125 25.14375 293.40625 26.05L293.40625 30.55L292.32812 30.55L292.32812 24.20625L293.375 24.20625L293.39062 24.940624Q293.92188 24.096874 294.90625 24.096874Q295.21875 24.096874 295.39062 24.175L295.39062 25.175Z" fill-rule="nonzero"/><path fill="#ffb900" d="M311.5 21.05C311.5 20.497715 311.94772 20.05 312.5 20.05L322.5 20.05C323.05228 20.05 323.5 20.497715 323.5 21.05L323.5 31.05C323.5 31.602285 323.05228 32.05 322.5 32.05L312.5 32.05C311.94772 32.05 311.5 31.602285 311.5 31.05Z" fill-rule="nonzero"/><path fill="#757575" d="M338.79688 29.425Q338.35938 30.05 337.57812 30.3625Q336.79688 30.675 335.76562 30.675Q334.73438 30.675 333.92188 30.190624Q333.10938 29.690624 332.67188 28.784374Q332.23438 27.878124 332.21875 26.690624L332.21875 25.95625Q332.21875 24.01875 333.10938 22.95625Q334.01562 21.89375 335.64062 21.89375Q336.98438 21.89375 337.79688 22.58125Q338.60938 23.26875 338.79688 24.51875L337.67188 24.51875Q337.34375 22.83125 335.65625 22.83125Q334.51562 22.83125 333.9375 23.628124Q333.35938 24.409374 333.34375 25.925L333.34375 26.6125Q333.34375 28.05 334.0 28.909374Q334.65625 29.753124 335.78125 29.753124Q336.40625 29.753124 336.875 29.6125Q337.35938 29.471874 337.67188 29.128124L337.67188 27.221874L335.70312 27.221874L335.70312 26.3L338.79688 26.3L338.79688 29.425ZM342.95312 30.675Q341.65625 30.675 340.84375 29.83125Q340.04688 28.971874 340.04688 27.55L340.04688 27.3625Q340.04688 26.409374 340.40625 25.675Q340.76562 24.925 341.40625 24.51875Q342.0625 24.096874 342.8125 24.096874Q344.04688 24.096874 344.73438 24.909374Q345.42188 25.721874 345.42188 27.2375L345.42188 27.690624L341.125 27.690624Q341.15625 28.628124 341.67188 29.20625Q342.20312 29.784374 343.01562 29.784374Q343.57812 29.784374 343.96875 29.55Q344.375 29.315624 344.6875 28.925L345.34375 29.440624Q344.54688 30.675 342.95312 30.675ZM342.8125 24.9875Q342.15625 24.9875 341.70312 25.471874Q341.26562 25.940624 341.17188 26.8L344.34375 26.8L344.34375 26.721874Q344.29688 25.89375 343.89062 25.440624Q343.5 24.9875 342.8125 24.9875ZM349.39062 25.175Q349.14062 25.14375 348.85938 25.14375Q347.78125 25.14375 347.40625 26.05L347.40625 30.55L346.32812 30.55L346.32812 24.20625L347.375 24.20625L347.39062 24.940624Q347.92188 24.096874 348.90625 24.096874Q349.21875 24.096874 349.39062 24.175L349.39062 25.175ZM351.34375 24.20625L351.375 24.909374Q352.0625 24.096874 353.25 24.096874Q354.57812 24.096874 355.0625 25.1125Q355.375 24.659374 355.875 24.378124Q356.39062 24.096874 357.07812 24.096874Q359.17188 24.096874 359.20312 26.3L359.20312 30.55L358.125 30.55L358.125 26.3625Q358.125 25.690624 357.8125 25.3625Q357.5 25.01875 356.76562 25.01875Q356.15625 25.01875 355.75 25.378124Q355.35938 25.7375 355.29688 26.346874L355.29688 30.55L354.21875 30.55L354.21875 26.39375Q354.21875 25.01875 352.85938 25.01875Q351.79688 25.01875 351.40625 25.925L351.40625 30.55L350.3125 30.55L350.3125 24.20625L351.34375 24.20625ZM365.23438 30.55Q365.14062 30.3625 365.07812 29.878124Q364.32812 30.675 363.28125 30.675Q362.34375 30.675 361.73438 30.14375Q361.14062 29.6125 361.14062 28.784374Q361.14062 27.8 361.89062 27.253124Q362.64062 26.70625 364.01562 26.70625L365.0625 26.70625L365.0625 26.20625Q365.0625 25.64375 364.71875 25.315624Q364.39062 24.971874 363.71875 24.971874Q363.14062 24.971874 362.75 25.26875Q362.35938 25.55 362.35938 25.971874L361.26562 25.971874Q361.26562 25.4875 361.59375 25.05Q361.9375 24.6125 362.51562 24.3625Q363.09375 24.096874 363.78125 24.096874Q364.89062 24.096874 365.5 24.64375Q366.125 25.190624 366.15625 26.14375L366.15625 29.065624Q366.15625 29.940624 366.375 30.45625L366.375 30.55L365.23438 30.55ZM363.4375 29.721874Q363.95312 29.721874 364.40625 29.45625Q364.85938 29.190624 365.0625 28.76875L365.0625 27.471874L364.21875 27.471874Q362.21875 27.471874 362.21875 28.64375Q362.21875 29.14375 362.5625 29.440624Q362.90625 29.721874 363.4375 29.721874ZM369.34375 24.20625L369.375 25.003124Q370.10938 24.096874 371.28125 24.096874Q373.29688 24.096874 373.3125 26.3625L373.3125 30.55L372.21875 30.55L372.21875 26.346874Q372.21875 25.675 371.90625 25.346874Q371.60938 25.01875 370.95312 25.01875Q370.42188 25.01875 370.01562 25.3Q369.625 25.58125 369.40625 26.034374L369.40625 30.55L368.32812 30.55L368.32812 24.20625L369.34375 24.20625ZM383.20312 28.315624L379.625 28.315624L378.82812 30.55L377.67188 30.55L380.92188 22.01875L381.90625 22.01875L385.17188 30.55L384.01562 30.55L383.20312 28.315624ZM379.96875 27.39375L382.875 27.39375L381.42188 23.409374L379.96875 27.39375ZM387.34375 24.20625L387.375 25.003124Q388.10938 24.096874 389.28125 24.096874Q391.29688 24.096874 391.3125 26.3625L391.3125 30.55L390.21875 30.55L390.21875 26.346874Q390.21875 25.675 389.90625 25.346874Q389.60938 25.01875 388.95312 25.01875Q388.42188 25.01875 388.01562 25.3Q387.625 25.58125 387.40625 26.034374L387.40625 30.55L386.32812 30.55L386.32812 24.20625L387.34375 24.20625ZM397.23438 30.55Q397.14062 30.3625 397.07812 29.878124Q396.32812 30.675 395.28125 30.675Q394.34375 30.675 393.73438 30.14375Q393.14062 29.6125 393.14062 28.784374Q393.14062 27.8 393.89062 27.253124Q394.64062 26.70625 396.01562 26.70625L397.0625 26.70625L397.0625 26.20625Q397.0625 25.64375 396.71875 25.315624Q396.39062 24.971874 395.71875 24.971874Q395.14062 24.971874 394.75 25.26875Q394.35938 25.55 394.35938 25.971874L393.26562 25.971874Q393.26562 25.4875 393.59375 25.05Q393.9375 24.6125 394.51562 24.3625Q395.09375 24.096874 395.78125 24.096874Q396.89062 24.096874 397.5 24.64375Q398.125 25.190624 398.15625 26.14375L398.15625 29.065624Q398.15625 29.940624 398.375 30.45625L398.375 30.55L397.23438 30.55ZM395.4375 29.721874Q395.95312 29.721874 396.40625 29.45625Q396.85938 29.190624 397.0625 28.76875L397.0625 27.471874L396.21875 27.471874Q394.21875 27.471874 394.21875 28.64375Q394.21875 29.14375 394.5625 29.440624Q394.90625 29.721874 395.4375 29.721874ZM401.5 30.55L400.42188 30.55L400.42188 21.55L401.5 21.55L401.5 30.55ZM405.39062 28.95625L406.875 24.20625L408.03125 24.20625L405.48438 31.534374Q404.89062 33.1125 403.60938 33.1125L403.39062 33.096874L403.0 33.01875L403.0 32.14375L403.28125 32.159374Q403.84375 32.159374 404.14062 31.940624Q404.45312 31.721874 404.65625 31.128124L404.89062 30.471874L402.625 24.20625L403.8125 24.20625L405.39062 28.95625ZM410.34375 29.659374L414.04688 29.659374L414.04688 30.55L409.01562 30.55L409.01562 29.753124L412.51562 25.1125L409.0625 25.1125L409.0625 24.20625L413.875 24.20625L413.875 24.971874L410.34375 29.659374ZM417.95312 30.675Q416.65625 30.675 415.84375 29.83125Q415.04688 28.971874 415.04688 27.55L415.04688 27.3625Q415.04688 26.409374 415.40625 25.675Q415.76562 24.925 416.40625 24.51875Q417.0625 24.096874 417.8125 24.096874Q419.04688 24.096874 419.73438 24.909374Q420.42188 25.721874 420.42188 27.2375L420.42188 27.690624L416.125 27.690624Q416.15625 28.628124 416.67188 29.20625Q417.20312 29.784374 418.01562 29.784374Q418.57812 29.784374 418.96875 29.55Q419.375 29.315624 419.6875 28.925L420.34375 29.440624Q419.54688 30.675 417.95312 30.675ZM417.8125 24.9875Q417.15625 24.9875 416.70312 25.471874Q416.26562 25.940624 416.17188 26.8L419.34375 26.8L419.34375 26.721874Q419.29688 25.89375 418.89062 25.440624Q418.5 24.9875 417.8125 24.9875ZM424.39062 25.175Q424.14062 25.14375 423.85938 25.14375Q422.78125 25.14375 422.40625 26.05L422.40625 30.55L421.32812 30.55L421.32812 24.20625L422.375 24.20625L422.39062 24.940624Q422.92188 24.096874 423.90625 24.096874Q424.21875 24.096874 424.39062 24.175L424.39062 25.175Z" fill-rule="nonzero"/></svg>