<svg version="1.1" viewBox="0.0 0.0 600.0 371.0" fill="none" stroke="none" stroke-linecap="square" stroke-miterlimit="10" width="600" height="371" xmlns:xlink="http://www.w3.org/1999/xlink" xmlns="http://www.w3.org/2000/svg"><path fill="#ffffff" d="M0 0L600.0 0L600.0 371.0L0 371.0L0 0Z" fill-rule="nonzero"/><path stroke="#333333" stroke-width="1.0" stroke-linecap="butt" d="M150.5 45.5L150.5 298.5" fill-rule="nonzero"/><path stroke="#cccccc" stroke-width="1.0" stroke-linecap="butt" d="M258.5 45.5L258.5 298.5" fill-rule="nonzero"/><path stroke="#cccccc" stroke-width="1.0" stroke-linecap="butt" d="M366.5 45.5L366.5 298.5" fill-rule="nonzero"/><path stroke="#cccccc" stroke-width="1.0" stroke-linecap="butt" d="M473.5 45.5L473.5 298.5" fill-rule="nonzero"/><path stroke="#cccccc" stroke-width="1.0" stroke-linecap="butt" d="M581.5 45.5L581.5 298.5" fill-rule="nonzero"/><clipPath id="id_0"><path d="M150.55 45.916668L581.45 45.916668L581.45 298.45L150.55 298.45L150.55 45.916668Z" clip-rule="nonzero"/></clipPath><path stroke="#000000" stroke-width="2.0" stroke-linecap="butt" stroke-opacity="0.0" clip-path="url(#id_0)" d="M151.0 84.0L151.0 67.0L512.0 67.0C513.10455 67.0 514.0 67.89543 514.0 69.0L514.0 82.0C514.0 83.10457 513.10455 84.0 512.0 84.0Z" fill-rule="nonzero"/><path fill="#ffd966" clip-path="url(#id_0)" d="M151.0 84.0L151.0 67.0L512.0 67.0C513.10455 67.0 514.0 67.89543 514.0 69.0L514.0 82.0C514.0 83.10457 513.10455 84.0 512.0 84.0Z" fill-rule="nonzero"/><path stroke="#000000" stroke-width="2.0" stroke-linecap="butt" stroke-opacity="0.0" clip-path="url(#id_0)" d="M151.0 142.0L151.0 125.0L512.0 125.0C513.10455 125.0 514.0 125.89543 514.0 127.0L514.0 140.0C514.0 141.10457 513.10455 142.0 512.0 142.0Z" fill-rule="nonzero"/><path fill="#ffd966" clip-path="url(#id_0)" d="M151.0 142.0L151.0 125.0L512.0 125.0C513.10455 125.0 514.0 125.89543 514.0 127.0L514.0 140.0C514.0 141.10457 513.10455 142.0 512.0 142.0Z" fill-rule="nonzero"/><path stroke="#000000" stroke-width="2.0" stroke-linecap="butt" stroke-opacity="0.0" clip-path="url(#id_0)" d="M151.0 200.0L151.0 183.0L151.0 183.0L151.0 200.0Z" fill-rule="nonzero"/><path fill="#ffd966" clip-path="url(#id_0)" d="M151.0 200.0L151.0 183.0L151.0 183.0L151.0 200.0Z" fill-rule="nonzero"/><path stroke="#000000" stroke-width="2.0" stroke-linecap="butt" stroke-opacity="0.0" clip-path="url(#id_0)" d="M151.0 258.0L151.0 241.0L151.0 241.0L151.0 258.0Z" fill-rule="nonzero"/><path fill="#ffd966" clip-path="url(#id_0)" d="M151.0 258.0L151.0 241.0L151.0 241.0L151.0 258.0Z" fill-rule="nonzero"/><path stroke="#000000" stroke-width="2.0" stroke-linecap="butt" stroke-opacity="0.0" clip-path="url(#id_0)" d="M151.0 103.0L151.0 86.0L151.0 86.0L151.0 103.0Z" fill-rule="nonzero"/><path fill="#ffb900" clip-path="url(#id_0)" d="M151.0 103.0L151.0 86.0L151.0 86.0L151.0 103.0Z" fill-rule="nonzero"/><path stroke="#000000" stroke-width="2.0" stroke-linecap="butt" stroke-opacity="0.0" clip-path="url(#id_0)" d="M151.0 161.0L151.0 144.0L151.0 144.0L151.0 161.0Z" fill-rule="nonzero"/><path fill="#ffb900" clip-path="url(#id_0)" d="M151.0 161.0L151.0 144.0L151.0 144.0L151.0 161.0Z" fill-rule="nonzero"/><path stroke="#000000" stroke-width="2.0" stroke-linecap="butt" stroke-opacity="0.0" clip-path="url(#id_0)" d="M151.0 219.0L151.0 202.0L190.0 202.0C191.10457 202.0 192.0 202.89543 192.0 204.0L192.0 217.0C192.0 218.10457 191.10457 219.0 190.0 219.0Z" fill-rule="nonzero"/><path fill="#ffb900" clip-path="url(#id_0)" d="M151.0 219.0L151.0 202.0L190.0 202.0C191.10457 202.0 192.0 202.89543 192.0 204.0L192.0 217.0C192.0 218.10457 191.10457 219.0 190.0 219.0Z" fill-rule="nonzero"/><path stroke="#000000" stroke-width="2.0" stroke-linecap="butt" stroke-opacity="0.0" clip-path="url(#id_0)" d="M151.0 277.0L151.0 260.0L190.0 260.0C191.10457 260.0 192.0 260.89542 192.0 262.0L192.0 275.0C192.0 276.10458 191.10457 277.0 190.0 277.0Z" fill-rule="nonzero"/><path fill="#ffb900" clip-path="url(#id_0)" d="M151.0 277.0L151.0 260.0L190.0 260.0C191.10457 260.0 192.0 260.89542 192.0 262.0L192.0 275.0C192.0 276.10458 191.10457 277.0 190.0 277.0Z" fill-rule="nonzero"/><path fill="#424242" d="M339.79688 341.575L339.79688 343.10626L340.96875 343.10626L340.96875 343.95L339.79688 343.95L339.79688 347.8719Q339.79688 348.2625 339.95312 348.45Q340.10938 348.6375 340.48438 348.6375Q340.67188 348.6375 341.0 348.575L341.0 349.45Q340.57812 349.575 340.17188 349.575Q339.45312 349.575 339.07812 349.1375Q338.70312 348.6844 338.70312 347.8719L338.70312 343.95L337.54688 343.95L337.54688 343.10626L338.70312 343.10626L338.70312 341.575L339.79688 341.575ZM344.95312 349.575Q343.65625 349.575 342.84375 348.73126Q342.04688 347.8719 342.04688 346.45L342.04688 346.2625Q342.04688 345.3094 342.40625 344.575Q342.76562 343.825 343.40625 343.41876Q344.0625 342.9969 344.8125 342.9969Q346.04688 342.9969 346.73438 343.8094Q347.42188 344.6219 347.42188 346.1375L347.42188 346.59064L343.125 346.59064Q343.15625 347.52814 343.67188 348.10626Q344.20312 348.6844 345.01562 348.6844Q345.57812 348.6844 345.96875 348.45Q346.375 348.21564 346.6875 347.825L347.34375 348.34064Q346.54688 349.575 344.95312 349.575ZM344.8125 343.8875Q344.15625 343.8875 343.70312 344.3719Q343.26562 344.84064 343.17188 345.7L346.34375 345.7L346.34375 345.6219Q346.29688 344.79376 345.89062 344.34064Q345.5 343.8875 344.8125 343.8875ZM351.39062 344.075Q351.14062 344.04376 350.85938 344.04376Q349.78125 344.04376 349.40625 344.95L349.40625 349.45L348.32812 349.45L348.32812 343.10626L349.375 343.10626L349.39062 343.84064Q349.92188 342.9969 350.90625 342.9969Q351.21875 342.9969 351.39062 343.075L351.39062 344.075ZM353.34375 343.10626L353.375 343.8094Q354.0625 342.9969 355.25 342.9969Q356.57812 342.9969 357.0625 344.0125Q357.375 343.5594 357.875 343.27814Q358.39062 342.9969 359.07812 342.9969Q361.17188 342.9969 361.20312 345.2L361.20312 349.45L360.125 349.45L360.125 345.2625Q360.125 344.59064 359.8125 344.2625Q359.5 343.91876 358.76562 343.91876Q358.15625 343.91876 357.75 344.27814Q357.35938 344.6375 357.29688 345.2469L357.29688 349.45L356.21875 349.45L356.21875 345.29376Q356.21875 343.91876 354.85938 343.91876Q353.79688 343.91876 353.40625 344.825L353.40625 349.45L352.3125 349.45L352.3125 343.10626L353.34375 343.10626ZM370.01562 347.7625Q370.01562 347.325 369.67188 347.09064Q369.34375 346.84064 368.51562 346.66876Q367.70312 346.4969 367.21875 346.2469Q366.73438 345.9969 366.5 345.66876Q366.28125 345.325 366.28125 344.85626Q366.28125 344.075 366.9375 343.54376Q367.59375 342.9969 368.625 342.9969Q369.70312 342.9969 370.35938 343.5594Q371.03125 344.10626 371.03125 344.96564L369.95312 344.96564Q369.95312 344.52814 369.5625 344.21564Q369.1875 343.8875 368.625 343.8875Q368.03125 343.8875 367.6875 344.15314Q367.35938 344.40314 367.35938 344.8094Q367.35938 345.2 367.67188 345.40314Q367.98438 345.60626 368.79688 345.79376Q369.60938 345.96564 370.10938 346.21564Q370.60938 346.46564 370.84375 346.825Q371.09375 347.1844 371.09375 347.6844Q371.09375 348.54376 370.40625 349.0594Q369.73438 349.575 368.65625 349.575Q367.89062 349.575 367.29688 349.3094Q366.71875 349.02814 366.39062 348.54376Q366.0625 348.0594 366.0625 347.4969L367.14062 347.4969Q367.17188 348.04376 367.57812 348.3719Q367.98438 348.6844 368.65625 348.6844Q369.26562 348.6844 369.64062 348.4344Q370.01562 348.1844 370.01562 347.7625ZM374.85938 348.6844Q375.4375 348.6844 375.875 348.34064Q376.3125 347.98126 376.35938 347.45L377.39062 347.45Q377.35938 347.9969 377.0 348.4969Q376.65625 348.98126 376.07812 349.27814Q375.51562 349.575 374.85938 349.575Q373.5625 349.575 372.79688 348.71564Q372.04688 347.84064 372.04688 346.34064L372.04688 346.15314Q372.04688 345.23126 372.375 344.5125Q372.71875 343.79376 373.34375 343.40314Q373.98438 342.9969 374.85938 342.9969Q375.92188 342.9969 376.625 343.6375Q377.34375 344.2625 377.39062 345.29376L376.35938 345.29376Q376.3125 344.66876 375.89062 344.27814Q375.46875 343.8875 374.85938 343.8875Q374.03125 343.8875 373.57812 344.48126Q373.125 345.075 373.125 346.2L373.125 346.40314Q373.125 347.4969 373.57812 348.09064Q374.03125 348.6844 374.85938 348.6844ZM378.03125 346.21564Q378.03125 345.29376 378.39062 344.54376Q378.76562 343.79376 379.42188 343.40314Q380.07812 342.9969 380.90625 342.9969Q382.20312 342.9969 383.0 343.8875Q383.8125 344.77814 383.8125 346.27814L383.8125 346.35626Q383.8125 347.27814 383.45312 348.0125Q383.09375 348.7469 382.4375 349.16876Q381.78125 349.575 380.92188 349.575Q379.64062 349.575 378.82812 348.6844Q378.03125 347.77814 378.03125 346.29376L378.03125 346.21564ZM379.125 346.35626Q379.125 347.40314 379.60938 348.04376Q380.10938 348.6844 380.92188 348.6844Q381.75 348.6844 382.23438 348.04376Q382.71875 347.3875 382.71875 346.21564Q382.71875 345.1844 382.21875 344.54376Q381.73438 343.8875 380.90625 343.8875Q380.10938 343.8875 379.60938 344.52814Q379.125 345.15314 379.125 346.35626ZM388.39062 344.075Q388.14062 344.04376 387.85938 344.04376Q386.78125 344.04376 386.40625 344.95L386.40625 349.45L385.32812 349.45L385.32812 343.10626L386.375 343.10626L386.39062 343.84064Q386.92188 342.9969 387.90625 342.9969Q388.21875 342.9969 388.39062 343.075L388.39062 344.075ZM391.95312 349.575Q390.65625 349.575 389.84375 348.73126Q389.04688 347.8719 389.04688 346.45L389.04688 346.2625Q389.04688 345.3094 389.40625 344.575Q389.76562 343.825 390.40625 343.41876Q391.0625 342.9969 391.8125 342.9969Q393.04688 342.9969 393.73438 343.8094Q394.42188 344.6219 394.42188 346.1375L394.42188 346.59064L390.125 346.59064Q390.15625 347.52814 390.67188 348.10626Q391.20312 348.6844 392.01562 348.6844Q392.57812 348.6844 392.96875 348.45Q393.375 348.21564 393.6875 347.825L394.34375 348.34064Q393.54688 349.575 391.95312 349.575ZM391.8125 343.8875Q391.15625 343.8875 390.70312 344.3719Q390.26562 344.84064 390.17188 345.7L393.34375 345.7L393.34375 345.6219Q393.29688 344.79376 392.89062 344.34064Q392.5 343.8875 391.8125 343.8875Z" fill-rule="nonzero"/><path fill="#424242" d="M24.206263 221.83958L24.909388 221.80833Q24.096888 221.12083 24.096888 219.93333Q24.096888 218.60521 25.112513 218.12083Q24.659388 217.80833 24.378138 217.30833Q24.096888 216.79271 24.096888 216.10521Q24.096888 214.01146 26.300013 213.98021L30.550013 213.98021L30.550013 215.05833L26.362513 215.05833Q25.690638 215.05833 25.362513 215.37083Q25.018763 215.68333 25.018763 216.41771Q25.018763 217.02708 25.378138 217.43333Q25.737513 217.82396 26.346888 217.88646L30.550013 217.88646L30.550013 218.96458L26.393763 218.96458Q25.018763 218.96458 25.018763 220.32396Q25.018763 221.38646 25.925013 221.77708L30.550013 221.77708L30.550013 222.87083L24.206263 222.87083L24.206263 221.83958ZM30.550013 207.94896Q30.362513 208.04271 29.878138 208.10521Q30.675013 208.85521 30.675013 209.90208Q30.675013 210.83958 30.143763 211.44896Q29.612513 212.04271 28.784388 212.04271Q27.800013 212.04271 27.253138 211.29271Q26.706263 210.54271 26.706263 209.16771L26.706263 208.12083L26.206263 208.12083Q25.643763 208.12083 25.315638 208.46458Q24.971888 208.79271 24.971888 209.46458Q24.971888 210.04271 25.268763 210.43333Q25.550013 210.82396 25.971888 210.82396L25.971888 211.91771Q25.487513 211.91771 25.050013 211.58958Q24.612513 211.24583 24.362513 210.66771Q24.096888 210.08958 24.096888 209.40208Q24.096888 208.29271 24.643763 207.68333Q25.190638 207.05833 26.143763 207.02708L29.065638 207.02708Q29.940638 207.02708 30.456263 206.80833L30.550013 206.80833L30.550013 207.94896ZM29.721888 209.74583Q29.721888 209.23021 29.456263 208.77708Q29.190638 208.32396 28.768763 208.12083L27.471888 208.12083L27.471888 208.96458Q27.471888 210.96458 28.643763 210.96458Q29.143763 210.96458 29.440638 210.62083Q29.721888 210.27708 29.721888 209.74583ZM22.675013 203.38646L24.206263 203.38646L24.206263 202.21458L25.050013 202.21458L25.050013 203.38646L28.971888 203.38646Q29.362513 203.38646 29.550013 203.23021Q29.737513 203.07396 29.737513 202.69896Q29.737513 202.51146 29.675013 202.18333L30.550013 202.18333Q30.675013 202.60521 30.675013 203.01146Q30.675013 203.73021 30.237513 204.10521Q29.784388 204.48021 28.971888 204.48021L25.050013 204.48021L25.050013 205.63646L24.206263 205.63646L24.206263 204.48021L22.675013 204.48021L22.675013 203.38646ZM29.784388 198.32396Q29.784388 197.74583 29.440638 197.30833Q29.081263 196.87083 28.550013 196.82396L28.550013 195.79271Q29.096888 195.82396 29.596888 196.18333Q30.081263 196.52708 30.378138 197.10521Q30.675013 197.66771 30.675013 198.32396Q30.675013 199.62083 29.815638 200.38646Q28.940638 201.13646 27.440638 201.13646L27.253138 201.13646Q26.331263 201.13646 25.612513 200.80833Q24.893763 200.46458 24.503138 199.83958Q24.096888 199.19896 24.096888 198.32396Q24.096888 197.26146 24.737513 196.55833Q25.362513 195.83958 26.393763 195.79271L26.393763 196.82396Q25.768763 196.87083 25.378138 197.29271Q24.987513 197.71458 24.987513 198.32396Q24.987513 199.15208 25.581263 199.60521Q26.175013 200.05833 27.300013 200.05833L27.503138 200.05833Q28.596888 200.05833 29.190638 199.60521Q29.784388 199.15208 29.784388 198.32396ZM24.971888 193.77708Q24.096888 193.05833 24.096888 191.90208Q24.096888 189.88646 26.362513 189.87083L30.550013 189.87083L30.550013 190.96458L26.346888 190.96458Q25.675013 190.96458 25.346888 191.27708Q25.018763 191.57396 25.018763 192.23021Q25.018763 192.76146 25.300013 193.16771Q25.581263 193.55833 26.034388 193.77708L30.550013 193.77708L30.550013 194.85521L21.550013 194.85521L21.550013 193.77708L24.971888 193.77708ZM30.675013 185.23021Q30.675013 186.52708 29.831263 187.33958Q28.971888 188.13646 27.550013 188.13646L27.362513 188.13646Q26.409388 188.13646 25.675013 187.77708Q24.925013 187.41771 24.518763 186.77708Q24.096888 186.12083 24.096888 185.37083Q24.096888 184.13646 24.909388 183.44896Q25.721888 182.76146 27.237513 182.76146L27.690638 182.76146L27.690638 187.05833Q28.628138 187.02708 29.206263 186.51146Q29.784388 185.98021 29.784388 185.16771Q29.784388 184.60521 29.550013 184.21458Q29.315638 183.80833 28.925013 183.49583L29.440638 182.83958Q30.675013 183.63646 30.675013 185.23021ZM24.987513 185.37083Q24.987513 186.02708 25.471888 186.48021Q25.940638 186.91771 26.800013 187.01146L26.800013 183.83958L26.721888 183.83958Q25.893763 183.88646 25.440638 184.29271Q24.987513 184.68333 24.987513 185.37083ZM27.331263 182.12083Q25.862513 182.12083 24.987513 181.43333Q24.096888 180.74583 24.096888 179.62083Q24.096888 178.51146 24.846888 177.85521L21.550013 177.85521L21.550013 176.77708L30.550013 176.77708L30.550013 177.77708L29.862513 177.82396Q30.675013 178.48021 30.675013 179.63646Q30.675013 180.73021 29.768763 181.43333Q28.862513 182.12083 27.409388 182.12083L27.331263 182.12083ZM27.456263 181.04271Q28.534388 181.04271 29.143763 180.60521Q29.753138 180.15208 29.753138 179.37083Q29.753138 178.33958 28.815638 177.85521L25.909388 177.85521Q25.018763 178.33958 25.018763 179.35521Q25.018763 180.15208 25.628138 180.60521Q26.237513 181.04271 27.456263 181.04271ZM22.675013 170.38646L24.206263 170.38646L24.206263 169.21458L25.050013 169.21458L25.050013 170.38646L28.971888 170.38646Q29.362513 170.38646 29.550013 170.23021Q29.737513 170.07396 29.737513 169.69896Q29.737513 169.51146 29.675013 169.18333L30.550013 169.18333Q30.675013 169.60521 30.675013 170.01146Q30.675013 170.73021 30.237513 171.10521Q29.784388 171.48021 28.971888 171.48021L25.050013 171.48021L25.050013 172.63646L24.206263 172.63646L24.206263 171.48021L22.675013 171.48021L22.675013 170.38646ZM30.675013 165.23021Q30.675013 166.52708 29.831263 167.33958Q28.971888 168.13646 27.550013 168.13646L27.362513 168.13646Q26.409388 168.13646 25.675013 167.77708Q24.925013 167.41771 24.518763 166.77708Q24.096888 166.12083 24.096888 165.37083Q24.096888 164.13646 24.909388 163.44896Q25.721888 162.76146 27.237513 162.76146L27.690638 162.76146L27.690638 167.05833Q28.628138 167.02708 29.206263 166.51146Q29.784388 165.98021 29.784388 165.16771Q29.784388 164.60521 29.550013 164.21458Q29.315638 163.80833 28.925013 163.49583L29.440638 162.83958Q30.675013 163.63646 30.675013 165.23021ZM24.987513 165.37083Q24.987513 166.02708 25.471888 166.48021Q25.940638 166.91771 26.800013 167.01146L26.800013 163.83958L26.721888 163.83958Q25.893763 163.88646 25.440638 164.29271Q24.987513 164.68333 24.987513 165.37083ZM25.175013 158.79271Q25.143763 159.04271 25.143763 159.32396Q25.143763 160.40208 26.050013 160.77708L30.550013 160.77708L30.550013 161.85521L24.206263 161.85521L24.206263 160.80833L24.940638 160.79271Q24.096888 160.26146 24.096888 159.27708Q24.096888 158.96458 24.175013 158.79271L25.175013 158.79271ZM24.206263 156.83958L24.909388 156.80833Q24.096888 156.12083 24.096888 154.93333Q24.096888 153.60521 25.112513 153.12083Q24.659388 152.80833 24.378138 152.30833Q24.096888 151.79271 24.096888 151.10521Q24.096888 149.01146 26.300013 148.98021L30.550013 148.98021L30.550013 150.05833L26.362513 150.05833Q25.690638 150.05833 25.362513 150.37083Q25.018763 150.68333 25.018763 151.41771Q25.018763 152.02708 25.378138 152.43333Q25.737513 152.82396 26.346888 152.88646L30.550013 152.88646L30.550013 153.96458L26.393763 153.96458Q25.018763 153.96458 25.018763 155.32396Q25.018763 156.38646 25.925013 156.77708L30.550013 156.77708L30.550013 157.87083L24.206263 157.87083L24.206263 156.83958ZM28.862513 143.16771Q28.425013 143.16771 28.190638 143.51146Q27.940638 143.83958 27.768763 144.66771Q27.596888 145.48021 27.346888 145.96458Q27.096888 146.44896 26.768763 146.68333Q26.425013 146.90208 25.956263 146.90208Q25.175013 146.90208 24.643763 146.24583Q24.096888 145.58958 24.096888 144.55833Q24.096888 143.48021 24.659388 142.82396Q25.206263 142.15208 26.065638 142.15208L26.065638 143.23021Q25.628138 143.23021 25.315638 143.62083Q24.987513 143.99583 24.987513 144.55833Q24.987513 145.15208 25.253138 145.49583Q25.503138 145.82396 25.909388 145.82396Q26.300013 145.82396 26.503138 145.51146Q26.706263 145.19896 26.893763 144.38646Q27.065638 143.57396 27.315638 143.07396Q27.565638 142.57396 27.925013 142.33958Q28.284388 142.08958 28.784388 142.08958Q29.643763 142.08958 30.159388 142.77708Q30.675013 143.44896 30.675013 144.52708Q30.675013 145.29271 30.409388 145.88646Q30.128138 146.46458 29.643763 146.79271Q29.159388 147.12083 28.596888 147.12083L28.596888 146.04271Q29.143763 146.01146 29.471888 145.60521Q29.784388 145.19896 29.784388 144.52708Q29.784388 143.91771 29.534388 143.54271Q29.284388 143.16771 28.862513 143.16771Z" fill-rule="nonzero"/><path fill="#757575" d="M53.846874 81.727875L53.846874 83.259125L55.01875 83.259125L55.01875 84.102875L53.846874 84.102875L53.846874 88.02475Q53.846874 88.415375 54.003124 88.602875Q54.159374 88.790375 54.534374 88.790375Q54.721874 88.790375 55.05 88.727875L55.05 89.602875Q54.628124 89.727875 54.221874 89.727875Q53.503124 89.727875 53.128124 89.290375Q52.753124 88.83725 52.753124 88.02475L52.753124 84.102875L51.596874 84.102875L51.596874 83.259125L52.753124 83.259125L52.753124 81.727875L53.846874 81.727875ZM59.003124 89.727875Q57.70625 89.727875 56.89375 88.884125Q56.096874 88.02475 56.096874 86.602875L56.096874 86.415375Q56.096874 85.46225 56.45625 84.727875Q56.815624 83.977875 57.45625 83.571625Q58.1125 83.14975 58.8625 83.14975Q60.096874 83.14975 60.784374 83.96225Q61.471874 84.77475 61.471874 86.290375L61.471874 86.7435L57.175 86.7435Q57.20625 87.681 57.721874 88.259125Q58.253124 88.83725 59.065624 88.83725Q59.628124 88.83725 60.01875 88.602875Q60.425 88.3685 60.7375 87.977875L61.39375 88.4935Q60.596874 89.727875 59.003124 89.727875ZM58.8625 84.040375Q58.20625 84.040375 57.753124 84.52475Q57.315624 84.9935 57.221874 85.852875L60.39375 85.852875L60.39375 85.77475Q60.346874 84.946625 59.940624 84.4935Q59.55 84.040375 58.8625 84.040375ZM64.50313 85.571625L65.90938 83.259125L67.175 83.259125L65.09688 86.39975L67.2375 89.602875L65.9875 89.602875L64.51875 87.227875L63.05 89.602875L61.784374 89.602875L63.925 86.39975L61.8625 83.259125L63.1125 83.259125L64.50313 85.571625ZM69.84688 81.727875L69.84688 83.259125L71.01875 83.259125L71.01875 84.102875L69.84688 84.102875L69.84688 88.02475Q69.84688 88.415375 70.00313 88.602875Q70.15938 88.790375 70.53438 88.790375Q70.72188 88.790375 71.05 88.727875L71.05 89.602875Q70.62813 89.727875 70.22188 89.727875Q69.50313 89.727875 69.12813 89.290375Q68.75313 88.83725 68.75313 88.02475L68.75313 84.102875L67.59688 84.102875L67.59688 83.259125L68.75313 83.259125L68.75313 81.727875L69.84688 81.727875ZM76.94063 90.4935L71.58125 90.4935L71.58125 89.602875L76.94063 89.602875L76.94063 90.4935ZM77.1125 86.384125Q77.1125 84.89975 77.8 84.02475Q78.4875 83.14975 79.6125 83.14975Q80.76875 83.14975 81.425 83.96225L81.47188 83.259125L82.47188 83.259125L82.47188 89.446625Q82.47188 90.681 81.7375 91.384125Q81.00313 92.102875 79.78438 92.102875Q79.09688 92.102875 78.44063 91.806Q77.78438 91.509125 77.44063 91.009125L78.00313 90.352875Q78.69063 91.21225 79.70625 91.21225Q80.4875 91.21225 80.925 90.759125Q81.37813 90.321625 81.37813 89.509125L81.37813 88.96225Q80.72188 89.727875 79.59688 89.727875Q78.4875 89.727875 77.8 88.83725Q77.1125 87.931 77.1125 86.384125ZM78.20625 86.509125Q78.20625 87.571625 78.64375 88.196625Q79.08125 88.806 79.87813 88.806Q80.89375 88.806 81.37813 87.8685L81.37813 84.977875Q80.87813 84.071625 79.87813 84.071625Q79.09688 84.071625 78.64375 84.681Q78.20625 85.290375 78.20625 86.509125ZM87.00313 89.727875Q85.70625 89.727875 84.89375 88.884125Q84.09688 88.02475 84.09688 86.602875L84.09688 86.415375Q84.09688 85.46225 84.45625 84.727875Q84.81563 83.977875 85.45625 83.571625Q86.1125 83.14975 86.8625 83.14975Q88.09688 83.14975 88.78438 83.96225Q89.47188 84.77475 89.47188 86.290375L89.47188 86.7435L85.175 86.7435Q85.20625 87.681 85.72188 88.259125Q86.25313 88.83725 87.06563 88.83725Q87.62813 88.83725 88.01875 88.602875Q88.425 88.3685 88.7375 87.977875L89.39375 88.4935Q88.59688 89.727875 87.00313 89.727875ZM86.8625 84.040375Q86.20625 84.040375 85.75313 84.52475Q85.31563 84.9935 85.22188 85.852875L88.39375 85.852875L88.39375 85.77475Q88.34688 84.946625 87.94063 84.4935Q87.55 84.040375 86.8625 84.040375ZM93.44063 84.227875Q93.19063 84.196625 92.90938 84.196625Q91.83125 84.196625 91.45625 85.102875L91.45625 89.602875L90.37813 89.602875L90.37813 83.259125L91.425 83.259125L91.44063 83.9935Q91.97188 83.14975 92.95625 83.14975Q93.26875 83.14975 93.44063 83.227875L93.44063 84.227875ZM95.39375 83.259125L95.425 83.96225Q96.1125 83.14975 97.3 83.14975Q98.62813 83.14975 99.1125 84.165375Q99.425 83.71225 99.925 83.431Q100.44063 83.14975 101.12813 83.14975Q103.22188 83.14975 103.25313 85.352875L103.25313 89.602875L102.175 89.602875L102.175 85.415375Q102.175 84.7435 101.8625 84.415375Q101.55 84.071625 100.81563 84.071625Q100.20625 84.071625 99.8 84.431Q99.40938 84.790375 99.34688 85.39975L99.34688 89.602875L98.26875 89.602875L98.26875 85.446625Q98.26875 84.071625 96.90938 84.071625Q95.84688 84.071625 95.45625 84.977875L95.45625 89.602875L94.3625 89.602875L94.3625 83.259125L95.39375 83.259125ZM109.28438 89.602875Q109.19063 89.415375 109.12813 88.931Q108.37813 89.727875 107.33125 89.727875Q106.39375 89.727875 105.78438 89.196625Q105.19063 88.665375 105.19063 87.83725Q105.19063 86.852875 105.94063 86.306Q106.69063 85.759125 108.06563 85.759125L109.1125 85.759125L109.1125 85.259125Q109.1125 84.696625 108.76875 84.3685Q108.44063 84.02475 107.76875 84.02475Q107.19063 84.02475 106.8 84.321625Q106.40938 84.602875 106.40938 85.02475L105.31563 85.02475Q105.31563 84.540375 105.64375 84.102875Q105.9875 83.665375 106.56563 83.415375Q107.14375 83.14975 107.83125 83.14975Q108.94063 83.14975 109.55 83.696625Q110.175 84.2435 110.20625 85.196625L110.20625 88.1185Q110.20625 88.9935 110.425 89.509125L110.425 89.602875L109.28438 89.602875ZM107.4875 88.77475Q108.00313 88.77475 108.45625 88.509125Q108.90938 88.2435 109.1125 87.821625L109.1125 86.52475L108.26875 86.52475Q106.26875 86.52475 106.26875 87.696625Q106.26875 88.196625 106.6125 88.4935Q106.95625 88.77475 107.4875 88.77475ZM113.39375 83.259125L113.425 84.056Q114.15938 83.14975 115.33125 83.14975Q117.34688 83.14975 117.3625 85.415375L117.3625 89.602875L116.26875 89.602875L116.26875 85.39975Q116.26875 84.727875 115.95625 84.39975Q115.65938 84.071625 115.00313 84.071625Q114.47188 84.071625 114.06563 84.352875Q113.675 84.634125 113.45625 85.08725L113.45625 89.602875L112.37813 89.602875L112.37813 83.259125L113.39375 83.259125ZM119.39375 89.040375Q119.39375 88.759125 119.55 88.571625Q119.72188 88.384125 120.05 88.384125Q120.39375 88.384125 120.56563 88.571625Q120.7375 88.759125 120.7375 89.040375Q120.7375 89.306 120.56563 89.4935Q120.39375 89.665375 120.05 89.665375Q119.72188 89.665375 119.55 89.4935Q119.39375 89.306 119.39375 89.040375ZM119.39375 84.040375Q119.39375 83.759125 119.55 83.571625Q119.72188 83.384125 120.05 83.384125Q120.39375 83.384125 120.56563 83.571625Q120.7375 83.759125 120.7375 84.040375Q120.7375 84.306 120.56563 84.4935Q120.39375 84.665375 120.05 84.665375Q119.72188 84.665375 119.55 84.4935Q119.39375 84.306 119.39375 84.040375ZM126.84688 81.727875L126.84688 83.259125L128.01875 83.259125L128.01875 84.102875L126.84688 84.102875L126.84688 88.02475Q126.84688 88.415375 127.00313 88.602875Q127.15938 88.790375 127.53438 88.790375Q127.72188 88.790375 128.05 88.727875L128.05 89.602875Q127.62813 89.727875 127.22188 89.727875Q126.50313 89.727875 126.12813 89.290375Q125.75313 88.83725 125.75313 88.02475L125.75313 84.102875L124.59688 84.102875L124.59688 83.259125L125.75313 83.259125L125.75313 81.727875L126.84688 81.727875ZM132.00313 89.727875Q130.70625 89.727875 129.89375 88.884125Q129.09688 88.02475 129.09688 86.602875L129.09688 86.415375Q129.09688 85.46225 129.45625 84.727875Q129.81563 83.977875 130.45625 83.571625Q131.1125 83.14975 131.8625 83.14975Q133.09688 83.14975 133.78438 83.96225Q134.47188 84.77475 134.47188 86.290375L134.47188 86.7435L130.175 86.7435Q130.20625 87.681 130.72188 88.259125Q131.25313 88.83725 132.06563 88.83725Q132.62813 88.83725 133.01875 88.602875Q133.425 88.3685 133.7375 87.977875L134.39375 88.4935Q133.59688 89.727875 132.00313 89.727875ZM131.8625 84.040375Q131.20625 84.040375 130.75313 84.52475Q130.31563 84.9935 130.22188 85.852875L133.39375 85.852875L133.39375 85.77475Q133.34688 84.946625 132.94063 84.4935Q132.55 84.040375 131.8625 84.040375ZM139.06563 87.915375Q139.06563 87.477875 138.72188 87.2435Q138.39375 86.9935 137.56563 86.821625Q136.75313 86.64975 136.26875 86.39975Q135.78438 86.14975 135.55 85.821625Q135.33125 85.477875 135.33125 85.009125Q135.33125 84.227875 135.9875 83.696625Q136.64375 83.14975 137.675 83.14975Q138.75313 83.14975 139.40938 83.71225Q140.08125 84.259125 140.08125 85.1185L139.00313 85.1185Q139.00313 84.681 138.6125 84.3685Q138.2375 84.040375 137.675 84.040375Q137.08125 84.040375 136.7375 84.306Q136.40938 84.556 136.40938 84.96225Q136.40938 85.352875 136.72188 85.556Q137.03438 85.759125 137.84688 85.946625Q138.65938 86.1185 139.15938 86.3685Q139.65938 86.6185 139.89375 86.977875Q140.14375 87.33725 140.14375 87.83725Q140.14375 88.696625 139.45625 89.21225Q138.78438 89.727875 137.70625 89.727875Q136.94063 89.727875 136.34688 89.46225Q135.76875 89.181 135.44063 88.696625Q135.1125 88.21225 135.1125 87.64975L136.19063 87.64975Q136.22188 88.196625 136.62813 88.52475Q137.03438 88.83725 137.70625 88.83725Q138.31563 88.83725 138.69063 88.58725Q139.06563 88.33725 139.06563 87.915375ZM142.84688 81.727875L142.84688 83.259125L144.01875 83.259125L144.01875 84.102875L142.84688 84.102875L142.84688 88.02475Q142.84688 88.415375 143.00313 88.602875Q143.15938 88.790375 143.53438 88.790375Q143.72188 88.790375 144.05 88.727875L144.05 89.602875Q143.62813 89.727875 143.22188 89.727875Q142.50313 89.727875 142.12813 89.290375Q141.75313 88.83725 141.75313 88.02475L141.75313 84.102875L140.59688 84.102875L140.59688 83.259125L141.75313 83.259125L141.75313 81.727875L142.84688 81.727875Z" fill-rule="nonzero"/><path fill="#757575" d="M53.846874 139.78151L53.846874 141.31276L55.01875 141.31276L55.01875 142.15651L53.846874 142.15651L53.846874 146.07838Q53.846874 146.46901 54.003124 146.65651Q54.159374 146.84401 54.534374 146.84401Q54.721874 146.84401 55.05 146.78151L55.05 147.65651Q54.628124 147.78151 54.221874 147.78151Q53.503124 147.78151 53.128124 147.34401Q52.753124 146.89088 52.753124 146.07838L52.753124 142.15651L51.596874 142.15651L51.596874 141.31276L52.753124 141.31276L52.753124 139.78151L53.846874 139.78151ZM57.55 147.65651L56.471874 147.65651L56.471874 141.31276L57.55 141.31276L57.55 147.65651ZM56.378124 139.64088Q56.378124 139.37526 56.534374 139.18776Q56.70625 139.00026 57.01875 139.00026Q57.33125 139.00026 57.4875 139.18776Q57.659374 139.37526 57.659374 139.64088Q57.659374 139.89088 57.4875 140.07838Q57.33125 140.25026 57.01875 140.25026Q56.70625 140.25026 56.534374 140.07838Q56.378124 139.89088 56.378124 139.64088ZM60.846874 139.78151L60.846874 141.31276L62.01875 141.31276L62.01875 142.15651L60.846874 142.15651L60.846874 146.07838Q60.846874 146.46901 61.003124 146.65651Q61.159374 146.84401 61.534374 146.84401Q61.721874 146.84401 62.05 146.78151L62.05 147.65651Q61.628124 147.78151 61.221874 147.78151Q60.503124 147.78151 60.128124 147.34401Q59.753124 146.89088 59.753124 146.07838L59.753124 142.15651L58.596874 142.15651L58.596874 141.31276L59.753124 141.31276L59.753124 139.78151L60.846874 139.78151ZM64.55 147.65651L63.471874 147.65651L63.471874 138.65651L64.55 138.65651L64.55 147.65651ZM69.00313 147.78151Q67.70625 147.78151 66.89375 146.93776Q66.09688 146.07838 66.09688 144.65651L66.09688 144.46901Q66.09688 143.51588 66.45625 142.78151Q66.81563 142.03151 67.45625 141.62526Q68.1125 141.20338 68.8625 141.20338Q70.09688 141.20338 70.78438 142.01588Q71.47188 142.82838 71.47188 144.34401L71.47188 144.79713L67.175 144.79713Q67.20625 145.73463 67.72188 146.31276Q68.25313 146.89088 69.06563 146.89088Q69.62813 146.89088 70.01875 146.65651Q70.425 146.42213 70.7375 146.03151L71.39375 146.54713Q70.59688 147.78151 69.00313 147.78151ZM68.8625 142.09401Q68.20625 142.09401 67.75313 142.57838Q67.31563 143.04713 67.22188 143.90651L70.39375 143.90651L70.39375 143.82838Q70.34688 143.00026 69.94063 142.54713Q69.55 142.09401 68.8625 142.09401ZM76.94063 148.54713L71.58125 148.54713L71.58125 147.65651L76.94063 147.65651L76.94063 148.54713ZM77.1125 144.43776Q77.1125 142.95338 77.8 142.07838Q78.4875 141.20338 79.6125 141.20338Q80.76875 141.20338 81.425 142.01588L81.47188 141.31276L82.47188 141.31276L82.47188 147.50026Q82.47188 148.73463 81.7375 149.43776Q81.00313 150.15651 79.78438 150.15651Q79.09688 150.15651 78.44063 149.85963Q77.78438 149.56276 77.44063 149.06276L78.00313 148.40651Q78.69063 149.26588 79.70625 149.26588Q80.4875 149.26588 80.925 148.81276Q81.37813 148.37526 81.37813 147.56276L81.37813 147.01588Q80.72188 147.78151 79.59688 147.78151Q78.4875 147.78151 77.8 146.89088Q77.1125 145.98463 77.1125 144.43776ZM78.20625 144.56276Q78.20625 145.62526 78.64375 146.25026Q79.08125 146.85963 79.87813 146.85963Q80.89375 146.85963 81.37813 145.92213L81.37813 143.03151Q80.87813 142.12526 79.87813 142.12526Q79.09688 142.12526 78.64375 142.73463Q78.20625 143.34401 78.20625 144.56276ZM87.00313 147.78151Q85.70625 147.78151 84.89375 146.93776Q84.09688 146.07838 84.09688 144.65651L84.09688 144.46901Q84.09688 143.51588 84.45625 142.78151Q84.81563 142.03151 85.45625 141.62526Q86.1125 141.20338 86.8625 141.20338Q88.09688 141.20338 88.78438 142.01588Q89.47188 142.82838 89.47188 144.34401L89.47188 144.79713L85.175 144.79713Q85.20625 145.73463 85.72188 146.31276Q86.25313 146.89088 87.06563 146.89088Q87.62813 146.89088 88.01875 146.65651Q88.425 146.42213 88.7375 146.03151L89.39375 146.54713Q88.59688 147.78151 87.00313 147.78151ZM86.8625 142.09401Q86.20625 142.09401 85.75313 142.57838Q85.31563 143.04713 85.22188 143.90651L88.39375 143.90651L88.39375 143.82838Q88.34688 143.00026 87.94063 142.54713Q87.55 142.09401 86.8625 142.09401ZM93.44063 142.28151Q93.19063 142.25026 92.90938 142.25026Q91.83125 142.25026 91.45625 143.15651L91.45625 147.65651L90.37813 147.65651L90.37813 141.31276L91.425 141.31276L91.44063 142.04713Q91.97188 141.20338 92.95625 141.20338Q93.26875 141.20338 93.44063 141.28151L93.44063 142.28151ZM95.39375 141.31276L95.425 142.01588Q96.1125 141.20338 97.3 141.20338Q98.62813 141.20338 99.1125 142.21901Q99.425 141.76588 99.925 141.48463Q100.44063 141.20338 101.12813 141.20338Q103.22188 141.20338 103.25313 143.40651L103.25313 147.65651L102.175 147.65651L102.175 143.46901Q102.175 142.79713 101.8625 142.46901Q101.55 142.12526 100.81563 142.12526Q100.20625 142.12526 99.8 142.48463Q99.40938 142.84401 99.34688 143.45338L99.34688 147.65651L98.26875 147.65651L98.26875 143.50026Q98.26875 142.12526 96.90938 142.12526Q95.84688 142.12526 95.45625 143.03151L95.45625 147.65651L94.3625 147.65651L94.3625 141.31276L95.39375 141.31276ZM109.28438 147.65651Q109.19063 147.46901 109.12813 146.98463Q108.37813 147.78151 107.33125 147.78151Q106.39375 147.78151 105.78438 147.25026Q105.19063 146.71901 105.19063 145.89088Q105.19063 144.90651 105.94063 144.35963Q106.69063 143.81276 108.06563 143.81276L109.1125 143.81276L109.1125 143.31276Q109.1125 142.75026 108.76875 142.42213Q108.44063 142.07838 107.76875 142.07838Q107.19063 142.07838 106.8 142.37526Q106.40938 142.65651 106.40938 143.07838L105.31563 143.07838Q105.31563 142.59401 105.64375 142.15651Q105.9875 141.71901 106.56563 141.46901Q107.14375 141.20338 107.83125 141.20338Q108.94063 141.20338 109.55 141.75026Q110.175 142.29713 110.20625 143.25026L110.20625 146.17213Q110.20625 147.04713 110.425 147.56276L110.425 147.65651L109.28438 147.65651ZM107.4875 146.82838Q108.00313 146.82838 108.45625 146.56276Q108.90938 146.29713 109.1125 145.87526L109.1125 144.57838L108.26875 144.57838Q106.26875 144.57838 106.26875 145.75026Q106.26875 146.25026 106.6125 146.54713Q106.95625 146.82838 107.4875 146.82838ZM113.39375 141.31276L113.425 142.10963Q114.15938 141.20338 115.33125 141.20338Q117.34688 141.20338 117.3625 143.46901L117.3625 147.65651L116.26875 147.65651L116.26875 143.45338Q116.26875 142.78151 115.95625 142.45338Q115.65938 142.12526 115.00313 142.12526Q114.47188 142.12526 114.06563 142.40651Q113.675 142.68776 113.45625 143.14088L113.45625 147.65651L112.37813 147.65651L112.37813 141.31276L113.39375 141.31276ZM119.39375 147.09401Q119.39375 146.81276 119.55 146.62526Q119.72188 146.43776 120.05 146.43776Q120.39375 146.43776 120.56563 146.62526Q120.7375 146.81276 120.7375 147.09401Q120.7375 147.35963 120.56563 147.54713Q120.39375 147.71901 120.05 147.71901Q119.72188 147.71901 119.55 147.54713Q119.39375 147.35963 119.39375 147.09401ZM119.39375 142.09401Q119.39375 141.81276 119.55 141.62526Q119.72188 141.43776 120.05 141.43776Q120.39375 141.43776 120.56563 141.62526Q120.7375 141.81276 120.7375 142.09401Q120.7375 142.35963 120.56563 142.54713Q120.39375 142.71901 120.05 142.71901Q119.72188 142.71901 119.55 142.54713Q119.39375 142.35963 119.39375 142.09401ZM126.84688 139.78151L126.84688 141.31276L128.01875 141.31276L128.01875 142.15651L126.84688 142.15651L126.84688 146.07838Q126.84688 146.46901 127.00313 146.65651Q127.15938 146.84401 127.53438 146.84401Q127.72188 146.84401 128.05 146.78151L128.05 147.65651Q127.62813 147.78151 127.22188 147.78151Q126.50313 147.78151 126.12813 147.34401Q125.75313 146.89088 125.75313 146.07838L125.75313 142.15651L124.59688 142.15651L124.59688 141.31276L125.75313 141.31276L125.75313 139.78151L126.84688 139.78151ZM132.00313 147.78151Q130.70625 147.78151 129.89375 146.93776Q129.09688 146.07838 129.09688 144.65651L129.09688 144.46901Q129.09688 143.51588 129.45625 142.78151Q129.81563 142.03151 130.45625 141.62526Q131.1125 141.20338 131.8625 141.20338Q133.09688 141.20338 133.78438 142.01588Q134.47188 142.82838 134.47188 144.34401L134.47188 144.79713L130.175 144.79713Q130.20625 145.73463 130.72188 146.31276Q131.25313 146.89088 132.06563 146.89088Q132.62813 146.89088 133.01875 146.65651Q133.425 146.42213 133.7375 146.03151L134.39375 146.54713Q133.59688 147.78151 132.00313 147.78151ZM131.8625 142.09401Q131.20625 142.09401 130.75313 142.57838Q130.31563 143.04713 130.22188 143.90651L133.39375 143.90651L133.39375 143.82838Q133.34688 143.00026 132.94063 142.54713Q132.55 142.09401 131.8625 142.09401ZM139.06563 145.96901Q139.06563 145.53151 138.72188 145.29713Q138.39375 145.04713 137.56563 144.87526Q136.75313 144.70338 136.26875 144.45338Q135.78438 144.20338 135.55 143.87526Q135.33125 143.53151 135.33125 143.06276Q135.33125 142.28151 135.9875 141.75026Q136.64375 141.20338 137.675 141.20338Q138.75313 141.20338 139.40938 141.76588Q140.08125 142.31276 140.08125 143.17213L139.00313 143.17213Q139.00313 142.73463 138.6125 142.42213Q138.2375 142.09401 137.675 142.09401Q137.08125 142.09401 136.7375 142.35963Q136.40938 142.60963 136.40938 143.01588Q136.40938 143.40651 136.72188 143.60963Q137.03438 143.81276 137.84688 144.00026Q138.65938 144.17213 139.15938 144.42213Q139.65938 144.67213 139.89375 145.03151Q140.14375 145.39088 140.14375 145.89088Q140.14375 146.75026 139.45625 147.26588Q138.78438 147.78151 137.70625 147.78151Q136.94063 147.78151 136.34688 147.51588Q135.76875 147.23463 135.44063 146.75026Q135.1125 146.26588 135.1125 145.70338L136.19063 145.70338Q136.22188 146.25026 136.62813 146.57838Q137.03438 146.89088 137.70625 146.89088Q138.31563 146.89088 138.69063 146.64088Q139.06563 146.39088 139.06563 145.96901ZM142.84688 139.78151L142.84688 141.31276L144.01875 141.31276L144.01875 142.15651L142.84688 142.15651L142.84688 146.07838Q142.84688 146.46901 143.00313 146.65651Q143.15938 146.84401 143.53438 146.84401Q143.72188 146.84401 144.05 146.78151L144.05 147.65651Q143.62813 147.78151 143.22188 147.78151Q142.50313 147.78151 142.12813 147.34401Q141.75313 146.89088 141.75313 146.07838L141.75313 142.15651L140.59688 142.15651L140.59688 141.31276L141.75313 141.31276L141.75313 139.78151L142.84688 139.78151Z" fill-rule="nonzero"/><path fill="#757575" d="M53.846874 197.83516L53.846874 199.36641L55.01875 199.36641L55.01875 200.21016L53.846874 200.21016L53.846874 204.13203Q53.846874 204.52266 54.003124 204.71016Q54.159374 204.89766 54.534374 204.89766Q54.721874 204.89766 55.05 204.83516L55.05 205.71016Q54.628124 205.83516 54.221874 205.83516Q53.503124 205.83516 53.128124 205.39766Q52.753124 204.94453 52.753124 204.13203L52.753124 200.21016L51.596874 200.21016L51.596874 199.36641L52.753124 199.36641L52.753124 197.83516L53.846874 197.83516ZM57.55 205.71016L56.471874 205.71016L56.471874 199.36641L57.55 199.36641L57.55 205.71016ZM56.378124 197.69453Q56.378124 197.42891 56.534374 197.24141Q56.70625 197.05391 57.01875 197.05391Q57.33125 197.05391 57.4875 197.24141Q57.659374 197.42891 57.659374 197.69453Q57.659374 197.94453 57.4875 198.13203Q57.33125 198.30391 57.01875 198.30391Q56.70625 198.30391 56.534374 198.13203Q56.378124 197.94453 56.378124 197.69453ZM60.846874 197.83516L60.846874 199.36641L62.01875 199.36641L62.01875 200.21016L60.846874 200.21016L60.846874 204.13203Q60.846874 204.52266 61.003124 204.71016Q61.159374 204.89766 61.534374 204.89766Q61.721874 204.89766 62.05 204.83516L62.05 205.71016Q61.628124 205.83516 61.221874 205.83516Q60.503124 205.83516 60.128124 205.39766Q59.753124 204.94453 59.753124 204.13203L59.753124 200.21016L58.596874 200.21016L58.596874 199.36641L59.753124 199.36641L59.753124 197.83516L60.846874 197.83516ZM64.55 205.71016L63.471874 205.71016L63.471874 196.71016L64.55 196.71016L64.55 205.71016ZM69.00313 205.83516Q67.70625 205.83516 66.89375 204.99141Q66.09688 204.13203 66.09688 202.71016L66.09688 202.52266Q66.09688 201.56953 66.45625 200.83516Q66.81563 200.08516 67.45625 199.67891Q68.1125 199.25703 68.8625 199.25703Q70.09688 199.25703 70.78438 200.06953Q71.47188 200.88203 71.47188 202.39766L71.47188 202.85078L67.175 202.85078Q67.20625 203.78828 67.72188 204.36641Q68.25313 204.94453 69.06563 204.94453Q69.62813 204.94453 70.01875 204.71016Q70.425 204.47578 70.7375 204.08516L71.39375 204.60078Q70.59688 205.83516 69.00313 205.83516ZM68.8625 200.14766Q68.20625 200.14766 67.75313 200.63203Q67.31563 201.10078 67.22188 201.96016L70.39375 201.96016L70.39375 201.88203Q70.34688 201.05391 69.94063 200.60078Q69.55 200.14766 68.8625 200.14766ZM76.94063 206.60078L71.58125 206.60078L71.58125 205.71016L76.94063 205.71016L76.94063 206.60078ZM77.1125 202.49141Q77.1125 201.00703 77.8 200.13203Q78.4875 199.25703 79.6125 199.25703Q80.76875 199.25703 81.425 200.06953L81.47188 199.36641L82.47188 199.36641L82.47188 205.55391Q82.47188 206.78828 81.7375 207.49141Q81.00313 208.21016 79.78438 208.21016Q79.09688 208.21016 78.44063 207.91328Q77.78438 207.61641 77.44063 207.11641L78.00313 206.46016Q78.69063 207.31953 79.70625 207.31953Q80.4875 207.31953 80.925 206.86641Q81.37813 206.42891 81.37813 205.61641L81.37813 205.06953Q80.72188 205.83516 79.59688 205.83516Q78.4875 205.83516 77.8 204.94453Q77.1125 204.03828 77.1125 202.49141ZM78.20625 202.61641Q78.20625 203.67891 78.64375 204.30391Q79.08125 204.91328 79.87813 204.91328Q80.89375 204.91328 81.37813 203.97578L81.37813 201.08516Q80.87813 200.17891 79.87813 200.17891Q79.09688 200.17891 78.64375 200.78828Q78.20625 201.39766 78.20625 202.61641ZM87.00313 205.83516Q85.70625 205.83516 84.89375 204.99141Q84.09688 204.13203 84.09688 202.71016L84.09688 202.52266Q84.09688 201.56953 84.45625 200.83516Q84.81563 200.08516 85.45625 199.67891Q86.1125 199.25703 86.8625 199.25703Q88.09688 199.25703 88.78438 200.06953Q89.47188 200.88203 89.47188 202.39766L89.47188 202.85078L85.175 202.85078Q85.20625 203.78828 85.72188 204.36641Q86.25313 204.94453 87.06563 204.94453Q87.62813 204.94453 88.01875 204.71016Q88.425 204.47578 88.7375 204.08516L89.39375 204.60078Q88.59688 205.83516 87.00313 205.83516ZM86.8625 200.14766Q86.20625 200.14766 85.75313 200.63203Q85.31563 201.10078 85.22188 201.96016L88.39375 201.96016L88.39375 201.88203Q88.34688 201.05391 87.94063 200.60078Q87.55 200.14766 86.8625 200.14766ZM93.44063 200.33516Q93.19063 200.30391 92.90938 200.30391Q91.83125 200.30391 91.45625 201.21016L91.45625 205.71016L90.37813 205.71016L90.37813 199.36641L91.425 199.36641L91.44063 200.10078Q91.97188 199.25703 92.95625 199.25703Q93.26875 199.25703 93.44063 199.33516L93.44063 200.33516ZM95.39375 199.36641L95.425 200.06953Q96.1125 199.25703 97.3 199.25703Q98.62813 199.25703 99.1125 200.27266Q99.425 199.81953 99.925 199.53828Q100.44063 199.25703 101.12813 199.25703Q103.22188 199.25703 103.25313 201.46016L103.25313 205.71016L102.175 205.71016L102.175 201.52266Q102.175 200.85078 101.8625 200.52266Q101.55 200.17891 100.81563 200.17891Q100.20625 200.17891 99.8 200.53828Q99.40938 200.89766 99.34688 201.50703L99.34688 205.71016L98.26875 205.71016L98.26875 201.55391Q98.26875 200.17891 96.90938 200.17891Q95.84688 200.17891 95.45625 201.08516L95.45625 205.71016L94.3625 205.71016L94.3625 199.36641L95.39375 199.36641ZM109.28438 205.71016Q109.19063 205.52266 109.12813 205.03828Q108.37813 205.83516 107.33125 205.83516Q106.39375 205.83516 105.78438 205.30391Q105.19063 204.77266 105.19063 203.94453Q105.19063 202.96016 105.94063 202.41328Q106.69063 201.86641 108.06563 201.86641L109.1125 201.86641L109.1125 201.36641Q109.1125 200.80391 108.76875 200.47578Q108.44063 200.13203 107.76875 200.13203Q107.19063 200.13203 106.8 200.42891Q106.40938 200.71016 106.40938 201.13203L105.31563 201.13203Q105.31563 200.64766 105.64375 200.21016Q105.9875 199.77266 106.56563 199.52266Q107.14375 199.25703 107.83125 199.25703Q108.94063 199.25703 109.55 199.80391Q110.175 200.35078 110.20625 201.30391L110.20625 204.22578Q110.20625 205.10078 110.425 205.61641L110.425 205.71016L109.28438 205.71016ZM107.4875 204.88203Q108.00313 204.88203 108.45625 204.61641Q108.90938 204.35078 109.1125 203.92891L109.1125 202.63203L108.26875 202.63203Q106.26875 202.63203 106.26875 203.80391Q106.26875 204.30391 106.6125 204.60078Q106.95625 204.88203 107.4875 204.88203ZM113.39375 199.36641L113.425 200.16328Q114.15938 199.25703 115.33125 199.25703Q117.34688 199.25703 117.3625 201.52266L117.3625 205.71016L116.26875 205.71016L116.26875 201.50703Q116.26875 200.83516 115.95625 200.50703Q115.65938 200.17891 115.00313 200.17891Q114.47188 200.17891 114.06563 200.46016Q113.675 200.74141 113.45625 201.19453L113.45625 205.71016L112.37813 205.71016L112.37813 199.36641L113.39375 199.36641ZM119.39375 205.14766Q119.39375 204.86641 119.55 204.67891Q119.72188 204.49141 120.05 204.49141Q120.39375 204.49141 120.56563 204.67891Q120.7375 204.86641 120.7375 205.14766Q120.7375 205.41328 120.56563 205.60078Q120.39375 205.77266 120.05 205.77266Q119.72188 205.77266 119.55 205.60078Q119.39375 205.41328 119.39375 205.14766ZM119.39375 200.14766Q119.39375 199.86641 119.55 199.67891Q119.72188 199.49141 120.05 199.49141Q120.39375 199.49141 120.56563 199.67891Q120.7375 199.86641 120.7375 200.14766Q120.7375 200.41328 120.56563 200.60078Q120.39375 200.77266 120.05 200.77266Q119.72188 200.77266 119.55 200.60078Q119.39375 200.41328 119.39375 200.14766ZM127.45625 204.24141L129.03438 199.36641L130.14375 199.36641L127.8625 205.71016L127.03438 205.71016L124.7375 199.36641L125.84688 199.36641L127.45625 204.24141ZM131.08125 202.47578Q131.08125 201.55391 131.44063 200.80391Q131.81563 200.05391 132.47188 199.66328Q133.12813 199.25703 133.95625 199.25703Q135.25313 199.25703 136.05 200.14766Q136.8625 201.03828 136.8625 202.53828L136.8625 202.61641Q136.8625 203.53828 136.50313 204.27266Q136.14375 205.00703 135.4875 205.42891Q134.83125 205.83516 133.97188 205.83516Q132.69063 205.83516 131.87813 204.94453Q131.08125 204.03828 131.08125 202.55391L131.08125 202.47578ZM132.175 202.61641Q132.175 203.66328 132.65938 204.30391Q133.15938 204.94453 133.97188 204.94453Q134.8 204.94453 135.28438 204.30391Q135.76875 203.64766 135.76875 202.47578Q135.76875 201.44453 135.26875 200.80391Q134.78438 200.14766 133.95625 200.14766Q133.15938 200.14766 132.65938 200.78828Q132.175 201.41328 132.175 202.61641ZM139.39375 199.36641L139.425 200.16328Q140.15938 199.25703 141.33125 199.25703Q143.34688 199.25703 143.3625 201.52266L143.3625 205.71016L142.26875 205.71016L142.26875 201.50703Q142.26875 200.83516 141.95625 200.50703Q141.65938 200.17891 141.00313 200.17891Q140.47188 200.17891 140.06563 200.46016Q139.675 200.74141 139.45625 201.19453L139.45625 205.71016L138.37813 205.71016L138.37813 199.36641L139.39375 199.36641Z" fill-rule="nonzero"/><path fill="#757575" d="M53.846874 255.8888L53.846874 257.42004L55.01875 257.42004L55.01875 258.2638L53.846874 258.2638L53.846874 262.18567Q53.846874 262.5763 54.003124 262.7638Q54.159374 262.9513 54.534374 262.9513Q54.721874 262.9513 55.05 262.8888L55.05 263.7638Q54.628124 263.8888 54.221874 263.8888Q53.503124 263.8888 53.128124 263.4513Q52.753124 262.99817 52.753124 262.18567L52.753124 258.2638L51.596874 258.2638L51.596874 257.42004L52.753124 257.42004L52.753124 255.8888L53.846874 255.8888ZM59.003124 263.8888Q57.70625 263.8888 56.89375 263.04504Q56.096874 262.18567 56.096874 260.7638L56.096874 260.5763Q56.096874 259.62317 56.45625 258.8888Q56.815624 258.1388 57.45625 257.73254Q58.1125 257.31067 58.8625 257.31067Q60.096874 257.31067 60.784374 258.12317Q61.471874 258.93567 61.471874 260.4513L61.471874 260.90442L57.175 260.90442Q57.20625 261.84192 57.721874 262.42004Q58.253124 262.99817 59.065624 262.99817Q59.628124 262.99817 60.01875 262.7638Q60.425 262.52942 60.7375 262.1388L61.39375 262.65442Q60.596874 263.8888 59.003124 263.8888ZM58.8625 258.2013Q58.20625 258.2013 57.753124 258.68567Q57.315624 259.15442 57.221874 260.0138L60.39375 260.0138L60.39375 259.93567Q60.346874 259.10754 59.940624 258.65442Q59.55 258.2013 58.8625 258.2013ZM64.50313 259.73254L65.90938 257.42004L67.175 257.42004L65.09688 260.56067L67.2375 263.7638L65.9875 263.7638L64.51875 261.3888L63.05 263.7638L61.784374 263.7638L63.925 260.56067L61.8625 257.42004L63.1125 257.42004L64.50313 259.73254ZM69.84688 255.8888L69.84688 257.42004L71.01875 257.42004L71.01875 258.2638L69.84688 258.2638L69.84688 262.18567Q69.84688 262.5763 70.00313 262.7638Q70.15938 262.9513 70.53438 262.9513Q70.72188 262.9513 71.05 262.8888L71.05 263.7638Q70.62813 263.8888 70.22188 263.8888Q69.50313 263.8888 69.12813 263.4513Q68.75313 262.99817 68.75313 262.18567L68.75313 258.2638L67.59688 258.2638L67.59688 257.42004L68.75313 257.42004L68.75313 255.8888L69.84688 255.8888ZM76.94063 264.65442L71.58125 264.65442L71.58125 263.7638L76.94063 263.7638L76.94063 264.65442ZM77.1125 260.54504Q77.1125 259.06067 77.8 258.18567Q78.4875 257.31067 79.6125 257.31067Q80.76875 257.31067 81.425 258.12317L81.47188 257.42004L82.47188 257.42004L82.47188 263.60754Q82.47188 264.84192 81.7375 265.54504Q81.00313 266.2638 79.78438 266.2638Q79.09688 266.2638 78.44063 265.96692Q77.78438 265.67004 77.44063 265.17004L78.00313 264.5138Q78.69063 265.37317 79.70625 265.37317Q80.4875 265.37317 80.925 264.92004Q81.37813 264.48254 81.37813 263.67004L81.37813 263.12317Q80.72188 263.8888 79.59688 263.8888Q78.4875 263.8888 77.8 262.99817Q77.1125 262.09192 77.1125 260.54504ZM78.20625 260.67004Q78.20625 261.73254 78.64375 262.35754Q79.08125 262.96692 79.87813 262.96692Q80.89375 262.96692 81.37813 262.02942L81.37813 259.1388Q80.87813 258.23254 79.87813 258.23254Q79.09688 258.23254 78.64375 258.84192Q78.20625 259.4513 78.20625 260.67004ZM87.00313 263.8888Q85.70625 263.8888 84.89375 263.04504Q84.09688 262.18567 84.09688 260.7638L84.09688 260.5763Q84.09688 259.62317 84.45625 258.8888Q84.81563 258.1388 85.45625 257.73254Q86.1125 257.31067 86.8625 257.31067Q88.09688 257.31067 88.78438 258.12317Q89.47188 258.93567 89.47188 260.4513L89.47188 260.90442L85.175 260.90442Q85.20625 261.84192 85.72188 262.42004Q86.25313 262.99817 87.06563 262.99817Q87.62813 262.99817 88.01875 262.7638Q88.425 262.52942 88.7375 262.1388L89.39375 262.65442Q88.59688 263.8888 87.00313 263.8888ZM86.8625 258.2013Q86.20625 258.2013 85.75313 258.68567Q85.31563 259.15442 85.22188 260.0138L88.39375 260.0138L88.39375 259.93567Q88.34688 259.10754 87.94063 258.65442Q87.55 258.2013 86.8625 258.2013ZM93.44063 258.3888Q93.19063 258.35754 92.90938 258.35754Q91.83125 258.35754 91.45625 259.2638L91.45625 263.7638L90.37813 263.7638L90.37813 257.42004L91.425 257.42004L91.44063 258.15442Q91.97188 257.31067 92.95625 257.31067Q93.26875 257.31067 93.44063 257.3888L93.44063 258.3888ZM95.39375 257.42004L95.425 258.12317Q96.1125 257.31067 97.3 257.31067Q98.62813 257.31067 99.1125 258.3263Q99.425 257.87317 99.925 257.59192Q100.44063 257.31067 101.12813 257.31067Q103.22188 257.31067 103.25313 259.5138L103.25313 263.7638L102.175 263.7638L102.175 259.5763Q102.175 258.90442 101.8625 258.5763Q101.55 258.23254 100.81563 258.23254Q100.20625 258.23254 99.8 258.59192Q99.40938 258.9513 99.34688 259.56067L99.34688 263.7638L98.26875 263.7638L98.26875 259.60754Q98.26875 258.23254 96.90938 258.23254Q95.84688 258.23254 95.45625 259.1388L95.45625 263.7638L94.3625 263.7638L94.3625 257.42004L95.39375 257.42004ZM109.28438 263.7638Q109.19063 263.5763 109.12813 263.09192Q108.37813 263.8888 107.33125 263.8888Q106.39375 263.8888 105.78438 263.35754Q105.19063 262.8263 105.19063 261.99817Q105.19063 261.0138 105.94063 260.46692Q106.69063 259.92004 108.06563 259.92004L109.1125 259.92004L109.1125 259.42004Q109.1125 258.85754 108.76875 258.52942Q108.44063 258.18567 107.76875 258.18567Q107.19063 258.18567 106.8 258.48254Q106.40938 258.7638 106.40938 259.18567L105.31563 259.18567Q105.31563 258.7013 105.64375 258.2638Q105.9875 257.8263 106.56563 257.5763Q107.14375 257.31067 107.83125 257.31067Q108.94063 257.31067 109.55 257.85754Q110.175 258.40442 110.20625 259.35754L110.20625 262.27942Q110.20625 263.15442 110.425 263.67004L110.425 263.7638L109.28438 263.7638ZM107.4875 262.93567Q108.00313 262.93567 108.45625 262.67004Q108.90938 262.40442 109.1125 261.98254L109.1125 260.68567L108.26875 260.68567Q106.26875 260.68567 106.26875 261.85754Q106.26875 262.35754 106.6125 262.65442Q106.95625 262.93567 107.4875 262.93567ZM113.39375 257.42004L113.425 258.21692Q114.15938 257.31067 115.33125 257.31067Q117.34688 257.31067 117.3625 259.5763L117.3625 263.7638L116.26875 263.7638L116.26875 259.56067Q116.26875 258.8888 115.95625 258.56067Q115.65938 258.23254 115.00313 258.23254Q114.47188 258.23254 114.06563 258.5138Q113.675 258.79504 113.45625 259.24817L113.45625 263.7638L112.37813 263.7638L112.37813 257.42004L113.39375 257.42004ZM119.39375 263.2013Q119.39375 262.92004 119.55 262.73254Q119.72188 262.54504 120.05 262.54504Q120.39375 262.54504 120.56563 262.73254Q120.7375 262.92004 120.7375 263.2013Q120.7375 263.46692 120.56563 263.65442Q120.39375 263.8263 120.05 263.8263Q119.72188 263.8263 119.55 263.65442Q119.39375 263.46692 119.39375 263.2013ZM119.39375 258.2013Q119.39375 257.92004 119.55 257.73254Q119.72188 257.54504 120.05 257.54504Q120.39375 257.54504 120.56563 257.73254Q120.7375 257.92004 120.7375 258.2013Q120.7375 258.46692 120.56563 258.65442Q120.39375 258.8263 120.05 258.8263Q119.72188 258.8263 119.55 258.65442Q119.39375 258.46692 119.39375 258.2013ZM127.45625 262.29504L129.03438 257.42004L130.14375 257.42004L127.8625 263.7638L127.03438 263.7638L124.7375 257.42004L125.84688 257.42004L127.45625 262.29504ZM131.08125 260.52942Q131.08125 259.60754 131.44063 258.85754Q131.81563 258.10754 132.47188 257.71692Q133.12813 257.31067 133.95625 257.31067Q135.25313 257.31067 136.05 258.2013Q136.8625 259.09192 136.8625 260.59192L136.8625 260.67004Q136.8625 261.59192 136.50313 262.3263Q136.14375 263.06067 135.4875 263.48254Q134.83125 263.8888 133.97188 263.8888Q132.69063 263.8888 131.87813 262.99817Q131.08125 262.09192 131.08125 260.60754L131.08125 260.52942ZM132.175 260.67004Q132.175 261.71692 132.65938 262.35754Q133.15938 262.99817 133.97188 262.99817Q134.8 262.99817 135.28438 262.35754Q135.76875 261.7013 135.76875 260.52942Q135.76875 259.49817 135.26875 258.85754Q134.78438 258.2013 133.95625 258.2013Q133.15938 258.2013 132.65938 258.84192Q132.175 259.46692 132.175 260.67004ZM139.39375 257.42004L139.425 258.21692Q140.15938 257.31067 141.33125 257.31067Q143.34688 257.31067 143.3625 259.5763L143.3625 263.7638L142.26875 263.7638L142.26875 259.56067Q142.26875 258.8888 141.95625 258.56067Q141.65938 258.23254 141.00313 258.23254Q140.47188 258.23254 140.06563 258.5138Q139.675 258.79504 139.45625 259.24817L139.45625 263.7638L138.37813 263.7638L138.37813 257.42004L139.39375 257.42004Z" fill-rule="nonzero"/><path fill="#757575" d="M153.1125 312.8094Q153.1125 314.71564 152.45625 315.65314Q151.81563 316.575 150.425 316.575Q149.06563 316.575 148.40938 315.66876Q147.75313 314.7625 147.72188 312.95L147.72188 311.5125Q147.72188 309.6219 148.3625 308.71564Q149.01875 307.79376 150.40938 307.79376Q151.78438 307.79376 152.44063 308.6844Q153.09688 309.5594 153.1125 311.40314L153.1125 312.8094ZM152.01875 311.325Q152.01875 309.95 151.62813 309.325Q151.25313 308.6844 150.40938 308.6844Q149.58125 308.6844 149.19063 309.325Q148.81563 309.95 148.81563 311.2469L148.81563 312.98126Q148.81563 314.35626 149.20625 315.02814Q149.6125 315.6844 150.425 315.6844Q151.22188 315.6844 151.6125 315.0594Q152.00313 314.4344 152.01875 313.10626L152.01875 311.325Z" fill-rule="nonzero"/><path fill="#757575" d="M259.04062 316.45L257.9625 316.45L257.9625 309.23126L255.775 310.02814L255.775 309.04376L258.88437 307.8719L259.04062 307.8719L259.04062 316.45Z" fill-rule="nonzero"/><path fill="#757575" d="M368.79688 316.45L363.20312 316.45L363.20312 315.66876L366.15625 312.3875Q366.8125 311.6375 367.0625 311.1844Q367.3125 310.71564 367.3125 310.21564Q367.3125 309.54376 366.90625 309.1219Q366.51562 308.6844 365.82812 308.6844Q365.03125 308.6844 364.57812 309.15314Q364.125 309.60626 364.125 310.4344L363.04688 310.4344Q363.04688 309.2469 363.79688 308.52814Q364.5625 307.79376 365.82812 307.79376Q367.03125 307.79376 367.71875 308.41876Q368.40625 309.04376 368.40625 310.09064Q368.40625 311.34064 366.79688 313.09064L364.51562 315.5594L368.79688 315.5594L368.79688 316.45Z" fill-rule="nonzero"/><path fill="#757575" d="M472.50626 311.65314L473.31876 311.65314Q474.1 311.6375 474.5375 311.2469Q474.975 310.85626 474.975 310.1844Q474.975 308.6844 473.475 308.6844Q472.77188 308.6844 472.35 309.09064Q471.94376 309.4969 471.94376 310.15314L470.85 310.15314Q470.85 309.1375 471.58438 308.46564Q472.33438 307.79376 473.475 307.79376Q474.67813 307.79376 475.36563 308.4344Q476.05313 309.075 476.05313 310.21564Q476.05313 310.77814 475.69376 311.29376Q475.33438 311.8094 474.70938 312.075Q475.4125 312.29376 475.7875 312.8094Q476.17813 313.325 476.17813 314.075Q476.17813 315.21564 475.42813 315.90314Q474.67813 316.575 473.475 316.575Q472.2875 316.575 471.52188 315.91876Q470.77188 315.2625 470.77188 314.2L471.86563 314.2Q471.86563 314.8719 472.30313 315.27814Q472.74063 315.6844 473.49063 315.6844Q474.27188 315.6844 474.67813 315.27814Q475.1 314.85626 475.1 314.09064Q475.1 313.35626 474.64688 312.96564Q474.19376 312.5594 473.31876 312.54376L472.50626 312.54376L472.50626 311.65314Z" fill-rule="nonzero"/><path fill="#757575" d="M583.23126 313.59064L584.41876 313.59064L584.41876 314.46564L583.23126 314.46564L583.23126 316.45L582.15314 316.45L582.15314 314.46564L578.2625 314.46564L578.2625 313.825L582.075 307.91876L583.23126 307.91876L583.23126 313.59064ZM579.4969 313.59064L582.15314 313.59064L582.15314 309.40314L582.0125 309.6375L579.4969 313.59064Z" fill-rule="nonzero"/><path fill="#ffd966" d="M175.5 21.05C175.5 20.497715 175.94771 20.05 176.5 20.05L186.5 20.05C187.05229 20.05 187.5 20.497715 187.5 21.05L187.5 31.05C187.5 31.602285 187.05229 32.05 186.5 32.05L176.5 32.05C175.94771 32.05 175.5 31.602285 175.5 31.05Z" fill-rule="nonzero"/><path fill="#757575" d="M202.79688 29.425Q202.35938 30.05 201.57812 30.3625Q200.79688 30.675 199.76562 30.675Q198.73438 30.675 197.92188 30.190624Q197.10938 29.690624 196.67188 28.784374Q196.23438 27.878124 196.21875 26.690624L196.21875 25.95625Q196.21875 24.01875 197.10938 22.95625Q198.01562 21.89375 199.64062 21.89375Q200.98438 21.89375 201.79688 22.58125Q202.60938 23.26875 202.79688 24.51875L201.67188 24.51875Q201.34375 22.83125 199.65625 22.83125Q198.51562 22.83125 197.9375 23.628124Q197.35938 24.409374 197.34375 25.925L197.34375 26.6125Q197.34375 28.05 198.0 28.909374Q198.65625 29.753124 199.78125 29.753124Q200.40625 29.753124 200.875 29.6125Q201.35938 29.471874 201.67188 29.128124L201.67188 27.221874L199.70312 27.221874L199.70312 26.3L202.79688 26.3L202.79688 29.425ZM206.95312 30.675Q205.65625 30.675 204.84375 29.83125Q204.04688 28.971874 204.04688 27.55L204.04688 27.3625Q204.04688 26.409374 204.40625 25.675Q204.76562 24.925 205.40625 24.51875Q206.0625 24.096874 206.8125 24.096874Q208.04688 24.096874 208.73438 24.909374Q209.42188 25.721874 209.42188 27.2375L209.42188 27.690624L205.125 27.690624Q205.15625 28.628124 205.67188 29.20625Q206.20312 29.784374 207.01562 29.784374Q207.57812 29.784374 207.96875 29.55Q208.375 29.315624 208.6875 28.925L209.34375 29.440624Q208.54688 30.675 206.95312 30.675ZM206.8125 24.9875Q206.15625 24.9875 205.70312 25.471874Q205.26562 25.940624 205.17188 26.8L208.34375 26.8L208.34375 26.721874Q208.29688 25.89375 207.89062 25.440624Q207.5 24.9875 206.8125 24.9875ZM213.39062 25.175Q213.14062 25.14375 212.85938 25.14375Q211.78125 25.14375 211.40625 26.05L211.40625 30.55L210.32812 30.55L210.32812 24.20625L211.375 24.20625L211.39062 24.940624Q211.92188 24.096874 212.90625 24.096874Q213.21875 24.096874 213.39062 24.175L213.39062 25.175ZM215.34375 24.20625L215.375 24.909374Q216.0625 24.096874 217.25 24.096874Q218.57812 24.096874 219.0625 25.1125Q219.375 24.659374 219.875 24.378124Q220.39062 24.096874 221.07812 24.096874Q223.17188 24.096874 223.20312 26.3L223.20312 30.55L222.125 30.55L222.125 26.3625Q222.125 25.690624 221.8125 25.3625Q221.5 25.01875 220.76562 25.01875Q220.15625 25.01875 219.75 25.378124Q219.35938 25.7375 219.29688 26.346874L219.29688 30.55L218.21875 30.55L218.21875 26.39375Q218.21875 25.01875 216.85938 25.01875Q215.79688 25.01875 215.40625 25.925L215.40625 30.55L214.3125 30.55L214.3125 24.20625L215.34375 24.20625ZM229.23438 30.55Q229.14062 30.3625 229.07812 29.878124Q228.32812 30.675 227.28125 30.675Q226.34375 30.675 225.73438 30.14375Q225.14062 29.6125 225.14062 28.784374Q225.14062 27.8 225.89062 27.253124Q226.64062 26.70625 228.01562 26.70625L229.0625 26.70625L229.0625 26.20625Q229.0625 25.64375 228.71875 25.315624Q228.39062 24.971874 227.71875 24.971874Q227.14062 24.971874 226.75 25.26875Q226.35938 25.55 226.35938 25.971874L225.26562 25.971874Q225.26562 25.4875 225.59375 25.05Q225.9375 24.6125 226.51562 24.3625Q227.09375 24.096874 227.78125 24.096874Q228.89062 24.096874 229.5 24.64375Q230.125 25.190624 230.15625 26.14375L230.15625 29.065624Q230.15625 29.940624 230.375 30.45625L230.375 30.55L229.23438 30.55ZM227.4375 29.721874Q227.95312 29.721874 228.40625 29.45625Q228.85938 29.190624 229.0625 28.76875L229.0625 27.471874L228.21875 27.471874Q226.21875 27.471874 226.21875 28.64375Q226.21875 29.14375 226.5625 29.440624Q226.90625 29.721874 227.4375 29.721874ZM233.34375 24.20625L233.375 25.003124Q234.10938 24.096874 235.28125 24.096874Q237.29688 24.096874 237.3125 26.3625L237.3125 30.55L236.21875 30.55L236.21875 26.346874Q236.21875 25.675 235.90625 25.346874Q235.60938 25.01875 234.95312 25.01875Q234.42188 25.01875 234.01562 25.3Q233.625 25.58125 233.40625 26.034374L233.40625 30.55L232.32812 30.55L232.32812 24.20625L233.34375 24.20625ZM247.20312 28.315624L243.625 28.315624L242.82812 30.55L241.67188 30.55L244.92188 22.01875L245.90625 22.01875L249.17188 30.55L248.01562 30.55L247.20312 28.315624ZM243.96875 27.39375L246.875 27.39375L245.42188 23.409374L243.96875 27.39375ZM251.34375 24.20625L251.375 25.003124Q252.10938 24.096874 253.28125 24.096874Q255.29688 24.096874 255.3125 26.3625L255.3125 30.55L254.21875 30.55L254.21875 26.346874Q254.21875 25.675 253.90625 25.346874Q253.60938 25.01875 252.95312 25.01875Q252.42188 25.01875 252.01562 25.3Q251.625 25.58125 251.40625 26.034374L251.40625 30.55L250.32812 30.55L250.32812 24.20625L251.34375 24.20625ZM261.23438 30.55Q261.14062 30.3625 261.07812 29.878124Q260.32812 30.675 259.28125 30.675Q258.34375 30.675 257.73438 30.14375Q257.14062 29.6125 257.14062 28.784374Q257.14062 27.8 257.89062 27.253124Q258.64062 26.70625 260.01562 26.70625L261.0625 26.70625L261.0625 26.20625Q261.0625 25.64375 260.71875 25.315624Q260.39062 24.971874 259.71875 24.971874Q259.14062 24.971874 258.75 25.26875Q258.35938 25.55 258.35938 25.971874L257.26562 25.971874Q257.26562 25.4875 257.59375 25.05Q257.9375 24.6125 258.51562 24.3625Q259.09375 24.096874 259.78125 24.096874Q260.89062 24.096874 261.5 24.64375Q262.125 25.190624 262.15625 26.14375L262.15625 29.065624Q262.15625 29.940624 262.375 30.45625L262.375 30.55L261.23438 30.55ZM259.4375 29.721874Q259.95312 29.721874 260.40625 29.45625Q260.85938 29.190624 261.0625 28.76875L261.0625 27.471874L260.21875 27.471874Q258.21875 27.471874 258.21875 28.64375Q258.21875 29.14375 258.5625 29.440624Q258.90625 29.721874 259.4375 29.721874ZM265.5 30.55L264.42188 30.55L264.42188 21.55L265.5 21.55L265.5 30.55ZM269.39062 28.95625L270.875 24.20625L272.03125 24.20625L269.48438 31.534374Q268.89062 33.1125 267.60938 33.1125L267.39062 33.096874L267.0 33.01875L267.0 32.14375L267.28125 32.159374Q267.84375 32.159374 268.14062 31.940624Q268.45312 31.721874 268.65625 31.128124L268.89062 30.471874L266.625 24.20625L267.8125 24.20625L269.39062 28.95625ZM274.34375 29.659374L278.04688 29.659374L278.04688 30.55L273.01562 30.55L273.01562 29.753124L276.51562 25.1125L273.0625 25.1125L273.0625 24.20625L277.875 24.20625L277.875 24.971874L274.34375 29.659374ZM281.95312 30.675Q280.65625 30.675 279.84375 29.83125Q279.04688 28.971874 279.04688 27.55L279.04688 27.3625Q279.04688 26.409374 279.40625 25.675Q279.76562 24.925 280.40625 24.51875Q281.0625 24.096874 281.8125 24.096874Q283.04688 24.096874 283.73438 24.909374Q284.42188 25.721874 284.42188 27.2375L284.42188 27.690624L280.125 27.690624Q280.15625 28.628124 280.67188 29.20625Q281.20312 29.784374 282.01562 29.784374Q282.57812 29.784374 282.96875 29.55Q283.375 29.315624 283.6875 28.925L284.34375 29.440624Q283.54688 30.675 281.95312 30.675ZM281.8125 24.9875Q281.15625 24.9875 280.70312 25.471874Q280.26562 25.940624 280.17188 26.8L283.34375 26.8L283.34375 26.721874Q283.29688 25.89375 282.89062 25.440624Q282.5 24.9875 281.8125 24.9875ZM288.39062 25.175Q288.14062 25.14375 287.85938 25.14375Q286.78125 25.14375 286.40625 26.05L286.40625 30.55L285.32812 30.55L285.32812 24.20625L286.375 24.20625L286.39062 24.940624Q286.92188 24.096874 287.90625 24.096874Q288.21875 24.096874 288.39062 24.175L288.39062 25.175Z" fill-rule="nonzero"/><path fill="#ffb900" d="M304.5 21.05C304.5 20.497715 304.94772 20.05 305.5 20.05L315.5 20.05C316.05228 20.05 316.5 20.497715 316.5 21.05L316.5 31.05C316.5 31.602285 316.05228 32.05 315.5 32.05L305.5 32.05C304.94772 32.05 304.5 31.602285 304.5 31.05Z" fill-rule="nonzero"/><path fill="#757575" d="M328.0 26.753124Q326.5625 26.33125 325.89062 25.721874Q325.23438 25.1125 325.23438 24.221874Q325.23438 23.221874 326.03125 22.565624Q326.84375 21.89375 328.14062 21.89375Q329.01562 21.89375 329.70312 22.2375Q330.39062 22.58125 330.76562 23.175Q331.15625 23.76875 331.15625 24.4875L330.01562 24.4875Q330.01562 23.70625 329.51562 23.26875Q329.03125 22.83125 328.14062 22.83125Q327.3125 22.83125 326.84375 23.20625Q326.375 23.565624 326.375 24.20625Q326.375 24.7375 326.8125 25.096874Q327.26562 25.45625 328.32812 25.753124Q329.39062 26.05 329.98438 26.409374Q330.59375 26.76875 330.875 27.253124Q331.17188 27.7375 331.17188 28.378124Q331.17188 29.425 330.35938 30.05Q329.54688 30.675 328.20312 30.675Q327.3125 30.675 326.54688 30.33125Q325.79688 29.9875 325.375 29.409374Q324.96875 28.815624 324.96875 28.08125L326.09375 28.08125Q326.09375 28.846874 326.67188 29.3Q327.25 29.753124 328.20312 29.753124Q329.09375 29.753124 329.5625 29.39375Q330.03125 29.01875 330.03125 28.39375Q330.03125 27.76875 329.59375 27.425Q329.15625 27.08125 328.0 26.753124ZM333.79688 22.675L333.79688 24.20625L334.96875 24.20625L334.96875 25.05L333.79688 25.05L333.79688 28.971874Q333.79688 29.3625 333.95312 29.55Q334.10938 29.7375 334.48438 29.7375Q334.67188 29.7375 335.0 29.675L335.0 30.55Q334.57812 30.675 334.17188 30.675Q333.45312 30.675 333.07812 30.2375Q332.70312 29.784374 332.70312 28.971874L332.70312 25.05L331.54688 25.05L331.54688 24.20625L332.70312 24.20625L332.70312 22.675L333.79688 22.675ZM340.23438 30.55Q340.14062 30.3625 340.07812 29.878124Q339.32812 30.675 338.28125 30.675Q337.34375 30.675 336.73438 30.14375Q336.14062 29.6125 336.14062 28.784374Q336.14062 27.8 336.89062 27.253124Q337.64062 26.70625 339.01562 26.70625L340.0625 26.70625L340.0625 26.20625Q340.0625 25.64375 339.71875 25.315624Q339.39062 24.971874 338.71875 24.971874Q338.14062 24.971874 337.75 25.26875Q337.35938 25.55 337.35938 25.971874L336.26562 25.971874Q336.26562 25.4875 336.59375 25.05Q336.9375 24.6125 337.51562 24.3625Q338.09375 24.096874 338.78125 24.096874Q339.89062 24.096874 340.5 24.64375Q341.125 25.190624 341.15625 26.14375L341.15625 29.065624Q341.15625 29.940624 341.375 30.45625L341.375 30.55L340.23438 30.55ZM338.4375 29.721874Q338.95312 29.721874 339.40625 29.45625Q339.85938 29.190624 340.0625 28.76875L340.0625 27.471874L339.21875 27.471874Q337.21875 27.471874 337.21875 28.64375Q337.21875 29.14375 337.5625 29.440624Q337.90625 29.721874 338.4375 29.721874ZM344.34375 24.20625L344.375 25.003124Q345.10938 24.096874 346.28125 24.096874Q348.29688 24.096874 348.3125 26.3625L348.3125 30.55L347.21875 30.55L347.21875 26.346874Q347.21875 25.675 346.90625 25.346874Q346.60938 25.01875 345.95312 25.01875Q345.42188 25.01875 345.01562 25.3Q344.625 25.58125 344.40625 26.034374L344.40625 30.55L343.32812 30.55L343.32812 24.20625L344.34375 24.20625ZM350.0625 27.33125Q350.0625 25.8625 350.75 24.9875Q351.4375 24.096874 352.5625 24.096874Q353.67188 24.096874 354.32812 24.846874L354.32812 21.55L355.40625 21.55L355.40625 30.55L354.40625 30.55L354.35938 29.8625Q353.70312 30.675 352.54688 30.675Q351.45312 30.675 350.75 29.76875Q350.0625 28.8625 350.0625 27.409374L350.0625 27.33125ZM351.14062 27.45625Q351.14062 28.534374 351.57812 29.14375Q352.03125 29.753124 352.8125 29.753124Q353.84375 29.753124 354.32812 28.815624L354.32812 25.909374Q353.84375 25.01875 352.82812 25.01875Q352.03125 25.01875 351.57812 25.628124Q351.14062 26.2375 351.14062 27.45625ZM361.23438 30.55Q361.14062 30.3625 361.07812 29.878124Q360.32812 30.675 359.28125 30.675Q358.34375 30.675 357.73438 30.14375Q357.14062 29.6125 357.14062 28.784374Q357.14062 27.8 357.89062 27.253124Q358.64062 26.70625 360.01562 26.70625L361.0625 26.70625L361.0625 26.20625Q361.0625 25.64375 360.71875 25.315624Q360.39062 24.971874 359.71875 24.971874Q359.14062 24.971874 358.75 25.26875Q358.35938 25.55 358.35938 25.971874L357.26562 25.971874Q357.26562 25.4875 357.59375 25.05Q357.9375 24.6125 358.51562 24.3625Q359.09375 24.096874 359.78125 24.096874Q360.89062 24.096874 361.5 24.64375Q362.125 25.190624 362.15625 26.14375L362.15625 29.065624Q362.15625 29.940624 362.375 30.45625L362.375 30.55L361.23438 30.55ZM359.4375 29.721874Q359.95312 29.721874 360.40625 29.45625Q360.85938 29.190624 361.0625 28.76875L361.0625 27.471874L360.21875 27.471874Q358.21875 27.471874 358.21875 28.64375Q358.21875 29.14375 358.5625 29.440624Q358.90625 29.721874 359.4375 29.721874ZM367.39062 25.175Q367.14062 25.14375 366.85938 25.14375Q365.78125 25.14375 365.40625 26.05L365.40625 30.55L364.32812 30.55L364.32812 24.20625L365.375 24.20625L365.39062 24.940624Q365.92188 24.096874 366.90625 24.096874Q367.21875 24.096874 367.39062 24.175L367.39062 25.175ZM368.0625 27.33125Q368.0625 25.8625 368.75 24.9875Q369.4375 24.096874 370.5625 24.096874Q371.67188 24.096874 372.32812 24.846874L372.32812 21.55L373.40625 21.55L373.40625 30.55L372.40625 30.55L372.35938 29.8625Q371.70312 30.675 370.54688 30.675Q369.45312 30.675 368.75 29.76875Q368.0625 28.8625 368.0625 27.409374L368.0625 27.33125ZM369.14062 27.45625Q369.14062 28.534374 369.57812 29.14375Q370.03125 29.753124 370.8125 29.753124Q371.84375 29.753124 372.32812 28.815624L372.32812 25.909374Q371.84375 25.01875 370.82812 25.01875Q370.03125 25.01875 369.57812 25.628124Q369.14062 26.2375 369.14062 27.45625ZM383.20312 28.315624L379.625 28.315624L378.82812 30.55L377.67188 30.55L380.92188 22.01875L381.90625 22.01875L385.17188 30.55L384.01562 30.55L383.20312 28.315624ZM379.96875 27.39375L382.875 27.39375L381.42188 23.409374L379.96875 27.39375ZM387.34375 24.20625L387.375 25.003124Q388.10938 24.096874 389.28125 24.096874Q391.29688 24.096874 391.3125 26.3625L391.3125 30.55L390.21875 30.55L390.21875 26.346874Q390.21875 25.675 389.90625 25.346874Q389.60938 25.01875 388.95312 25.01875Q388.42188 25.01875 388.01562 25.3Q387.625 25.58125 387.40625 26.034374L387.40625 30.55L386.32812 30.55L386.32812 24.20625L387.34375 24.20625ZM397.23438 30.55Q397.14062 30.3625 397.07812 29.878124Q396.32812 30.675 395.28125 30.675Q394.34375 30.675 393.73438 30.14375Q393.14062 29.6125 393.14062 28.784374Q393.14062 27.8 393.89062 27.253124Q394.64062 26.70625 396.01562 26.70625L397.0625 26.70625L397.0625 26.20625Q397.0625 25.64375 396.71875 25.315624Q396.39062 24.971874 395.71875 24.971874Q395.14062 24.971874 394.75 25.26875Q394.35938 25.55 394.35938 25.971874L393.26562 25.971874Q393.26562 25.4875 393.59375 25.05Q393.9375 24.6125 394.51562 24.3625Q395.09375 24.096874 395.78125 24.096874Q396.89062 24.096874 397.5 24.64375Q398.125 25.190624 398.15625 26.14375L398.15625 29.065624Q398.15625 29.940624 398.375 30.45625L398.375 30.55L397.23438 30.55ZM395.4375 29.721874Q395.95312 29.721874 396.40625 29.45625Q396.85938 29.190624 397.0625 28.76875L397.0625 27.471874L396.21875 27.471874Q394.21875 27.471874 394.21875 28.64375Q394.21875 29.14375 394.5625 29.440624Q394.90625 29.721874 395.4375 29.721874ZM401.5 30.55L400.42188 30.55L400.42188 21.55L401.5 21.55L401.5 30.55ZM405.39062 28.95625L406.875 24.20625L408.03125 24.20625L405.48438 31.534374Q404.89062 33.1125 403.60938 33.1125L403.39062 33.096874L403.0 33.01875L403.0 32.14375L403.28125 32.159374Q403.84375 32.159374 404.14062 31.940624Q404.45312 31.721874 404.65625 31.128124L404.89062 30.471874L402.625 24.20625L403.8125 24.20625L405.39062 28.95625ZM410.34375 29.659374L414.04688 29.659374L414.04688 30.55L409.01562 30.55L409.01562 29.753124L412.51562 25.1125L409.0625 25.1125L409.0625 24.20625L413.875 24.20625L413.875 24.971874L410.34375 29.659374ZM417.95312 30.675Q416.65625 30.675 415.84375 29.83125Q415.04688 28.971874 415.04688 27.55L415.04688 27.3625Q415.04688 26.409374 415.40625 25.675Q415.76562 24.925 416.40625 24.51875Q417.0625 24.096874 417.8125 24.096874Q419.04688 24.096874 419.73438 24.909374Q420.42188 25.721874 420.42188 27.2375L420.42188 27.690624L416.125 27.690624Q416.15625 28.628124 416.67188 29.20625Q417.20312 29.784374 418.01562 29.784374Q418.57812 29.784374 418.96875 29.55Q419.375 29.315624 419.6875 28.925L420.34375 29.440624Q419.54688 30.675 417.95312 30.675ZM417.8125 24.9875Q417.15625 24.9875 416.70312 25.471874Q416.26562 25.940624 416.17188 26.8L419.34375 26.8L419.34375 26.721874Q419.29688 25.89375 418.89062 25.440624Q418.5 24.9875 417.8125 24.9875ZM424.39062 25.175Q424.14062 25.14375 423.85938 25.14375Q422.78125 25.14375 422.40625 26.05L422.40625 30.55L421.32812 30.55L421.32812 24.20625L422.375 24.20625L422.39062 24.940624Q422.92188 24.096874 423.90625 24.096874Q424.21875 24.096874 424.39062 24.175L424.39062 25.175Z" fill-rule="nonzero"/></svg>