<svg version="1.1" viewBox="0.0 0.0 600.0 371.0" fill="none" stroke="none" stroke-linecap="square" stroke-miterlimit="10" width="600" height="371" xmlns:xlink="http://www.w3.org/1999/xlink" xmlns="http://www.w3.org/2000/svg"><path fill="#ffffff" d="M0 0L600.0 0L600.0 371.0L0 371.0L0 0Z" fill-rule="nonzero"/><path stroke="#333333" stroke-width="1.0" stroke-linecap="butt" d="M137.5 45.5L137.5 331.5" fill-rule="nonzero"/><path stroke="#cccccc" stroke-width="1.0" stroke-linecap="butt" d="M248.5 45.5L248.5 331.5" fill-rule="nonzero"/><path stroke="#cccccc" stroke-width="1.0" stroke-linecap="butt" d="M359.5 45.5L359.5 331.5" fill-rule="nonzero"/><path stroke="#cccccc" stroke-width="1.0" stroke-linecap="butt" d="M470.5 45.5L470.5 331.5" fill-rule="nonzero"/><path stroke="#cccccc" stroke-width="1.0" stroke-linecap="butt" d="M581.5 45.5L581.5 331.5" fill-rule="nonzero"/><clipPath id="id_0"><path d="M137.13 45.916668L581.45 45.916668L581.45 331.45L137.13 331.45L137.13 45.916668Z" clip-rule="nonzero"/></clipPath><path stroke="#000000" stroke-width="2.0" stroke-linecap="butt" stroke-opacity="0.0" clip-path="url(#id_0)" d="M137.0 89.0L137.0 70.0L214.0 70.0C215.10457 70.0 216.0 70.89543 216.0 72.0L216.0 87.0C216.0 88.10457 215.10457 89.0 214.0 89.0Z" fill-rule="nonzero"/><path fill="#fad74b" clip-path="url(#id_0)" d="M137.0 89.0L137.0 70.0L214.0 70.0C215.10457 70.0 216.0 70.89543 216.0 72.0L216.0 87.0C216.0 88.10457 215.10457 89.0 214.0 89.0Z" fill-rule="nonzero"/><path stroke="#000000" stroke-width="2.0" stroke-linecap="butt" stroke-opacity="0.0" clip-path="url(#id_0)" d="M137.0 155.0L137.0 136.0L227.0 136.0C228.10457 136.0 229.0 136.89543 229.0 138.0L229.0 153.0C229.0 154.10457 228.10457 155.0 227.0 155.0Z" fill-rule="nonzero"/><path fill="#fad74b" clip-path="url(#id_0)" d="M137.0 155.0L137.0 136.0L227.0 136.0C228.10457 136.0 229.0 136.89543 229.0 138.0L229.0 153.0C229.0 154.10457 228.10457 155.0 227.0 155.0Z" fill-rule="nonzero"/><path stroke="#000000" stroke-width="2.0" stroke-linecap="butt" stroke-opacity="0.0" clip-path="url(#id_0)" d="M137.0 221.0L137.0 202.0L227.0 202.0C228.10457 202.0 229.0 202.89543 229.0 204.0L229.0 219.0C229.0 220.10457 228.10457 221.0 227.0 221.0Z" fill-rule="nonzero"/><path fill="#fad74b" clip-path="url(#id_0)" d="M137.0 221.0L137.0 202.0L227.0 202.0C228.10457 202.0 229.0 202.89543 229.0 204.0L229.0 219.0C229.0 220.10457 228.10457 221.0 227.0 221.0Z" fill-rule="nonzero"/><path stroke="#000000" stroke-width="2.0" stroke-linecap="butt" stroke-opacity="0.0" clip-path="url(#id_0)" d="M137.0 286.0L137.0 267.0L141.0 267.0C142.10457 267.0 143.0 267.89542 143.0 269.0L143.0 284.0C143.0 285.10458 142.10457 286.0 141.0 286.0Z" fill-rule="nonzero"/><path fill="#fad74b" clip-path="url(#id_0)" d="M137.0 286.0L137.0 267.0L141.0 267.0C142.10457 267.0 143.0 267.89542 143.0 269.0L143.0 284.0C143.0 285.10458 142.10457 286.0 141.0 286.0Z" fill-rule="nonzero"/><path stroke="#000000" stroke-width="2.0" stroke-linecap="butt" stroke-opacity="0.0" clip-path="url(#id_0)" d="M137.0 110.0L137.0 91.0L382.0 91.0C383.10458 91.0 384.0 91.89543 384.0 93.0L384.0 108.0C384.0 109.10457 383.10458 110.0 382.0 110.0Z" fill-rule="nonzero"/><path fill="#ffb900" clip-path="url(#id_0)" d="M137.0 110.0L137.0 91.0L382.0 91.0C383.10458 91.0 384.0 91.89543 384.0 93.0L384.0 108.0C384.0 109.10457 383.10458 110.0 382.0 110.0Z" fill-rule="nonzero"/><path stroke="#000000" stroke-width="2.0" stroke-linecap="butt" stroke-opacity="0.0" clip-path="url(#id_0)" d="M137.0 176.0L137.0 157.0L537.0 157.0C538.10455 157.0 539.0 157.89543 539.0 159.0L539.0 174.0C539.0 175.10457 538.10455 176.0 537.0 176.0Z" fill-rule="nonzero"/><path fill="#ffb900" clip-path="url(#id_0)" d="M137.0 176.0L137.0 157.0L537.0 157.0C538.10455 157.0 539.0 157.89543 539.0 159.0L539.0 174.0C539.0 175.10457 538.10455 176.0 537.0 176.0Z" fill-rule="nonzero"/><path stroke="#000000" stroke-width="2.0" stroke-linecap="butt" stroke-opacity="0.0" clip-path="url(#id_0)" d="M137.0 242.0L137.0 223.0L200.0 223.0C201.10457 223.0 202.0 223.89543 202.0 225.0L202.0 240.0C202.0 241.10457 201.10457 242.0 200.0 242.0Z" fill-rule="nonzero"/><path fill="#ffb900" clip-path="url(#id_0)" d="M137.0 242.0L137.0 223.0L200.0 223.0C201.10457 223.0 202.0 223.89543 202.0 225.0L202.0 240.0C202.0 241.10457 201.10457 242.0 200.0 242.0Z" fill-rule="nonzero"/><path stroke="#000000" stroke-width="2.0" stroke-linecap="butt" stroke-opacity="0.0" clip-path="url(#id_0)" d="M137.0 307.0L137.0 288.0L137.0 288.0L137.0 307.0Z" fill-rule="nonzero"/><path fill="#ffb900" clip-path="url(#id_0)" d="M137.0 307.0L137.0 288.0L137.0 288.0L137.0 307.0Z" fill-rule="nonzero"/><path fill="#757575" d="M97.30187 69.129814Q97.30187 70.567314 96.64562 71.45794Q95.98937 72.348564 94.84875 72.348564Q93.6925 72.348564 93.03625 71.61419L93.03625 74.661064L91.95812 74.661064L91.95812 65.879814L92.9425 65.879814L92.98937 66.58294Q93.66125 65.77044 94.83312 65.77044Q95.97375 65.77044 96.63 66.629814Q97.30187 67.48919 97.30187 69.02044L97.30187 69.129814ZM96.22375 69.004814Q96.22375 67.92669 95.755 67.317314Q95.30187 66.692314 94.505 66.692314Q93.52062 66.692314 93.03625 67.55169L93.03625 70.58294Q93.52062 71.45794 94.52062 71.45794Q95.30187 71.45794 95.755 70.848564Q96.22375 70.223564 96.22375 69.004814ZM102.86437 72.223564Q102.77062 72.036064 102.70812 71.55169Q101.95812 72.348564 100.91125 72.348564Q99.97375 72.348564 99.36437 71.817314Q98.77062 71.286064 98.77062 70.45794Q98.77062 69.473564 99.52062 68.92669Q100.27062 68.379814 101.64562 68.379814L102.6925 68.379814L102.6925 67.879814Q102.6925 67.317314 102.34875 66.98919Q102.02062 66.64544 101.34875 66.64544Q100.77062 66.64544 100.38 66.942314Q99.98937 67.223564 99.98937 67.64544L98.89562 67.64544Q98.89562 67.161064 99.22375 66.723564Q99.5675 66.286064 100.14562 66.036064Q100.72375 65.77044 101.41125 65.77044Q102.52062 65.77044 103.13 66.317314Q103.755 66.86419 103.78625 67.817314L103.78625 70.73919Q103.78625 71.61419 104.005 72.129814L104.005 72.223564L102.86437 72.223564ZM101.0675 71.39544Q101.58312 71.39544 102.03625 71.129814Q102.48937 70.86419 102.6925 70.442314L102.6925 69.14544L101.84875 69.14544Q99.84875 69.14544 99.84875 70.317314Q99.84875 70.817314 100.1925 71.11419Q100.53625 71.39544 101.0675 71.39544ZM109.02062 66.848564Q108.77062 66.817314 108.48937 66.817314Q107.41125 66.817314 107.03625 67.723564L107.03625 72.223564L105.95812 72.223564L105.95812 65.879814L107.005 65.879814L107.02062 66.61419Q107.55187 65.77044 108.53625 65.77044Q108.84875 65.77044 109.02062 65.848564L109.02062 66.848564ZM113.86437 72.223564Q113.77062 72.036064 113.70812 71.55169Q112.95812 72.348564 111.91125 72.348564Q110.97375 72.348564 110.36437 71.817314Q109.77062 71.286064 109.77062 70.45794Q109.77062 69.473564 110.52062 68.92669Q111.27062 68.379814 112.64562 68.379814L113.6925 68.379814L113.6925 67.879814Q113.6925 67.317314 113.34875 66.98919Q113.02062 66.64544 112.34875 66.64544Q111.77062 66.64544 111.38 66.942314Q110.98937 67.223564 110.98937 67.64544L109.89562 67.64544Q109.89562 67.161064 110.22375 66.723564Q110.5675 66.286064 111.14562 66.036064Q111.72375 65.77044 112.41125 65.77044Q113.52062 65.77044 114.13 66.317314Q114.755 66.86419 114.78625 67.817314L114.78625 70.73919Q114.78625 71.61419 115.005 72.129814L115.005 72.223564L113.86437 72.223564ZM112.0675 71.39544Q112.58312 71.39544 113.03625 71.129814Q113.48937 70.86419 113.6925 70.442314L113.6925 69.14544L112.84875 69.14544Q110.84875 69.14544 110.84875 70.317314Q110.84875 70.817314 111.1925 71.11419Q111.53625 71.39544 112.0675 71.39544ZM118.13 72.223564L117.05187 72.223564L117.05187 63.223564L118.13 63.223564L118.13 72.223564ZM121.13 72.223564L120.05187 72.223564L120.05187 63.223564L121.13 63.223564L121.13 72.223564ZM125.58312 72.348564Q124.28625 72.348564 123.47375 71.504814Q122.67687 70.64544 122.67687 69.223564L122.67687 69.036064Q122.67687 68.08294 123.03625 67.348564Q123.39562 66.598564 124.03625 66.192314Q124.6925 65.77044 125.4425 65.77044Q126.67687 65.77044 127.36437 66.58294Q128.05188 67.39544 128.05188 68.911064L128.05188 69.36419L123.755 69.36419Q123.78625 70.30169 124.30187 70.879814Q124.83312 71.45794 125.64562 71.45794Q126.20812 71.45794 126.59875 71.223564Q127.005 70.98919 127.3175 70.598564L127.97375 71.11419Q127.17687 72.348564 125.58312 72.348564ZM125.4425 66.661064Q124.78625 66.661064 124.33312 67.14544Q123.89562 67.61419 123.80187 68.473564L126.97375 68.473564L126.97375 68.39544Q126.92687 67.567314 126.52062 67.11419Q126.13 66.661064 125.4425 66.661064ZM130.13 72.223564L129.05188 72.223564L129.05188 63.223564L130.13 63.223564L130.13 72.223564Z" fill-rule="nonzero"/><path fill="#757575" d="M44.301876 99.129814Q44.301876 100.567314 43.645626 101.45794Q42.989376 102.348564 41.84875 102.348564Q40.6925 102.348564 40.03625 101.61419L40.03625 104.661064L38.958126 104.661064L38.958126 95.879814L39.9425 95.879814L39.989376 96.58294Q40.66125 95.77044 41.833126 95.77044Q42.97375 95.77044 43.63 96.629814Q44.301876 97.48919 44.301876 99.02044L44.301876 99.129814ZM43.22375 99.004814Q43.22375 97.92669 42.755 97.317314Q42.301876 96.692314 41.505 96.692314Q40.520626 96.692314 40.03625 97.55169L40.03625 100.58294Q40.520626 101.45794 41.520626 101.45794Q42.301876 101.45794 42.755 100.848564Q43.22375 100.223564 43.22375 99.004814ZM49.864376 102.223564Q49.770626 102.036064 49.708126 101.55169Q48.958126 102.348564 47.91125 102.348564Q46.97375 102.348564 46.364376 101.817314Q45.770626 101.286064 45.770626 100.45794Q45.770626 99.473564 46.520626 98.92669Q47.270626 98.379814 48.645626 98.379814L49.6925 98.379814L49.6925 97.879814Q49.6925 97.317314 49.34875 96.98919Q49.020626 96.64544 48.34875 96.64544Q47.770626 96.64544 47.38 96.942314Q46.989376 97.223564 46.989376 97.64544L45.895626 97.64544Q45.895626 97.161064 46.22375 96.723564Q46.5675 96.286064 47.145626 96.036064Q47.72375 95.77044 48.41125 95.77044Q49.520626 95.77044 50.13 96.317314Q50.755 96.86419 50.78625 97.817314L50.78625 100.73919Q50.78625 101.61419 51.005 102.129814L51.005 102.223564L49.864376 102.223564ZM48.0675 101.39544Q48.583126 101.39544 49.03625 101.129814Q49.489376 100.86419 49.6925 100.442314L49.6925 99.14544L48.84875 99.14544Q46.84875 99.14544 46.84875 100.317314Q46.84875 100.817314 47.1925 101.11419Q47.53625 101.39544 48.0675 101.39544ZM56.020626 96.848564Q55.770626 96.817314 55.489376 96.817314Q54.41125 96.817314 54.03625 97.723564L54.03625 102.223564L52.958126 102.223564L52.958126 95.879814L54.005 95.879814L54.020626 96.61419Q54.551876 95.77044 55.53625 95.77044Q55.84875 95.77044 56.020626 95.848564L56.020626 96.848564ZM60.864376 102.223564Q60.770626 102.036064 60.708126 101.55169Q59.958126 102.348564 58.91125 102.348564Q57.97375 102.348564 57.364376 101.817314Q56.770626 101.286064 56.770626 100.45794Q56.770626 99.473564 57.520626 98.92669Q58.270626 98.379814 59.645626 98.379814L60.6925 98.379814L60.6925 97.879814Q60.6925 97.317314 60.34875 96.98919Q60.020626 96.64544 59.34875 96.64544Q58.770626 96.64544 58.38 96.942314Q57.989376 97.223564 57.989376 97.64544L56.895626 97.64544Q56.895626 97.161064 57.22375 96.723564Q57.5675 96.286064 58.145626 96.036064Q58.72375 95.77044 59.41125 95.77044Q60.520626 95.77044 61.13 96.317314Q61.755 96.86419 61.78625 97.817314L61.78625 100.73919Q61.78625 101.61419 62.005 102.129814L62.005 102.223564L60.864376 102.223564ZM59.0675 101.39544Q59.583126 101.39544 60.03625 101.129814Q60.489376 100.86419 60.6925 100.442314L60.6925 99.14544L59.84875 99.14544Q57.84875 99.14544 57.84875 100.317314Q57.84875 100.817314 58.1925 101.11419Q58.53625 101.39544 59.0675 101.39544ZM65.130005 102.223564L64.05188 102.223564L64.05188 93.223564L65.130005 93.223564L65.130005 102.223564ZM68.130005 102.223564L67.05188 102.223564L67.05188 93.223564L68.130005 93.223564L68.130005 102.223564ZM72.58313 102.348564Q71.286255 102.348564 70.473755 101.504814Q69.67688 100.64544 69.67688 99.223564L69.67688 99.036064Q69.67688 98.08294 70.036255 97.348564Q70.39563 96.598564 71.036255 96.192314Q71.692505 95.77044 72.442505 95.77044Q73.67688 95.77044 74.36438 96.58294Q75.05188 97.39544 75.05188 98.911064L75.05188 99.36419L70.755005 99.36419Q70.786255 100.30169 71.30188 100.879814Q71.83313 101.45794 72.64563 101.45794Q73.20813 101.45794 73.598755 101.223564Q74.005005 100.98919 74.317505 100.598564L74.973755 101.11419Q74.17688 102.348564 72.58313 102.348564ZM72.442505 96.661064Q71.786255 96.661064 71.33313 97.14544Q70.89563 97.61419 70.80188 98.473564L73.973755 98.473564L73.973755 98.39544Q73.92688 97.567314 73.52063 97.11419Q73.130005 96.661064 72.442505 96.661064ZM77.130005 102.223564L76.05188 102.223564L76.05188 93.223564L77.130005 93.223564L77.130005 102.223564ZM81.58313 102.348564Q80.286255 102.348564 79.473755 101.504814Q78.67688 100.64544 78.67688 99.223564L78.67688 99.036064Q78.67688 98.08294 79.036255 97.348564Q79.39563 96.598564 80.036255 96.192314Q80.692505 95.77044 81.442505 95.77044Q82.67688 95.77044 83.36438 96.58294Q84.05188 97.39544 84.05188 98.911064L84.05188 99.36419L79.755005 99.36419Q79.786255 100.30169 80.30188 100.879814Q80.83313 101.45794 81.64563 101.45794Q82.20813 101.45794 82.598755 101.223564Q83.005005 100.98919 83.317505 100.598564L83.973755 101.11419Q83.17688 102.348564 81.58313 102.348564ZM81.442505 96.661064Q80.786255 96.661064 80.33313 97.14544Q79.89563 97.61419 79.80188 98.473564L82.973755 98.473564L82.973755 98.39544Q82.92688 97.567314 82.52063 97.11419Q82.130005 96.661064 81.442505 96.661064ZM84.911255 103.92669L84.30188 103.504814Q84.848755 102.73919 84.880005 101.911064L84.880005 100.942314L85.942505 100.942314L85.942505 101.786064Q85.942505 102.379814 85.64563 102.973564Q85.348755 103.567314 84.911255 103.92669ZM95.30188 99.129814Q95.30188 100.567314 94.64563 101.45794Q93.98938 102.348564 92.848755 102.348564Q91.692505 102.348564 91.036255 101.61419L91.036255 104.661064L89.95813 104.661064L89.95813 95.879814L90.942505 95.879814L90.98938 96.58294Q91.661255 95.77044 92.83313 95.77044Q93.973755 95.77044 94.630005 96.629814Q95.30188 97.48919 95.30188 99.02044L95.30188 99.129814ZM94.223755 99.004814Q94.223755 97.92669 93.755005 97.317314Q93.30188 96.692314 92.505005 96.692314Q91.52063 96.692314 91.036255 97.55169L91.036255 100.58294Q91.52063 101.45794 92.52063 101.45794Q93.30188 101.45794 93.755005 100.848564Q94.223755 100.223564 94.223755 99.004814ZM100.86438 102.223564Q100.77063 102.036064 100.70813 101.55169Q99.95813 102.348564 98.911255 102.348564Q97.973755 102.348564 97.36438 101.817314Q96.77063 101.286064 96.77063 100.45794Q96.77063 99.473564 97.52063 98.92669Q98.27063 98.379814 99.64563 98.379814L100.692505 98.379814L100.692505 97.879814Q100.692505 97.317314 100.348755 96.98919Q100.02063 96.64544 99.348755 96.64544Q98.77063 96.64544 98.380005 96.942314Q97.98938 97.223564 97.98938 97.64544L96.89563 97.64544Q96.89563 97.161064 97.223755 96.723564Q97.567505 96.286064 98.14563 96.036064Q98.723755 95.77044 99.411255 95.77044Q100.52063 95.77044 101.130005 96.317314Q101.755005 96.86419 101.786255 97.817314L101.786255 100.73919Q101.786255 101.61419 102.005005 102.129814L102.005005 102.223564L100.86438 102.223564ZM99.067505 101.39544Q99.58313 101.39544 100.036255 101.129814Q100.48938 100.86419 100.692505 100.442314L100.692505 99.14544L99.848755 99.14544Q97.848755 99.14544 97.848755 100.317314Q97.848755 100.817314 98.192505 101.11419Q98.536255 101.39544 99.067505 101.39544ZM107.02063 96.848564Q106.77063 96.817314 106.48938 96.817314Q105.411255 96.817314 105.036255 97.723564L105.036255 102.223564L103.95813 102.223564L103.95813 95.879814L105.005005 95.879814L105.02063 96.61419Q105.55188 95.77044 106.536255 95.77044Q106.848755 95.77044 107.02063 95.848564L107.02063 96.848564ZM111.86438 102.223564Q111.77063 102.036064 111.70813 101.55169Q110.95813 102.348564 109.911255 102.348564Q108.973755 102.348564 108.36438 101.817314Q107.77063 101.286064 107.77063 100.45794Q107.77063 99.473564 108.52063 98.92669Q109.27063 98.379814 110.64563 98.379814L111.692505 98.379814L111.692505 97.879814Q111.692505 97.317314 111.348755 96.98919Q111.02063 96.64544 110.348755 96.64544Q109.77063 96.64544 109.380005 96.942314Q108.98938 97.223564 108.98938 97.64544L107.89563 97.64544Q107.89563 97.161064 108.223755 96.723564Q108.567505 96.286064 109.14563 96.036064Q109.723755 95.77044 110.411255 95.77044Q111.52063 95.77044 112.130005 96.317314Q112.755005 96.86419 112.786255 97.817314L112.786255 100.73919Q112.786255 101.61419 113.005005 102.129814L113.005005 102.223564L111.86438 102.223564ZM110.067505 101.39544Q110.58313 101.39544 111.036255 101.129814Q111.48938 100.86419 111.692505 100.442314L111.692505 99.14544L110.848755 99.14544Q108.848755 99.14544 108.848755 100.317314Q108.848755 100.817314 109.192505 101.11419Q109.536255 101.39544 110.067505 101.39544ZM116.130005 102.223564L115.05188 102.223564L115.05188 93.223564L116.130005 93.223564L116.130005 102.223564ZM119.130005 102.223564L118.05188 102.223564L118.05188 93.223564L119.130005 93.223564L119.130005 102.223564ZM123.58313 102.348564Q122.286255 102.348564 121.473755 101.504814Q120.67688 100.64544 120.67688 99.223564L120.67688 99.036064Q120.67688 98.08294 121.036255 97.348564Q121.39563 96.598564 122.036255 96.192314Q122.692505 95.77044 123.442505 95.77044Q124.67688 95.77044 125.36438 96.58294Q126.05188 97.39544 126.05188 98.911064L126.05188 99.36419L121.755005 99.36419Q121.786255 100.30169 122.30188 100.879814Q122.83313 101.45794 123.64563 101.45794Q124.20813 101.45794 124.598755 101.223564Q125.005005 100.98919 125.317505 100.598564L125.973755 101.11419Q125.17688 102.348564 123.58313 102.348564ZM123.442505 96.661064Q122.786255 96.661064 122.33313 97.14544Q121.89563 97.61419 121.80188 98.473564L124.973755 98.473564L124.973755 98.39544Q124.92688 97.567314 124.52063 97.11419Q124.130005 96.661064 123.442505 96.661064ZM128.13 102.223564L127.05188 102.223564L127.05188 93.223564L128.13 93.223564L128.13 102.223564ZM129.91125 103.92669L129.30188 103.504814Q129.84875 102.73919 129.88 101.911064L129.88 100.942314L130.9425 100.942314L130.9425 101.786064Q130.9425 102.379814 130.64563 102.973564Q130.34875 103.567314 129.91125 103.92669Z" fill-rule="nonzero"/><path fill="#757575" d="M91.30187 114.129814Q91.30187 115.567314 90.64562 116.45794Q89.98937 117.348564 88.84875 117.348564Q87.6925 117.348564 87.03625 116.61419L87.03625 119.661064L85.95812 119.661064L85.95812 110.879814L86.9425 110.879814L86.98937 111.58294Q87.66125 110.77044 88.83312 110.77044Q89.97375 110.77044 90.63 111.629814Q91.30187 112.48919 91.30187 114.02044L91.30187 114.129814ZM90.22375 114.004814Q90.22375 112.92669 89.755 112.317314Q89.30187 111.692314 88.505 111.692314Q87.52062 111.692314 87.03625 112.55169L87.03625 115.58294Q87.52062 116.45794 88.52062 116.45794Q89.30187 116.45794 89.755 115.848564Q90.22375 115.223564 90.22375 114.004814ZM96.86437 117.223564Q96.77062 117.036064 96.70812 116.55169Q95.95812 117.348564 94.91125 117.348564Q93.97375 117.348564 93.36437 116.817314Q92.77062 116.286064 92.77062 115.45794Q92.77062 114.473564 93.52062 113.92669Q94.27062 113.379814 95.64562 113.379814L96.6925 113.379814L96.6925 112.879814Q96.6925 112.317314 96.34875 111.98919Q96.02062 111.64544 95.34875 111.64544Q94.77062 111.64544 94.38 111.942314Q93.98937 112.223564 93.98937 112.64544L92.89562 112.64544Q92.89562 112.161064 93.22375 111.723564Q93.5675 111.286064 94.14562 111.036064Q94.72375 110.77044 95.41125 110.77044Q96.52062 110.77044 97.13 111.317314Q97.755 111.86419 97.78625 112.817314L97.78625 115.73919Q97.78625 116.61419 98.005 117.129814L98.005 117.223564L96.86437 117.223564ZM95.0675 116.39544Q95.58312 116.39544 96.03625 116.129814Q96.48937 115.86419 96.6925 115.442314L96.6925 114.14544L95.84875 114.14544Q93.84875 114.14544 93.84875 115.317314Q93.84875 115.817314 94.1925 116.11419Q94.53625 116.39544 95.0675 116.39544ZM103.02062 111.848564Q102.77062 111.817314 102.48937 111.817314Q101.41125 111.817314 101.03625 112.723564L101.03625 117.223564L99.95812 117.223564L99.95812 110.879814L101.005 110.879814L101.02062 111.61419Q101.55187 110.77044 102.53625 110.77044Q102.84875 110.77044 103.02062 110.848564L103.02062 111.848564ZM107.86437 117.223564Q107.77062 117.036064 107.70812 116.55169Q106.95812 117.348564 105.91125 117.348564Q104.97375 117.348564 104.36437 116.817314Q103.77062 116.286064 103.77062 115.45794Q103.77062 114.473564 104.52062 113.92669Q105.27062 113.379814 106.64562 113.379814L107.6925 113.379814L107.6925 112.879814Q107.6925 112.317314 107.34875 111.98919Q107.02062 111.64544 106.34875 111.64544Q105.77062 111.64544 105.38 111.942314Q104.98937 112.223564 104.98937 112.64544L103.89562 112.64544Q103.89562 112.161064 104.22375 111.723564Q104.5675 111.286064 105.14562 111.036064Q105.72375 110.77044 106.41125 110.77044Q107.52062 110.77044 108.13 111.317314Q108.755 111.86419 108.78625 112.817314L108.78625 115.73919Q108.78625 116.61419 109.005 117.129814L109.005 117.223564L107.86437 117.223564ZM106.0675 116.39544Q106.58312 116.39544 107.03625 116.129814Q107.48937 115.86419 107.6925 115.442314L107.6925 114.14544L106.84875 114.14544Q104.84875 114.14544 104.84875 115.317314Q104.84875 115.817314 105.1925 116.11419Q105.53625 116.39544 106.0675 116.39544ZM112.13 117.223564L111.05187 117.223564L111.05187 108.223564L112.13 108.223564L112.13 117.223564ZM115.13 117.223564L114.05187 117.223564L114.05187 108.223564L115.13 108.223564L115.13 117.223564ZM119.58312 117.348564Q118.28625 117.348564 117.47375 116.504814Q116.67687 115.64544 116.67687 114.223564L116.67687 114.036064Q116.67687 113.08294 117.03625 112.348564Q117.39562 111.598564 118.03625 111.192314Q118.6925 110.77044 119.4425 110.77044Q120.67687 110.77044 121.36437 111.58294Q122.05187 112.39544 122.05187 113.911064L122.05187 114.36419L117.755 114.36419Q117.78625 115.30169 118.30187 115.879814Q118.83312 116.45794 119.64562 116.45794Q120.20812 116.45794 120.59875 116.223564Q121.005 115.98919 121.3175 115.598564L121.97375 116.11419Q121.17687 117.348564 119.58312 117.348564ZM119.4425 111.661064Q118.78625 111.661064 118.33312 112.14544Q117.89562 112.61419 117.80187 113.473564L120.97375 113.473564L120.97375 113.39544Q120.92687 112.567314 120.52062 112.11419Q120.13 111.661064 119.4425 111.661064ZM124.13 117.223564L123.05187 117.223564L123.05187 108.223564L124.13 108.223564L124.13 117.223564ZM129.64563 115.536064Q129.64563 115.098564 129.30188 114.86419Q128.97375 114.61419 128.14563 114.442314Q127.33312 114.27044 126.84875 114.02044Q126.36437 113.77044 126.13 113.442314Q125.91125 113.098564 125.91125 112.629814Q125.91125 111.848564 126.5675 111.317314Q127.22375 110.77044 128.255 110.77044Q129.33313 110.77044 129.98938 111.33294Q130.66125 111.879814 130.66125 112.73919L129.58313 112.73919Q129.58313 112.30169 129.1925 111.98919Q128.8175 111.661064 128.255 111.661064Q127.66125 111.661064 127.3175 111.92669Q126.98937 112.17669 126.98937 112.58294Q126.98937 112.973564 127.30187 113.17669Q127.61437 113.379814 128.42688 113.567314Q129.23938 113.73919 129.73938 113.98919Q130.23938 114.23919 130.47375 114.598564Q130.72375 114.95794 130.72375 115.45794Q130.72375 116.317314 130.03625 116.83294Q129.36438 117.348564 128.28625 117.348564Q127.52062 117.348564 126.92687 117.08294Q126.34875 116.80169 126.02062 116.317314Q125.6925 115.83294 125.6925 115.27044L126.77062 115.27044Q126.80187 115.817314 127.20812 116.14544Q127.61437 116.45794 128.28625 116.45794Q128.89563 116.45794 129.27063 116.20794Q129.64563 115.95794 129.64563 115.536064Z" fill-rule="nonzero"/><path fill="#757575" d="M97.30187 134.76965Q97.30187 136.20715 96.64562 137.09778Q95.98937 137.9884 94.84875 137.9884Q93.6925 137.9884 93.03625 137.25403L93.03625 140.3009L91.95812 140.3009L91.95812 131.51965L92.9425 131.51965L92.98937 132.22278Q93.66125 131.41028 94.83312 131.41028Q95.97375 131.41028 96.63 132.26965Q97.30187 133.12903 97.30187 134.66028L97.30187 134.76965ZM96.22375 134.64465Q96.22375 133.56653 95.755 132.95715Q95.30187 132.33215 94.505 132.33215Q93.52062 132.33215 93.03625 133.19153L93.03625 136.22278Q93.52062 137.09778 94.52062 137.09778Q95.30187 137.09778 95.755 136.4884Q96.22375 135.8634 96.22375 134.64465ZM102.86437 137.8634Q102.77062 137.6759 102.70812 137.19153Q101.95812 137.9884 100.91125 137.9884Q99.97375 137.9884 99.36437 137.45715Q98.77062 136.9259 98.77062 136.09778Q98.77062 135.1134 99.52062 134.56653Q100.27062 134.01965 101.64562 134.01965L102.6925 134.01965L102.6925 133.51965Q102.6925 132.95715 102.34875 132.62903Q102.02062 132.28528 101.34875 132.28528Q100.77062 132.28528 100.38 132.58215Q99.98937 132.8634 99.98937 133.28528L98.89562 133.28528Q98.89562 132.8009 99.22375 132.3634Q99.5675 131.9259 100.14562 131.6759Q100.72375 131.41028 101.41125 131.41028Q102.52062 131.41028 103.13 131.95715Q103.755 132.50403 103.78625 133.45715L103.78625 136.37903Q103.78625 137.25403 104.005 137.76965L104.005 137.8634L102.86437 137.8634ZM101.0675 137.03528Q101.58312 137.03528 102.03625 136.76965Q102.48937 136.50403 102.6925 136.08215L102.6925 134.78528L101.84875 134.78528Q99.84875 134.78528 99.84875 135.95715Q99.84875 136.45715 100.1925 136.75403Q100.53625 137.03528 101.0675 137.03528ZM109.02062 132.4884Q108.77062 132.45715 108.48937 132.45715Q107.41125 132.45715 107.03625 133.3634L107.03625 137.8634L105.95812 137.8634L105.95812 131.51965L107.005 131.51965L107.02062 132.25403Q107.55187 131.41028 108.53625 131.41028Q108.84875 131.41028 109.02062 131.4884L109.02062 132.4884ZM113.86437 137.8634Q113.77062 137.6759 113.70812 137.19153Q112.95812 137.9884 111.91125 137.9884Q110.97375 137.9884 110.36437 137.45715Q109.77062 136.9259 109.77062 136.09778Q109.77062 135.1134 110.52062 134.56653Q111.27062 134.01965 112.64562 134.01965L113.6925 134.01965L113.6925 133.51965Q113.6925 132.95715 113.34875 132.62903Q113.02062 132.28528 112.34875 132.28528Q111.77062 132.28528 111.38 132.58215Q110.98937 132.8634 110.98937 133.28528L109.89562 133.28528Q109.89562 132.8009 110.22375 132.3634Q110.5675 131.9259 111.14562 131.6759Q111.72375 131.41028 112.41125 131.41028Q113.52062 131.41028 114.13 131.95715Q114.755 132.50403 114.78625 133.45715L114.78625 136.37903Q114.78625 137.25403 115.005 137.76965L115.005 137.8634L113.86437 137.8634ZM112.0675 137.03528Q112.58312 137.03528 113.03625 136.76965Q113.48937 136.50403 113.6925 136.08215L113.6925 134.78528L112.84875 134.78528Q110.84875 134.78528 110.84875 135.95715Q110.84875 136.45715 111.1925 136.75403Q111.53625 137.03528 112.0675 137.03528ZM118.13 137.8634L117.05187 137.8634L117.05187 128.8634L118.13 128.8634L118.13 137.8634ZM121.13 137.8634L120.05187 137.8634L120.05187 128.8634L121.13 128.8634L121.13 137.8634ZM125.58312 137.9884Q124.28625 137.9884 123.47375 137.14465Q122.67687 136.28528 122.67687 134.8634L122.67687 134.6759Q122.67687 133.72278 123.03625 132.9884Q123.39562 132.2384 124.03625 131.83215Q124.6925 131.41028 125.4425 131.41028Q126.67687 131.41028 127.36437 132.22278Q128.05188 133.03528 128.05188 134.5509L128.05188 135.00403L123.755 135.00403Q123.78625 135.94153 124.30187 136.51965Q124.83312 137.09778 125.64562 137.09778Q126.20812 137.09778 126.59875 136.8634Q127.005 136.62903 127.3175 136.2384L127.97375 136.75403Q127.17687 137.9884 125.58312 137.9884ZM125.4425 132.3009Q124.78625 132.3009 124.33312 132.78528Q123.89562 133.25403 123.80187 134.1134L126.97375 134.1134L126.97375 134.03528Q126.92687 133.20715 126.52062 132.75403Q126.13 132.3009 125.4425 132.3009ZM130.13 137.8634L129.05188 137.8634L129.05188 128.8634L130.13 128.8634L130.13 137.8634Z" fill-rule="nonzero"/><path fill="#757575" d="M44.301876 164.76965Q44.301876 166.20715 43.645626 167.09778Q42.989376 167.9884 41.84875 167.9884Q40.6925 167.9884 40.03625 167.25403L40.03625 170.3009L38.958126 170.3009L38.958126 161.51965L39.9425 161.51965L39.989376 162.22278Q40.66125 161.41028 41.833126 161.41028Q42.97375 161.41028 43.63 162.26965Q44.301876 163.12903 44.301876 164.66028L44.301876 164.76965ZM43.22375 164.64465Q43.22375 163.56653 42.755 162.95715Q42.301876 162.33215 41.505 162.33215Q40.520626 162.33215 40.03625 163.19153L40.03625 166.22278Q40.520626 167.09778 41.520626 167.09778Q42.301876 167.09778 42.755 166.4884Q43.22375 165.8634 43.22375 164.64465ZM49.864376 167.8634Q49.770626 167.6759 49.708126 167.19153Q48.958126 167.9884 47.91125 167.9884Q46.97375 167.9884 46.364376 167.45715Q45.770626 166.9259 45.770626 166.09778Q45.770626 165.1134 46.520626 164.56653Q47.270626 164.01965 48.645626 164.01965L49.6925 164.01965L49.6925 163.51965Q49.6925 162.95715 49.34875 162.62903Q49.020626 162.28528 48.34875 162.28528Q47.770626 162.28528 47.38 162.58215Q46.989376 162.8634 46.989376 163.28528L45.895626 163.28528Q45.895626 162.8009 46.22375 162.3634Q46.5675 161.9259 47.145626 161.6759Q47.72375 161.41028 48.41125 161.41028Q49.520626 161.41028 50.13 161.95715Q50.755 162.50403 50.78625 163.45715L50.78625 166.37903Q50.78625 167.25403 51.005 167.76965L51.005 167.8634L49.864376 167.8634ZM48.0675 167.03528Q48.583126 167.03528 49.03625 166.76965Q49.489376 166.50403 49.6925 166.08215L49.6925 164.78528L48.84875 164.78528Q46.84875 164.78528 46.84875 165.95715Q46.84875 166.45715 47.1925 166.75403Q47.53625 167.03528 48.0675 167.03528ZM56.020626 162.4884Q55.770626 162.45715 55.489376 162.45715Q54.41125 162.45715 54.03625 163.3634L54.03625 167.8634L52.958126 167.8634L52.958126 161.51965L54.005 161.51965L54.020626 162.25403Q54.551876 161.41028 55.53625 161.41028Q55.84875 161.41028 56.020626 161.4884L56.020626 162.4884ZM60.864376 167.8634Q60.770626 167.6759 60.708126 167.19153Q59.958126 167.9884 58.91125 167.9884Q57.97375 167.9884 57.364376 167.45715Q56.770626 166.9259 56.770626 166.09778Q56.770626 165.1134 57.520626 164.56653Q58.270626 164.01965 59.645626 164.01965L60.6925 164.01965L60.6925 163.51965Q60.6925 162.95715 60.34875 162.62903Q60.020626 162.28528 59.34875 162.28528Q58.770626 162.28528 58.38 162.58215Q57.989376 162.8634 57.989376 163.28528L56.895626 163.28528Q56.895626 162.8009 57.22375 162.3634Q57.5675 161.9259 58.145626 161.6759Q58.72375 161.41028 59.41125 161.41028Q60.520626 161.41028 61.13 161.95715Q61.755 162.50403 61.78625 163.45715L61.78625 166.37903Q61.78625 167.25403 62.005 167.76965L62.005 167.8634L60.864376 167.8634ZM59.0675 167.03528Q59.583126 167.03528 60.03625 166.76965Q60.489376 166.50403 60.6925 166.08215L60.6925 164.78528L59.84875 164.78528Q57.84875 164.78528 57.84875 165.95715Q57.84875 166.45715 58.1925 166.75403Q58.53625 167.03528 59.0675 167.03528ZM65.130005 167.8634L64.05188 167.8634L64.05188 158.8634L65.130005 158.8634L65.130005 167.8634ZM68.130005 167.8634L67.05188 167.8634L67.05188 158.8634L68.130005 158.8634L68.130005 167.8634ZM72.58313 167.9884Q71.286255 167.9884 70.473755 167.14465Q69.67688 166.28528 69.67688 164.8634L69.67688 164.6759Q69.67688 163.72278 70.036255 162.9884Q70.39563 162.2384 71.036255 161.83215Q71.692505 161.41028 72.442505 161.41028Q73.67688 161.41028 74.36438 162.22278Q75.05188 163.03528 75.05188 164.5509L75.05188 165.00403L70.755005 165.00403Q70.786255 165.94153 71.30188 166.51965Q71.83313 167.09778 72.64563 167.09778Q73.20813 167.09778 73.598755 166.8634Q74.005005 166.62903 74.317505 166.2384L74.973755 166.75403Q74.17688 167.9884 72.58313 167.9884ZM72.442505 162.3009Q71.786255 162.3009 71.33313 162.78528Q70.89563 163.25403 70.80188 164.1134L73.973755 164.1134L73.973755 164.03528Q73.92688 163.20715 73.52063 162.75403Q73.130005 162.3009 72.442505 162.3009ZM77.130005 167.8634L76.05188 167.8634L76.05188 158.8634L77.130005 158.8634L77.130005 167.8634ZM81.58313 167.9884Q80.286255 167.9884 79.473755 167.14465Q78.67688 166.28528 78.67688 164.8634L78.67688 164.6759Q78.67688 163.72278 79.036255 162.9884Q79.39563 162.2384 80.036255 161.83215Q80.692505 161.41028 81.442505 161.41028Q82.67688 161.41028 83.36438 162.22278Q84.05188 163.03528 84.05188 164.5509L84.05188 165.00403L79.755005 165.00403Q79.786255 165.94153 80.30188 166.51965Q80.83313 167.09778 81.64563 167.09778Q82.20813 167.09778 82.598755 166.8634Q83.005005 166.62903 83.317505 166.2384L83.973755 166.75403Q83.17688 167.9884 81.58313 167.9884ZM81.442505 162.3009Q80.786255 162.3009 80.33313 162.78528Q79.89563 163.25403 79.80188 164.1134L82.973755 164.1134L82.973755 164.03528Q82.92688 163.20715 82.52063 162.75403Q82.130005 162.3009 81.442505 162.3009ZM84.911255 169.56653L84.30188 169.14465Q84.848755 168.37903 84.880005 167.5509L84.880005 166.58215L85.942505 166.58215L85.942505 167.4259Q85.942505 168.01965 85.64563 168.6134Q85.348755 169.20715 84.911255 169.56653ZM95.30188 164.76965Q95.30188 166.20715 94.64563 167.09778Q93.98938 167.9884 92.848755 167.9884Q91.692505 167.9884 91.036255 167.25403L91.036255 170.3009L89.95813 170.3009L89.95813 161.51965L90.942505 161.51965L90.98938 162.22278Q91.661255 161.41028 92.83313 161.41028Q93.973755 161.41028 94.630005 162.26965Q95.30188 163.12903 95.30188 164.66028L95.30188 164.76965ZM94.223755 164.64465Q94.223755 163.56653 93.755005 162.95715Q93.30188 162.33215 92.505005 162.33215Q91.52063 162.33215 91.036255 163.19153L91.036255 166.22278Q91.52063 167.09778 92.52063 167.09778Q93.30188 167.09778 93.755005 166.4884Q94.223755 165.8634 94.223755 164.64465ZM100.86438 167.8634Q100.77063 167.6759 100.70813 167.19153Q99.95813 167.9884 98.911255 167.9884Q97.973755 167.9884 97.36438 167.45715Q96.77063 166.9259 96.77063 166.09778Q96.77063 165.1134 97.52063 164.56653Q98.27063 164.01965 99.64563 164.01965L100.692505 164.01965L100.692505 163.51965Q100.692505 162.95715 100.348755 162.62903Q100.02063 162.28528 99.348755 162.28528Q98.77063 162.28528 98.380005 162.58215Q97.98938 162.8634 97.98938 163.28528L96.89563 163.28528Q96.89563 162.8009 97.223755 162.3634Q97.567505 161.9259 98.14563 161.6759Q98.723755 161.41028 99.411255 161.41028Q100.52063 161.41028 101.130005 161.95715Q101.755005 162.50403 101.786255 163.45715L101.786255 166.37903Q101.786255 167.25403 102.005005 167.76965L102.005005 167.8634L100.86438 167.8634ZM99.067505 167.03528Q99.58313 167.03528 100.036255 166.76965Q100.48938 166.50403 100.692505 166.08215L100.692505 164.78528L99.848755 164.78528Q97.848755 164.78528 97.848755 165.95715Q97.848755 166.45715 98.192505 166.75403Q98.536255 167.03528 99.067505 167.03528ZM107.02063 162.4884Q106.77063 162.45715 106.48938 162.45715Q105.411255 162.45715 105.036255 163.3634L105.036255 167.8634L103.95813 167.8634L103.95813 161.51965L105.005005 161.51965L105.02063 162.25403Q105.55188 161.41028 106.536255 161.41028Q106.848755 161.41028 107.02063 161.4884L107.02063 162.4884ZM111.86438 167.8634Q111.77063 167.6759 111.70813 167.19153Q110.95813 167.9884 109.911255 167.9884Q108.973755 167.9884 108.36438 167.45715Q107.77063 166.9259 107.77063 166.09778Q107.77063 165.1134 108.52063 164.56653Q109.27063 164.01965 110.64563 164.01965L111.692505 164.01965L111.692505 163.51965Q111.692505 162.95715 111.348755 162.62903Q111.02063 162.28528 110.348755 162.28528Q109.77063 162.28528 109.380005 162.58215Q108.98938 162.8634 108.98938 163.28528L107.89563 163.28528Q107.89563 162.8009 108.223755 162.3634Q108.567505 161.9259 109.14563 161.6759Q109.723755 161.41028 110.411255 161.41028Q111.52063 161.41028 112.130005 161.95715Q112.755005 162.50403 112.786255 163.45715L112.786255 166.37903Q112.786255 167.25403 113.005005 167.76965L113.005005 167.8634L111.86438 167.8634ZM110.067505 167.03528Q110.58313 167.03528 111.036255 166.76965Q111.48938 166.50403 111.692505 166.08215L111.692505 164.78528L110.848755 164.78528Q108.848755 164.78528 108.848755 165.95715Q108.848755 166.45715 109.192505 166.75403Q109.536255 167.03528 110.067505 167.03528ZM116.130005 167.8634L115.05188 167.8634L115.05188 158.8634L116.130005 158.8634L116.130005 167.8634ZM119.130005 167.8634L118.05188 167.8634L118.05188 158.8634L119.130005 158.8634L119.130005 167.8634ZM123.58313 167.9884Q122.286255 167.9884 121.473755 167.14465Q120.67688 166.28528 120.67688 164.8634L120.67688 164.6759Q120.67688 163.72278 121.036255 162.9884Q121.39563 162.2384 122.036255 161.83215Q122.692505 161.41028 123.442505 161.41028Q124.67688 161.41028 125.36438 162.22278Q126.05188 163.03528 126.05188 164.5509L126.05188 165.00403L121.755005 165.00403Q121.786255 165.94153 122.30188 166.51965Q122.83313 167.09778 123.64563 167.09778Q124.20813 167.09778 124.598755 166.8634Q125.005005 166.62903 125.317505 166.2384L125.973755 166.75403Q125.17688 167.9884 123.58313 167.9884ZM123.442505 162.3009Q122.786255 162.3009 122.33313 162.78528Q121.89563 163.25403 121.80188 164.1134L124.973755 164.1134L124.973755 164.03528Q124.92688 163.20715 124.52063 162.75403Q124.130005 162.3009 123.442505 162.3009ZM128.13 167.8634L127.05188 167.8634L127.05188 158.8634L128.13 158.8634L128.13 167.8634ZM129.91125 169.56653L129.30188 169.14465Q129.84875 168.37903 129.88 167.5509L129.88 166.58215L130.9425 166.58215L130.9425 167.4259Q130.9425 168.01965 130.64563 168.6134Q130.34875 169.20715 129.91125 169.56653Z" fill-rule="nonzero"/><path fill="#757575" d="M91.30187 179.76965Q91.30187 181.20715 90.64562 182.09778Q89.98937 182.9884 88.84875 182.9884Q87.6925 182.9884 87.03625 182.25403L87.03625 185.3009L85.95812 185.3009L85.95812 176.51965L86.9425 176.51965L86.98937 177.22278Q87.66125 176.41028 88.83312 176.41028Q89.97375 176.41028 90.63 177.26965Q91.30187 178.12903 91.30187 179.66028L91.30187 179.76965ZM90.22375 179.64465Q90.22375 178.56653 89.755 177.95715Q89.30187 177.33215 88.505 177.33215Q87.52062 177.33215 87.03625 178.19153L87.03625 181.22278Q87.52062 182.09778 88.52062 182.09778Q89.30187 182.09778 89.755 181.4884Q90.22375 180.8634 90.22375 179.64465ZM96.86437 182.8634Q96.77062 182.6759 96.70812 182.19153Q95.95812 182.9884 94.91125 182.9884Q93.97375 182.9884 93.36437 182.45715Q92.77062 181.9259 92.77062 181.09778Q92.77062 180.1134 93.52062 179.56653Q94.27062 179.01965 95.64562 179.01965L96.6925 179.01965L96.6925 178.51965Q96.6925 177.95715 96.34875 177.62903Q96.02062 177.28528 95.34875 177.28528Q94.77062 177.28528 94.38 177.58215Q93.98937 177.8634 93.98937 178.28528L92.89562 178.28528Q92.89562 177.8009 93.22375 177.3634Q93.5675 176.9259 94.14562 176.6759Q94.72375 176.41028 95.41125 176.41028Q96.52062 176.41028 97.13 176.95715Q97.755 177.50403 97.78625 178.45715L97.78625 181.37903Q97.78625 182.25403 98.005 182.76965L98.005 182.8634L96.86437 182.8634ZM95.0675 182.03528Q95.58312 182.03528 96.03625 181.76965Q96.48937 181.50403 96.6925 181.08215L96.6925 179.78528L95.84875 179.78528Q93.84875 179.78528 93.84875 180.95715Q93.84875 181.45715 94.1925 181.75403Q94.53625 182.03528 95.0675 182.03528ZM103.02062 177.4884Q102.77062 177.45715 102.48937 177.45715Q101.41125 177.45715 101.03625 178.3634L101.03625 182.8634L99.95812 182.8634L99.95812 176.51965L101.005 176.51965L101.02062 177.25403Q101.55187 176.41028 102.53625 176.41028Q102.84875 176.41028 103.02062 176.4884L103.02062 177.4884ZM107.86437 182.8634Q107.77062 182.6759 107.70812 182.19153Q106.95812 182.9884 105.91125 182.9884Q104.97375 182.9884 104.36437 182.45715Q103.77062 181.9259 103.77062 181.09778Q103.77062 180.1134 104.52062 179.56653Q105.27062 179.01965 106.64562 179.01965L107.6925 179.01965L107.6925 178.51965Q107.6925 177.95715 107.34875 177.62903Q107.02062 177.28528 106.34875 177.28528Q105.77062 177.28528 105.38 177.58215Q104.98937 177.8634 104.98937 178.28528L103.89562 178.28528Q103.89562 177.8009 104.22375 177.3634Q104.5675 176.9259 105.14562 176.6759Q105.72375 176.41028 106.41125 176.41028Q107.52062 176.41028 108.13 176.95715Q108.755 177.50403 108.78625 178.45715L108.78625 181.37903Q108.78625 182.25403 109.005 182.76965L109.005 182.8634L107.86437 182.8634ZM106.0675 182.03528Q106.58312 182.03528 107.03625 181.76965Q107.48937 181.50403 107.6925 181.08215L107.6925 179.78528L106.84875 179.78528Q104.84875 179.78528 104.84875 180.95715Q104.84875 181.45715 105.1925 181.75403Q105.53625 182.03528 106.0675 182.03528ZM112.13 182.8634L111.05187 182.8634L111.05187 173.8634L112.13 173.8634L112.13 182.8634ZM115.13 182.8634L114.05187 182.8634L114.05187 173.8634L115.13 173.8634L115.13 182.8634ZM119.58312 182.9884Q118.28625 182.9884 117.47375 182.14465Q116.67687 181.28528 116.67687 179.8634L116.67687 179.6759Q116.67687 178.72278 117.03625 177.9884Q117.39562 177.2384 118.03625 176.83215Q118.6925 176.41028 119.4425 176.41028Q120.67687 176.41028 121.36437 177.22278Q122.05187 178.03528 122.05187 179.5509L122.05187 180.00403L117.755 180.00403Q117.78625 180.94153 118.30187 181.51965Q118.83312 182.09778 119.64562 182.09778Q120.20812 182.09778 120.59875 181.8634Q121.005 181.62903 121.3175 181.2384L121.97375 181.75403Q121.17687 182.9884 119.58312 182.9884ZM119.4425 177.3009Q118.78625 177.3009 118.33312 177.78528Q117.89562 178.25403 117.80187 179.1134L120.97375 179.1134L120.97375 179.03528Q120.92687 178.20715 120.52062 177.75403Q120.13 177.3009 119.4425 177.3009ZM124.13 182.8634L123.05187 182.8634L123.05187 173.8634L124.13 173.8634L124.13 182.8634ZM129.64563 181.1759Q129.64563 180.7384 129.30188 180.50403Q128.97375 180.25403 128.14563 180.08215Q127.33312 179.91028 126.84875 179.66028Q126.36437 179.41028 126.13 179.08215Q125.91125 178.7384 125.91125 178.26965Q125.91125 177.4884 126.5675 176.95715Q127.22375 176.41028 128.255 176.41028Q129.33313 176.41028 129.98938 176.97278Q130.66125 177.51965 130.66125 178.37903L129.58313 178.37903Q129.58313 177.94153 129.1925 177.62903Q128.8175 177.3009 128.255 177.3009Q127.66125 177.3009 127.3175 177.56653Q126.98937 177.81653 126.98937 178.22278Q126.98937 178.6134 127.30187 178.81653Q127.61437 179.01965 128.42688 179.20715Q129.23938 179.37903 129.73938 179.62903Q130.23938 179.87903 130.47375 180.2384Q130.72375 180.59778 130.72375 181.09778Q130.72375 181.95715 130.03625 182.47278Q129.36438 182.9884 128.28625 182.9884Q127.52062 182.9884 126.92687 182.72278Q126.34875 182.44153 126.02062 181.95715Q125.6925 181.47278 125.6925 180.91028L126.77062 180.91028Q126.80187 181.45715 127.20812 181.78528Q127.61437 182.09778 128.28625 182.09778Q128.89563 182.09778 129.27063 181.84778Q129.64563 181.59778 129.64563 181.1759Z" fill-rule="nonzero"/><path fill="#757575" d="M105.02062 205.62825Q104.77062 205.597 104.48937 205.597Q103.41125 205.597 103.03625 206.50325L103.03625 211.00325L101.95812 211.00325L101.95812 204.6595L103.005 204.6595L103.02062 205.39388Q103.55187 204.55013 104.53625 204.55013Q104.84875 204.55013 105.02062 204.62825L105.02062 205.62825ZM108.58312 211.12825Q107.28625 211.12825 106.47375 210.2845Q105.67687 209.42513 105.67687 208.00325L105.67687 207.81575Q105.67687 206.86263 106.03625 206.12825Q106.39562 205.37825 107.03625 204.972Q107.6925 204.55013 108.4425 204.55013Q109.67687 204.55013 110.36437 205.36263Q111.05187 206.17513 111.05187 207.69075L111.05187 208.14388L106.755 208.14388Q106.78625 209.08138 107.30187 209.6595Q107.83312 210.23763 108.64562 210.23763Q109.20812 210.23763 109.59875 210.00325Q110.005 209.76888 110.3175 209.37825L110.97375 209.89388Q110.17687 211.12825 108.58312 211.12825ZM108.4425 205.44075Q107.78625 205.44075 107.33312 205.92513Q106.89562 206.39388 106.80187 207.25325L109.97375 207.25325L109.97375 207.17513Q109.92687 206.347 109.52062 205.89388Q109.13 205.44075 108.4425 205.44075ZM114.48937 210.23763Q115.0675 210.23763 115.505 209.89388Q115.9425 209.5345 115.98937 209.00325L117.02062 209.00325Q116.98937 209.55013 116.63 210.05013Q116.28625 210.5345 115.70812 210.83138Q115.14562 211.12825 114.48937 211.12825Q113.1925 211.12825 112.42687 210.26888Q111.67687 209.39388 111.67687 207.89388L111.67687 207.70638Q111.67687 206.7845 112.005 206.06575Q112.34875 205.347 112.97375 204.95638Q113.61437 204.55013 114.48937 204.55013Q115.55187 204.55013 116.255 205.19075Q116.97375 205.81575 117.02062 206.847L115.98937 206.847Q115.9425 206.222 115.52062 205.83138Q115.09875 205.44075 114.48937 205.44075Q113.66125 205.44075 113.20812 206.0345Q112.755 206.62825 112.755 207.75325L112.755 207.95638Q112.755 209.05013 113.20812 209.64388Q113.66125 210.23763 114.48937 210.23763ZM119.03625 205.42513Q119.755 204.55013 120.91125 204.55013Q122.92687 204.55013 122.9425 206.81575L122.9425 211.00325L121.84875 211.00325L121.84875 206.80013Q121.84875 206.12825 121.53625 205.80013Q121.23937 205.472 120.58312 205.472Q120.05187 205.472 119.64562 205.75325Q119.255 206.0345 119.03625 206.48763L119.03625 211.00325L117.95812 211.00325L117.95812 202.00325L119.03625 202.00325L119.03625 205.42513ZM125.97375 204.6595L126.005 205.45638Q126.73937 204.55013 127.91125 204.55013Q129.92688 204.55013 129.9425 206.81575L129.9425 211.00325L128.84875 211.00325L128.84875 206.80013Q128.84875 206.12825 128.53625 205.80013Q128.23938 205.472 127.58312 205.472Q127.05187 205.472 126.64562 205.75325Q126.255 206.0345 126.03625 206.48763L126.03625 211.00325L124.95812 211.00325L124.95812 204.6595L125.97375 204.6595Z" fill-rule="nonzero"/><path fill="#757575" d="M57.020626 235.62825Q56.770626 235.597 56.489376 235.597Q55.41125 235.597 55.03625 236.50325L55.03625 241.00325L53.958126 241.00325L53.958126 234.6595L55.005 234.6595L55.020626 235.39388Q55.551876 234.55013 56.53625 234.55013Q56.84875 234.55013 57.020626 234.62825L57.020626 235.62825ZM60.583126 241.12825Q59.28625 241.12825 58.47375 240.2845Q57.676876 239.42513 57.676876 238.00325L57.676876 237.81575Q57.676876 236.86263 58.03625 236.12825Q58.395626 235.37825 59.03625 234.972Q59.6925 234.55013 60.4425 234.55013Q61.676876 234.55013 62.364376 235.36263Q63.051876 236.17513 63.051876 237.69075L63.051876 238.14388L58.755 238.14388Q58.78625 239.08138 59.301876 239.6595Q59.833126 240.23763 60.645626 240.23763Q61.208126 240.23763 61.59875 240.00325Q62.005 239.76888 62.3175 239.37825L62.97375 239.89388Q62.176876 241.12825 60.583126 241.12825ZM60.4425 235.44075Q59.78625 235.44075 59.333126 235.92513Q58.895626 236.39388 58.801876 237.25325L61.97375 237.25325L61.97375 237.17513Q61.926876 236.347 61.520626 235.89388Q61.13 235.44075 60.4425 235.44075ZM66.48938 240.23763Q67.067505 240.23763 67.505005 239.89388Q67.942505 239.5345 67.98938 239.00325L69.02063 239.00325Q68.98938 239.55013 68.630005 240.05013Q68.286255 240.5345 67.70813 240.83138Q67.14563 241.12825 66.48938 241.12825Q65.192505 241.12825 64.42688 240.26888Q63.676876 239.39388 63.676876 237.89388L63.676876 237.70638Q63.676876 236.7845 64.005005 236.06575Q64.348755 235.347 64.973755 234.95638Q65.61438 234.55013 66.48938 234.55013Q67.55188 234.55013 68.255005 235.19075Q68.973755 235.81575 69.02063 236.847L67.98938 236.847Q67.942505 236.222 67.52063 235.83138Q67.098755 235.44075 66.48938 235.44075Q65.661255 235.44075 65.20813 236.0345Q64.755005 236.62825 64.755005 237.75325L64.755005 237.95638Q64.755005 239.05013 65.20813 239.64388Q65.661255 240.23763 66.48938 240.23763ZM71.036255 235.42513Q71.755005 234.55013 72.911255 234.55013Q74.92688 234.55013 74.942505 236.81575L74.942505 241.00325L73.848755 241.00325L73.848755 236.80013Q73.848755 236.12825 73.536255 235.80013Q73.23938 235.472 72.58313 235.472Q72.05188 235.472 71.64563 235.75325Q71.255005 236.0345 71.036255 236.48763L71.036255 241.00325L69.95813 241.00325L69.95813 232.00325L71.036255 232.00325L71.036255 235.42513ZM77.973755 234.6595L78.005005 235.45638Q78.73938 234.55013 79.911255 234.55013Q81.92688 234.55013 81.942505 236.81575L81.942505 241.00325L80.848755 241.00325L80.848755 236.80013Q80.848755 236.12825 80.536255 235.80013Q80.23938 235.472 79.58313 235.472Q79.05188 235.472 78.64563 235.75325Q78.255005 236.0345 78.036255 236.48763L78.036255 241.00325L76.95813 241.00325L76.95813 234.6595L77.973755 234.6595ZM86.58313 241.12825Q85.286255 241.12825 84.473755 240.2845Q83.67688 239.42513 83.67688 238.00325L83.67688 237.81575Q83.67688 236.86263 84.036255 236.12825Q84.39563 235.37825 85.036255 234.972Q85.692505 234.55013 86.442505 234.55013Q87.67688 234.55013 88.36438 235.36263Q89.05188 236.17513 89.05188 237.69075L89.05188 238.14388L84.755005 238.14388Q84.786255 239.08138 85.30188 239.6595Q85.83313 240.23763 86.64563 240.23763Q87.20813 240.23763 87.598755 240.00325Q88.005005 239.76888 88.317505 239.37825L88.973755 239.89388Q88.17688 241.12825 86.58313 241.12825ZM86.442505 235.44075Q85.786255 235.44075 85.33313 235.92513Q84.89563 236.39388 84.80188 237.25325L87.973755 237.25325L87.973755 237.17513Q87.92688 236.347 87.52063 235.89388Q87.130005 235.44075 86.442505 235.44075ZM90.973755 234.6595L91.005005 235.45638Q91.73938 234.55013 92.911255 234.55013Q94.92688 234.55013 94.942505 236.81575L94.942505 241.00325L93.848755 241.00325L93.848755 236.80013Q93.848755 236.12825 93.536255 235.80013Q93.23938 235.472 92.58313 235.472Q92.05188 235.472 91.64563 235.75325Q91.255005 236.0345 91.036255 236.48763L91.036255 241.00325L89.95813 241.00325L89.95813 234.6595L90.973755 234.6595ZM96.911255 242.70638L96.30188 242.2845Q96.848755 241.51888 96.880005 240.69075L96.880005 239.722L97.942505 239.722L97.942505 240.56575Q97.942505 241.1595 97.64563 241.75325Q97.348755 242.347 96.911255 242.70638ZM105.02063 235.62825Q104.77063 235.597 104.48938 235.597Q103.411255 235.597 103.036255 236.50325L103.036255 241.00325L101.95813 241.00325L101.95813 234.6595L103.005005 234.6595L103.02063 235.39388Q103.55188 234.55013 104.536255 234.55013Q104.848755 234.55013 105.02063 234.62825L105.02063 235.62825ZM108.58313 241.12825Q107.286255 241.12825 106.473755 240.2845Q105.67688 239.42513 105.67688 238.00325L105.67688 237.81575Q105.67688 236.86263 106.036255 236.12825Q106.39563 235.37825 107.036255 234.972Q107.692505 234.55013 108.442505 234.55013Q109.67688 234.55013 110.36438 235.36263Q111.05188 236.17513 111.05188 237.69075L111.05188 238.14388L106.755005 238.14388Q106.786255 239.08138 107.30188 239.6595Q107.83313 240.23763 108.64563 240.23763Q109.20813 240.23763 109.598755 240.00325Q110.005005 239.76888 110.317505 239.37825L110.973755 239.89388Q110.17688 241.12825 108.58313 241.12825ZM108.442505 235.44075Q107.786255 235.44075 107.33313 235.92513Q106.89563 236.39388 106.80188 237.25325L109.973755 237.25325L109.973755 237.17513Q109.92688 236.347 109.52063 235.89388Q109.130005 235.44075 108.442505 235.44075ZM114.48938 240.23763Q115.067505 240.23763 115.505005 239.89388Q115.942505 239.5345 115.98938 239.00325L117.02063 239.00325Q116.98938 239.55013 116.630005 240.05013Q116.286255 240.5345 115.70813 240.83138Q115.14563 241.12825 114.48938 241.12825Q113.192505 241.12825 112.42688 240.26888Q111.67688 239.39388 111.67688 237.89388L111.67688 237.70638Q111.67688 236.7845 112.005005 236.06575Q112.348755 235.347 112.973755 234.95638Q113.61438 234.55013 114.48938 234.55013Q115.55188 234.55013 116.255005 235.19075Q116.973755 235.81575 117.02063 236.847L115.98938 236.847Q115.942505 236.222 115.52063 235.83138Q115.098755 235.44075 114.48938 235.44075Q113.661255 235.44075 113.20813 236.0345Q112.755005 236.62825 112.755005 237.75325L112.755005 237.95638Q112.755005 239.05013 113.20813 239.64388Q113.661255 240.23763 114.48938 240.23763ZM119.036255 235.42513Q119.755005 234.55013 120.911255 234.55013Q122.92688 234.55013 122.942505 236.81575L122.942505 241.00325L121.848755 241.00325L121.848755 236.80013Q121.848755 236.12825 121.536255 235.80013Q121.23938 235.472 120.58313 235.472Q120.05188 235.472 119.64563 235.75325Q119.255005 236.0345 119.036255 236.48763L119.036255 241.00325L117.95813 241.00325L117.95813 232.00325L119.036255 232.00325L119.036255 235.42513ZM125.973755 234.6595L126.005005 235.45638Q126.73938 234.55013 127.911255 234.55013Q129.92688 234.55013 129.9425 236.81575L129.9425 241.00325L128.84875 241.00325L128.84875 236.80013Q128.84875 236.12825 128.53625 235.80013Q128.23938 235.472 127.58313 235.472Q127.05188 235.472 126.64563 235.75325Q126.255005 236.0345 126.036255 236.48763L126.036255 241.00325L124.95813 241.00325L124.95813 234.6595L125.973755 234.6595Z" fill-rule="nonzero"/><path fill="#757575" d="M117.48937 291.6431L117.48937 286.1431L116.48937 286.1431L116.48937 285.29935L117.48937 285.29935L117.48937 284.65872Q117.48937 283.62747 118.02062 283.0806Q118.5675 282.5181 119.5675 282.5181Q119.9425 282.5181 120.3175 282.61185L120.255 283.50247Q119.97375 283.43997 119.67687 283.43997Q119.14562 283.43997 118.84875 283.75247Q118.5675 284.06497 118.5675 284.62747L118.5675 285.29935L119.92687 285.29935L119.92687 286.1431L118.5675 286.1431L118.5675 291.6431L117.48937 291.6431ZM124.86437 291.0181Q124.23937 291.7681 123.005 291.7681Q121.98937 291.7681 121.45812 291.17435Q120.92687 290.5806 120.92687 289.42435L120.92687 285.29935L122.005 285.29935L122.005 289.3931Q122.005 290.84622 123.17687 290.84622Q124.42687 290.84622 124.83312 289.90872L124.83312 285.29935L125.92687 285.29935L125.92687 291.6431L124.89562 291.6431L124.86437 291.0181ZM121.5675 283.61185Q121.5675 283.34622 121.72375 283.17435Q121.89562 282.98685 122.20812 282.98685Q122.52062 282.98685 122.67687 283.17435Q122.84875 283.34622 122.84875 283.61185Q122.84875 283.87747 122.67687 284.04935Q122.52062 284.22122 122.20812 284.22122Q121.89562 284.22122 121.72375 284.04935Q121.5675 283.87747 121.5675 283.61185ZM124.08312 283.62747Q124.08312 283.36185 124.23937 283.17435Q124.41125 282.98685 124.72375 282.98685Q125.03625 282.98685 125.1925 283.17435Q125.36437 283.36185 125.36437 283.62747Q125.36437 283.87747 125.1925 284.06497Q125.03625 284.23685 124.72375 284.23685Q124.41125 284.23685 124.23937 284.06497Q124.08312 283.87747 124.08312 283.62747ZM131.02063 286.2681Q130.77063 286.23685 130.48938 286.23685Q129.41125 286.23685 129.03625 287.1431L129.03625 291.6431L127.95812 291.6431L127.95812 285.29935L129.005 285.29935L129.02063 286.03372Q129.55188 285.18997 130.53625 285.18997Q130.84875 285.18997 131.02063 285.2681L131.02063 286.2681Z" fill-rule="nonzero"/><path fill="#757575" d="M139.6925 345.8094Q139.6925 347.71564 139.03625 348.65314Q138.39563 349.575 137.005 349.575Q135.64563 349.575 134.98938 348.66876Q134.33313 347.7625 134.30188 345.95L134.30188 344.5125Q134.30188 342.6219 134.9425 341.71564Q135.59875 340.79376 136.98938 340.79376Q138.36438 340.79376 139.02063 341.6844Q139.67688 342.5594 139.6925 344.40314L139.6925 345.8094ZM138.59875 344.325Q138.59875 342.95 138.20813 342.325Q137.83313 341.6844 136.98938 341.6844Q136.16125 341.6844 135.77063 342.325Q135.39563 342.95 135.39563 344.2469L135.39563 345.98126Q135.39563 347.35626 135.78625 348.02814Q136.1925 348.6844 137.005 348.6844Q137.80188 348.6844 138.1925 348.0594Q138.58313 347.4344 138.59875 346.10626L138.59875 344.325Z" fill-rule="nonzero"/><path fill="#757575" d="M245.91313 345.16876L246.35063 340.91876L250.72563 340.91876L250.72563 341.91876L247.2725 341.91876L247.00688 344.2469Q247.6475 343.8719 248.44438 343.8719Q249.60063 343.8719 250.28813 344.65314Q250.97563 345.41876 250.97563 346.73126Q250.97563 348.04376 250.25688 348.8094Q249.55376 349.575 248.2725 349.575Q247.1475 349.575 246.42876 348.95Q245.71 348.3094 245.61626 347.2L246.63188 347.2Q246.74126 347.9344 247.16313 348.3094Q247.585 348.6844 248.2725 348.6844Q249.0225 348.6844 249.46 348.16876Q249.8975 347.65314 249.8975 346.7469Q249.8975 345.8875 249.42876 345.3719Q248.96 344.85626 248.17876 344.85626Q247.47563 344.85626 247.06938 345.15314L246.78813 345.3875L245.91313 345.16876Z" fill-rule="nonzero"/><path fill="#757575" d="M356.55563 349.45L355.4775 349.45L355.4775 342.23126L353.29 343.02814L353.29 342.04376L356.39938 340.8719L356.55563 340.8719L356.55563 349.45ZM365.3525 345.8094Q365.3525 347.71564 364.69626 348.65314Q364.05563 349.575 362.665 349.575Q361.30563 349.575 360.64938 348.66876Q359.99313 347.7625 359.96188 345.95L359.96188 344.5125Q359.96188 342.6219 360.6025 341.71564Q361.25876 340.79376 362.64938 340.79376Q364.02438 340.79376 364.68063 341.6844Q365.33688 342.5594 365.3525 344.40314L365.3525 345.8094ZM364.25876 344.325Q364.25876 342.95 363.86813 342.325Q363.49313 341.6844 362.64938 341.6844Q361.82126 341.6844 361.43063 342.325Q361.05563 342.95 361.05563 344.2469L361.05563 345.98126Q361.05563 347.35626 361.44626 348.02814Q361.8525 348.6844 362.665 348.6844Q363.46188 348.6844 363.8525 348.0594Q364.24313 347.4344 364.25876 346.10626L364.25876 344.325Z" fill-rule="nonzero"/><path fill="#757575" d="M467.63562 349.45L466.5575 349.45L466.5575 342.23126L464.37 343.02814L464.37 342.04376L467.47937 340.8719L467.63562 340.8719L467.63562 349.45ZM471.57312 345.16876L472.01062 340.91876L476.38562 340.91876L476.38562 341.91876L472.9325 341.91876L472.66687 344.2469Q473.3075 343.8719 474.10437 343.8719Q475.26062 343.8719 475.94812 344.65314Q476.63562 345.41876 476.63562 346.73126Q476.63562 348.04376 475.91687 348.8094Q475.21375 349.575 473.9325 349.575Q472.8075 349.575 472.08875 348.95Q471.37 348.3094 471.27625 347.2L472.29187 347.2Q472.40125 347.9344 472.82312 348.3094Q473.245 348.6844 473.9325 348.6844Q474.6825 348.6844 475.12 348.16876Q475.5575 347.65314 475.5575 346.7469Q475.5575 345.8875 475.08875 345.3719Q474.62 344.85626 473.83875 344.85626Q473.13562 344.85626 472.72937 345.15314L472.44812 345.3875L471.57312 345.16876Z" fill-rule="nonzero"/><path fill="#757575" d="M580.7469 349.45L575.15314 349.45L575.15314 348.66876L578.10626 345.3875Q578.7625 344.6375 579.0125 344.1844Q579.2625 343.71564 579.2625 343.21564Q579.2625 342.54376 578.85626 342.1219Q578.46564 341.6844 577.77814 341.6844Q576.98126 341.6844 576.52814 342.15314Q576.075 342.60626 576.075 343.4344L574.9969 343.4344Q574.9969 342.2469 575.7469 341.52814Q576.5125 340.79376 577.77814 340.79376Q578.98126 340.79376 579.66876 341.41876Q580.35626 342.04376 580.35626 343.09064Q580.35626 344.34064 578.7469 346.09064L576.46564 348.5594L580.7469 348.5594L580.7469 349.45ZM587.5125 345.8094Q587.5125 347.71564 586.85626 348.65314Q586.21564 349.575 584.825 349.575Q583.46564 349.575 582.8094 348.66876Q582.15314 347.7625 582.1219 345.95L582.1219 344.5125Q582.1219 342.6219 582.7625 341.71564Q583.41876 340.79376 584.8094 340.79376Q586.1844 340.79376 586.84064 341.6844Q587.4969 342.5594 587.5125 344.40314L587.5125 345.8094ZM586.41876 344.325Q586.41876 342.95 586.02814 342.325Q585.65314 341.6844 584.8094 341.6844Q583.98126 341.6844 583.59064 342.325Q583.21564 342.95 583.21564 344.2469L583.21564 345.98126Q583.21564 347.35626 583.60626 348.02814Q584.0125 348.6844 584.825 348.6844Q585.6219 348.6844 586.0125 348.0594Q586.40314 347.4344 586.41876 346.10626L586.41876 344.325Z" fill-rule="nonzero"/><path fill="#fad74b" d="M175.5 21.05C175.5 20.497715 175.94771 20.05 176.5 20.05L186.5 20.05C187.05229 20.05 187.5 20.497715 187.5 21.05L187.5 31.05C187.5 31.602285 187.05229 32.05 186.5 32.05L176.5 32.05C175.94771 32.05 175.5 31.602285 175.5 31.05Z" fill-rule="nonzero"/><path fill="#757575" d="M199.0 26.753124Q197.5625 26.33125 196.89062 25.721874Q196.23438 25.1125 196.23438 24.221874Q196.23438 23.221874 197.03125 22.565624Q197.84375 21.89375 199.14062 21.89375Q200.01562 21.89375 200.70312 22.2375Q201.39062 22.58125 201.76562 23.175Q202.15625 23.76875 202.15625 24.4875L201.01562 24.4875Q201.01562 23.70625 200.51562 23.26875Q200.03125 22.83125 199.14062 22.83125Q198.3125 22.83125 197.84375 23.20625Q197.375 23.565624 197.375 24.20625Q197.375 24.7375 197.8125 25.096874Q198.26562 25.45625 199.32812 25.753124Q200.39062 26.05 200.98438 26.409374Q201.59375 26.76875 201.875 27.253124Q202.17188 27.7375 202.17188 28.378124Q202.17188 29.425 201.35938 30.05Q200.54688 30.675 199.20312 30.675Q198.3125 30.675 197.54688 30.33125Q196.79688 29.9875 196.375 29.409374Q195.96875 28.815624 195.96875 28.08125L197.09375 28.08125Q197.09375 28.846874 197.67188 29.3Q198.25 29.753124 199.20312 29.753124Q200.09375 29.753124 200.5625 29.39375Q201.03125 29.01875 201.03125 28.39375Q201.03125 27.76875 200.59375 27.425Q200.15625 27.08125 199.0 26.753124ZM204.79688 22.675L204.79688 24.20625L205.96875 24.20625L205.96875 25.05L204.79688 25.05L204.79688 28.971874Q204.79688 29.3625 204.95312 29.55Q205.10938 29.7375 205.48438 29.7375Q205.67188 29.7375 206.0 29.675L206.0 30.55Q205.57812 30.675 205.17188 30.675Q204.45312 30.675 204.07812 30.2375Q203.70312 29.784374 203.70312 28.971874L203.70312 25.05L202.54688 25.05L202.54688 24.20625L203.70312 24.20625L203.70312 22.675L204.79688 22.675ZM211.23438 30.55Q211.14062 30.3625 211.07812 29.878124Q210.32812 30.675 209.28125 30.675Q208.34375 30.675 207.73438 30.14375Q207.14062 29.6125 207.14062 28.784374Q207.14062 27.8 207.89062 27.253124Q208.64062 26.70625 210.01562 26.70625L211.0625 26.70625L211.0625 26.20625Q211.0625 25.64375 210.71875 25.315624Q210.39062 24.971874 209.71875 24.971874Q209.14062 24.971874 208.75 25.26875Q208.35938 25.55 208.35938 25.971874L207.26562 25.971874Q207.26562 25.4875 207.59375 25.05Q207.9375 24.6125 208.51562 24.3625Q209.09375 24.096874 209.78125 24.096874Q210.89062 24.096874 211.5 24.64375Q212.125 25.190624 212.15625 26.14375L212.15625 29.065624Q212.15625 29.940624 212.375 30.45625L212.375 30.55L211.23438 30.55ZM209.4375 29.721874Q209.95312 29.721874 210.40625 29.45625Q210.85938 29.190624 211.0625 28.76875L211.0625 27.471874L210.21875 27.471874Q208.21875 27.471874 208.21875 28.64375Q208.21875 29.14375 208.5625 29.440624Q208.90625 29.721874 209.4375 29.721874ZM215.34375 24.20625L215.375 25.003124Q216.10938 24.096874 217.28125 24.096874Q219.29688 24.096874 219.3125 26.3625L219.3125 30.55L218.21875 30.55L218.21875 26.346874Q218.21875 25.675 217.90625 25.346874Q217.60938 25.01875 216.95312 25.01875Q216.42188 25.01875 216.01562 25.3Q215.625 25.58125 215.40625 26.034374L215.40625 30.55L214.32812 30.55L214.32812 24.20625L215.34375 24.20625ZM221.0625 27.33125Q221.0625 25.8625 221.75 24.9875Q222.4375 24.096874 223.5625 24.096874Q224.67188 24.096874 225.32812 24.846874L225.32812 21.55L226.40625 21.55L226.40625 30.55L225.40625 30.55L225.35938 29.8625Q224.70312 30.675 223.54688 30.675Q222.45312 30.675 221.75 29.76875Q221.0625 28.8625 221.0625 27.409374L221.0625 27.33125ZM222.14062 27.45625Q222.14062 28.534374 222.57812 29.14375Q223.03125 29.753124 223.8125 29.753124Q224.84375 29.753124 225.32812 28.815624L225.32812 25.909374Q224.84375 25.01875 223.82812 25.01875Q223.03125 25.01875 222.57812 25.628124Q222.14062 26.2375 222.14062 27.45625ZM232.23438 30.55Q232.14062 30.3625 232.07812 29.878124Q231.32812 30.675 230.28125 30.675Q229.34375 30.675 228.73438 30.14375Q228.14062 29.6125 228.14062 28.784374Q228.14062 27.8 228.89062 27.253124Q229.64062 26.70625 231.01562 26.70625L232.0625 26.70625L232.0625 26.20625Q232.0625 25.64375 231.71875 25.315624Q231.39062 24.971874 230.71875 24.971874Q230.14062 24.971874 229.75 25.26875Q229.35938 25.55 229.35938 25.971874L228.26562 25.971874Q228.26562 25.4875 228.59375 25.05Q228.9375 24.6125 229.51562 24.3625Q230.09375 24.096874 230.78125 24.096874Q231.89062 24.096874 232.5 24.64375Q233.125 25.190624 233.15625 26.14375L233.15625 29.065624Q233.15625 29.940624 233.375 30.45625L233.375 30.55L232.23438 30.55ZM230.4375 29.721874Q230.95312 29.721874 231.40625 29.45625Q231.85938 29.190624 232.0625 28.76875L232.0625 27.471874L231.21875 27.471874Q229.21875 27.471874 229.21875 28.64375Q229.21875 29.14375 229.5625 29.440624Q229.90625 29.721874 230.4375 29.721874ZM238.39062 25.175Q238.14062 25.14375 237.85938 25.14375Q236.78125 25.14375 236.40625 26.05L236.40625 30.55L235.32812 30.55L235.32812 24.20625L236.375 24.20625L236.39062 24.940624Q236.92188 24.096874 237.90625 24.096874Q238.21875 24.096874 238.39062 24.175L238.39062 25.175ZM239.0625 27.33125Q239.0625 25.8625 239.75 24.9875Q240.4375 24.096874 241.5625 24.096874Q242.67188 24.096874 243.32812 24.846874L243.32812 21.55L244.40625 21.55L244.40625 30.55L243.40625 30.55L243.35938 29.8625Q242.70312 30.675 241.54688 30.675Q240.45312 30.675 239.75 29.76875Q239.0625 28.8625 239.0625 27.409374L239.0625 27.33125ZM240.14062 27.45625Q240.14062 28.534374 240.57812 29.14375Q241.03125 29.753124 241.8125 29.753124Q242.84375 29.753124 243.32812 28.815624L243.32812 25.909374Q242.84375 25.01875 241.82812 25.01875Q241.03125 25.01875 240.57812 25.628124Q240.14062 26.2375 240.14062 27.45625ZM254.20312 28.315624L250.625 28.315624L249.82812 30.55L248.67188 30.55L251.92188 22.01875L252.90625 22.01875L256.17188 30.55L255.01562 30.55L254.20312 28.315624ZM250.96875 27.39375L253.875 27.39375L252.42188 23.409374L250.96875 27.39375ZM258.34375 24.20625L258.375 25.003124Q259.10938 24.096874 260.28125 24.096874Q262.29688 24.096874 262.3125 26.3625L262.3125 30.55L261.21875 30.55L261.21875 26.346874Q261.21875 25.675 260.90625 25.346874Q260.60938 25.01875 259.95312 25.01875Q259.42188 25.01875 259.01562 25.3Q258.625 25.58125 258.40625 26.034374L258.40625 30.55L257.32812 30.55L257.32812 24.20625L258.34375 24.20625ZM268.23438 30.55Q268.14062 30.3625 268.07812 29.878124Q267.32812 30.675 266.28125 30.675Q265.34375 30.675 264.73438 30.14375Q264.14062 29.6125 264.14062 28.784374Q264.14062 27.8 264.89062 27.253124Q265.64062 26.70625 267.01562 26.70625L268.0625 26.70625L268.0625 26.20625Q268.0625 25.64375 267.71875 25.315624Q267.39062 24.971874 266.71875 24.971874Q266.14062 24.971874 265.75 25.26875Q265.35938 25.55 265.35938 25.971874L264.26562 25.971874Q264.26562 25.4875 264.59375 25.05Q264.9375 24.6125 265.51562 24.3625Q266.09375 24.096874 266.78125 24.096874Q267.89062 24.096874 268.5 24.64375Q269.125 25.190624 269.15625 26.14375L269.15625 29.065624Q269.15625 29.940624 269.375 30.45625L269.375 30.55L268.23438 30.55ZM266.4375 29.721874Q266.95312 29.721874 267.40625 29.45625Q267.85938 29.190624 268.0625 28.76875L268.0625 27.471874L267.21875 27.471874Q265.21875 27.471874 265.21875 28.64375Q265.21875 29.14375 265.5625 29.440624Q265.90625 29.721874 266.4375 29.721874ZM272.5 30.55L271.42188 30.55L271.42188 21.55L272.5 21.55L272.5 30.55ZM276.39062 28.95625L277.875 24.20625L279.03125 24.20625L276.48438 31.534374Q275.89062 33.1125 274.60938 33.1125L274.39062 33.096874L274.0 33.01875L274.0 32.14375L274.28125 32.159374Q274.84375 32.159374 275.14062 31.940624Q275.45312 31.721874 275.65625 31.128124L275.89062 30.471874L273.625 24.20625L274.8125 24.20625L276.39062 28.95625ZM281.34375 29.659374L285.04688 29.659374L285.04688 30.55L280.01562 30.55L280.01562 29.753124L283.51562 25.1125L280.0625 25.1125L280.0625 24.20625L284.875 24.20625L284.875 24.971874L281.34375 29.659374ZM288.95312 30.675Q287.65625 30.675 286.84375 29.83125Q286.04688 28.971874 286.04688 27.55L286.04688 27.3625Q286.04688 26.409374 286.40625 25.675Q286.76562 24.925 287.40625 24.51875Q288.0625 24.096874 288.8125 24.096874Q290.04688 24.096874 290.73438 24.909374Q291.42188 25.721874 291.42188 27.2375L291.42188 27.690624L287.125 27.690624Q287.15625 28.628124 287.67188 29.20625Q288.20312 29.784374 289.01562 29.784374Q289.57812 29.784374 289.96875 29.55Q290.375 29.315624 290.6875 28.925L291.34375 29.440624Q290.54688 30.675 288.95312 30.675ZM288.8125 24.9875Q288.15625 24.9875 287.70312 25.471874Q287.26562 25.940624 287.17188 26.8L290.34375 26.8L290.34375 26.721874Q290.29688 25.89375 289.89062 25.440624Q289.5 24.9875 288.8125 24.9875ZM295.39062 25.175Q295.14062 25.14375 294.85938 25.14375Q293.78125 25.14375 293.40625 26.05L293.40625 30.55L292.32812 30.55L292.32812 24.20625L293.375 24.20625L293.39062 24.940624Q293.92188 24.096874 294.90625 24.096874Q295.21875 24.096874 295.39062 24.175L295.39062 25.175Z" fill-rule="nonzero"/><path fill="#ffb900" d="M311.5 21.05C311.5 20.497715 311.94772 20.05 312.5 20.05L322.5 20.05C323.05228 20.05 323.5 20.497715 323.5 21.05L323.5 31.05C323.5 31.602285 323.05228 32.05 322.5 32.05L312.5 32.05C311.94772 32.05 311.5 31.602285 311.5 31.05Z" fill-rule="nonzero"/><path fill="#757575" d="M338.79688 29.425Q338.35938 30.05 337.57812 30.3625Q336.79688 30.675 335.76562 30.675Q334.73438 30.675 333.92188 30.190624Q333.10938 29.690624 332.67188 28.784374Q332.23438 27.878124 332.21875 26.690624L332.21875 25.95625Q332.21875 24.01875 333.10938 22.95625Q334.01562 21.89375 335.64062 21.89375Q336.98438 21.89375 337.79688 22.58125Q338.60938 23.26875 338.79688 24.51875L337.67188 24.51875Q337.34375 22.83125 335.65625 22.83125Q334.51562 22.83125 333.9375 23.628124Q333.35938 24.409374 333.34375 25.925L333.34375 26.6125Q333.34375 28.05 334.0 28.909374Q334.65625 29.753124 335.78125 29.753124Q336.40625 29.753124 336.875 29.6125Q337.35938 29.471874 337.67188 29.128124L337.67188 27.221874L335.70312 27.221874L335.70312 26.3L338.79688 26.3L338.79688 29.425ZM342.95312 30.675Q341.65625 30.675 340.84375 29.83125Q340.04688 28.971874 340.04688 27.55L340.04688 27.3625Q340.04688 26.409374 340.40625 25.675Q340.76562 24.925 341.40625 24.51875Q342.0625 24.096874 342.8125 24.096874Q344.04688 24.096874 344.73438 24.909374Q345.42188 25.721874 345.42188 27.2375L345.42188 27.690624L341.125 27.690624Q341.15625 28.628124 341.67188 29.20625Q342.20312 29.784374 343.01562 29.784374Q343.57812 29.784374 343.96875 29.55Q344.375 29.315624 344.6875 28.925L345.34375 29.440624Q344.54688 30.675 342.95312 30.675ZM342.8125 24.9875Q342.15625 24.9875 341.70312 25.471874Q341.26562 25.940624 341.17188 26.8L344.34375 26.8L344.34375 26.721874Q344.29688 25.89375 343.89062 25.440624Q343.5 24.9875 342.8125 24.9875ZM349.39062 25.175Q349.14062 25.14375 348.85938 25.14375Q347.78125 25.14375 347.40625 26.05L347.40625 30.55L346.32812 30.55L346.32812 24.20625L347.375 24.20625L347.39062 24.940624Q347.92188 24.096874 348.90625 24.096874Q349.21875 24.096874 349.39062 24.175L349.39062 25.175ZM351.34375 24.20625L351.375 24.909374Q352.0625 24.096874 353.25 24.096874Q354.57812 24.096874 355.0625 25.1125Q355.375 24.659374 355.875 24.378124Q356.39062 24.096874 357.07812 24.096874Q359.17188 24.096874 359.20312 26.3L359.20312 30.55L358.125 30.55L358.125 26.3625Q358.125 25.690624 357.8125 25.3625Q357.5 25.01875 356.76562 25.01875Q356.15625 25.01875 355.75 25.378124Q355.35938 25.7375 355.29688 26.346874L355.29688 30.55L354.21875 30.55L354.21875 26.39375Q354.21875 25.01875 352.85938 25.01875Q351.79688 25.01875 351.40625 25.925L351.40625 30.55L350.3125 30.55L350.3125 24.20625L351.34375 24.20625ZM365.23438 30.55Q365.14062 30.3625 365.07812 29.878124Q364.32812 30.675 363.28125 30.675Q362.34375 30.675 361.73438 30.14375Q361.14062 29.6125 361.14062 28.784374Q361.14062 27.8 361.89062 27.253124Q362.64062 26.70625 364.01562 26.70625L365.0625 26.70625L365.0625 26.20625Q365.0625 25.64375 364.71875 25.315624Q364.39062 24.971874 363.71875 24.971874Q363.14062 24.971874 362.75 25.26875Q362.35938 25.55 362.35938 25.971874L361.26562 25.971874Q361.26562 25.4875 361.59375 25.05Q361.9375 24.6125 362.51562 24.3625Q363.09375 24.096874 363.78125 24.096874Q364.89062 24.096874 365.5 24.64375Q366.125 25.190624 366.15625 26.14375L366.15625 29.065624Q366.15625 29.940624 366.375 30.45625L366.375 30.55L365.23438 30.55ZM363.4375 29.721874Q363.95312 29.721874 364.40625 29.45625Q364.85938 29.190624 365.0625 28.76875L365.0625 27.471874L364.21875 27.471874Q362.21875 27.471874 362.21875 28.64375Q362.21875 29.14375 362.5625 29.440624Q362.90625 29.721874 363.4375 29.721874ZM369.34375 24.20625L369.375 25.003124Q370.10938 24.096874 371.28125 24.096874Q373.29688 24.096874 373.3125 26.3625L373.3125 30.55L372.21875 30.55L372.21875 26.346874Q372.21875 25.675 371.90625 25.346874Q371.60938 25.01875 370.95312 25.01875Q370.42188 25.01875 370.01562 25.3Q369.625 25.58125 369.40625 26.034374L369.40625 30.55L368.32812 30.55L368.32812 24.20625L369.34375 24.20625ZM383.20312 28.315624L379.625 28.315624L378.82812 30.55L377.67188 30.55L380.92188 22.01875L381.90625 22.01875L385.17188 30.55L384.01562 30.55L383.20312 28.315624ZM379.96875 27.39375L382.875 27.39375L381.42188 23.409374L379.96875 27.39375ZM387.34375 24.20625L387.375 25.003124Q388.10938 24.096874 389.28125 24.096874Q391.29688 24.096874 391.3125 26.3625L391.3125 30.55L390.21875 30.55L390.21875 26.346874Q390.21875 25.675 389.90625 25.346874Q389.60938 25.01875 388.95312 25.01875Q388.42188 25.01875 388.01562 25.3Q387.625 25.58125 387.40625 26.034374L387.40625 30.55L386.32812 30.55L386.32812 24.20625L387.34375 24.20625ZM397.23438 30.55Q397.14062 30.3625 397.07812 29.878124Q396.32812 30.675 395.28125 30.675Q394.34375 30.675 393.73438 30.14375Q393.14062 29.6125 393.14062 28.784374Q393.14062 27.8 393.89062 27.253124Q394.64062 26.70625 396.01562 26.70625L397.0625 26.70625L397.0625 26.20625Q397.0625 25.64375 396.71875 25.315624Q396.39062 24.971874 395.71875 24.971874Q395.14062 24.971874 394.75 25.26875Q394.35938 25.55 394.35938 25.971874L393.26562 25.971874Q393.26562 25.4875 393.59375 25.05Q393.9375 24.6125 394.51562 24.3625Q395.09375 24.096874 395.78125 24.096874Q396.89062 24.096874 397.5 24.64375Q398.125 25.190624 398.15625 26.14375L398.15625 29.065624Q398.15625 29.940624 398.375 30.45625L398.375 30.55L397.23438 30.55ZM395.4375 29.721874Q395.95312 29.721874 396.40625 29.45625Q396.85938 29.190624 397.0625 28.76875L397.0625 27.471874L396.21875 27.471874Q394.21875 27.471874 394.21875 28.64375Q394.21875 29.14375 394.5625 29.440624Q394.90625 29.721874 395.4375 29.721874ZM401.5 30.55L400.42188 30.55L400.42188 21.55L401.5 21.55L401.5 30.55ZM405.39062 28.95625L406.875 24.20625L408.03125 24.20625L405.48438 31.534374Q404.89062 33.1125 403.60938 33.1125L403.39062 33.096874L403.0 33.01875L403.0 32.14375L403.28125 32.159374Q403.84375 32.159374 404.14062 31.940624Q404.45312 31.721874 404.65625 31.128124L404.89062 30.471874L402.625 24.20625L403.8125 24.20625L405.39062 28.95625ZM410.34375 29.659374L414.04688 29.659374L414.04688 30.55L409.01562 30.55L409.01562 29.753124L412.51562 25.1125L409.0625 25.1125L409.0625 24.20625L413.875 24.20625L413.875 24.971874L410.34375 29.659374ZM417.95312 30.675Q416.65625 30.675 415.84375 29.83125Q415.04688 28.971874 415.04688 27.55L415.04688 27.3625Q415.04688 26.409374 415.40625 25.675Q415.76562 24.925 416.40625 24.51875Q417.0625 24.096874 417.8125 24.096874Q419.04688 24.096874 419.73438 24.909374Q420.42188 25.721874 420.42188 27.2375L420.42188 27.690624L416.125 27.690624Q416.15625 28.628124 416.67188 29.20625Q417.20312 29.784374 418.01562 29.784374Q418.57812 29.784374 418.96875 29.55Q419.375 29.315624 419.6875 28.925L420.34375 29.440624Q419.54688 30.675 417.95312 30.675ZM417.8125 24.9875Q417.15625 24.9875 416.70312 25.471874Q416.26562 25.940624 416.17188 26.8L419.34375 26.8L419.34375 26.721874Q419.29688 25.89375 418.89062 25.440624Q418.5 24.9875 417.8125 24.9875ZM424.39062 25.175Q424.14062 25.14375 423.85938 25.14375Q422.78125 25.14375 422.40625 26.05L422.40625 30.55L421.32812 30.55L421.32812 24.20625L422.375 24.20625L422.39062 24.940624Q422.92188 24.096874 423.90625 24.096874Q424.21875 24.096874 424.39062 24.175L424.39062 25.175Z" fill-rule="nonzero"/></svg>