<svg version="1.1" viewBox="0.0 0.0 600.0 371.0" fill="none" stroke="none" stroke-linecap="square" stroke-miterlimit="10" width="600" height="371" xmlns:xlink="http://www.w3.org/1999/xlink" xmlns="http://www.w3.org/2000/svg"><path fill="#ffffff" d="M0 0L600.0 0L600.0 371.0L0 371.0L0 0Z" fill-rule="nonzero"/><path stroke="#333333" stroke-width="1.0" stroke-linecap="butt" d="M163.5 45.5L163.5 298.5" fill-rule="nonzero"/><path stroke="#cccccc" stroke-width="1.0" stroke-linecap="butt" d="M233.5 45.5L233.5 298.5" fill-rule="nonzero"/><path stroke="#cccccc" stroke-width="1.0" stroke-linecap="butt" d="M302.5 45.5L302.5 298.5" fill-rule="nonzero"/><path stroke="#cccccc" stroke-width="1.0" stroke-linecap="butt" d="M372.5 45.5L372.5 298.5" fill-rule="nonzero"/><path stroke="#cccccc" stroke-width="1.0" stroke-linecap="butt" d="M442.5 45.5L442.5 298.5" fill-rule="nonzero"/><path stroke="#cccccc" stroke-width="1.0" stroke-linecap="butt" d="M511.5 45.5L511.5 298.5" fill-rule="nonzero"/><path stroke="#cccccc" stroke-width="1.0" stroke-linecap="butt" d="M581.5 45.5L581.5 298.5" fill-rule="nonzero"/><clipPath id="id_0"><path d="M163.53 45.916668L581.45 45.916668L581.45 298.45L163.53 298.45L163.53 45.916668Z" clip-rule="nonzero"/></clipPath><path stroke="#000000" stroke-width="2.0" stroke-linecap="butt" stroke-opacity="0.0" clip-path="url(#id_0)" d="M164.0 96.0L164.0 74.0L164.0 74.0L164.0 96.0Z" fill-rule="nonzero"/><path fill="#ffe599" clip-path="url(#id_0)" d="M164.0 96.0L164.0 74.0L164.0 74.0L164.0 96.0Z" fill-rule="nonzero"/><path stroke="#000000" stroke-width="2.0" stroke-linecap="butt" stroke-opacity="0.0" clip-path="url(#id_0)" d="M164.0 171.0L164.0 149.0L572.0 149.0C573.10455 149.0 574.0 149.89543 574.0 151.0L574.0 169.0C574.0 170.10457 573.10455 171.0 572.0 171.0Z" fill-rule="nonzero"/><path fill="#ffe599" clip-path="url(#id_0)" d="M164.0 171.0L164.0 149.0L572.0 149.0C573.10455 149.0 574.0 149.89543 574.0 151.0L574.0 169.0C574.0 170.10457 573.10455 171.0 572.0 171.0Z" fill-rule="nonzero"/><path stroke="#000000" stroke-width="2.0" stroke-linecap="butt" stroke-opacity="0.0" clip-path="url(#id_0)" d="M164.0 247.0L164.0 225.0L334.0 225.0C335.10458 225.0 336.0 225.89543 336.0 227.0L336.0 245.0C336.0 246.10457 335.10458 247.0 334.0 247.0Z" fill-rule="nonzero"/><path fill="#ffe599" clip-path="url(#id_0)" d="M164.0 247.0L164.0 225.0L334.0 225.0C335.10458 225.0 336.0 225.89543 336.0 227.0L336.0 245.0C336.0 246.10457 335.10458 247.0 334.0 247.0Z" fill-rule="nonzero"/><path stroke="#000000" stroke-width="2.0" stroke-linecap="butt" stroke-opacity="0.0" clip-path="url(#id_0)" d="M164.0 120.0L164.0 98.0L175.0 98.0C176.10457 98.0 177.0 98.89543 177.0 100.0L177.0 118.0C177.0 119.10457 176.10457 120.0 175.0 120.0Z" fill-rule="nonzero"/><path fill="#ffb900" clip-path="url(#id_0)" d="M164.0 120.0L164.0 98.0L175.0 98.0C176.10457 98.0 177.0 98.89543 177.0 100.0L177.0 118.0C177.0 119.10457 176.10457 120.0 175.0 120.0Z" fill-rule="nonzero"/><path stroke="#000000" stroke-width="2.0" stroke-linecap="butt" stroke-opacity="0.0" clip-path="url(#id_0)" d="M164.0 195.0L164.0 173.0L164.0 173.0L164.0 195.0Z" fill-rule="nonzero"/><path fill="#ffb900" clip-path="url(#id_0)" d="M164.0 195.0L164.0 173.0L164.0 173.0L164.0 195.0Z" fill-rule="nonzero"/><path stroke="#000000" stroke-width="2.0" stroke-linecap="butt" stroke-opacity="0.0" clip-path="url(#id_0)" d="M164.0 271.0L164.0 249.0L164.0 249.0L164.0 271.0Z" fill-rule="nonzero"/><path fill="#ffb900" clip-path="url(#id_0)" d="M164.0 271.0L164.0 249.0L164.0 249.0L164.0 271.0Z" fill-rule="nonzero"/><path fill="#424242" d="M346.28687 341.575L346.28687 343.10626L347.45874 343.10626L347.45874 343.95L346.28687 343.95L346.28687 347.8719Q346.28687 348.2625 346.4431 348.45Q346.59937 348.6375 346.97437 348.6375Q347.16187 348.6375 347.49 348.575L347.49 349.45Q347.0681 349.575 346.66187 349.575Q345.9431 349.575 345.5681 349.1375Q345.1931 348.6844 345.1931 347.8719L345.1931 343.95L344.03687 343.95L344.03687 343.10626L345.1931 343.10626L345.1931 341.575L346.28687 341.575ZM351.4431 349.575Q350.14624 349.575 349.33374 348.73126Q348.53687 347.8719 348.53687 346.45L348.53687 346.2625Q348.53687 345.3094 348.89624 344.575Q349.2556 343.825 349.89624 343.41876Q350.5525 342.9969 351.3025 342.9969Q352.53687 342.9969 353.22437 343.8094Q353.91187 344.6219 353.91187 346.1375L353.91187 346.59064L349.615 346.59064Q349.64624 347.52814 350.16187 348.10626Q350.6931 348.6844 351.5056 348.6844Q352.0681 348.6844 352.45874 348.45Q352.865 348.21564 353.1775 347.825L353.83374 348.34064Q353.03687 349.575 351.4431 349.575ZM351.3025 343.8875Q350.64624 343.8875 350.1931 344.3719Q349.7556 344.84064 349.66187 345.7L352.83374 345.7L352.83374 345.6219Q352.78687 344.79376 352.3806 344.34064Q351.99 343.8875 351.3025 343.8875ZM357.8806 344.075Q357.6306 344.04376 357.34937 344.04376Q356.27124 344.04376 355.89624 344.95L355.89624 349.45L354.8181 349.45L354.8181 343.10626L355.865 343.10626L355.8806 343.84064Q356.41187 342.9969 357.39624 342.9969Q357.70874 342.9969 357.8806 343.075L357.8806 344.075ZM359.83374 343.10626L359.865 343.8094Q360.5525 342.9969 361.74 342.9969Q363.0681 342.9969 363.5525 344.0125Q363.865 343.5594 364.365 343.27814Q364.8806 342.9969 365.5681 342.9969Q367.66187 342.9969 367.6931 345.2L367.6931 349.45L366.615 349.45L366.615 345.2625Q366.615 344.59064 366.3025 344.2625Q365.99 343.91876 365.2556 343.91876Q364.64624 343.91876 364.24 344.27814Q363.84937 344.6375 363.78687 345.2469L363.78687 349.45L362.70874 349.45L362.70874 345.29376Q362.70874 343.91876 361.34937 343.91876Q360.28687 343.91876 359.89624 344.825L359.89624 349.45L358.8025 349.45L358.8025 343.10626L359.83374 343.10626ZM376.5056 347.7625Q376.5056 347.325 376.16187 347.09064Q375.83374 346.84064 375.0056 346.66876Q374.1931 346.4969 373.70874 346.2469Q373.22437 345.9969 372.99 345.66876Q372.77124 345.325 372.77124 344.85626Q372.77124 344.075 373.4275 343.54376Q374.08374 342.9969 375.115 342.9969Q376.1931 342.9969 376.84937 343.5594Q377.52124 344.10626 377.52124 344.96564L376.4431 344.96564Q376.4431 344.52814 376.0525 344.21564Q375.6775 343.8875 375.115 343.8875Q374.52124 343.8875 374.1775 344.15314Q373.84937 344.40314 373.84937 344.8094Q373.84937 345.2 374.16187 345.40314Q374.47437 345.60626 375.28687 345.79376Q376.09937 345.96564 376.59937 346.21564Q377.09937 346.46564 377.33374 346.825Q377.58374 347.1844 377.58374 347.6844Q377.58374 348.54376 376.89624 349.0594Q376.22437 349.575 375.14624 349.575Q374.3806 349.575 373.78687 349.3094Q373.20874 349.02814 372.8806 348.54376Q372.5525 348.0594 372.5525 347.4969L373.6306 347.4969Q373.66187 348.04376 374.0681 348.3719Q374.47437 348.6844 375.14624 348.6844Q375.7556 348.6844 376.1306 348.4344Q376.5056 348.1844 376.5056 347.7625ZM381.34937 348.6844Q381.9275 348.6844 382.365 348.34064Q382.8025 347.98126 382.84937 347.45L383.8806 347.45Q383.84937 347.9969 383.49 348.4969Q383.14624 348.98126 382.5681 349.27814Q382.0056 349.575 381.34937 349.575Q380.0525 349.575 379.28687 348.71564Q378.53687 347.84064 378.53687 346.34064L378.53687 346.15314Q378.53687 345.23126 378.865 344.5125Q379.20874 343.79376 379.83374 343.40314Q380.47437 342.9969 381.34937 342.9969Q382.41187 342.9969 383.115 343.6375Q383.83374 344.2625 383.8806 345.29376L382.84937 345.29376Q382.8025 344.66876 382.3806 344.27814Q381.95874 343.8875 381.34937 343.8875Q380.52124 343.8875 380.0681 344.48126Q379.615 345.075 379.615 346.2L379.615 346.40314Q379.615 347.4969 380.0681 348.09064Q380.52124 348.6844 381.34937 348.6844ZM384.52124 346.21564Q384.52124 345.29376 384.8806 344.54376Q385.2556 343.79376 385.91187 343.40314Q386.5681 342.9969 387.39624 342.9969Q388.6931 342.9969 389.49 343.8875Q390.3025 344.77814 390.3025 346.27814L390.3025 346.35626Q390.3025 347.27814 389.9431 348.0125Q389.58374 348.7469 388.9275 349.16876Q388.27124 349.575 387.41187 349.575Q386.1306 349.575 385.3181 348.6844Q384.52124 347.77814 384.52124 346.29376L384.52124 346.21564ZM385.615 346.35626Q385.615 347.40314 386.09937 348.04376Q386.59937 348.6844 387.41187 348.6844Q388.24 348.6844 388.72437 348.04376Q389.20874 347.3875 389.20874 346.21564Q389.20874 345.1844 388.70874 344.54376Q388.22437 343.8875 387.39624 343.8875Q386.59937 343.8875 386.09937 344.52814Q385.615 345.15314 385.615 346.35626ZM394.8806 344.075Q394.6306 344.04376 394.34937 344.04376Q393.27124 344.04376 392.89624 344.95L392.89624 349.45L391.8181 349.45L391.8181 343.10626L392.865 343.10626L392.8806 343.84064Q393.41187 342.9969 394.39624 342.9969Q394.70874 342.9969 394.8806 343.075L394.8806 344.075ZM398.4431 349.575Q397.14624 349.575 396.33374 348.73126Q395.53687 347.8719 395.53687 346.45L395.53687 346.2625Q395.53687 345.3094 395.89624 344.575Q396.2556 343.825 396.89624 343.41876Q397.5525 342.9969 398.3025 342.9969Q399.53687 342.9969 400.22437 343.8094Q400.91187 344.6219 400.91187 346.1375L400.91187 346.59064L396.615 346.59064Q396.64624 347.52814 397.16187 348.10626Q397.6931 348.6844 398.5056 348.6844Q399.0681 348.6844 399.45874 348.45Q399.865 348.21564 400.1775 347.825L400.83374 348.34064Q400.03687 349.575 398.4431 349.575ZM398.3025 343.8875Q397.64624 343.8875 397.1931 344.3719Q396.7556 344.84064 396.66187 345.7L399.83374 345.7L399.83374 345.6219Q399.78687 344.79376 399.3806 344.34064Q398.99 343.8875 398.3025 343.8875Z" fill-rule="nonzero"/><path fill="#424242" d="M24.206263 221.83958L24.909388 221.80833Q24.096888 221.12083 24.096888 219.93333Q24.096888 218.60521 25.112513 218.12083Q24.659388 217.80833 24.378138 217.30833Q24.096888 216.79271 24.096888 216.10521Q24.096888 214.01146 26.300013 213.98021L30.550013 213.98021L30.550013 215.05833L26.362513 215.05833Q25.690638 215.05833 25.362513 215.37083Q25.018763 215.68333 25.018763 216.41771Q25.018763 217.02708 25.378138 217.43333Q25.737513 217.82396 26.346888 217.88646L30.550013 217.88646L30.550013 218.96458L26.393763 218.96458Q25.018763 218.96458 25.018763 220.32396Q25.018763 221.38646 25.925013 221.77708L30.550013 221.77708L30.550013 222.87083L24.206263 222.87083L24.206263 221.83958ZM30.550013 207.94896Q30.362513 208.04271 29.878138 208.10521Q30.675013 208.85521 30.675013 209.90208Q30.675013 210.83958 30.143763 211.44896Q29.612513 212.04271 28.784388 212.04271Q27.800013 212.04271 27.253138 211.29271Q26.706263 210.54271 26.706263 209.16771L26.706263 208.12083L26.206263 208.12083Q25.643763 208.12083 25.315638 208.46458Q24.971888 208.79271 24.971888 209.46458Q24.971888 210.04271 25.268763 210.43333Q25.550013 210.82396 25.971888 210.82396L25.971888 211.91771Q25.487513 211.91771 25.050013 211.58958Q24.612513 211.24583 24.362513 210.66771Q24.096888 210.08958 24.096888 209.40208Q24.096888 208.29271 24.643763 207.68333Q25.190638 207.05833 26.143763 207.02708L29.065638 207.02708Q29.940638 207.02708 30.456263 206.80833L30.550013 206.80833L30.550013 207.94896ZM29.721888 209.74583Q29.721888 209.23021 29.456263 208.77708Q29.190638 208.32396 28.768763 208.12083L27.471888 208.12083L27.471888 208.96458Q27.471888 210.96458 28.643763 210.96458Q29.143763 210.96458 29.440638 210.62083Q29.721888 210.27708 29.721888 209.74583ZM22.675013 203.38646L24.206263 203.38646L24.206263 202.21458L25.050013 202.21458L25.050013 203.38646L28.971888 203.38646Q29.362513 203.38646 29.550013 203.23021Q29.737513 203.07396 29.737513 202.69896Q29.737513 202.51146 29.675013 202.18333L30.550013 202.18333Q30.675013 202.60521 30.675013 203.01146Q30.675013 203.73021 30.237513 204.10521Q29.784388 204.48021 28.971888 204.48021L25.050013 204.48021L25.050013 205.63646L24.206263 205.63646L24.206263 204.48021L22.675013 204.48021L22.675013 203.38646ZM29.784388 198.32396Q29.784388 197.74583 29.440638 197.30833Q29.081263 196.87083 28.550013 196.82396L28.550013 195.79271Q29.096888 195.82396 29.596888 196.18333Q30.081263 196.52708 30.378138 197.10521Q30.675013 197.66771 30.675013 198.32396Q30.675013 199.62083 29.815638 200.38646Q28.940638 201.13646 27.440638 201.13646L27.253138 201.13646Q26.331263 201.13646 25.612513 200.80833Q24.893763 200.46458 24.503138 199.83958Q24.096888 199.19896 24.096888 198.32396Q24.096888 197.26146 24.737513 196.55833Q25.362513 195.83958 26.393763 195.79271L26.393763 196.82396Q25.768763 196.87083 25.378138 197.29271Q24.987513 197.71458 24.987513 198.32396Q24.987513 199.15208 25.581263 199.60521Q26.175013 200.05833 27.300013 200.05833L27.503138 200.05833Q28.596888 200.05833 29.190638 199.60521Q29.784388 199.15208 29.784388 198.32396ZM24.971888 193.77708Q24.096888 193.05833 24.096888 191.90208Q24.096888 189.88646 26.362513 189.87083L30.550013 189.87083L30.550013 190.96458L26.346888 190.96458Q25.675013 190.96458 25.346888 191.27708Q25.018763 191.57396 25.018763 192.23021Q25.018763 192.76146 25.300013 193.16771Q25.581263 193.55833 26.034388 193.77708L30.550013 193.77708L30.550013 194.85521L21.550013 194.85521L21.550013 193.77708L24.971888 193.77708ZM30.675013 185.23021Q30.675013 186.52708 29.831263 187.33958Q28.971888 188.13646 27.550013 188.13646L27.362513 188.13646Q26.409388 188.13646 25.675013 187.77708Q24.925013 187.41771 24.518763 186.77708Q24.096888 186.12083 24.096888 185.37083Q24.096888 184.13646 24.909388 183.44896Q25.721888 182.76146 27.237513 182.76146L27.690638 182.76146L27.690638 187.05833Q28.628138 187.02708 29.206263 186.51146Q29.784388 185.98021 29.784388 185.16771Q29.784388 184.60521 29.550013 184.21458Q29.315638 183.80833 28.925013 183.49583L29.440638 182.83958Q30.675013 183.63646 30.675013 185.23021ZM24.987513 185.37083Q24.987513 186.02708 25.471888 186.48021Q25.940638 186.91771 26.800013 187.01146L26.800013 183.83958L26.721888 183.83958Q25.893763 183.88646 25.440638 184.29271Q24.987513 184.68333 24.987513 185.37083ZM27.331263 182.12083Q25.862513 182.12083 24.987513 181.43333Q24.096888 180.74583 24.096888 179.62083Q24.096888 178.51146 24.846888 177.85521L21.550013 177.85521L21.550013 176.77708L30.550013 176.77708L30.550013 177.77708L29.862513 177.82396Q30.675013 178.48021 30.675013 179.63646Q30.675013 180.73021 29.768763 181.43333Q28.862513 182.12083 27.409388 182.12083L27.331263 182.12083ZM27.456263 181.04271Q28.534388 181.04271 29.143763 180.60521Q29.753138 180.15208 29.753138 179.37083Q29.753138 178.33958 28.815638 177.85521L25.909388 177.85521Q25.018763 178.33958 25.018763 179.35521Q25.018763 180.15208 25.628138 180.60521Q26.237513 181.04271 27.456263 181.04271ZM22.675013 170.38646L24.206263 170.38646L24.206263 169.21458L25.050013 169.21458L25.050013 170.38646L28.971888 170.38646Q29.362513 170.38646 29.550013 170.23021Q29.737513 170.07396 29.737513 169.69896Q29.737513 169.51146 29.675013 169.18333L30.550013 169.18333Q30.675013 169.60521 30.675013 170.01146Q30.675013 170.73021 30.237513 171.10521Q29.784388 171.48021 28.971888 171.48021L25.050013 171.48021L25.050013 172.63646L24.206263 172.63646L24.206263 171.48021L22.675013 171.48021L22.675013 170.38646ZM30.675013 165.23021Q30.675013 166.52708 29.831263 167.33958Q28.971888 168.13646 27.550013 168.13646L27.362513 168.13646Q26.409388 168.13646 25.675013 167.77708Q24.925013 167.41771 24.518763 166.77708Q24.096888 166.12083 24.096888 165.37083Q24.096888 164.13646 24.909388 163.44896Q25.721888 162.76146 27.237513 162.76146L27.690638 162.76146L27.690638 167.05833Q28.628138 167.02708 29.206263 166.51146Q29.784388 165.98021 29.784388 165.16771Q29.784388 164.60521 29.550013 164.21458Q29.315638 163.80833 28.925013 163.49583L29.440638 162.83958Q30.675013 163.63646 30.675013 165.23021ZM24.987513 165.37083Q24.987513 166.02708 25.471888 166.48021Q25.940638 166.91771 26.800013 167.01146L26.800013 163.83958L26.721888 163.83958Q25.893763 163.88646 25.440638 164.29271Q24.987513 164.68333 24.987513 165.37083ZM25.175013 158.79271Q25.143763 159.04271 25.143763 159.32396Q25.143763 160.40208 26.050013 160.77708L30.550013 160.77708L30.550013 161.85521L24.206263 161.85521L24.206263 160.80833L24.940638 160.79271Q24.096888 160.26146 24.096888 159.27708Q24.096888 158.96458 24.175013 158.79271L25.175013 158.79271ZM24.206263 156.83958L24.909388 156.80833Q24.096888 156.12083 24.096888 154.93333Q24.096888 153.60521 25.112513 153.12083Q24.659388 152.80833 24.378138 152.30833Q24.096888 151.79271 24.096888 151.10521Q24.096888 149.01146 26.300013 148.98021L30.550013 148.98021L30.550013 150.05833L26.362513 150.05833Q25.690638 150.05833 25.362513 150.37083Q25.018763 150.68333 25.018763 151.41771Q25.018763 152.02708 25.378138 152.43333Q25.737513 152.82396 26.346888 152.88646L30.550013 152.88646L30.550013 153.96458L26.393763 153.96458Q25.018763 153.96458 25.018763 155.32396Q25.018763 156.38646 25.925013 156.77708L30.550013 156.77708L30.550013 157.87083L24.206263 157.87083L24.206263 156.83958ZM28.862513 143.16771Q28.425013 143.16771 28.190638 143.51146Q27.940638 143.83958 27.768763 144.66771Q27.596888 145.48021 27.346888 145.96458Q27.096888 146.44896 26.768763 146.68333Q26.425013 146.90208 25.956263 146.90208Q25.175013 146.90208 24.643763 146.24583Q24.096888 145.58958 24.096888 144.55833Q24.096888 143.48021 24.659388 142.82396Q25.206263 142.15208 26.065638 142.15208L26.065638 143.23021Q25.628138 143.23021 25.315638 143.62083Q24.987513 143.99583 24.987513 144.55833Q24.987513 145.15208 25.253138 145.49583Q25.503138 145.82396 25.909388 145.82396Q26.300013 145.82396 26.503138 145.51146Q26.706263 145.19896 26.893763 144.38646Q27.065638 143.57396 27.315638 143.07396Q27.565638 142.57396 27.925013 142.33958Q28.284388 142.08958 28.784388 142.08958Q29.643763 142.08958 30.159388 142.77708Q30.675013 143.44896 30.675013 144.52708Q30.675013 145.29271 30.409388 145.88646Q30.128138 146.46458 29.643763 146.79271Q29.159388 147.12083 28.596888 147.12083L28.596888 146.04271Q29.143763 146.01146 29.471888 145.60521Q29.784388 145.19896 29.784388 144.52708Q29.784388 143.91771 29.534388 143.54271Q29.284388 143.16771 28.862513 143.16771Z" fill-rule="nonzero"/><path fill="#757575" d="M71.82687 93.42525L71.82687 94.9565L72.99875 94.9565L72.99875 95.80025L71.82687 95.80025L71.82687 99.72212Q71.82687 100.11275 71.98312 100.30025Q72.13937 100.48775 72.51437 100.48775Q72.70187 100.48775 73.03 100.42525L73.03 101.30025Q72.60812 101.42525 72.20187 101.42525Q71.48312 101.42525 71.10812 100.98775Q70.73312 100.53462 70.73312 99.72212L70.73312 95.80025L69.57687 95.80025L69.57687 94.9565L70.73312 94.9565L70.73312 93.42525L71.82687 93.42525ZM76.98312 101.42525Q75.68625 101.42525 74.87375 100.5815Q74.07687 99.72212 74.07687 98.30025L74.07687 98.11275Q74.07687 97.15962 74.43625 96.42525Q74.79562 95.67525 75.43625 95.269Q76.0925 94.84712 76.8425 94.84712Q78.07687 94.84712 78.76437 95.65962Q79.45187 96.47212 79.45187 97.98775L79.45187 98.44087L75.155 98.44087Q75.18625 99.37837 75.70187 99.9565Q76.23312 100.53462 77.04562 100.53462Q77.60812 100.53462 77.99875 100.30025Q78.405 100.06587 78.7175 99.67525L79.37375 100.19087Q78.57687 101.42525 76.98312 101.42525ZM76.8425 95.73775Q76.18625 95.73775 75.73312 96.22212Q75.29562 96.69087 75.20187 97.55025L78.37375 97.55025L78.37375 97.47212Q78.32687 96.644 77.92062 96.19087Q77.53 95.73775 76.8425 95.73775ZM82.48312 97.269L83.88937 94.9565L85.155 94.9565L83.07687 98.09712L85.2175 101.30025L83.9675 101.30025L82.49875 98.92525L81.03 101.30025L79.76437 101.30025L81.905 98.09712L79.8425 94.9565L81.0925 94.9565L82.48312 97.269ZM87.82687 93.42525L87.82687 94.9565L88.99875 94.9565L88.99875 95.80025L87.82687 95.80025L87.82687 99.72212Q87.82687 100.11275 87.98312 100.30025Q88.13937 100.48775 88.51437 100.48775Q88.70187 100.48775 89.03 100.42525L89.03 101.30025Q88.60812 101.42525 88.20187 101.42525Q87.48312 101.42525 87.10812 100.98775Q86.73312 100.53462 86.73312 99.72212L86.73312 95.80025L85.57687 95.80025L85.57687 94.9565L86.73312 94.9565L86.73312 93.42525L87.82687 93.42525ZM94.92062 102.19087L89.56125 102.19087L89.56125 101.30025L94.92062 101.30025L94.92062 102.19087ZM95.0925 98.0815Q95.0925 96.59712 95.78 95.72212Q96.4675 94.84712 97.5925 94.84712Q98.74875 94.84712 99.405 95.65962L99.45187 94.9565L100.45187 94.9565L100.45187 101.144Q100.45187 102.37837 99.7175 103.0815Q98.98312 103.80025 97.76437 103.80025Q97.07687 103.80025 96.42062 103.50337Q95.76437 103.2065 95.42062 102.7065L95.98312 102.05025Q96.67062 102.90962 97.68625 102.90962Q98.4675 102.90962 98.905 102.4565Q99.35812 102.019 99.35812 101.2065L99.35812 100.65962Q98.70187 101.42525 97.57687 101.42525Q96.4675 101.42525 95.78 100.53462Q95.0925 99.62837 95.0925 98.0815ZM96.18625 98.2065Q96.18625 99.269 96.62375 99.894Q97.06125 100.50337 97.85812 100.50337Q98.87375 100.50337 99.35812 99.56587L99.35812 96.67525Q98.85812 95.769 97.85812 95.769Q97.07687 95.769 96.62375 96.37837Q96.18625 96.98775 96.18625 98.2065ZM104.98312 101.42525Q103.68625 101.42525 102.87375 100.5815Q102.07687 99.72212 102.07687 98.30025L102.07687 98.11275Q102.07687 97.15962 102.43625 96.42525Q102.79562 95.67525 103.43625 95.269Q104.0925 94.84712 104.8425 94.84712Q106.07687 94.84712 106.76437 95.65962Q107.45187 96.47212 107.45187 97.98775L107.45187 98.44087L103.155 98.44087Q103.18625 99.37837 103.70187 99.9565Q104.23312 100.53462 105.04562 100.53462Q105.60812 100.53462 105.99875 100.30025Q106.405 100.06587 106.7175 99.67525L107.37375 100.19087Q106.57687 101.42525 104.98312 101.42525ZM104.8425 95.73775Q104.18625 95.73775 103.73312 96.22212Q103.29562 96.69087 103.20187 97.55025L106.37375 97.55025L106.37375 97.47212Q106.32687 96.644 105.92062 96.19087Q105.53 95.73775 104.8425 95.73775ZM111.42062 95.92525Q111.17062 95.894 110.88937 95.894Q109.81125 95.894 109.43625 96.80025L109.43625 101.30025L108.35812 101.30025L108.35812 94.9565L109.405 94.9565L109.42062 95.69087Q109.95187 94.84712 110.93625 94.84712Q111.24875 94.84712 111.42062 94.92525L111.42062 95.92525ZM113.37375 94.9565L113.405 95.65962Q114.0925 94.84712 115.28 94.84712Q116.60812 94.84712 117.0925 95.86275Q117.405 95.40962 117.905 95.12837Q118.42062 94.84712 119.10812 94.84712Q121.20187 94.84712 121.23312 97.05025L121.23312 101.30025L120.155 101.30025L120.155 97.11275Q120.155 96.44087 119.8425 96.11275Q119.53 95.769 118.79562 95.769Q118.18625 95.769 117.78 96.12837Q117.38937 96.48775 117.32687 97.09712L117.32687 101.30025L116.24875 101.30025L116.24875 97.144Q116.24875 95.769 114.88937 95.769Q113.82687 95.769 113.43625 96.67525L113.43625 101.30025L112.3425 101.30025L112.3425 94.9565L113.37375 94.9565ZM127.26437 101.30025Q127.17062 101.11275 127.10812 100.62837Q126.35812 101.42525 125.31125 101.42525Q124.37375 101.42525 123.76437 100.894Q123.17062 100.36275 123.17062 99.53462Q123.17062 98.55025 123.92062 98.00337Q124.67062 97.4565 126.04562 97.4565L127.0925 97.4565L127.0925 96.9565Q127.0925 96.394 126.74875 96.06587Q126.42062 95.72212 125.74875 95.72212Q125.17062 95.72212 124.78 96.019Q124.38937 96.30025 124.38937 96.72212L123.29562 96.72212Q123.29562 96.23775 123.62375 95.80025Q123.9675 95.36275 124.54562 95.11275Q125.12375 94.84712 125.81125 94.84712Q126.92062 94.84712 127.53 95.394Q128.155 95.94087 128.18625 96.894L128.18625 99.81587Q128.18625 100.69087 128.405 101.2065L128.405 101.30025L127.26437 101.30025ZM125.4675 100.47212Q125.98312 100.47212 126.43625 100.2065Q126.88937 99.94087 127.0925 99.519L127.0925 98.22212L126.24875 98.22212Q124.24875 98.22212 124.24875 99.394Q124.24875 99.894 124.5925 100.19087Q124.93625 100.47212 125.4675 100.47212ZM131.37375 94.9565L131.405 95.75337Q132.13937 94.84712 133.31125 94.84712Q135.32687 94.84712 135.3425 97.11275L135.3425 101.30025L134.24875 101.30025L134.24875 97.09712Q134.24875 96.42525 133.93625 96.09712Q133.63937 95.769 132.98312 95.769Q132.45187 95.769 132.04562 96.05025Q131.655 96.3315 131.43625 96.78462L131.43625 101.30025L130.35812 101.30025L130.35812 94.9565L131.37375 94.9565ZM137.31125 100.73775Q137.31125 100.4565 137.4675 100.269Q137.63937 100.0815 137.9675 100.0815Q138.31125 100.0815 138.48312 100.269Q138.655 100.4565 138.655 100.73775Q138.655 101.00337 138.48312 101.19087Q138.31125 101.36275 137.9675 101.36275Q137.63937 101.36275 137.4675 101.19087Q137.31125 101.00337 137.31125 100.73775ZM137.32687 95.56587Q137.32687 95.28462 137.48312 95.09712Q137.655 94.90962 137.98312 94.90962Q138.32687 94.90962 138.49875 95.09712Q138.67062 95.28462 138.67062 95.56587Q138.67062 95.8315 138.49875 96.019Q138.32687 96.19087 137.98312 96.19087Q137.655 96.19087 137.48312 96.019Q137.32687 95.8315 137.32687 95.56587ZM143.88937 101.30025L143.88937 95.80025L142.88937 95.80025L142.88937 94.9565L143.88937 94.9565L143.88937 94.31587Q143.88937 93.28462 144.42062 92.73775Q144.9675 92.17525 145.9675 92.17525Q146.3425 92.17525 146.7175 92.269L146.655 93.15962Q146.37375 93.09712 146.07687 93.09712Q145.54562 93.09712 145.24875 93.40962Q144.9675 93.72212 144.9675 94.28462L144.9675 94.9565L146.32687 94.9565L146.32687 95.80025L144.9675 95.80025L144.9675 101.30025L143.88937 101.30025ZM151.26437 100.67525Q150.63937 101.42525 149.405 101.42525Q148.38937 101.42525 147.85812 100.8315Q147.32687 100.23775 147.32687 99.0815L147.32687 94.9565L148.405 94.9565L148.405 99.05025Q148.405 100.50337 149.57687 100.50337Q150.82687 100.50337 151.23312 99.56587L151.23312 94.9565L152.32687 94.9565L152.32687 101.30025L151.29562 101.30025L151.26437 100.67525ZM147.9675 93.269Q147.9675 93.00337 148.12375 92.8315Q148.29562 92.644 148.60812 92.644Q148.92062 92.644 149.07687 92.8315Q149.24875 93.00337 149.24875 93.269Q149.24875 93.53462 149.07687 93.7065Q148.92062 93.87837 148.60812 93.87837Q148.29562 93.87837 148.12375 93.7065Q147.9675 93.53462 147.9675 93.269ZM150.48312 93.28462Q150.48312 93.019 150.63937 92.8315Q150.81125 92.644 151.12375 92.644Q151.43625 92.644 151.5925 92.8315Q151.76437 93.019 151.76437 93.28462Q151.76437 93.53462 151.5925 93.72212Q151.43625 93.894 151.12375 93.894Q150.81125 93.894 150.63937 93.72212Q150.48312 93.53462 150.48312 93.28462ZM157.42062 95.92525Q157.17062 95.894 156.88937 95.894Q155.81125 95.894 155.43625 96.80025L155.43625 101.30025L154.35812 101.30025L154.35812 94.9565L155.405 94.9565L155.42062 95.69087Q155.95187 94.84712 156.93625 94.84712Q157.24875 94.84712 157.42062 94.92525L157.42062 95.92525Z" fill-rule="nonzero"/><path fill="#757575" d="M89.82687 161.30833L89.82687 162.83958L90.99875 162.83958L90.99875 163.68333L89.82687 163.68333L89.82687 167.60521Q89.82687 167.99583 89.98312 168.18333Q90.13937 168.37083 90.51437 168.37083Q90.70187 168.37083 91.03 168.30833L91.03 169.18333Q90.60812 169.30833 90.20187 169.30833Q89.48312 169.30833 89.10812 168.87083Q88.73312 168.41771 88.73312 167.60521L88.73312 163.68333L87.57687 163.68333L87.57687 162.83958L88.73312 162.83958L88.73312 161.30833L89.82687 161.30833ZM94.98312 169.30833Q93.68625 169.30833 92.87375 168.46458Q92.07687 167.60521 92.07687 166.18333L92.07687 165.99583Q92.07687 165.04271 92.43625 164.30833Q92.79562 163.55833 93.43625 163.15208Q94.0925 162.73021 94.8425 162.73021Q96.07687 162.73021 96.76437 163.54271Q97.45187 164.35521 97.45187 165.87083L97.45187 166.32396L93.155 166.32396Q93.18625 167.26146 93.70187 167.83958Q94.23312 168.41771 95.04562 168.41771Q95.60812 168.41771 95.99875 168.18333Q96.405 167.94896 96.7175 167.55833L97.37375 168.07396Q96.57687 169.30833 94.98312 169.30833ZM94.8425 163.62083Q94.18625 163.62083 93.73312 164.10521Q93.29562 164.57396 93.20187 165.43333L96.37375 165.43333L96.37375 165.35521Q96.32687 164.52708 95.92062 164.07396Q95.53 163.62083 94.8425 163.62083ZM100.48312 165.15208L101.88937 162.83958L103.155 162.83958L101.07687 165.98021L103.2175 169.18333L101.9675 169.18333L100.49875 166.80833L99.03 169.18333L97.76437 169.18333L99.905 165.98021L97.8425 162.83958L99.0925 162.83958L100.48312 165.15208ZM105.82687 161.30833L105.82687 162.83958L106.99875 162.83958L106.99875 163.68333L105.82687 163.68333L105.82687 167.60521Q105.82687 167.99583 105.98312 168.18333Q106.13937 168.37083 106.51437 168.37083Q106.70187 168.37083 107.03 168.30833L107.03 169.18333Q106.60812 169.30833 106.20187 169.30833Q105.48312 169.30833 105.10812 168.87083Q104.73312 168.41771 104.73312 167.60521L104.73312 163.68333L103.57687 163.68333L103.57687 162.83958L104.73312 162.83958L104.73312 161.30833L105.82687 161.30833ZM112.92062 170.07396L107.56125 170.07396L107.56125 169.18333L112.92062 169.18333L112.92062 170.07396ZM113.0925 165.96458Q113.0925 164.48021 113.78 163.60521Q114.4675 162.73021 115.5925 162.73021Q116.74875 162.73021 117.405 163.54271L117.45187 162.83958L118.45187 162.83958L118.45187 169.02708Q118.45187 170.26146 117.7175 170.96458Q116.98312 171.68333 115.76437 171.68333Q115.07687 171.68333 114.42062 171.38646Q113.76437 171.08958 113.42062 170.58958L113.98312 169.93333Q114.67062 170.79271 115.68625 170.79271Q116.4675 170.79271 116.905 170.33958Q117.35812 169.90208 117.35812 169.08958L117.35812 168.54271Q116.70187 169.30833 115.57687 169.30833Q114.4675 169.30833 113.78 168.41771Q113.0925 167.51146 113.0925 165.96458ZM114.18625 166.08958Q114.18625 167.15208 114.62375 167.77708Q115.06125 168.38646 115.85812 168.38646Q116.87375 168.38646 117.35812 167.44896L117.35812 164.55833Q116.85812 163.65208 115.85812 163.65208Q115.07687 163.65208 114.62375 164.26146Q114.18625 164.87083 114.18625 166.08958ZM122.98312 169.30833Q121.68625 169.30833 120.87375 168.46458Q120.07687 167.60521 120.07687 166.18333L120.07687 165.99583Q120.07687 165.04271 120.43625 164.30833Q120.79562 163.55833 121.43625 163.15208Q122.0925 162.73021 122.8425 162.73021Q124.07687 162.73021 124.76437 163.54271Q125.45187 164.35521 125.45187 165.87083L125.45187 166.32396L121.155 166.32396Q121.18625 167.26146 121.70187 167.83958Q122.23312 168.41771 123.04562 168.41771Q123.60812 168.41771 123.99875 168.18333Q124.405 167.94896 124.7175 167.55833L125.37375 168.07396Q124.57687 169.30833 122.98312 169.30833ZM122.8425 163.62083Q122.18625 163.62083 121.73312 164.10521Q121.29562 164.57396 121.20187 165.43333L124.37375 165.43333L124.37375 165.35521Q124.32687 164.52708 123.92062 164.07396Q123.53 163.62083 122.8425 163.62083ZM129.42062 163.80833Q129.17062 163.77708 128.88937 163.77708Q127.81125 163.77708 127.43625 164.68333L127.43625 169.18333L126.35812 169.18333L126.35812 162.83958L127.405 162.83958L127.42062 163.57396Q127.95187 162.73021 128.93625 162.73021Q129.24875 162.73021 129.42062 162.80833L129.42062 163.80833ZM131.37375 162.83958L131.405 163.54271Q132.0925 162.73021 133.28 162.73021Q134.60812 162.73021 135.0925 163.74583Q135.405 163.29271 135.905 163.01146Q136.42062 162.73021 137.10812 162.73021Q139.20187 162.73021 139.23312 164.93333L139.23312 169.18333L138.155 169.18333L138.155 164.99583Q138.155 164.32396 137.8425 163.99583Q137.53 163.65208 136.79562 163.65208Q136.18625 163.65208 135.78 164.01146Q135.38937 164.37083 135.32687 164.98021L135.32687 169.18333L134.24875 169.18333L134.24875 165.02708Q134.24875 163.65208 132.88937 163.65208Q131.82687 163.65208 131.43625 164.55833L131.43625 169.18333L130.3425 169.18333L130.3425 162.83958L131.37375 162.83958ZM145.26437 169.18333Q145.17062 168.99583 145.10812 168.51146Q144.35812 169.30833 143.31125 169.30833Q142.37375 169.30833 141.76437 168.77708Q141.17062 168.24583 141.17062 167.41771Q141.17062 166.43333 141.92062 165.88646Q142.67062 165.33958 144.04562 165.33958L145.0925 165.33958L145.0925 164.83958Q145.0925 164.27708 144.74875 163.94896Q144.42062 163.60521 143.74875 163.60521Q143.17062 163.60521 142.78 163.90208Q142.38937 164.18333 142.38937 164.60521L141.29562 164.60521Q141.29562 164.12083 141.62375 163.68333Q141.9675 163.24583 142.54562 162.99583Q143.12375 162.73021 143.81125 162.73021Q144.92062 162.73021 145.53 163.27708Q146.155 163.82396 146.18625 164.77708L146.18625 167.69896Q146.18625 168.57396 146.405 169.08958L146.405 169.18333L145.26437 169.18333ZM143.4675 168.35521Q143.98312 168.35521 144.43625 168.08958Q144.88937 167.82396 145.0925 167.40208L145.0925 166.10521L144.24875 166.10521Q142.24875 166.10521 142.24875 167.27708Q142.24875 167.77708 142.5925 168.07396Q142.93625 168.35521 143.4675 168.35521ZM149.37375 162.83958L149.405 163.63646Q150.13937 162.73021 151.31125 162.73021Q153.32687 162.73021 153.3425 164.99583L153.3425 169.18333L152.24875 169.18333L152.24875 164.98021Q152.24875 164.30833 151.93625 163.98021Q151.63937 163.65208 150.98312 163.65208Q150.45187 163.65208 150.04562 163.93333Q149.655 164.21458 149.43625 164.66771L149.43625 169.18333L148.35812 169.18333L148.35812 162.83958L149.37375 162.83958ZM155.31125 168.62083Q155.31125 168.33958 155.4675 168.15208Q155.63937 167.96458 155.9675 167.96458Q156.31125 167.96458 156.48312 168.15208Q156.655 168.33958 156.655 168.62083Q156.655 168.88646 156.48312 169.07396Q156.31125 169.24583 155.9675 169.24583Q155.63937 169.24583 155.4675 169.07396Q155.31125 168.88646 155.31125 168.62083ZM155.32687 163.44896Q155.32687 163.16771 155.48312 162.98021Q155.655 162.79271 155.98312 162.79271Q156.32687 162.79271 156.49875 162.98021Q156.67062 163.16771 156.67062 163.44896Q156.67062 163.71458 156.49875 163.90208Q156.32687 164.07396 155.98312 164.07396Q155.655 164.07396 155.48312 163.90208Q155.32687 163.71458 155.32687 163.44896Z" fill-rule="nonzero"/><path fill="#757575" d="M123.70187 181.08958Q123.70187 182.52708 123.04562 183.41771Q122.38937 184.30833 121.24875 184.30833Q120.0925 184.30833 119.43625 183.57396L119.43625 186.62083L118.35812 186.62083L118.35812 177.83958L119.3425 177.83958L119.38937 178.54271Q120.06125 177.73021 121.23312 177.73021Q122.37375 177.73021 123.03 178.58958Q123.70187 179.44896 123.70187 180.98021L123.70187 181.08958ZM122.62375 180.96458Q122.62375 179.88646 122.155 179.27708Q121.70187 178.65208 120.905 178.65208Q119.92062 178.65208 119.43625 179.51146L119.43625 182.54271Q119.92062 183.41771 120.92062 183.41771Q121.70187 183.41771 122.155 182.80833Q122.62375 182.18333 122.62375 180.96458ZM129.26437 184.18333Q129.17062 183.99583 129.10812 183.51146Q128.35812 184.30833 127.31125 184.30833Q126.37375 184.30833 125.76437 183.77708Q125.17062 183.24583 125.17062 182.41771Q125.17062 181.43333 125.92062 180.88646Q126.67062 180.33958 128.04562 180.33958L129.0925 180.33958L129.0925 179.83958Q129.0925 179.27708 128.74875 178.94896Q128.42062 178.60521 127.74875 178.60521Q127.17062 178.60521 126.78 178.90208Q126.38937 179.18333 126.38937 179.60521L125.29562 179.60521Q125.29562 179.12083 125.62375 178.68333Q125.9675 178.24583 126.54562 177.99583Q127.12375 177.73021 127.81125 177.73021Q128.92062 177.73021 129.53 178.27708Q130.155 178.82396 130.18625 179.77708L130.18625 182.69896Q130.18625 183.57396 130.405 184.08958L130.405 184.18333L129.26437 184.18333ZM127.4675 183.35521Q127.98312 183.35521 128.43625 183.08958Q128.88937 182.82396 129.0925 182.40208L129.0925 181.10521L128.24875 181.10521Q126.24875 181.10521 126.24875 182.27708Q126.24875 182.77708 126.5925 183.07396Q126.93625 183.35521 127.4675 183.35521ZM135.42062 178.80833Q135.17062 178.77708 134.88937 178.77708Q133.81125 178.77708 133.43625 179.68333L133.43625 184.18333L132.35812 184.18333L132.35812 177.83958L133.405 177.83958L133.42062 178.57396Q133.95187 177.73021 134.93625 177.73021Q135.24875 177.73021 135.42062 177.80833L135.42062 178.80833ZM140.26437 184.18333Q140.17062 183.99583 140.10812 183.51146Q139.35812 184.30833 138.31125 184.30833Q137.37375 184.30833 136.76437 183.77708Q136.17062 183.24583 136.17062 182.41771Q136.17062 181.43333 136.92062 180.88646Q137.67062 180.33958 139.04562 180.33958L140.0925 180.33958L140.0925 179.83958Q140.0925 179.27708 139.74875 178.94896Q139.42062 178.60521 138.74875 178.60521Q138.17062 178.60521 137.78 178.90208Q137.38937 179.18333 137.38937 179.60521L136.29562 179.60521Q136.29562 179.12083 136.62375 178.68333Q136.9675 178.24583 137.54562 177.99583Q138.12375 177.73021 138.81125 177.73021Q139.92062 177.73021 140.53 178.27708Q141.155 178.82396 141.18625 179.77708L141.18625 182.69896Q141.18625 183.57396 141.405 184.08958L141.405 184.18333L140.26437 184.18333ZM138.4675 183.35521Q138.98312 183.35521 139.43625 183.08958Q139.88937 182.82396 140.0925 182.40208L140.0925 181.10521L139.24875 181.10521Q137.24875 181.10521 137.24875 182.27708Q137.24875 182.77708 137.5925 183.07396Q137.93625 183.35521 138.4675 183.35521ZM144.53 184.18333L143.45187 184.18333L143.45187 175.18333L144.53 175.18333L144.53 184.18333ZM147.53 184.18333L146.45187 184.18333L146.45187 175.18333L147.53 175.18333L147.53 184.18333ZM151.98312 184.30833Q150.68625 184.30833 149.87375 183.46458Q149.07687 182.60521 149.07687 181.18333L149.07687 180.99583Q149.07687 180.04271 149.43625 179.30833Q149.79562 178.55833 150.43625 178.15208Q151.0925 177.73021 151.8425 177.73021Q153.07687 177.73021 153.76437 178.54271Q154.45187 179.35521 154.45187 180.87083L154.45187 181.32396L150.155 181.32396Q150.18625 182.26146 150.70187 182.83958Q151.23312 183.41771 152.04562 183.41771Q152.60812 183.41771 152.99875 183.18333Q153.405 182.94896 153.7175 182.55833L154.37375 183.07396Q153.57687 184.30833 151.98312 184.30833ZM151.8425 178.62083Q151.18625 178.62083 150.73312 179.10521Q150.29562 179.57396 150.20187 180.43333L153.37375 180.43333L153.37375 180.35521Q153.32687 179.52708 152.92062 179.07396Q152.53 178.62083 151.8425 178.62083ZM156.53 184.18333L155.45187 184.18333L155.45187 175.18333L156.53 175.18333L156.53 184.18333Z" fill-rule="nonzero"/><path fill="#757575" d="M89.82687 236.69142L89.82687 238.22267L90.99875 238.22267L90.99875 239.06642L89.82687 239.06642L89.82687 242.9883Q89.82687 243.37892 89.98312 243.56642Q90.13937 243.75392 90.51437 243.75392Q90.70187 243.75392 91.03 243.69142L91.03 244.56642Q90.60812 244.69142 90.20187 244.69142Q89.48312 244.69142 89.10812 244.25392Q88.73312 243.8008 88.73312 242.9883L88.73312 239.06642L87.57687 239.06642L87.57687 238.22267L88.73312 238.22267L88.73312 236.69142L89.82687 236.69142ZM94.98312 244.69142Q93.68625 244.69142 92.87375 243.84767Q92.07687 242.9883 92.07687 241.56642L92.07687 241.37892Q92.07687 240.4258 92.43625 239.69142Q92.79562 238.94142 93.43625 238.53517Q94.0925 238.1133 94.8425 238.1133Q96.07687 238.1133 96.76437 238.9258Q97.45187 239.7383 97.45187 241.25392L97.45187 241.70705L93.155 241.70705Q93.18625 242.64455 93.70187 243.22267Q94.23312 243.8008 95.04562 243.8008Q95.60812 243.8008 95.99875 243.56642Q96.405 243.33205 96.7175 242.94142L97.37375 243.45705Q96.57687 244.69142 94.98312 244.69142ZM94.8425 239.00392Q94.18625 239.00392 93.73312 239.4883Q93.29562 239.95705 93.20187 240.81642L96.37375 240.81642L96.37375 240.7383Q96.32687 239.91017 95.92062 239.45705Q95.53 239.00392 94.8425 239.00392ZM100.48312 240.53517L101.88937 238.22267L103.155 238.22267L101.07687 241.3633L103.2175 244.56642L101.9675 244.56642L100.49875 242.19142L99.03 244.56642L97.76437 244.56642L99.905 241.3633L97.8425 238.22267L99.0925 238.22267L100.48312 240.53517ZM105.82687 236.69142L105.82687 238.22267L106.99875 238.22267L106.99875 239.06642L105.82687 239.06642L105.82687 242.9883Q105.82687 243.37892 105.98312 243.56642Q106.13937 243.75392 106.51437 243.75392Q106.70187 243.75392 107.03 243.69142L107.03 244.56642Q106.60812 244.69142 106.20187 244.69142Q105.48312 244.69142 105.10812 244.25392Q104.73312 243.8008 104.73312 242.9883L104.73312 239.06642L103.57687 239.06642L103.57687 238.22267L104.73312 238.22267L104.73312 236.69142L105.82687 236.69142ZM112.92062 245.45705L107.56125 245.45705L107.56125 244.56642L112.92062 244.56642L112.92062 245.45705ZM113.0925 241.34767Q113.0925 239.8633 113.78 238.9883Q114.4675 238.1133 115.5925 238.1133Q116.74875 238.1133 117.405 238.9258L117.45187 238.22267L118.45187 238.22267L118.45187 244.41017Q118.45187 245.64455 117.7175 246.34767Q116.98312 247.06642 115.76437 247.06642Q115.07687 247.06642 114.42062 246.76955Q113.76437 246.47267 113.42062 245.97267L113.98312 245.31642Q114.67062 246.1758 115.68625 246.1758Q116.4675 246.1758 116.905 245.72267Q117.35812 245.28517 117.35812 244.47267L117.35812 243.9258Q116.70187 244.69142 115.57687 244.69142Q114.4675 244.69142 113.78 243.8008Q113.0925 242.89455 113.0925 241.34767ZM114.18625 241.47267Q114.18625 242.53517 114.62375 243.16017Q115.06125 243.76955 115.85812 243.76955Q116.87375 243.76955 117.35812 242.83205L117.35812 239.94142Q116.85812 239.03517 115.85812 239.03517Q115.07687 239.03517 114.62375 239.64455Q114.18625 240.25392 114.18625 241.47267ZM122.98312 244.69142Q121.68625 244.69142 120.87375 243.84767Q120.07687 242.9883 120.07687 241.56642L120.07687 241.37892Q120.07687 240.4258 120.43625 239.69142Q120.79562 238.94142 121.43625 238.53517Q122.0925 238.1133 122.8425 238.1133Q124.07687 238.1133 124.76437 238.9258Q125.45187 239.7383 125.45187 241.25392L125.45187 241.70705L121.155 241.70705Q121.18625 242.64455 121.70187 243.22267Q122.23312 243.8008 123.04562 243.8008Q123.60812 243.8008 123.99875 243.56642Q124.405 243.33205 124.7175 242.94142L125.37375 243.45705Q124.57687 244.69142 122.98312 244.69142ZM122.8425 239.00392Q122.18625 239.00392 121.73312 239.4883Q121.29562 239.95705 121.20187 240.81642L124.37375 240.81642L124.37375 240.7383Q124.32687 239.91017 123.92062 239.45705Q123.53 239.00392 122.8425 239.00392ZM129.42062 239.19142Q129.17062 239.16017 128.88937 239.16017Q127.81125 239.16017 127.43625 240.06642L127.43625 244.56642L126.35812 244.56642L126.35812 238.22267L127.405 238.22267L127.42062 238.95705Q127.95187 238.1133 128.93625 238.1133Q129.24875 238.1133 129.42062 238.19142L129.42062 239.19142ZM131.37375 238.22267L131.405 238.9258Q132.0925 238.1133 133.28 238.1133Q134.60812 238.1133 135.0925 239.12892Q135.405 238.6758 135.905 238.39455Q136.42062 238.1133 137.10812 238.1133Q139.20187 238.1133 139.23312 240.31642L139.23312 244.56642L138.155 244.56642L138.155 240.37892Q138.155 239.70705 137.8425 239.37892Q137.53 239.03517 136.79562 239.03517Q136.18625 239.03517 135.78 239.39455Q135.38937 239.75392 135.32687 240.3633L135.32687 244.56642L134.24875 244.56642L134.24875 240.41017Q134.24875 239.03517 132.88937 239.03517Q131.82687 239.03517 131.43625 239.94142L131.43625 244.56642L130.3425 244.56642L130.3425 238.22267L131.37375 238.22267ZM145.26437 244.56642Q145.17062 244.37892 145.10812 243.89455Q144.35812 244.69142 143.31125 244.69142Q142.37375 244.69142 141.76437 244.16017Q141.17062 243.62892 141.17062 242.8008Q141.17062 241.81642 141.92062 241.26955Q142.67062 240.72267 144.04562 240.72267L145.0925 240.72267L145.0925 240.22267Q145.0925 239.66017 144.74875 239.33205Q144.42062 238.9883 143.74875 238.9883Q143.17062 238.9883 142.78 239.28517Q142.38937 239.56642 142.38937 239.9883L141.29562 239.9883Q141.29562 239.50392 141.62375 239.06642Q141.9675 238.62892 142.54562 238.37892Q143.12375 238.1133 143.81125 238.1133Q144.92062 238.1133 145.53 238.66017Q146.155 239.20705 146.18625 240.16017L146.18625 243.08205Q146.18625 243.95705 146.405 244.47267L146.405 244.56642L145.26437 244.56642ZM143.4675 243.7383Q143.98312 243.7383 144.43625 243.47267Q144.88937 243.20705 145.0925 242.78517L145.0925 241.4883L144.24875 241.4883Q142.24875 241.4883 142.24875 242.66017Q142.24875 243.16017 142.5925 243.45705Q142.93625 243.7383 143.4675 243.7383ZM149.37375 238.22267L149.405 239.01955Q150.13937 238.1133 151.31125 238.1133Q153.32687 238.1133 153.3425 240.37892L153.3425 244.56642L152.24875 244.56642L152.24875 240.3633Q152.24875 239.69142 151.93625 239.3633Q151.63937 239.03517 150.98312 239.03517Q150.45187 239.03517 150.04562 239.31642Q149.655 239.59767 149.43625 240.0508L149.43625 244.56642L148.35812 244.56642L148.35812 238.22267L149.37375 238.22267ZM155.31125 244.00392Q155.31125 243.72267 155.4675 243.53517Q155.63937 243.34767 155.9675 243.34767Q156.31125 243.34767 156.48312 243.53517Q156.655 243.72267 156.655 244.00392Q156.655 244.26955 156.48312 244.45705Q156.31125 244.62892 155.9675 244.62892Q155.63937 244.62892 155.4675 244.45705Q155.31125 244.26955 155.31125 244.00392ZM155.32687 238.83205Q155.32687 238.5508 155.48312 238.3633Q155.655 238.1758 155.98312 238.1758Q156.32687 238.1758 156.49875 238.3633Q156.67062 238.5508 156.67062 238.83205Q156.67062 239.09767 156.49875 239.28517Q156.32687 239.45705 155.98312 239.45705Q155.655 239.45705 155.48312 239.28517Q155.32687 239.09767 155.32687 238.83205Z" fill-rule="nonzero"/><path fill="#757575" d="M125.04562 257.8789Q125.04562 257.4414 124.70187 257.20703Q124.37375 256.95703 123.54562 256.78516Q122.73312 256.61328 122.24875 256.36328Q121.76437 256.11328 121.53 255.78516Q121.31125 255.4414 121.31125 254.97266Q121.31125 254.1914 121.9675 253.66016Q122.62375 253.11328 123.655 253.11328Q124.73312 253.11328 125.38937 253.67578Q126.06125 254.22266 126.06125 255.08203L124.98312 255.08203Q124.98312 254.64453 124.5925 254.33203Q124.2175 254.0039 123.655 254.0039Q123.06125 254.0039 122.7175 254.26953Q122.38937 254.51953 122.38937 254.92578Q122.38937 255.3164 122.70187 255.51953Q123.01437 255.72266 123.82687 255.91016Q124.63937 256.08203 125.13937 256.33203Q125.63937 256.58203 125.87375 256.9414Q126.12375 257.30078 126.12375 257.80078Q126.12375 258.66016 125.43625 259.17578Q124.76437 259.6914 123.68625 259.6914Q122.92062 259.6914 122.32687 259.42578Q121.74875 259.14453 121.42062 258.66016Q121.0925 258.17578 121.0925 257.61328L122.17062 257.61328Q122.20187 258.16016 122.60812 258.48828Q123.01437 258.80078 123.68625 258.80078Q124.29562 258.80078 124.67062 258.55078Q125.04562 258.30078 125.04562 257.8789ZM132.70187 256.47266Q132.70187 257.91016 132.04562 258.80078Q131.38937 259.6914 130.24875 259.6914Q129.0925 259.6914 128.43625 258.95703L128.43625 262.0039L127.35812 262.0039L127.35812 253.22266L128.3425 253.22266L128.38937 253.92578Q129.06125 253.11328 130.23312 253.11328Q131.37375 253.11328 132.03 253.97266Q132.70187 254.83203 132.70187 256.36328L132.70187 256.47266ZM131.62375 256.34766Q131.62375 255.26953 131.155 254.66016Q130.70187 254.03516 129.905 254.03516Q128.92062 254.03516 128.43625 254.89453L128.43625 257.92578Q128.92062 258.80078 129.92062 258.80078Q130.70187 258.80078 131.155 258.1914Q131.62375 257.5664 131.62375 256.34766ZM137.42062 254.1914Q137.17062 254.16016 136.88937 254.16016Q135.81125 254.16016 135.43625 255.0664L135.43625 259.5664L134.35812 259.5664L134.35812 253.22266L135.405 253.22266L135.42062 253.95703Q135.95187 253.11328 136.93625 253.11328Q137.24875 253.11328 137.42062 253.1914L137.42062 254.1914ZM142.26437 259.5664Q142.17062 259.3789 142.10812 258.89453Q141.35812 259.6914 140.31125 259.6914Q139.37375 259.6914 138.76437 259.16016Q138.17062 258.6289 138.17062 257.80078Q138.17062 256.8164 138.92062 256.26953Q139.67062 255.72266 141.04562 255.72266L142.0925 255.72266L142.0925 255.22266Q142.0925 254.66016 141.74875 254.33203Q141.42062 253.98828 140.74875 253.98828Q140.17062 253.98828 139.78 254.28516Q139.38937 254.5664 139.38937 254.98828L138.29562 254.98828Q138.29562 254.5039 138.62375 254.0664Q138.9675 253.6289 139.54562 253.3789Q140.12375 253.11328 140.81125 253.11328Q141.92062 253.11328 142.53 253.66016Q143.155 254.20703 143.18625 255.16016L143.18625 258.08203Q143.18625 258.95703 143.405 259.47266L143.405 259.5664L142.26437 259.5664ZM140.4675 258.73828Q140.98312 258.73828 141.43625 258.47266Q141.88937 258.20703 142.0925 257.78516L142.0925 256.48828L141.24875 256.48828Q139.24875 256.48828 139.24875 257.66016Q139.24875 258.16016 139.5925 258.45703Q139.93625 258.73828 140.4675 258.73828ZM147.88937 258.80078Q148.4675 258.80078 148.905 258.45703Q149.3425 258.09766 149.38937 257.5664L150.42062 257.5664Q150.38937 258.11328 150.03 258.61328Q149.68625 259.09766 149.10812 259.39453Q148.54562 259.6914 147.88937 259.6914Q146.5925 259.6914 145.82687 258.83203Q145.07687 257.95703 145.07687 256.45703L145.07687 256.26953Q145.07687 255.34766 145.405 254.6289Q145.74875 253.91016 146.37375 253.51953Q147.01437 253.11328 147.88937 253.11328Q148.95187 253.11328 149.655 253.7539Q150.37375 254.3789 150.42062 255.41016L149.38937 255.41016Q149.3425 254.78516 148.92062 254.39453Q148.49875 254.0039 147.88937 254.0039Q147.06125 254.0039 146.60812 254.59766Q146.155 255.1914 146.155 256.3164L146.155 256.51953Q146.155 257.61328 146.60812 258.20703Q147.06125 258.80078 147.88937 258.80078ZM152.43625 253.98828Q153.155 253.11328 154.31125 253.11328Q156.32687 253.11328 156.3425 255.3789L156.3425 259.5664L155.24875 259.5664L155.24875 255.36328Q155.24875 254.6914 154.93625 254.36328Q154.63937 254.03516 153.98312 254.03516Q153.45187 254.03516 153.04562 254.3164Q152.655 254.59766 152.43625 255.05078L152.43625 259.5664L151.35812 259.5664L151.35812 250.5664L152.43625 250.5664L152.43625 253.98828Z" fill-rule="nonzero"/><path fill="#757575" d="M166.0925 312.8094Q166.0925 314.71564 165.43625 315.65314Q164.79562 316.575 163.405 316.575Q162.04562 316.575 161.38937 315.66876Q160.73312 314.7625 160.70187 312.95L160.70187 311.5125Q160.70187 309.6219 161.3425 308.71564Q161.99875 307.79376 163.38937 307.79376Q164.76437 307.79376 165.42062 308.6844Q166.07687 309.5594 166.0925 311.40314L166.0925 312.8094ZM164.99875 311.325Q164.99875 309.95 164.60812 309.325Q164.23312 308.6844 163.38937 308.6844Q162.56125 308.6844 162.17062 309.325Q161.79562 309.95 161.79562 311.2469L161.79562 312.98126Q161.79562 314.35626 162.18625 315.02814Q162.5925 315.6844 163.405 315.6844Q164.20187 315.6844 164.5925 315.0594Q164.98312 314.4344 164.99875 313.10626L164.99875 311.325Z" fill-rule="nonzero"/><path fill="#757575" d="M235.98021 316.45L230.38646 316.45L230.38646 315.66876L233.33958 312.3875Q233.99583 311.6375 234.24583 311.1844Q234.49583 310.71564 234.49583 310.21564Q234.49583 309.54376 234.08958 309.1219Q233.69896 308.6844 233.01146 308.6844Q232.21458 308.6844 231.76146 309.15314Q231.30833 309.60626 231.30833 310.4344L230.23021 310.4344Q230.23021 309.2469 230.98021 308.52814Q231.74583 307.79376 233.01146 307.79376Q234.21458 307.79376 234.90208 308.41876Q235.58958 309.04376 235.58958 310.09064Q235.58958 311.34064 233.98021 313.09064L231.69896 315.5594L235.98021 315.5594L235.98021 316.45Z" fill-rule="nonzero"/><path fill="#757575" d="M304.61792 313.59064L305.80542 313.59064L305.80542 314.46564L304.61792 314.46564L304.61792 316.45L303.5398 316.45L303.5398 314.46564L299.64917 314.46564L299.64917 313.825L303.46167 307.91876L304.61792 307.91876L304.61792 313.59064ZM300.88354 313.59064L303.5398 313.59064L303.5398 309.40314L303.39917 309.6375L300.88354 313.59064Z" fill-rule="nonzero"/><path fill="#757575" d="M373.95874 307.91876L373.95874 308.825L373.7556 308.825Q372.49 308.85626 371.74 309.59064Q370.99 310.3094 370.865 311.6219Q371.5525 310.85626 372.70874 310.85626Q373.8181 310.85626 374.49 311.6375Q375.16187 312.41876 375.16187 313.66876Q375.16187 314.98126 374.4431 315.77814Q373.72437 316.575 372.5056 316.575Q371.28687 316.575 370.52124 315.6375Q369.77124 314.6844 369.77124 313.2L369.77124 312.79376Q369.77124 310.4344 370.77124 309.1844Q371.77124 307.9344 373.7556 307.91876L373.95874 307.91876ZM372.53687 311.7625Q371.97437 311.7625 371.5056 312.09064Q371.03687 312.41876 370.84937 312.9344L370.84937 313.325Q370.84937 314.3875 371.3181 315.02814Q371.8025 315.66876 372.5056 315.66876Q373.24 315.66876 373.66187 315.1375Q374.08374 314.59064 374.08374 313.71564Q374.08374 312.84064 373.66187 312.3094Q373.24 311.7625 372.53687 311.7625Z" fill-rule="nonzero"/><path fill="#757575" d="M444.53397 310.1375Q444.53397 310.77814 444.19022 311.27814Q443.84647 311.77814 443.28397 312.0594Q443.94022 312.34064 444.33084 312.90314Q444.72147 313.45 444.72147 314.15314Q444.72147 315.2469 443.97147 315.91876Q443.2371 316.575 442.01834 316.575Q440.78397 316.575 440.03397 315.91876Q439.2996 315.2469 439.2996 314.15314Q439.2996 313.45 439.6746 312.90314Q440.0496 312.34064 440.72147 312.0594Q440.15897 311.77814 439.83084 311.27814Q439.50272 310.77814 439.50272 310.1375Q439.50272 309.0594 440.19022 308.4344Q440.87772 307.79376 442.01834 307.79376Q443.14334 307.79376 443.83084 308.4344Q444.53397 309.0594 444.53397 310.1375ZM443.64334 314.1219Q443.64334 313.40314 443.19022 312.96564Q442.7371 312.5125 442.00272 312.5125Q441.26834 312.5125 440.81522 312.96564Q440.37772 313.40314 440.37772 314.1375Q440.37772 314.85626 440.81522 315.27814Q441.25272 315.6844 442.01834 315.6844Q442.76834 315.6844 443.20584 315.2625Q443.64334 314.84064 443.64334 314.1219ZM442.01834 308.6844Q441.37772 308.6844 440.97147 309.09064Q440.58084 309.48126 440.58084 310.16876Q440.58084 310.8094 440.97147 311.21564Q441.3621 311.6219 442.00272 311.6219Q442.65897 311.6219 443.0496 311.21564Q443.44022 310.8094 443.44022 310.16876Q443.44022 309.5125 443.03397 309.10626Q442.62772 308.6844 442.01834 308.6844Z" fill-rule="nonzero"/><path fill="#757575" d="M509.0623 316.45L507.98416 316.45L507.98416 309.23126L505.79666 310.02814L505.79666 309.04376L508.90604 307.8719L509.0623 307.8719L509.0623 316.45ZM517.85913 312.8094Q517.85913 314.71564 517.2029 315.65314Q516.56226 316.575 515.17163 316.575Q513.81226 316.575 513.156 315.66876Q512.49976 314.7625 512.4685 312.95L512.4685 311.5125Q512.4685 309.6219 513.10913 308.71564Q513.7654 307.79376 515.156 307.79376Q516.531 307.79376 517.18726 308.6844Q517.8435 309.5594 517.85913 311.40314L517.85913 312.8094ZM516.7654 311.325Q516.7654 309.95 516.37476 309.325Q515.99976 308.6844 515.156 308.6844Q514.3279 308.6844 513.93726 309.325Q513.56226 309.95 513.56226 311.2469L513.56226 312.98126Q513.56226 314.35626 513.9529 315.02814Q514.35913 315.6844 515.17163 315.6844Q515.9685 315.6844 516.35913 315.0594Q516.74976 314.4344 516.7654 313.10626L516.7654 311.325Z" fill-rule="nonzero"/><path fill="#757575" d="M578.71564 316.45L577.6375 316.45L577.6375 309.23126L575.45 310.02814L575.45 309.04376L578.5594 307.8719L578.71564 307.8719L578.71564 316.45ZM587.7469 316.45L582.15314 316.45L582.15314 315.66876L585.10626 312.3875Q585.7625 311.6375 586.0125 311.1844Q586.2625 310.71564 586.2625 310.21564Q586.2625 309.54376 585.85626 309.1219Q585.46564 308.6844 584.77814 308.6844Q583.98126 308.6844 583.52814 309.15314Q583.075 309.60626 583.075 310.4344L581.9969 310.4344Q581.9969 309.2469 582.7469 308.52814Q583.5125 307.79376 584.77814 307.79376Q585.98126 307.79376 586.66876 308.41876Q587.35626 309.04376 587.35626 310.09064Q587.35626 311.34064 585.7469 313.09064L583.46564 315.5594L587.7469 315.5594L587.7469 316.45Z" fill-rule="nonzero"/><path fill="#ffe599" d="M175.5 21.05C175.5 20.497715 175.94771 20.05 176.5 20.05L186.5 20.05C187.05229 20.05 187.5 20.497715 187.5 21.05L187.5 31.05C187.5 31.602285 187.05229 32.05 186.5 32.05L176.5 32.05C175.94771 32.05 175.5 31.602285 175.5 31.05Z" fill-rule="nonzero"/><path fill="#757575" d="M202.79688 29.425Q202.35938 30.05 201.57812 30.3625Q200.79688 30.675 199.76562 30.675Q198.73438 30.675 197.92188 30.190624Q197.10938 29.690624 196.67188 28.784374Q196.23438 27.878124 196.21875 26.690624L196.21875 25.95625Q196.21875 24.01875 197.10938 22.95625Q198.01562 21.89375 199.64062 21.89375Q200.98438 21.89375 201.79688 22.58125Q202.60938 23.26875 202.79688 24.51875L201.67188 24.51875Q201.34375 22.83125 199.65625 22.83125Q198.51562 22.83125 197.9375 23.628124Q197.35938 24.409374 197.34375 25.925L197.34375 26.6125Q197.34375 28.05 198.0 28.909374Q198.65625 29.753124 199.78125 29.753124Q200.40625 29.753124 200.875 29.6125Q201.35938 29.471874 201.67188 29.128124L201.67188 27.221874L199.70312 27.221874L199.70312 26.3L202.79688 26.3L202.79688 29.425ZM206.95312 30.675Q205.65625 30.675 204.84375 29.83125Q204.04688 28.971874 204.04688 27.55L204.04688 27.3625Q204.04688 26.409374 204.40625 25.675Q204.76562 24.925 205.40625 24.51875Q206.0625 24.096874 206.8125 24.096874Q208.04688 24.096874 208.73438 24.909374Q209.42188 25.721874 209.42188 27.2375L209.42188 27.690624L205.125 27.690624Q205.15625 28.628124 205.67188 29.20625Q206.20312 29.784374 207.01562 29.784374Q207.57812 29.784374 207.96875 29.55Q208.375 29.315624 208.6875 28.925L209.34375 29.440624Q208.54688 30.675 206.95312 30.675ZM206.8125 24.9875Q206.15625 24.9875 205.70312 25.471874Q205.26562 25.940624 205.17188 26.8L208.34375 26.8L208.34375 26.721874Q208.29688 25.89375 207.89062 25.440624Q207.5 24.9875 206.8125 24.9875ZM213.39062 25.175Q213.14062 25.14375 212.85938 25.14375Q211.78125 25.14375 211.40625 26.05L211.40625 30.55L210.32812 30.55L210.32812 24.20625L211.375 24.20625L211.39062 24.940624Q211.92188 24.096874 212.90625 24.096874Q213.21875 24.096874 213.39062 24.175L213.39062 25.175ZM215.34375 24.20625L215.375 24.909374Q216.0625 24.096874 217.25 24.096874Q218.57812 24.096874 219.0625 25.1125Q219.375 24.659374 219.875 24.378124Q220.39062 24.096874 221.07812 24.096874Q223.17188 24.096874 223.20312 26.3L223.20312 30.55L222.125 30.55L222.125 26.3625Q222.125 25.690624 221.8125 25.3625Q221.5 25.01875 220.76562 25.01875Q220.15625 25.01875 219.75 25.378124Q219.35938 25.7375 219.29688 26.346874L219.29688 30.55L218.21875 30.55L218.21875 26.39375Q218.21875 25.01875 216.85938 25.01875Q215.79688 25.01875 215.40625 25.925L215.40625 30.55L214.3125 30.55L214.3125 24.20625L215.34375 24.20625ZM229.23438 30.55Q229.14062 30.3625 229.07812 29.878124Q228.32812 30.675 227.28125 30.675Q226.34375 30.675 225.73438 30.14375Q225.14062 29.6125 225.14062 28.784374Q225.14062 27.8 225.89062 27.253124Q226.64062 26.70625 228.01562 26.70625L229.0625 26.70625L229.0625 26.20625Q229.0625 25.64375 228.71875 25.315624Q228.39062 24.971874 227.71875 24.971874Q227.14062 24.971874 226.75 25.26875Q226.35938 25.55 226.35938 25.971874L225.26562 25.971874Q225.26562 25.4875 225.59375 25.05Q225.9375 24.6125 226.51562 24.3625Q227.09375 24.096874 227.78125 24.096874Q228.89062 24.096874 229.5 24.64375Q230.125 25.190624 230.15625 26.14375L230.15625 29.065624Q230.15625 29.940624 230.375 30.45625L230.375 30.55L229.23438 30.55ZM227.4375 29.721874Q227.95312 29.721874 228.40625 29.45625Q228.85938 29.190624 229.0625 28.76875L229.0625 27.471874L228.21875 27.471874Q226.21875 27.471874 226.21875 28.64375Q226.21875 29.14375 226.5625 29.440624Q226.90625 29.721874 227.4375 29.721874ZM233.34375 24.20625L233.375 25.003124Q234.10938 24.096874 235.28125 24.096874Q237.29688 24.096874 237.3125 26.3625L237.3125 30.55L236.21875 30.55L236.21875 26.346874Q236.21875 25.675 235.90625 25.346874Q235.60938 25.01875 234.95312 25.01875Q234.42188 25.01875 234.01562 25.3Q233.625 25.58125 233.40625 26.034374L233.40625 30.55L232.32812 30.55L232.32812 24.20625L233.34375 24.20625ZM247.20312 28.315624L243.625 28.315624L242.82812 30.55L241.67188 30.55L244.92188 22.01875L245.90625 22.01875L249.17188 30.55L248.01562 30.55L247.20312 28.315624ZM243.96875 27.39375L246.875 27.39375L245.42188 23.409374L243.96875 27.39375ZM251.34375 24.20625L251.375 25.003124Q252.10938 24.096874 253.28125 24.096874Q255.29688 24.096874 255.3125 26.3625L255.3125 30.55L254.21875 30.55L254.21875 26.346874Q254.21875 25.675 253.90625 25.346874Q253.60938 25.01875 252.95312 25.01875Q252.42188 25.01875 252.01562 25.3Q251.625 25.58125 251.40625 26.034374L251.40625 30.55L250.32812 30.55L250.32812 24.20625L251.34375 24.20625ZM261.23438 30.55Q261.14062 30.3625 261.07812 29.878124Q260.32812 30.675 259.28125 30.675Q258.34375 30.675 257.73438 30.14375Q257.14062 29.6125 257.14062 28.784374Q257.14062 27.8 257.89062 27.253124Q258.64062 26.70625 260.01562 26.70625L261.0625 26.70625L261.0625 26.20625Q261.0625 25.64375 260.71875 25.315624Q260.39062 24.971874 259.71875 24.971874Q259.14062 24.971874 258.75 25.26875Q258.35938 25.55 258.35938 25.971874L257.26562 25.971874Q257.26562 25.4875 257.59375 25.05Q257.9375 24.6125 258.51562 24.3625Q259.09375 24.096874 259.78125 24.096874Q260.89062 24.096874 261.5 24.64375Q262.125 25.190624 262.15625 26.14375L262.15625 29.065624Q262.15625 29.940624 262.375 30.45625L262.375 30.55L261.23438 30.55ZM259.4375 29.721874Q259.95312 29.721874 260.40625 29.45625Q260.85938 29.190624 261.0625 28.76875L261.0625 27.471874L260.21875 27.471874Q258.21875 27.471874 258.21875 28.64375Q258.21875 29.14375 258.5625 29.440624Q258.90625 29.721874 259.4375 29.721874ZM265.5 30.55L264.42188 30.55L264.42188 21.55L265.5 21.55L265.5 30.55ZM269.39062 28.95625L270.875 24.20625L272.03125 24.20625L269.48438 31.534374Q268.89062 33.1125 267.60938 33.1125L267.39062 33.096874L267.0 33.01875L267.0 32.14375L267.28125 32.159374Q267.84375 32.159374 268.14062 31.940624Q268.45312 31.721874 268.65625 31.128124L268.89062 30.471874L266.625 24.20625L267.8125 24.20625L269.39062 28.95625ZM274.34375 29.659374L278.04688 29.659374L278.04688 30.55L273.01562 30.55L273.01562 29.753124L276.51562 25.1125L273.0625 25.1125L273.0625 24.20625L277.875 24.20625L277.875 24.971874L274.34375 29.659374ZM281.95312 30.675Q280.65625 30.675 279.84375 29.83125Q279.04688 28.971874 279.04688 27.55L279.04688 27.3625Q279.04688 26.409374 279.40625 25.675Q279.76562 24.925 280.40625 24.51875Q281.0625 24.096874 281.8125 24.096874Q283.04688 24.096874 283.73438 24.909374Q284.42188 25.721874 284.42188 27.2375L284.42188 27.690624L280.125 27.690624Q280.15625 28.628124 280.67188 29.20625Q281.20312 29.784374 282.01562 29.784374Q282.57812 29.784374 282.96875 29.55Q283.375 29.315624 283.6875 28.925L284.34375 29.440624Q283.54688 30.675 281.95312 30.675ZM281.8125 24.9875Q281.15625 24.9875 280.70312 25.471874Q280.26562 25.940624 280.17188 26.8L283.34375 26.8L283.34375 26.721874Q283.29688 25.89375 282.89062 25.440624Q282.5 24.9875 281.8125 24.9875ZM288.39062 25.175Q288.14062 25.14375 287.85938 25.14375Q286.78125 25.14375 286.40625 26.05L286.40625 30.55L285.32812 30.55L285.32812 24.20625L286.375 24.20625L286.39062 24.940624Q286.92188 24.096874 287.90625 24.096874Q288.21875 24.096874 288.39062 24.175L288.39062 25.175Z" fill-rule="nonzero"/><path fill="#ffb900" d="M304.5 21.05C304.5 20.497715 304.94772 20.05 305.5 20.05L315.5 20.05C316.05228 20.05 316.5 20.497715 316.5 21.05L316.5 31.05C316.5 31.602285 316.05228 32.05 315.5 32.05L305.5 32.05C304.94772 32.05 304.5 31.602285 304.5 31.05Z" fill-rule="nonzero"/><path fill="#757575" d="M328.0 26.753124Q326.5625 26.33125 325.89062 25.721874Q325.23438 25.1125 325.23438 24.221874Q325.23438 23.221874 326.03125 22.565624Q326.84375 21.89375 328.14062 21.89375Q329.01562 21.89375 329.70312 22.2375Q330.39062 22.58125 330.76562 23.175Q331.15625 23.76875 331.15625 24.4875L330.01562 24.4875Q330.01562 23.70625 329.51562 23.26875Q329.03125 22.83125 328.14062 22.83125Q327.3125 22.83125 326.84375 23.20625Q326.375 23.565624 326.375 24.20625Q326.375 24.7375 326.8125 25.096874Q327.26562 25.45625 328.32812 25.753124Q329.39062 26.05 329.98438 26.409374Q330.59375 26.76875 330.875 27.253124Q331.17188 27.7375 331.17188 28.378124Q331.17188 29.425 330.35938 30.05Q329.54688 30.675 328.20312 30.675Q327.3125 30.675 326.54688 30.33125Q325.79688 29.9875 325.375 29.409374Q324.96875 28.815624 324.96875 28.08125L326.09375 28.08125Q326.09375 28.846874 326.67188 29.3Q327.25 29.753124 328.20312 29.753124Q329.09375 29.753124 329.5625 29.39375Q330.03125 29.01875 330.03125 28.39375Q330.03125 27.76875 329.59375 27.425Q329.15625 27.08125 328.0 26.753124ZM333.79688 22.675L333.79688 24.20625L334.96875 24.20625L334.96875 25.05L333.79688 25.05L333.79688 28.971874Q333.79688 29.3625 333.95312 29.55Q334.10938 29.7375 334.48438 29.7375Q334.67188 29.7375 335.0 29.675L335.0 30.55Q334.57812 30.675 334.17188 30.675Q333.45312 30.675 333.07812 30.2375Q332.70312 29.784374 332.70312 28.971874L332.70312 25.05L331.54688 25.05L331.54688 24.20625L332.70312 24.20625L332.70312 22.675L333.79688 22.675ZM340.23438 30.55Q340.14062 30.3625 340.07812 29.878124Q339.32812 30.675 338.28125 30.675Q337.34375 30.675 336.73438 30.14375Q336.14062 29.6125 336.14062 28.784374Q336.14062 27.8 336.89062 27.253124Q337.64062 26.70625 339.01562 26.70625L340.0625 26.70625L340.0625 26.20625Q340.0625 25.64375 339.71875 25.315624Q339.39062 24.971874 338.71875 24.971874Q338.14062 24.971874 337.75 25.26875Q337.35938 25.55 337.35938 25.971874L336.26562 25.971874Q336.26562 25.4875 336.59375 25.05Q336.9375 24.6125 337.51562 24.3625Q338.09375 24.096874 338.78125 24.096874Q339.89062 24.096874 340.5 24.64375Q341.125 25.190624 341.15625 26.14375L341.15625 29.065624Q341.15625 29.940624 341.375 30.45625L341.375 30.55L340.23438 30.55ZM338.4375 29.721874Q338.95312 29.721874 339.40625 29.45625Q339.85938 29.190624 340.0625 28.76875L340.0625 27.471874L339.21875 27.471874Q337.21875 27.471874 337.21875 28.64375Q337.21875 29.14375 337.5625 29.440624Q337.90625 29.721874 338.4375 29.721874ZM344.34375 24.20625L344.375 25.003124Q345.10938 24.096874 346.28125 24.096874Q348.29688 24.096874 348.3125 26.3625L348.3125 30.55L347.21875 30.55L347.21875 26.346874Q347.21875 25.675 346.90625 25.346874Q346.60938 25.01875 345.95312 25.01875Q345.42188 25.01875 345.01562 25.3Q344.625 25.58125 344.40625 26.034374L344.40625 30.55L343.32812 30.55L343.32812 24.20625L344.34375 24.20625ZM350.0625 27.33125Q350.0625 25.8625 350.75 24.9875Q351.4375 24.096874 352.5625 24.096874Q353.67188 24.096874 354.32812 24.846874L354.32812 21.55L355.40625 21.55L355.40625 30.55L354.40625 30.55L354.35938 29.8625Q353.70312 30.675 352.54688 30.675Q351.45312 30.675 350.75 29.76875Q350.0625 28.8625 350.0625 27.409374L350.0625 27.33125ZM351.14062 27.45625Q351.14062 28.534374 351.57812 29.14375Q352.03125 29.753124 352.8125 29.753124Q353.84375 29.753124 354.32812 28.815624L354.32812 25.909374Q353.84375 25.01875 352.82812 25.01875Q352.03125 25.01875 351.57812 25.628124Q351.14062 26.2375 351.14062 27.45625ZM361.23438 30.55Q361.14062 30.3625 361.07812 29.878124Q360.32812 30.675 359.28125 30.675Q358.34375 30.675 357.73438 30.14375Q357.14062 29.6125 357.14062 28.784374Q357.14062 27.8 357.89062 27.253124Q358.64062 26.70625 360.01562 26.70625L361.0625 26.70625L361.0625 26.20625Q361.0625 25.64375 360.71875 25.315624Q360.39062 24.971874 359.71875 24.971874Q359.14062 24.971874 358.75 25.26875Q358.35938 25.55 358.35938 25.971874L357.26562 25.971874Q357.26562 25.4875 357.59375 25.05Q357.9375 24.6125 358.51562 24.3625Q359.09375 24.096874 359.78125 24.096874Q360.89062 24.096874 361.5 24.64375Q362.125 25.190624 362.15625 26.14375L362.15625 29.065624Q362.15625 29.940624 362.375 30.45625L362.375 30.55L361.23438 30.55ZM359.4375 29.721874Q359.95312 29.721874 360.40625 29.45625Q360.85938 29.190624 361.0625 28.76875L361.0625 27.471874L360.21875 27.471874Q358.21875 27.471874 358.21875 28.64375Q358.21875 29.14375 358.5625 29.440624Q358.90625 29.721874 359.4375 29.721874ZM367.39062 25.175Q367.14062 25.14375 366.85938 25.14375Q365.78125 25.14375 365.40625 26.05L365.40625 30.55L364.32812 30.55L364.32812 24.20625L365.375 24.20625L365.39062 24.940624Q365.92188 24.096874 366.90625 24.096874Q367.21875 24.096874 367.39062 24.175L367.39062 25.175ZM368.0625 27.33125Q368.0625 25.8625 368.75 24.9875Q369.4375 24.096874 370.5625 24.096874Q371.67188 24.096874 372.32812 24.846874L372.32812 21.55L373.40625 21.55L373.40625 30.55L372.40625 30.55L372.35938 29.8625Q371.70312 30.675 370.54688 30.675Q369.45312 30.675 368.75 29.76875Q368.0625 28.8625 368.0625 27.409374L368.0625 27.33125ZM369.14062 27.45625Q369.14062 28.534374 369.57812 29.14375Q370.03125 29.753124 370.8125 29.753124Q371.84375 29.753124 372.32812 28.815624L372.32812 25.909374Q371.84375 25.01875 370.82812 25.01875Q370.03125 25.01875 369.57812 25.628124Q369.14062 26.2375 369.14062 27.45625ZM383.20312 28.315624L379.625 28.315624L378.82812 30.55L377.67188 30.55L380.92188 22.01875L381.90625 22.01875L385.17188 30.55L384.01562 30.55L383.20312 28.315624ZM379.96875 27.39375L382.875 27.39375L381.42188 23.409374L379.96875 27.39375ZM387.34375 24.20625L387.375 25.003124Q388.10938 24.096874 389.28125 24.096874Q391.29688 24.096874 391.3125 26.3625L391.3125 30.55L390.21875 30.55L390.21875 26.346874Q390.21875 25.675 389.90625 25.346874Q389.60938 25.01875 388.95312 25.01875Q388.42188 25.01875 388.01562 25.3Q387.625 25.58125 387.40625 26.034374L387.40625 30.55L386.32812 30.55L386.32812 24.20625L387.34375 24.20625ZM397.23438 30.55Q397.14062 30.3625 397.07812 29.878124Q396.32812 30.675 395.28125 30.675Q394.34375 30.675 393.73438 30.14375Q393.14062 29.6125 393.14062 28.784374Q393.14062 27.8 393.89062 27.253124Q394.64062 26.70625 396.01562 26.70625L397.0625 26.70625L397.0625 26.20625Q397.0625 25.64375 396.71875 25.315624Q396.39062 24.971874 395.71875 24.971874Q395.14062 24.971874 394.75 25.26875Q394.35938 25.55 394.35938 25.971874L393.26562 25.971874Q393.26562 25.4875 393.59375 25.05Q393.9375 24.6125 394.51562 24.3625Q395.09375 24.096874 395.78125 24.096874Q396.89062 24.096874 397.5 24.64375Q398.125 25.190624 398.15625 26.14375L398.15625 29.065624Q398.15625 29.940624 398.375 30.45625L398.375 30.55L397.23438 30.55ZM395.4375 29.721874Q395.95312 29.721874 396.40625 29.45625Q396.85938 29.190624 397.0625 28.76875L397.0625 27.471874L396.21875 27.471874Q394.21875 27.471874 394.21875 28.64375Q394.21875 29.14375 394.5625 29.440624Q394.90625 29.721874 395.4375 29.721874ZM401.5 30.55L400.42188 30.55L400.42188 21.55L401.5 21.55L401.5 30.55ZM405.39062 28.95625L406.875 24.20625L408.03125 24.20625L405.48438 31.534374Q404.89062 33.1125 403.60938 33.1125L403.39062 33.096874L403.0 33.01875L403.0 32.14375L403.28125 32.159374Q403.84375 32.159374 404.14062 31.940624Q404.45312 31.721874 404.65625 31.128124L404.89062 30.471874L402.625 24.20625L403.8125 24.20625L405.39062 28.95625ZM410.34375 29.659374L414.04688 29.659374L414.04688 30.55L409.01562 30.55L409.01562 29.753124L412.51562 25.1125L409.0625 25.1125L409.0625 24.20625L413.875 24.20625L413.875 24.971874L410.34375 29.659374ZM417.95312 30.675Q416.65625 30.675 415.84375 29.83125Q415.04688 28.971874 415.04688 27.55L415.04688 27.3625Q415.04688 26.409374 415.40625 25.675Q415.76562 24.925 416.40625 24.51875Q417.0625 24.096874 417.8125 24.096874Q419.04688 24.096874 419.73438 24.909374Q420.42188 25.721874 420.42188 27.2375L420.42188 27.690624L416.125 27.690624Q416.15625 28.628124 416.67188 29.20625Q417.20312 29.784374 418.01562 29.784374Q418.57812 29.784374 418.96875 29.55Q419.375 29.315624 419.6875 28.925L420.34375 29.440624Q419.54688 30.675 417.95312 30.675ZM417.8125 24.9875Q417.15625 24.9875 416.70312 25.471874Q416.26562 25.940624 416.17188 26.8L419.34375 26.8L419.34375 26.721874Q419.29688 25.89375 418.89062 25.440624Q418.5 24.9875 417.8125 24.9875ZM424.39062 25.175Q424.14062 25.14375 423.85938 25.14375Q422.78125 25.14375 422.40625 26.05L422.40625 30.55L421.32812 30.55L421.32812 24.20625L422.375 24.20625L422.39062 24.940624Q422.92188 24.096874 423.90625 24.096874Q424.21875 24.096874 424.39062 24.175L424.39062 25.175Z" fill-rule="nonzero"/></svg>