<svg version="1.1" viewBox="0.0 0.0 600.0 371.0" fill="none" stroke="none" stroke-linecap="square" stroke-miterlimit="10" width="600" height="371" xmlns:xlink="http://www.w3.org/1999/xlink" xmlns="http://www.w3.org/2000/svg"><path fill="#ffffff" d="M0 0L600.0 0L600.0 371.0L0 371.0L0 0Z" fill-rule="nonzero"/><path stroke="#333333" stroke-width="1.0" stroke-linecap="butt" d="M163.5 45.5L163.5 298.5" fill-rule="nonzero"/><path stroke="#cccccc" stroke-width="1.0" stroke-linecap="butt" d="M247.5 45.5L247.5 298.5" fill-rule="nonzero"/><path stroke="#cccccc" stroke-width="1.0" stroke-linecap="butt" d="M330.5 45.5L330.5 298.5" fill-rule="nonzero"/><path stroke="#cccccc" stroke-width="1.0" stroke-linecap="butt" d="M414.5 45.5L414.5 298.5" fill-rule="nonzero"/><path stroke="#cccccc" stroke-width="1.0" stroke-linecap="butt" d="M497.5 45.5L497.5 298.5" fill-rule="nonzero"/><path stroke="#cccccc" stroke-width="1.0" stroke-linecap="butt" d="M581.5 45.5L581.5 298.5" fill-rule="nonzero"/><clipPath id="id_0"><path d="M163.53 45.916668L581.45 45.916668L581.45 298.45L163.53 298.45L163.53 45.916668Z" clip-rule="nonzero"/></clipPath><path stroke="#000000" stroke-width="2.0" stroke-linecap="butt" stroke-opacity="0.0" clip-path="url(#id_0)" d="M164.0 96.0L164.0 74.0L164.0 74.0L164.0 96.0Z" fill-rule="nonzero"/><path fill="#8cab13" clip-path="url(#id_0)" d="M164.0 96.0L164.0 74.0L164.0 74.0L164.0 96.0Z" fill-rule="nonzero"/><path stroke="#000000" stroke-width="2.0" stroke-linecap="butt" stroke-opacity="0.0" clip-path="url(#id_0)" d="M164.0 171.0L164.0 149.0L260.0 149.0C261.10458 149.0 262.0 149.89543 262.0 151.0L262.0 169.0C262.0 170.10457 261.10458 171.0 260.0 171.0Z" fill-rule="nonzero"/><path fill="#8cab13" clip-path="url(#id_0)" d="M164.0 171.0L164.0 149.0L260.0 149.0C261.10458 149.0 262.0 149.89543 262.0 151.0L262.0 169.0C262.0 170.10457 261.10458 171.0 260.0 171.0Z" fill-rule="nonzero"/><path stroke="#000000" stroke-width="2.0" stroke-linecap="butt" stroke-opacity="0.0" clip-path="url(#id_0)" d="M164.0 247.0L164.0 225.0L385.0 225.0C386.10458 225.0 387.0 225.89543 387.0 227.0L387.0 245.0C387.0 246.10457 386.10458 247.0 385.0 247.0Z" fill-rule="nonzero"/><path fill="#8cab13" clip-path="url(#id_0)" d="M164.0 247.0L164.0 225.0L385.0 225.0C386.10458 225.0 387.0 225.89543 387.0 227.0L387.0 245.0C387.0 246.10457 386.10458 247.0 385.0 247.0Z" fill-rule="nonzero"/><path stroke="#000000" stroke-width="2.0" stroke-linecap="butt" stroke-opacity="0.0" clip-path="url(#id_0)" d="M164.0 120.0L164.0 98.0L567.0 98.0C568.10455 98.0 569.0 98.89543 569.0 100.0L569.0 118.0C569.0 119.10457 568.10455 120.0 567.0 120.0Z" fill-rule="nonzero"/><path fill="#22ab82" clip-path="url(#id_0)" d="M164.0 120.0L164.0 98.0L567.0 98.0C568.10455 98.0 569.0 98.89543 569.0 100.0L569.0 118.0C569.0 119.10457 568.10455 120.0 567.0 120.0Z" fill-rule="nonzero"/><path stroke="#000000" stroke-width="2.0" stroke-linecap="butt" stroke-opacity="0.0" clip-path="url(#id_0)" d="M164.0 195.0L164.0 173.0L164.0 173.0L164.0 195.0Z" fill-rule="nonzero"/><path fill="#22ab82" clip-path="url(#id_0)" d="M164.0 195.0L164.0 173.0L164.0 173.0L164.0 195.0Z" fill-rule="nonzero"/><path stroke="#000000" stroke-width="2.0" stroke-linecap="butt" stroke-opacity="0.0" clip-path="url(#id_0)" d="M164.0 271.0L164.0 249.0L381.0 249.0C382.10458 249.0 383.0 249.89543 383.0 251.0L383.0 269.0C383.0 270.10458 382.10458 271.0 381.0 271.0Z" fill-rule="nonzero"/><path fill="#22ab82" clip-path="url(#id_0)" d="M164.0 271.0L164.0 249.0L381.0 249.0C382.10458 249.0 383.0 249.89543 383.0 251.0L383.0 269.0C383.0 270.10458 382.10458 271.0 381.0 271.0Z" fill-rule="nonzero"/><path fill="#424242" d="M343.28687 341.575L343.28687 343.10626L344.45874 343.10626L344.45874 343.95L343.28687 343.95L343.28687 347.8719Q343.28687 348.2625 343.4431 348.45Q343.59937 348.6375 343.97437 348.6375Q344.16187 348.6375 344.49 348.575L344.49 349.45Q344.0681 349.575 343.66187 349.575Q342.9431 349.575 342.5681 349.1375Q342.1931 348.6844 342.1931 347.8719L342.1931 343.95L341.03687 343.95L341.03687 343.10626L342.1931 343.10626L342.1931 341.575L343.28687 341.575ZM348.4431 349.575Q347.14624 349.575 346.33374 348.73126Q345.53687 347.8719 345.53687 346.45L345.53687 346.2625Q345.53687 345.3094 345.89624 344.575Q346.2556 343.825 346.89624 343.41876Q347.5525 342.9969 348.3025 342.9969Q349.53687 342.9969 350.22437 343.8094Q350.91187 344.6219 350.91187 346.1375L350.91187 346.59064L346.615 346.59064Q346.64624 347.52814 347.16187 348.10626Q347.6931 348.6844 348.5056 348.6844Q349.0681 348.6844 349.45874 348.45Q349.865 348.21564 350.1775 347.825L350.83374 348.34064Q350.03687 349.575 348.4431 349.575ZM348.3025 343.8875Q347.64624 343.8875 347.1931 344.3719Q346.7556 344.84064 346.66187 345.7L349.83374 345.7L349.83374 345.6219Q349.78687 344.79376 349.3806 344.34064Q348.99 343.8875 348.3025 343.8875ZM354.8806 344.075Q354.6306 344.04376 354.34937 344.04376Q353.27124 344.04376 352.89624 344.95L352.89624 349.45L351.8181 349.45L351.8181 343.10626L352.865 343.10626L352.8806 343.84064Q353.41187 342.9969 354.39624 342.9969Q354.70874 342.9969 354.8806 343.075L354.8806 344.075ZM356.83374 343.10626L356.865 343.8094Q357.5525 342.9969 358.74 342.9969Q360.0681 342.9969 360.5525 344.0125Q360.865 343.5594 361.365 343.27814Q361.8806 342.9969 362.5681 342.9969Q364.66187 342.9969 364.6931 345.2L364.6931 349.45L363.615 349.45L363.615 345.2625Q363.615 344.59064 363.3025 344.2625Q362.99 343.91876 362.2556 343.91876Q361.64624 343.91876 361.24 344.27814Q360.84937 344.6375 360.78687 345.2469L360.78687 349.45L359.70874 349.45L359.70874 345.29376Q359.70874 343.91876 358.34937 343.91876Q357.28687 343.91876 356.89624 344.825L356.89624 349.45L355.8025 349.45L355.8025 343.10626L356.83374 343.10626ZM373.5056 347.7625Q373.5056 347.325 373.16187 347.09064Q372.83374 346.84064 372.0056 346.66876Q371.1931 346.4969 370.70874 346.2469Q370.22437 345.9969 369.99 345.66876Q369.77124 345.325 369.77124 344.85626Q369.77124 344.075 370.4275 343.54376Q371.08374 342.9969 372.115 342.9969Q373.1931 342.9969 373.84937 343.5594Q374.52124 344.10626 374.52124 344.96564L373.4431 344.96564Q373.4431 344.52814 373.0525 344.21564Q372.6775 343.8875 372.115 343.8875Q371.52124 343.8875 371.1775 344.15314Q370.84937 344.40314 370.84937 344.8094Q370.84937 345.2 371.16187 345.40314Q371.47437 345.60626 372.28687 345.79376Q373.09937 345.96564 373.59937 346.21564Q374.09937 346.46564 374.33374 346.825Q374.58374 347.1844 374.58374 347.6844Q374.58374 348.54376 373.89624 349.0594Q373.22437 349.575 372.14624 349.575Q371.3806 349.575 370.78687 349.3094Q370.20874 349.02814 369.8806 348.54376Q369.5525 348.0594 369.5525 347.4969L370.6306 347.4969Q370.66187 348.04376 371.0681 348.3719Q371.47437 348.6844 372.14624 348.6844Q372.7556 348.6844 373.1306 348.4344Q373.5056 348.1844 373.5056 347.7625ZM378.34937 348.6844Q378.9275 348.6844 379.365 348.34064Q379.8025 347.98126 379.84937 347.45L380.8806 347.45Q380.84937 347.9969 380.49 348.4969Q380.14624 348.98126 379.5681 349.27814Q379.0056 349.575 378.34937 349.575Q377.0525 349.575 376.28687 348.71564Q375.53687 347.84064 375.53687 346.34064L375.53687 346.15314Q375.53687 345.23126 375.865 344.5125Q376.20874 343.79376 376.83374 343.40314Q377.47437 342.9969 378.34937 342.9969Q379.41187 342.9969 380.115 343.6375Q380.83374 344.2625 380.8806 345.29376L379.84937 345.29376Q379.8025 344.66876 379.3806 344.27814Q378.95874 343.8875 378.34937 343.8875Q377.52124 343.8875 377.0681 344.48126Q376.615 345.075 376.615 346.2L376.615 346.40314Q376.615 347.4969 377.0681 348.09064Q377.52124 348.6844 378.34937 348.6844ZM381.52124 346.21564Q381.52124 345.29376 381.8806 344.54376Q382.2556 343.79376 382.91187 343.40314Q383.5681 342.9969 384.39624 342.9969Q385.6931 342.9969 386.49 343.8875Q387.3025 344.77814 387.3025 346.27814L387.3025 346.35626Q387.3025 347.27814 386.9431 348.0125Q386.58374 348.7469 385.9275 349.16876Q385.27124 349.575 384.41187 349.575Q383.1306 349.575 382.3181 348.6844Q381.52124 347.77814 381.52124 346.29376L381.52124 346.21564ZM382.615 346.35626Q382.615 347.40314 383.09937 348.04376Q383.59937 348.6844 384.41187 348.6844Q385.24 348.6844 385.72437 348.04376Q386.20874 347.3875 386.20874 346.21564Q386.20874 345.1844 385.70874 344.54376Q385.22437 343.8875 384.39624 343.8875Q383.59937 343.8875 383.09937 344.52814Q382.615 345.15314 382.615 346.35626ZM391.8806 344.075Q391.6306 344.04376 391.34937 344.04376Q390.27124 344.04376 389.89624 344.95L389.89624 349.45L388.8181 349.45L388.8181 343.10626L389.865 343.10626L389.8806 343.84064Q390.41187 342.9969 391.39624 342.9969Q391.70874 342.9969 391.8806 343.075L391.8806 344.075ZM395.4431 349.575Q394.14624 349.575 393.33374 348.73126Q392.53687 347.8719 392.53687 346.45L392.53687 346.2625Q392.53687 345.3094 392.89624 344.575Q393.2556 343.825 393.89624 343.41876Q394.5525 342.9969 395.3025 342.9969Q396.53687 342.9969 397.22437 343.8094Q397.91187 344.6219 397.91187 346.1375L397.91187 346.59064L393.615 346.59064Q393.64624 347.52814 394.16187 348.10626Q394.6931 348.6844 395.5056 348.6844Q396.0681 348.6844 396.45874 348.45Q396.865 348.21564 397.1775 347.825L397.83374 348.34064Q397.03687 349.575 395.4431 349.575ZM395.3025 343.8875Q394.64624 343.8875 394.1931 344.3719Q393.7556 344.84064 393.66187 345.7L396.83374 345.7L396.83374 345.6219Q396.78687 344.79376 396.3806 344.34064Q395.99 343.8875 395.3025 343.8875ZM402.5056 347.7625Q402.5056 347.325 402.16187 347.09064Q401.83374 346.84064 401.0056 346.66876Q400.1931 346.4969 399.70874 346.2469Q399.22437 345.9969 398.99 345.66876Q398.77124 345.325 398.77124 344.85626Q398.77124 344.075 399.4275 343.54376Q400.08374 342.9969 401.115 342.9969Q402.1931 342.9969 402.84937 343.5594Q403.52124 344.10626 403.52124 344.96564L402.4431 344.96564Q402.4431 344.52814 402.0525 344.21564Q401.6775 343.8875 401.115 343.8875Q400.52124 343.8875 400.1775 344.15314Q399.84937 344.40314 399.84937 344.8094Q399.84937 345.2 400.16187 345.40314Q400.47437 345.60626 401.28687 345.79376Q402.09937 345.96564 402.59937 346.21564Q403.09937 346.46564 403.33374 346.825Q403.58374 347.1844 403.58374 347.6844Q403.58374 348.54376 402.89624 349.0594Q402.22437 349.575 401.14624 349.575Q400.3806 349.575 399.78687 349.3094Q399.20874 349.02814 398.8806 348.54376Q398.5525 348.0594 398.5525 347.4969L399.6306 347.4969Q399.66187 348.04376 400.0681 348.3719Q400.47437 348.6844 401.14624 348.6844Q401.7556 348.6844 402.1306 348.4344Q402.5056 348.1844 402.5056 347.7625Z" fill-rule="nonzero"/><path fill="#424242" d="M24.206263 221.83958L24.909388 221.80833Q24.096888 221.12083 24.096888 219.93333Q24.096888 218.60521 25.112513 218.12083Q24.659388 217.80833 24.378138 217.30833Q24.096888 216.79271 24.096888 216.10521Q24.096888 214.01146 26.300013 213.98021L30.550013 213.98021L30.550013 215.05833L26.362513 215.05833Q25.690638 215.05833 25.362513 215.37083Q25.018763 215.68333 25.018763 216.41771Q25.018763 217.02708 25.378138 217.43333Q25.737513 217.82396 26.346888 217.88646L30.550013 217.88646L30.550013 218.96458L26.393763 218.96458Q25.018763 218.96458 25.018763 220.32396Q25.018763 221.38646 25.925013 221.77708L30.550013 221.77708L30.550013 222.87083L24.206263 222.87083L24.206263 221.83958ZM30.550013 207.94896Q30.362513 208.04271 29.878138 208.10521Q30.675013 208.85521 30.675013 209.90208Q30.675013 210.83958 30.143763 211.44896Q29.612513 212.04271 28.784388 212.04271Q27.800013 212.04271 27.253138 211.29271Q26.706263 210.54271 26.706263 209.16771L26.706263 208.12083L26.206263 208.12083Q25.643763 208.12083 25.315638 208.46458Q24.971888 208.79271 24.971888 209.46458Q24.971888 210.04271 25.268763 210.43333Q25.550013 210.82396 25.971888 210.82396L25.971888 211.91771Q25.487513 211.91771 25.050013 211.58958Q24.612513 211.24583 24.362513 210.66771Q24.096888 210.08958 24.096888 209.40208Q24.096888 208.29271 24.643763 207.68333Q25.190638 207.05833 26.143763 207.02708L29.065638 207.02708Q29.940638 207.02708 30.456263 206.80833L30.550013 206.80833L30.550013 207.94896ZM29.721888 209.74583Q29.721888 209.23021 29.456263 208.77708Q29.190638 208.32396 28.768763 208.12083L27.471888 208.12083L27.471888 208.96458Q27.471888 210.96458 28.643763 210.96458Q29.143763 210.96458 29.440638 210.62083Q29.721888 210.27708 29.721888 209.74583ZM22.675013 203.38646L24.206263 203.38646L24.206263 202.21458L25.050013 202.21458L25.050013 203.38646L28.971888 203.38646Q29.362513 203.38646 29.550013 203.23021Q29.737513 203.07396 29.737513 202.69896Q29.737513 202.51146 29.675013 202.18333L30.550013 202.18333Q30.675013 202.60521 30.675013 203.01146Q30.675013 203.73021 30.237513 204.10521Q29.784388 204.48021 28.971888 204.48021L25.050013 204.48021L25.050013 205.63646L24.206263 205.63646L24.206263 204.48021L22.675013 204.48021L22.675013 203.38646ZM29.784388 198.32396Q29.784388 197.74583 29.440638 197.30833Q29.081263 196.87083 28.550013 196.82396L28.550013 195.79271Q29.096888 195.82396 29.596888 196.18333Q30.081263 196.52708 30.378138 197.10521Q30.675013 197.66771 30.675013 198.32396Q30.675013 199.62083 29.815638 200.38646Q28.940638 201.13646 27.440638 201.13646L27.253138 201.13646Q26.331263 201.13646 25.612513 200.80833Q24.893763 200.46458 24.503138 199.83958Q24.096888 199.19896 24.096888 198.32396Q24.096888 197.26146 24.737513 196.55833Q25.362513 195.83958 26.393763 195.79271L26.393763 196.82396Q25.768763 196.87083 25.378138 197.29271Q24.987513 197.71458 24.987513 198.32396Q24.987513 199.15208 25.581263 199.60521Q26.175013 200.05833 27.300013 200.05833L27.503138 200.05833Q28.596888 200.05833 29.190638 199.60521Q29.784388 199.15208 29.784388 198.32396ZM24.971888 193.77708Q24.096888 193.05833 24.096888 191.90208Q24.096888 189.88646 26.362513 189.87083L30.550013 189.87083L30.550013 190.96458L26.346888 190.96458Q25.675013 190.96458 25.346888 191.27708Q25.018763 191.57396 25.018763 192.23021Q25.018763 192.76146 25.300013 193.16771Q25.581263 193.55833 26.034388 193.77708L30.550013 193.77708L30.550013 194.85521L21.550013 194.85521L21.550013 193.77708L24.971888 193.77708ZM30.675013 185.23021Q30.675013 186.52708 29.831263 187.33958Q28.971888 188.13646 27.550013 188.13646L27.362513 188.13646Q26.409388 188.13646 25.675013 187.77708Q24.925013 187.41771 24.518763 186.77708Q24.096888 186.12083 24.096888 185.37083Q24.096888 184.13646 24.909388 183.44896Q25.721888 182.76146 27.237513 182.76146L27.690638 182.76146L27.690638 187.05833Q28.628138 187.02708 29.206263 186.51146Q29.784388 185.98021 29.784388 185.16771Q29.784388 184.60521 29.550013 184.21458Q29.315638 183.80833 28.925013 183.49583L29.440638 182.83958Q30.675013 183.63646 30.675013 185.23021ZM24.987513 185.37083Q24.987513 186.02708 25.471888 186.48021Q25.940638 186.91771 26.800013 187.01146L26.800013 183.83958L26.721888 183.83958Q25.893763 183.88646 25.440638 184.29271Q24.987513 184.68333 24.987513 185.37083ZM27.331263 182.12083Q25.862513 182.12083 24.987513 181.43333Q24.096888 180.74583 24.096888 179.62083Q24.096888 178.51146 24.846888 177.85521L21.550013 177.85521L21.550013 176.77708L30.550013 176.77708L30.550013 177.77708L29.862513 177.82396Q30.675013 178.48021 30.675013 179.63646Q30.675013 180.73021 29.768763 181.43333Q28.862513 182.12083 27.409388 182.12083L27.331263 182.12083ZM27.456263 181.04271Q28.534388 181.04271 29.143763 180.60521Q29.753138 180.15208 29.753138 179.37083Q29.753138 178.33958 28.815638 177.85521L25.909388 177.85521Q25.018763 178.33958 25.018763 179.35521Q25.018763 180.15208 25.628138 180.60521Q26.237513 181.04271 27.456263 181.04271ZM22.675013 170.38646L24.206263 170.38646L24.206263 169.21458L25.050013 169.21458L25.050013 170.38646L28.971888 170.38646Q29.362513 170.38646 29.550013 170.23021Q29.737513 170.07396 29.737513 169.69896Q29.737513 169.51146 29.675013 169.18333L30.550013 169.18333Q30.675013 169.60521 30.675013 170.01146Q30.675013 170.73021 30.237513 171.10521Q29.784388 171.48021 28.971888 171.48021L25.050013 171.48021L25.050013 172.63646L24.206263 172.63646L24.206263 171.48021L22.675013 171.48021L22.675013 170.38646ZM30.675013 165.23021Q30.675013 166.52708 29.831263 167.33958Q28.971888 168.13646 27.550013 168.13646L27.362513 168.13646Q26.409388 168.13646 25.675013 167.77708Q24.925013 167.41771 24.518763 166.77708Q24.096888 166.12083 24.096888 165.37083Q24.096888 164.13646 24.909388 163.44896Q25.721888 162.76146 27.237513 162.76146L27.690638 162.76146L27.690638 167.05833Q28.628138 167.02708 29.206263 166.51146Q29.784388 165.98021 29.784388 165.16771Q29.784388 164.60521 29.550013 164.21458Q29.315638 163.80833 28.925013 163.49583L29.440638 162.83958Q30.675013 163.63646 30.675013 165.23021ZM24.987513 165.37083Q24.987513 166.02708 25.471888 166.48021Q25.940638 166.91771 26.800013 167.01146L26.800013 163.83958L26.721888 163.83958Q25.893763 163.88646 25.440638 164.29271Q24.987513 164.68333 24.987513 165.37083ZM25.175013 158.79271Q25.143763 159.04271 25.143763 159.32396Q25.143763 160.40208 26.050013 160.77708L30.550013 160.77708L30.550013 161.85521L24.206263 161.85521L24.206263 160.80833L24.940638 160.79271Q24.096888 160.26146 24.096888 159.27708Q24.096888 158.96458 24.175013 158.79271L25.175013 158.79271ZM24.206263 156.83958L24.909388 156.80833Q24.096888 156.12083 24.096888 154.93333Q24.096888 153.60521 25.112513 153.12083Q24.659388 152.80833 24.378138 152.30833Q24.096888 151.79271 24.096888 151.10521Q24.096888 149.01146 26.300013 148.98021L30.550013 148.98021L30.550013 150.05833L26.362513 150.05833Q25.690638 150.05833 25.362513 150.37083Q25.018763 150.68333 25.018763 151.41771Q25.018763 152.02708 25.378138 152.43333Q25.737513 152.82396 26.346888 152.88646L30.550013 152.88646L30.550013 153.96458L26.393763 153.96458Q25.018763 153.96458 25.018763 155.32396Q25.018763 156.38646 25.925013 156.77708L30.550013 156.77708L30.550013 157.87083L24.206263 157.87083L24.206263 156.83958ZM28.862513 143.16771Q28.425013 143.16771 28.190638 143.51146Q27.940638 143.83958 27.768763 144.66771Q27.596888 145.48021 27.346888 145.96458Q27.096888 146.44896 26.768763 146.68333Q26.425013 146.90208 25.956263 146.90208Q25.175013 146.90208 24.643763 146.24583Q24.096888 145.58958 24.096888 144.55833Q24.096888 143.48021 24.659388 142.82396Q25.206263 142.15208 26.065638 142.15208L26.065638 143.23021Q25.628138 143.23021 25.315638 143.62083Q24.987513 143.99583 24.987513 144.55833Q24.987513 145.15208 25.253138 145.49583Q25.503138 145.82396 25.909388 145.82396Q26.300013 145.82396 26.503138 145.51146Q26.706263 145.19896 26.893763 144.38646Q27.065638 143.57396 27.315638 143.07396Q27.565638 142.57396 27.925013 142.33958Q28.284388 142.08958 28.784388 142.08958Q29.643763 142.08958 30.159388 142.77708Q30.675013 143.44896 30.675013 144.52708Q30.675013 145.29271 30.409388 145.88646Q30.128138 146.46458 29.643763 146.79271Q29.159388 147.12083 28.596888 147.12083L28.596888 146.04271Q29.143763 146.01146 29.471888 145.60521Q29.784388 145.19896 29.784388 144.52708Q29.784388 143.91771 29.534388 143.54271Q29.284388 143.16771 28.862513 143.16771Z" fill-rule="nonzero"/><path fill="#757575" d="M89.82687 85.92525L89.82687 87.4565L90.99875 87.4565L90.99875 88.30025L89.82687 88.30025L89.82687 92.22212Q89.82687 92.61275 89.98312 92.80025Q90.13937 92.98775 90.51437 92.98775Q90.70187 92.98775 91.03 92.92525L91.03 93.80025Q90.60812 93.92525 90.20187 93.92525Q89.48312 93.92525 89.10812 93.48775Q88.73312 93.03462 88.73312 92.22212L88.73312 88.30025L87.57687 88.30025L87.57687 87.4565L88.73312 87.4565L88.73312 85.92525L89.82687 85.92525ZM94.98312 93.92525Q93.68625 93.92525 92.87375 93.0815Q92.07687 92.22212 92.07687 90.80025L92.07687 90.61275Q92.07687 89.65962 92.43625 88.92525Q92.79562 88.17525 93.43625 87.769Q94.0925 87.34712 94.8425 87.34712Q96.07687 87.34712 96.76437 88.15962Q97.45187 88.97212 97.45187 90.48775L97.45187 90.94087L93.155 90.94087Q93.18625 91.87837 93.70187 92.4565Q94.23312 93.03462 95.04562 93.03462Q95.60812 93.03462 95.99875 92.80025Q96.405 92.56587 96.7175 92.17525L97.37375 92.69087Q96.57687 93.92525 94.98312 93.92525ZM94.8425 88.23775Q94.18625 88.23775 93.73312 88.72212Q93.29562 89.19087 93.20187 90.05025L96.37375 90.05025L96.37375 89.97212Q96.32687 89.144 95.92062 88.69087Q95.53 88.23775 94.8425 88.23775ZM100.48312 89.769L101.88937 87.4565L103.155 87.4565L101.07687 90.59712L103.2175 93.80025L101.9675 93.80025L100.49875 91.42525L99.03 93.80025L97.76437 93.80025L99.905 90.59712L97.8425 87.4565L99.0925 87.4565L100.48312 89.769ZM105.82687 85.92525L105.82687 87.4565L106.99875 87.4565L106.99875 88.30025L105.82687 88.30025L105.82687 92.22212Q105.82687 92.61275 105.98312 92.80025Q106.13937 92.98775 106.51437 92.98775Q106.70187 92.98775 107.03 92.92525L107.03 93.80025Q106.60812 93.92525 106.20187 93.92525Q105.48312 93.92525 105.10812 93.48775Q104.73312 93.03462 104.73312 92.22212L104.73312 88.30025L103.57687 88.30025L103.57687 87.4565L104.73312 87.4565L104.73312 85.92525L105.82687 85.92525ZM112.92062 94.69087L107.56125 94.69087L107.56125 93.80025L112.92062 93.80025L112.92062 94.69087ZM113.0925 90.5815Q113.0925 89.09712 113.78 88.22212Q114.4675 87.34712 115.5925 87.34712Q116.74875 87.34712 117.405 88.15962L117.45187 87.4565L118.45187 87.4565L118.45187 93.644Q118.45187 94.87837 117.7175 95.5815Q116.98312 96.30025 115.76437 96.30025Q115.07687 96.30025 114.42062 96.00337Q113.76437 95.7065 113.42062 95.2065L113.98312 94.55025Q114.67062 95.40962 115.68625 95.40962Q116.4675 95.40962 116.905 94.9565Q117.35812 94.519 117.35812 93.7065L117.35812 93.15962Q116.70187 93.92525 115.57687 93.92525Q114.4675 93.92525 113.78 93.03462Q113.0925 92.12837 113.0925 90.5815ZM114.18625 90.7065Q114.18625 91.769 114.62375 92.394Q115.06125 93.00337 115.85812 93.00337Q116.87375 93.00337 117.35812 92.06587L117.35812 89.17525Q116.85812 88.269 115.85812 88.269Q115.07687 88.269 114.62375 88.87837Q114.18625 89.48775 114.18625 90.7065ZM122.98312 93.92525Q121.68625 93.92525 120.87375 93.0815Q120.07687 92.22212 120.07687 90.80025L120.07687 90.61275Q120.07687 89.65962 120.43625 88.92525Q120.79562 88.17525 121.43625 87.769Q122.0925 87.34712 122.8425 87.34712Q124.07687 87.34712 124.76437 88.15962Q125.45187 88.97212 125.45187 90.48775L125.45187 90.94087L121.155 90.94087Q121.18625 91.87837 121.70187 92.4565Q122.23312 93.03462 123.04562 93.03462Q123.60812 93.03462 123.99875 92.80025Q124.405 92.56587 124.7175 92.17525L125.37375 92.69087Q124.57687 93.92525 122.98312 93.92525ZM122.8425 88.23775Q122.18625 88.23775 121.73312 88.72212Q121.29562 89.19087 121.20187 90.05025L124.37375 90.05025L124.37375 89.97212Q124.32687 89.144 123.92062 88.69087Q123.53 88.23775 122.8425 88.23775ZM129.42062 88.42525Q129.17062 88.394 128.88937 88.394Q127.81125 88.394 127.43625 89.30025L127.43625 93.80025L126.35812 93.80025L126.35812 87.4565L127.405 87.4565L127.42062 88.19087Q127.95187 87.34712 128.93625 87.34712Q129.24875 87.34712 129.42062 87.42525L129.42062 88.42525ZM131.37375 87.4565L131.405 88.15962Q132.0925 87.34712 133.28 87.34712Q134.60812 87.34712 135.0925 88.36275Q135.405 87.90962 135.905 87.62837Q136.42062 87.34712 137.10812 87.34712Q139.20187 87.34712 139.23312 89.55025L139.23312 93.80025L138.155 93.80025L138.155 89.61275Q138.155 88.94087 137.8425 88.61275Q137.53 88.269 136.79562 88.269Q136.18625 88.269 135.78 88.62837Q135.38937 88.98775 135.32687 89.59712L135.32687 93.80025L134.24875 93.80025L134.24875 89.644Q134.24875 88.269 132.88937 88.269Q131.82687 88.269 131.43625 89.17525L131.43625 93.80025L130.3425 93.80025L130.3425 87.4565L131.37375 87.4565ZM145.26437 93.80025Q145.17062 93.61275 145.10812 93.12837Q144.35812 93.92525 143.31125 93.92525Q142.37375 93.92525 141.76437 93.394Q141.17062 92.86275 141.17062 92.03462Q141.17062 91.05025 141.92062 90.50337Q142.67062 89.9565 144.04562 89.9565L145.0925 89.9565L145.0925 89.4565Q145.0925 88.894 144.74875 88.56587Q144.42062 88.22212 143.74875 88.22212Q143.17062 88.22212 142.78 88.519Q142.38937 88.80025 142.38937 89.22212L141.29562 89.22212Q141.29562 88.73775 141.62375 88.30025Q141.9675 87.86275 142.54562 87.61275Q143.12375 87.34712 143.81125 87.34712Q144.92062 87.34712 145.53 87.894Q146.155 88.44087 146.18625 89.394L146.18625 92.31587Q146.18625 93.19087 146.405 93.7065L146.405 93.80025L145.26437 93.80025ZM143.4675 92.97212Q143.98312 92.97212 144.43625 92.7065Q144.88937 92.44087 145.0925 92.019L145.0925 90.72212L144.24875 90.72212Q142.24875 90.72212 142.24875 91.894Q142.24875 92.394 142.5925 92.69087Q142.93625 92.97212 143.4675 92.97212ZM149.37375 87.4565L149.405 88.25337Q150.13937 87.34712 151.31125 87.34712Q153.32687 87.34712 153.3425 89.61275L153.3425 93.80025L152.24875 93.80025L152.24875 89.59712Q152.24875 88.92525 151.93625 88.59712Q151.63937 88.269 150.98312 88.269Q150.45187 88.269 150.04562 88.55025Q149.655 88.8315 149.43625 89.28462L149.43625 93.80025L148.35812 93.80025L148.35812 87.4565L149.37375 87.4565ZM155.31125 93.23775Q155.31125 92.9565 155.4675 92.769Q155.63937 92.5815 155.9675 92.5815Q156.31125 92.5815 156.48312 92.769Q156.655 92.9565 156.655 93.23775Q156.655 93.50337 156.48312 93.69087Q156.31125 93.86275 155.9675 93.86275Q155.63937 93.86275 155.4675 93.69087Q155.31125 93.50337 155.31125 93.23775ZM155.32687 88.06587Q155.32687 87.78462 155.48312 87.59712Q155.655 87.40962 155.98312 87.40962Q156.32687 87.40962 156.49875 87.59712Q156.67062 87.78462 156.67062 88.06587Q156.67062 88.3315 156.49875 88.519Q156.32687 88.69087 155.98312 88.69087Q155.655 88.69087 155.48312 88.519Q155.32687 88.3315 155.32687 88.06587Z" fill-rule="nonzero"/><path fill="#757575" d="M100.0925 105.5815Q100.0925 104.11275 100.78 103.23775Q101.4675 102.34712 102.5925 102.34712Q103.70187 102.34712 104.35812 103.09712L104.35812 99.80025L105.43625 99.80025L105.43625 108.80025L104.43625 108.80025L104.38937 108.11275Q103.73312 108.92525 102.57687 108.92525Q101.48312 108.92525 100.78 108.019Q100.0925 107.11275 100.0925 105.65962L100.0925 105.5815ZM101.17062 105.7065Q101.17062 106.78462 101.60812 107.394Q102.06125 108.00337 102.8425 108.00337Q103.87375 108.00337 104.35812 107.06587L104.35812 104.15962Q103.87375 103.269 102.85812 103.269Q102.06125 103.269 101.60812 103.87837Q101.17062 104.48775 101.17062 105.7065ZM108.53 108.80025L107.45187 108.80025L107.45187 102.4565L108.53 102.4565L108.53 108.80025ZM107.35812 100.78462Q107.35812 100.519 107.51437 100.3315Q107.68625 100.144 107.99875 100.144Q108.31125 100.144 108.4675 100.3315Q108.63937 100.519 108.63937 100.78462Q108.63937 101.03462 108.4675 101.22212Q108.31125 101.394 107.99875 101.394Q107.68625 101.394 107.51437 101.22212Q107.35812 101.03462 107.35812 100.78462ZM110.88937 108.80025L110.88937 103.30025L109.88937 103.30025L109.88937 102.4565L110.88937 102.4565L110.88937 101.81587Q110.88937 100.78462 111.42062 100.23775Q111.9675 99.67525 112.9675 99.67525Q113.3425 99.67525 113.7175 99.769L113.655 100.65962Q113.37375 100.59712 113.07687 100.59712Q112.54562 100.59712 112.24875 100.90962Q111.9675 101.22212 111.9675 101.78462L111.9675 102.4565L113.32687 102.4565L113.32687 103.30025L111.9675 103.30025L111.9675 108.80025L110.88937 108.80025ZM114.88937 108.80025L114.88937 103.30025L113.88937 103.30025L113.88937 102.4565L114.88937 102.4565L114.88937 101.81587Q114.88937 100.78462 115.42062 100.23775Q115.9675 99.67525 116.9675 99.67525Q117.3425 99.67525 117.7175 99.769L117.655 100.65962Q117.37375 100.59712 117.07687 100.59712Q116.54562 100.59712 116.24875 100.90962Q115.9675 101.22212 115.9675 101.78462L115.9675 102.4565L117.32687 102.4565L117.32687 103.30025L115.9675 103.30025L115.9675 108.80025L114.88937 108.80025ZM120.98312 108.92525Q119.68625 108.92525 118.87375 108.0815Q118.07687 107.22212 118.07687 105.80025L118.07687 105.61275Q118.07687 104.65962 118.43625 103.92525Q118.79562 103.17525 119.43625 102.769Q120.0925 102.34712 120.8425 102.34712Q122.07687 102.34712 122.76437 103.15962Q123.45187 103.97212 123.45187 105.48775L123.45187 105.94087L119.155 105.94087Q119.18625 106.87837 119.70187 107.4565Q120.23312 108.03462 121.04562 108.03462Q121.60812 108.03462 121.99875 107.80025Q122.405 107.56587 122.7175 107.17525L123.37375 107.69087Q122.57687 108.92525 120.98312 108.92525ZM120.8425 103.23775Q120.18625 103.23775 119.73312 103.72212Q119.29562 104.19087 119.20187 105.05025L122.37375 105.05025L122.37375 104.97212Q122.32687 104.144 121.92062 103.69087Q121.53 103.23775 120.8425 103.23775ZM127.42062 103.42525Q127.17062 103.394 126.88937 103.394Q125.81125 103.394 125.43625 104.30025L125.43625 108.80025L124.35812 108.80025L124.35812 102.4565L125.405 102.4565L125.42062 103.19087Q125.95187 102.34712 126.93625 102.34712Q127.24875 102.34712 127.42062 102.42525L127.42062 103.42525ZM130.98312 108.92525Q129.68625 108.92525 128.87375 108.0815Q128.07687 107.22212 128.07687 105.80025L128.07687 105.61275Q128.07687 104.65962 128.43625 103.92525Q128.79562 103.17525 129.43625 102.769Q130.0925 102.34712 130.8425 102.34712Q132.07687 102.34712 132.76437 103.15962Q133.45187 103.97212 133.45187 105.48775L133.45187 105.94087L129.155 105.94087Q129.18625 106.87837 129.70187 107.4565Q130.23312 108.03462 131.04562 108.03462Q131.60812 108.03462 131.99875 107.80025Q132.405 107.56587 132.7175 107.17525L133.37375 107.69087Q132.57687 108.92525 130.98312 108.92525ZM130.8425 103.23775Q130.18625 103.23775 129.73312 103.72212Q129.29562 104.19087 129.20187 105.05025L132.37375 105.05025L132.37375 104.97212Q132.32687 104.144 131.92062 103.69087Q131.53 103.23775 130.8425 103.23775ZM135.37375 102.4565L135.405 103.25337Q136.13937 102.34712 137.31125 102.34712Q139.32687 102.34712 139.3425 104.61275L139.3425 108.80025L138.24875 108.80025L138.24875 104.59712Q138.24875 103.92525 137.93625 103.59712Q137.63937 103.269 136.98312 103.269Q136.45187 103.269 136.04562 103.55025Q135.655 103.8315 135.43625 104.28462L135.43625 108.80025L134.35812 108.80025L134.35812 102.4565L135.37375 102.4565ZM142.82687 100.92525L142.82687 102.4565L143.99875 102.4565L143.99875 103.30025L142.82687 103.30025L142.82687 107.22212Q142.82687 107.61275 142.98312 107.80025Q143.13937 107.98775 143.51437 107.98775Q143.70187 107.98775 144.03 107.92525L144.03 108.80025Q143.60812 108.92525 143.20187 108.92525Q142.48312 108.92525 142.10812 108.48775Q141.73312 108.03462 141.73312 107.22212L141.73312 103.30025L140.57687 103.30025L140.57687 102.4565L141.73312 102.4565L141.73312 100.92525L142.82687 100.92525ZM146.53 108.80025L145.45187 108.80025L145.45187 102.4565L146.53 102.4565L146.53 108.80025ZM145.35812 100.78462Q145.35812 100.519 145.51437 100.3315Q145.68625 100.144 145.99875 100.144Q146.31125 100.144 146.4675 100.3315Q146.63937 100.519 146.63937 100.78462Q146.63937 101.03462 146.4675 101.22212Q146.31125 101.394 145.99875 101.394Q145.68625 101.394 145.51437 101.22212Q145.35812 101.03462 145.35812 100.78462ZM152.26437 108.80025Q152.17062 108.61275 152.10812 108.12837Q151.35812 108.92525 150.31125 108.92525Q149.37375 108.92525 148.76437 108.394Q148.17062 107.86275 148.17062 107.03462Q148.17062 106.05025 148.92062 105.50337Q149.67062 104.9565 151.04562 104.9565L152.0925 104.9565L152.0925 104.4565Q152.0925 103.894 151.74875 103.56587Q151.42062 103.22212 150.74875 103.22212Q150.17062 103.22212 149.78 103.519Q149.38937 103.80025 149.38937 104.22212L148.29562 104.22212Q148.29562 103.73775 148.62375 103.30025Q148.9675 102.86275 149.54562 102.61275Q150.12375 102.34712 150.81125 102.34712Q151.92062 102.34712 152.53 102.894Q153.155 103.44087 153.18625 104.394L153.18625 107.31587Q153.18625 108.19087 153.405 108.7065L153.405 108.80025L152.26437 108.80025ZM150.4675 107.97212Q150.98312 107.97212 151.43625 107.7065Q151.88937 107.44087 152.0925 107.019L152.0925 105.72212L151.24875 105.72212Q149.24875 105.72212 149.24875 106.894Q149.24875 107.394 149.5925 107.69087Q149.93625 107.97212 150.4675 107.97212ZM156.53 108.80025L155.45187 108.80025L155.45187 99.80025L156.53 99.80025L156.53 108.80025Z" fill-rule="nonzero"/><path fill="#757575" d="M89.82687 146.30833L89.82687 147.83958L90.99875 147.83958L90.99875 148.68333L89.82687 148.68333L89.82687 152.60521Q89.82687 152.99583 89.98312 153.18333Q90.13937 153.37083 90.51437 153.37083Q90.70187 153.37083 91.03 153.30833L91.03 154.18333Q90.60812 154.30833 90.20187 154.30833Q89.48312 154.30833 89.10812 153.87083Q88.73312 153.41771 88.73312 152.60521L88.73312 148.68333L87.57687 148.68333L87.57687 147.83958L88.73312 147.83958L88.73312 146.30833L89.82687 146.30833ZM94.98312 154.30833Q93.68625 154.30833 92.87375 153.46458Q92.07687 152.60521 92.07687 151.18333L92.07687 150.99583Q92.07687 150.04271 92.43625 149.30833Q92.79562 148.55833 93.43625 148.15208Q94.0925 147.73021 94.8425 147.73021Q96.07687 147.73021 96.76437 148.54271Q97.45187 149.35521 97.45187 150.87083L97.45187 151.32396L93.155 151.32396Q93.18625 152.26146 93.70187 152.83958Q94.23312 153.41771 95.04562 153.41771Q95.60812 153.41771 95.99875 153.18333Q96.405 152.94896 96.7175 152.55833L97.37375 153.07396Q96.57687 154.30833 94.98312 154.30833ZM94.8425 148.62083Q94.18625 148.62083 93.73312 149.10521Q93.29562 149.57396 93.20187 150.43333L96.37375 150.43333L96.37375 150.35521Q96.32687 149.52708 95.92062 149.07396Q95.53 148.62083 94.8425 148.62083ZM100.48312 150.15208L101.88937 147.83958L103.155 147.83958L101.07687 150.98021L103.2175 154.18333L101.9675 154.18333L100.49875 151.80833L99.03 154.18333L97.76437 154.18333L99.905 150.98021L97.8425 147.83958L99.0925 147.83958L100.48312 150.15208ZM105.82687 146.30833L105.82687 147.83958L106.99875 147.83958L106.99875 148.68333L105.82687 148.68333L105.82687 152.60521Q105.82687 152.99583 105.98312 153.18333Q106.13937 153.37083 106.51437 153.37083Q106.70187 153.37083 107.03 153.30833L107.03 154.18333Q106.60812 154.30833 106.20187 154.30833Q105.48312 154.30833 105.10812 153.87083Q104.73312 153.41771 104.73312 152.60521L104.73312 148.68333L103.57687 148.68333L103.57687 147.83958L104.73312 147.83958L104.73312 146.30833L105.82687 146.30833ZM112.92062 155.07396L107.56125 155.07396L107.56125 154.18333L112.92062 154.18333L112.92062 155.07396ZM113.0925 150.96458Q113.0925 149.48021 113.78 148.60521Q114.4675 147.73021 115.5925 147.73021Q116.74875 147.73021 117.405 148.54271L117.45187 147.83958L118.45187 147.83958L118.45187 154.02708Q118.45187 155.26146 117.7175 155.96458Q116.98312 156.68333 115.76437 156.68333Q115.07687 156.68333 114.42062 156.38646Q113.76437 156.08958 113.42062 155.58958L113.98312 154.93333Q114.67062 155.79271 115.68625 155.79271Q116.4675 155.79271 116.905 155.33958Q117.35812 154.90208 117.35812 154.08958L117.35812 153.54271Q116.70187 154.30833 115.57687 154.30833Q114.4675 154.30833 113.78 153.41771Q113.0925 152.51146 113.0925 150.96458ZM114.18625 151.08958Q114.18625 152.15208 114.62375 152.77708Q115.06125 153.38646 115.85812 153.38646Q116.87375 153.38646 117.35812 152.44896L117.35812 149.55833Q116.85812 148.65208 115.85812 148.65208Q115.07687 148.65208 114.62375 149.26146Q114.18625 149.87083 114.18625 151.08958ZM122.98312 154.30833Q121.68625 154.30833 120.87375 153.46458Q120.07687 152.60521 120.07687 151.18333L120.07687 150.99583Q120.07687 150.04271 120.43625 149.30833Q120.79562 148.55833 121.43625 148.15208Q122.0925 147.73021 122.8425 147.73021Q124.07687 147.73021 124.76437 148.54271Q125.45187 149.35521 125.45187 150.87083L125.45187 151.32396L121.155 151.32396Q121.18625 152.26146 121.70187 152.83958Q122.23312 153.41771 123.04562 153.41771Q123.60812 153.41771 123.99875 153.18333Q124.405 152.94896 124.7175 152.55833L125.37375 153.07396Q124.57687 154.30833 122.98312 154.30833ZM122.8425 148.62083Q122.18625 148.62083 121.73312 149.10521Q121.29562 149.57396 121.20187 150.43333L124.37375 150.43333L124.37375 150.35521Q124.32687 149.52708 123.92062 149.07396Q123.53 148.62083 122.8425 148.62083ZM129.42062 148.80833Q129.17062 148.77708 128.88937 148.77708Q127.81125 148.77708 127.43625 149.68333L127.43625 154.18333L126.35812 154.18333L126.35812 147.83958L127.405 147.83958L127.42062 148.57396Q127.95187 147.73021 128.93625 147.73021Q129.24875 147.73021 129.42062 147.80833L129.42062 148.80833ZM131.37375 147.83958L131.405 148.54271Q132.0925 147.73021 133.28 147.73021Q134.60812 147.73021 135.0925 148.74583Q135.405 148.29271 135.905 148.01146Q136.42062 147.73021 137.10812 147.73021Q139.20187 147.73021 139.23312 149.93333L139.23312 154.18333L138.155 154.18333L138.155 149.99583Q138.155 149.32396 137.8425 148.99583Q137.53 148.65208 136.79562 148.65208Q136.18625 148.65208 135.78 149.01146Q135.38937 149.37083 135.32687 149.98021L135.32687 154.18333L134.24875 154.18333L134.24875 150.02708Q134.24875 148.65208 132.88937 148.65208Q131.82687 148.65208 131.43625 149.55833L131.43625 154.18333L130.3425 154.18333L130.3425 147.83958L131.37375 147.83958ZM145.26437 154.18333Q145.17062 153.99583 145.10812 153.51146Q144.35812 154.30833 143.31125 154.30833Q142.37375 154.30833 141.76437 153.77708Q141.17062 153.24583 141.17062 152.41771Q141.17062 151.43333 141.92062 150.88646Q142.67062 150.33958 144.04562 150.33958L145.0925 150.33958L145.0925 149.83958Q145.0925 149.27708 144.74875 148.94896Q144.42062 148.60521 143.74875 148.60521Q143.17062 148.60521 142.78 148.90208Q142.38937 149.18333 142.38937 149.60521L141.29562 149.60521Q141.29562 149.12083 141.62375 148.68333Q141.9675 148.24583 142.54562 147.99583Q143.12375 147.73021 143.81125 147.73021Q144.92062 147.73021 145.53 148.27708Q146.155 148.82396 146.18625 149.77708L146.18625 152.69896Q146.18625 153.57396 146.405 154.08958L146.405 154.18333L145.26437 154.18333ZM143.4675 153.35521Q143.98312 153.35521 144.43625 153.08958Q144.88937 152.82396 145.0925 152.40208L145.0925 151.10521L144.24875 151.10521Q142.24875 151.10521 142.24875 152.27708Q142.24875 152.77708 142.5925 153.07396Q142.93625 153.35521 143.4675 153.35521ZM149.37375 147.83958L149.405 148.63646Q150.13937 147.73021 151.31125 147.73021Q153.32687 147.73021 153.3425 149.99583L153.3425 154.18333L152.24875 154.18333L152.24875 149.98021Q152.24875 149.30833 151.93625 148.98021Q151.63937 148.65208 150.98312 148.65208Q150.45187 148.65208 150.04562 148.93333Q149.655 149.21458 149.43625 149.66771L149.43625 154.18333L148.35812 154.18333L148.35812 147.83958L149.37375 147.83958ZM155.31125 153.62083Q155.31125 153.33958 155.4675 153.15208Q155.63937 152.96458 155.9675 152.96458Q156.31125 152.96458 156.48312 153.15208Q156.655 153.33958 156.655 153.62083Q156.655 153.88646 156.48312 154.07396Q156.31125 154.24583 155.9675 154.24583Q155.63937 154.24583 155.4675 154.07396Q155.31125 153.88646 155.31125 153.62083ZM155.32687 148.44896Q155.32687 148.16771 155.48312 147.98021Q155.655 147.79271 155.98312 147.79271Q156.32687 147.79271 156.49875 147.98021Q156.67062 148.16771 156.67062 148.44896Q156.67062 148.71458 156.49875 148.90208Q156.32687 149.07396 155.98312 149.07396Q155.655 149.07396 155.48312 148.90208Q155.32687 148.71458 155.32687 148.44896Z" fill-rule="nonzero"/><path fill="#757575" d="M98.0925 165.96458Q98.0925 164.49583 98.78 163.62083Q99.4675 162.73021 100.5925 162.73021Q101.70187 162.73021 102.35812 163.48021L102.35812 160.18333L103.43625 160.18333L103.43625 169.18333L102.43625 169.18333L102.38937 168.49583Q101.73312 169.30833 100.57687 169.30833Q99.48312 169.30833 98.78 168.40208Q98.0925 167.49583 98.0925 166.04271L98.0925 165.96458ZM99.17062 166.08958Q99.17062 167.16771 99.60812 167.77708Q100.06125 168.38646 100.8425 168.38646Q101.87375 168.38646 102.35812 167.44896L102.35812 164.54271Q101.87375 163.65208 100.85812 163.65208Q100.06125 163.65208 99.60812 164.26146Q99.17062 164.87083 99.17062 166.08958ZM106.53 169.18333L105.45187 169.18333L105.45187 162.83958L106.53 162.83958L106.53 169.18333ZM105.35812 161.16771Q105.35812 160.90208 105.51437 160.71458Q105.68625 160.52708 105.99875 160.52708Q106.31125 160.52708 106.4675 160.71458Q106.63937 160.90208 106.63937 161.16771Q106.63937 161.41771 106.4675 161.60521Q106.31125 161.77708 105.99875 161.77708Q105.68625 161.77708 105.51437 161.60521Q105.35812 161.41771 105.35812 161.16771ZM108.88937 169.18333L108.88937 163.68333L107.88937 163.68333L107.88937 162.83958L108.88937 162.83958L108.88937 162.19896Q108.88937 161.16771 109.42062 160.62083Q109.9675 160.05833 110.9675 160.05833Q111.3425 160.05833 111.7175 160.15208L111.655 161.04271Q111.37375 160.98021 111.07687 160.98021Q110.54562 160.98021 110.24875 161.29271Q109.9675 161.60521 109.9675 162.16771L109.9675 162.83958L111.32687 162.83958L111.32687 163.68333L109.9675 163.68333L109.9675 169.18333L108.88937 169.18333ZM112.88937 169.18333L112.88937 163.68333L111.88937 163.68333L111.88937 162.83958L112.88937 162.83958L112.88937 162.19896Q112.88937 161.16771 113.42062 160.62083Q113.9675 160.05833 114.9675 160.05833Q115.3425 160.05833 115.7175 160.15208L115.655 161.04271Q115.37375 160.98021 115.07687 160.98021Q114.54562 160.98021 114.24875 161.29271Q113.9675 161.60521 113.9675 162.16771L113.9675 162.83958L115.32687 162.83958L115.32687 163.68333L113.9675 163.68333L113.9675 169.18333L112.88937 169.18333ZM118.98312 169.30833Q117.68625 169.30833 116.87375 168.46458Q116.07687 167.60521 116.07687 166.18333L116.07687 165.99583Q116.07687 165.04271 116.43625 164.30833Q116.79562 163.55833 117.43625 163.15208Q118.0925 162.73021 118.8425 162.73021Q120.07687 162.73021 120.76437 163.54271Q121.45187 164.35521 121.45187 165.87083L121.45187 166.32396L117.155 166.32396Q117.18625 167.26146 117.70187 167.83958Q118.23312 168.41771 119.04562 168.41771Q119.60812 168.41771 119.99875 168.18333Q120.405 167.94896 120.7175 167.55833L121.37375 168.07396Q120.57687 169.30833 118.98312 169.30833ZM118.8425 163.62083Q118.18625 163.62083 117.73312 164.10521Q117.29562 164.57396 117.20187 165.43333L120.37375 165.43333L120.37375 165.35521Q120.32687 164.52708 119.92062 164.07396Q119.53 163.62083 118.8425 163.62083ZM125.42062 163.80833Q125.17062 163.77708 124.88937 163.77708Q123.81125 163.77708 123.43625 164.68333L123.43625 169.18333L122.35812 169.18333L122.35812 162.83958L123.405 162.83958L123.42062 163.57396Q123.95187 162.73021 124.93625 162.73021Q125.24875 162.73021 125.42062 162.80833L125.42062 163.80833ZM128.98312 169.30833Q127.68625 169.30833 126.87375 168.46458Q126.07687 167.60521 126.07687 166.18333L126.07687 165.99583Q126.07687 165.04271 126.43625 164.30833Q126.79562 163.55833 127.43625 163.15208Q128.0925 162.73021 128.8425 162.73021Q130.07687 162.73021 130.76437 163.54271Q131.45187 164.35521 131.45187 165.87083L131.45187 166.32396L127.155 166.32396Q127.18625 167.26146 127.70187 167.83958Q128.23312 168.41771 129.04562 168.41771Q129.60812 168.41771 129.99875 168.18333Q130.405 167.94896 130.7175 167.55833L131.37375 168.07396Q130.57687 169.30833 128.98312 169.30833ZM128.8425 163.62083Q128.18625 163.62083 127.73312 164.10521Q127.29562 164.57396 127.20187 165.43333L130.37375 165.43333L130.37375 165.35521Q130.32687 164.52708 129.92062 164.07396Q129.53 163.62083 128.8425 163.62083ZM133.37375 162.83958L133.405 163.63646Q134.13937 162.73021 135.31125 162.73021Q137.32687 162.73021 137.3425 164.99583L137.3425 169.18333L136.24875 169.18333L136.24875 164.98021Q136.24875 164.30833 135.93625 163.98021Q135.63937 163.65208 134.98312 163.65208Q134.45187 163.65208 134.04562 163.93333Q133.655 164.21458 133.43625 164.66771L133.43625 169.18333L132.35812 169.18333L132.35812 162.83958L133.37375 162.83958ZM140.82687 161.30833L140.82687 162.83958L141.99875 162.83958L141.99875 163.68333L140.82687 163.68333L140.82687 167.60521Q140.82687 167.99583 140.98312 168.18333Q141.13937 168.37083 141.51437 168.37083Q141.70187 168.37083 142.03 168.30833L142.03 169.18333Q141.60812 169.30833 141.20187 169.30833Q140.48312 169.30833 140.10812 168.87083Q139.73312 168.41771 139.73312 167.60521L139.73312 163.68333L138.57687 163.68333L138.57687 162.83958L139.73312 162.83958L139.73312 161.30833L140.82687 161.30833ZM144.53 169.18333L143.45187 169.18333L143.45187 162.83958L144.53 162.83958L144.53 169.18333ZM143.35812 161.16771Q143.35812 160.90208 143.51437 160.71458Q143.68625 160.52708 143.99875 160.52708Q144.31125 160.52708 144.4675 160.71458Q144.63937 160.90208 144.63937 161.16771Q144.63937 161.41771 144.4675 161.60521Q144.31125 161.77708 143.99875 161.77708Q143.68625 161.77708 143.51437 161.60521Q143.35812 161.41771 143.35812 161.16771ZM150.26437 169.18333Q150.17062 168.99583 150.10812 168.51146Q149.35812 169.30833 148.31125 169.30833Q147.37375 169.30833 146.76437 168.77708Q146.17062 168.24583 146.17062 167.41771Q146.17062 166.43333 146.92062 165.88646Q147.67062 165.33958 149.04562 165.33958L150.0925 165.33958L150.0925 164.83958Q150.0925 164.27708 149.74875 163.94896Q149.42062 163.60521 148.74875 163.60521Q148.17062 163.60521 147.78 163.90208Q147.38937 164.18333 147.38937 164.60521L146.29562 164.60521Q146.29562 164.12083 146.62375 163.68333Q146.9675 163.24583 147.54562 162.99583Q148.12375 162.73021 148.81125 162.73021Q149.92062 162.73021 150.53 163.27708Q151.155 163.82396 151.18625 164.77708L151.18625 167.69896Q151.18625 168.57396 151.405 169.08958L151.405 169.18333L150.26437 169.18333ZM148.4675 168.35521Q148.98312 168.35521 149.43625 168.08958Q149.88937 167.82396 150.0925 167.40208L150.0925 166.10521L149.24875 166.10521Q147.24875 166.10521 147.24875 167.27708Q147.24875 167.77708 147.5925 168.07396Q147.93625 168.35521 148.4675 168.35521ZM154.53 169.18333L153.45187 169.18333L153.45187 160.18333L154.53 160.18333L154.53 169.18333ZM156.31125 170.88646L155.70187 170.46458Q156.24875 169.69896 156.28 168.87083L156.28 167.90208L157.3425 167.90208L157.3425 168.74583Q157.3425 169.33958 157.04562 169.93333Q156.74875 170.52708 156.31125 170.88646Z" fill-rule="nonzero"/><path fill="#757575" d="M54.0925 180.96458Q54.0925 179.49583 54.78 178.62083Q55.4675 177.73021 56.5925 177.73021Q57.701874 177.73021 58.358124 178.48021L58.358124 175.18333L59.43625 175.18333L59.43625 184.18333L58.43625 184.18333L58.389374 183.49583Q57.733124 184.30833 56.576874 184.30833Q55.483124 184.30833 54.78 183.40208Q54.0925 182.49583 54.0925 181.04271L54.0925 180.96458ZM55.170624 181.08958Q55.170624 182.16771 55.608124 182.77708Q56.06125 183.38646 56.8425 183.38646Q57.87375 183.38646 58.358124 182.44896L58.358124 179.54271Q57.87375 178.65208 56.858124 178.65208Q56.06125 178.65208 55.608124 179.26146Q55.170624 179.87083 55.170624 181.08958ZM62.53 184.18333L61.451874 184.18333L61.451874 177.83958L62.53 177.83958L62.53 184.18333ZM61.358124 176.16771Q61.358124 175.90208 61.514374 175.71458Q61.68625 175.52708 61.99875 175.52708Q62.31125 175.52708 62.4675 175.71458Q62.639374 175.90208 62.639374 176.16771Q62.639374 176.41771 62.4675 176.60521Q62.31125 176.77708 61.99875 176.77708Q61.68625 176.77708 61.514374 176.60521Q61.358124 176.41771 61.358124 176.16771ZM64.88937 184.18333L64.88937 178.68333L63.889374 178.68333L63.889374 177.83958L64.88937 177.83958L64.88937 177.19896Q64.88937 176.16771 65.42062 175.62083Q65.9675 175.05833 66.9675 175.05833Q67.3425 175.05833 67.7175 175.15208L67.655 176.04271Q67.37375 175.98021 67.07687 175.98021Q66.54562 175.98021 66.24875 176.29271Q65.9675 176.60521 65.9675 177.16771L65.9675 177.83958L67.32687 177.83958L67.32687 178.68333L65.9675 178.68333L65.9675 184.18333L64.88937 184.18333ZM68.88937 184.18333L68.88937 178.68333L67.88937 178.68333L67.88937 177.83958L68.88937 177.83958L68.88937 177.19896Q68.88937 176.16771 69.42062 175.62083Q69.9675 175.05833 70.9675 175.05833Q71.3425 175.05833 71.7175 175.15208L71.655 176.04271Q71.37375 175.98021 71.07687 175.98021Q70.54562 175.98021 70.24875 176.29271Q69.9675 176.60521 69.9675 177.16771L69.9675 177.83958L71.32687 177.83958L71.32687 178.68333L69.9675 178.68333L69.9675 184.18333L68.88937 184.18333ZM74.98312 184.30833Q73.68625 184.30833 72.87375 183.46458Q72.07687 182.60521 72.07687 181.18333L72.07687 180.99583Q72.07687 180.04271 72.43625 179.30833Q72.79562 178.55833 73.43625 178.15208Q74.0925 177.73021 74.8425 177.73021Q76.07687 177.73021 76.76437 178.54271Q77.45187 179.35521 77.45187 180.87083L77.45187 181.32396L73.155 181.32396Q73.18625 182.26146 73.70187 182.83958Q74.23312 183.41771 75.04562 183.41771Q75.60812 183.41771 75.99875 183.18333Q76.405 182.94896 76.7175 182.55833L77.37375 183.07396Q76.57687 184.30833 74.98312 184.30833ZM74.8425 178.62083Q74.18625 178.62083 73.73312 179.10521Q73.29562 179.57396 73.20187 180.43333L76.37375 180.43333L76.37375 180.35521Q76.32687 179.52708 75.92062 179.07396Q75.53 178.62083 74.8425 178.62083ZM81.42062 178.80833Q81.17062 178.77708 80.88937 178.77708Q79.81125 178.77708 79.43625 179.68333L79.43625 184.18333L78.35812 184.18333L78.35812 177.83958L79.405 177.83958L79.42062 178.57396Q79.95187 177.73021 80.93625 177.73021Q81.24875 177.73021 81.42062 177.80833L81.42062 178.80833ZM84.98312 184.30833Q83.68625 184.30833 82.87375 183.46458Q82.07687 182.60521 82.07687 181.18333L82.07687 180.99583Q82.07687 180.04271 82.43625 179.30833Q82.79562 178.55833 83.43625 178.15208Q84.0925 177.73021 84.8425 177.73021Q86.07687 177.73021 86.76437 178.54271Q87.45187 179.35521 87.45187 180.87083L87.45187 181.32396L83.155 181.32396Q83.18625 182.26146 83.70187 182.83958Q84.23312 183.41771 85.04562 183.41771Q85.60812 183.41771 85.99875 183.18333Q86.405 182.94896 86.7175 182.55833L87.37375 183.07396Q86.57687 184.30833 84.98312 184.30833ZM84.8425 178.62083Q84.18625 178.62083 83.73312 179.10521Q83.29562 179.57396 83.20187 180.43333L86.37375 180.43333L86.37375 180.35521Q86.32687 179.52708 85.92062 179.07396Q85.53 178.62083 84.8425 178.62083ZM89.37375 177.83958L89.405 178.63646Q90.13937 177.73021 91.31125 177.73021Q93.32687 177.73021 93.3425 179.99583L93.3425 184.18333L92.24875 184.18333L92.24875 179.98021Q92.24875 179.30833 91.93625 178.98021Q91.63937 178.65208 90.98312 178.65208Q90.45187 178.65208 90.04562 178.93333Q89.655 179.21458 89.43625 179.66771L89.43625 184.18333L88.35812 184.18333L88.35812 177.83958L89.37375 177.83958ZM96.82687 176.30833L96.82687 177.83958L97.99875 177.83958L97.99875 178.68333L96.82687 178.68333L96.82687 182.60521Q96.82687 182.99583 96.98312 183.18333Q97.13937 183.37083 97.51437 183.37083Q97.70187 183.37083 98.03 183.30833L98.03 184.18333Q97.60812 184.30833 97.20187 184.30833Q96.48312 184.30833 96.10812 183.87083Q95.73312 183.41771 95.73312 182.60521L95.73312 178.68333L94.57687 178.68333L94.57687 177.83958L95.73312 177.83958L95.73312 176.30833L96.82687 176.30833ZM100.53 184.18333L99.45187 184.18333L99.45187 177.83958L100.53 177.83958L100.53 184.18333ZM99.35812 176.16771Q99.35812 175.90208 99.51437 175.71458Q99.68625 175.52708 99.99875 175.52708Q100.31125 175.52708 100.4675 175.71458Q100.63937 175.90208 100.63937 176.16771Q100.63937 176.41771 100.4675 176.60521Q100.31125 176.77708 99.99875 176.77708Q99.68625 176.77708 99.51437 176.60521Q99.35812 176.41771 99.35812 176.16771ZM106.26437 184.18333Q106.17062 183.99583 106.10812 183.51146Q105.35812 184.30833 104.31125 184.30833Q103.37375 184.30833 102.76437 183.77708Q102.17062 183.24583 102.17062 182.41771Q102.17062 181.43333 102.92062 180.88646Q103.67062 180.33958 105.04562 180.33958L106.0925 180.33958L106.0925 179.83958Q106.0925 179.27708 105.74875 178.94896Q105.42062 178.60521 104.74875 178.60521Q104.17062 178.60521 103.78 178.90208Q103.38937 179.18333 103.38937 179.60521L102.29562 179.60521Q102.29562 179.12083 102.62375 178.68333Q102.9675 178.24583 103.54562 177.99583Q104.12375 177.73021 104.81125 177.73021Q105.92062 177.73021 106.53 178.27708Q107.155 178.82396 107.18625 179.77708L107.18625 182.69896Q107.18625 183.57396 107.405 184.08958L107.405 184.18333L106.26437 184.18333ZM104.4675 183.35521Q104.98312 183.35521 105.43625 183.08958Q105.88937 182.82396 106.0925 182.40208L106.0925 181.10521L105.24875 181.10521Q103.24875 181.10521 103.24875 182.27708Q103.24875 182.77708 103.5925 183.07396Q103.93625 183.35521 104.4675 183.35521ZM110.53 184.18333L109.45187 184.18333L109.45187 175.18333L110.53 175.18333L110.53 184.18333ZM112.0925 180.96458Q112.0925 179.48021 112.78 178.60521Q113.4675 177.73021 114.5925 177.73021Q115.74875 177.73021 116.405 178.54271L116.45187 177.83958L117.45187 177.83958L117.45187 184.02708Q117.45187 185.26146 116.7175 185.96458Q115.98312 186.68333 114.76437 186.68333Q114.07687 186.68333 113.42062 186.38646Q112.76437 186.08958 112.42062 185.58958L112.98312 184.93333Q113.67062 185.79271 114.68625 185.79271Q115.4675 185.79271 115.905 185.33958Q116.35812 184.90208 116.35812 184.08958L116.35812 183.54271Q115.70187 184.30833 114.57687 184.30833Q113.4675 184.30833 112.78 183.41771Q112.0925 182.51146 112.0925 180.96458ZM113.18625 181.08958Q113.18625 182.15208 113.62375 182.77708Q114.06125 183.38646 114.85812 183.38646Q115.87375 183.38646 116.35812 182.44896L116.35812 179.55833Q115.85812 178.65208 114.85812 178.65208Q114.07687 178.65208 113.62375 179.26146Q113.18625 179.87083 113.18625 181.08958ZM120.53 184.18333L119.45187 184.18333L119.45187 175.18333L120.53 175.18333L120.53 184.18333ZM124.98312 184.30833Q123.68625 184.30833 122.87375 183.46458Q122.07687 182.60521 122.07687 181.18333L122.07687 180.99583Q122.07687 180.04271 122.43625 179.30833Q122.79562 178.55833 123.43625 178.15208Q124.0925 177.73021 124.8425 177.73021Q126.07687 177.73021 126.76437 178.54271Q127.45187 179.35521 127.45187 180.87083L127.45187 181.32396L123.155 181.32396Q123.18625 182.26146 123.70187 182.83958Q124.23312 183.41771 125.04562 183.41771Q125.60812 183.41771 125.99875 183.18333Q126.405 182.94896 126.7175 182.55833L127.37375 183.07396Q126.57687 184.30833 124.98312 184.30833ZM124.8425 178.62083Q124.18625 178.62083 123.73312 179.10521Q123.29562 179.57396 123.20187 180.43333L126.37375 180.43333L126.37375 180.35521Q126.32687 179.52708 125.92062 179.07396Q125.53 178.62083 124.8425 178.62083ZM129.53 184.18333L128.45187 184.18333L128.45187 177.83958L129.53 177.83958L129.53 184.18333ZM128.35812 176.16771Q128.35812 175.90208 128.51437 175.71458Q128.68625 175.52708 128.99875 175.52708Q129.31125 175.52708 129.4675 175.71458Q129.63937 175.90208 129.63937 176.16771Q129.63937 176.41771 129.4675 176.60521Q129.31125 176.77708 128.99875 176.77708Q128.68625 176.77708 128.51437 176.60521Q128.35812 176.41771 128.35812 176.16771ZM133.88937 183.41771Q134.4675 183.41771 134.905 183.07396Q135.3425 182.71458 135.38937 182.18333L136.42062 182.18333Q136.38937 182.73021 136.03 183.23021Q135.68625 183.71458 135.10812 184.01146Q134.54562 184.30833 133.88937 184.30833Q132.5925 184.30833 131.82687 183.44896Q131.07687 182.57396 131.07687 181.07396L131.07687 180.88646Q131.07687 179.96458 131.405 179.24583Q131.74875 178.52708 132.37375 178.13646Q133.01437 177.73021 133.88937 177.73021Q134.95187 177.73021 135.655 178.37083Q136.37375 178.99583 136.42062 180.02708L135.38937 180.02708Q135.3425 179.40208 134.92062 179.01146Q134.49875 178.62083 133.88937 178.62083Q133.06125 178.62083 132.60812 179.21458Q132.155 179.80833 132.155 180.93333L132.155 181.13646Q132.155 182.23021 132.60812 182.82396Q133.06125 183.41771 133.88937 183.41771ZM138.43625 178.60521Q139.155 177.73021 140.31125 177.73021Q142.32687 177.73021 142.3425 179.99583L142.3425 184.18333L141.24875 184.18333L141.24875 179.98021Q141.24875 179.30833 140.93625 178.98021Q140.63937 178.65208 139.98312 178.65208Q139.45187 178.65208 139.04562 178.93333Q138.655 179.21458 138.43625 179.66771L138.43625 184.18333L137.35812 184.18333L137.35812 175.18333L138.43625 175.18333L138.43625 178.60521ZM148.26437 183.55833Q147.63937 184.30833 146.405 184.30833Q145.38937 184.30833 144.85812 183.71458Q144.32687 183.12083 144.32687 181.96458L144.32687 177.83958L145.405 177.83958L145.405 181.93333Q145.405 183.38646 146.57687 183.38646Q147.82687 183.38646 148.23312 182.44896L148.23312 177.83958L149.32687 177.83958L149.32687 184.18333L148.29562 184.18333L148.26437 183.55833ZM152.37375 177.83958L152.405 178.63646Q153.13937 177.73021 154.31125 177.73021Q156.32687 177.73021 156.3425 179.99583L156.3425 184.18333L155.24875 184.18333L155.24875 179.98021Q155.24875 179.30833 154.93625 178.98021Q154.63937 178.65208 153.98312 178.65208Q153.45187 178.65208 153.04562 178.93333Q152.655 179.21458 152.43625 179.66771L152.43625 184.18333L151.35812 184.18333L151.35812 177.83958L152.37375 177.83958Z" fill-rule="nonzero"/><path fill="#757575" d="M124.0925 195.96458Q124.0925 194.48021 124.78 193.60521Q125.4675 192.73021 126.5925 192.73021Q127.74875 192.73021 128.405 193.54271L128.45187 192.83958L129.45187 192.83958L129.45187 199.02708Q129.45187 200.26146 128.7175 200.96458Q127.98312 201.68333 126.76437 201.68333Q126.07687 201.68333 125.42062 201.38646Q124.76437 201.08958 124.42062 200.58958L124.98312 199.93333Q125.67062 200.79271 126.68625 200.79271Q127.4675 200.79271 127.905 200.33958Q128.35812 199.90208 128.35812 199.08958L128.35812 198.54271Q127.70187 199.30833 126.57687 199.30833Q125.4675 199.30833 124.78 198.41771Q124.0925 197.51146 124.0925 195.96458ZM125.18625 196.08958Q125.18625 197.15208 125.62375 197.77708Q126.06125 198.38646 126.85812 198.38646Q127.87375 198.38646 128.35812 197.44896L128.35812 194.55833Q127.85812 193.65208 126.85812 193.65208Q126.07687 193.65208 125.62375 194.26146Q125.18625 194.87083 125.18625 196.08958ZM131.31125 200.88646L130.70187 200.46458Q131.24875 199.69896 131.28 198.87083L131.28 197.90208L132.3425 197.90208L132.3425 198.74583Q132.3425 199.33958 132.04562 199.93333Q131.74875 200.52708 131.31125 200.88646ZM138.98312 199.30833Q137.68625 199.30833 136.87375 198.46458Q136.07687 197.60521 136.07687 196.18333L136.07687 195.99583Q136.07687 195.04271 136.43625 194.30833Q136.79562 193.55833 137.43625 193.15208Q138.0925 192.73021 138.8425 192.73021Q140.07687 192.73021 140.76437 193.54271Q141.45187 194.35521 141.45187 195.87083L141.45187 196.32396L137.155 196.32396Q137.18625 197.26146 137.70187 197.83958Q138.23312 198.41771 139.04562 198.41771Q139.60812 198.41771 139.99875 198.18333Q140.405 197.94896 140.7175 197.55833L141.37375 198.07396Q140.57687 199.30833 138.98312 199.30833ZM138.8425 193.62083Q138.18625 193.62083 137.73312 194.10521Q137.29562 194.57396 137.20187 195.43333L140.37375 195.43333L140.37375 195.35521Q140.32687 194.52708 139.92062 194.07396Q139.53 193.62083 138.8425 193.62083ZM143.53 199.18333L142.45187 199.18333L142.45187 192.83958L143.53 192.83958L143.53 199.18333ZM142.35812 191.16771Q142.35812 190.90208 142.51437 190.71458Q142.68625 190.52708 142.99875 190.52708Q143.31125 190.52708 143.4675 190.71458Q143.63937 190.90208 143.63937 191.16771Q143.63937 191.41771 143.4675 191.60521Q143.31125 191.77708 142.99875 191.77708Q142.68625 191.77708 142.51437 191.60521Q142.35812 191.41771 142.35812 191.16771ZM147.88937 198.41771Q148.4675 198.41771 148.905 198.07396Q149.3425 197.71458 149.38937 197.18333L150.42062 197.18333Q150.38937 197.73021 150.03 198.23021Q149.68625 198.71458 149.10812 199.01146Q148.54562 199.30833 147.88937 199.30833Q146.5925 199.30833 145.82687 198.44896Q145.07687 197.57396 145.07687 196.07396L145.07687 195.88646Q145.07687 194.96458 145.405 194.24583Q145.74875 193.52708 146.37375 193.13646Q147.01437 192.73021 147.88937 192.73021Q148.95187 192.73021 149.655 193.37083Q150.37375 193.99583 150.42062 195.02708L149.38937 195.02708Q149.3425 194.40208 148.92062 194.01146Q148.49875 193.62083 147.88937 193.62083Q147.06125 193.62083 146.60812 194.21458Q146.155 194.80833 146.155 195.93333L146.155 196.13646Q146.155 197.23021 146.60812 197.82396Q147.06125 198.41771 147.88937 198.41771ZM152.43625 193.60521Q153.155 192.73021 154.31125 192.73021Q156.32687 192.73021 156.3425 194.99583L156.3425 199.18333L155.24875 199.18333L155.24875 194.98021Q155.24875 194.30833 154.93625 193.98021Q154.63937 193.65208 153.98312 193.65208Q153.45187 193.65208 153.04562 193.93333Q152.655 194.21458 152.43625 194.66771L152.43625 199.18333L151.35812 199.18333L151.35812 190.18333L152.43625 190.18333L152.43625 193.60521Z" fill-rule="nonzero"/><path fill="#757575" d="M89.82687 236.69142L89.82687 238.22267L90.99875 238.22267L90.99875 239.06642L89.82687 239.06642L89.82687 242.9883Q89.82687 243.37892 89.98312 243.56642Q90.13937 243.75392 90.51437 243.75392Q90.70187 243.75392 91.03 243.69142L91.03 244.56642Q90.60812 244.69142 90.20187 244.69142Q89.48312 244.69142 89.10812 244.25392Q88.73312 243.8008 88.73312 242.9883L88.73312 239.06642L87.57687 239.06642L87.57687 238.22267L88.73312 238.22267L88.73312 236.69142L89.82687 236.69142ZM94.98312 244.69142Q93.68625 244.69142 92.87375 243.84767Q92.07687 242.9883 92.07687 241.56642L92.07687 241.37892Q92.07687 240.4258 92.43625 239.69142Q92.79562 238.94142 93.43625 238.53517Q94.0925 238.1133 94.8425 238.1133Q96.07687 238.1133 96.76437 238.9258Q97.45187 239.7383 97.45187 241.25392L97.45187 241.70705L93.155 241.70705Q93.18625 242.64455 93.70187 243.22267Q94.23312 243.8008 95.04562 243.8008Q95.60812 243.8008 95.99875 243.56642Q96.405 243.33205 96.7175 242.94142L97.37375 243.45705Q96.57687 244.69142 94.98312 244.69142ZM94.8425 239.00392Q94.18625 239.00392 93.73312 239.4883Q93.29562 239.95705 93.20187 240.81642L96.37375 240.81642L96.37375 240.7383Q96.32687 239.91017 95.92062 239.45705Q95.53 239.00392 94.8425 239.00392ZM100.48312 240.53517L101.88937 238.22267L103.155 238.22267L101.07687 241.3633L103.2175 244.56642L101.9675 244.56642L100.49875 242.19142L99.03 244.56642L97.76437 244.56642L99.905 241.3633L97.8425 238.22267L99.0925 238.22267L100.48312 240.53517ZM105.82687 236.69142L105.82687 238.22267L106.99875 238.22267L106.99875 239.06642L105.82687 239.06642L105.82687 242.9883Q105.82687 243.37892 105.98312 243.56642Q106.13937 243.75392 106.51437 243.75392Q106.70187 243.75392 107.03 243.69142L107.03 244.56642Q106.60812 244.69142 106.20187 244.69142Q105.48312 244.69142 105.10812 244.25392Q104.73312 243.8008 104.73312 242.9883L104.73312 239.06642L103.57687 239.06642L103.57687 238.22267L104.73312 238.22267L104.73312 236.69142L105.82687 236.69142ZM112.92062 245.45705L107.56125 245.45705L107.56125 244.56642L112.92062 244.56642L112.92062 245.45705ZM113.0925 241.34767Q113.0925 239.8633 113.78 238.9883Q114.4675 238.1133 115.5925 238.1133Q116.74875 238.1133 117.405 238.9258L117.45187 238.22267L118.45187 238.22267L118.45187 244.41017Q118.45187 245.64455 117.7175 246.34767Q116.98312 247.06642 115.76437 247.06642Q115.07687 247.06642 114.42062 246.76955Q113.76437 246.47267 113.42062 245.97267L113.98312 245.31642Q114.67062 246.1758 115.68625 246.1758Q116.4675 246.1758 116.905 245.72267Q117.35812 245.28517 117.35812 244.47267L117.35812 243.9258Q116.70187 244.69142 115.57687 244.69142Q114.4675 244.69142 113.78 243.8008Q113.0925 242.89455 113.0925 241.34767ZM114.18625 241.47267Q114.18625 242.53517 114.62375 243.16017Q115.06125 243.76955 115.85812 243.76955Q116.87375 243.76955 117.35812 242.83205L117.35812 239.94142Q116.85812 239.03517 115.85812 239.03517Q115.07687 239.03517 114.62375 239.64455Q114.18625 240.25392 114.18625 241.47267ZM122.98312 244.69142Q121.68625 244.69142 120.87375 243.84767Q120.07687 242.9883 120.07687 241.56642L120.07687 241.37892Q120.07687 240.4258 120.43625 239.69142Q120.79562 238.94142 121.43625 238.53517Q122.0925 238.1133 122.8425 238.1133Q124.07687 238.1133 124.76437 238.9258Q125.45187 239.7383 125.45187 241.25392L125.45187 241.70705L121.155 241.70705Q121.18625 242.64455 121.70187 243.22267Q122.23312 243.8008 123.04562 243.8008Q123.60812 243.8008 123.99875 243.56642Q124.405 243.33205 124.7175 242.94142L125.37375 243.45705Q124.57687 244.69142 122.98312 244.69142ZM122.8425 239.00392Q122.18625 239.00392 121.73312 239.4883Q121.29562 239.95705 121.20187 240.81642L124.37375 240.81642L124.37375 240.7383Q124.32687 239.91017 123.92062 239.45705Q123.53 239.00392 122.8425 239.00392ZM129.42062 239.19142Q129.17062 239.16017 128.88937 239.16017Q127.81125 239.16017 127.43625 240.06642L127.43625 244.56642L126.35812 244.56642L126.35812 238.22267L127.405 238.22267L127.42062 238.95705Q127.95187 238.1133 128.93625 238.1133Q129.24875 238.1133 129.42062 238.19142L129.42062 239.19142ZM131.37375 238.22267L131.405 238.9258Q132.0925 238.1133 133.28 238.1133Q134.60812 238.1133 135.0925 239.12892Q135.405 238.6758 135.905 238.39455Q136.42062 238.1133 137.10812 238.1133Q139.20187 238.1133 139.23312 240.31642L139.23312 244.56642L138.155 244.56642L138.155 240.37892Q138.155 239.70705 137.8425 239.37892Q137.53 239.03517 136.79562 239.03517Q136.18625 239.03517 135.78 239.39455Q135.38937 239.75392 135.32687 240.3633L135.32687 244.56642L134.24875 244.56642L134.24875 240.41017Q134.24875 239.03517 132.88937 239.03517Q131.82687 239.03517 131.43625 239.94142L131.43625 244.56642L130.3425 244.56642L130.3425 238.22267L131.37375 238.22267ZM145.26437 244.56642Q145.17062 244.37892 145.10812 243.89455Q144.35812 244.69142 143.31125 244.69142Q142.37375 244.69142 141.76437 244.16017Q141.17062 243.62892 141.17062 242.8008Q141.17062 241.81642 141.92062 241.26955Q142.67062 240.72267 144.04562 240.72267L145.0925 240.72267L145.0925 240.22267Q145.0925 239.66017 144.74875 239.33205Q144.42062 238.9883 143.74875 238.9883Q143.17062 238.9883 142.78 239.28517Q142.38937 239.56642 142.38937 239.9883L141.29562 239.9883Q141.29562 239.50392 141.62375 239.06642Q141.9675 238.62892 142.54562 238.37892Q143.12375 238.1133 143.81125 238.1133Q144.92062 238.1133 145.53 238.66017Q146.155 239.20705 146.18625 240.16017L146.18625 243.08205Q146.18625 243.95705 146.405 244.47267L146.405 244.56642L145.26437 244.56642ZM143.4675 243.7383Q143.98312 243.7383 144.43625 243.47267Q144.88937 243.20705 145.0925 242.78517L145.0925 241.4883L144.24875 241.4883Q142.24875 241.4883 142.24875 242.66017Q142.24875 243.16017 142.5925 243.45705Q142.93625 243.7383 143.4675 243.7383ZM149.37375 238.22267L149.405 239.01955Q150.13937 238.1133 151.31125 238.1133Q153.32687 238.1133 153.3425 240.37892L153.3425 244.56642L152.24875 244.56642L152.24875 240.3633Q152.24875 239.69142 151.93625 239.3633Q151.63937 239.03517 150.98312 239.03517Q150.45187 239.03517 150.04562 239.31642Q149.655 239.59767 149.43625 240.0508L149.43625 244.56642L148.35812 244.56642L148.35812 238.22267L149.37375 238.22267ZM155.31125 244.00392Q155.31125 243.72267 155.4675 243.53517Q155.63937 243.34767 155.9675 243.34767Q156.31125 243.34767 156.48312 243.53517Q156.655 243.72267 156.655 244.00392Q156.655 244.26955 156.48312 244.45705Q156.31125 244.62892 155.9675 244.62892Q155.63937 244.62892 155.4675 244.45705Q155.31125 244.26955 155.31125 244.00392ZM155.32687 238.83205Q155.32687 238.5508 155.48312 238.3633Q155.655 238.1758 155.98312 238.1758Q156.32687 238.1758 156.49875 238.3633Q156.67062 238.5508 156.67062 238.83205Q156.67062 239.09767 156.49875 239.28517Q156.32687 239.45705 155.98312 239.45705Q155.655 239.45705 155.48312 239.28517Q155.32687 239.09767 155.32687 238.83205Z" fill-rule="nonzero"/><path fill="#757575" d="M122.53 259.5664L121.45187 259.5664L121.45187 250.5664L122.53 250.5664L122.53 259.5664ZM124.06125 256.33203Q124.06125 255.41016 124.42062 254.66016Q124.79562 253.91016 125.45187 253.51953Q126.10812 253.11328 126.93625 253.11328Q128.23312 253.11328 129.03 254.0039Q129.8425 254.89453 129.8425 256.39453L129.8425 256.47266Q129.8425 257.39453 129.48312 258.1289Q129.12375 258.86328 128.4675 259.28516Q127.81125 259.6914 126.95187 259.6914Q125.67062 259.6914 124.85812 258.80078Q124.06125 257.89453 124.06125 256.41016L124.06125 256.33203ZM125.155 256.47266Q125.155 257.51953 125.63937 258.16016Q126.13937 258.80078 126.95187 258.80078Q127.78 258.80078 128.26437 258.16016Q128.74875 257.5039 128.74875 256.33203Q128.74875 255.30078 128.24875 254.66016Q127.76437 254.0039 126.93625 254.0039Q126.13937 254.0039 125.63937 254.64453Q125.155 255.26953 125.155 256.47266ZM135.04562 257.8789Q135.04562 257.4414 134.70187 257.20703Q134.37375 256.95703 133.54562 256.78516Q132.73312 256.61328 132.24875 256.36328Q131.76437 256.11328 131.53 255.78516Q131.31125 255.4414 131.31125 254.97266Q131.31125 254.1914 131.9675 253.66016Q132.62375 253.11328 133.655 253.11328Q134.73312 253.11328 135.38937 253.67578Q136.06125 254.22266 136.06125 255.08203L134.98312 255.08203Q134.98312 254.64453 134.5925 254.33203Q134.2175 254.0039 133.655 254.0039Q133.06125 254.0039 132.7175 254.26953Q132.38937 254.51953 132.38937 254.92578Q132.38937 255.3164 132.70187 255.51953Q133.01437 255.72266 133.82687 255.91016Q134.63937 256.08203 135.13937 256.33203Q135.63937 256.58203 135.87375 256.9414Q136.12375 257.30078 136.12375 257.80078Q136.12375 258.66016 135.43625 259.17578Q134.76437 259.6914 133.68625 259.6914Q132.92062 259.6914 132.32687 259.42578Q131.74875 259.14453 131.42062 258.66016Q131.0925 258.17578 131.0925 257.61328L132.17062 257.61328Q132.20187 258.16016 132.60812 258.48828Q133.01437 258.80078 133.68625 258.80078Q134.29562 258.80078 134.67062 258.55078Q135.04562 258.30078 135.04562 257.8789ZM141.26437 258.9414Q140.63937 259.6914 139.405 259.6914Q138.38937 259.6914 137.85812 259.09766Q137.32687 258.5039 137.32687 257.34766L137.32687 253.22266L138.405 253.22266L138.405 257.3164Q138.405 258.76953 139.57687 258.76953Q140.82687 258.76953 141.23312 257.83203L141.23312 253.22266L142.32687 253.22266L142.32687 259.5664L141.29562 259.5664L141.26437 258.9414ZM145.37375 253.22266L145.405 254.01953Q146.13937 253.11328 147.31125 253.11328Q149.32687 253.11328 149.3425 255.3789L149.3425 259.5664L148.24875 259.5664L148.24875 255.36328Q148.24875 254.6914 147.93625 254.36328Q147.63937 254.03516 146.98312 254.03516Q146.45187 254.03516 146.04562 254.3164Q145.655 254.59766 145.43625 255.05078L145.43625 259.5664L144.35812 259.5664L144.35812 253.22266L145.37375 253.22266ZM151.0925 256.34766Q151.0925 254.86328 151.78 253.98828Q152.4675 253.11328 153.5925 253.11328Q154.74875 253.11328 155.405 253.92578L155.45187 253.22266L156.45187 253.22266L156.45187 259.41016Q156.45187 260.64453 155.7175 261.34766Q154.98312 262.0664 153.76437 262.0664Q153.07687 262.0664 152.42062 261.76953Q151.76437 261.47266 151.42062 260.97266L151.98312 260.3164Q152.67062 261.17578 153.68625 261.17578Q154.4675 261.17578 154.905 260.72266Q155.35812 260.28516 155.35812 259.47266L155.35812 258.92578Q154.70187 259.6914 153.57687 259.6914Q152.4675 259.6914 151.78 258.80078Q151.0925 257.89453 151.0925 256.34766ZM152.18625 256.47266Q152.18625 257.53516 152.62375 258.16016Q153.06125 258.76953 153.85812 258.76953Q154.87375 258.76953 155.35812 257.83203L155.35812 254.9414Q154.85812 254.03516 153.85812 254.03516Q153.07687 254.03516 152.62375 254.64453Q152.18625 255.2539 152.18625 256.47266Z" fill-rule="nonzero"/><path fill="#757575" d="M166.0925 312.8094Q166.0925 314.71564 165.43625 315.65314Q164.79562 316.575 163.405 316.575Q162.04562 316.575 161.38937 315.66876Q160.73312 314.7625 160.70187 312.95L160.70187 311.5125Q160.70187 309.6219 161.3425 308.71564Q161.99875 307.79376 163.38937 307.79376Q164.76437 307.79376 165.42062 308.6844Q166.07687 309.5594 166.0925 311.40314L166.0925 312.8094ZM164.99875 311.325Q164.99875 309.95 164.60812 309.325Q164.23312 308.6844 163.38937 308.6844Q162.56125 308.6844 162.17062 309.325Q161.79562 309.95 161.79562 311.2469L161.79562 312.98126Q161.79562 314.35626 162.18625 315.02814Q162.5925 315.6844 163.405 315.6844Q164.20187 315.6844 164.5925 315.0594Q164.98312 314.4344 164.99875 313.10626L164.99875 311.325Z" fill-rule="nonzero"/><path fill="#757575" d="M249.91087 316.45L244.31712 316.45L244.31712 315.66876L247.27025 312.3875Q247.9265 311.6375 248.1765 311.1844Q248.4265 310.71564 248.4265 310.21564Q248.4265 309.54376 248.02025 309.1219Q247.62962 308.6844 246.94212 308.6844Q246.14525 308.6844 245.69212 309.15314Q245.239 309.60626 245.239 310.4344L244.16087 310.4344Q244.16087 309.2469 244.91087 308.52814Q245.6765 307.79376 246.94212 307.79376Q248.14525 307.79376 248.83275 308.41876Q249.52025 309.04376 249.52025 310.09064Q249.52025 311.34064 247.91087 313.09064L245.62962 315.5594L249.91087 315.5594L249.91087 316.45Z" fill-rule="nonzero"/><path fill="#757575" d="M332.47925 313.59064L333.66675 313.59064L333.66675 314.46564L332.47925 314.46564L332.47925 316.45L331.40112 316.45L331.40112 314.46564L327.5105 314.46564L327.5105 313.825L331.323 307.91876L332.47925 307.91876L332.47925 313.59064ZM328.74487 313.59064L331.40112 313.59064L331.40112 309.40314L331.2605 309.6375L328.74487 313.59064Z" fill-rule="nonzero"/><path fill="#757575" d="M415.75076 307.91876L415.75076 308.825L415.54764 308.825Q414.282 308.85626 413.532 309.59064Q412.782 310.3094 412.657 311.6219Q413.3445 310.85626 414.50076 310.85626Q415.61014 310.85626 416.282 311.6375Q416.9539 312.41876 416.9539 313.66876Q416.9539 314.98126 416.23514 315.77814Q415.5164 316.575 414.29764 316.575Q413.0789 316.575 412.31326 315.6375Q411.56326 314.6844 411.56326 313.2L411.56326 312.79376Q411.56326 310.4344 412.56326 309.1844Q413.56326 307.9344 415.54764 307.91876L415.75076 307.91876ZM414.3289 311.7625Q413.7664 311.7625 413.29764 312.09064Q412.8289 312.41876 412.6414 312.9344L412.6414 313.325Q412.6414 314.3875 413.11014 315.02814Q413.5945 315.66876 414.29764 315.66876Q415.032 315.66876 415.4539 315.1375Q415.87576 314.59064 415.87576 313.71564Q415.87576 312.84064 415.4539 312.3094Q415.032 311.7625 414.3289 311.7625Z" fill-rule="nonzero"/><path fill="#757575" d="M500.25662 310.1375Q500.25662 310.77814 499.91287 311.27814Q499.56912 311.77814 499.00662 312.0594Q499.66287 312.34064 500.0535 312.90314Q500.44412 313.45 500.44412 314.15314Q500.44412 315.2469 499.69412 315.91876Q498.95975 316.575 497.741 316.575Q496.50662 316.575 495.75662 315.91876Q495.02225 315.2469 495.02225 314.15314Q495.02225 313.45 495.39725 312.90314Q495.77225 312.34064 496.44412 312.0594Q495.88162 311.77814 495.5535 311.27814Q495.22537 310.77814 495.22537 310.1375Q495.22537 309.0594 495.91287 308.4344Q496.60037 307.79376 497.741 307.79376Q498.866 307.79376 499.5535 308.4344Q500.25662 309.0594 500.25662 310.1375ZM499.366 314.1219Q499.366 313.40314 498.91287 312.96564Q498.45975 312.5125 497.72537 312.5125Q496.991 312.5125 496.53787 312.96564Q496.10037 313.40314 496.10037 314.1375Q496.10037 314.85626 496.53787 315.27814Q496.97537 315.6844 497.741 315.6844Q498.491 315.6844 498.9285 315.2625Q499.366 314.84064 499.366 314.1219ZM497.741 308.6844Q497.10037 308.6844 496.69412 309.09064Q496.3035 309.48126 496.3035 310.16876Q496.3035 310.8094 496.69412 311.21564Q497.08475 311.6219 497.72537 311.6219Q498.38162 311.6219 498.77225 311.21564Q499.16287 310.8094 499.16287 310.16876Q499.16287 309.5125 498.75662 309.10626Q498.35037 308.6844 497.741 308.6844Z" fill-rule="nonzero"/><path fill="#757575" d="M578.71564 316.45L577.6375 316.45L577.6375 309.23126L575.45 310.02814L575.45 309.04376L578.5594 307.8719L578.71564 307.8719L578.71564 316.45ZM587.5125 312.8094Q587.5125 314.71564 586.85626 315.65314Q586.21564 316.575 584.825 316.575Q583.46564 316.575 582.8094 315.66876Q582.15314 314.7625 582.1219 312.95L582.1219 311.5125Q582.1219 309.6219 582.7625 308.71564Q583.41876 307.79376 584.8094 307.79376Q586.1844 307.79376 586.84064 308.6844Q587.4969 309.5594 587.5125 311.40314L587.5125 312.8094ZM586.41876 311.325Q586.41876 309.95 586.02814 309.325Q585.65314 308.6844 584.8094 308.6844Q583.98126 308.6844 583.59064 309.325Q583.21564 309.95 583.21564 311.2469L583.21564 312.98126Q583.21564 314.35626 583.60626 315.02814Q584.0125 315.6844 584.825 315.6844Q585.6219 315.6844 586.0125 315.0594Q586.40314 314.4344 586.41876 313.10626L586.41876 311.325Z" fill-rule="nonzero"/><path fill="#8cab13" d="M127.0 21.05C127.0 20.497715 127.447716 20.05 128.0 20.05L138.0 20.05C138.55229 20.05 139.0 20.497715 139.0 21.05L139.0 31.05C139.0 31.602285 138.55229 32.05 138.0 32.05L128.0 32.05C127.447716 32.05 127.0 31.602285 127.0 31.05Z" fill-rule="nonzero"/><path fill="#757575" d="M147.98438 30.55L147.98438 22.01875L150.40625 22.01875Q151.51562 22.01875 152.35938 22.51875Q153.21875 23.003124 153.6875 23.909374Q154.15625 24.815624 154.15625 26.003124L154.15625 26.534374Q154.15625 27.753124 153.6875 28.659374Q153.23438 29.565624 152.35938 30.05Q151.5 30.534374 150.35938 30.55L147.98438 30.55ZM149.10938 22.940624L149.10938 29.628124L150.29688 29.628124Q151.59375 29.628124 152.3125 28.83125Q153.04688 28.01875 153.04688 26.51875L153.04688 26.01875Q153.04688 24.565624 152.35938 23.76875Q151.6875 22.95625 150.42188 22.940624L149.10938 22.940624ZM157.0 30.55L155.92188 30.55L155.92188 24.20625L157.0 24.20625L157.0 30.55ZM155.82812 22.534374Q155.82812 22.26875 155.98438 22.08125Q156.15625 21.89375 156.46875 21.89375Q156.78125 21.89375 156.9375 22.08125Q157.10938 22.26875 157.10938 22.534374Q157.10938 22.784374 156.9375 22.971874Q156.78125 23.14375 156.46875 23.14375Q156.15625 23.14375 155.98438 22.971874Q155.82812 22.784374 155.82812 22.534374ZM161.35938 29.784374Q161.9375 29.784374 162.375 29.440624Q162.8125 29.08125 162.85938 28.55L163.89062 28.55Q163.85938 29.096874 163.5 29.596874Q163.15625 30.08125 162.57812 30.378124Q162.01562 30.675 161.35938 30.675Q160.0625 30.675 159.29688 29.815624Q158.54688 28.940624 158.54688 27.440624L158.54688 27.253124Q158.54688 26.33125 158.875 25.6125Q159.21875 24.89375 159.84375 24.503124Q160.48438 24.096874 161.35938 24.096874Q162.42188 24.096874 163.125 24.7375Q163.84375 25.3625 163.89062 26.39375L162.85938 26.39375Q162.8125 25.76875 162.39062 25.378124Q161.96875 24.9875 161.35938 24.9875Q160.53125 24.9875 160.07812 25.58125Q159.625 26.175 159.625 27.3L159.625 27.503124Q159.625 28.596874 160.07812 29.190624Q160.53125 29.784374 161.35938 29.784374ZM166.29688 22.675L166.29688 24.20625L167.46875 24.20625L167.46875 25.05L166.29688 25.05L166.29688 28.971874Q166.29688 29.3625 166.45312 29.55Q166.60938 29.7375 166.98438 29.7375Q167.17188 29.7375 167.5 29.675L167.5 30.55Q167.07812 30.675 166.67188 30.675Q165.95312 30.675 165.57812 30.2375Q165.20312 29.784374 165.20312 28.971874L165.20312 25.05L164.04688 25.05L164.04688 24.20625L165.20312 24.20625L165.20312 22.675L166.29688 22.675ZM170.0 30.55L168.92188 30.55L168.92188 24.20625L170.0 24.20625L170.0 30.55ZM168.82812 22.534374Q168.82812 22.26875 168.98438 22.08125Q169.15625 21.89375 169.46875 21.89375Q169.78125 21.89375 169.9375 22.08125Q170.10938 22.26875 170.10938 22.534374Q170.10938 22.784374 169.9375 22.971874Q169.78125 23.14375 169.46875 23.14375Q169.15625 23.14375 168.98438 22.971874Q168.82812 22.784374 168.82812 22.534374ZM171.53125 27.315624Q171.53125 26.39375 171.89062 25.64375Q172.26562 24.89375 172.92188 24.503124Q173.57812 24.096874 174.40625 24.096874Q175.70312 24.096874 176.5 24.9875Q177.3125 25.878124 177.3125 27.378124L177.3125 27.45625Q177.3125 28.378124 176.95312 29.1125Q176.59375 29.846874 175.9375 30.26875Q175.28125 30.675 174.42188 30.675Q173.14062 30.675 172.32812 29.784374Q171.53125 28.878124 171.53125 27.39375L171.53125 27.315624ZM172.625 27.45625Q172.625 28.503124 173.10938 29.14375Q173.60938 29.784374 174.42188 29.784374Q175.25 29.784374 175.73438 29.14375Q176.21875 28.4875 176.21875 27.315624Q176.21875 26.284374 175.71875 25.64375Q175.23438 24.9875 174.40625 24.9875Q173.60938 24.9875 173.10938 25.628124Q172.625 26.253124 172.625 27.45625ZM179.84375 24.20625L179.875 25.003124Q180.60938 24.096874 181.78125 24.096874Q183.79688 24.096874 183.8125 26.3625L183.8125 30.55L182.71875 30.55L182.71875 26.346874Q182.71875 25.675 182.40625 25.346874Q182.10938 25.01875 181.45312 25.01875Q180.92188 25.01875 180.51562 25.3Q180.125 25.58125 179.90625 26.034374L179.90625 30.55L178.82812 30.55L178.82812 24.20625L179.84375 24.20625ZM189.73438 30.55Q189.64062 30.3625 189.57812 29.878124Q188.82812 30.675 187.78125 30.675Q186.84375 30.675 186.23438 30.14375Q185.64062 29.6125 185.64062 28.784374Q185.64062 27.8 186.39062 27.253124Q187.14062 26.70625 188.51562 26.70625L189.5625 26.70625L189.5625 26.20625Q189.5625 25.64375 189.21875 25.315624Q188.89062 24.971874 188.21875 24.971874Q187.64062 24.971874 187.25 25.26875Q186.85938 25.55 186.85938 25.971874L185.76562 25.971874Q185.76562 25.4875 186.09375 25.05Q186.4375 24.6125 187.01562 24.3625Q187.59375 24.096874 188.28125 24.096874Q189.39062 24.096874 190.0 24.64375Q190.625 25.190624 190.65625 26.14375L190.65625 29.065624Q190.65625 29.940624 190.875 30.45625L190.875 30.55L189.73438 30.55ZM187.9375 29.721874Q188.45312 29.721874 188.90625 29.45625Q189.35938 29.190624 189.5625 28.76875L189.5625 27.471874L188.71875 27.471874Q186.71875 27.471874 186.71875 28.64375Q186.71875 29.14375 187.0625 29.440624Q187.40625 29.721874 187.9375 29.721874ZM195.89062 25.175Q195.64062 25.14375 195.35938 25.14375Q194.28125 25.14375 193.90625 26.05L193.90625 30.55L192.82812 30.55L192.82812 24.20625L193.875 24.20625L193.89062 24.940624Q194.42188 24.096874 195.40625 24.096874Q195.71875 24.096874 195.89062 24.175L195.89062 25.175ZM198.89062 28.95625L200.375 24.20625L201.53125 24.20625L198.98438 31.534374Q198.39062 33.1125 197.10938 33.1125L196.89062 33.096874L196.5 33.01875L196.5 32.14375L196.78125 32.159374Q197.34375 32.159374 197.64062 31.940624Q197.95312 31.721874 198.15625 31.128124L198.39062 30.471874L196.125 24.20625L197.3125 24.20625L198.89062 28.95625ZM205.98438 30.55L205.98438 22.01875L208.40625 22.01875Q209.51562 22.01875 210.35938 22.51875Q211.21875 23.003124 211.6875 23.909374Q212.15625 24.815624 212.15625 26.003124L212.15625 26.534374Q212.15625 27.753124 211.6875 28.659374Q211.23438 29.565624 210.35938 30.05Q209.5 30.534374 208.35938 30.55L205.98438 30.55ZM207.10938 22.940624L207.10938 29.628124L208.29688 29.628124Q209.59375 29.628124 210.3125 28.83125Q211.04688 28.01875 211.04688 26.51875L211.04688 26.01875Q211.04688 24.565624 210.35938 23.76875Q209.6875 22.95625 208.42188 22.940624L207.10938 22.940624ZM216.45312 30.675Q215.15625 30.675 214.34375 29.83125Q213.54688 28.971874 213.54688 27.55L213.54688 27.3625Q213.54688 26.409374 213.90625 25.675Q214.26562 24.925 214.90625 24.51875Q215.5625 24.096874 216.3125 24.096874Q217.54688 24.096874 218.23438 24.909374Q218.92188 25.721874 218.92188 27.2375L218.92188 27.690624L214.625 27.690624Q214.65625 28.628124 215.17188 29.20625Q215.70312 29.784374 216.51562 29.784374Q217.07812 29.784374 217.46875 29.55Q217.875 29.315624 218.1875 28.925L218.84375 29.440624Q218.04688 30.675 216.45312 30.675ZM216.3125 24.9875Q215.65625 24.9875 215.20312 25.471874Q214.76562 25.940624 214.67188 26.8L217.84375 26.8L217.84375 26.721874Q217.79688 25.89375 217.39062 25.440624Q217.0 24.9875 216.3125 24.9875ZM222.35938 29.784374Q222.9375 29.784374 223.375 29.440624Q223.8125 29.08125 223.85938 28.55L224.89062 28.55Q224.85938 29.096874 224.5 29.596874Q224.15625 30.08125 223.57812 30.378124Q223.01562 30.675 222.35938 30.675Q221.0625 30.675 220.29688 29.815624Q219.54688 28.940624 219.54688 27.440624L219.54688 27.253124Q219.54688 26.33125 219.875 25.6125Q220.21875 24.89375 220.84375 24.503124Q221.48438 24.096874 222.35938 24.096874Q223.42188 24.096874 224.125 24.7375Q224.84375 25.3625 224.89062 26.39375L223.85938 26.39375Q223.8125 25.76875 223.39062 25.378124Q222.96875 24.9875 222.35938 24.9875Q221.53125 24.9875 221.07812 25.58125Q220.625 26.175 220.625 27.3L220.625 27.503124Q220.625 28.596874 221.07812 29.190624Q221.53125 29.784374 222.35938 29.784374ZM226.84375 24.20625L226.875 24.909374Q227.5625 24.096874 228.75 24.096874Q230.07812 24.096874 230.5625 25.1125Q230.875 24.659374 231.375 24.378124Q231.89062 24.096874 232.57812 24.096874Q234.67188 24.096874 234.70312 26.3L234.70312 30.55L233.625 30.55L233.625 26.3625Q233.625 25.690624 233.3125 25.3625Q233.0 25.01875 232.26562 25.01875Q231.65625 25.01875 231.25 25.378124Q230.85938 25.7375 230.79688 26.346874L230.79688 30.55L229.71875 30.55L229.71875 26.39375Q229.71875 25.01875 228.35938 25.01875Q227.29688 25.01875 226.90625 25.925L226.90625 30.55L225.8125 30.55L225.8125 24.20625L226.84375 24.20625ZM242.17188 27.45625Q242.17188 28.89375 241.51562 29.784374Q240.85938 30.675 239.71875 30.675Q238.5625 30.675 237.90625 29.940624L237.90625 32.9875L236.82812 32.9875L236.82812 24.20625L237.8125 24.20625L237.85938 24.909374Q238.53125 24.096874 239.70312 24.096874Q240.84375 24.096874 241.5 24.95625Q242.17188 25.815624 242.17188 27.346874L242.17188 27.45625ZM241.09375 27.33125Q241.09375 26.253124 240.625 25.64375Q240.17188 25.01875 239.375 25.01875Q238.39062 25.01875 237.90625 25.878124L237.90625 28.909374Q238.39062 29.784374 239.39062 29.784374Q240.17188 29.784374 240.625 29.175Q241.09375 28.55 241.09375 27.33125ZM243.53125 27.315624Q243.53125 26.39375 243.89062 25.64375Q244.26562 24.89375 244.92188 24.503124Q245.57812 24.096874 246.40625 24.096874Q247.70312 24.096874 248.5 24.9875Q249.3125 25.878124 249.3125 27.378124L249.3125 27.45625Q249.3125 28.378124 248.95312 29.1125Q248.59375 29.846874 247.9375 30.26875Q247.28125 30.675 246.42188 30.675Q245.14062 30.675 244.32812 29.784374Q243.53125 28.878124 243.53125 27.39375L243.53125 27.315624ZM244.625 27.45625Q244.625 28.503124 245.10938 29.14375Q245.60938 29.784374 246.42188 29.784374Q247.25 29.784374 247.73438 29.14375Q248.21875 28.4875 248.21875 27.315624Q248.21875 26.284374 247.71875 25.64375Q247.23438 24.9875 246.40625 24.9875Q245.60938 24.9875 245.10938 25.628124Q244.625 26.253124 244.625 27.45625ZM254.73438 29.925Q254.10938 30.675 252.875 30.675Q251.85938 30.675 251.32812 30.08125Q250.79688 29.4875 250.79688 28.33125L250.79688 24.20625L251.875 24.20625L251.875 28.3Q251.875 29.753124 253.04688 29.753124Q254.29688 29.753124 254.70312 28.815624L254.70312 24.20625L255.79688 24.20625L255.79688 30.55L254.76562 30.55L254.73438 29.925ZM258.84375 24.20625L258.875 25.003124Q259.60938 24.096874 260.78125 24.096874Q262.79688 24.096874 262.8125 26.3625L262.8125 30.55L261.71875 30.55L261.71875 26.346874Q261.71875 25.675 261.40625 25.346874Q261.10938 25.01875 260.45312 25.01875Q259.92188 25.01875 259.51562 25.3Q259.125 25.58125 258.90625 26.034374L258.90625 30.55L257.82812 30.55L257.82812 24.20625L258.84375 24.20625ZM264.5625 27.33125Q264.5625 25.8625 265.25 24.9875Q265.9375 24.096874 267.0625 24.096874Q268.17188 24.096874 268.82812 24.846874L268.82812 21.55L269.90625 21.55L269.90625 30.55L268.90625 30.55L268.85938 29.8625Q268.20312 30.675 267.04688 30.675Q265.95312 30.675 265.25 29.76875Q264.5625 28.8625 264.5625 27.409374L264.5625 27.33125ZM265.64062 27.45625Q265.64062 28.534374 266.07812 29.14375Q266.53125 29.753124 267.3125 29.753124Q268.34375 29.753124 268.82812 28.815624L268.82812 25.909374Q268.34375 25.01875 267.32812 25.01875Q266.53125 25.01875 266.07812 25.628124Q265.64062 26.2375 265.64062 27.45625ZM274.45312 30.675Q273.15625 30.675 272.34375 29.83125Q271.54688 28.971874 271.54688 27.55L271.54688 27.3625Q271.54688 26.409374 271.90625 25.675Q272.26562 24.925 272.90625 24.51875Q273.5625 24.096874 274.3125 24.096874Q275.54688 24.096874 276.23438 24.909374Q276.92188 25.721874 276.92188 27.2375L276.92188 27.690624L272.625 27.690624Q272.65625 28.628124 273.17188 29.20625Q273.70312 29.784374 274.51562 29.784374Q275.07812 29.784374 275.46875 29.55Q275.875 29.315624 276.1875 28.925L276.84375 29.440624Q276.04688 30.675 274.45312 30.675ZM274.3125 24.9875Q273.65625 24.9875 273.20312 25.471874Q272.76562 25.940624 272.67188 26.8L275.84375 26.8L275.84375 26.721874Q275.79688 25.89375 275.39062 25.440624Q275.0 24.9875 274.3125 24.9875ZM280.89062 25.175Q280.64062 25.14375 280.35938 25.14375Q279.28125 25.14375 278.90625 26.05L278.90625 30.55L277.82812 30.55L277.82812 24.20625L278.875 24.20625L278.89062 24.940624Q279.42188 24.096874 280.40625 24.096874Q280.71875 24.096874 280.89062 24.175L280.89062 25.175Z" fill-rule="nonzero"/><path fill="#22ab82" d="M297.0 21.05C297.0 20.497715 297.44772 20.05 298.0 20.05L308.0 20.05C308.55228 20.05 309.0 20.497715 309.0 21.05L309.0 31.05C309.0 31.602285 308.55228 32.05 308.0 32.05L298.0 32.05C297.44772 32.05 297.0 31.602285 297.0 31.05Z" fill-rule="nonzero"/><path fill="#757575" d="M324.54688 30.55L323.42188 30.55L323.42188 26.6125L319.10938 26.6125L319.10938 30.55L317.98438 30.55L317.98438 22.01875L319.10938 22.01875L319.10938 25.690624L323.42188 25.690624L323.42188 22.01875L324.54688 22.01875L324.54688 30.55ZM328.89062 28.95625L330.375 24.20625L331.53125 24.20625L328.98438 31.534374Q328.39062 33.1125 327.10938 33.1125L326.89062 33.096874L326.5 33.01875L326.5 32.14375L326.78125 32.159374Q327.34375 32.159374 327.64062 31.940624Q327.95312 31.721874 328.15625 31.128124L328.39062 30.471874L326.125 24.20625L327.3125 24.20625L328.89062 28.95625ZM338.17188 27.45625Q338.17188 28.89375 337.51562 29.784374Q336.85938 30.675 335.71875 30.675Q334.5625 30.675 333.90625 29.940624L333.90625 32.9875L332.82812 32.9875L332.82812 24.20625L333.8125 24.20625L333.85938 24.909374Q334.53125 24.096874 335.70312 24.096874Q336.84375 24.096874 337.5 24.95625Q338.17188 25.815624 338.17188 27.346874L338.17188 27.45625ZM337.09375 27.33125Q337.09375 26.253124 336.625 25.64375Q336.17188 25.01875 335.375 25.01875Q334.39062 25.01875 333.90625 25.878124L333.90625 28.909374Q334.39062 29.784374 335.39062 29.784374Q336.17188 29.784374 336.625 29.175Q337.09375 28.55 337.09375 27.33125ZM340.90625 24.971874Q341.625 24.096874 342.78125 24.096874Q344.79688 24.096874 344.8125 26.3625L344.8125 30.55L343.71875 30.55L343.71875 26.346874Q343.71875 25.675 343.40625 25.346874Q343.10938 25.01875 342.45312 25.01875Q341.92188 25.01875 341.51562 25.3Q341.125 25.58125 340.90625 26.034374L340.90625 30.55L339.82812 30.55L339.82812 21.55L340.90625 21.55L340.90625 24.971874ZM349.45312 30.675Q348.15625 30.675 347.34375 29.83125Q346.54688 28.971874 346.54688 27.55L346.54688 27.3625Q346.54688 26.409374 346.90625 25.675Q347.26562 24.925 347.90625 24.51875Q348.5625 24.096874 349.3125 24.096874Q350.54688 24.096874 351.23438 24.909374Q351.92188 25.721874 351.92188 27.2375L351.92188 27.690624L347.625 27.690624Q347.65625 28.628124 348.17188 29.20625Q348.70312 29.784374 349.51562 29.784374Q350.07812 29.784374 350.46875 29.55Q350.875 29.315624 351.1875 28.925L351.84375 29.440624Q351.04688 30.675 349.45312 30.675ZM349.3125 24.9875Q348.65625 24.9875 348.20312 25.471874Q347.76562 25.940624 347.67188 26.8L350.84375 26.8L350.84375 26.721874Q350.79688 25.89375 350.39062 25.440624Q350.0 24.9875 349.3125 24.9875ZM353.84375 24.20625L353.875 25.003124Q354.60938 24.096874 355.78125 24.096874Q357.79688 24.096874 357.8125 26.3625L357.8125 30.55L356.71875 30.55L356.71875 26.346874Q356.71875 25.675 356.40625 25.346874Q356.10938 25.01875 355.45312 25.01875Q354.92188 25.01875 354.51562 25.3Q354.125 25.58125 353.90625 26.034374L353.90625 30.55L352.82812 30.55L352.82812 24.20625L353.84375 24.20625ZM363.73438 30.55Q363.64062 30.3625 363.57812 29.878124Q362.82812 30.675 361.78125 30.675Q360.84375 30.675 360.23438 30.14375Q359.64062 29.6125 359.64062 28.784374Q359.64062 27.8 360.39062 27.253124Q361.14062 26.70625 362.51562 26.70625L363.5625 26.70625L363.5625 26.20625Q363.5625 25.64375 363.21875 25.315624Q362.89062 24.971874 362.21875 24.971874Q361.64062 24.971874 361.25 25.26875Q360.85938 25.55 360.85938 25.971874L359.76562 25.971874Q359.76562 25.4875 360.09375 25.05Q360.4375 24.6125 361.01562 24.3625Q361.59375 24.096874 362.28125 24.096874Q363.39062 24.096874 364.0 24.64375Q364.625 25.190624 364.65625 26.14375L364.65625 29.065624Q364.65625 29.940624 364.875 30.45625L364.875 30.55L363.73438 30.55ZM361.9375 29.721874Q362.45312 29.721874 362.90625 29.45625Q363.35938 29.190624 363.5625 28.76875L363.5625 27.471874L362.71875 27.471874Q360.71875 27.471874 360.71875 28.64375Q360.71875 29.14375 361.0625 29.440624Q361.40625 29.721874 361.9375 29.721874ZM368.29688 22.675L368.29688 24.20625L369.46875 24.20625L369.46875 25.05L368.29688 25.05L368.29688 28.971874Q368.29688 29.3625 368.45312 29.55Q368.60938 29.7375 368.98438 29.7375Q369.17188 29.7375 369.5 29.675L369.5 30.55Q369.07812 30.675 368.67188 30.675Q367.95312 30.675 367.57812 30.2375Q367.20312 29.784374 367.20312 28.971874L367.20312 25.05L366.04688 25.05L366.04688 24.20625L367.20312 24.20625L367.20312 22.675L368.29688 22.675ZM372.0 30.55L370.92188 30.55L370.92188 24.20625L372.0 24.20625L372.0 30.55ZM370.82812 22.534374Q370.82812 22.26875 370.98438 22.08125Q371.15625 21.89375 371.46875 21.89375Q371.78125 21.89375 371.9375 22.08125Q372.10938 22.26875 372.10938 22.534374Q372.10938 22.784374 371.9375 22.971874Q371.78125 23.14375 371.46875 23.14375Q371.15625 23.14375 370.98438 22.971874Q370.82812 22.784374 370.82812 22.534374ZM373.53125 27.315624Q373.53125 26.39375 373.89062 25.64375Q374.26562 24.89375 374.92188 24.503124Q375.57812 24.096874 376.40625 24.096874Q377.70312 24.096874 378.5 24.9875Q379.3125 25.878124 379.3125 27.378124L379.3125 27.45625Q379.3125 28.378124 378.95312 29.1125Q378.59375 29.846874 377.9375 30.26875Q377.28125 30.675 376.42188 30.675Q375.14062 30.675 374.32812 29.784374Q373.53125 28.878124 373.53125 27.39375L373.53125 27.315624ZM374.625 27.45625Q374.625 28.503124 375.10938 29.14375Q375.60938 29.784374 376.42188 29.784374Q377.25 29.784374 377.73438 29.14375Q378.21875 28.4875 378.21875 27.315624Q378.21875 26.284374 377.71875 25.64375Q377.23438 24.9875 376.40625 24.9875Q375.60938 24.9875 375.10938 25.628124Q374.625 26.253124 374.625 27.45625ZM381.84375 24.20625L381.875 25.003124Q382.60938 24.096874 383.78125 24.096874Q385.79688 24.096874 385.8125 26.3625L385.8125 30.55L384.71875 30.55L384.71875 26.346874Q384.71875 25.675 384.40625 25.346874Q384.10938 25.01875 383.45312 25.01875Q382.92188 25.01875 382.51562 25.3Q382.125 25.58125 381.90625 26.034374L381.90625 30.55L380.82812 30.55L380.82812 24.20625L381.84375 24.20625ZM390.98438 30.55L390.98438 22.01875L393.40625 22.01875Q394.51562 22.01875 395.35938 22.51875Q396.21875 23.003124 396.6875 23.909374Q397.15625 24.815624 397.15625 26.003124L397.15625 26.534374Q397.15625 27.753124 396.6875 28.659374Q396.23438 29.565624 395.35938 30.05Q394.5 30.534374 393.35938 30.55L390.98438 30.55ZM392.10938 22.940624L392.10938 29.628124L393.29688 29.628124Q394.59375 29.628124 395.3125 28.83125Q396.04688 28.01875 396.04688 26.51875L396.04688 26.01875Q396.04688 24.565624 395.35938 23.76875Q394.6875 22.95625 393.42188 22.940624L392.10938 22.940624ZM401.45312 30.675Q400.15625 30.675 399.34375 29.83125Q398.54688 28.971874 398.54688 27.55L398.54688 27.3625Q398.54688 26.409374 398.90625 25.675Q399.26562 24.925 399.90625 24.51875Q400.5625 24.096874 401.3125 24.096874Q402.54688 24.096874 403.23438 24.909374Q403.92188 25.721874 403.92188 27.2375L403.92188 27.690624L399.625 27.690624Q399.65625 28.628124 400.17188 29.20625Q400.70312 29.784374 401.51562 29.784374Q402.07812 29.784374 402.46875 29.55Q402.875 29.315624 403.1875 28.925L403.84375 29.440624Q403.04688 30.675 401.45312 30.675ZM401.3125 24.9875Q400.65625 24.9875 400.20312 25.471874Q399.76562 25.940624 399.67188 26.8L402.84375 26.8L402.84375 26.721874Q402.79688 25.89375 402.39062 25.440624Q402.0 24.9875 401.3125 24.9875ZM407.35938 29.784374Q407.9375 29.784374 408.375 29.440624Q408.8125 29.08125 408.85938 28.55L409.89062 28.55Q409.85938 29.096874 409.5 29.596874Q409.15625 30.08125 408.57812 30.378124Q408.01562 30.675 407.35938 30.675Q406.0625 30.675 405.29688 29.815624Q404.54688 28.940624 404.54688 27.440624L404.54688 27.253124Q404.54688 26.33125 404.875 25.6125Q405.21875 24.89375 405.84375 24.503124Q406.48438 24.096874 407.35938 24.096874Q408.42188 24.096874 409.125 24.7375Q409.84375 25.3625 409.89062 26.39375L408.85938 26.39375Q408.8125 25.76875 408.39062 25.378124Q407.96875 24.9875 407.35938 24.9875Q406.53125 24.9875 406.07812 25.58125Q405.625 26.175 405.625 27.3L405.625 27.503124Q405.625 28.596874 406.07812 29.190624Q406.53125 29.784374 407.35938 29.784374ZM410.53125 27.315624Q410.53125 26.39375 410.89062 25.64375Q411.26562 24.89375 411.92188 24.503124Q412.57812 24.096874 413.40625 24.096874Q414.70312 24.096874 415.5 24.9875Q416.3125 25.878124 416.3125 27.378124L416.3125 27.45625Q416.3125 28.378124 415.95312 29.1125Q415.59375 29.846874 414.9375 30.26875Q414.28125 30.675 413.42188 30.675Q412.14062 30.675 411.32812 29.784374Q410.53125 28.878124 410.53125 27.39375L410.53125 27.315624ZM411.625 27.45625Q411.625 28.503124 412.10938 29.14375Q412.60938 29.784374 413.42188 29.784374Q414.25 29.784374 414.73438 29.14375Q415.21875 28.4875 415.21875 27.315624Q415.21875 26.284374 414.71875 25.64375Q414.23438 24.9875 413.40625 24.9875Q412.60938 24.9875 412.10938 25.628124Q411.625 26.253124 411.625 27.45625ZM418.84375 24.20625L418.875 24.909374Q419.5625 24.096874 420.75 24.096874Q422.07812 24.096874 422.5625 25.1125Q422.875 24.659374 423.375 24.378124Q423.89062 24.096874 424.57812 24.096874Q426.67188 24.096874 426.70312 26.3L426.70312 30.55L425.625 30.55L425.625 26.3625Q425.625 25.690624 425.3125 25.3625Q425.0 25.01875 424.26562 25.01875Q423.65625 25.01875 423.25 25.378124Q422.85938 25.7375 422.79688 26.346874L422.79688 30.55L421.71875 30.55L421.71875 26.39375Q421.71875 25.01875 420.35938 25.01875Q419.29688 25.01875 418.90625 25.925L418.90625 30.55L417.8125 30.55L417.8125 24.20625L418.84375 24.20625ZM434.17188 27.45625Q434.17188 28.89375 433.51562 29.784374Q432.85938 30.675 431.71875 30.675Q430.5625 30.675 429.90625 29.940624L429.90625 32.9875L428.82812 32.9875L428.82812 24.20625L429.8125 24.20625L429.85938 24.909374Q430.53125 24.096874 431.70312 24.096874Q432.84375 24.096874 433.5 24.95625Q434.17188 25.815624 434.17188 27.346874L434.17188 27.45625ZM433.09375 27.33125Q433.09375 26.253124 432.625 25.64375Q432.17188 25.01875 431.375 25.01875Q430.39062 25.01875 429.90625 25.878124L429.90625 28.909374Q430.39062 29.784374 431.39062 29.784374Q432.17188 29.784374 432.625 29.175Q433.09375 28.55 433.09375 27.33125ZM435.53125 27.315624Q435.53125 26.39375 435.89062 25.64375Q436.26562 24.89375 436.92188 24.503124Q437.57812 24.096874 438.40625 24.096874Q439.70312 24.096874 440.5 24.9875Q441.3125 25.878124 441.3125 27.378124L441.3125 27.45625Q441.3125 28.378124 440.95312 29.1125Q440.59375 29.846874 439.9375 30.26875Q439.28125 30.675 438.42188 30.675Q437.14062 30.675 436.32812 29.784374Q435.53125 28.878124 435.53125 27.39375L435.53125 27.315624ZM436.625 27.45625Q436.625 28.503124 437.10938 29.14375Q437.60938 29.784374 438.42188 29.784374Q439.25 29.784374 439.73438 29.14375Q440.21875 28.4875 440.21875 27.315624Q440.21875 26.284374 439.71875 25.64375Q439.23438 24.9875 438.40625 24.9875Q437.60938 24.9875 437.10938 25.628124Q436.625 26.253124 436.625 27.45625ZM446.73438 29.925Q446.10938 30.675 444.875 30.675Q443.85938 30.675 443.32812 30.08125Q442.79688 29.4875 442.79688 28.33125L442.79688 24.20625L443.875 24.20625L443.875 28.3Q443.875 29.753124 445.04688 29.753124Q446.29688 29.753124 446.70312 28.815624L446.70312 24.20625L447.79688 24.20625L447.79688 30.55L446.76562 30.55L446.73438 29.925ZM450.84375 24.20625L450.875 25.003124Q451.60938 24.096874 452.78125 24.096874Q454.79688 24.096874 454.8125 26.3625L454.8125 30.55L453.71875 30.55L453.71875 26.346874Q453.71875 25.675 453.40625 25.346874Q453.10938 25.01875 452.45312 25.01875Q451.92188 25.01875 451.51562 25.3Q451.125 25.58125 450.90625 26.034374L450.90625 30.55L449.82812 30.55L449.82812 24.20625L450.84375 24.20625ZM456.5625 27.33125Q456.5625 25.8625 457.25 24.9875Q457.9375 24.096874 459.0625 24.096874Q460.17188 24.096874 460.82812 24.846874L460.82812 21.55L461.90625 21.55L461.90625 30.55L460.90625 30.55L460.85938 29.8625Q460.20312 30.675 459.04688 30.675Q457.95312 30.675 457.25 29.76875Q456.5625 28.8625 456.5625 27.409374L456.5625 27.33125ZM457.64062 27.45625Q457.64062 28.534374 458.07812 29.14375Q458.53125 29.753124 459.3125 29.753124Q460.34375 29.753124 460.82812 28.815624L460.82812 25.909374Q460.34375 25.01875 459.32812 25.01875Q458.53125 25.01875 458.07812 25.628124Q457.64062 26.2375 457.64062 27.45625ZM466.45312 30.675Q465.15625 30.675 464.34375 29.83125Q463.54688 28.971874 463.54688 27.55L463.54688 27.3625Q463.54688 26.409374 463.90625 25.675Q464.26562 24.925 464.90625 24.51875Q465.5625 24.096874 466.3125 24.096874Q467.54688 24.096874 468.23438 24.909374Q468.92188 25.721874 468.92188 27.2375L468.92188 27.690624L464.625 27.690624Q464.65625 28.628124 465.17188 29.20625Q465.70312 29.784374 466.51562 29.784374Q467.07812 29.784374 467.46875 29.55Q467.875 29.315624 468.1875 28.925L468.84375 29.440624Q468.04688 30.675 466.45312 30.675ZM466.3125 24.9875Q465.65625 24.9875 465.20312 25.471874Q464.76562 25.940624 464.67188 26.8L467.84375 26.8L467.84375 26.721874Q467.79688 25.89375 467.39062 25.440624Q467.0 24.9875 466.3125 24.9875ZM472.89062 25.175Q472.64062 25.14375 472.35938 25.14375Q471.28125 25.14375 470.90625 26.05L470.90625 30.55L469.82812 30.55L469.82812 24.20625L470.875 24.20625L470.89062 24.940624Q471.42188 24.096874 472.40625 24.096874Q472.71875 24.096874 472.89062 24.175L472.89062 25.175Z" fill-rule="nonzero"/></svg>