<svg version="1.1" viewBox="0.0 0.0 600.0 371.0" fill="none" stroke="none" stroke-linecap="square" stroke-miterlimit="10" width="600" height="371" xmlns:xlink="http://www.w3.org/1999/xlink" xmlns="http://www.w3.org/2000/svg"><path fill="#ffffff" d="M0 0L600.0 0L600.0 371.0L0 371.0L0 0Z" fill-rule="nonzero"/><path stroke="#333333" stroke-width="1.0" stroke-linecap="butt" d="M137.5 45.5L137.5 331.5" fill-rule="nonzero"/><path stroke="#cccccc" stroke-width="1.0" stroke-linecap="butt" d="M225.5 45.5L225.5 331.5" fill-rule="nonzero"/><path stroke="#cccccc" stroke-width="1.0" stroke-linecap="butt" d="M314.5 45.5L314.5 331.5" fill-rule="nonzero"/><path stroke="#cccccc" stroke-width="1.0" stroke-linecap="butt" d="M403.5 45.5L403.5 331.5" fill-rule="nonzero"/><path stroke="#cccccc" stroke-width="1.0" stroke-linecap="butt" d="M492.5 45.5L492.5 331.5" fill-rule="nonzero"/><path stroke="#cccccc" stroke-width="1.0" stroke-linecap="butt" d="M581.5 45.5L581.5 331.5" fill-rule="nonzero"/><clipPath id="id_0"><path d="M137.13 45.916668L581.45 45.916668L581.45 331.45L137.13 331.45L137.13 45.916668Z" clip-rule="nonzero"/></clipPath><path stroke="#000000" stroke-width="2.0" stroke-linecap="butt" stroke-opacity="0.0" clip-path="url(#id_0)" d="M137.0 66.0L137.0 58.0L213.0 58.0C214.10457 58.0 215.0 58.89543 215.0 60.0L215.0 64.0C215.0 65.10457 214.10457 66.0 213.0 66.0Z" fill-rule="nonzero"/><path fill="#ffcc00" clip-path="url(#id_0)" d="M137.0 66.0L137.0 58.0L213.0 58.0C214.10457 58.0 215.0 58.89543 215.0 60.0L215.0 64.0C215.0 65.10457 214.10457 66.0 213.0 66.0Z" fill-rule="nonzero"/><path stroke="#000000" stroke-width="2.0" stroke-linecap="butt" stroke-opacity="0.0" clip-path="url(#id_0)" d="M137.0 96.0L137.0 88.0L137.0 88.0L137.0 96.0Z" fill-rule="nonzero"/><path fill="#ffcc00" clip-path="url(#id_0)" d="M137.0 96.0L137.0 88.0L137.0 88.0L137.0 96.0Z" fill-rule="nonzero"/><path stroke="#000000" stroke-width="2.0" stroke-linecap="butt" stroke-opacity="0.0" clip-path="url(#id_0)" d="M137.0 127.0L137.0 119.0L137.0 119.0L137.0 127.0Z" fill-rule="nonzero"/><path fill="#ffcc00" clip-path="url(#id_0)" d="M137.0 127.0L137.0 119.0L137.0 119.0L137.0 127.0Z" fill-rule="nonzero"/><path stroke="#000000" stroke-width="2.0" stroke-linecap="butt" stroke-opacity="0.0" clip-path="url(#id_0)" d="M137.0 157.0L137.0 149.0L213.0 149.0C214.10457 149.0 215.0 149.89543 215.0 151.0L215.0 155.0C215.0 156.10457 214.10457 157.0 213.0 157.0Z" fill-rule="nonzero"/><path fill="#ffcc00" clip-path="url(#id_0)" d="M137.0 157.0L137.0 149.0L213.0 149.0C214.10457 149.0 215.0 149.89543 215.0 151.0L215.0 155.0C215.0 156.10457 214.10457 157.0 213.0 157.0Z" fill-rule="nonzero"/><path stroke="#000000" stroke-width="2.0" stroke-linecap="butt" stroke-opacity="0.0" clip-path="url(#id_0)" d="M137.0 188.0L137.0 180.0L137.0 180.0L137.0 188.0Z" fill-rule="nonzero"/><path fill="#ffcc00" clip-path="url(#id_0)" d="M137.0 188.0L137.0 180.0L137.0 180.0L137.0 188.0Z" fill-rule="nonzero"/><path stroke="#000000" stroke-width="2.0" stroke-linecap="butt" stroke-opacity="0.0" clip-path="url(#id_0)" d="M137.0 218.0L137.0 210.0L137.0 210.0L137.0 218.0Z" fill-rule="nonzero"/><path fill="#ffcc00" clip-path="url(#id_0)" d="M137.0 218.0L137.0 210.0L137.0 210.0L137.0 218.0Z" fill-rule="nonzero"/><path stroke="#000000" stroke-width="2.0" stroke-linecap="butt" stroke-opacity="0.0" clip-path="url(#id_0)" d="M137.0 249.0L137.0 241.0L508.0 241.0C509.10458 241.0 510.0 241.89543 510.0 243.0L510.0 247.0C510.0 248.10457 509.10458 249.0 508.0 249.0Z" fill-rule="nonzero"/><path fill="#ffcc00" clip-path="url(#id_0)" d="M137.0 249.0L137.0 241.0L508.0 241.0C509.10458 241.0 510.0 241.89543 510.0 243.0L510.0 247.0C510.0 248.10457 509.10458 249.0 508.0 249.0Z" fill-rule="nonzero"/><path stroke="#000000" stroke-width="2.0" stroke-linecap="butt" stroke-opacity="0.0" clip-path="url(#id_0)" d="M137.0 279.0L137.0 271.0L429.0 271.0C430.10458 271.0 431.0 271.89542 431.0 273.0L431.0 277.0C431.0 278.10458 430.10458 279.0 429.0 279.0Z" fill-rule="nonzero"/><path fill="#ffcc00" clip-path="url(#id_0)" d="M137.0 279.0L137.0 271.0L429.0 271.0C430.10458 271.0 431.0 271.89542 431.0 273.0L431.0 277.0C431.0 278.10458 430.10458 279.0 429.0 279.0Z" fill-rule="nonzero"/><path stroke="#000000" stroke-width="2.0" stroke-linecap="butt" stroke-opacity="0.0" clip-path="url(#id_0)" d="M137.0 310.0L137.0 302.0L137.0 302.0L137.0 310.0Z" fill-rule="nonzero"/><path fill="#ffcc00" clip-path="url(#id_0)" d="M137.0 310.0L137.0 302.0L137.0 302.0L137.0 310.0Z" fill-rule="nonzero"/><path stroke="#000000" stroke-width="2.0" stroke-linecap="butt" stroke-opacity="0.0" clip-path="url(#id_0)" d="M137.0 76.0L137.0 68.0L168.0 68.0C169.10457 68.0 170.0 68.89543 170.0 70.0L170.0 74.0C170.0 75.10457 169.10457 76.0 168.0 76.0Z" fill-rule="nonzero"/><path fill="#8cab13" clip-path="url(#id_0)" d="M137.0 76.0L137.0 68.0L168.0 68.0C169.10457 68.0 170.0 68.89543 170.0 70.0L170.0 74.0C170.0 75.10457 169.10457 76.0 168.0 76.0Z" fill-rule="nonzero"/><path stroke="#000000" stroke-width="2.0" stroke-linecap="butt" stroke-opacity="0.0" clip-path="url(#id_0)" d="M137.0 106.0L137.0 98.0L168.0 98.0C169.10457 98.0 170.0 98.89543 170.0 100.0L170.0 104.0C170.0 105.10457 169.10457 106.0 168.0 106.0Z" fill-rule="nonzero"/><path fill="#8cab13" clip-path="url(#id_0)" d="M137.0 106.0L137.0 98.0L168.0 98.0C169.10457 98.0 170.0 98.89543 170.0 100.0L170.0 104.0C170.0 105.10457 169.10457 106.0 168.0 106.0Z" fill-rule="nonzero"/><path stroke="#000000" stroke-width="2.0" stroke-linecap="butt" stroke-opacity="0.0" clip-path="url(#id_0)" d="M137.0 137.0L137.0 129.0L168.0 129.0C169.10457 129.0 170.0 129.89543 170.0 131.0L170.0 135.0C170.0 136.10457 169.10457 137.0 168.0 137.0Z" fill-rule="nonzero"/><path fill="#8cab13" clip-path="url(#id_0)" d="M137.0 137.0L137.0 129.0L168.0 129.0C169.10457 129.0 170.0 129.89543 170.0 131.0L170.0 135.0C170.0 136.10457 169.10457 137.0 168.0 137.0Z" fill-rule="nonzero"/><path stroke="#000000" stroke-width="2.0" stroke-linecap="butt" stroke-opacity="0.0" clip-path="url(#id_0)" d="M137.0 167.0L137.0 159.0L181.0 159.0C182.10457 159.0 183.0 159.89543 183.0 161.0L183.0 165.0C183.0 166.10457 182.10457 167.0 181.0 167.0Z" fill-rule="nonzero"/><path fill="#8cab13" clip-path="url(#id_0)" d="M137.0 167.0L137.0 159.0L181.0 159.0C182.10457 159.0 183.0 159.89543 183.0 161.0L183.0 165.0C183.0 166.10457 182.10457 167.0 181.0 167.0Z" fill-rule="nonzero"/><path stroke="#000000" stroke-width="2.0" stroke-linecap="butt" stroke-opacity="0.0" clip-path="url(#id_0)" d="M137.0 198.0L137.0 190.0L151.0 190.0C152.10457 190.0 153.0 190.89543 153.0 192.0L153.0 196.0C153.0 197.10457 152.10457 198.0 151.0 198.0Z" fill-rule="nonzero"/><path fill="#8cab13" clip-path="url(#id_0)" d="M137.0 198.0L137.0 190.0L151.0 190.0C152.10457 190.0 153.0 190.89543 153.0 192.0L153.0 196.0C153.0 197.10457 152.10457 198.0 151.0 198.0Z" fill-rule="nonzero"/><path stroke="#000000" stroke-width="2.0" stroke-linecap="butt" stroke-opacity="0.0" clip-path="url(#id_0)" d="M137.0 228.0L137.0 220.0L169.0 220.0C170.10457 220.0 171.0 220.89543 171.0 222.0L171.0 226.0C171.0 227.10457 170.10457 228.0 169.0 228.0Z" fill-rule="nonzero"/><path fill="#8cab13" clip-path="url(#id_0)" d="M137.0 228.0L137.0 220.0L169.0 220.0C170.10457 220.0 171.0 220.89543 171.0 222.0L171.0 226.0C171.0 227.10457 170.10457 228.0 169.0 228.0Z" fill-rule="nonzero"/><path stroke="#000000" stroke-width="2.0" stroke-linecap="butt" stroke-opacity="0.0" clip-path="url(#id_0)" d="M137.0 259.0L137.0 251.0L527.0 251.0C528.10455 251.0 529.0 251.89543 529.0 253.0L529.0 257.0C529.0 258.10458 528.10455 259.0 527.0 259.0Z" fill-rule="nonzero"/><path fill="#8cab13" clip-path="url(#id_0)" d="M137.0 259.0L137.0 251.0L527.0 251.0C528.10455 251.0 529.0 251.89543 529.0 253.0L529.0 257.0C529.0 258.10458 528.10455 259.0 527.0 259.0Z" fill-rule="nonzero"/><path stroke="#000000" stroke-width="2.0" stroke-linecap="butt" stroke-opacity="0.0" clip-path="url(#id_0)" d="M137.0 289.0L137.0 281.0L478.0 281.0C479.10458 281.0 480.0 281.89542 480.0 283.0L480.0 287.0C480.0 288.10458 479.10458 289.0 478.0 289.0Z" fill-rule="nonzero"/><path fill="#8cab13" clip-path="url(#id_0)" d="M137.0 289.0L137.0 281.0L478.0 281.0C479.10458 281.0 480.0 281.89542 480.0 283.0L480.0 287.0C480.0 288.10458 479.10458 289.0 478.0 289.0Z" fill-rule="nonzero"/><path stroke="#000000" stroke-width="2.0" stroke-linecap="butt" stroke-opacity="0.0" clip-path="url(#id_0)" d="M137.0 320.0L137.0 312.0L203.0 312.0C204.10457 312.0 205.0 312.89542 205.0 314.0L205.0 318.0C205.0 319.10458 204.10457 320.0 203.0 320.0Z" fill-rule="nonzero"/><path fill="#8cab13" clip-path="url(#id_0)" d="M137.0 320.0L137.0 312.0L203.0 312.0C204.10457 312.0 205.0 312.89542 205.0 314.0L205.0 318.0C205.0 319.10458 204.10457 320.0 203.0 320.0Z" fill-rule="nonzero"/><path fill="#757575" d="M69.13 63.530037L68.05187 63.530037L68.05187 57.186287L69.13 57.186287L69.13 63.530037ZM67.95812 55.514412Q67.95812 55.248787 68.11437 55.061287Q68.28625 54.873787 68.59875 54.873787Q68.91125 54.873787 69.0675 55.061287Q69.23937 55.248787 69.23937 55.514412Q69.23937 55.764412 69.0675 55.951912Q68.91125 56.123787 68.59875 56.123787Q68.28625 56.123787 68.11437 55.951912Q67.95812 55.764412 67.95812 55.514412ZM71.97375 57.186287L72.005 57.983162Q72.73937 57.076912 73.91125 57.076912Q75.92687 57.076912 75.9425 59.342537L75.9425 63.530037L74.84875 63.530037L74.84875 59.326912Q74.84875 58.655037 74.53625 58.326912Q74.23937 57.998787 73.58312 57.998787Q73.05187 57.998787 72.64562 58.280037Q72.255 58.561287 72.03625 59.014412L72.03625 63.530037L70.95812 63.530037L70.95812 57.186287L71.97375 57.186287ZM78.48937 63.530037L78.48937 58.030037L77.48937 58.030037L77.48937 57.186287L78.48937 57.186287L78.48937 56.545662Q78.48937 55.514412 79.02062 54.967537Q79.5675 54.405037 80.5675 54.405037Q80.9425 54.405037 81.3175 54.498787L81.255 55.389412Q80.97375 55.326912 80.67687 55.326912Q80.14562 55.326912 79.84875 55.639412Q79.5675 55.951912 79.5675 56.514412L79.5675 57.186287L80.92687 57.186287L80.92687 58.030037L79.5675 58.030037L79.5675 63.530037L78.48937 63.530037ZM81.66125 60.295662Q81.66125 59.373787 82.02062 58.623787Q82.39562 57.873787 83.05187 57.483162Q83.70812 57.076912 84.53625 57.076912Q85.83312 57.076912 86.63 57.967537Q87.4425 58.858162 87.4425 60.358162L87.4425 60.436287Q87.4425 61.358162 87.08312 62.092537Q86.72375 62.826912 86.0675 63.248787Q85.41125 63.655037 84.55187 63.655037Q83.27062 63.655037 82.45812 62.764412Q81.66125 61.858162 81.66125 60.373787L81.66125 60.295662ZM82.755 60.436287Q82.755 61.483162 83.23937 62.123787Q83.73937 62.764412 84.55187 62.764412Q85.38 62.764412 85.86437 62.123787Q86.34875 61.467537 86.34875 60.295662Q86.34875 59.264412 85.84875 58.623787Q85.36437 57.967537 84.53625 57.967537Q83.73937 57.967537 83.23937 58.608162Q82.755 59.233162 82.755 60.436287ZM92.02062 58.155037Q91.77062 58.123787 91.48937 58.123787Q90.41125 58.123787 90.03625 59.030037L90.03625 63.530037L88.95812 63.530037L88.95812 57.186287L90.005 57.186287L90.02062 57.920662Q90.55187 57.076912 91.53625 57.076912Q91.84875 57.076912 92.02062 57.155037L92.02062 58.155037ZM93.97375 57.186287L94.005 57.889412Q94.6925 57.076912 95.88 57.076912Q97.20812 57.076912 97.6925 58.092537Q98.005 57.639412 98.505 57.358162Q99.02062 57.076912 99.70812 57.076912Q101.80187 57.076912 101.83312 59.280037L101.83312 63.530037L100.755 63.530037L100.755 59.342537Q100.755 58.670662 100.4425 58.342537Q100.13 57.998787 99.39562 57.998787Q98.78625 57.998787 98.38 58.358162Q97.98937 58.717537 97.92687 59.326912L97.92687 63.530037L96.84875 63.530037L96.84875 59.373787Q96.84875 57.998787 95.48937 57.998787Q94.42687 57.998787 94.03625 58.905037L94.03625 63.530037L92.9425 63.530037L92.9425 57.186287L93.97375 57.186287ZM107.86437 63.530037Q107.77062 63.342537 107.70812 62.858162Q106.95812 63.655037 105.91125 63.655037Q104.97375 63.655037 104.36437 63.123787Q103.77062 62.592537 103.77062 61.764412Q103.77062 60.780037 104.52062 60.233162Q105.27062 59.686287 106.64562 59.686287L107.6925 59.686287L107.6925 59.186287Q107.6925 58.623787 107.34875 58.295662Q107.02062 57.951912 106.34875 57.951912Q105.77062 57.951912 105.38 58.248787Q104.98937 58.530037 104.98937 58.951912L103.89562 58.951912Q103.89562 58.467537 104.22375 58.030037Q104.5675 57.592537 105.14562 57.342537Q105.72375 57.076912 106.41125 57.076912Q107.52062 57.076912 108.13 57.623787Q108.755 58.170662 108.78625 59.123787L108.78625 62.045662Q108.78625 62.920662 109.005 63.436287L109.005 63.530037L107.86437 63.530037ZM106.0675 62.701912Q106.58312 62.701912 107.03625 62.436287Q107.48937 62.170662 107.6925 61.748787L107.6925 60.451912L106.84875 60.451912Q104.84875 60.451912 104.84875 61.623787Q104.84875 62.123787 105.1925 62.420662Q105.53625 62.701912 106.0675 62.701912ZM112.42687 55.655037L112.42687 57.186287L113.59875 57.186287L113.59875 58.030037L112.42687 58.030037L112.42687 61.951912Q112.42687 62.342537 112.58312 62.530037Q112.73937 62.717537 113.11437 62.717537Q113.30187 62.717537 113.63 62.655037L113.63 63.530037Q113.20812 63.655037 112.80187 63.655037Q112.08312 63.655037 111.70812 63.217537Q111.33312 62.764412 111.33312 61.951912L111.33312 58.030037L110.17687 58.030037L110.17687 57.186287L111.33312 57.186287L111.33312 55.655037L112.42687 55.655037ZM116.13 63.530037L115.05187 63.530037L115.05187 57.186287L116.13 57.186287L116.13 63.530037ZM114.95812 55.514412Q114.95812 55.248787 115.11437 55.061287Q115.28625 54.873787 115.59875 54.873787Q115.91125 54.873787 116.0675 55.061287Q116.23937 55.248787 116.23937 55.514412Q116.23937 55.764412 116.0675 55.951912Q115.91125 56.123787 115.59875 56.123787Q115.28625 56.123787 115.11437 55.951912Q114.95812 55.764412 114.95812 55.514412ZM117.66125 60.295662Q117.66125 59.373787 118.02062 58.623787Q118.39562 57.873787 119.05187 57.483162Q119.70812 57.076912 120.53625 57.076912Q121.83312 57.076912 122.63 57.967537Q123.4425 58.858162 123.4425 60.358162L123.4425 60.436287Q123.4425 61.358162 123.08312 62.092537Q122.72375 62.826912 122.0675 63.248787Q121.41125 63.655037 120.55187 63.655037Q119.27062 63.655037 118.45812 62.764412Q117.66125 61.858162 117.66125 60.373787L117.66125 60.295662ZM118.755 60.436287Q118.755 61.483162 119.23937 62.123787Q119.73937 62.764412 120.55187 62.764412Q121.38 62.764412 121.86437 62.123787Q122.34875 61.467537 122.34875 60.295662Q122.34875 59.264412 121.84875 58.623787Q121.36437 57.967537 120.53625 57.967537Q119.73937 57.967537 119.23937 58.608162Q118.755 59.233162 118.755 60.436287ZM125.97375 57.186287L126.005 57.983162Q126.73937 57.076912 127.91125 57.076912Q129.92688 57.076912 129.9425 59.342537L129.9425 63.530037L128.84875 63.530037L128.84875 59.326912Q128.84875 58.655037 128.53625 58.326912Q128.23938 57.998787 127.58312 57.998787Q127.05187 57.998787 126.64562 58.280037Q126.255 58.561287 126.03625 59.014412L126.03625 63.530037L124.95812 63.530037L124.95812 57.186287L125.97375 57.186287Z" fill-rule="nonzero"/><path fill="#757575" d="M52.3175 75.43629Q52.3175 76.88941 51.645626 77.78004Q50.989376 78.65504 49.864376 78.65504Q48.66125 78.65504 48.005 77.79566L47.9425 78.53004L46.958126 78.53004L46.958126 69.53004L48.03625 69.53004L48.03625 72.88941Q48.6925 72.07691 49.84875 72.07691Q51.005 72.07691 51.66125 72.95191Q52.3175 73.81129 52.3175 75.34254L52.3175 75.43629ZM51.239376 75.31129Q51.239376 74.20191 50.801876 73.60816Q50.38 72.99879 49.583126 72.99879Q48.505 72.99879 48.03625 73.98316L48.03625 76.73316Q48.53625 77.73316 49.583126 77.73316Q50.364376 77.73316 50.801876 77.12379Q51.239376 76.51441 51.239376 75.31129ZM57.020626 73.15504Q56.770626 73.12379 56.489376 73.12379Q55.41125 73.12379 55.03625 74.03004L55.03625 78.53004L53.958126 78.53004L53.958126 72.18629L55.005 72.18629L55.020626 72.92066Q55.551876 72.07691 56.53625 72.07691Q56.84875 72.07691 57.020626 72.15504L57.020626 73.15504ZM60.583126 78.65504Q59.28625 78.65504 58.47375 77.81129Q57.676876 76.95191 57.676876 75.53004L57.676876 75.34254Q57.676876 74.38941 58.03625 73.65504Q58.395626 72.90504 59.03625 72.49879Q59.6925 72.07691 60.4425 72.07691Q61.676876 72.07691 62.364376 72.88941Q63.051876 73.70191 63.051876 75.21754L63.051876 75.67066L58.755 75.67066Q58.78625 76.60816 59.301876 77.18629Q59.833126 77.76441 60.645626 77.76441Q61.208126 77.76441 61.59875 77.53004Q62.005 77.29566 62.3175 76.90504L62.97375 77.42066Q62.176876 78.65504 60.583126 78.65504ZM60.4425 72.96754Q59.78625 72.96754 59.333126 73.45191Q58.895626 73.92066 58.801876 74.78004L61.97375 74.78004L61.97375 74.70191Q61.926876 73.87379 61.520626 73.42066Q61.13 72.96754 60.4425 72.96754ZM65.130005 78.53004L64.05188 78.53004L64.05188 72.18629L65.130005 72.18629L65.130005 78.53004ZM63.958126 70.51441Q63.958126 70.24879 64.11438 70.06129Q64.286255 69.87379 64.598755 69.87379Q64.911255 69.87379 65.067505 70.06129Q65.23938 70.24879 65.23938 70.51441Q65.23938 70.76441 65.067505 70.95191Q64.911255 71.12379 64.598755 71.12379Q64.286255 71.12379 64.11438 70.95191Q63.958126 70.76441 63.958126 70.51441ZM68.42688 70.65504L68.42688 72.18629L69.598755 72.18629L69.598755 73.03004L68.42688 73.03004L68.42688 76.95191Q68.42688 77.34254 68.58313 77.53004Q68.73938 77.71754 69.11438 77.71754Q69.30188 77.71754 69.630005 77.65504L69.630005 78.53004Q69.20813 78.65504 68.80188 78.65504Q68.08313 78.65504 67.70813 78.21754Q67.33313 77.76441 67.33313 76.95191L67.33313 73.03004L66.17688 73.03004L66.17688 72.18629L67.33313 72.18629L67.33313 70.65504L68.42688 70.65504ZM70.911255 80.23316L70.30188 79.81129Q70.848755 79.04566 70.880005 78.21754L70.880005 77.24879L71.942505 77.24879L71.942505 78.09254Q71.942505 78.68629 71.64563 79.28004Q71.348755 79.87379 70.911255 80.23316ZM76.48938 78.53004L76.48938 73.03004L75.48938 73.03004L75.48938 72.18629L76.48938 72.18629L76.48938 71.54566Q76.48938 70.51441 77.02063 69.96754Q77.567505 69.40504 78.567505 69.40504Q78.942505 69.40504 79.317505 69.49879L79.255005 70.38941Q78.973755 70.32691 78.67688 70.32691Q78.14563 70.32691 77.848755 70.63941Q77.567505 70.95191 77.567505 71.51441L77.567505 72.18629L78.92688 72.18629L78.92688 73.03004L77.567505 73.03004L77.567505 78.53004L76.48938 78.53004ZM79.661255 75.29566Q79.661255 74.37379 80.02063 73.62379Q80.39563 72.87379 81.05188 72.48316Q81.70813 72.07691 82.536255 72.07691Q83.83313 72.07691 84.630005 72.96754Q85.442505 73.85816 85.442505 75.35816L85.442505 75.43629Q85.442505 76.35816 85.08313 77.09254Q84.723755 77.82691 84.067505 78.24879Q83.411255 78.65504 82.55188 78.65504Q81.27063 78.65504 80.45813 77.76441Q79.661255 76.85816 79.661255 75.37379L79.661255 75.29566ZM80.755005 75.43629Q80.755005 76.48316 81.23938 77.12379Q81.73938 77.76441 82.55188 77.76441Q83.380005 77.76441 83.86438 77.12379Q84.348755 76.46754 84.348755 75.29566Q84.348755 74.26441 83.848755 73.62379Q83.36438 72.96754 82.536255 72.96754Q81.73938 72.96754 81.23938 73.60816Q80.755005 74.23316 80.755005 75.43629ZM90.02063 73.15504Q89.77063 73.12379 89.48938 73.12379Q88.411255 73.12379 88.036255 74.03004L88.036255 78.53004L86.95813 78.53004L86.95813 72.18629L88.005005 72.18629L88.02063 72.92066Q88.55188 72.07691 89.536255 72.07691Q89.848755 72.07691 90.02063 72.15504L90.02063 73.15504ZM91.973755 72.18629L92.005005 72.88941Q92.692505 72.07691 93.880005 72.07691Q95.20813 72.07691 95.692505 73.09254Q96.005005 72.63941 96.505005 72.35816Q97.02063 72.07691 97.70813 72.07691Q99.80188 72.07691 99.83313 74.28004L99.83313 78.53004L98.755005 78.53004L98.755005 74.34254Q98.755005 73.67066 98.442505 73.34254Q98.130005 72.99879 97.39563 72.99879Q96.786255 72.99879 96.380005 73.35816Q95.98938 73.71754 95.92688 74.32691L95.92688 78.53004L94.848755 78.53004L94.848755 74.37379Q94.848755 72.99879 93.48938 72.99879Q92.42688 72.99879 92.036255 73.90504L92.036255 78.53004L90.942505 78.53004L90.942505 72.18629L91.973755 72.18629ZM105.86438 78.53004Q105.77063 78.34254 105.70813 77.85816Q104.95813 78.65504 103.911255 78.65504Q102.973755 78.65504 102.36438 78.12379Q101.77063 77.59254 101.77063 76.76441Q101.77063 75.78004 102.52063 75.23316Q103.27063 74.68629 104.64563 74.68629L105.692505 74.68629L105.692505 74.18629Q105.692505 73.62379 105.348755 73.29566Q105.02063 72.95191 104.348755 72.95191Q103.77063 72.95191 103.380005 73.24879Q102.98938 73.53004 102.98938 73.95191L101.89563 73.95191Q101.89563 73.46754 102.223755 73.03004Q102.567505 72.59254 103.14563 72.34254Q103.723755 72.07691 104.411255 72.07691Q105.52063 72.07691 106.130005 72.62379Q106.755005 73.17066 106.786255 74.12379L106.786255 77.04566Q106.786255 77.92066 107.005005 78.43629L107.005005 78.53004L105.86438 78.53004ZM104.067505 77.70191Q104.58313 77.70191 105.036255 77.43629Q105.48938 77.17066 105.692505 76.74879L105.692505 75.45191L104.848755 75.45191Q102.848755 75.45191 102.848755 76.62379Q102.848755 77.12379 103.192505 77.42066Q103.536255 77.70191 104.067505 77.70191ZM110.42688 70.65504L110.42688 72.18629L111.598755 72.18629L111.598755 73.03004L110.42688 73.03004L110.42688 76.95191Q110.42688 77.34254 110.58313 77.53004Q110.73938 77.71754 111.11438 77.71754Q111.30188 77.71754 111.630005 77.65504L111.630005 78.53004Q111.20813 78.65504 110.80188 78.65504Q110.08313 78.65504 109.70813 78.21754Q109.33313 77.76441 109.33313 76.95191L109.33313 73.03004L108.17688 73.03004L108.17688 72.18629L109.33313 72.18629L109.33313 70.65504L110.42688 70.65504ZM114.130005 78.53004L113.05188 78.53004L113.05188 72.18629L114.130005 72.18629L114.130005 78.53004ZM112.95813 70.51441Q112.95813 70.24879 113.11438 70.06129Q113.286255 69.87379 113.598755 69.87379Q113.911255 69.87379 114.067505 70.06129Q114.23938 70.24879 114.23938 70.51441Q114.23938 70.76441 114.067505 70.95191Q113.911255 71.12379 113.598755 71.12379Q113.286255 71.12379 113.11438 70.95191Q112.95813 70.76441 112.95813 70.51441ZM115.661255 75.29566Q115.661255 74.37379 116.02063 73.62379Q116.39563 72.87379 117.05188 72.48316Q117.70813 72.07691 118.536255 72.07691Q119.83313 72.07691 120.630005 72.96754Q121.442505 73.85816 121.442505 75.35816L121.442505 75.43629Q121.442505 76.35816 121.08313 77.09254Q120.723755 77.82691 120.067505 78.24879Q119.411255 78.65504 118.55188 78.65504Q117.27063 78.65504 116.45813 77.76441Q115.661255 76.85816 115.661255 75.37379L115.661255 75.29566ZM116.755005 75.43629Q116.755005 76.48316 117.23938 77.12379Q117.73938 77.76441 118.55188 77.76441Q119.380005 77.76441 119.86438 77.12379Q120.348755 76.46754 120.348755 75.29566Q120.348755 74.26441 119.848755 73.62379Q119.36438 72.96754 118.536255 72.96754Q117.73938 72.96754 117.23938 73.60816Q116.755005 74.23316 116.755005 75.43629ZM123.973755 72.18629L124.005005 72.98316Q124.73938 72.07691 125.911255 72.07691Q127.92688 72.07691 127.942505 74.34254L127.942505 78.53004L126.848755 78.53004L126.848755 74.32691Q126.848755 73.65504 126.536255 73.32691Q126.23938 72.99879 125.58313 72.99879Q125.05188 72.99879 124.64563 73.28004Q124.255005 73.56129 124.036255 74.01441L124.036255 78.53004L122.95813 78.53004L122.95813 72.18629L123.973755 72.18629ZM129.91125 80.23316L129.30188 79.81129Q129.84875 79.04566 129.88 78.21754L129.88 77.24879L130.9425 77.24879L130.9425 78.09254Q130.9425 78.68629 130.64563 79.28004Q130.34875 79.87379 129.91125 80.23316Z" fill-rule="nonzero"/><path fill="#757575" d="M78.48937 101.56836L78.48937 96.06836L77.48937 96.06836L77.48937 95.22461L78.48937 95.22461L78.48937 94.583984Q78.48937 93.552734 79.02062 93.00586Q79.5675 92.44336 80.5675 92.44336Q80.9425 92.44336 81.3175 92.53711L81.255 93.427734Q80.97375 93.365234 80.67687 93.365234Q80.14562 93.365234 79.84875 93.677734Q79.5675 93.990234 79.5675 94.552734L79.5675 95.22461L80.92687 95.22461L80.92687 96.06836L79.5675 96.06836L79.5675 101.56836L78.48937 101.56836ZM81.66125 98.333984Q81.66125 97.41211 82.02062 96.66211Q82.39562 95.91211 83.05187 95.521484Q83.70812 95.115234 84.53625 95.115234Q85.83312 95.115234 86.63 96.00586Q87.4425 96.896484 87.4425 98.396484L87.4425 98.47461Q87.4425 99.396484 87.08312 100.13086Q86.72375 100.865234 86.0675 101.28711Q85.41125 101.69336 84.55187 101.69336Q83.27062 101.69336 82.45812 100.802734Q81.66125 99.896484 81.66125 98.41211L81.66125 98.333984ZM82.755 98.47461Q82.755 99.521484 83.23937 100.16211Q83.73937 100.802734 84.55187 100.802734Q85.38 100.802734 85.86437 100.16211Q86.34875 99.50586 86.34875 98.333984Q86.34875 97.302734 85.84875 96.66211Q85.36437 96.00586 84.53625 96.00586Q83.73937 96.00586 83.23937 96.646484Q82.755 97.271484 82.755 98.47461ZM92.02062 96.19336Q91.77062 96.16211 91.48937 96.16211Q90.41125 96.16211 90.03625 97.06836L90.03625 101.56836L88.95812 101.56836L88.95812 95.22461L90.005 95.22461L90.02062 95.958984Q90.55187 95.115234 91.53625 95.115234Q91.84875 95.115234 92.02062 95.19336L92.02062 96.19336ZM93.97375 95.22461L94.005 95.927734Q94.6925 95.115234 95.88 95.115234Q97.20812 95.115234 97.6925 96.13086Q98.005 95.677734 98.505 95.396484Q99.02062 95.115234 99.70812 95.115234Q101.80187 95.115234 101.83312 97.31836L101.83312 101.56836L100.755 101.56836L100.755 97.38086Q100.755 96.708984 100.4425 96.38086Q100.13 96.03711 99.39562 96.03711Q98.78625 96.03711 98.38 96.396484Q97.98937 96.75586 97.92687 97.365234L97.92687 101.56836L96.84875 101.56836L96.84875 97.41211Q96.84875 96.03711 95.48937 96.03711Q94.42687 96.03711 94.03625 96.94336L94.03625 101.56836L92.9425 101.56836L92.9425 95.22461L93.97375 95.22461ZM107.86437 101.56836Q107.77062 101.38086 107.70812 100.896484Q106.95812 101.69336 105.91125 101.69336Q104.97375 101.69336 104.36437 101.16211Q103.77062 100.63086 103.77062 99.802734Q103.77062 98.81836 104.52062 98.271484Q105.27062 97.72461 106.64562 97.72461L107.6925 97.72461L107.6925 97.22461Q107.6925 96.66211 107.34875 96.333984Q107.02062 95.990234 106.34875 95.990234Q105.77062 95.990234 105.38 96.28711Q104.98937 96.56836 104.98937 96.990234L103.89562 96.990234Q103.89562 96.50586 104.22375 96.06836Q104.5675 95.63086 105.14562 95.38086Q105.72375 95.115234 106.41125 95.115234Q107.52062 95.115234 108.13 95.66211Q108.755 96.208984 108.78625 97.16211L108.78625 100.083984Q108.78625 100.958984 109.005 101.47461L109.005 101.56836L107.86437 101.56836ZM106.0675 100.740234Q106.58312 100.740234 107.03625 100.47461Q107.48937 100.208984 107.6925 99.78711L107.6925 98.490234L106.84875 98.490234Q104.84875 98.490234 104.84875 99.66211Q104.84875 100.16211 105.1925 100.458984Q105.53625 100.740234 106.0675 100.740234ZM112.42687 93.69336L112.42687 95.22461L113.59875 95.22461L113.59875 96.06836L112.42687 96.06836L112.42687 99.990234Q112.42687 100.38086 112.58312 100.56836Q112.73937 100.75586 113.11437 100.75586Q113.30187 100.75586 113.63 100.69336L113.63 101.56836Q113.20812 101.69336 112.80187 101.69336Q112.08312 101.69336 111.70812 101.25586Q111.33312 100.802734 111.33312 99.990234L111.33312 96.06836L110.17687 96.06836L110.17687 95.22461L111.33312 95.22461L111.33312 93.69336L112.42687 93.69336ZM116.13 101.56836L115.05187 101.56836L115.05187 95.22461L116.13 95.22461L116.13 101.56836ZM114.95812 93.552734Q114.95812 93.28711 115.11437 93.09961Q115.28625 92.91211 115.59875 92.91211Q115.91125 92.91211 116.0675 93.09961Q116.23937 93.28711 116.23937 93.552734Q116.23937 93.802734 116.0675 93.990234Q115.91125 94.16211 115.59875 94.16211Q115.28625 94.16211 115.11437 93.990234Q114.95812 93.802734 114.95812 93.552734ZM117.66125 98.333984Q117.66125 97.41211 118.02062 96.66211Q118.39562 95.91211 119.05187 95.521484Q119.70812 95.115234 120.53625 95.115234Q121.83312 95.115234 122.63 96.00586Q123.4425 96.896484 123.4425 98.396484L123.4425 98.47461Q123.4425 99.396484 123.08312 100.13086Q122.72375 100.865234 122.0675 101.28711Q121.41125 101.69336 120.55187 101.69336Q119.27062 101.69336 118.45812 100.802734Q117.66125 99.896484 117.66125 98.41211L117.66125 98.333984ZM118.755 98.47461Q118.755 99.521484 119.23937 100.16211Q119.73937 100.802734 120.55187 100.802734Q121.38 100.802734 121.86437 100.16211Q122.34875 99.50586 122.34875 98.333984Q122.34875 97.302734 121.84875 96.66211Q121.36437 96.00586 120.53625 96.00586Q119.73937 96.00586 119.23937 96.646484Q118.755 97.271484 118.755 98.47461ZM125.97375 95.22461L126.005 96.021484Q126.73937 95.115234 127.91125 95.115234Q129.92688 95.115234 129.9425 97.38086L129.9425 101.56836L128.84875 101.56836L128.84875 97.365234Q128.84875 96.69336 128.53625 96.365234Q128.23938 96.03711 127.58312 96.03711Q127.05187 96.03711 126.64562 96.31836Q126.255 96.59961 126.03625 97.052734L126.03625 101.56836L124.95812 101.56836L124.95812 95.22461L125.97375 95.22461Z" fill-rule="nonzero"/><path fill="#757575" d="M52.3175 121.51293Q52.3175 122.96606 51.645626 123.85668Q50.989376 124.73168 49.864376 124.73168Q48.66125 124.73168 48.005 123.87231L47.9425 124.60668L46.958126 124.60668L46.958126 115.60668L48.03625 115.60668L48.03625 118.96606Q48.6925 118.15356 49.84875 118.15356Q51.005 118.15356 51.66125 119.02856Q52.3175 119.88793 52.3175 121.41918L52.3175 121.51293ZM51.239376 121.38793Q51.239376 120.27856 50.801876 119.68481Q50.38 119.07543 49.583126 119.07543Q48.505 119.07543 48.03625 120.05981L48.03625 122.80981Q48.53625 123.80981 49.583126 123.80981Q50.364376 123.80981 50.801876 123.20043Q51.239376 122.59106 51.239376 121.38793ZM57.020626 119.23168Q56.770626 119.20043 56.489376 119.20043Q55.41125 119.20043 55.03625 120.10668L55.03625 124.60668L53.958126 124.60668L53.958126 118.26293L55.005 118.26293L55.020626 118.99731Q55.551876 118.15356 56.53625 118.15356Q56.84875 118.15356 57.020626 118.23168L57.020626 119.23168ZM60.583126 124.73168Q59.28625 124.73168 58.47375 123.88793Q57.676876 123.02856 57.676876 121.60668L57.676876 121.41918Q57.676876 120.46606 58.03625 119.73168Q58.395626 118.98168 59.03625 118.57543Q59.6925 118.15356 60.4425 118.15356Q61.676876 118.15356 62.364376 118.96606Q63.051876 119.77856 63.051876 121.29418L63.051876 121.74731L58.755 121.74731Q58.78625 122.68481 59.301876 123.26293Q59.833126 123.84106 60.645626 123.84106Q61.208126 123.84106 61.59875 123.60668Q62.005 123.37231 62.3175 122.98168L62.97375 123.49731Q62.176876 124.73168 60.583126 124.73168ZM60.4425 119.04418Q59.78625 119.04418 59.333126 119.52856Q58.895626 119.99731 58.801876 120.85668L61.97375 120.85668L61.97375 120.77856Q61.926876 119.95043 61.520626 119.49731Q61.13 119.04418 60.4425 119.04418ZM65.130005 124.60668L64.05188 124.60668L64.05188 118.26293L65.130005 118.26293L65.130005 124.60668ZM63.958126 116.59106Q63.958126 116.32543 64.11438 116.13793Q64.286255 115.95043 64.598755 115.95043Q64.911255 115.95043 65.067505 116.13793Q65.23938 116.32543 65.23938 116.59106Q65.23938 116.84106 65.067505 117.02856Q64.911255 117.20043 64.598755 117.20043Q64.286255 117.20043 64.11438 117.02856Q63.958126 116.84106 63.958126 116.59106ZM68.42688 116.73168L68.42688 118.26293L69.598755 118.26293L69.598755 119.10668L68.42688 119.10668L68.42688 123.02856Q68.42688 123.41918 68.58313 123.60668Q68.73938 123.79418 69.11438 123.79418Q69.30188 123.79418 69.630005 123.73168L69.630005 124.60668Q69.20813 124.73168 68.80188 124.73168Q68.08313 124.73168 67.70813 124.29418Q67.33313 123.84106 67.33313 123.02856L67.33313 119.10668L66.17688 119.10668L66.17688 118.26293L67.33313 118.26293L67.33313 116.73168L68.42688 116.73168ZM70.911255 126.30981L70.30188 125.88793Q70.848755 125.12231 70.880005 124.29418L70.880005 123.32543L71.942505 123.32543L71.942505 124.16918Q71.942505 124.76293 71.64563 125.35668Q71.348755 125.95043 70.911255 126.30981ZM76.48938 124.60668L76.48938 119.10668L75.48938 119.10668L75.48938 118.26293L76.48938 118.26293L76.48938 117.62231Q76.48938 116.59106 77.02063 116.04418Q77.567505 115.48168 78.567505 115.48168Q78.942505 115.48168 79.317505 115.57543L79.255005 116.46606Q78.973755 116.40356 78.67688 116.40356Q78.14563 116.40356 77.848755 116.71606Q77.567505 117.02856 77.567505 117.59106L77.567505 118.26293L78.92688 118.26293L78.92688 119.10668L77.567505 119.10668L77.567505 124.60668L76.48938 124.60668ZM79.661255 121.37231Q79.661255 120.45043 80.02063 119.70043Q80.39563 118.95043 81.05188 118.55981Q81.70813 118.15356 82.536255 118.15356Q83.83313 118.15356 84.630005 119.04418Q85.442505 119.93481 85.442505 121.43481L85.442505 121.51293Q85.442505 122.43481 85.08313 123.16918Q84.723755 123.90356 84.067505 124.32543Q83.411255 124.73168 82.55188 124.73168Q81.27063 124.73168 80.45813 123.84106Q79.661255 122.93481 79.661255 121.45043L79.661255 121.37231ZM80.755005 121.51293Q80.755005 122.55981 81.23938 123.20043Q81.73938 123.84106 82.55188 123.84106Q83.380005 123.84106 83.86438 123.20043Q84.348755 122.54418 84.348755 121.37231Q84.348755 120.34106 83.848755 119.70043Q83.36438 119.04418 82.536255 119.04418Q81.73938 119.04418 81.23938 119.68481Q80.755005 120.30981 80.755005 121.51293ZM90.02063 119.23168Q89.77063 119.20043 89.48938 119.20043Q88.411255 119.20043 88.036255 120.10668L88.036255 124.60668L86.95813 124.60668L86.95813 118.26293L88.005005 118.26293L88.02063 118.99731Q88.55188 118.15356 89.536255 118.15356Q89.848755 118.15356 90.02063 118.23168L90.02063 119.23168ZM91.973755 118.26293L92.005005 118.96606Q92.692505 118.15356 93.880005 118.15356Q95.20813 118.15356 95.692505 119.16918Q96.005005 118.71606 96.505005 118.43481Q97.02063 118.15356 97.70813 118.15356Q99.80188 118.15356 99.83313 120.35668L99.83313 124.60668L98.755005 124.60668L98.755005 120.41918Q98.755005 119.74731 98.442505 119.41918Q98.130005 119.07543 97.39563 119.07543Q96.786255 119.07543 96.380005 119.43481Q95.98938 119.79418 95.92688 120.40356L95.92688 124.60668L94.848755 124.60668L94.848755 120.45043Q94.848755 119.07543 93.48938 119.07543Q92.42688 119.07543 92.036255 119.98168L92.036255 124.60668L90.942505 124.60668L90.942505 118.26293L91.973755 118.26293ZM105.86438 124.60668Q105.77063 124.41918 105.70813 123.93481Q104.95813 124.73168 103.911255 124.73168Q102.973755 124.73168 102.36438 124.20043Q101.77063 123.66918 101.77063 122.84106Q101.77063 121.85668 102.52063 121.30981Q103.27063 120.76293 104.64563 120.76293L105.692505 120.76293L105.692505 120.26293Q105.692505 119.70043 105.348755 119.37231Q105.02063 119.02856 104.348755 119.02856Q103.77063 119.02856 103.380005 119.32543Q102.98938 119.60668 102.98938 120.02856L101.89563 120.02856Q101.89563 119.54418 102.223755 119.10668Q102.567505 118.66918 103.14563 118.41918Q103.723755 118.15356 104.411255 118.15356Q105.52063 118.15356 106.130005 118.70043Q106.755005 119.24731 106.786255 120.20043L106.786255 123.12231Q106.786255 123.99731 107.005005 124.51293L107.005005 124.60668L105.86438 124.60668ZM104.067505 123.77856Q104.58313 123.77856 105.036255 123.51293Q105.48938 123.24731 105.692505 122.82543L105.692505 121.52856L104.848755 121.52856Q102.848755 121.52856 102.848755 122.70043Q102.848755 123.20043 103.192505 123.49731Q103.536255 123.77856 104.067505 123.77856ZM110.42688 116.73168L110.42688 118.26293L111.598755 118.26293L111.598755 119.10668L110.42688 119.10668L110.42688 123.02856Q110.42688 123.41918 110.58313 123.60668Q110.73938 123.79418 111.11438 123.79418Q111.30188 123.79418 111.630005 123.73168L111.630005 124.60668Q111.20813 124.73168 110.80188 124.73168Q110.08313 124.73168 109.70813 124.29418Q109.33313 123.84106 109.33313 123.02856L109.33313 119.10668L108.17688 119.10668L108.17688 118.26293L109.33313 118.26293L109.33313 116.73168L110.42688 116.73168ZM114.130005 124.60668L113.05188 124.60668L113.05188 118.26293L114.130005 118.26293L114.130005 124.60668ZM112.95813 116.59106Q112.95813 116.32543 113.11438 116.13793Q113.286255 115.95043 113.598755 115.95043Q113.911255 115.95043 114.067505 116.13793Q114.23938 116.32543 114.23938 116.59106Q114.23938 116.84106 114.067505 117.02856Q113.911255 117.20043 113.598755 117.20043Q113.286255 117.20043 113.11438 117.02856Q112.95813 116.84106 112.95813 116.59106ZM115.661255 121.37231Q115.661255 120.45043 116.02063 119.70043Q116.39563 118.95043 117.05188 118.55981Q117.70813 118.15356 118.536255 118.15356Q119.83313 118.15356 120.630005 119.04418Q121.442505 119.93481 121.442505 121.43481L121.442505 121.51293Q121.442505 122.43481 121.08313 123.16918Q120.723755 123.90356 120.067505 124.32543Q119.411255 124.73168 118.55188 124.73168Q117.27063 124.73168 116.45813 123.84106Q115.661255 122.93481 115.661255 121.45043L115.661255 121.37231ZM116.755005 121.51293Q116.755005 122.55981 117.23938 123.20043Q117.73938 123.84106 118.55188 123.84106Q119.380005 123.84106 119.86438 123.20043Q120.348755 122.54418 120.348755 121.37231Q120.348755 120.34106 119.848755 119.70043Q119.36438 119.04418 118.536255 119.04418Q117.73938 119.04418 117.23938 119.68481Q116.755005 120.30981 116.755005 121.51293ZM123.973755 118.26293L124.005005 119.05981Q124.73938 118.15356 125.911255 118.15356Q127.92688 118.15356 127.942505 120.41918L127.942505 124.60668L126.848755 124.60668L126.848755 120.40356Q126.848755 119.73168 126.536255 119.40356Q126.23938 119.07543 125.58313 119.07543Q125.05188 119.07543 124.64563 119.35668Q124.255005 119.63793 124.036255 120.09106L124.036255 124.60668L122.95813 124.60668L122.95813 118.26293L123.973755 118.26293ZM129.91125 126.30981L129.30188 125.88793Q129.84875 125.12231 129.88 124.29418L129.88 123.32543L130.9425 123.32543L130.9425 124.16918Q130.9425 124.76293 130.64563 125.35668Q130.34875 125.95043 129.91125 126.30981Z" fill-rule="nonzero"/><path fill="#757575" d="M69.13 139.60669L68.05187 139.60669L68.05187 133.26294L69.13 133.26294L69.13 139.60669ZM67.95812 131.59106Q67.95812 131.32544 68.11437 131.13794Q68.28625 130.95044 68.59875 130.95044Q68.91125 130.95044 69.0675 131.13794Q69.23937 131.32544 69.23937 131.59106Q69.23937 131.84106 69.0675 132.02856Q68.91125 132.20044 68.59875 132.20044Q68.28625 132.20044 68.11437 132.02856Q67.95812 131.84106 67.95812 131.59106ZM71.97375 133.26294L72.005 134.05981Q72.73937 133.15356 73.91125 133.15356Q75.92687 133.15356 75.9425 135.41919L75.9425 139.60669L74.84875 139.60669L74.84875 135.40356Q74.84875 134.73169 74.53625 134.40356Q74.23937 134.07544 73.58312 134.07544Q73.05187 134.07544 72.64562 134.35669Q72.255 134.63794 72.03625 135.09106L72.03625 139.60669L70.95812 139.60669L70.95812 133.26294L71.97375 133.26294ZM78.48937 139.60669L78.48937 134.10669L77.48937 134.10669L77.48937 133.26294L78.48937 133.26294L78.48937 132.62231Q78.48937 131.59106 79.02062 131.04419Q79.5675 130.48169 80.5675 130.48169Q80.9425 130.48169 81.3175 130.57544L81.255 131.46606Q80.97375 131.40356 80.67687 131.40356Q80.14562 131.40356 79.84875 131.71606Q79.5675 132.02856 79.5675 132.59106L79.5675 133.26294L80.92687 133.26294L80.92687 134.10669L79.5675 134.10669L79.5675 139.60669L78.48937 139.60669ZM81.66125 136.37231Q81.66125 135.45044 82.02062 134.70044Q82.39562 133.95044 83.05187 133.55981Q83.70812 133.15356 84.53625 133.15356Q85.83312 133.15356 86.63 134.04419Q87.4425 134.93481 87.4425 136.43481L87.4425 136.51294Q87.4425 137.43481 87.08312 138.16919Q86.72375 138.90356 86.0675 139.32544Q85.41125 139.73169 84.55187 139.73169Q83.27062 139.73169 82.45812 138.84106Q81.66125 137.93481 81.66125 136.45044L81.66125 136.37231ZM82.755 136.51294Q82.755 137.55981 83.23937 138.20044Q83.73937 138.84106 84.55187 138.84106Q85.38 138.84106 85.86437 138.20044Q86.34875 137.54419 86.34875 136.37231Q86.34875 135.34106 85.84875 134.70044Q85.36437 134.04419 84.53625 134.04419Q83.73937 134.04419 83.23937 134.68481Q82.755 135.30981 82.755 136.51294ZM92.02062 134.23169Q91.77062 134.20044 91.48937 134.20044Q90.41125 134.20044 90.03625 135.10669L90.03625 139.60669L88.95812 139.60669L88.95812 133.26294L90.005 133.26294L90.02062 133.99731Q90.55187 133.15356 91.53625 133.15356Q91.84875 133.15356 92.02062 133.23169L92.02062 134.23169ZM93.97375 133.26294L94.005 133.96606Q94.6925 133.15356 95.88 133.15356Q97.20812 133.15356 97.6925 134.16919Q98.005 133.71606 98.505 133.43481Q99.02062 133.15356 99.70812 133.15356Q101.80187 133.15356 101.83312 135.35669L101.83312 139.60669L100.755 139.60669L100.755 135.41919Q100.755 134.74731 100.4425 134.41919Q100.13 134.07544 99.39562 134.07544Q98.78625 134.07544 98.38 134.43481Q97.98937 134.79419 97.92687 135.40356L97.92687 139.60669L96.84875 139.60669L96.84875 135.45044Q96.84875 134.07544 95.48937 134.07544Q94.42687 134.07544 94.03625 134.98169L94.03625 139.60669L92.9425 139.60669L92.9425 133.26294L93.97375 133.26294ZM107.86437 139.60669Q107.77062 139.41919 107.70812 138.93481Q106.95812 139.73169 105.91125 139.73169Q104.97375 139.73169 104.36437 139.20044Q103.77062 138.66919 103.77062 137.84106Q103.77062 136.85669 104.52062 136.30981Q105.27062 135.76294 106.64562 135.76294L107.6925 135.76294L107.6925 135.26294Q107.6925 134.70044 107.34875 134.37231Q107.02062 134.02856 106.34875 134.02856Q105.77062 134.02856 105.38 134.32544Q104.98937 134.60669 104.98937 135.02856L103.89562 135.02856Q103.89562 134.54419 104.22375 134.10669Q104.5675 133.66919 105.14562 133.41919Q105.72375 133.15356 106.41125 133.15356Q107.52062 133.15356 108.13 133.70044Q108.755 134.24731 108.78625 135.20044L108.78625 138.12231Q108.78625 138.99731 109.005 139.51294L109.005 139.60669L107.86437 139.60669ZM106.0675 138.77856Q106.58312 138.77856 107.03625 138.51294Q107.48937 138.24731 107.6925 137.82544L107.6925 136.52856L106.84875 136.52856Q104.84875 136.52856 104.84875 137.70044Q104.84875 138.20044 105.1925 138.49731Q105.53625 138.77856 106.0675 138.77856ZM112.42687 131.73169L112.42687 133.26294L113.59875 133.26294L113.59875 134.10669L112.42687 134.10669L112.42687 138.02856Q112.42687 138.41919 112.58312 138.60669Q112.73937 138.79419 113.11437 138.79419Q113.30187 138.79419 113.63 138.73169L113.63 139.60669Q113.20812 139.73169 112.80187 139.73169Q112.08312 139.73169 111.70812 139.29419Q111.33312 138.84106 111.33312 138.02856L111.33312 134.10669L110.17687 134.10669L110.17687 133.26294L111.33312 133.26294L111.33312 131.73169L112.42687 131.73169ZM116.13 139.60669L115.05187 139.60669L115.05187 133.26294L116.13 133.26294L116.13 139.60669ZM114.95812 131.59106Q114.95812 131.32544 115.11437 131.13794Q115.28625 130.95044 115.59875 130.95044Q115.91125 130.95044 116.0675 131.13794Q116.23937 131.32544 116.23937 131.59106Q116.23937 131.84106 116.0675 132.02856Q115.91125 132.20044 115.59875 132.20044Q115.28625 132.20044 115.11437 132.02856Q114.95812 131.84106 114.95812 131.59106ZM117.66125 136.37231Q117.66125 135.45044 118.02062 134.70044Q118.39562 133.95044 119.05187 133.55981Q119.70812 133.15356 120.53625 133.15356Q121.83312 133.15356 122.63 134.04419Q123.4425 134.93481 123.4425 136.43481L123.4425 136.51294Q123.4425 137.43481 123.08312 138.16919Q122.72375 138.90356 122.0675 139.32544Q121.41125 139.73169 120.55187 139.73169Q119.27062 139.73169 118.45812 138.84106Q117.66125 137.93481 117.66125 136.45044L117.66125 136.37231ZM118.755 136.51294Q118.755 137.55981 119.23937 138.20044Q119.73937 138.84106 120.55187 138.84106Q121.38 138.84106 121.86437 138.20044Q122.34875 137.54419 122.34875 136.37231Q122.34875 135.34106 121.84875 134.70044Q121.36437 134.04419 120.53625 134.04419Q119.73937 134.04419 119.23937 134.68481Q118.755 135.30981 118.755 136.51294ZM125.97375 133.26294L126.005 134.05981Q126.73937 133.15356 127.91125 133.15356Q129.92688 133.15356 129.9425 135.41919L129.9425 139.60669L128.84875 139.60669L128.84875 135.40356Q128.84875 134.73169 128.53625 134.40356Q128.23938 134.07544 127.58312 134.07544Q127.05187 134.07544 126.64562 134.35669Q126.255 134.63794 126.03625 135.09106L126.03625 139.60669L124.95812 139.60669L124.95812 133.26294L125.97375 133.26294Z" fill-rule="nonzero"/><path fill="#757575" d="M108.6925 159.42625Q108.6925 157.9575 109.38 157.0825Q110.0675 156.19188 111.1925 156.19188Q112.30187 156.19188 112.95812 156.94188L112.95812 153.645L114.03625 153.645L114.03625 162.645L113.03625 162.645L112.98937 161.9575Q112.33312 162.77 111.17687 162.77Q110.08312 162.77 109.38 161.86375Q108.6925 160.9575 108.6925 159.50438L108.6925 159.42625ZM109.77062 159.55125Q109.77062 160.62938 110.20812 161.23875Q110.66125 161.84813 111.4425 161.84813Q112.47375 161.84813 112.95812 160.91063L112.95812 158.00438Q112.47375 157.11375 111.45812 157.11375Q110.66125 157.11375 110.20812 157.72313Q109.77062 158.3325 109.77062 159.55125ZM117.13 162.645L116.05187 162.645L116.05187 156.30125L117.13 156.30125L117.13 162.645ZM115.95812 154.62938Q115.95812 154.36375 116.11437 154.17625Q116.28625 153.98875 116.59875 153.98875Q116.91125 153.98875 117.0675 154.17625Q117.23937 154.36375 117.23937 154.62938Q117.23937 154.87938 117.0675 155.06688Q116.91125 155.23875 116.59875 155.23875Q116.28625 155.23875 116.11437 155.06688Q115.95812 154.87938 115.95812 154.62938ZM121.58312 162.77Q120.28625 162.77 119.47375 161.92625Q118.67687 161.06688 118.67687 159.645L118.67687 159.4575Q118.67687 158.50438 119.03625 157.77Q119.39562 157.02 120.03625 156.61375Q120.6925 156.19188 121.4425 156.19188Q122.67687 156.19188 123.36437 157.00438Q124.05187 157.81688 124.05187 159.3325L124.05187 159.78563L119.755 159.78563Q119.78625 160.72313 120.30187 161.30125Q120.83312 161.87938 121.64562 161.87938Q122.20812 161.87938 122.59875 161.645Q123.005 161.41063 123.3175 161.02L123.97375 161.53563Q123.17687 162.77 121.58312 162.77ZM121.4425 157.0825Q120.78625 157.0825 120.33312 157.56688Q119.89562 158.03563 119.80187 158.895L122.97375 158.895L122.97375 158.81688Q122.92687 157.98875 122.52062 157.53563Q122.13 157.0825 121.4425 157.0825ZM125.97375 156.30125L126.005 157.09813Q126.73937 156.19188 127.91125 156.19188Q129.92688 156.19188 129.9425 158.4575L129.9425 162.645L128.84875 162.645L128.84875 158.44188Q128.84875 157.77 128.53625 157.44188Q128.23938 157.11375 127.58312 157.11375Q127.05187 157.11375 126.64562 157.395Q126.255 157.67625 126.03625 158.12938L126.03625 162.645L124.95812 162.645L124.95812 156.30125L125.97375 156.30125Z" fill-rule="nonzero"/><path fill="#757575" d="M84.3175 190.08958Q84.3175 191.54271 83.64562 192.43333Q82.98937 193.30833 81.86437 193.30833Q80.66125 193.30833 80.005 192.44896L79.9425 193.18333L78.95812 193.18333L78.95812 184.18333L80.03625 184.18333L80.03625 187.54271Q80.6925 186.73021 81.84875 186.73021Q83.005 186.73021 83.66125 187.60521Q84.3175 188.46458 84.3175 189.99583L84.3175 190.08958ZM83.23937 189.96458Q83.23937 188.85521 82.80187 188.26146Q82.38 187.65208 81.58312 187.65208Q80.505 187.65208 80.03625 188.63646L80.03625 191.38646Q80.53625 192.38646 81.58312 192.38646Q82.36437 192.38646 82.80187 191.77708Q83.23937 191.16771 83.23937 189.96458ZM87.13 193.18333L86.05187 193.18333L86.05187 186.83958L87.13 186.83958L87.13 193.18333ZM85.95812 185.16771Q85.95812 184.90208 86.11437 184.71458Q86.28625 184.52708 86.59875 184.52708Q86.91125 184.52708 87.0675 184.71458Q87.23937 184.90208 87.23937 185.16771Q87.23937 185.41771 87.0675 185.60521Q86.91125 185.77708 86.59875 185.77708Q86.28625 185.77708 86.11437 185.60521Q85.95812 185.41771 85.95812 185.16771ZM94.3175 190.08958Q94.3175 191.54271 93.64562 192.43333Q92.98937 193.30833 91.86437 193.30833Q90.66125 193.30833 90.005 192.44896L89.9425 193.18333L88.95812 193.18333L88.95812 184.18333L90.03625 184.18333L90.03625 187.54271Q90.6925 186.73021 91.84875 186.73021Q93.005 186.73021 93.66125 187.60521Q94.3175 188.46458 94.3175 189.99583L94.3175 190.08958ZM93.23937 189.96458Q93.23937 188.85521 92.80187 188.26146Q92.38 187.65208 91.58312 187.65208Q90.505 187.65208 90.03625 188.63646L90.03625 191.38646Q90.53625 192.38646 91.58312 192.38646Q92.36437 192.38646 92.80187 191.77708Q93.23937 191.16771 93.23937 189.96458ZM97.13 193.18333L96.05187 193.18333L96.05187 184.18333L97.13 184.18333L97.13 193.18333ZM100.13 193.18333L99.05187 193.18333L99.05187 186.83958L100.13 186.83958L100.13 193.18333ZM98.95812 185.16771Q98.95812 184.90208 99.11437 184.71458Q99.28625 184.52708 99.59875 184.52708Q99.91125 184.52708 100.0675 184.71458Q100.23937 184.90208 100.23937 185.16771Q100.23937 185.41771 100.0675 185.60521Q99.91125 185.77708 99.59875 185.77708Q99.28625 185.77708 99.11437 185.60521Q98.95812 185.41771 98.95812 185.16771ZM101.66125 189.94896Q101.66125 189.02708 102.02062 188.27708Q102.39562 187.52708 103.05187 187.13646Q103.70812 186.73021 104.53625 186.73021Q105.83312 186.73021 106.63 187.62083Q107.4425 188.51146 107.4425 190.01146L107.4425 190.08958Q107.4425 191.01146 107.08312 191.74583Q106.72375 192.48021 106.0675 192.90208Q105.41125 193.30833 104.55187 193.30833Q103.27062 193.30833 102.45812 192.41771Q101.66125 191.51146 101.66125 190.02708L101.66125 189.94896ZM102.755 190.08958Q102.755 191.13646 103.23937 191.77708Q103.73937 192.41771 104.55187 192.41771Q105.38 192.41771 105.86437 191.77708Q106.34875 191.12083 106.34875 189.94896Q106.34875 188.91771 105.84875 188.27708Q105.36437 187.62083 104.53625 187.62083Q103.73937 187.62083 103.23937 188.26146Q102.755 188.88646 102.755 190.08958ZM110.42687 185.30833L110.42687 186.83958L111.59875 186.83958L111.59875 187.68333L110.42687 187.68333L110.42687 191.60521Q110.42687 191.99583 110.58312 192.18333Q110.73937 192.37083 111.11437 192.37083Q111.30187 192.37083 111.63 192.30833L111.63 193.18333Q111.20812 193.30833 110.80187 193.30833Q110.08312 193.30833 109.70812 192.87083Q109.33312 192.41771 109.33312 191.60521L109.33312 187.68333L108.17687 187.68333L108.17687 186.83958L109.33312 186.83958L109.33312 185.30833L110.42687 185.30833ZM114.03625 187.60521Q114.755 186.73021 115.91125 186.73021Q117.92687 186.73021 117.9425 188.99583L117.9425 193.18333L116.84875 193.18333L116.84875 188.98021Q116.84875 188.30833 116.53625 187.98021Q116.23937 187.65208 115.58312 187.65208Q115.05187 187.65208 114.64562 187.93333Q114.255 188.21458 114.03625 188.66771L114.03625 193.18333L112.95812 193.18333L112.95812 184.18333L114.03625 184.18333L114.03625 187.60521ZM122.58312 193.30833Q121.28625 193.30833 120.47375 192.46458Q119.67687 191.60521 119.67687 190.18333L119.67687 189.99583Q119.67687 189.04271 120.03625 188.30833Q120.39562 187.55833 121.03625 187.15208Q121.6925 186.73021 122.4425 186.73021Q123.67687 186.73021 124.36437 187.54271Q125.05187 188.35521 125.05187 189.87083L125.05187 190.32396L120.755 190.32396Q120.78625 191.26146 121.30187 191.83958Q121.83312 192.41771 122.64562 192.41771Q123.20812 192.41771 123.59875 192.18333Q124.005 191.94896 124.3175 191.55833L124.97375 192.07396Q124.17687 193.30833 122.58312 193.30833ZM122.4425 187.62083Q121.78625 187.62083 121.33312 188.10521Q120.89562 188.57396 120.80187 189.43333L123.97375 189.43333L123.97375 189.35521Q123.92687 188.52708 123.52062 188.07396Q123.13 187.62083 122.4425 187.62083ZM127.72375 190.24583L127.03625 190.94896L127.03625 193.18333L125.95812 193.18333L125.95812 184.18333L127.03625 184.18333L127.03625 189.62083L127.61437 188.93333L129.59875 186.83958L130.91125 186.83958L128.4425 189.49583L131.20813 193.18333L129.92688 193.18333L127.72375 190.24583Z" fill-rule="nonzero"/><path fill="#757575" d="M84.3175 220.62791Q84.3175 222.08104 83.64562 222.97166Q82.98937 223.84666 81.86437 223.84666Q80.66125 223.84666 80.005 222.98729L79.9425 223.72166L78.95812 223.72166L78.95812 214.72166L80.03625 214.72166L80.03625 218.08104Q80.6925 217.26854 81.84875 217.26854Q83.005 217.26854 83.66125 218.14354Q84.3175 219.00291 84.3175 220.53416L84.3175 220.62791ZM83.23937 220.50291Q83.23937 219.39354 82.80187 218.79979Q82.38 218.19041 81.58312 218.19041Q80.505 218.19041 80.03625 219.17479L80.03625 221.92479Q80.53625 222.92479 81.58312 222.92479Q82.36437 222.92479 82.80187 222.31541Q83.23937 221.70604 83.23937 220.50291ZM87.13 223.72166L86.05187 223.72166L86.05187 217.37791L87.13 217.37791L87.13 223.72166ZM85.95812 215.70604Q85.95812 215.44041 86.11437 215.25291Q86.28625 215.06541 86.59875 215.06541Q86.91125 215.06541 87.0675 215.25291Q87.23937 215.44041 87.23937 215.70604Q87.23937 215.95604 87.0675 216.14354Q86.91125 216.31541 86.59875 216.31541Q86.28625 216.31541 86.11437 216.14354Q85.95812 215.95604 85.95812 215.70604ZM94.3175 220.62791Q94.3175 222.08104 93.64562 222.97166Q92.98937 223.84666 91.86437 223.84666Q90.66125 223.84666 90.005 222.98729L89.9425 223.72166L88.95812 223.72166L88.95812 214.72166L90.03625 214.72166L90.03625 218.08104Q90.6925 217.26854 91.84875 217.26854Q93.005 217.26854 93.66125 218.14354Q94.3175 219.00291 94.3175 220.53416L94.3175 220.62791ZM93.23937 220.50291Q93.23937 219.39354 92.80187 218.79979Q92.38 218.19041 91.58312 218.19041Q90.505 218.19041 90.03625 219.17479L90.03625 221.92479Q90.53625 222.92479 91.58312 222.92479Q92.36437 222.92479 92.80187 222.31541Q93.23937 221.70604 93.23937 220.50291ZM97.13 223.72166L96.05187 223.72166L96.05187 214.72166L97.13 214.72166L97.13 223.72166ZM100.13 223.72166L99.05187 223.72166L99.05187 217.37791L100.13 217.37791L100.13 223.72166ZM98.95812 215.70604Q98.95812 215.44041 99.11437 215.25291Q99.28625 215.06541 99.59875 215.06541Q99.91125 215.06541 100.0675 215.25291Q100.23937 215.44041 100.23937 215.70604Q100.23937 215.95604 100.0675 216.14354Q99.91125 216.31541 99.59875 216.31541Q99.28625 216.31541 99.11437 216.14354Q98.95812 215.95604 98.95812 215.70604ZM101.66125 220.48729Q101.66125 219.56541 102.02062 218.81541Q102.39562 218.06541 103.05187 217.67479Q103.70812 217.26854 104.53625 217.26854Q105.83312 217.26854 106.63 218.15916Q107.4425 219.04979 107.4425 220.54979L107.4425 220.62791Q107.4425 221.54979 107.08312 222.28416Q106.72375 223.01854 106.0675 223.44041Q105.41125 223.84666 104.55187 223.84666Q103.27062 223.84666 102.45812 222.95604Q101.66125 222.04979 101.66125 220.56541L101.66125 220.48729ZM102.755 220.62791Q102.755 221.67479 103.23937 222.31541Q103.73937 222.95604 104.55187 222.95604Q105.38 222.95604 105.86437 222.31541Q106.34875 221.65916 106.34875 220.48729Q106.34875 219.45604 105.84875 218.81541Q105.36437 218.15916 104.53625 218.15916Q103.73937 218.15916 103.23937 218.79979Q102.755 219.42479 102.755 220.62791ZM110.42687 215.84666L110.42687 217.37791L111.59875 217.37791L111.59875 218.22166L110.42687 218.22166L110.42687 222.14354Q110.42687 222.53416 110.58312 222.72166Q110.73937 222.90916 111.11437 222.90916Q111.30187 222.90916 111.63 222.84666L111.63 223.72166Q111.20812 223.84666 110.80187 223.84666Q110.08312 223.84666 109.70812 223.40916Q109.33312 222.95604 109.33312 222.14354L109.33312 218.22166L108.17687 218.22166L108.17687 217.37791L109.33312 217.37791L109.33312 215.84666L110.42687 215.84666ZM114.03625 218.14354Q114.755 217.26854 115.91125 217.26854Q117.92687 217.26854 117.9425 219.53416L117.9425 223.72166L116.84875 223.72166L116.84875 219.51854Q116.84875 218.84666 116.53625 218.51854Q116.23937 218.19041 115.58312 218.19041Q115.05187 218.19041 114.64562 218.47166Q114.255 218.75291 114.03625 219.20604L114.03625 223.72166L112.95812 223.72166L112.95812 214.72166L114.03625 214.72166L114.03625 218.14354ZM122.58312 223.84666Q121.28625 223.84666 120.47375 223.00291Q119.67687 222.14354 119.67687 220.72166L119.67687 220.53416Q119.67687 219.58104 120.03625 218.84666Q120.39562 218.09666 121.03625 217.69041Q121.6925 217.26854 122.4425 217.26854Q123.67687 217.26854 124.36437 218.08104Q125.05187 218.89354 125.05187 220.40916L125.05187 220.86229L120.755 220.86229Q120.78625 221.79979 121.30187 222.37791Q121.83312 222.95604 122.64562 222.95604Q123.20812 222.95604 123.59875 222.72166Q124.005 222.48729 124.3175 222.09666L124.97375 222.61229Q124.17687 223.84666 122.58312 223.84666ZM122.4425 218.15916Q121.78625 218.15916 121.33312 218.64354Q120.89562 219.11229 120.80187 219.97166L123.97375 219.97166L123.97375 219.89354Q123.92687 219.06541 123.52062 218.61229Q123.13 218.15916 122.4425 218.15916ZM127.72375 220.78416L127.03625 221.48729L127.03625 223.72166L125.95812 223.72166L125.95812 214.72166L127.03625 214.72166L127.03625 220.15916L127.61437 219.47166L129.59875 217.37791L130.91125 217.37791L128.4425 220.03416L131.20813 223.72166L129.92688 223.72166L127.72375 220.78416Z" fill-rule="nonzero"/><path fill="#757575" d="M119.64562 252.57248Q119.64562 252.13498 119.30187 251.9006Q118.97375 251.6506 118.14562 251.47873Q117.33312 251.30685 116.84875 251.05685Q116.36437 250.80685 116.13 250.47873Q115.91125 250.13498 115.91125 249.66623Q115.91125 248.88498 116.5675 248.35373Q117.22375 247.80685 118.255 247.80685Q119.33312 247.80685 119.98937 248.36935Q120.66125 248.91623 120.66125 249.7756L119.58312 249.7756Q119.58312 249.3381 119.1925 249.0256Q118.8175 248.69748 118.255 248.69748Q117.66125 248.69748 117.3175 248.9631Q116.98937 249.2131 116.98937 249.61935Q116.98937 250.00998 117.30187 250.2131Q117.61437 250.41623 118.42687 250.60373Q119.23937 250.7756 119.73937 251.0256Q120.23937 251.2756 120.47375 251.63498Q120.72375 251.99435 120.72375 252.49435Q120.72375 253.35373 120.03625 253.86935Q119.36437 254.38498 118.28625 254.38498Q117.52062 254.38498 116.92687 254.11935Q116.34875 253.8381 116.02062 253.35373Q115.6925 252.86935 115.6925 252.30685L116.77062 252.30685Q116.80187 252.85373 117.20812 253.18185Q117.61437 253.49435 118.28625 253.49435Q118.89562 253.49435 119.27062 253.24435Q119.64562 252.99435 119.64562 252.57248ZM121.6925 251.04123Q121.6925 249.57248 122.38 248.69748Q123.0675 247.80685 124.1925 247.80685Q125.30187 247.80685 125.95812 248.55685L125.95812 245.25998L127.03625 245.25998L127.03625 254.25998L126.03625 254.25998L125.98937 253.57248Q125.33312 254.38498 124.17687 254.38498Q123.08312 254.38498 122.38 253.47873Q121.6925 252.57248 121.6925 251.11935L121.6925 251.04123ZM122.77062 251.16623Q122.77062 252.24435 123.20812 252.85373Q123.66125 253.4631 124.4425 253.4631Q125.47375 253.4631 125.95812 252.5256L125.95812 249.61935Q125.47375 248.72873 124.45812 248.72873Q123.66125 248.72873 123.20812 249.3381Q122.77062 249.94748 122.77062 251.16623ZM130.13 254.25998L129.05188 254.25998L129.05188 247.91623L130.13 247.91623L130.13 254.25998ZM128.95813 246.24435Q128.95813 245.97873 129.11438 245.79123Q129.28625 245.60373 129.59875 245.60373Q129.91125 245.60373 130.0675 245.79123Q130.23938 245.97873 130.23938 246.24435Q130.23938 246.49435 130.0675 246.68185Q129.91125 246.85373 129.59875 246.85373Q129.28625 246.85373 129.11438 246.68185Q128.95813 246.49435 128.95813 246.24435Z" fill-rule="nonzero"/><path fill="#757575" d="M119.64562 283.1108Q119.64562 282.6733 119.30187 282.43893Q118.97375 282.18893 118.14562 282.01706Q117.33312 281.84518 116.84875 281.59518Q116.36437 281.34518 116.13 281.01706Q115.91125 280.6733 115.91125 280.20456Q115.91125 279.4233 116.5675 278.89206Q117.22375 278.34518 118.255 278.34518Q119.33312 278.34518 119.98937 278.90768Q120.66125 279.45456 120.66125 280.31393L119.58312 280.31393Q119.58312 279.87643 119.1925 279.56393Q118.8175 279.2358 118.255 279.2358Q117.66125 279.2358 117.3175 279.50143Q116.98937 279.75143 116.98937 280.15768Q116.98937 280.5483 117.30187 280.75143Q117.61437 280.95456 118.42687 281.14206Q119.23937 281.31393 119.73937 281.56393Q120.23937 281.81393 120.47375 282.1733Q120.72375 282.53268 120.72375 283.03268Q120.72375 283.89206 120.03625 284.40768Q119.36437 284.9233 118.28625 284.9233Q117.52062 284.9233 116.92687 284.65768Q116.34875 284.37643 116.02062 283.89206Q115.6925 283.40768 115.6925 282.84518L116.77062 282.84518Q116.80187 283.39206 117.20812 283.72018Q117.61437 284.03268 118.28625 284.03268Q118.89562 284.03268 119.27062 283.78268Q119.64562 283.53268 119.64562 283.1108ZM121.6925 281.57956Q121.6925 280.1108 122.38 279.2358Q123.0675 278.34518 124.1925 278.34518Q125.30187 278.34518 125.95812 279.09518L125.95812 275.7983L127.03625 275.7983L127.03625 284.7983L126.03625 284.7983L125.98937 284.1108Q125.33312 284.9233 124.17687 284.9233Q123.08312 284.9233 122.38 284.01706Q121.6925 283.1108 121.6925 281.65768L121.6925 281.57956ZM122.77062 281.70456Q122.77062 282.78268 123.20812 283.39206Q123.66125 284.00143 124.4425 284.00143Q125.47375 284.00143 125.95812 283.06393L125.95812 280.15768Q125.47375 279.26706 124.45812 279.26706Q123.66125 279.26706 123.20812 279.87643Q122.77062 280.4858 122.77062 281.70456ZM130.13 284.7983L129.05188 284.7983L129.05188 278.45456L130.13 278.45456L130.13 284.7983ZM128.95813 276.78268Q128.95813 276.51706 129.11438 276.32956Q129.28625 276.14206 129.59875 276.14206Q129.91125 276.14206 130.0675 276.32956Q130.23938 276.51706 130.23938 276.78268Q130.23938 277.03268 130.0675 277.22018Q129.91125 277.39206 129.59875 277.39206Q129.28625 277.39206 129.11438 277.22018Q128.95813 277.03268 128.95813 276.78268Z" fill-rule="nonzero"/><path fill="#757575" d="M105.86437 315.33664Q105.77062 315.14914 105.70812 314.66476Q104.95812 315.46164 103.91125 315.46164Q102.97375 315.46164 102.36437 314.9304Q101.77062 314.39914 101.77062 313.571Q101.77062 312.58664 102.52062 312.03976Q103.27062 311.4929 104.64562 311.4929L105.6925 311.4929L105.6925 310.9929Q105.6925 310.4304 105.34875 310.10226Q105.02062 309.7585 104.34875 309.7585Q103.77062 309.7585 103.38 310.0554Q102.98937 310.33664 102.98937 310.7585L101.89562 310.7585Q101.89562 310.27414 102.22375 309.83664Q102.5675 309.39914 103.14562 309.14914Q103.72375 308.8835 104.41125 308.8835Q105.52062 308.8835 106.13 309.4304Q106.755 309.97726 106.78625 310.9304L106.78625 313.85226Q106.78625 314.72726 107.005 315.2429L107.005 315.33664L105.86437 315.33664ZM104.0675 314.5085Q104.58312 314.5085 105.03625 314.2429Q105.48937 313.97726 105.6925 313.5554L105.6925 312.2585L104.84875 312.2585Q102.84875 312.2585 102.84875 313.4304Q102.84875 313.9304 103.1925 314.22726Q103.53625 314.5085 104.0675 314.5085ZM110.72375 312.39914L110.03625 313.10226L110.03625 315.33664L108.95812 315.33664L108.95812 306.33664L110.03625 306.33664L110.03625 311.77414L110.61437 311.08664L112.59875 308.9929L113.91125 308.9929L111.4425 311.64914L114.20812 315.33664L112.92687 315.33664L110.72375 312.39914ZM116.42687 307.46164L116.42687 308.9929L117.59875 308.9929L117.59875 309.83664L116.42687 309.83664L116.42687 313.7585Q116.42687 314.14914 116.58312 314.33664Q116.73937 314.52414 117.11437 314.52414Q117.30187 314.52414 117.63 314.46164L117.63 315.33664Q117.20812 315.46164 116.80187 315.46164Q116.08312 315.46164 115.70812 315.02414Q115.33312 314.571 115.33312 313.7585L115.33312 309.83664L114.17687 309.83664L114.17687 308.9929L115.33312 308.9929L115.33312 307.46164L116.42687 307.46164ZM122.86437 314.71164Q122.23937 315.46164 121.005 315.46164Q119.98937 315.46164 119.45812 314.8679Q118.92687 314.27414 118.92687 313.1179L118.92687 308.9929L120.005 308.9929L120.005 313.08664Q120.005 314.53976 121.17687 314.53976Q122.42687 314.53976 122.83312 313.60226L122.83312 308.9929L123.92687 308.9929L123.92687 315.33664L122.89562 315.33664L122.86437 314.71164ZM127.13 315.33664L126.05187 315.33664L126.05187 306.33664L127.13 306.33664L127.13 315.33664ZM130.13 315.33664L129.05188 315.33664L129.05188 306.33664L130.13 306.33664L130.13 315.33664Z" fill-rule="nonzero"/><path fill="#757575" d="M139.6925 345.8094Q139.6925 347.71564 139.03625 348.65314Q138.39563 349.575 137.005 349.575Q135.64563 349.575 134.98938 348.66876Q134.33313 347.7625 134.30188 345.95L134.30188 344.5125Q134.30188 342.6219 134.9425 341.71564Q135.59875 340.79376 136.98938 340.79376Q138.36438 340.79376 139.02063 341.6844Q139.67688 342.5594 139.6925 344.40314L139.6925 345.8094ZM138.59875 344.325Q138.59875 342.95 138.20813 342.325Q137.83313 341.6844 136.98938 341.6844Q136.16125 341.6844 135.77063 342.325Q135.39563 342.95 135.39563 344.2469L135.39563 345.98126Q135.39563 347.35626 135.78625 348.02814Q136.1925 348.6844 137.005 348.6844Q137.80188 348.6844 138.1925 348.0594Q138.58313 347.4344 138.59875 346.10626L138.59875 344.325Z" fill-rule="nonzero"/><path fill="#757575" d="M223.69713 345.16876L224.13463 340.91876L228.50963 340.91876L228.50963 341.91876L225.0565 341.91876L224.79088 344.2469Q225.4315 343.8719 226.22838 343.8719Q227.38463 343.8719 228.07213 344.65314Q228.75963 345.41876 228.75963 346.73126Q228.75963 348.04376 228.04088 348.8094Q227.33775 349.575 226.0565 349.575Q224.9315 349.575 224.21275 348.95Q223.494 348.3094 223.40025 347.2L224.41588 347.2Q224.52525 347.9344 224.94713 348.3094Q225.369 348.6844 226.0565 348.6844Q226.8065 348.6844 227.244 348.16876Q227.6815 347.65314 227.6815 346.7469Q227.6815 345.8875 227.21275 345.3719Q226.744 344.85626 225.96275 344.85626Q225.25963 344.85626 224.85338 345.15314L224.57213 345.3875L223.69713 345.16876Z" fill-rule="nonzero"/><path fill="#757575" d="M312.12363 349.45L311.0455 349.45L311.0455 342.23126L308.858 343.02814L308.858 342.04376L311.96738 340.8719L312.12363 340.8719L312.12363 349.45ZM320.9205 345.8094Q320.9205 347.71564 320.26425 348.65314Q319.62363 349.575 318.233 349.575Q316.87363 349.575 316.21738 348.66876Q315.56113 347.7625 315.52988 345.95L315.52988 344.5125Q315.52988 342.6219 316.1705 341.71564Q316.82675 340.79376 318.21738 340.79376Q319.59238 340.79376 320.24863 341.6844Q320.90488 342.5594 320.9205 344.40314L320.9205 345.8094ZM319.82675 344.325Q319.82675 342.95 319.43613 342.325Q319.06113 341.6844 318.21738 341.6844Q317.38925 341.6844 316.99863 342.325Q316.62363 342.95 316.62363 344.2469L316.62363 345.98126Q316.62363 347.35626 317.01425 348.02814Q317.4205 348.6844 318.233 348.6844Q319.02988 348.6844 319.4205 348.0594Q319.81113 347.4344 319.82675 346.10626L319.82675 344.325Z" fill-rule="nonzero"/><path fill="#757575" d="M400.9876 349.45L399.9095 349.45L399.9095 342.23126L397.722 343.02814L397.722 342.04376L400.83136 340.8719L400.9876 340.8719L400.9876 349.45ZM404.9251 345.16876L405.3626 340.91876L409.7376 340.91876L409.7376 341.91876L406.2845 341.91876L406.01886 344.2469Q406.6595 343.8719 407.45636 343.8719Q408.6126 343.8719 409.3001 344.65314Q409.9876 345.41876 409.9876 346.73126Q409.9876 348.04376 409.26886 348.8094Q408.56573 349.575 407.2845 349.575Q406.1595 349.575 405.44073 348.95Q404.722 348.3094 404.62823 347.2L405.64386 347.2Q405.75323 347.9344 406.1751 348.3094Q406.597 348.6844 407.2845 348.6844Q408.0345 348.6844 408.472 348.16876Q408.9095 347.65314 408.9095 346.7469Q408.9095 345.8875 408.44073 345.3719Q407.972 344.85626 407.19073 344.85626Q406.4876 344.85626 406.08136 345.15314L405.8001 345.3875L404.9251 345.16876Z" fill-rule="nonzero"/><path fill="#757575" d="M491.88287 349.45L486.28912 349.45L486.28912 348.66876L489.24225 345.3875Q489.8985 344.6375 490.1485 344.1844Q490.3985 343.71564 490.3985 343.21564Q490.3985 342.54376 489.99225 342.1219Q489.60162 341.6844 488.91412 341.6844Q488.11725 341.6844 487.66412 342.15314Q487.211 342.60626 487.211 343.4344L486.13287 343.4344Q486.13287 342.2469 486.88287 341.52814Q487.6485 340.79376 488.91412 340.79376Q490.11725 340.79376 490.80475 341.41876Q491.49225 342.04376 491.49225 343.09064Q491.49225 344.34064 489.88287 346.09064L487.60162 348.5594L491.88287 348.5594L491.88287 349.45ZM498.6485 345.8094Q498.6485 347.71564 497.99225 348.65314Q497.35162 349.575 495.961 349.575Q494.60162 349.575 493.94537 348.66876Q493.28912 347.7625 493.25787 345.95L493.25787 344.5125Q493.25787 342.6219 493.8985 341.71564Q494.55475 340.79376 495.94537 340.79376Q497.32037 340.79376 497.97662 341.6844Q498.63287 342.5594 498.6485 344.40314L498.6485 345.8094ZM497.55475 344.325Q497.55475 342.95 497.16412 342.325Q496.78912 341.6844 495.94537 341.6844Q495.11725 341.6844 494.72662 342.325Q494.35162 342.95 494.35162 344.2469L494.35162 345.98126Q494.35162 347.35626 494.74225 348.02814Q495.1485 348.6844 495.961 348.6844Q496.75787 348.6844 497.1485 348.0594Q497.53912 347.4344 497.55475 346.10626L497.55475 344.325Z" fill-rule="nonzero"/><path fill="#757575" d="M580.7469 349.45L575.15314 349.45L575.15314 348.66876L578.10626 345.3875Q578.7625 344.6375 579.0125 344.1844Q579.2625 343.71564 579.2625 343.21564Q579.2625 342.54376 578.85626 342.1219Q578.46564 341.6844 577.77814 341.6844Q576.98126 341.6844 576.52814 342.15314Q576.075 342.60626 576.075 343.4344L574.9969 343.4344Q574.9969 342.2469 575.7469 341.52814Q576.5125 340.79376 577.77814 340.79376Q578.98126 340.79376 579.66876 341.41876Q580.35626 342.04376 580.35626 343.09064Q580.35626 344.34064 578.7469 346.09064L576.46564 348.5594L580.7469 348.5594L580.7469 349.45ZM582.65314 345.16876L583.09064 340.91876L587.46564 340.91876L587.46564 341.91876L584.0125 341.91876L583.7469 344.2469Q584.3875 343.8719 585.1844 343.8719Q586.34064 343.8719 587.02814 344.65314Q587.71564 345.41876 587.71564 346.73126Q587.71564 348.04376 586.9969 348.8094Q586.29376 349.575 585.0125 349.575Q583.8875 349.575 583.16876 348.95Q582.45 348.3094 582.35626 347.2L583.3719 347.2Q583.48126 347.9344 583.90314 348.3094Q584.325 348.6844 585.0125 348.6844Q585.7625 348.6844 586.2 348.16876Q586.6375 347.65314 586.6375 346.7469Q586.6375 345.8875 586.16876 345.3719Q585.7 344.85626 584.91876 344.85626Q584.21564 344.85626 583.8094 345.15314L583.52814 345.3875L582.65314 345.16876Z" fill-rule="nonzero"/><path fill="#ffcc00" d="M155.0 21.05C155.0 20.497715 155.44771 20.05 156.0 20.05L166.0 20.05C166.55229 20.05 167.0 20.497715 167.0 21.05L167.0 31.05C167.0 31.602285 166.55229 32.05 166.0 32.05L156.0 32.05C155.44771 32.05 155.0 31.602285 155.0 31.05Z" fill-rule="nonzero"/><path fill="#757575" d="M182.29688 29.425Q181.85938 30.05 181.07812 30.3625Q180.29688 30.675 179.26562 30.675Q178.23438 30.675 177.42188 30.190624Q176.60938 29.690624 176.17188 28.784374Q175.73438 27.878124 175.71875 26.690624L175.71875 25.95625Q175.71875 24.01875 176.60938 22.95625Q177.51562 21.89375 179.14062 21.89375Q180.48438 21.89375 181.29688 22.58125Q182.10938 23.26875 182.29688 24.51875L181.17188 24.51875Q180.84375 22.83125 179.15625 22.83125Q178.01562 22.83125 177.4375 23.628124Q176.85938 24.409374 176.84375 25.925L176.84375 26.6125Q176.84375 28.05 177.5 28.909374Q178.15625 29.753124 179.28125 29.753124Q179.90625 29.753124 180.375 29.6125Q180.85938 29.471874 181.17188 29.128124L181.17188 27.221874L179.20312 27.221874L179.20312 26.3L182.29688 26.3L182.29688 29.425ZM186.45312 30.675Q185.15625 30.675 184.34375 29.83125Q183.54688 28.971874 183.54688 27.55L183.54688 27.3625Q183.54688 26.409374 183.90625 25.675Q184.26562 24.925 184.90625 24.51875Q185.5625 24.096874 186.3125 24.096874Q187.54688 24.096874 188.23438 24.909374Q188.92188 25.721874 188.92188 27.2375L188.92188 27.690624L184.625 27.690624Q184.65625 28.628124 185.17188 29.20625Q185.70312 29.784374 186.51562 29.784374Q187.07812 29.784374 187.46875 29.55Q187.875 29.315624 188.1875 28.925L188.84375 29.440624Q188.04688 30.675 186.45312 30.675ZM186.3125 24.9875Q185.65625 24.9875 185.20312 25.471874Q184.76562 25.940624 184.67188 26.8L187.84375 26.8L187.84375 26.721874Q187.79688 25.89375 187.39062 25.440624Q187.0 24.9875 186.3125 24.9875ZM192.89062 25.175Q192.64062 25.14375 192.35938 25.14375Q191.28125 25.14375 190.90625 26.05L190.90625 30.55L189.82812 30.55L189.82812 24.20625L190.875 24.20625L190.89062 24.940624Q191.42188 24.096874 192.40625 24.096874Q192.71875 24.096874 192.89062 24.175L192.89062 25.175ZM194.84375 24.20625L194.875 24.909374Q195.5625 24.096874 196.75 24.096874Q198.07812 24.096874 198.5625 25.1125Q198.875 24.659374 199.375 24.378124Q199.89062 24.096874 200.57812 24.096874Q202.67188 24.096874 202.70312 26.3L202.70312 30.55L201.625 30.55L201.625 26.3625Q201.625 25.690624 201.3125 25.3625Q201.0 25.01875 200.26562 25.01875Q199.65625 25.01875 199.25 25.378124Q198.85938 25.7375 198.79688 26.346874L198.79688 30.55L197.71875 30.55L197.71875 26.39375Q197.71875 25.01875 196.35938 25.01875Q195.29688 25.01875 194.90625 25.925L194.90625 30.55L193.8125 30.55L193.8125 24.20625L194.84375 24.20625ZM208.73438 30.55Q208.64062 30.3625 208.57812 29.878124Q207.82812 30.675 206.78125 30.675Q205.84375 30.675 205.23438 30.14375Q204.64062 29.6125 204.64062 28.784374Q204.64062 27.8 205.39062 27.253124Q206.14062 26.70625 207.51562 26.70625L208.5625 26.70625L208.5625 26.20625Q208.5625 25.64375 208.21875 25.315624Q207.89062 24.971874 207.21875 24.971874Q206.64062 24.971874 206.25 25.26875Q205.85938 25.55 205.85938 25.971874L204.76562 25.971874Q204.76562 25.4875 205.09375 25.05Q205.4375 24.6125 206.01562 24.3625Q206.59375 24.096874 207.28125 24.096874Q208.39062 24.096874 209.0 24.64375Q209.625 25.190624 209.65625 26.14375L209.65625 29.065624Q209.65625 29.940624 209.875 30.45625L209.875 30.55L208.73438 30.55ZM206.9375 29.721874Q207.45312 29.721874 207.90625 29.45625Q208.35938 29.190624 208.5625 28.76875L208.5625 27.471874L207.71875 27.471874Q205.71875 27.471874 205.71875 28.64375Q205.71875 29.14375 206.0625 29.440624Q206.40625 29.721874 206.9375 29.721874ZM212.84375 24.20625L212.875 25.003124Q213.60938 24.096874 214.78125 24.096874Q216.79688 24.096874 216.8125 26.3625L216.8125 30.55L215.71875 30.55L215.71875 26.346874Q215.71875 25.675 215.40625 25.346874Q215.10938 25.01875 214.45312 25.01875Q213.92188 25.01875 213.51562 25.3Q213.125 25.58125 212.90625 26.034374L212.90625 30.55L211.82812 30.55L211.82812 24.20625L212.84375 24.20625ZM226.70312 28.315624L223.125 28.315624L222.32812 30.55L221.17188 30.55L224.42188 22.01875L225.40625 22.01875L228.67188 30.55L227.51562 30.55L226.70312 28.315624ZM223.46875 27.39375L226.375 27.39375L224.92188 23.409374L223.46875 27.39375ZM230.84375 24.20625L230.875 25.003124Q231.60938 24.096874 232.78125 24.096874Q234.79688 24.096874 234.8125 26.3625L234.8125 30.55L233.71875 30.55L233.71875 26.346874Q233.71875 25.675 233.40625 25.346874Q233.10938 25.01875 232.45312 25.01875Q231.92188 25.01875 231.51562 25.3Q231.125 25.58125 230.90625 26.034374L230.90625 30.55L229.82812 30.55L229.82812 24.20625L230.84375 24.20625ZM240.73438 30.55Q240.64062 30.3625 240.57812 29.878124Q239.82812 30.675 238.78125 30.675Q237.84375 30.675 237.23438 30.14375Q236.64062 29.6125 236.64062 28.784374Q236.64062 27.8 237.39062 27.253124Q238.14062 26.70625 239.51562 26.70625L240.5625 26.70625L240.5625 26.20625Q240.5625 25.64375 240.21875 25.315624Q239.89062 24.971874 239.21875 24.971874Q238.64062 24.971874 238.25 25.26875Q237.85938 25.55 237.85938 25.971874L236.76562 25.971874Q236.76562 25.4875 237.09375 25.05Q237.4375 24.6125 238.01562 24.3625Q238.59375 24.096874 239.28125 24.096874Q240.39062 24.096874 241.0 24.64375Q241.625 25.190624 241.65625 26.14375L241.65625 29.065624Q241.65625 29.940624 241.875 30.45625L241.875 30.55L240.73438 30.55ZM238.9375 29.721874Q239.45312 29.721874 239.90625 29.45625Q240.35938 29.190624 240.5625 28.76875L240.5625 27.471874L239.71875 27.471874Q237.71875 27.471874 237.71875 28.64375Q237.71875 29.14375 238.0625 29.440624Q238.40625 29.721874 238.9375 29.721874ZM245.0 30.55L243.92188 30.55L243.92188 21.55L245.0 21.55L245.0 30.55ZM248.89062 28.95625L250.375 24.20625L251.53125 24.20625L248.98438 31.534374Q248.39062 33.1125 247.10938 33.1125L246.89062 33.096874L246.5 33.01875L246.5 32.14375L246.78125 32.159374Q247.34375 32.159374 247.64062 31.940624Q247.95312 31.721874 248.15625 31.128124L248.39062 30.471874L246.125 24.20625L247.3125 24.20625L248.89062 28.95625ZM253.84375 29.659374L257.54688 29.659374L257.54688 30.55L252.51562 30.55L252.51562 29.753124L256.01562 25.1125L252.5625 25.1125L252.5625 24.20625L257.375 24.20625L257.375 24.971874L253.84375 29.659374ZM261.45312 30.675Q260.15625 30.675 259.34375 29.83125Q258.54688 28.971874 258.54688 27.55L258.54688 27.3625Q258.54688 26.409374 258.90625 25.675Q259.26562 24.925 259.90625 24.51875Q260.5625 24.096874 261.3125 24.096874Q262.54688 24.096874 263.23438 24.909374Q263.92188 25.721874 263.92188 27.2375L263.92188 27.690624L259.625 27.690624Q259.65625 28.628124 260.17188 29.20625Q260.70312 29.784374 261.51562 29.784374Q262.07812 29.784374 262.46875 29.55Q262.875 29.315624 263.1875 28.925L263.84375 29.440624Q263.04688 30.675 261.45312 30.675ZM261.3125 24.9875Q260.65625 24.9875 260.20312 25.471874Q259.76562 25.940624 259.67188 26.8L262.84375 26.8L262.84375 26.721874Q262.79688 25.89375 262.39062 25.440624Q262.0 24.9875 261.3125 24.9875ZM267.89062 25.175Q267.64062 25.14375 267.35938 25.14375Q266.28125 25.14375 265.90625 26.05L265.90625 30.55L264.82812 30.55L264.82812 24.20625L265.875 24.20625L265.89062 24.940624Q266.42188 24.096874 267.40625 24.096874Q267.71875 24.096874 267.89062 24.175L267.89062 25.175Z" fill-rule="nonzero"/><path fill="#8cab13" d="M284.0 21.05C284.0 20.497715 284.44772 20.05 285.0 20.05L295.0 20.05C295.55228 20.05 296.0 20.497715 296.0 21.05L296.0 31.05C296.0 31.602285 295.55228 32.05 295.0 32.05L285.0 32.05C284.44772 32.05 284.0 31.602285 284.0 31.05Z" fill-rule="nonzero"/><path fill="#757575" d="M304.98438 30.55L304.98438 22.01875L307.40625 22.01875Q308.51562 22.01875 309.35938 22.51875Q310.21875 23.003124 310.6875 23.909374Q311.15625 24.815624 311.15625 26.003124L311.15625 26.534374Q311.15625 27.753124 310.6875 28.659374Q310.23438 29.565624 309.35938 30.05Q308.5 30.534374 307.35938 30.55L304.98438 30.55ZM306.10938 22.940624L306.10938 29.628124L307.29688 29.628124Q308.59375 29.628124 309.3125 28.83125Q310.04688 28.01875 310.04688 26.51875L310.04688 26.01875Q310.04688 24.565624 309.35938 23.76875Q308.6875 22.95625 307.42188 22.940624L306.10938 22.940624ZM314.0 30.55L312.92188 30.55L312.92188 24.20625L314.0 24.20625L314.0 30.55ZM312.82812 22.534374Q312.82812 22.26875 312.98438 22.08125Q313.15625 21.89375 313.46875 21.89375Q313.78125 21.89375 313.9375 22.08125Q314.10938 22.26875 314.10938 22.534374Q314.10938 22.784374 313.9375 22.971874Q313.78125 23.14375 313.46875 23.14375Q313.15625 23.14375 312.98438 22.971874Q312.82812 22.784374 312.82812 22.534374ZM318.35938 29.784374Q318.9375 29.784374 319.375 29.440624Q319.8125 29.08125 319.85938 28.55L320.89062 28.55Q320.85938 29.096874 320.5 29.596874Q320.15625 30.08125 319.57812 30.378124Q319.01562 30.675 318.35938 30.675Q317.0625 30.675 316.29688 29.815624Q315.54688 28.940624 315.54688 27.440624L315.54688 27.253124Q315.54688 26.33125 315.875 25.6125Q316.21875 24.89375 316.84375 24.503124Q317.48438 24.096874 318.35938 24.096874Q319.42188 24.096874 320.125 24.7375Q320.84375 25.3625 320.89062 26.39375L319.85938 26.39375Q319.8125 25.76875 319.39062 25.378124Q318.96875 24.9875 318.35938 24.9875Q317.53125 24.9875 317.07812 25.58125Q316.625 26.175 316.625 27.3L316.625 27.503124Q316.625 28.596874 317.07812 29.190624Q317.53125 29.784374 318.35938 29.784374ZM323.29688 22.675L323.29688 24.20625L324.46875 24.20625L324.46875 25.05L323.29688 25.05L323.29688 28.971874Q323.29688 29.3625 323.45312 29.55Q323.60938 29.7375 323.98438 29.7375Q324.17188 29.7375 324.5 29.675L324.5 30.55Q324.07812 30.675 323.67188 30.675Q322.95312 30.675 322.57812 30.2375Q322.20312 29.784374 322.20312 28.971874L322.20312 25.05L321.04688 25.05L321.04688 24.20625L322.20312 24.20625L322.20312 22.675L323.29688 22.675ZM327.0 30.55L325.92188 30.55L325.92188 24.20625L327.0 24.20625L327.0 30.55ZM325.82812 22.534374Q325.82812 22.26875 325.98438 22.08125Q326.15625 21.89375 326.46875 21.89375Q326.78125 21.89375 326.9375 22.08125Q327.10938 22.26875 327.10938 22.534374Q327.10938 22.784374 326.9375 22.971874Q326.78125 23.14375 326.46875 23.14375Q326.15625 23.14375 325.98438 22.971874Q325.82812 22.784374 325.82812 22.534374ZM328.53125 27.315624Q328.53125 26.39375 328.89062 25.64375Q329.26562 24.89375 329.92188 24.503124Q330.57812 24.096874 331.40625 24.096874Q332.70312 24.096874 333.5 24.9875Q334.3125 25.878124 334.3125 27.378124L334.3125 27.45625Q334.3125 28.378124 333.95312 29.1125Q333.59375 29.846874 332.9375 30.26875Q332.28125 30.675 331.42188 30.675Q330.14062 30.675 329.32812 29.784374Q328.53125 28.878124 328.53125 27.39375L328.53125 27.315624ZM329.625 27.45625Q329.625 28.503124 330.10938 29.14375Q330.60938 29.784374 331.42188 29.784374Q332.25 29.784374 332.73438 29.14375Q333.21875 28.4875 333.21875 27.315624Q333.21875 26.284374 332.71875 25.64375Q332.23438 24.9875 331.40625 24.9875Q330.60938 24.9875 330.10938 25.628124Q329.625 26.253124 329.625 27.45625ZM336.84375 24.20625L336.875 25.003124Q337.60938 24.096874 338.78125 24.096874Q340.79688 24.096874 340.8125 26.3625L340.8125 30.55L339.71875 30.55L339.71875 26.346874Q339.71875 25.675 339.40625 25.346874Q339.10938 25.01875 338.45312 25.01875Q337.92188 25.01875 337.51562 25.3Q337.125 25.58125 336.90625 26.034374L336.90625 30.55L335.82812 30.55L335.82812 24.20625L336.84375 24.20625ZM346.73438 30.55Q346.64062 30.3625 346.57812 29.878124Q345.82812 30.675 344.78125 30.675Q343.84375 30.675 343.23438 30.14375Q342.64062 29.6125 342.64062 28.784374Q342.64062 27.8 343.39062 27.253124Q344.14062 26.70625 345.51562 26.70625L346.5625 26.70625L346.5625 26.20625Q346.5625 25.64375 346.21875 25.315624Q345.89062 24.971874 345.21875 24.971874Q344.64062 24.971874 344.25 25.26875Q343.85938 25.55 343.85938 25.971874L342.76562 25.971874Q342.76562 25.4875 343.09375 25.05Q343.4375 24.6125 344.01562 24.3625Q344.59375 24.096874 345.28125 24.096874Q346.39062 24.096874 347.0 24.64375Q347.625 25.190624 347.65625 26.14375L347.65625 29.065624Q347.65625 29.940624 347.875 30.45625L347.875 30.55L346.73438 30.55ZM344.9375 29.721874Q345.45312 29.721874 345.90625 29.45625Q346.35938 29.190624 346.5625 28.76875L346.5625 27.471874L345.71875 27.471874Q343.71875 27.471874 343.71875 28.64375Q343.71875 29.14375 344.0625 29.440624Q344.40625 29.721874 344.9375 29.721874ZM352.89062 25.175Q352.64062 25.14375 352.35938 25.14375Q351.28125 25.14375 350.90625 26.05L350.90625 30.55L349.82812 30.55L349.82812 24.20625L350.875 24.20625L350.89062 24.940624Q351.42188 24.096874 352.40625 24.096874Q352.71875 24.096874 352.89062 24.175L352.89062 25.175ZM355.89062 28.95625L357.375 24.20625L358.53125 24.20625L355.98438 31.534374Q355.39062 33.1125 354.10938 33.1125L353.89062 33.096874L353.5 33.01875L353.5 32.14375L353.78125 32.159374Q354.34375 32.159374 354.64062 31.940624Q354.95312 31.721874 355.15625 31.128124L355.39062 30.471874L353.125 24.20625L354.3125 24.20625L355.89062 28.95625ZM362.98438 30.55L362.98438 22.01875L365.40625 22.01875Q366.51562 22.01875 367.35938 22.51875Q368.21875 23.003124 368.6875 23.909374Q369.15625 24.815624 369.15625 26.003124L369.15625 26.534374Q369.15625 27.753124 368.6875 28.659374Q368.23438 29.565624 367.35938 30.05Q366.5 30.534374 365.35938 30.55L362.98438 30.55ZM364.10938 22.940624L364.10938 29.628124L365.29688 29.628124Q366.59375 29.628124 367.3125 28.83125Q368.04688 28.01875 368.04688 26.51875L368.04688 26.01875Q368.04688 24.565624 367.35938 23.76875Q366.6875 22.95625 365.42188 22.940624L364.10938 22.940624ZM373.45312 30.675Q372.15625 30.675 371.34375 29.83125Q370.54688 28.971874 370.54688 27.55L370.54688 27.3625Q370.54688 26.409374 370.90625 25.675Q371.26562 24.925 371.90625 24.51875Q372.5625 24.096874 373.3125 24.096874Q374.54688 24.096874 375.23438 24.909374Q375.92188 25.721874 375.92188 27.2375L375.92188 27.690624L371.625 27.690624Q371.65625 28.628124 372.17188 29.20625Q372.70312 29.784374 373.51562 29.784374Q374.07812 29.784374 374.46875 29.55Q374.875 29.315624 375.1875 28.925L375.84375 29.440624Q375.04688 30.675 373.45312 30.675ZM373.3125 24.9875Q372.65625 24.9875 372.20312 25.471874Q371.76562 25.940624 371.67188 26.8L374.84375 26.8L374.84375 26.721874Q374.79688 25.89375 374.39062 25.440624Q374.0 24.9875 373.3125 24.9875ZM379.35938 29.784374Q379.9375 29.784374 380.375 29.440624Q380.8125 29.08125 380.85938 28.55L381.89062 28.55Q381.85938 29.096874 381.5 29.596874Q381.15625 30.08125 380.57812 30.378124Q380.01562 30.675 379.35938 30.675Q378.0625 30.675 377.29688 29.815624Q376.54688 28.940624 376.54688 27.440624L376.54688 27.253124Q376.54688 26.33125 376.875 25.6125Q377.21875 24.89375 377.84375 24.503124Q378.48438 24.096874 379.35938 24.096874Q380.42188 24.096874 381.125 24.7375Q381.84375 25.3625 381.89062 26.39375L380.85938 26.39375Q380.8125 25.76875 380.39062 25.378124Q379.96875 24.9875 379.35938 24.9875Q378.53125 24.9875 378.07812 25.58125Q377.625 26.175 377.625 27.3L377.625 27.503124Q377.625 28.596874 378.07812 29.190624Q378.53125 29.784374 379.35938 29.784374ZM382.53125 27.315624Q382.53125 26.39375 382.89062 25.64375Q383.26562 24.89375 383.92188 24.503124Q384.57812 24.096874 385.40625 24.096874Q386.70312 24.096874 387.5 24.9875Q388.3125 25.878124 388.3125 27.378124L388.3125 27.45625Q388.3125 28.378124 387.95312 29.1125Q387.59375 29.846874 386.9375 30.26875Q386.28125 30.675 385.42188 30.675Q384.14062 30.675 383.32812 29.784374Q382.53125 28.878124 382.53125 27.39375L382.53125 27.315624ZM383.625 27.45625Q383.625 28.503124 384.10938 29.14375Q384.60938 29.784374 385.42188 29.784374Q386.25 29.784374 386.73438 29.14375Q387.21875 28.4875 387.21875 27.315624Q387.21875 26.284374 386.71875 25.64375Q386.23438 24.9875 385.40625 24.9875Q384.60938 24.9875 384.10938 25.628124Q383.625 26.253124 383.625 27.45625ZM390.84375 24.20625L390.875 24.909374Q391.5625 24.096874 392.75 24.096874Q394.07812 24.096874 394.5625 25.1125Q394.875 24.659374 395.375 24.378124Q395.89062 24.096874 396.57812 24.096874Q398.67188 24.096874 398.70312 26.3L398.70312 30.55L397.625 30.55L397.625 26.3625Q397.625 25.690624 397.3125 25.3625Q397.0 25.01875 396.26562 25.01875Q395.65625 25.01875 395.25 25.378124Q394.85938 25.7375 394.79688 26.346874L394.79688 30.55L393.71875 30.55L393.71875 26.39375Q393.71875 25.01875 392.35938 25.01875Q391.29688 25.01875 390.90625 25.925L390.90625 30.55L389.8125 30.55L389.8125 24.20625L390.84375 24.20625ZM406.17188 27.45625Q406.17188 28.89375 405.51562 29.784374Q404.85938 30.675 403.71875 30.675Q402.5625 30.675 401.90625 29.940624L401.90625 32.9875L400.82812 32.9875L400.82812 24.20625L401.8125 24.20625L401.85938 24.909374Q402.53125 24.096874 403.70312 24.096874Q404.84375 24.096874 405.5 24.95625Q406.17188 25.815624 406.17188 27.346874L406.17188 27.45625ZM405.09375 27.33125Q405.09375 26.253124 404.625 25.64375Q404.17188 25.01875 403.375 25.01875Q402.39062 25.01875 401.90625 25.878124L401.90625 28.909374Q402.39062 29.784374 403.39062 29.784374Q404.17188 29.784374 404.625 29.175Q405.09375 28.55 405.09375 27.33125ZM407.53125 27.315624Q407.53125 26.39375 407.89062 25.64375Q408.26562 24.89375 408.92188 24.503124Q409.57812 24.096874 410.40625 24.096874Q411.70312 24.096874 412.5 24.9875Q413.3125 25.878124 413.3125 27.378124L413.3125 27.45625Q413.3125 28.378124 412.95312 29.1125Q412.59375 29.846874 411.9375 30.26875Q411.28125 30.675 410.42188 30.675Q409.14062 30.675 408.32812 29.784374Q407.53125 28.878124 407.53125 27.39375L407.53125 27.315624ZM408.625 27.45625Q408.625 28.503124 409.10938 29.14375Q409.60938 29.784374 410.42188 29.784374Q411.25 29.784374 411.73438 29.14375Q412.21875 28.4875 412.21875 27.315624Q412.21875 26.284374 411.71875 25.64375Q411.23438 24.9875 410.40625 24.9875Q409.60938 24.9875 409.10938 25.628124Q408.625 26.253124 408.625 27.45625ZM418.73438 29.925Q418.10938 30.675 416.875 30.675Q415.85938 30.675 415.32812 30.08125Q414.79688 29.4875 414.79688 28.33125L414.79688 24.20625L415.875 24.20625L415.875 28.3Q415.875 29.753124 417.04688 29.753124Q418.29688 29.753124 418.70312 28.815624L418.70312 24.20625L419.79688 24.20625L419.79688 30.55L418.76562 30.55L418.73438 29.925ZM422.84375 24.20625L422.875 25.003124Q423.60938 24.096874 424.78125 24.096874Q426.79688 24.096874 426.8125 26.3625L426.8125 30.55L425.71875 30.55L425.71875 26.346874Q425.71875 25.675 425.40625 25.346874Q425.10938 25.01875 424.45312 25.01875Q423.92188 25.01875 423.51562 25.3Q423.125 25.58125 422.90625 26.034374L422.90625 30.55L421.82812 30.55L421.82812 24.20625L422.84375 24.20625ZM428.5625 27.33125Q428.5625 25.8625 429.25 24.9875Q429.9375 24.096874 431.0625 24.096874Q432.17188 24.096874 432.82812 24.846874L432.82812 21.55L433.90625 21.55L433.90625 30.55L432.90625 30.55L432.85938 29.8625Q432.20312 30.675 431.04688 30.675Q429.95312 30.675 429.25 29.76875Q428.5625 28.8625 428.5625 27.409374L428.5625 27.33125ZM429.64062 27.45625Q429.64062 28.534374 430.07812 29.14375Q430.53125 29.753124 431.3125 29.753124Q432.34375 29.753124 432.82812 28.815624L432.82812 25.909374Q432.34375 25.01875 431.32812 25.01875Q430.53125 25.01875 430.07812 25.628124Q429.64062 26.2375 429.64062 27.45625ZM438.45312 30.675Q437.15625 30.675 436.34375 29.83125Q435.54688 28.971874 435.54688 27.55L435.54688 27.3625Q435.54688 26.409374 435.90625 25.675Q436.26562 24.925 436.90625 24.51875Q437.5625 24.096874 438.3125 24.096874Q439.54688 24.096874 440.23438 24.909374Q440.92188 25.721874 440.92188 27.2375L440.92188 27.690624L436.625 27.690624Q436.65625 28.628124 437.17188 29.20625Q437.70312 29.784374 438.51562 29.784374Q439.07812 29.784374 439.46875 29.55Q439.875 29.315624 440.1875 28.925L440.84375 29.440624Q440.04688 30.675 438.45312 30.675ZM438.3125 24.9875Q437.65625 24.9875 437.20312 25.471874Q436.76562 25.940624 436.67188 26.8L439.84375 26.8L439.84375 26.721874Q439.79688 25.89375 439.39062 25.440624Q439.0 24.9875 438.3125 24.9875ZM444.89062 25.175Q444.64062 25.14375 444.35938 25.14375Q443.28125 25.14375 442.90625 26.05L442.90625 30.55L441.82812 30.55L441.82812 24.20625L442.875 24.20625L442.89062 24.940624Q443.42188 24.096874 444.40625 24.096874Q444.71875 24.096874 444.89062 24.175L444.89062 25.175Z" fill-rule="nonzero"/></svg>