<svg version="1.1" viewBox="0.0 0.0 600.0 371.0" fill="none" stroke="none" stroke-linecap="square" stroke-miterlimit="10" width="600" height="371" xmlns:xlink="http://www.w3.org/1999/xlink" xmlns="http://www.w3.org/2000/svg"><path fill="#ffffff" d="M0 0L600.0 0L600.0 371.0L0 371.0L0 0Z" fill-rule="nonzero"/><path stroke="#333333" stroke-width="1.0" stroke-linecap="butt" d="M137.5 45.5L137.5 331.5" fill-rule="nonzero"/><path stroke="#cccccc" stroke-width="1.0" stroke-linecap="butt" d="M225.5 45.5L225.5 331.5" fill-rule="nonzero"/><path stroke="#cccccc" stroke-width="1.0" stroke-linecap="butt" d="M314.5 45.5L314.5 331.5" fill-rule="nonzero"/><path stroke="#cccccc" stroke-width="1.0" stroke-linecap="butt" d="M403.5 45.5L403.5 331.5" fill-rule="nonzero"/><path stroke="#cccccc" stroke-width="1.0" stroke-linecap="butt" d="M492.5 45.5L492.5 331.5" fill-rule="nonzero"/><path stroke="#cccccc" stroke-width="1.0" stroke-linecap="butt" d="M581.5 45.5L581.5 331.5" fill-rule="nonzero"/><clipPath id="id_0"><path d="M137.13 45.916668L581.45 45.916668L581.45 331.45L137.13 331.45L137.13 45.916668Z" clip-rule="nonzero"/></clipPath><path stroke="#000000" stroke-width="2.0" stroke-linecap="butt" stroke-opacity="0.0" clip-path="url(#id_0)" d="M137.0 127.0L137.0 90.0L372.0 90.0C373.10458 90.0 374.0 90.89543 374.0 92.0L374.0 125.0C374.0 126.10457 373.10458 127.0 372.0 127.0Z" fill-rule="nonzero"/><path fill="#8cab13" clip-path="url(#id_0)" d="M137.0 127.0L137.0 90.0L372.0 90.0C373.10458 90.0 374.0 90.89543 374.0 92.0L374.0 125.0C374.0 126.10457 373.10458 127.0 372.0 127.0Z" fill-rule="nonzero"/><path stroke="#000000" stroke-width="2.0" stroke-linecap="butt" stroke-opacity="0.0" clip-path="url(#id_0)" d="M137.0 248.0L137.0 211.0L240.0 211.0C241.10457 211.0 242.0 211.89543 242.0 213.0L242.0 246.0C242.0 247.10457 241.10457 248.0 240.0 248.0Z" fill-rule="nonzero"/><path fill="#8cab13" clip-path="url(#id_0)" d="M137.0 248.0L137.0 211.0L240.0 211.0C241.10457 211.0 242.0 211.89543 242.0 213.0L242.0 246.0C242.0 247.10457 241.10457 248.0 240.0 248.0Z" fill-rule="nonzero"/><path stroke="#000000" stroke-width="2.0" stroke-linecap="butt" stroke-opacity="0.0" clip-path="url(#id_0)" d="M137.0 166.0L137.0 129.0L369.0 129.0C370.10458 129.0 371.0 129.89543 371.0 131.0L371.0 164.0C371.0 165.10457 370.10458 166.0 369.0 166.0Z" fill-rule="nonzero"/><path fill="#22ab82" clip-path="url(#id_0)" d="M137.0 166.0L137.0 129.0L369.0 129.0C370.10458 129.0 371.0 129.89543 371.0 131.0L371.0 164.0C371.0 165.10457 370.10458 166.0 369.0 166.0Z" fill-rule="nonzero"/><path stroke="#000000" stroke-width="2.0" stroke-linecap="butt" stroke-opacity="0.0" clip-path="url(#id_0)" d="M137.0 287.0L137.0 250.0L566.0 250.0C567.10455 250.0 568.0 250.89543 568.0 252.0L568.0 285.0C568.0 286.10458 567.10455 287.0 566.0 287.0Z" fill-rule="nonzero"/><path fill="#22ab82" clip-path="url(#id_0)" d="M137.0 287.0L137.0 250.0L566.0 250.0C567.10455 250.0 568.0 250.89543 568.0 252.0L568.0 285.0C568.0 286.10458 567.10455 287.0 566.0 287.0Z" fill-rule="nonzero"/><path fill="#757575" d="M96.13 132.43156L95.05187 132.43156L95.05187 123.431564L96.13 123.431564L96.13 132.43156ZM97.66125 129.19719Q97.66125 128.27531 98.02062 127.525314Q98.39562 126.775314 99.05187 126.38469Q99.70812 125.97844 100.53625 125.97844Q101.83312 125.97844 102.63 126.869064Q103.4425 127.75969 103.4425 129.25969L103.4425 129.33781Q103.4425 130.25969 103.08312 130.99406Q102.72375 131.72844 102.0675 132.15031Q101.41125 132.55656 100.55187 132.55656Q99.27062 132.55656 98.45812 131.66594Q97.66125 130.75969 97.66125 129.27531L97.66125 129.19719ZM98.755 129.33781Q98.755 130.38469 99.23937 131.02531Q99.73937 131.66594 100.55187 131.66594Q101.38 131.66594 101.86437 131.02531Q102.34875 130.36906 102.34875 129.19719Q102.34875 128.16594 101.84875 127.525314Q101.36437 126.869064 100.53625 126.869064Q99.73937 126.869064 99.23937 127.50969Q98.755 128.13469 98.755 129.33781ZM108.64562 130.74406Q108.64562 130.30656 108.30187 130.07219Q107.97375 129.82219 107.14562 129.65031Q106.33312 129.47844 105.84875 129.22844Q105.36437 128.97844 105.13 128.65031Q104.91125 128.30656 104.91125 127.837814Q104.91125 127.056564 105.5675 126.525314Q106.22375 125.97844 107.255 125.97844Q108.33312 125.97844 108.98937 126.54094Q109.66125 127.087814 109.66125 127.94719L108.58312 127.94719Q108.58312 127.50969 108.1925 127.19719Q107.8175 126.869064 107.255 126.869064Q106.66125 126.869064 106.3175 127.13469Q105.98937 127.38469 105.98937 127.79094Q105.98937 128.18156 106.30187 128.38469Q106.61437 128.58781 107.42687 128.77531Q108.23937 128.94719 108.73937 129.19719Q109.23937 129.44719 109.47375 129.80656Q109.72375 130.16594 109.72375 130.66594Q109.72375 131.52531 109.03625 132.04094Q108.36437 132.55656 107.28625 132.55656Q106.52062 132.55656 105.92687 132.29094Q105.34875 132.00969 105.02062 131.52531Q104.6925 131.04094 104.6925 130.47844L105.77062 130.47844Q105.80187 131.02531 106.20812 131.35344Q106.61437 131.66594 107.28625 131.66594Q107.89562 131.66594 108.27062 131.41594Q108.64562 131.16594 108.64562 130.74406ZM114.86437 131.80656Q114.23937 132.55656 113.005 132.55656Q111.98937 132.55656 111.45812 131.96281Q110.92687 131.36906 110.92687 130.21281L110.92687 126.087814L112.005 126.087814L112.005 130.18156Q112.005 131.63469 113.17687 131.63469Q114.42687 131.63469 114.83312 130.69719L114.83312 126.087814L115.92687 126.087814L115.92687 132.43156L114.89562 132.43156L114.86437 131.80656ZM118.97375 126.087814L119.005 126.88469Q119.73937 125.97844 120.91125 125.97844Q122.92687 125.97844 122.9425 128.24406L122.9425 132.43156L121.84875 132.43156L121.84875 128.22844Q121.84875 127.556564 121.53625 127.22844Q121.23937 126.900314 120.58312 126.900314Q120.05187 126.900314 119.64562 127.181564Q119.255 127.462814 119.03625 127.91594L119.03625 132.43156L117.95812 132.43156L117.95812 126.087814L118.97375 126.087814ZM124.6925 129.21281Q124.6925 127.72844 125.38 126.85344Q126.0675 125.97844 127.1925 125.97844Q128.34875 125.97844 129.005 126.79094L129.05188 126.087814L130.05188 126.087814L130.05188 132.27531Q130.05188 133.50969 129.3175 134.21281Q128.58313 134.93156 127.36437 134.93156Q126.67687 134.93156 126.02062 134.63469Q125.36437 134.33781 125.02062 133.83781L125.58312 133.18156Q126.27062 134.04094 127.28625 134.04094Q128.0675 134.04094 128.505 133.58781Q128.95813 133.15031 128.95813 132.33781L128.95813 131.79094Q128.30188 132.55656 127.17687 132.55656Q126.0675 132.55656 125.38 131.66594Q124.6925 130.75969 124.6925 129.21281ZM125.78625 129.33781Q125.78625 130.40031 126.22375 131.02531Q126.66125 131.63469 127.45812 131.63469Q128.47375 131.63469 128.95813 130.69719L128.95813 127.806564Q128.45813 126.900314 127.45812 126.900314Q126.67687 126.900314 126.22375 127.50969Q125.78625 128.11906 125.78625 129.33781Z" fill-rule="nonzero"/><path fill="#757575" d="M71.6925 213.21635Q71.6925 211.7476 72.38 210.8726Q73.0675 209.98198 74.1925 209.98198Q75.30187 209.98198 75.95812 210.73198L75.95812 207.4351L77.03625 207.4351L77.03625 216.4351L76.03625 216.4351L75.98937 215.7476Q75.33312 216.5601 74.17687 216.5601Q73.08312 216.5601 72.38 215.65385Q71.6925 214.7476 71.6925 213.29448L71.6925 213.21635ZM72.77062 213.34135Q72.77062 214.41948 73.20812 215.02885Q73.66125 215.63823 74.4425 215.63823Q75.47375 215.63823 75.95812 214.70073L75.95812 211.79448Q75.47375 210.90385 74.45812 210.90385Q73.66125 210.90385 73.20812 211.51323Q72.77062 212.1226 72.77062 213.34135ZM80.13 216.4351L79.05187 216.4351L79.05187 210.09135L80.13 210.09135L80.13 216.4351ZM78.95812 208.41948Q78.95812 208.15385 79.11437 207.96635Q79.28625 207.77885 79.59875 207.77885Q79.91125 207.77885 80.0675 207.96635Q80.23937 208.15385 80.23937 208.41948Q80.23937 208.66948 80.0675 208.85698Q79.91125 209.02885 79.59875 209.02885Q79.28625 209.02885 79.11437 208.85698Q78.95812 208.66948 78.95812 208.41948ZM82.48937 216.4351L82.48937 210.9351L81.48937 210.9351L81.48937 210.09135L82.48937 210.09135L82.48937 209.45073Q82.48937 208.41948 83.02062 207.8726Q83.5675 207.3101 84.5675 207.3101Q84.9425 207.3101 85.3175 207.40385L85.255 208.29448Q84.97375 208.23198 84.67687 208.23198Q84.14562 208.23198 83.84875 208.54448Q83.5675 208.85698 83.5675 209.41948L83.5675 210.09135L84.92687 210.09135L84.92687 210.9351L83.5675 210.9351L83.5675 216.4351L82.48937 216.4351ZM86.48937 216.4351L86.48937 210.9351L85.48937 210.9351L85.48937 210.09135L86.48937 210.09135L86.48937 209.45073Q86.48937 208.41948 87.02062 207.8726Q87.5675 207.3101 88.5675 207.3101Q88.9425 207.3101 89.3175 207.40385L89.255 208.29448Q88.97375 208.23198 88.67687 208.23198Q88.14562 208.23198 87.84875 208.54448Q87.5675 208.85698 87.5675 209.41948L87.5675 210.09135L88.92687 210.09135L88.92687 210.9351L87.5675 210.9351L87.5675 216.4351L86.48937 216.4351ZM92.58312 216.5601Q91.28625 216.5601 90.47375 215.71635Q89.67687 214.85698 89.67687 213.4351L89.67687 213.2476Q89.67687 212.29448 90.03625 211.5601Q90.39562 210.8101 91.03625 210.40385Q91.6925 209.98198 92.4425 209.98198Q93.67687 209.98198 94.36437 210.79448Q95.05187 211.60698 95.05187 213.1226L95.05187 213.57573L90.755 213.57573Q90.78625 214.51323 91.30187 215.09135Q91.83312 215.66948 92.64562 215.66948Q93.20812 215.66948 93.59875 215.4351Q94.005 215.20073 94.3175 214.8101L94.97375 215.32573Q94.17687 216.5601 92.58312 216.5601ZM92.4425 210.8726Q91.78625 210.8726 91.33312 211.35698Q90.89562 211.82573 90.80187 212.6851L93.97375 212.6851L93.97375 212.60698Q93.92687 211.77885 93.52062 211.32573Q93.13 210.8726 92.4425 210.8726ZM99.02062 211.0601Q98.77062 211.02885 98.48937 211.02885Q97.41125 211.02885 97.03625 211.9351L97.03625 216.4351L95.95812 216.4351L95.95812 210.09135L97.005 210.09135L97.02062 210.82573Q97.55187 209.98198 98.53625 209.98198Q98.84875 209.98198 99.02062 210.0601L99.02062 211.0601ZM102.58312 216.5601Q101.28625 216.5601 100.47375 215.71635Q99.67687 214.85698 99.67687 213.4351L99.67687 213.2476Q99.67687 212.29448 100.03625 211.5601Q100.39562 210.8101 101.03625 210.40385Q101.6925 209.98198 102.4425 209.98198Q103.67687 209.98198 104.36437 210.79448Q105.05187 211.60698 105.05187 213.1226L105.05187 213.57573L100.755 213.57573Q100.78625 214.51323 101.30187 215.09135Q101.83312 215.66948 102.64562 215.66948Q103.20812 215.66948 103.59875 215.4351Q104.005 215.20073 104.3175 214.8101L104.97375 215.32573Q104.17687 216.5601 102.58312 216.5601ZM102.4425 210.8726Q101.78625 210.8726 101.33312 211.35698Q100.89562 211.82573 100.80187 212.6851L103.97375 212.6851L103.97375 212.60698Q103.92687 211.77885 103.52062 211.32573Q103.13 210.8726 102.4425 210.8726ZM106.97375 210.09135L107.005 210.88823Q107.73937 209.98198 108.91125 209.98198Q110.92687 209.98198 110.9425 212.2476L110.9425 216.4351L109.84875 216.4351L109.84875 212.23198Q109.84875 211.5601 109.53625 211.23198Q109.23937 210.90385 108.58312 210.90385Q108.05187 210.90385 107.64562 211.1851Q107.255 211.46635 107.03625 211.91948L107.03625 216.4351L105.95812 216.4351L105.95812 210.09135L106.97375 210.09135ZM114.42687 208.5601L114.42687 210.09135L115.59875 210.09135L115.59875 210.9351L114.42687 210.9351L114.42687 214.85698Q114.42687 215.2476 114.58312 215.4351Q114.73937 215.6226 115.11437 215.6226Q115.30187 215.6226 115.63 215.5601L115.63 216.4351Q115.20812 216.5601 114.80187 216.5601Q114.08312 216.5601 113.70812 216.1226Q113.33312 215.66948 113.33312 214.85698L113.33312 210.9351L112.17687 210.9351L112.17687 210.09135L113.33312 210.09135L113.33312 208.5601L114.42687 208.5601ZM118.13 216.4351L117.05187 216.4351L117.05187 210.09135L118.13 210.09135L118.13 216.4351ZM116.95812 208.41948Q116.95812 208.15385 117.11437 207.96635Q117.28625 207.77885 117.59875 207.77885Q117.91125 207.77885 118.0675 207.96635Q118.23937 208.15385 118.23937 208.41948Q118.23937 208.66948 118.0675 208.85698Q117.91125 209.02885 117.59875 209.02885Q117.28625 209.02885 117.11437 208.85698Q116.95812 208.66948 116.95812 208.41948ZM123.86437 216.4351Q123.77062 216.2476 123.70812 215.76323Q122.95812 216.5601 121.91125 216.5601Q120.97375 216.5601 120.36437 216.02885Q119.77062 215.4976 119.77062 214.66948Q119.77062 213.6851 120.52062 213.13823Q121.27062 212.59135 122.64562 212.59135L123.6925 212.59135L123.6925 212.09135Q123.6925 211.52885 123.34875 211.20073Q123.02062 210.85698 122.34875 210.85698Q121.77062 210.85698 121.38 211.15385Q120.98937 211.4351 120.98937 211.85698L119.89562 211.85698Q119.89562 211.3726 120.22375 210.9351Q120.5675 210.4976 121.14562 210.2476Q121.72375 209.98198 122.41125 209.98198Q123.52062 209.98198 124.13 210.52885Q124.755 211.07573 124.78625 212.02885L124.78625 214.95073Q124.78625 215.82573 125.005 216.34135L125.005 216.4351L123.86437 216.4351ZM122.0675 215.60698Q122.58312 215.60698 123.03625 215.34135Q123.48937 215.07573 123.6925 214.65385L123.6925 213.35698L122.84875 213.35698Q120.84875 213.35698 120.84875 214.52885Q120.84875 215.02885 121.1925 215.32573Q121.53625 215.60698 122.0675 215.60698ZM128.13 216.4351L127.05187 216.4351L127.05187 207.4351L128.13 207.4351L128.13 216.4351ZM129.91125 218.13823L129.30188 217.71635Q129.84875 216.95073 129.88 216.1226L129.88 215.15385L130.9425 215.15385L130.9425 215.9976Q130.9425 216.59135 130.64563 217.1851Q130.34875 217.77885 129.91125 218.13823Z" fill-rule="nonzero"/><path fill="#757575" d="M20.6925 228.21635Q20.6925 226.7476 21.38 225.8726Q22.0675 224.98198 23.1925 224.98198Q24.301874 224.98198 24.958124 225.73198L24.958124 222.4351L26.03625 222.4351L26.03625 231.4351L25.03625 231.4351L24.989374 230.7476Q24.333124 231.5601 23.176874 231.5601Q22.083124 231.5601 21.38 230.65385Q20.6925 229.7476 20.6925 228.29448L20.6925 228.21635ZM21.770624 228.34135Q21.770624 229.41948 22.208124 230.02885Q22.66125 230.63823 23.4425 230.63823Q24.47375 230.63823 24.958124 229.70073L24.958124 226.79448Q24.47375 225.90385 23.458124 225.90385Q22.66125 225.90385 22.208124 226.51323Q21.770624 227.1226 21.770624 228.34135ZM29.13 231.4351L28.051874 231.4351L28.051874 225.09135L29.13 225.09135L29.13 231.4351ZM27.958124 223.41948Q27.958124 223.15385 28.114374 222.96635Q28.28625 222.77885 28.59875 222.77885Q28.91125 222.77885 29.0675 222.96635Q29.239374 223.15385 29.239374 223.41948Q29.239374 223.66948 29.0675 223.85698Q28.91125 224.02885 28.59875 224.02885Q28.28625 224.02885 28.114374 223.85698Q27.958124 223.66948 27.958124 223.41948ZM31.489374 231.4351L31.489374 225.9351L30.489374 225.9351L30.489374 225.09135L31.489374 225.09135L31.489374 224.45073Q31.489374 223.41948 32.020622 222.8726Q32.567497 222.3101 33.567497 222.3101Q33.942497 222.3101 34.317497 222.40385L34.254997 223.29448Q33.973747 223.23198 33.676872 223.23198Q33.145622 223.23198 32.848747 223.54448Q32.567497 223.85698 32.567497 224.41948L32.567497 225.09135L33.926872 225.09135L33.926872 225.9351L32.567497 225.9351L32.567497 231.4351L31.489374 231.4351ZM35.489372 231.4351L35.489372 225.9351L34.489372 225.9351L34.489372 225.09135L35.489372 225.09135L35.489372 224.45073Q35.489372 223.41948 36.020622 222.8726Q36.567497 222.3101 37.567497 222.3101Q37.942497 222.3101 38.317497 222.40385L38.254997 223.29448Q37.973747 223.23198 37.676872 223.23198Q37.145622 223.23198 36.848747 223.54448Q36.567497 223.85698 36.567497 224.41948L36.567497 225.09135L37.926872 225.09135L37.926872 225.9351L36.567497 225.9351L36.567497 231.4351L35.489372 231.4351ZM41.583122 231.5601Q40.286247 231.5601 39.473747 230.71635Q38.676872 229.85698 38.676872 228.4351L38.676872 228.2476Q38.676872 227.29448 39.036247 226.5601Q39.395622 225.8101 40.036247 225.40385Q40.692497 224.98198 41.442497 224.98198Q42.676872 224.98198 43.364372 225.79448Q44.051872 226.60698 44.051872 228.1226L44.051872 228.57573L39.754997 228.57573Q39.786247 229.51323 40.301872 230.09135Q40.833122 230.66948 41.645622 230.66948Q42.208122 230.66948 42.598747 230.4351Q43.004997 230.20073 43.317497 229.8101L43.973747 230.32573Q43.176872 231.5601 41.583122 231.5601ZM41.442497 225.8726Q40.786247 225.8726 40.333122 226.35698Q39.895622 226.82573 39.801872 227.6851L42.973747 227.6851L42.973747 227.60698Q42.926872 226.77885 42.520622 226.32573Q42.129997 225.8726 41.442497 225.8726ZM48.020622 226.0601Q47.770622 226.02885 47.489372 226.02885Q46.411247 226.02885 46.036247 226.9351L46.036247 231.4351L44.958122 231.4351L44.958122 225.09135L46.004997 225.09135L46.020622 225.82573Q46.551872 224.98198 47.536247 224.98198Q47.848747 224.98198 48.020622 225.0601L48.020622 226.0601ZM51.583122 231.5601Q50.286247 231.5601 49.473747 230.71635Q48.676872 229.85698 48.676872 228.4351L48.676872 228.2476Q48.676872 227.29448 49.036247 226.5601Q49.395622 225.8101 50.036247 225.40385Q50.692497 224.98198 51.442497 224.98198Q52.676872 224.98198 53.364372 225.79448Q54.051872 226.60698 54.051872 228.1226L54.051872 228.57573L49.754997 228.57573Q49.786247 229.51323 50.301872 230.09135Q50.833122 230.66948 51.645622 230.66948Q52.208122 230.66948 52.598747 230.4351Q53.004997 230.20073 53.317497 229.8101L53.973747 230.32573Q53.176872 231.5601 51.583122 231.5601ZM51.442497 225.8726Q50.786247 225.8726 50.333122 226.35698Q49.895622 226.82573 49.801872 227.6851L52.973747 227.6851L52.973747 227.60698Q52.926872 226.77885 52.520622 226.32573Q52.129997 225.8726 51.442497 225.8726ZM55.973747 225.09135L56.004997 225.88823Q56.739372 224.98198 57.911247 224.98198Q59.926872 224.98198 59.942497 227.2476L59.942497 231.4351L58.848747 231.4351L58.848747 227.23198Q58.848747 226.5601 58.536247 226.23198Q58.239372 225.90385 57.583122 225.90385Q57.051872 225.90385 56.645622 226.1851Q56.254997 226.46635 56.036247 226.91948L56.036247 231.4351L54.958122 231.4351L54.958122 225.09135L55.973747 225.09135ZM63.426872 223.5601L63.426872 225.09135L64.59875 225.09135L64.59875 225.9351L63.426872 225.9351L63.426872 229.85698Q63.426872 230.2476 63.583122 230.4351Q63.739372 230.6226 64.11437 230.6226Q64.30187 230.6226 64.63 230.5601L64.63 231.4351Q64.20812 231.5601 63.801872 231.5601Q63.083122 231.5601 62.708122 231.1226Q62.333122 230.66948 62.333122 229.85698L62.333122 225.9351L61.176872 225.9351L61.176872 225.09135L62.333122 225.09135L62.333122 223.5601L63.426872 223.5601ZM67.13 231.4351L66.05187 231.4351L66.05187 225.09135L67.13 225.09135L67.13 231.4351ZM65.95812 223.41948Q65.95812 223.15385 66.11437 222.96635Q66.28625 222.77885 66.59875 222.77885Q66.91125 222.77885 67.0675 222.96635Q67.23937 223.15385 67.23937 223.41948Q67.23937 223.66948 67.0675 223.85698Q66.91125 224.02885 66.59875 224.02885Q66.28625 224.02885 66.11437 223.85698Q65.95812 223.66948 65.95812 223.41948ZM72.86437 231.4351Q72.77062 231.2476 72.70812 230.76323Q71.95812 231.5601 70.91125 231.5601Q69.97375 231.5601 69.36437 231.02885Q68.77062 230.4976 68.77062 229.66948Q68.77062 228.6851 69.52062 228.13823Q70.27062 227.59135 71.64562 227.59135L72.6925 227.59135L72.6925 227.09135Q72.6925 226.52885 72.34875 226.20073Q72.02062 225.85698 71.34875 225.85698Q70.77062 225.85698 70.38 226.15385Q69.98937 226.4351 69.98937 226.85698L68.89562 226.85698Q68.89562 226.3726 69.22375 225.9351Q69.5675 225.4976 70.14562 225.2476Q70.72375 224.98198 71.41125 224.98198Q72.52062 224.98198 73.13 225.52885Q73.755 226.07573 73.78625 227.02885L73.78625 229.95073Q73.78625 230.82573 74.005 231.34135L74.005 231.4351L72.86437 231.4351ZM71.0675 230.60698Q71.58312 230.60698 72.03625 230.34135Q72.48937 230.07573 72.6925 229.65385L72.6925 228.35698L71.84875 228.35698Q69.84875 228.35698 69.84875 229.52885Q69.84875 230.02885 70.1925 230.32573Q70.53625 230.60698 71.0675 230.60698ZM77.13 231.4351L76.05187 231.4351L76.05187 222.4351L77.13 222.4351L77.13 231.4351ZM78.6925 228.21635Q78.6925 226.73198 79.38 225.85698Q80.0675 224.98198 81.1925 224.98198Q82.34875 224.98198 83.005 225.79448L83.05187 225.09135L84.05187 225.09135L84.05187 231.27885Q84.05187 232.51323 83.3175 233.21635Q82.58312 233.9351 81.36437 233.9351Q80.67687 233.9351 80.02062 233.63823Q79.36437 233.34135 79.02062 232.84135L79.58312 232.1851Q80.27062 233.04448 81.28625 233.04448Q82.0675 233.04448 82.505 232.59135Q82.95812 232.15385 82.95812 231.34135L82.95812 230.79448Q82.30187 231.5601 81.17687 231.5601Q80.0675 231.5601 79.38 230.66948Q78.6925 229.76323 78.6925 228.21635ZM79.78625 228.34135Q79.78625 229.40385 80.22375 230.02885Q80.66125 230.63823 81.45812 230.63823Q82.47375 230.63823 82.95812 229.70073L82.95812 226.8101Q82.45812 225.90385 81.45812 225.90385Q80.67687 225.90385 80.22375 226.51323Q79.78625 227.1226 79.78625 228.34135ZM87.13 231.4351L86.05187 231.4351L86.05187 222.4351L87.13 222.4351L87.13 231.4351ZM91.58312 231.5601Q90.28625 231.5601 89.47375 230.71635Q88.67687 229.85698 88.67687 228.4351L88.67687 228.2476Q88.67687 227.29448 89.03625 226.5601Q89.39562 225.8101 90.03625 225.40385Q90.6925 224.98198 91.4425 224.98198Q92.67687 224.98198 93.36437 225.79448Q94.05187 226.60698 94.05187 228.1226L94.05187 228.57573L89.755 228.57573Q89.78625 229.51323 90.30187 230.09135Q90.83312 230.66948 91.64562 230.66948Q92.20812 230.66948 92.59875 230.4351Q93.005 230.20073 93.3175 229.8101L93.97375 230.32573Q93.17687 231.5601 91.58312 231.5601ZM91.4425 225.8726Q90.78625 225.8726 90.33312 226.35698Q89.89562 226.82573 89.80187 227.6851L92.97375 227.6851L92.97375 227.60698Q92.92687 226.77885 92.52062 226.32573Q92.13 225.8726 91.4425 225.8726ZM96.13 231.4351L95.05187 231.4351L95.05187 225.09135L96.13 225.09135L96.13 231.4351ZM94.95812 223.41948Q94.95812 223.15385 95.11437 222.96635Q95.28625 222.77885 95.59875 222.77885Q95.91125 222.77885 96.0675 222.96635Q96.23937 223.15385 96.23937 223.41948Q96.23937 223.66948 96.0675 223.85698Q95.91125 224.02885 95.59875 224.02885Q95.28625 224.02885 95.11437 223.85698Q94.95812 223.66948 94.95812 223.41948ZM100.48937 230.66948Q101.0675 230.66948 101.505 230.32573Q101.9425 229.96635 101.98937 229.4351L103.02062 229.4351Q102.98937 229.98198 102.63 230.48198Q102.28625 230.96635 101.70812 231.26323Q101.14562 231.5601 100.48937 231.5601Q99.1925 231.5601 98.42687 230.70073Q97.67687 229.82573 97.67687 228.32573L97.67687 228.13823Q97.67687 227.21635 98.005 226.4976Q98.34875 225.77885 98.97375 225.38823Q99.61437 224.98198 100.48937 224.98198Q101.55187 224.98198 102.255 225.6226Q102.97375 226.2476 103.02062 227.27885L101.98937 227.27885Q101.9425 226.65385 101.52062 226.26323Q101.09875 225.8726 100.48937 225.8726Q99.66125 225.8726 99.20812 226.46635Q98.755 227.0601 98.755 228.1851L98.755 228.38823Q98.755 229.48198 99.20812 230.07573Q99.66125 230.66948 100.48937 230.66948ZM105.03625 225.85698Q105.755 224.98198 106.91125 224.98198Q108.92687 224.98198 108.9425 227.2476L108.9425 231.4351L107.84875 231.4351L107.84875 227.23198Q107.84875 226.5601 107.53625 226.23198Q107.23937 225.90385 106.58312 225.90385Q106.05187 225.90385 105.64562 226.1851Q105.255 226.46635 105.03625 226.91948L105.03625 231.4351L103.95812 231.4351L103.95812 222.4351L105.03625 222.4351L105.03625 225.85698ZM114.86437 230.8101Q114.23937 231.5601 113.005 231.5601Q111.98937 231.5601 111.45812 230.96635Q110.92687 230.3726 110.92687 229.21635L110.92687 225.09135L112.005 225.09135L112.005 229.1851Q112.005 230.63823 113.17687 230.63823Q114.42687 230.63823 114.83312 229.70073L114.83312 225.09135L115.92687 225.09135L115.92687 231.4351L114.89562 231.4351L114.86437 230.8101ZM118.97375 225.09135L119.005 225.88823Q119.73937 224.98198 120.91125 224.98198Q122.92687 224.98198 122.9425 227.2476L122.9425 231.4351L121.84875 231.4351L121.84875 227.23198Q121.84875 226.5601 121.53625 226.23198Q121.23937 225.90385 120.58312 225.90385Q120.05187 225.90385 119.64562 226.1851Q119.255 226.46635 119.03625 226.91948L119.03625 231.4351L117.95812 231.4351L117.95812 225.09135L118.97375 225.09135ZM124.6925 228.21635Q124.6925 226.73198 125.38 225.85698Q126.0675 224.98198 127.1925 224.98198Q128.34875 224.98198 129.005 225.79448L129.05188 225.09135L130.05188 225.09135L130.05188 231.27885Q130.05188 232.51323 129.3175 233.21635Q128.58313 233.9351 127.36437 233.9351Q126.67687 233.9351 126.02062 233.63823Q125.36437 233.34135 125.02062 232.84135L125.58312 232.1851Q126.27062 233.04448 127.28625 233.04448Q128.0675 233.04448 128.505 232.59135Q128.95813 232.15385 128.95813 231.34135L128.95813 230.79448Q128.30188 231.5601 127.17687 231.5601Q126.0675 231.5601 125.38 230.66948Q124.6925 229.76323 124.6925 228.21635ZM125.78625 228.34135Q125.78625 229.40385 126.22375 230.02885Q126.66125 230.63823 127.45812 230.63823Q128.47375 230.63823 128.95813 229.70073L128.95813 226.8101Q128.45813 225.90385 127.45812 225.90385Q126.67687 225.90385 126.22375 226.51323Q125.78625 227.1226 125.78625 228.34135Z" fill-rule="nonzero"/><path fill="#757575" d="M104.91125 248.13823L104.30187 247.71635Q104.84875 246.95073 104.88 246.1226L104.88 245.15385L105.9425 245.15385L105.9425 245.9976Q105.9425 246.59135 105.64562 247.1851Q105.34875 247.77885 104.91125 248.13823ZM112.58312 246.5601Q111.28625 246.5601 110.47375 245.71635Q109.67687 244.85698 109.67687 243.4351L109.67687 243.2476Q109.67687 242.29448 110.03625 241.5601Q110.39562 240.8101 111.03625 240.40385Q111.6925 239.98198 112.4425 239.98198Q113.67687 239.98198 114.36437 240.79448Q115.05187 241.60698 115.05187 243.1226L115.05187 243.57573L110.755 243.57573Q110.78625 244.51323 111.30187 245.09135Q111.83312 245.66948 112.64562 245.66948Q113.20812 245.66948 113.59875 245.4351Q114.005 245.20073 114.3175 244.8101L114.97375 245.32573Q114.17687 246.5601 112.58312 246.5601ZM112.4425 240.8726Q111.78625 240.8726 111.33312 241.35698Q110.89562 241.82573 110.80187 242.6851L113.97375 242.6851L113.97375 242.60698Q113.92687 241.77885 113.52062 241.32573Q113.13 240.8726 112.4425 240.8726ZM117.13 246.4351L116.05187 246.4351L116.05187 240.09135L117.13 240.09135L117.13 246.4351ZM115.95812 238.41948Q115.95812 238.15385 116.11437 237.96635Q116.28625 237.77885 116.59875 237.77885Q116.91125 237.77885 117.0675 237.96635Q117.23937 238.15385 117.23937 238.41948Q117.23937 238.66948 117.0675 238.85698Q116.91125 239.02885 116.59875 239.02885Q116.28625 239.02885 116.11437 238.85698Q115.95812 238.66948 115.95812 238.41948ZM121.48937 245.66948Q122.0675 245.66948 122.505 245.32573Q122.9425 244.96635 122.98937 244.4351L124.02062 244.4351Q123.98937 244.98198 123.63 245.48198Q123.28625 245.96635 122.70812 246.26323Q122.14562 246.5601 121.48937 246.5601Q120.1925 246.5601 119.42687 245.70073Q118.67687 244.82573 118.67687 243.32573L118.67687 243.13823Q118.67687 242.21635 119.005 241.4976Q119.34875 240.77885 119.97375 240.38823Q120.61437 239.98198 121.48937 239.98198Q122.55187 239.98198 123.255 240.6226Q123.97375 241.2476 124.02062 242.27885L122.98937 242.27885Q122.9425 241.65385 122.52062 241.26323Q122.09875 240.8726 121.48937 240.8726Q120.66125 240.8726 120.20812 241.46635Q119.755 242.0601 119.755 243.1851L119.755 243.38823Q119.755 244.48198 120.20812 245.07573Q120.66125 245.66948 121.48937 245.66948ZM126.03625 240.85698Q126.755 239.98198 127.91125 239.98198Q129.92688 239.98198 129.9425 242.2476L129.9425 246.4351L128.84875 246.4351L128.84875 242.23198Q128.84875 241.5601 128.53625 241.23198Q128.23938 240.90385 127.58312 240.90385Q127.05187 240.90385 126.64562 241.1851Q126.255 241.46635 126.03625 241.91948L126.03625 246.4351L124.95812 246.4351L124.95812 237.4351L126.03625 237.4351L126.03625 240.85698Z" fill-rule="nonzero"/><path fill="#757575" d="M73.6925 258.21637Q73.6925 256.74762 74.38 255.87262Q75.0675 254.982 76.1925 254.982Q77.30187 254.982 77.95812 255.732L77.95812 252.43512L79.03625 252.43512L79.03625 261.43512L78.03625 261.43512L77.98937 260.74762Q77.33312 261.56012 76.17687 261.56012Q75.08312 261.56012 74.38 260.65387Q73.6925 259.74762 73.6925 258.2945L73.6925 258.21637ZM74.77062 258.34137Q74.77062 259.4195 75.20812 260.02887Q75.66125 260.63824 76.4425 260.63824Q77.47375 260.63824 77.95812 259.70074L77.95812 256.7945Q77.47375 255.90387 76.45812 255.90387Q75.66125 255.90387 75.20812 256.51324Q74.77062 257.12262 74.77062 258.34137ZM82.13 261.43512L81.05187 261.43512L81.05187 255.09137L82.13 255.09137L82.13 261.43512ZM80.95812 253.4195Q80.95812 253.15387 81.11437 252.96637Q81.28625 252.77887 81.59875 252.77887Q81.91125 252.77887 82.0675 252.96637Q82.23937 253.15387 82.23937 253.4195Q82.23937 253.6695 82.0675 253.857Q81.91125 254.02887 81.59875 254.02887Q81.28625 254.02887 81.11437 253.857Q80.95812 253.6695 80.95812 253.4195ZM84.48937 261.43512L84.48937 255.93512L83.48937 255.93512L83.48937 255.09137L84.48937 255.09137L84.48937 254.45074Q84.48937 253.4195 85.02062 252.87262Q85.5675 252.31012 86.5675 252.31012Q86.9425 252.31012 87.3175 252.40387L87.255 253.2945Q86.97375 253.232 86.67687 253.232Q86.14562 253.232 85.84875 253.5445Q85.5675 253.857 85.5675 254.4195L85.5675 255.09137L86.92687 255.09137L86.92687 255.93512L85.5675 255.93512L85.5675 261.43512L84.48937 261.43512ZM88.48937 261.43512L88.48937 255.93512L87.48937 255.93512L87.48937 255.09137L88.48937 255.09137L88.48937 254.45074Q88.48937 253.4195 89.02062 252.87262Q89.5675 252.31012 90.5675 252.31012Q90.9425 252.31012 91.3175 252.40387L91.255 253.2945Q90.97375 253.232 90.67687 253.232Q90.14562 253.232 89.84875 253.5445Q89.5675 253.857 89.5675 254.4195L89.5675 255.09137L90.92687 255.09137L90.92687 255.93512L89.5675 255.93512L89.5675 261.43512L88.48937 261.43512ZM94.58312 261.56012Q93.28625 261.56012 92.47375 260.71637Q91.67687 259.857 91.67687 258.43512L91.67687 258.24762Q91.67687 257.2945 92.03625 256.56012Q92.39562 255.81012 93.03625 255.40387Q93.6925 254.982 94.4425 254.982Q95.67687 254.982 96.36437 255.7945Q97.05187 256.607 97.05187 258.12262L97.05187 258.57574L92.755 258.57574Q92.78625 259.51324 93.30187 260.09137Q93.83312 260.6695 94.64562 260.6695Q95.20812 260.6695 95.59875 260.43512Q96.005 260.20074 96.3175 259.81012L96.97375 260.32574Q96.17687 261.56012 94.58312 261.56012ZM94.4425 255.87262Q93.78625 255.87262 93.33312 256.357Q92.89562 256.82574 92.80187 257.68512L95.97375 257.68512L95.97375 257.607Q95.92687 256.77887 95.52062 256.32574Q95.13 255.87262 94.4425 255.87262ZM101.02062 256.06012Q100.77062 256.02887 100.48937 256.02887Q99.41125 256.02887 99.03625 256.93512L99.03625 261.43512L97.95812 261.43512L97.95812 255.09137L99.005 255.09137L99.02062 255.82574Q99.55187 254.982 100.53625 254.982Q100.84875 254.982 101.02062 255.06012L101.02062 256.06012ZM104.58312 261.56012Q103.28625 261.56012 102.47375 260.71637Q101.67687 259.857 101.67687 258.43512L101.67687 258.24762Q101.67687 257.2945 102.03625 256.56012Q102.39562 255.81012 103.03625 255.40387Q103.6925 254.982 104.4425 254.982Q105.67687 254.982 106.36437 255.7945Q107.05187 256.607 107.05187 258.12262L107.05187 258.57574L102.755 258.57574Q102.78625 259.51324 103.30187 260.09137Q103.83312 260.6695 104.64562 260.6695Q105.20812 260.6695 105.59875 260.43512Q106.005 260.20074 106.3175 259.81012L106.97375 260.32574Q106.17687 261.56012 104.58312 261.56012ZM104.4425 255.87262Q103.78625 255.87262 103.33312 256.357Q102.89562 256.82574 102.80187 257.68512L105.97375 257.68512L105.97375 257.607Q105.92687 256.77887 105.52062 256.32574Q105.13 255.87262 104.4425 255.87262ZM108.97375 255.09137L109.005 255.88824Q109.73937 254.982 110.91125 254.982Q112.92687 254.982 112.9425 257.24762L112.9425 261.43512L111.84875 261.43512L111.84875 257.232Q111.84875 256.56012 111.53625 256.232Q111.23937 255.90387 110.58312 255.90387Q110.05187 255.90387 109.64562 256.18512Q109.255 256.46637 109.03625 256.9195L109.03625 261.43512L107.95812 261.43512L107.95812 255.09137L108.97375 255.09137ZM116.42687 253.56012L116.42687 255.09137L117.59875 255.09137L117.59875 255.93512L116.42687 255.93512L116.42687 259.857Q116.42687 260.24762 116.58312 260.43512Q116.73937 260.62262 117.11437 260.62262Q117.30187 260.62262 117.63 260.56012L117.63 261.43512Q117.20812 261.56012 116.80187 261.56012Q116.08312 261.56012 115.70812 261.12262Q115.33312 260.6695 115.33312 259.857L115.33312 255.93512L114.17687 255.93512L114.17687 255.09137L115.33312 255.09137L115.33312 253.56012L116.42687 253.56012ZM120.13 261.43512L119.05187 261.43512L119.05187 255.09137L120.13 255.09137L120.13 261.43512ZM118.95812 253.4195Q118.95812 253.15387 119.11437 252.96637Q119.28625 252.77887 119.59875 252.77887Q119.91125 252.77887 120.0675 252.96637Q120.23937 253.15387 120.23937 253.4195Q120.23937 253.6695 120.0675 253.857Q119.91125 254.02887 119.59875 254.02887Q119.28625 254.02887 119.11437 253.857Q118.95812 253.6695 118.95812 253.4195ZM125.86437 261.43512Q125.77062 261.24762 125.70812 260.76324Q124.95812 261.56012 123.91125 261.56012Q122.97375 261.56012 122.36437 261.02887Q121.77062 260.49762 121.77062 259.6695Q121.77062 258.68512 122.52062 258.13824Q123.27062 257.59137 124.64562 257.59137L125.6925 257.59137L125.6925 257.09137Q125.6925 256.52887 125.34875 256.20074Q125.02062 255.857 124.34875 255.857Q123.77062 255.857 123.38 256.15387Q122.98937 256.43512 122.98937 256.857L121.89562 256.857Q121.89562 256.37262 122.22375 255.93512Q122.5675 255.49762 123.14562 255.24762Q123.72375 254.982 124.41125 254.982Q125.52062 254.982 126.13 255.52887Q126.755 256.07574 126.78625 257.02887L126.78625 259.95074Q126.78625 260.82574 127.005 261.34137L127.005 261.43512L125.86437 261.43512ZM124.0675 260.607Q124.58312 260.607 125.03625 260.34137Q125.48937 260.07574 125.6925 259.65387L125.6925 258.357L124.84875 258.357Q122.84875 258.357 122.84875 259.52887Q122.84875 260.02887 123.1925 260.32574Q123.53625 260.607 124.0675 260.607ZM130.13 261.43512L129.05188 261.43512L129.05188 252.43512L130.13 252.43512L130.13 261.43512Z" fill-rule="nonzero"/><path fill="#757575" d="M73.6925 288.21637Q73.6925 286.74762 74.38 285.87262Q75.0675 284.982 76.1925 284.982Q77.30187 284.982 77.95812 285.732L77.95812 282.43512L79.03625 282.43512L79.03625 291.43512L78.03625 291.43512L77.98937 290.74762Q77.33312 291.56012 76.17687 291.56012Q75.08312 291.56012 74.38 290.65387Q73.6925 289.74762 73.6925 288.2945L73.6925 288.21637ZM74.77062 288.34137Q74.77062 289.4195 75.20812 290.02887Q75.66125 290.63824 76.4425 290.63824Q77.47375 290.63824 77.95812 289.70074L77.95812 286.7945Q77.47375 285.90387 76.45812 285.90387Q75.66125 285.90387 75.20812 286.51324Q74.77062 287.12262 74.77062 288.34137ZM82.13 291.43512L81.05187 291.43512L81.05187 285.09137L82.13 285.09137L82.13 291.43512ZM80.95812 283.4195Q80.95812 283.15387 81.11437 282.96637Q81.28625 282.77887 81.59875 282.77887Q81.91125 282.77887 82.0675 282.96637Q82.23937 283.15387 82.23937 283.4195Q82.23937 283.6695 82.0675 283.857Q81.91125 284.02887 81.59875 284.02887Q81.28625 284.02887 81.11437 283.857Q80.95812 283.6695 80.95812 283.4195ZM84.48937 291.43512L84.48937 285.93512L83.48937 285.93512L83.48937 285.09137L84.48937 285.09137L84.48937 284.45074Q84.48937 283.4195 85.02062 282.87262Q85.5675 282.31012 86.5675 282.31012Q86.9425 282.31012 87.3175 282.40387L87.255 283.2945Q86.97375 283.232 86.67687 283.232Q86.14562 283.232 85.84875 283.5445Q85.5675 283.857 85.5675 284.4195L85.5675 285.09137L86.92687 285.09137L86.92687 285.93512L85.5675 285.93512L85.5675 291.43512L84.48937 291.43512ZM88.48937 291.43512L88.48937 285.93512L87.48937 285.93512L87.48937 285.09137L88.48937 285.09137L88.48937 284.45074Q88.48937 283.4195 89.02062 282.87262Q89.5675 282.31012 90.5675 282.31012Q90.9425 282.31012 91.3175 282.40387L91.255 283.2945Q90.97375 283.232 90.67687 283.232Q90.14562 283.232 89.84875 283.5445Q89.5675 283.857 89.5675 284.4195L89.5675 285.09137L90.92687 285.09137L90.92687 285.93512L89.5675 285.93512L89.5675 291.43512L88.48937 291.43512ZM94.58312 291.56012Q93.28625 291.56012 92.47375 290.71637Q91.67687 289.857 91.67687 288.43512L91.67687 288.24762Q91.67687 287.2945 92.03625 286.56012Q92.39562 285.81012 93.03625 285.40387Q93.6925 284.982 94.4425 284.982Q95.67687 284.982 96.36437 285.7945Q97.05187 286.607 97.05187 288.12262L97.05187 288.57574L92.755 288.57574Q92.78625 289.51324 93.30187 290.09137Q93.83312 290.6695 94.64562 290.6695Q95.20812 290.6695 95.59875 290.43512Q96.005 290.20074 96.3175 289.81012L96.97375 290.32574Q96.17687 291.56012 94.58312 291.56012ZM94.4425 285.87262Q93.78625 285.87262 93.33312 286.357Q92.89562 286.82574 92.80187 287.68512L95.97375 287.68512L95.97375 287.607Q95.92687 286.77887 95.52062 286.32574Q95.13 285.87262 94.4425 285.87262ZM101.02062 286.06012Q100.77062 286.02887 100.48937 286.02887Q99.41125 286.02887 99.03625 286.93512L99.03625 291.43512L97.95812 291.43512L97.95812 285.09137L99.005 285.09137L99.02062 285.82574Q99.55187 284.982 100.53625 284.982Q100.84875 284.982 101.02062 285.06012L101.02062 286.06012ZM104.58312 291.56012Q103.28625 291.56012 102.47375 290.71637Q101.67687 289.857 101.67687 288.43512L101.67687 288.24762Q101.67687 287.2945 102.03625 286.56012Q102.39562 285.81012 103.03625 285.40387Q103.6925 284.982 104.4425 284.982Q105.67687 284.982 106.36437 285.7945Q107.05187 286.607 107.05187 288.12262L107.05187 288.57574L102.755 288.57574Q102.78625 289.51324 103.30187 290.09137Q103.83312 290.6695 104.64562 290.6695Q105.20812 290.6695 105.59875 290.43512Q106.005 290.20074 106.3175 289.81012L106.97375 290.32574Q106.17687 291.56012 104.58312 291.56012ZM104.4425 285.87262Q103.78625 285.87262 103.33312 286.357Q102.89562 286.82574 102.80187 287.68512L105.97375 287.68512L105.97375 287.607Q105.92687 286.77887 105.52062 286.32574Q105.13 285.87262 104.4425 285.87262ZM108.97375 285.09137L109.005 285.88824Q109.73937 284.982 110.91125 284.982Q112.92687 284.982 112.9425 287.24762L112.9425 291.43512L111.84875 291.43512L111.84875 287.232Q111.84875 286.56012 111.53625 286.232Q111.23937 285.90387 110.58312 285.90387Q110.05187 285.90387 109.64562 286.18512Q109.255 286.46637 109.03625 286.9195L109.03625 291.43512L107.95812 291.43512L107.95812 285.09137L108.97375 285.09137ZM116.42687 283.56012L116.42687 285.09137L117.59875 285.09137L117.59875 285.93512L116.42687 285.93512L116.42687 289.857Q116.42687 290.24762 116.58312 290.43512Q116.73937 290.62262 117.11437 290.62262Q117.30187 290.62262 117.63 290.56012L117.63 291.43512Q117.20812 291.56012 116.80187 291.56012Q116.08312 291.56012 115.70812 291.12262Q115.33312 290.6695 115.33312 289.857L115.33312 285.93512L114.17687 285.93512L114.17687 285.09137L115.33312 285.09137L115.33312 283.56012L116.42687 283.56012ZM120.13 291.43512L119.05187 291.43512L119.05187 285.09137L120.13 285.09137L120.13 291.43512ZM118.95812 283.4195Q118.95812 283.15387 119.11437 282.96637Q119.28625 282.77887 119.59875 282.77887Q119.91125 282.77887 120.0675 282.96637Q120.23937 283.15387 120.23937 283.4195Q120.23937 283.6695 120.0675 283.857Q119.91125 284.02887 119.59875 284.02887Q119.28625 284.02887 119.11437 283.857Q118.95812 283.6695 118.95812 283.4195ZM125.86437 291.43512Q125.77062 291.24762 125.70812 290.76324Q124.95812 291.56012 123.91125 291.56012Q122.97375 291.56012 122.36437 291.02887Q121.77062 290.49762 121.77062 289.6695Q121.77062 288.68512 122.52062 288.13824Q123.27062 287.59137 124.64562 287.59137L125.6925 287.59137L125.6925 287.09137Q125.6925 286.52887 125.34875 286.20074Q125.02062 285.857 124.34875 285.857Q123.77062 285.857 123.38 286.15387Q122.98937 286.43512 122.98937 286.857L121.89562 286.857Q121.89562 286.37262 122.22375 285.93512Q122.5675 285.49762 123.14562 285.24762Q123.72375 284.982 124.41125 284.982Q125.52062 284.982 126.13 285.52887Q126.755 286.07574 126.78625 287.02887L126.78625 289.95074Q126.78625 290.82574 127.005 291.34137L127.005 291.43512L125.86437 291.43512ZM124.0675 290.607Q124.58312 290.607 125.03625 290.34137Q125.48937 290.07574 125.6925 289.65387L125.6925 288.357L124.84875 288.357Q122.84875 288.357 122.84875 289.52887Q122.84875 290.02887 123.1925 290.32574Q123.53625 290.607 124.0675 290.607ZM130.13 291.43512L129.05188 291.43512L129.05188 282.43512L130.13 282.43512L130.13 291.43512Z" fill-rule="nonzero"/><path fill="#757575" d="M139.6925 345.8094Q139.6925 347.71564 139.03625 348.65314Q138.39563 349.575 137.005 349.575Q135.64563 349.575 134.98938 348.66876Q134.33313 347.7625 134.30188 345.95L134.30188 344.5125Q134.30188 342.6219 134.9425 341.71564Q135.59875 340.79376 136.98938 340.79376Q138.36438 340.79376 139.02063 341.6844Q139.67688 342.5594 139.6925 344.40314L139.6925 345.8094ZM138.59875 344.325Q138.59875 342.95 138.20813 342.325Q137.83313 341.6844 136.98938 341.6844Q136.16125 341.6844 135.77063 342.325Q135.39563 342.95 135.39563 344.2469L135.39563 345.98126Q135.39563 347.35626 135.78625 348.02814Q136.1925 348.6844 137.005 348.6844Q137.80188 348.6844 138.1925 348.0594Q138.58313 347.4344 138.59875 346.10626L138.59875 344.325Z" fill-rule="nonzero"/><path fill="#757575" d="M228.79088 349.45L223.19713 349.45L223.19713 348.66876L226.15025 345.3875Q226.8065 344.6375 227.0565 344.1844Q227.3065 343.71564 227.3065 343.21564Q227.3065 342.54376 226.90025 342.1219Q226.50963 341.6844 225.82213 341.6844Q225.02525 341.6844 224.57213 342.15314Q224.119 342.60626 224.119 343.4344L223.04088 343.4344Q223.04088 342.2469 223.79088 341.52814Q224.5565 340.79376 225.82213 340.79376Q227.02525 340.79376 227.71275 341.41876Q228.40025 342.04376 228.40025 343.09064Q228.40025 344.34064 226.79088 346.09064L224.50963 348.5594L228.79088 348.5594L228.79088 349.45Z" fill-rule="nonzero"/><path fill="#757575" d="M316.63925 346.59064L317.82675 346.59064L317.82675 347.46564L316.63925 347.46564L316.63925 349.45L315.56113 349.45L315.56113 347.46564L311.6705 347.46564L311.6705 346.825L315.483 340.91876L316.63925 340.91876L316.63925 346.59064ZM312.90488 346.59064L315.56113 346.59064L315.56113 342.40314L315.4205 342.6375L312.90488 346.59064Z" fill-rule="nonzero"/><path fill="#757575" d="M405.19073 340.91876L405.19073 341.825L404.9876 341.825Q403.722 341.85626 402.972 342.59064Q402.222 343.3094 402.097 344.6219Q402.7845 343.85626 403.94073 343.85626Q405.0501 343.85626 405.722 344.6375Q406.39386 345.41876 406.39386 346.66876Q406.39386 347.98126 405.6751 348.77814Q404.95636 349.575 403.7376 349.575Q402.51886 349.575 401.75323 348.6375Q401.00323 347.6844 401.00323 346.2L401.00323 345.79376Q401.00323 343.4344 402.00323 342.1844Q403.00323 340.9344 404.9876 340.91876L405.19073 340.91876ZM403.76886 344.7625Q403.20636 344.7625 402.7376 345.09064Q402.26886 345.41876 402.08136 345.9344L402.08136 346.325Q402.08136 347.3875 402.5501 348.02814Q403.0345 348.66876 403.7376 348.66876Q404.472 348.66876 404.89386 348.1375Q405.31573 347.59064 405.31573 346.71564Q405.31573 345.84064 404.89386 345.3094Q404.472 344.7625 403.76886 344.7625Z" fill-rule="nonzero"/><path fill="#757575" d="M494.97662 343.1375Q494.97662 343.77814 494.63287 344.27814Q494.28912 344.77814 493.72662 345.0594Q494.38287 345.34064 494.7735 345.90314Q495.16412 346.45 495.16412 347.15314Q495.16412 348.2469 494.41412 348.91876Q493.67975 349.575 492.461 349.575Q491.22662 349.575 490.47662 348.91876Q489.74225 348.2469 489.74225 347.15314Q489.74225 346.45 490.11725 345.90314Q490.49225 345.34064 491.16412 345.0594Q490.60162 344.77814 490.2735 344.27814Q489.94537 343.77814 489.94537 343.1375Q489.94537 342.0594 490.63287 341.4344Q491.32037 340.79376 492.461 340.79376Q493.586 340.79376 494.2735 341.4344Q494.97662 342.0594 494.97662 343.1375ZM494.086 347.1219Q494.086 346.40314 493.63287 345.96564Q493.17975 345.5125 492.44537 345.5125Q491.711 345.5125 491.25787 345.96564Q490.82037 346.40314 490.82037 347.1375Q490.82037 347.85626 491.25787 348.27814Q491.69537 348.6844 492.461 348.6844Q493.211 348.6844 493.6485 348.2625Q494.086 347.84064 494.086 347.1219ZM492.461 341.6844Q491.82037 341.6844 491.41412 342.09064Q491.0235 342.48126 491.0235 343.16876Q491.0235 343.8094 491.41412 344.21564Q491.80475 344.6219 492.44537 344.6219Q493.10162 344.6219 493.49225 344.21564Q493.88287 343.8094 493.88287 343.16876Q493.88287 342.5125 493.47662 342.10626Q493.07037 341.6844 492.461 341.6844Z" fill-rule="nonzero"/><path fill="#757575" d="M578.71564 349.45L577.6375 349.45L577.6375 342.23126L575.45 343.02814L575.45 342.04376L578.5594 340.8719L578.71564 340.8719L578.71564 349.45ZM587.5125 345.8094Q587.5125 347.71564 586.85626 348.65314Q586.21564 349.575 584.825 349.575Q583.46564 349.575 582.8094 348.66876Q582.15314 347.7625 582.1219 345.95L582.1219 344.5125Q582.1219 342.6219 582.7625 341.71564Q583.41876 340.79376 584.8094 340.79376Q586.1844 340.79376 586.84064 341.6844Q587.4969 342.5594 587.5125 344.40314L587.5125 345.8094ZM586.41876 344.325Q586.41876 342.95 586.02814 342.325Q585.65314 341.6844 584.8094 341.6844Q583.98126 341.6844 583.59064 342.325Q583.21564 342.95 583.21564 344.2469L583.21564 345.98126Q583.21564 347.35626 583.60626 348.02814Q584.0125 348.6844 584.825 348.6844Q585.6219 348.6844 586.0125 348.0594Q586.40314 347.4344 586.41876 346.10626L586.41876 344.325Z" fill-rule="nonzero"/><path fill="#8cab13" d="M123.5 21.05C123.5 20.497715 123.947716 20.05 124.5 20.05L134.5 20.05C135.05229 20.05 135.5 20.497715 135.5 21.05L135.5 31.05C135.5 31.602285 135.05229 32.05 134.5 32.05L124.5 32.05C123.947716 32.05 123.5 31.602285 123.5 31.05Z" fill-rule="nonzero"/><path fill="#757575" d="M144.48438 30.55L144.48438 22.01875L146.90625 22.01875Q148.01562 22.01875 148.85938 22.51875Q149.71875 23.003124 150.1875 23.909374Q150.65625 24.815624 150.65625 26.003124L150.65625 26.534374Q150.65625 27.753124 150.1875 28.659374Q149.73438 29.565624 148.85938 30.05Q148.0 30.534374 146.85938 30.55L144.48438 30.55ZM145.60938 22.940624L145.60938 29.628124L146.79688 29.628124Q148.09375 29.628124 148.8125 28.83125Q149.54688 28.01875 149.54688 26.51875L149.54688 26.01875Q149.54688 24.565624 148.85938 23.76875Q148.1875 22.95625 146.92188 22.940624L145.60938 22.940624ZM153.5 30.55L152.42188 30.55L152.42188 24.20625L153.5 24.20625L153.5 30.55ZM152.32812 22.534374Q152.32812 22.26875 152.48438 22.08125Q152.65625 21.89375 152.96875 21.89375Q153.28125 21.89375 153.4375 22.08125Q153.60938 22.26875 153.60938 22.534374Q153.60938 22.784374 153.4375 22.971874Q153.28125 23.14375 152.96875 23.14375Q152.65625 23.14375 152.48438 22.971874Q152.32812 22.784374 152.32812 22.534374ZM157.85938 29.784374Q158.4375 29.784374 158.875 29.440624Q159.3125 29.08125 159.35938 28.55L160.39062 28.55Q160.35938 29.096874 160.0 29.596874Q159.65625 30.08125 159.07812 30.378124Q158.51562 30.675 157.85938 30.675Q156.5625 30.675 155.79688 29.815624Q155.04688 28.940624 155.04688 27.440624L155.04688 27.253124Q155.04688 26.33125 155.375 25.6125Q155.71875 24.89375 156.34375 24.503124Q156.98438 24.096874 157.85938 24.096874Q158.92188 24.096874 159.625 24.7375Q160.34375 25.3625 160.39062 26.39375L159.35938 26.39375Q159.3125 25.76875 158.89062 25.378124Q158.46875 24.9875 157.85938 24.9875Q157.03125 24.9875 156.57812 25.58125Q156.125 26.175 156.125 27.3L156.125 27.503124Q156.125 28.596874 156.57812 29.190624Q157.03125 29.784374 157.85938 29.784374ZM162.79688 22.675L162.79688 24.20625L163.96875 24.20625L163.96875 25.05L162.79688 25.05L162.79688 28.971874Q162.79688 29.3625 162.95312 29.55Q163.10938 29.7375 163.48438 29.7375Q163.67188 29.7375 164.0 29.675L164.0 30.55Q163.57812 30.675 163.17188 30.675Q162.45312 30.675 162.07812 30.2375Q161.70312 29.784374 161.70312 28.971874L161.70312 25.05L160.54688 25.05L160.54688 24.20625L161.70312 24.20625L161.70312 22.675L162.79688 22.675ZM166.5 30.55L165.42188 30.55L165.42188 24.20625L166.5 24.20625L166.5 30.55ZM165.32812 22.534374Q165.32812 22.26875 165.48438 22.08125Q165.65625 21.89375 165.96875 21.89375Q166.28125 21.89375 166.4375 22.08125Q166.60938 22.26875 166.60938 22.534374Q166.60938 22.784374 166.4375 22.971874Q166.28125 23.14375 165.96875 23.14375Q165.65625 23.14375 165.48438 22.971874Q165.32812 22.784374 165.32812 22.534374ZM168.03125 27.315624Q168.03125 26.39375 168.39062 25.64375Q168.76562 24.89375 169.42188 24.503124Q170.07812 24.096874 170.90625 24.096874Q172.20312 24.096874 173.0 24.9875Q173.8125 25.878124 173.8125 27.378124L173.8125 27.45625Q173.8125 28.378124 173.45312 29.1125Q173.09375 29.846874 172.4375 30.26875Q171.78125 30.675 170.92188 30.675Q169.64062 30.675 168.82812 29.784374Q168.03125 28.878124 168.03125 27.39375L168.03125 27.315624ZM169.125 27.45625Q169.125 28.503124 169.60938 29.14375Q170.10938 29.784374 170.92188 29.784374Q171.75 29.784374 172.23438 29.14375Q172.71875 28.4875 172.71875 27.315624Q172.71875 26.284374 172.21875 25.64375Q171.73438 24.9875 170.90625 24.9875Q170.10938 24.9875 169.60938 25.628124Q169.125 26.253124 169.125 27.45625ZM176.34375 24.20625L176.375 25.003124Q177.10938 24.096874 178.28125 24.096874Q180.29688 24.096874 180.3125 26.3625L180.3125 30.55L179.21875 30.55L179.21875 26.346874Q179.21875 25.675 178.90625 25.346874Q178.60938 25.01875 177.95312 25.01875Q177.42188 25.01875 177.01562 25.3Q176.625 25.58125 176.40625 26.034374L176.40625 30.55L175.32812 30.55L175.32812 24.20625L176.34375 24.20625ZM186.23438 30.55Q186.14062 30.3625 186.07812 29.878124Q185.32812 30.675 184.28125 30.675Q183.34375 30.675 182.73438 30.14375Q182.14062 29.6125 182.14062 28.784374Q182.14062 27.8 182.89062 27.253124Q183.64062 26.70625 185.01562 26.70625L186.0625 26.70625L186.0625 26.20625Q186.0625 25.64375 185.71875 25.315624Q185.39062 24.971874 184.71875 24.971874Q184.14062 24.971874 183.75 25.26875Q183.35938 25.55 183.35938 25.971874L182.26562 25.971874Q182.26562 25.4875 182.59375 25.05Q182.9375 24.6125 183.51562 24.3625Q184.09375 24.096874 184.78125 24.096874Q185.89062 24.096874 186.5 24.64375Q187.125 25.190624 187.15625 26.14375L187.15625 29.065624Q187.15625 29.940624 187.375 30.45625L187.375 30.55L186.23438 30.55ZM184.4375 29.721874Q184.95312 29.721874 185.40625 29.45625Q185.85938 29.190624 186.0625 28.76875L186.0625 27.471874L185.21875 27.471874Q183.21875 27.471874 183.21875 28.64375Q183.21875 29.14375 183.5625 29.440624Q183.90625 29.721874 184.4375 29.721874ZM192.39062 25.175Q192.14062 25.14375 191.85938 25.14375Q190.78125 25.14375 190.40625 26.05L190.40625 30.55L189.32812 30.55L189.32812 24.20625L190.375 24.20625L190.39062 24.940624Q190.92188 24.096874 191.90625 24.096874Q192.21875 24.096874 192.39062 24.175L192.39062 25.175ZM195.39062 28.95625L196.875 24.20625L198.03125 24.20625L195.48438 31.534374Q194.89062 33.1125 193.60938 33.1125L193.39062 33.096874L193.0 33.01875L193.0 32.14375L193.28125 32.159374Q193.84375 32.159374 194.14062 31.940624Q194.45312 31.721874 194.65625 31.128124L194.89062 30.471874L192.625 24.20625L193.8125 24.20625L195.39062 28.95625ZM202.48438 30.55L202.48438 22.01875L204.90625 22.01875Q206.01562 22.01875 206.85938 22.51875Q207.71875 23.003124 208.1875 23.909374Q208.65625 24.815624 208.65625 26.003124L208.65625 26.534374Q208.65625 27.753124 208.1875 28.659374Q207.73438 29.565624 206.85938 30.05Q206.0 30.534374 204.85938 30.55L202.48438 30.55ZM203.60938 22.940624L203.60938 29.628124L204.79688 29.628124Q206.09375 29.628124 206.8125 28.83125Q207.54688 28.01875 207.54688 26.51875L207.54688 26.01875Q207.54688 24.565624 206.85938 23.76875Q206.1875 22.95625 204.92188 22.940624L203.60938 22.940624ZM212.95312 30.675Q211.65625 30.675 210.84375 29.83125Q210.04688 28.971874 210.04688 27.55L210.04688 27.3625Q210.04688 26.409374 210.40625 25.675Q210.76562 24.925 211.40625 24.51875Q212.0625 24.096874 212.8125 24.096874Q214.04688 24.096874 214.73438 24.909374Q215.42188 25.721874 215.42188 27.2375L215.42188 27.690624L211.125 27.690624Q211.15625 28.628124 211.67188 29.20625Q212.20312 29.784374 213.01562 29.784374Q213.57812 29.784374 213.96875 29.55Q214.375 29.315624 214.6875 28.925L215.34375 29.440624Q214.54688 30.675 212.95312 30.675ZM212.8125 24.9875Q212.15625 24.9875 211.70312 25.471874Q211.26562 25.940624 211.17188 26.8L214.34375 26.8L214.34375 26.721874Q214.29688 25.89375 213.89062 25.440624Q213.5 24.9875 212.8125 24.9875ZM218.85938 29.784374Q219.4375 29.784374 219.875 29.440624Q220.3125 29.08125 220.35938 28.55L221.39062 28.55Q221.35938 29.096874 221.0 29.596874Q220.65625 30.08125 220.07812 30.378124Q219.51562 30.675 218.85938 30.675Q217.5625 30.675 216.79688 29.815624Q216.04688 28.940624 216.04688 27.440624L216.04688 27.253124Q216.04688 26.33125 216.375 25.6125Q216.71875 24.89375 217.34375 24.503124Q217.98438 24.096874 218.85938 24.096874Q219.92188 24.096874 220.625 24.7375Q221.34375 25.3625 221.39062 26.39375L220.35938 26.39375Q220.3125 25.76875 219.89062 25.378124Q219.46875 24.9875 218.85938 24.9875Q218.03125 24.9875 217.57812 25.58125Q217.125 26.175 217.125 27.3L217.125 27.503124Q217.125 28.596874 217.57812 29.190624Q218.03125 29.784374 218.85938 29.784374ZM222.03125 27.315624Q222.03125 26.39375 222.39062 25.64375Q222.76562 24.89375 223.42188 24.503124Q224.07812 24.096874 224.90625 24.096874Q226.20312 24.096874 227.0 24.9875Q227.8125 25.878124 227.8125 27.378124L227.8125 27.45625Q227.8125 28.378124 227.45312 29.1125Q227.09375 29.846874 226.4375 30.26875Q225.78125 30.675 224.92188 30.675Q223.64062 30.675 222.82812 29.784374Q222.03125 28.878124 222.03125 27.39375L222.03125 27.315624ZM223.125 27.45625Q223.125 28.503124 223.60938 29.14375Q224.10938 29.784374 224.92188 29.784374Q225.75 29.784374 226.23438 29.14375Q226.71875 28.4875 226.71875 27.315624Q226.71875 26.284374 226.21875 25.64375Q225.73438 24.9875 224.90625 24.9875Q224.10938 24.9875 223.60938 25.628124Q223.125 26.253124 223.125 27.45625ZM230.34375 24.20625L230.375 24.909374Q231.0625 24.096874 232.25 24.096874Q233.57812 24.096874 234.0625 25.1125Q234.375 24.659374 234.875 24.378124Q235.39062 24.096874 236.07812 24.096874Q238.17188 24.096874 238.20312 26.3L238.20312 30.55L237.125 30.55L237.125 26.3625Q237.125 25.690624 236.8125 25.3625Q236.5 25.01875 235.76562 25.01875Q235.15625 25.01875 234.75 25.378124Q234.35938 25.7375 234.29688 26.346874L234.29688 30.55L233.21875 30.55L233.21875 26.39375Q233.21875 25.01875 231.85938 25.01875Q230.79688 25.01875 230.40625 25.925L230.40625 30.55L229.3125 30.55L229.3125 24.20625L230.34375 24.20625ZM245.67188 27.45625Q245.67188 28.89375 245.01562 29.784374Q244.35938 30.675 243.21875 30.675Q242.0625 30.675 241.40625 29.940624L241.40625 32.9875L240.32812 32.9875L240.32812 24.20625L241.3125 24.20625L241.35938 24.909374Q242.03125 24.096874 243.20312 24.096874Q244.34375 24.096874 245.0 24.95625Q245.67188 25.815624 245.67188 27.346874L245.67188 27.45625ZM244.59375 27.33125Q244.59375 26.253124 244.125 25.64375Q243.67188 25.01875 242.875 25.01875Q241.89062 25.01875 241.40625 25.878124L241.40625 28.909374Q241.89062 29.784374 242.89062 29.784374Q243.67188 29.784374 244.125 29.175Q244.59375 28.55 244.59375 27.33125ZM247.03125 27.315624Q247.03125 26.39375 247.39062 25.64375Q247.76562 24.89375 248.42188 24.503124Q249.07812 24.096874 249.90625 24.096874Q251.20312 24.096874 252.0 24.9875Q252.8125 25.878124 252.8125 27.378124L252.8125 27.45625Q252.8125 28.378124 252.45312 29.1125Q252.09375 29.846874 251.4375 30.26875Q250.78125 30.675 249.92188 30.675Q248.64062 30.675 247.82812 29.784374Q247.03125 28.878124 247.03125 27.39375L247.03125 27.315624ZM248.125 27.45625Q248.125 28.503124 248.60938 29.14375Q249.10938 29.784374 249.92188 29.784374Q250.75 29.784374 251.23438 29.14375Q251.71875 28.4875 251.71875 27.315624Q251.71875 26.284374 251.21875 25.64375Q250.73438 24.9875 249.90625 24.9875Q249.10938 24.9875 248.60938 25.628124Q248.125 26.253124 248.125 27.45625ZM258.23438 29.925Q257.60938 30.675 256.375 30.675Q255.35938 30.675 254.82812 30.08125Q254.29688 29.4875 254.29688 28.33125L254.29688 24.20625L255.375 24.20625L255.375 28.3Q255.375 29.753124 256.54688 29.753124Q257.79688 29.753124 258.20312 28.815624L258.20312 24.20625L259.29688 24.20625L259.29688 30.55L258.26562 30.55L258.23438 29.925ZM262.34375 24.20625L262.375 25.003124Q263.10938 24.096874 264.28125 24.096874Q266.29688 24.096874 266.3125 26.3625L266.3125 30.55L265.21875 30.55L265.21875 26.346874Q265.21875 25.675 264.90625 25.346874Q264.60938 25.01875 263.95312 25.01875Q263.42188 25.01875 263.01562 25.3Q262.625 25.58125 262.40625 26.034374L262.40625 30.55L261.32812 30.55L261.32812 24.20625L262.34375 24.20625ZM268.0625 27.33125Q268.0625 25.8625 268.75 24.9875Q269.4375 24.096874 270.5625 24.096874Q271.67188 24.096874 272.32812 24.846874L272.32812 21.55L273.40625 21.55L273.40625 30.55L272.40625 30.55L272.35938 29.8625Q271.70312 30.675 270.54688 30.675Q269.45312 30.675 268.75 29.76875Q268.0625 28.8625 268.0625 27.409374L268.0625 27.33125ZM269.14062 27.45625Q269.14062 28.534374 269.57812 29.14375Q270.03125 29.753124 270.8125 29.753124Q271.84375 29.753124 272.32812 28.815624L272.32812 25.909374Q271.84375 25.01875 270.82812 25.01875Q270.03125 25.01875 269.57812 25.628124Q269.14062 26.2375 269.14062 27.45625ZM277.95312 30.675Q276.65625 30.675 275.84375 29.83125Q275.04688 28.971874 275.04688 27.55L275.04688 27.3625Q275.04688 26.409374 275.40625 25.675Q275.76562 24.925 276.40625 24.51875Q277.0625 24.096874 277.8125 24.096874Q279.04688 24.096874 279.73438 24.909374Q280.42188 25.721874 280.42188 27.2375L280.42188 27.690624L276.125 27.690624Q276.15625 28.628124 276.67188 29.20625Q277.20312 29.784374 278.01562 29.784374Q278.57812 29.784374 278.96875 29.55Q279.375 29.315624 279.6875 28.925L280.34375 29.440624Q279.54688 30.675 277.95312 30.675ZM277.8125 24.9875Q277.15625 24.9875 276.70312 25.471874Q276.26562 25.940624 276.17188 26.8L279.34375 26.8L279.34375 26.721874Q279.29688 25.89375 278.89062 25.440624Q278.5 24.9875 277.8125 24.9875ZM284.39062 25.175Q284.14062 25.14375 283.85938 25.14375Q282.78125 25.14375 282.40625 26.05L282.40625 30.55L281.32812 30.55L281.32812 24.20625L282.375 24.20625L282.39062 24.940624Q282.92188 24.096874 283.90625 24.096874Q284.21875 24.096874 284.39062 24.175L284.39062 25.175Z" fill-rule="nonzero"/><path fill="#22ab82" d="M300.5 21.05C300.5 20.497715 300.94772 20.05 301.5 20.05L311.5 20.05C312.05228 20.05 312.5 20.497715 312.5 21.05L312.5 31.05C312.5 31.602285 312.05228 32.05 311.5 32.05L301.5 32.05C300.94772 32.05 300.5 31.602285 300.5 31.05Z" fill-rule="nonzero"/><path fill="#757575" d="M328.04688 30.55L326.92188 30.55L326.92188 26.6125L322.60938 26.6125L322.60938 30.55L321.48438 30.55L321.48438 22.01875L322.60938 22.01875L322.60938 25.690624L326.92188 25.690624L326.92188 22.01875L328.04688 22.01875L328.04688 30.55ZM332.39062 28.95625L333.875 24.20625L335.03125 24.20625L332.48438 31.534374Q331.89062 33.1125 330.60938 33.1125L330.39062 33.096874L330.0 33.01875L330.0 32.14375L330.28125 32.159374Q330.84375 32.159374 331.14062 31.940624Q331.45312 31.721874 331.65625 31.128124L331.89062 30.471874L329.625 24.20625L330.8125 24.20625L332.39062 28.95625ZM341.67188 27.45625Q341.67188 28.89375 341.01562 29.784374Q340.35938 30.675 339.21875 30.675Q338.0625 30.675 337.40625 29.940624L337.40625 32.9875L336.32812 32.9875L336.32812 24.20625L337.3125 24.20625L337.35938 24.909374Q338.03125 24.096874 339.20312 24.096874Q340.34375 24.096874 341.0 24.95625Q341.67188 25.815624 341.67188 27.346874L341.67188 27.45625ZM340.59375 27.33125Q340.59375 26.253124 340.125 25.64375Q339.67188 25.01875 338.875 25.01875Q337.89062 25.01875 337.40625 25.878124L337.40625 28.909374Q337.89062 29.784374 338.89062 29.784374Q339.67188 29.784374 340.125 29.175Q340.59375 28.55 340.59375 27.33125ZM344.40625 24.971874Q345.125 24.096874 346.28125 24.096874Q348.29688 24.096874 348.3125 26.3625L348.3125 30.55L347.21875 30.55L347.21875 26.346874Q347.21875 25.675 346.90625 25.346874Q346.60938 25.01875 345.95312 25.01875Q345.42188 25.01875 345.01562 25.3Q344.625 25.58125 344.40625 26.034374L344.40625 30.55L343.32812 30.55L343.32812 21.55L344.40625 21.55L344.40625 24.971874ZM352.95312 30.675Q351.65625 30.675 350.84375 29.83125Q350.04688 28.971874 350.04688 27.55L350.04688 27.3625Q350.04688 26.409374 350.40625 25.675Q350.76562 24.925 351.40625 24.51875Q352.0625 24.096874 352.8125 24.096874Q354.04688 24.096874 354.73438 24.909374Q355.42188 25.721874 355.42188 27.2375L355.42188 27.690624L351.125 27.690624Q351.15625 28.628124 351.67188 29.20625Q352.20312 29.784374 353.01562 29.784374Q353.57812 29.784374 353.96875 29.55Q354.375 29.315624 354.6875 28.925L355.34375 29.440624Q354.54688 30.675 352.95312 30.675ZM352.8125 24.9875Q352.15625 24.9875 351.70312 25.471874Q351.26562 25.940624 351.17188 26.8L354.34375 26.8L354.34375 26.721874Q354.29688 25.89375 353.89062 25.440624Q353.5 24.9875 352.8125 24.9875ZM357.34375 24.20625L357.375 25.003124Q358.10938 24.096874 359.28125 24.096874Q361.29688 24.096874 361.3125 26.3625L361.3125 30.55L360.21875 30.55L360.21875 26.346874Q360.21875 25.675 359.90625 25.346874Q359.60938 25.01875 358.95312 25.01875Q358.42188 25.01875 358.01562 25.3Q357.625 25.58125 357.40625 26.034374L357.40625 30.55L356.32812 30.55L356.32812 24.20625L357.34375 24.20625ZM367.23438 30.55Q367.14062 30.3625 367.07812 29.878124Q366.32812 30.675 365.28125 30.675Q364.34375 30.675 363.73438 30.14375Q363.14062 29.6125 363.14062 28.784374Q363.14062 27.8 363.89062 27.253124Q364.64062 26.70625 366.01562 26.70625L367.0625 26.70625L367.0625 26.20625Q367.0625 25.64375 366.71875 25.315624Q366.39062 24.971874 365.71875 24.971874Q365.14062 24.971874 364.75 25.26875Q364.35938 25.55 364.35938 25.971874L363.26562 25.971874Q363.26562 25.4875 363.59375 25.05Q363.9375 24.6125 364.51562 24.3625Q365.09375 24.096874 365.78125 24.096874Q366.89062 24.096874 367.5 24.64375Q368.125 25.190624 368.15625 26.14375L368.15625 29.065624Q368.15625 29.940624 368.375 30.45625L368.375 30.55L367.23438 30.55ZM365.4375 29.721874Q365.95312 29.721874 366.40625 29.45625Q366.85938 29.190624 367.0625 28.76875L367.0625 27.471874L366.21875 27.471874Q364.21875 27.471874 364.21875 28.64375Q364.21875 29.14375 364.5625 29.440624Q364.90625 29.721874 365.4375 29.721874ZM371.79688 22.675L371.79688 24.20625L372.96875 24.20625L372.96875 25.05L371.79688 25.05L371.79688 28.971874Q371.79688 29.3625 371.95312 29.55Q372.10938 29.7375 372.48438 29.7375Q372.67188 29.7375 373.0 29.675L373.0 30.55Q372.57812 30.675 372.17188 30.675Q371.45312 30.675 371.07812 30.2375Q370.70312 29.784374 370.70312 28.971874L370.70312 25.05L369.54688 25.05L369.54688 24.20625L370.70312 24.20625L370.70312 22.675L371.79688 22.675ZM375.5 30.55L374.42188 30.55L374.42188 24.20625L375.5 24.20625L375.5 30.55ZM374.32812 22.534374Q374.32812 22.26875 374.48438 22.08125Q374.65625 21.89375 374.96875 21.89375Q375.28125 21.89375 375.4375 22.08125Q375.60938 22.26875 375.60938 22.534374Q375.60938 22.784374 375.4375 22.971874Q375.28125 23.14375 374.96875 23.14375Q374.65625 23.14375 374.48438 22.971874Q374.32812 22.784374 374.32812 22.534374ZM377.03125 27.315624Q377.03125 26.39375 377.39062 25.64375Q377.76562 24.89375 378.42188 24.503124Q379.07812 24.096874 379.90625 24.096874Q381.20312 24.096874 382.0 24.9875Q382.8125 25.878124 382.8125 27.378124L382.8125 27.45625Q382.8125 28.378124 382.45312 29.1125Q382.09375 29.846874 381.4375 30.26875Q380.78125 30.675 379.92188 30.675Q378.64062 30.675 377.82812 29.784374Q377.03125 28.878124 377.03125 27.39375L377.03125 27.315624ZM378.125 27.45625Q378.125 28.503124 378.60938 29.14375Q379.10938 29.784374 379.92188 29.784374Q380.75 29.784374 381.23438 29.14375Q381.71875 28.4875 381.71875 27.315624Q381.71875 26.284374 381.21875 25.64375Q380.73438 24.9875 379.90625 24.9875Q379.10938 24.9875 378.60938 25.628124Q378.125 26.253124 378.125 27.45625ZM385.34375 24.20625L385.375 25.003124Q386.10938 24.096874 387.28125 24.096874Q389.29688 24.096874 389.3125 26.3625L389.3125 30.55L388.21875 30.55L388.21875 26.346874Q388.21875 25.675 387.90625 25.346874Q387.60938 25.01875 386.95312 25.01875Q386.42188 25.01875 386.01562 25.3Q385.625 25.58125 385.40625 26.034374L385.40625 30.55L384.32812 30.55L384.32812 24.20625L385.34375 24.20625ZM394.48438 30.55L394.48438 22.01875L396.90625 22.01875Q398.01562 22.01875 398.85938 22.51875Q399.71875 23.003124 400.1875 23.909374Q400.65625 24.815624 400.65625 26.003124L400.65625 26.534374Q400.65625 27.753124 400.1875 28.659374Q399.73438 29.565624 398.85938 30.05Q398.0 30.534374 396.85938 30.55L394.48438 30.55ZM395.60938 22.940624L395.60938 29.628124L396.79688 29.628124Q398.09375 29.628124 398.8125 28.83125Q399.54688 28.01875 399.54688 26.51875L399.54688 26.01875Q399.54688 24.565624 398.85938 23.76875Q398.1875 22.95625 396.92188 22.940624L395.60938 22.940624ZM404.95312 30.675Q403.65625 30.675 402.84375 29.83125Q402.04688 28.971874 402.04688 27.55L402.04688 27.3625Q402.04688 26.409374 402.40625 25.675Q402.76562 24.925 403.40625 24.51875Q404.0625 24.096874 404.8125 24.096874Q406.04688 24.096874 406.73438 24.909374Q407.42188 25.721874 407.42188 27.2375L407.42188 27.690624L403.125 27.690624Q403.15625 28.628124 403.67188 29.20625Q404.20312 29.784374 405.01562 29.784374Q405.57812 29.784374 405.96875 29.55Q406.375 29.315624 406.6875 28.925L407.34375 29.440624Q406.54688 30.675 404.95312 30.675ZM404.8125 24.9875Q404.15625 24.9875 403.70312 25.471874Q403.26562 25.940624 403.17188 26.8L406.34375 26.8L406.34375 26.721874Q406.29688 25.89375 405.89062 25.440624Q405.5 24.9875 404.8125 24.9875ZM410.85938 29.784374Q411.4375 29.784374 411.875 29.440624Q412.3125 29.08125 412.35938 28.55L413.39062 28.55Q413.35938 29.096874 413.0 29.596874Q412.65625 30.08125 412.07812 30.378124Q411.51562 30.675 410.85938 30.675Q409.5625 30.675 408.79688 29.815624Q408.04688 28.940624 408.04688 27.440624L408.04688 27.253124Q408.04688 26.33125 408.375 25.6125Q408.71875 24.89375 409.34375 24.503124Q409.98438 24.096874 410.85938 24.096874Q411.92188 24.096874 412.625 24.7375Q413.34375 25.3625 413.39062 26.39375L412.35938 26.39375Q412.3125 25.76875 411.89062 25.378124Q411.46875 24.9875 410.85938 24.9875Q410.03125 24.9875 409.57812 25.58125Q409.125 26.175 409.125 27.3L409.125 27.503124Q409.125 28.596874 409.57812 29.190624Q410.03125 29.784374 410.85938 29.784374ZM414.03125 27.315624Q414.03125 26.39375 414.39062 25.64375Q414.76562 24.89375 415.42188 24.503124Q416.07812 24.096874 416.90625 24.096874Q418.20312 24.096874 419.0 24.9875Q419.8125 25.878124 419.8125 27.378124L419.8125 27.45625Q419.8125 28.378124 419.45312 29.1125Q419.09375 29.846874 418.4375 30.26875Q417.78125 30.675 416.92188 30.675Q415.64062 30.675 414.82812 29.784374Q414.03125 28.878124 414.03125 27.39375L414.03125 27.315624ZM415.125 27.45625Q415.125 28.503124 415.60938 29.14375Q416.10938 29.784374 416.92188 29.784374Q417.75 29.784374 418.23438 29.14375Q418.71875 28.4875 418.71875 27.315624Q418.71875 26.284374 418.21875 25.64375Q417.73438 24.9875 416.90625 24.9875Q416.10938 24.9875 415.60938 25.628124Q415.125 26.253124 415.125 27.45625ZM422.34375 24.20625L422.375 24.909374Q423.0625 24.096874 424.25 24.096874Q425.57812 24.096874 426.0625 25.1125Q426.375 24.659374 426.875 24.378124Q427.39062 24.096874 428.07812 24.096874Q430.17188 24.096874 430.20312 26.3L430.20312 30.55L429.125 30.55L429.125 26.3625Q429.125 25.690624 428.8125 25.3625Q428.5 25.01875 427.76562 25.01875Q427.15625 25.01875 426.75 25.378124Q426.35938 25.7375 426.29688 26.346874L426.29688 30.55L425.21875 30.55L425.21875 26.39375Q425.21875 25.01875 423.85938 25.01875Q422.79688 25.01875 422.40625 25.925L422.40625 30.55L421.3125 30.55L421.3125 24.20625L422.34375 24.20625ZM437.67188 27.45625Q437.67188 28.89375 437.01562 29.784374Q436.35938 30.675 435.21875 30.675Q434.0625 30.675 433.40625 29.940624L433.40625 32.9875L432.32812 32.9875L432.32812 24.20625L433.3125 24.20625L433.35938 24.909374Q434.03125 24.096874 435.20312 24.096874Q436.34375 24.096874 437.0 24.95625Q437.67188 25.815624 437.67188 27.346874L437.67188 27.45625ZM436.59375 27.33125Q436.59375 26.253124 436.125 25.64375Q435.67188 25.01875 434.875 25.01875Q433.89062 25.01875 433.40625 25.878124L433.40625 28.909374Q433.89062 29.784374 434.89062 29.784374Q435.67188 29.784374 436.125 29.175Q436.59375 28.55 436.59375 27.33125ZM439.03125 27.315624Q439.03125 26.39375 439.39062 25.64375Q439.76562 24.89375 440.42188 24.503124Q441.07812 24.096874 441.90625 24.096874Q443.20312 24.096874 444.0 24.9875Q444.8125 25.878124 444.8125 27.378124L444.8125 27.45625Q444.8125 28.378124 444.45312 29.1125Q444.09375 29.846874 443.4375 30.26875Q442.78125 30.675 441.92188 30.675Q440.64062 30.675 439.82812 29.784374Q439.03125 28.878124 439.03125 27.39375L439.03125 27.315624ZM440.125 27.45625Q440.125 28.503124 440.60938 29.14375Q441.10938 29.784374 441.92188 29.784374Q442.75 29.784374 443.23438 29.14375Q443.71875 28.4875 443.71875 27.315624Q443.71875 26.284374 443.21875 25.64375Q442.73438 24.9875 441.90625 24.9875Q441.10938 24.9875 440.60938 25.628124Q440.125 26.253124 440.125 27.45625ZM450.23438 29.925Q449.60938 30.675 448.375 30.675Q447.35938 30.675 446.82812 30.08125Q446.29688 29.4875 446.29688 28.33125L446.29688 24.20625L447.375 24.20625L447.375 28.3Q447.375 29.753124 448.54688 29.753124Q449.79688 29.753124 450.20312 28.815624L450.20312 24.20625L451.29688 24.20625L451.29688 30.55L450.26562 30.55L450.23438 29.925ZM454.34375 24.20625L454.375 25.003124Q455.10938 24.096874 456.28125 24.096874Q458.29688 24.096874 458.3125 26.3625L458.3125 30.55L457.21875 30.55L457.21875 26.346874Q457.21875 25.675 456.90625 25.346874Q456.60938 25.01875 455.95312 25.01875Q455.42188 25.01875 455.01562 25.3Q454.625 25.58125 454.40625 26.034374L454.40625 30.55L453.32812 30.55L453.32812 24.20625L454.34375 24.20625ZM460.0625 27.33125Q460.0625 25.8625 460.75 24.9875Q461.4375 24.096874 462.5625 24.096874Q463.67188 24.096874 464.32812 24.846874L464.32812 21.55L465.40625 21.55L465.40625 30.55L464.40625 30.55L464.35938 29.8625Q463.70312 30.675 462.54688 30.675Q461.45312 30.675 460.75 29.76875Q460.0625 28.8625 460.0625 27.409374L460.0625 27.33125ZM461.14062 27.45625Q461.14062 28.534374 461.57812 29.14375Q462.03125 29.753124 462.8125 29.753124Q463.84375 29.753124 464.32812 28.815624L464.32812 25.909374Q463.84375 25.01875 462.82812 25.01875Q462.03125 25.01875 461.57812 25.628124Q461.14062 26.2375 461.14062 27.45625ZM469.95312 30.675Q468.65625 30.675 467.84375 29.83125Q467.04688 28.971874 467.04688 27.55L467.04688 27.3625Q467.04688 26.409374 467.40625 25.675Q467.76562 24.925 468.40625 24.51875Q469.0625 24.096874 469.8125 24.096874Q471.04688 24.096874 471.73438 24.909374Q472.42188 25.721874 472.42188 27.2375L472.42188 27.690624L468.125 27.690624Q468.15625 28.628124 468.67188 29.20625Q469.20312 29.784374 470.01562 29.784374Q470.57812 29.784374 470.96875 29.55Q471.375 29.315624 471.6875 28.925L472.34375 29.440624Q471.54688 30.675 469.95312 30.675ZM469.8125 24.9875Q469.15625 24.9875 468.70312 25.471874Q468.26562 25.940624 468.17188 26.8L471.34375 26.8L471.34375 26.721874Q471.29688 25.89375 470.89062 25.440624Q470.5 24.9875 469.8125 24.9875ZM476.39062 25.175Q476.14062 25.14375 475.85938 25.14375Q474.78125 25.14375 474.40625 26.05L474.40625 30.55L473.32812 30.55L473.32812 24.20625L474.375 24.20625L474.39062 24.940624Q474.92188 24.096874 475.90625 24.096874Q476.21875 24.096874 476.39062 24.175L476.39062 25.175Z" fill-rule="nonzero"/></svg>