<svg version="1.1" viewBox="0.0 0.0 600.0 371.0" fill="none" stroke="none" stroke-linecap="square" stroke-miterlimit="10" width="600" height="371" xmlns:xlink="http://www.w3.org/1999/xlink" xmlns="http://www.w3.org/2000/svg"><path fill="#ffffff" d="M0 0L600.0 0L600.0 371.0L0 371.0L0 0Z" fill-rule="nonzero"/><path stroke="#333333" stroke-width="1.0" stroke-linecap="butt" d="M137.5 45.5L137.5 331.5" fill-rule="nonzero"/><path stroke="#cccccc" stroke-width="1.0" stroke-linecap="butt" d="M248.5 45.5L248.5 331.5" fill-rule="nonzero"/><path stroke="#cccccc" stroke-width="1.0" stroke-linecap="butt" d="M359.5 45.5L359.5 331.5" fill-rule="nonzero"/><path stroke="#cccccc" stroke-width="1.0" stroke-linecap="butt" d="M470.5 45.5L470.5 331.5" fill-rule="nonzero"/><path stroke="#cccccc" stroke-width="1.0" stroke-linecap="butt" d="M581.5 45.5L581.5 331.5" fill-rule="nonzero"/><clipPath id="id_0"><path d="M137.13 45.916668L581.45 45.916668L581.45 331.45L137.13 331.45L137.13 45.916668Z" clip-rule="nonzero"/></clipPath><path stroke="#000000" stroke-width="2.0" stroke-linecap="butt" stroke-opacity="0.0" clip-path="url(#id_0)" d="M137.0 75.0L137.0 62.0L321.0 62.0C322.10458 62.0 323.0 62.89543 323.0 64.0L323.0 73.0C323.0 74.10457 322.10458 75.0 321.0 75.0Z" fill-rule="nonzero"/><path fill="#ffcc00" clip-path="url(#id_0)" d="M137.0 75.0L137.0 62.0L321.0 62.0C322.10458 62.0 323.0 62.89543 323.0 64.0L323.0 73.0C323.0 74.10457 322.10458 75.0 321.0 75.0Z" fill-rule="nonzero"/><path stroke="#000000" stroke-width="2.0" stroke-linecap="butt" stroke-opacity="0.0" clip-path="url(#id_0)" d="M137.0 120.0L137.0 107.0L137.0 107.0L137.0 120.0Z" fill-rule="nonzero"/><path fill="#ffcc00" clip-path="url(#id_0)" d="M137.0 120.0L137.0 107.0L137.0 107.0L137.0 120.0Z" fill-rule="nonzero"/><path stroke="#000000" stroke-width="2.0" stroke-linecap="butt" stroke-opacity="0.0" clip-path="url(#id_0)" d="M137.0 165.0L137.0 152.0L137.0 152.0L137.0 165.0Z" fill-rule="nonzero"/><path fill="#ffcc00" clip-path="url(#id_0)" d="M137.0 165.0L137.0 152.0L137.0 152.0L137.0 165.0Z" fill-rule="nonzero"/><path stroke="#000000" stroke-width="2.0" stroke-linecap="butt" stroke-opacity="0.0" clip-path="url(#id_0)" d="M137.0 210.0L137.0 197.0L137.0 197.0L137.0 210.0Z" fill-rule="nonzero"/><path fill="#ffcc00" clip-path="url(#id_0)" d="M137.0 210.0L137.0 197.0L137.0 197.0L137.0 210.0Z" fill-rule="nonzero"/><path stroke="#000000" stroke-width="2.0" stroke-linecap="butt" stroke-opacity="0.0" clip-path="url(#id_0)" d="M137.0 255.0L137.0 242.0L137.0 242.0L137.0 255.0Z" fill-rule="nonzero"/><path fill="#ffcc00" clip-path="url(#id_0)" d="M137.0 255.0L137.0 242.0L137.0 242.0L137.0 255.0Z" fill-rule="nonzero"/><path stroke="#000000" stroke-width="2.0" stroke-linecap="butt" stroke-opacity="0.0" clip-path="url(#id_0)" d="M137.0 300.0L137.0 287.0L137.0 287.0L137.0 300.0Z" fill-rule="nonzero"/><path fill="#ffcc00" clip-path="url(#id_0)" d="M137.0 300.0L137.0 287.0L137.0 287.0L137.0 300.0Z" fill-rule="nonzero"/><path stroke="#000000" stroke-width="2.0" stroke-linecap="butt" stroke-opacity="0.0" clip-path="url(#id_0)" d="M137.0 90.0L137.0 77.0L345.0 77.0C346.10458 77.0 347.0 77.89543 347.0 79.0L347.0 88.0C347.0 89.10457 346.10458 90.0 345.0 90.0Z" fill-rule="nonzero"/><path fill="#22ab82" clip-path="url(#id_0)" d="M137.0 90.0L137.0 77.0L345.0 77.0C346.10458 77.0 347.0 77.89543 347.0 79.0L347.0 88.0C347.0 89.10457 346.10458 90.0 345.0 90.0Z" fill-rule="nonzero"/><path stroke="#000000" stroke-width="2.0" stroke-linecap="butt" stroke-opacity="0.0" clip-path="url(#id_0)" d="M137.0 135.0L137.0 122.0L341.0 122.0C342.10458 122.0 343.0 122.89543 343.0 124.0L343.0 133.0C343.0 134.10457 342.10458 135.0 341.0 135.0Z" fill-rule="nonzero"/><path fill="#22ab82" clip-path="url(#id_0)" d="M137.0 135.0L137.0 122.0L341.0 122.0C342.10458 122.0 343.0 122.89543 343.0 124.0L343.0 133.0C343.0 134.10457 342.10458 135.0 341.0 135.0Z" fill-rule="nonzero"/><path stroke="#000000" stroke-width="2.0" stroke-linecap="butt" stroke-opacity="0.0" clip-path="url(#id_0)" d="M137.0 180.0L137.0 167.0L498.0 167.0C499.10458 167.0 500.0 167.89543 500.0 169.0L500.0 178.0C500.0 179.10457 499.10458 180.0 498.0 180.0Z" fill-rule="nonzero"/><path fill="#22ab82" clip-path="url(#id_0)" d="M137.0 180.0L137.0 167.0L498.0 167.0C499.10458 167.0 500.0 167.89543 500.0 169.0L500.0 178.0C500.0 179.10457 499.10458 180.0 498.0 180.0Z" fill-rule="nonzero"/><path stroke="#000000" stroke-width="2.0" stroke-linecap="butt" stroke-opacity="0.0" clip-path="url(#id_0)" d="M137.0 225.0L137.0 212.0L386.0 212.0C387.10458 212.0 388.0 212.89543 388.0 214.0L388.0 223.0C388.0 224.10457 387.10458 225.0 386.0 225.0Z" fill-rule="nonzero"/><path fill="#22ab82" clip-path="url(#id_0)" d="M137.0 225.0L137.0 212.0L386.0 212.0C387.10458 212.0 388.0 212.89543 388.0 214.0L388.0 223.0C388.0 224.10457 387.10458 225.0 386.0 225.0Z" fill-rule="nonzero"/><path stroke="#000000" stroke-width="2.0" stroke-linecap="butt" stroke-opacity="0.0" clip-path="url(#id_0)" d="M137.0 270.0L137.0 257.0L473.0 257.0C474.10458 257.0 475.0 257.89542 475.0 259.0L475.0 268.0C475.0 269.10458 474.10458 270.0 473.0 270.0Z" fill-rule="nonzero"/><path fill="#22ab82" clip-path="url(#id_0)" d="M137.0 270.0L137.0 257.0L473.0 257.0C474.10458 257.0 475.0 257.89542 475.0 259.0L475.0 268.0C475.0 269.10458 474.10458 270.0 473.0 270.0Z" fill-rule="nonzero"/><path stroke="#000000" stroke-width="2.0" stroke-linecap="butt" stroke-opacity="0.0" clip-path="url(#id_0)" d="M137.0 315.0L137.0 302.0L332.0 302.0C333.10458 302.0 334.0 302.89542 334.0 304.0L334.0 313.0C334.0 314.10458 333.10458 315.0 332.0 315.0Z" fill-rule="nonzero"/><path fill="#22ab82" clip-path="url(#id_0)" d="M137.0 315.0L137.0 302.0L332.0 302.0C333.10458 302.0 334.0 302.89542 334.0 304.0L334.0 313.0C334.0 314.10458 333.10458 315.0 332.0 315.0Z" fill-rule="nonzero"/><path fill="#757575" d="M65.317505 77.67489Q65.317505 79.12801 64.64563 80.01864Q63.989376 80.89364 62.864376 80.89364Q61.66125 80.89364 61.005 80.03426L60.9425 80.76864L59.958126 80.76864L59.958126 71.76864L61.03625 71.76864L61.03625 75.12801Q61.6925 74.31551 62.84875 74.31551Q64.005005 74.31551 64.661255 75.19051Q65.317505 76.04989 65.317505 77.58114L65.317505 77.67489ZM64.23938 77.54989Q64.23938 76.44051 63.801876 75.84676Q63.38 75.23739 62.583126 75.23739Q61.505 75.23739 61.03625 76.22176L61.03625 78.97176Q61.53625 79.97176 62.583126 79.97176Q63.364376 79.97176 63.801876 79.36239Q64.23938 78.75301 64.23938 77.54989ZM69.58313 80.89364Q68.286255 80.89364 67.473755 80.04989Q66.67688 79.19051 66.67688 77.76864L66.67688 77.58114Q66.67688 76.62801 67.036255 75.89364Q67.39563 75.14364 68.036255 74.73739Q68.692505 74.31551 69.442505 74.31551Q70.67688 74.31551 71.36438 75.12801Q72.05188 75.94051 72.05188 77.45614L72.05188 77.90926L67.755005 77.90926Q67.786255 78.84676 68.30188 79.42489Q68.83313 80.00301 69.64563 80.00301Q70.20813 80.00301 70.598755 79.76864Q71.005005 79.53426 71.317505 79.14364L71.973755 79.65926Q71.17688 80.89364 69.58313 80.89364ZM69.442505 75.20614Q68.786255 75.20614 68.33313 75.69051Q67.89563 76.15926 67.80188 77.01864L70.973755 77.01864L70.973755 76.94051Q70.92688 76.11239 70.52063 75.65926Q70.130005 75.20614 69.442505 75.20614ZM72.661255 77.53426Q72.661255 76.61239 73.02063 75.86239Q73.39563 75.11239 74.05188 74.72176Q74.70813 74.31551 75.536255 74.31551Q76.83313 74.31551 77.630005 75.20614Q78.442505 76.09676 78.442505 77.59676L78.442505 77.67489Q78.442505 78.59676 78.08313 79.33114Q77.723755 80.06551 77.067505 80.48739Q76.411255 80.89364 75.55188 80.89364Q74.27063 80.89364 73.45813 80.00301Q72.661255 79.09676 72.661255 77.61239L72.661255 77.53426ZM73.755005 77.67489Q73.755005 78.72176 74.23938 79.36239Q74.73938 80.00301 75.55188 80.00301Q76.380005 80.00301 76.86438 79.36239Q77.348755 78.70614 77.348755 77.53426Q77.348755 76.50301 76.848755 75.86239Q76.36438 75.20614 75.536255 75.20614Q74.73938 75.20614 74.23938 75.84676Q73.755005 76.47176 73.755005 77.67489ZM85.317505 77.67489Q85.317505 79.12801 84.64563 80.01864Q83.98938 80.89364 82.86438 80.89364Q81.661255 80.89364 81.005005 80.03426L80.942505 80.76864L79.95813 80.76864L79.95813 71.76864L81.036255 71.76864L81.036255 75.12801Q81.692505 74.31551 82.848755 74.31551Q84.005005 74.31551 84.661255 75.19051Q85.317505 76.04989 85.317505 77.58114L85.317505 77.67489ZM84.23938 77.54989Q84.23938 76.44051 83.80188 75.84676Q83.380005 75.23739 82.58313 75.23739Q81.505005 75.23739 81.036255 76.22176L81.036255 78.97176Q81.536255 79.97176 82.58313 79.97176Q83.36438 79.97176 83.80188 79.36239Q84.23938 78.75301 84.23938 77.54989ZM90.86438 80.76864Q90.77063 80.58114 90.70813 80.09676Q89.95813 80.89364 88.911255 80.89364Q87.973755 80.89364 87.36438 80.36239Q86.77063 79.83114 86.77063 79.00301Q86.77063 78.01864 87.52063 77.47176Q88.27063 76.92489 89.64563 76.92489L90.692505 76.92489L90.692505 76.42489Q90.692505 75.86239 90.348755 75.53426Q90.02063 75.19051 89.348755 75.19051Q88.77063 75.19051 88.380005 75.48739Q87.98938 75.76864 87.98938 76.19051L86.89563 76.19051Q86.89563 75.70614 87.223755 75.26864Q87.567505 74.83114 88.14563 74.58114Q88.723755 74.31551 89.411255 74.31551Q90.52063 74.31551 91.130005 74.86239Q91.755005 75.40926 91.786255 76.36239L91.786255 79.28426Q91.786255 80.15926 92.005005 80.67489L92.005005 80.76864L90.86438 80.76864ZM89.067505 79.94051Q89.58313 79.94051 90.036255 79.67489Q90.48938 79.40926 90.692505 78.98739L90.692505 77.69051L89.848755 77.69051Q87.848755 77.69051 87.848755 78.86239Q87.848755 79.36239 88.192505 79.65926Q88.536255 79.94051 89.067505 79.94051ZM96.48938 80.00301Q97.067505 80.00301 97.505005 79.65926Q97.942505 79.29989 97.98938 78.76864L99.02063 78.76864Q98.98938 79.31551 98.630005 79.81551Q98.286255 80.29989 97.70813 80.59676Q97.14563 80.89364 96.48938 80.89364Q95.192505 80.89364 94.42688 80.03426Q93.67688 79.15926 93.67688 77.65926L93.67688 77.47176Q93.67688 76.54989 94.005005 75.83114Q94.348755 75.11239 94.973755 74.72176Q95.61438 74.31551 96.48938 74.31551Q97.55188 74.31551 98.255005 74.95614Q98.973755 75.58114 99.02063 76.61239L97.98938 76.61239Q97.942505 75.98739 97.52063 75.59676Q97.098755 75.20614 96.48938 75.20614Q95.661255 75.20614 95.20813 75.79989Q94.755005 76.39364 94.755005 77.51864L94.755005 77.72176Q94.755005 78.81551 95.20813 79.40926Q95.661255 80.00301 96.48938 80.00301ZM101.036255 75.19051Q101.755005 74.31551 102.911255 74.31551Q104.92688 74.31551 104.942505 76.58114L104.942505 80.76864L103.848755 80.76864L103.848755 76.56551Q103.848755 75.89364 103.536255 75.56551Q103.23938 75.23739 102.58313 75.23739Q102.05188 75.23739 101.64563 75.51864Q101.255005 75.79989 101.036255 76.25301L101.036255 80.76864L99.95813 80.76864L99.95813 71.76864L101.036255 71.76864L101.036255 75.19051ZM108.42688 72.89364L108.42688 74.42489L109.598755 74.42489L109.598755 75.26864L108.42688 75.26864L108.42688 79.19051Q108.42688 79.58114 108.58313 79.76864Q108.73938 79.95614 109.11438 79.95614Q109.30188 79.95614 109.630005 79.89364L109.630005 80.76864Q109.20813 80.89364 108.80188 80.89364Q108.08313 80.89364 107.70813 80.45614Q107.33313 80.00301 107.33313 79.19051L107.33313 75.26864L106.17688 75.26864L106.17688 74.42489L107.33313 74.42489L107.33313 72.89364L108.42688 72.89364ZM114.86438 80.14364Q114.23938 80.89364 113.005005 80.89364Q111.98938 80.89364 111.45813 80.29989Q110.92688 79.70614 110.92688 78.54989L110.92688 74.42489L112.005005 74.42489L112.005005 78.51864Q112.005005 79.97176 113.17688 79.97176Q114.42688 79.97176 114.83313 79.03426L114.83313 74.42489L115.92688 74.42489L115.92688 80.76864L114.89563 80.76864L114.86438 80.14364ZM118.973755 74.42489L119.005005 75.22176Q119.73938 74.31551 120.911255 74.31551Q122.92688 74.31551 122.942505 76.58114L122.942505 80.76864L121.848755 80.76864L121.848755 76.56551Q121.848755 75.89364 121.536255 75.56551Q121.23938 75.23739 120.58313 75.23739Q120.05188 75.23739 119.64563 75.51864Q119.255005 75.79989 119.036255 76.25301L119.036255 80.76864L117.95813 80.76864L117.95813 74.42489L118.973755 74.42489ZM124.692505 77.54989Q124.692505 76.06551 125.380005 75.19051Q126.067505 74.31551 127.192505 74.31551Q128.34875 74.31551 129.005 75.12801L129.05188 74.42489L130.05188 74.42489L130.05188 80.61239Q130.05188 81.84676 129.3175 82.54989Q128.58313 83.26864 127.36438 83.26864Q126.67688 83.26864 126.02063 82.97176Q125.36438 82.67489 125.02063 82.17489L125.58313 81.51864Q126.27063 82.37801 127.286255 82.37801Q128.0675 82.37801 128.505 81.92489Q128.95813 81.48739 128.95813 80.67489L128.95813 80.12801Q128.30188 80.89364 127.17688 80.89364Q126.067505 80.89364 125.380005 80.00301Q124.692505 79.09676 124.692505 77.54989ZM125.786255 77.67489Q125.786255 78.73739 126.223755 79.36239Q126.661255 79.97176 127.45813 79.97176Q128.47375 79.97176 128.95813 79.03426L128.95813 76.14364Q128.45813 75.23739 127.45813 75.23739Q126.67688 75.23739 126.223755 75.84676Q125.786255 76.45614 125.786255 77.67489Z" fill-rule="nonzero"/><path fill="#757575" d="M108.64562 124.04701Q108.64562 123.60951 108.30187 123.37514Q107.97375 123.12514 107.14562 122.95326Q106.33312 122.78139 105.84875 122.53139Q105.36437 122.28139 105.13 121.95326Q104.91125 121.60951 104.91125 121.14076Q104.91125 120.35951 105.5675 119.82826Q106.22375 119.28139 107.255 119.28139Q108.33312 119.28139 108.98937 119.84389Q109.66125 120.39076 109.66125 121.25014L108.58312 121.25014Q108.58312 120.81264 108.1925 120.50014Q107.8175 120.17201 107.255 120.17201Q106.66125 120.17201 106.3175 120.43764Q105.98937 120.68764 105.98937 121.09389Q105.98937 121.48451 106.30187 121.68764Q106.61437 121.89076 107.42687 122.07826Q108.23937 122.25014 108.73937 122.50014Q109.23937 122.75014 109.47375 123.10951Q109.72375 123.46889 109.72375 123.96889Q109.72375 124.82826 109.03625 125.34389Q108.36437 125.85951 107.28625 125.85951Q106.52062 125.85951 105.92687 125.59389Q105.34875 125.31264 105.02062 124.82826Q104.6925 124.34389 104.6925 123.78139L105.77062 123.78139Q105.80187 124.32826 106.20812 124.65639Q106.61437 124.96889 107.28625 124.96889Q107.89562 124.96889 108.27062 124.71889Q108.64562 124.46889 108.64562 124.04701ZM110.66125 122.50014Q110.66125 121.57826 111.02062 120.82826Q111.39562 120.07826 112.05187 119.68764Q112.70812 119.28139 113.53625 119.28139Q114.83312 119.28139 115.63 120.17201Q116.4425 121.06264 116.4425 122.56264L116.4425 122.64076Q116.4425 123.56264 116.08312 124.29701Q115.72375 125.03139 115.0675 125.45326Q114.41125 125.85951 113.55187 125.85951Q112.27062 125.85951 111.45812 124.96889Q110.66125 124.06264 110.66125 122.57826L110.66125 122.50014ZM111.755 122.64076Q111.755 123.68764 112.23937 124.32826Q112.73937 124.96889 113.55187 124.96889Q114.38 124.96889 114.86437 124.32826Q115.34875 123.67201 115.34875 122.50014Q115.34875 121.46889 114.84875 120.82826Q114.36437 120.17201 113.53625 120.17201Q112.73937 120.17201 112.23937 120.81264Q111.755 121.43764 111.755 122.64076ZM118.97375 119.39076L119.005 120.18764Q119.73937 119.28139 120.91125 119.28139Q122.92687 119.28139 122.9425 121.54701L122.9425 125.73451L121.84875 125.73451L121.84875 121.53139Q121.84875 120.85951 121.53625 120.53139Q121.23937 120.20326 120.58312 120.20326Q120.05187 120.20326 119.64562 120.48451Q119.255 120.76576 119.03625 121.21889L119.03625 125.73451L117.95812 125.73451L117.95812 119.39076L118.97375 119.39076ZM125.97375 119.39076L126.005 120.18764Q126.73937 119.28139 127.91125 119.28139Q129.92688 119.28139 129.9425 121.54701L129.9425 125.73451L128.84875 125.73451L128.84875 121.53139Q128.84875 120.85951 128.53625 120.53139Q128.23938 120.20326 127.58312 120.20326Q127.05187 120.20326 126.64562 120.48451Q126.255 120.76576 126.03625 121.21889L126.03625 125.73451L124.95812 125.73451L124.95812 119.39076L125.97375 119.39076Z" fill-rule="nonzero"/><path fill="#757575" d="M82.48937 170.7004L82.48937 165.2004L81.48937 165.2004L81.48937 164.35664L82.48937 164.35664L82.48937 163.71602Q82.48937 162.68477 83.02062 162.1379Q83.5675 161.5754 84.5675 161.5754Q84.9425 161.5754 85.3175 161.66914L85.255 162.55977Q84.97375 162.49727 84.67687 162.49727Q84.14562 162.49727 83.84875 162.80977Q83.5675 163.12227 83.5675 163.68477L83.5675 164.35664L84.92687 164.35664L84.92687 165.2004L83.5675 165.2004L83.5675 170.7004L82.48937 170.7004ZM87.13 170.7004L86.05187 170.7004L86.05187 164.35664L87.13 164.35664L87.13 170.7004ZM85.95812 162.68477Q85.95812 162.41914 86.11437 162.23164Q86.28625 162.04414 86.59875 162.04414Q86.91125 162.04414 87.0675 162.23164Q87.23937 162.41914 87.23937 162.68477Q87.23937 162.93477 87.0675 163.12227Q86.91125 163.29414 86.59875 163.29414Q86.28625 163.29414 86.11437 163.12227Q85.95812 162.93477 85.95812 162.68477ZM89.97375 164.35664L90.005 165.15352Q90.73937 164.24727 91.91125 164.24727Q93.92687 164.24727 93.9425 166.5129L93.9425 170.7004L92.84875 170.7004L92.84875 166.49727Q92.84875 165.8254 92.53625 165.49727Q92.23937 165.16914 91.58312 165.16914Q91.05187 165.16914 90.64562 165.4504Q90.255 165.73164 90.03625 166.18477L90.03625 170.7004L88.95812 170.7004L88.95812 164.35664L89.97375 164.35664ZM99.64562 169.0129Q99.64562 168.5754 99.30187 168.34102Q98.97375 168.09102 98.14562 167.91914Q97.33312 167.74727 96.84875 167.49727Q96.36437 167.24727 96.13 166.91914Q95.91125 166.5754 95.91125 166.10664Q95.91125 165.3254 96.5675 164.79414Q97.22375 164.24727 98.255 164.24727Q99.33312 164.24727 99.98937 164.80977Q100.66125 165.35664 100.66125 166.21602L99.58312 166.21602Q99.58312 165.77852 99.1925 165.46602Q98.8175 165.1379 98.255 165.1379Q97.66125 165.1379 97.3175 165.40352Q96.98937 165.65352 96.98937 166.05977Q96.98937 166.4504 97.30187 166.65352Q97.61437 166.85664 98.42687 167.04414Q99.23937 167.21602 99.73937 167.46602Q100.23937 167.71602 100.47375 168.0754Q100.72375 168.43477 100.72375 168.93477Q100.72375 169.79414 100.03625 170.30977Q99.36437 170.8254 98.28625 170.8254Q97.52062 170.8254 96.92687 170.55977Q96.34875 170.27852 96.02062 169.79414Q95.6925 169.30977 95.6925 168.74727L96.77062 168.74727Q96.80187 169.29414 97.20812 169.62227Q97.61437 169.93477 98.28625 169.93477Q98.89562 169.93477 99.27062 169.68477Q99.64562 169.43477 99.64562 169.0129ZM103.42687 162.8254L103.42687 164.35664L104.59875 164.35664L104.59875 165.2004L103.42687 165.2004L103.42687 169.12227Q103.42687 169.5129 103.58312 169.7004Q103.73937 169.8879 104.11437 169.8879Q104.30187 169.8879 104.63 169.8254L104.63 170.7004Q104.20812 170.8254 103.80187 170.8254Q103.08312 170.8254 102.70812 170.3879Q102.33312 169.93477 102.33312 169.12227L102.33312 165.2004L101.17687 165.2004L101.17687 164.35664L102.33312 164.35664L102.33312 162.8254L103.42687 162.8254ZM108.58312 170.8254Q107.28625 170.8254 106.47375 169.98164Q105.67687 169.12227 105.67687 167.7004L105.67687 167.5129Q105.67687 166.55977 106.03625 165.8254Q106.39562 165.0754 107.03625 164.66914Q107.6925 164.24727 108.4425 164.24727Q109.67687 164.24727 110.36437 165.05977Q111.05187 165.87227 111.05187 167.3879L111.05187 167.84102L106.755 167.84102Q106.78625 168.77852 107.30187 169.35664Q107.83312 169.93477 108.64562 169.93477Q109.20812 169.93477 109.59875 169.7004Q110.005 169.46602 110.3175 169.0754L110.97375 169.59102Q110.17687 170.8254 108.58312 170.8254ZM108.4425 165.1379Q107.78625 165.1379 107.33312 165.62227Q106.89562 166.09102 106.80187 166.9504L109.97375 166.9504L109.97375 166.87227Q109.92687 166.04414 109.52062 165.59102Q109.13 165.1379 108.4425 165.1379ZM115.02062 165.3254Q114.77062 165.29414 114.48937 165.29414Q113.41125 165.29414 113.03625 166.2004L113.03625 170.7004L111.95812 170.7004L111.95812 164.35664L113.005 164.35664L113.02062 165.09102Q113.55187 164.24727 114.53625 164.24727Q114.84875 164.24727 115.02062 164.3254L115.02062 165.3254ZM116.97375 164.35664L117.005 165.15352Q117.73937 164.24727 118.91125 164.24727Q120.92687 164.24727 120.9425 166.5129L120.9425 170.7004L119.84875 170.7004L119.84875 166.49727Q119.84875 165.8254 119.53625 165.49727Q119.23937 165.16914 118.58312 165.16914Q118.05187 165.16914 117.64562 165.4504Q117.255 165.73164 117.03625 166.18477L117.03625 170.7004L115.95812 170.7004L115.95812 164.35664L116.97375 164.35664ZM124.13 170.7004L123.05187 170.7004L123.05187 164.35664L124.13 164.35664L124.13 170.7004ZM122.95812 162.68477Q122.95812 162.41914 123.11437 162.23164Q123.28625 162.04414 123.59875 162.04414Q123.91125 162.04414 124.0675 162.23164Q124.23937 162.41914 124.23937 162.68477Q124.23937 162.93477 124.0675 163.12227Q123.91125 163.29414 123.59875 163.29414Q123.28625 163.29414 123.11437 163.12227Q122.95812 162.93477 122.95812 162.68477ZM129.64563 169.0129Q129.64563 168.5754 129.30188 168.34102Q128.97375 168.09102 128.14563 167.91914Q127.33312 167.74727 126.84875 167.49727Q126.36437 167.24727 126.13 166.91914Q125.91125 166.5754 125.91125 166.10664Q125.91125 165.3254 126.5675 164.79414Q127.22375 164.24727 128.255 164.24727Q129.33313 164.24727 129.98938 164.80977Q130.66125 165.35664 130.66125 166.21602L129.58313 166.21602Q129.58313 165.77852 129.1925 165.46602Q128.8175 165.1379 128.255 165.1379Q127.66125 165.1379 127.3175 165.40352Q126.98937 165.65352 126.98937 166.05977Q126.98937 166.4504 127.30187 166.65352Q127.61437 166.85664 128.42688 167.04414Q129.23938 167.21602 129.73938 167.46602Q130.23938 167.71602 130.47375 168.0754Q130.72375 168.43477 130.72375 168.93477Q130.72375 169.79414 130.03625 170.30977Q129.36438 170.8254 128.28625 170.8254Q127.52062 170.8254 126.92687 170.55977Q126.34875 170.27852 126.02062 169.79414Q125.6925 169.30977 125.6925 168.74727L126.77062 168.74727Q126.80187 169.29414 127.20812 169.62227Q127.61437 169.93477 128.28625 169.93477Q128.89563 169.93477 129.27063 169.68477Q129.64563 169.43477 129.64563 169.0129Z" fill-rule="nonzero"/><path fill="#757575" d="M105.6925 212.44753Q105.6925 210.94753 106.36437 210.08815Q107.05187 209.21315 108.20812 209.21315Q109.33312 209.21315 109.98937 209.96315L110.03625 209.32253L111.03625 209.32253L111.03625 218.10378L109.9425 218.10378L109.9425 215.07253Q109.28625 215.79128 108.20812 215.79128Q107.05187 215.79128 106.36437 214.90065Q105.6925 213.9944 105.6925 212.52565L105.6925 212.44753ZM106.77062 212.57253Q106.77062 213.65065 107.22375 214.27565Q107.6925 214.90065 108.47375 214.90065Q109.4425 214.90065 109.9425 214.04128L109.9425 210.9319Q109.42687 210.10378 108.48937 210.10378Q107.6925 210.10378 107.22375 210.72878Q106.77062 211.35378 106.77062 212.57253ZM116.86437 215.04128Q116.23937 215.79128 115.005 215.79128Q113.98937 215.79128 113.45812 215.19753Q112.92687 214.60378 112.92687 213.44753L112.92687 209.32253L114.005 209.32253L114.005 213.41628Q114.005 214.8694 115.17687 214.8694Q116.42687 214.8694 116.83312 213.9319L116.83312 209.32253L117.92687 209.32253L117.92687 215.66628L116.89562 215.66628L116.86437 215.04128ZM122.58312 215.79128Q121.28625 215.79128 120.47375 214.94753Q119.67687 214.08815 119.67687 212.66628L119.67687 212.47878Q119.67687 211.52565 120.03625 210.79128Q120.39562 210.04128 121.03625 209.63503Q121.6925 209.21315 122.4425 209.21315Q123.67687 209.21315 124.36437 210.02565Q125.05187 210.83815 125.05187 212.35378L125.05187 212.8069L120.755 212.8069Q120.78625 213.7444 121.30187 214.32253Q121.83312 214.90065 122.64562 214.90065Q123.20812 214.90065 123.59875 214.66628Q124.005 214.4319 124.3175 214.04128L124.97375 214.5569Q124.17687 215.79128 122.58312 215.79128ZM122.4425 210.10378Q121.78625 210.10378 121.33312 210.58815Q120.89562 211.0569 120.80187 211.91628L123.97375 211.91628L123.97375 211.83815Q123.92687 211.01003 123.52062 210.5569Q123.13 210.10378 122.4425 210.10378ZM127.13 215.66628L126.05187 215.66628L126.05187 206.66628L127.13 206.66628L127.13 215.66628ZM130.13 215.66628L129.05188 215.66628L129.05188 206.66628L130.13 206.66628L130.13 215.66628Z" fill-rule="nonzero"/><path fill="#757575" d="M100.64562 258.94464Q100.64562 258.50714 100.30187 258.27277Q99.97375 258.02277 99.14562 257.8509Q98.33312 257.67902 97.84875 257.42902Q97.36437 257.17902 97.13 256.8509Q96.91125 256.50714 96.91125 256.0384Q96.91125 255.25714 97.5675 254.72589Q98.22375 254.17902 99.255 254.17902Q100.33312 254.17902 100.98937 254.74152Q101.66125 255.28839 101.66125 256.14777L100.58312 256.14777Q100.58312 255.71027 100.1925 255.39777Q99.8175 255.06964 99.255 255.06964Q98.66125 255.06964 98.3175 255.33527Q97.98937 255.58527 97.98937 255.99152Q97.98937 256.38214 98.30187 256.58527Q98.61437 256.7884 99.42687 256.9759Q100.23937 257.14777 100.73937 257.39777Q101.23937 257.64777 101.47375 258.00714Q101.72375 258.36652 101.72375 258.86652Q101.72375 259.7259 101.03625 260.24152Q100.36437 260.75714 99.28625 260.75714Q98.52062 260.75714 97.92687 260.49152Q97.34875 260.21027 97.02062 259.7259Q96.6925 259.24152 96.6925 258.67902L97.77062 258.67902Q97.80187 259.2259 98.20812 259.55402Q98.61437 259.86652 99.28625 259.86652Q99.89562 259.86652 100.27062 259.61652Q100.64562 259.36652 100.64562 258.94464ZM105.48937 259.86652Q106.0675 259.86652 106.505 259.52277Q106.9425 259.1634 106.98937 258.63214L108.02062 258.63214Q107.98937 259.17902 107.63 259.67902Q107.28625 260.1634 106.70812 260.46027Q106.14562 260.75714 105.48937 260.75714Q104.1925 260.75714 103.42687 259.89777Q102.67687 259.02277 102.67687 257.52277L102.67687 257.33527Q102.67687 256.4134 103.005 255.69464Q103.34875 254.97589 103.97375 254.58527Q104.61437 254.17902 105.48937 254.17902Q106.55187 254.17902 107.255 254.81964Q107.97375 255.44464 108.02062 256.4759L106.98937 256.4759Q106.9425 255.85089 106.52062 255.46027Q106.09875 255.06964 105.48937 255.06964Q104.66125 255.06964 104.20812 255.66339Q103.755 256.25714 103.755 257.38214L103.755 257.58527Q103.755 258.67902 104.20812 259.27277Q104.66125 259.86652 105.48937 259.86652ZM110.03625 255.05402Q110.755 254.17902 111.91125 254.17902Q113.92687 254.17902 113.9425 256.44464L113.9425 260.63214L112.84875 260.63214L112.84875 256.42902Q112.84875 255.75714 112.53625 255.42902Q112.23937 255.10089 111.58312 255.10089Q111.05187 255.10089 110.64562 255.38214Q110.255 255.66339 110.03625 256.11652L110.03625 260.63214L108.95812 260.63214L108.95812 251.63214L110.03625 251.63214L110.03625 255.05402ZM118.58312 260.75714Q117.28625 260.75714 116.47375 259.9134Q115.67687 259.05402 115.67687 257.63214L115.67687 257.44464Q115.67687 256.49152 116.03625 255.75714Q116.39562 255.00714 117.03625 254.60089Q117.6925 254.17902 118.4425 254.17902Q119.67687 254.17902 120.36437 254.99152Q121.05187 255.80402 121.05187 257.31964L121.05187 257.77277L116.755 257.77277Q116.78625 258.71027 117.30187 259.2884Q117.83312 259.86652 118.64562 259.86652Q119.20812 259.86652 119.59875 259.63214Q120.005 259.39777 120.3175 259.00714L120.97375 259.52277Q120.17687 260.75714 118.58312 260.75714ZM118.4425 255.06964Q117.78625 255.06964 117.33312 255.55402Q116.89562 256.02277 116.80187 256.88214L119.97375 256.88214L119.97375 256.80402Q119.92687 255.97589 119.52062 255.52277Q119.13 255.06964 118.4425 255.06964ZM123.13 260.63214L122.05187 260.63214L122.05187 254.28839L123.13 254.28839L123.13 260.63214ZM121.95812 252.61652Q121.95812 252.35089 122.11437 252.16339Q122.28625 251.97589 122.59875 251.97589Q122.91125 251.97589 123.0675 252.16339Q123.23937 252.35089 123.23937 252.61652Q123.23937 252.86652 123.0675 253.05402Q122.91125 253.22589 122.59875 253.22589Q122.28625 253.22589 122.11437 253.05402Q121.95812 252.86652 121.95812 252.61652ZM130.3175 257.5384Q130.3175 258.99152 129.64563 259.88214Q128.98938 260.75714 127.86437 260.75714Q126.66125 260.75714 126.005 259.89777L125.9425 260.63214L124.95812 260.63214L124.95812 251.63214L126.03625 251.63214L126.03625 254.99152Q126.6925 254.17902 127.84875 254.17902Q129.005 254.17902 129.66125 255.05402Q130.3175 255.91339 130.3175 257.44464L130.3175 257.5384ZM129.23938 257.4134Q129.23938 256.30402 128.80188 255.71027Q128.38 255.10089 127.58312 255.10089Q126.505 255.10089 126.03625 256.08527L126.03625 258.83527Q126.53625 259.83527 127.58312 259.83527Q128.36438 259.83527 128.80188 259.2259Q129.23938 258.61652 129.23938 257.4134Z" fill-rule="nonzero"/><path fill="#757575" d="M60.3175 295.00427Q60.3175 296.4574 59.645626 297.34802Q58.989376 298.22302 57.864376 298.22302Q56.66125 298.22302 56.005 297.36365L55.9425 298.09802L54.958126 298.09802L54.958126 289.09802L56.03625 289.09802L56.03625 292.4574Q56.6925 291.6449 57.84875 291.6449Q59.005 291.6449 59.66125 292.5199Q60.3175 293.37927 60.3175 294.91052L60.3175 295.00427ZM59.239376 294.87927Q59.239376 293.7699 58.801876 293.17615Q58.38 292.56677 57.583126 292.56677Q56.505 292.56677 56.03625 293.55115L56.03625 296.30115Q56.53625 297.30115 57.583126 297.30115Q58.364376 297.30115 58.801876 296.69177Q59.239376 296.0824 59.239376 294.87927ZM64.58313 298.22302Q63.28625 298.22302 62.47375 297.37927Q61.676876 296.5199 61.676876 295.09802L61.676876 294.91052Q61.676876 293.9574 62.03625 293.22302Q62.395626 292.47302 63.03625 292.06677Q63.6925 291.6449 64.442505 291.6449Q65.67688 291.6449 66.36438 292.4574Q67.05188 293.2699 67.05188 294.78552L67.05188 295.23865L62.755 295.23865Q62.78625 296.17615 63.301876 296.75427Q63.833126 297.3324 64.64563 297.3324Q65.20813 297.3324 65.598755 297.09802Q66.005005 296.86365 66.317505 296.47302L66.973755 296.98865Q66.17688 298.22302 64.58313 298.22302ZM64.442505 292.53552Q63.78625 292.53552 63.333126 293.0199Q62.895626 293.48865 62.801876 294.34802L65.973755 294.34802L65.973755 294.2699Q65.92688 293.44177 65.52063 292.98865Q65.130005 292.53552 64.442505 292.53552ZM71.02063 292.72302Q70.77063 292.69177 70.48938 292.69177Q69.411255 292.69177 69.036255 293.59802L69.036255 298.09802L67.95813 298.09802L67.95813 291.75427L69.005005 291.75427L69.02063 292.48865Q69.55188 291.6449 70.536255 291.6449Q70.848755 291.6449 71.02063 291.72302L71.02063 292.72302ZM74.58313 298.22302Q73.286255 298.22302 72.473755 297.37927Q71.67688 296.5199 71.67688 295.09802L71.67688 294.91052Q71.67688 293.9574 72.036255 293.22302Q72.39563 292.47302 73.036255 292.06677Q73.692505 291.6449 74.442505 291.6449Q75.67688 291.6449 76.36438 292.4574Q77.05188 293.2699 77.05188 294.78552L77.05188 295.23865L72.755005 295.23865Q72.786255 296.17615 73.30188 296.75427Q73.83313 297.3324 74.64563 297.3324Q75.20813 297.3324 75.598755 297.09802Q76.005005 296.86365 76.317505 296.47302L76.973755 296.98865Q76.17688 298.22302 74.58313 298.22302ZM74.442505 292.53552Q73.786255 292.53552 73.33313 293.0199Q72.89563 293.48865 72.80188 294.34802L75.973755 294.34802L75.973755 294.2699Q75.92688 293.44177 75.52063 292.98865Q75.130005 292.53552 74.442505 292.53552ZM79.130005 298.09802L78.05188 298.09802L78.05188 291.75427L79.130005 291.75427L79.130005 298.09802ZM77.95813 290.0824Q77.95813 289.81677 78.11438 289.62927Q78.286255 289.44177 78.598755 289.44177Q78.911255 289.44177 79.067505 289.62927Q79.23938 289.81677 79.23938 290.0824Q79.23938 290.3324 79.067505 290.5199Q78.911255 290.69177 78.598755 290.69177Q78.286255 290.69177 78.11438 290.5199Q77.95813 290.3324 77.95813 290.0824ZM83.48938 297.3324Q84.067505 297.3324 84.505005 296.98865Q84.942505 296.62927 84.98938 296.09802L86.02063 296.09802Q85.98938 296.6449 85.630005 297.1449Q85.286255 297.62927 84.70813 297.92615Q84.14563 298.22302 83.48938 298.22302Q82.192505 298.22302 81.42688 297.36365Q80.67688 296.48865 80.67688 294.98865L80.67688 294.80115Q80.67688 293.87927 81.005005 293.16052Q81.348755 292.44177 81.973755 292.05115Q82.61438 291.6449 83.48938 291.6449Q84.55188 291.6449 85.255005 292.28552Q85.973755 292.91052 86.02063 293.94177L84.98938 293.94177Q84.942505 293.31677 84.52063 292.92615Q84.098755 292.53552 83.48938 292.53552Q82.661255 292.53552 82.20813 293.12927Q81.755005 293.72302 81.755005 294.84802L81.755005 295.05115Q81.755005 296.1449 82.20813 296.73865Q82.661255 297.3324 83.48938 297.3324ZM88.036255 292.5199Q88.755005 291.6449 89.911255 291.6449Q91.92688 291.6449 91.942505 293.91052L91.942505 298.09802L90.848755 298.09802L90.848755 293.8949Q90.848755 293.22302 90.536255 292.8949Q90.23938 292.56677 89.58313 292.56677Q89.05188 292.56677 88.64563 292.84802Q88.255005 293.12927 88.036255 293.5824L88.036255 298.09802L86.95813 298.09802L86.95813 289.09802L88.036255 289.09802L88.036255 292.5199ZM93.911255 299.80115L93.30188 299.37927Q93.848755 298.61365 93.880005 297.78552L93.880005 296.81677L94.942505 296.81677L94.942505 297.66052Q94.942505 298.25427 94.64563 298.84802Q94.348755 299.44177 93.911255 299.80115ZM99.973755 291.75427L100.005005 292.4574Q100.692505 291.6449 101.880005 291.6449Q103.20813 291.6449 103.692505 292.66052Q104.005005 292.2074 104.505005 291.92615Q105.02063 291.6449 105.70813 291.6449Q107.80188 291.6449 107.83313 293.84802L107.83313 298.09802L106.755005 298.09802L106.755005 293.91052Q106.755005 293.23865 106.442505 292.91052Q106.130005 292.56677 105.39563 292.56677Q104.786255 292.56677 104.380005 292.92615Q103.98938 293.28552 103.92688 293.8949L103.92688 298.09802L102.848755 298.09802L102.848755 293.94177Q102.848755 292.56677 101.48938 292.56677Q100.42688 292.56677 100.036255 293.47302L100.036255 298.09802L98.942505 298.09802L98.942505 291.75427L99.973755 291.75427ZM111.130005 298.09802L110.05188 298.09802L110.05188 291.75427L111.130005 291.75427L111.130005 298.09802ZM109.95813 290.0824Q109.95813 289.81677 110.11438 289.62927Q110.286255 289.44177 110.598755 289.44177Q110.911255 289.44177 111.067505 289.62927Q111.23938 289.81677 111.23938 290.0824Q111.23938 290.3324 111.067505 290.5199Q110.911255 290.69177 110.598755 290.69177Q110.286255 290.69177 110.11438 290.5199Q109.95813 290.3324 109.95813 290.0824ZM114.723755 295.16052L114.036255 295.86365L114.036255 298.09802L112.95813 298.09802L112.95813 289.09802L114.036255 289.09802L114.036255 294.53552L114.61438 293.84802L116.598755 291.75427L117.911255 291.75427L115.442505 294.41052L118.20813 298.09802L116.92688 298.09802L114.723755 295.16052ZM122.02063 292.72302Q121.77063 292.69177 121.48938 292.69177Q120.411255 292.69177 120.036255 293.59802L120.036255 298.09802L118.95813 298.09802L118.95813 291.75427L120.005005 291.75427L120.02063 292.48865Q120.55188 291.6449 121.536255 291.6449Q121.848755 291.6449 122.02063 291.72302L122.02063 292.72302ZM122.661255 294.86365Q122.661255 293.94177 123.02063 293.19177Q123.39563 292.44177 124.05188 292.05115Q124.70813 291.6449 125.536255 291.6449Q126.83313 291.6449 127.630005 292.53552Q128.4425 293.42615 128.4425 294.92615L128.4425 295.00427Q128.4425 295.92615 128.08313 296.66052Q127.723755 297.3949 127.067505 297.81677Q126.411255 298.22302 125.55188 298.22302Q124.27063 298.22302 123.45813 297.3324Q122.661255 296.42615 122.661255 294.94177L122.661255 294.86365ZM123.755005 295.00427Q123.755005 296.05115 124.23938 296.69177Q124.73938 297.3324 125.55188 297.3324Q126.380005 297.3324 126.86438 296.69177Q127.348755 296.03552 127.348755 294.86365Q127.348755 293.8324 126.848755 293.19177Q126.36438 292.53552 125.536255 292.53552Q124.73938 292.53552 124.23938 293.17615Q123.755005 293.80115 123.755005 295.00427ZM129.91125 299.80115L129.30188 299.37927Q129.84875 298.61365 129.88 297.78552L129.88 296.81677L130.9425 296.81677L130.9425 297.66052Q130.9425 298.25427 130.64563 298.84802Q130.34875 299.44177 129.91125 299.80115Z" fill-rule="nonzero"/><path fill="#757575" d="M26.97375 306.75427L27.005 307.4574Q27.6925 306.6449 28.88 306.6449Q30.208124 306.6449 30.6925 307.66052Q31.005 307.2074 31.505 306.92615Q32.020622 306.6449 32.708122 306.6449Q34.801872 306.6449 34.833122 308.84802L34.833122 313.09802L33.754997 313.09802L33.754997 308.91052Q33.754997 308.23865 33.442497 307.91052Q33.129997 307.56677 32.395622 307.56677Q31.78625 307.56677 31.38 307.92615Q30.989374 308.28552 30.926874 308.8949L30.926874 313.09802L29.84875 313.09802L29.84875 308.94177Q29.84875 307.56677 28.489374 307.56677Q27.426874 307.56677 27.03625 308.47302L27.03625 313.09802L25.9425 313.09802L25.9425 306.75427L26.97375 306.75427ZM38.129997 313.09802L37.051872 313.09802L37.051872 306.75427L38.129997 306.75427L38.129997 313.09802ZM36.958122 305.0824Q36.958122 304.81677 37.114372 304.62927Q37.286247 304.44177 37.598747 304.44177Q37.911247 304.44177 38.067497 304.62927Q38.239372 304.81677 38.239372 305.0824Q38.239372 305.3324 38.067497 305.5199Q37.911247 305.69177 37.598747 305.69177Q37.286247 305.69177 37.114372 305.5199Q36.958122 305.3324 36.958122 305.0824ZM41.723747 310.16052L41.036247 310.86365L41.036247 313.09802L39.958122 313.09802L39.958122 304.09802L41.036247 304.09802L41.036247 309.53552L41.614372 308.84802L43.598747 306.75427L44.911247 306.75427L42.442497 309.41052L45.208122 313.09802L43.926872 313.09802L41.723747 310.16052ZM49.020622 307.72302Q48.770622 307.69177 48.489372 307.69177Q47.411247 307.69177 47.036247 308.59802L47.036247 313.09802L45.958122 313.09802L45.958122 306.75427L47.004997 306.75427L47.020622 307.48865Q47.551872 306.6449 48.536247 306.6449Q48.848747 306.6449 49.020622 306.72302L49.020622 307.72302ZM49.661247 309.86365Q49.661247 308.94177 50.020622 308.19177Q50.395622 307.44177 51.051872 307.05115Q51.708122 306.6449 52.536247 306.6449Q53.833122 306.6449 54.629997 307.53552Q55.442497 308.42615 55.442497 309.92615L55.442497 310.00427Q55.442497 310.92615 55.083122 311.66052Q54.723747 312.3949 54.067497 312.81677Q53.411247 313.22302 52.551872 313.22302Q51.270622 313.22302 50.458122 312.3324Q49.661247 311.42615 49.661247 309.94177L49.661247 309.86365ZM50.754997 310.00427Q50.754997 311.05115 51.239372 311.69177Q51.739372 312.3324 52.551872 312.3324Q53.379997 312.3324 53.864372 311.69177Q54.348747 311.03552 54.348747 309.86365Q54.348747 308.8324 53.848747 308.19177Q53.364372 307.53552 52.536247 307.53552Q51.739372 307.53552 51.239372 308.17615Q50.754997 308.80115 50.754997 310.00427ZM62.567497 311.59802L63.786247 306.75427L64.86437 306.75427L63.020622 313.09802L62.145622 313.09802L60.598747 308.28552L59.098747 313.09802L58.223747 313.09802L56.379997 306.75427L57.458122 306.75427L58.708122 311.50427L60.192497 306.75427L61.051872 306.75427L62.567497 311.59802ZM68.58312 313.22302Q67.28625 313.22302 66.47375 312.37927Q65.67687 311.5199 65.67687 310.09802L65.67687 309.91052Q65.67687 308.9574 66.03625 308.22302Q66.39562 307.47302 67.03625 307.06677Q67.6925 306.6449 68.4425 306.6449Q69.67687 306.6449 70.36437 307.4574Q71.05187 308.2699 71.05187 309.78552L71.05187 310.23865L66.755 310.23865Q66.78625 311.17615 67.30187 311.75427Q67.83312 312.3324 68.64562 312.3324Q69.20812 312.3324 69.59875 312.09802Q70.005 311.86365 70.3175 311.47302L70.97375 311.98865Q70.17687 313.22302 68.58312 313.22302ZM68.4425 307.53552Q67.78625 307.53552 67.33312 308.0199Q66.89562 308.48865 66.80187 309.34802L69.97375 309.34802L69.97375 309.2699Q69.92687 308.44177 69.52062 307.98865Q69.13 307.53552 68.4425 307.53552ZM73.13 313.09802L72.05187 313.09802L72.05187 304.09802L73.13 304.09802L73.13 313.09802ZM76.13 313.09802L75.05187 313.09802L75.05187 304.09802L76.13 304.09802L76.13 313.09802ZM80.58312 313.22302Q79.28625 313.22302 78.47375 312.37927Q77.67687 311.5199 77.67687 310.09802L77.67687 309.91052Q77.67687 308.9574 78.03625 308.22302Q78.39562 307.47302 79.03625 307.06677Q79.6925 306.6449 80.4425 306.6449Q81.67687 306.6449 82.36437 307.4574Q83.05187 308.2699 83.05187 309.78552L83.05187 310.23865L78.755 310.23865Q78.78625 311.17615 79.30187 311.75427Q79.83312 312.3324 80.64562 312.3324Q81.20812 312.3324 81.59875 312.09802Q82.005 311.86365 82.3175 311.47302L82.97375 311.98865Q82.17687 313.22302 80.58312 313.22302ZM80.4425 307.53552Q79.78625 307.53552 79.33312 308.0199Q78.89562 308.48865 78.80187 309.34802L81.97375 309.34802L81.97375 309.2699Q81.92687 308.44177 81.52062 307.98865Q81.13 307.53552 80.4425 307.53552ZM84.97375 306.75427L85.005 307.55115Q85.73937 306.6449 86.91125 306.6449Q88.92687 306.6449 88.9425 308.91052L88.9425 313.09802L87.84875 313.09802L87.84875 308.8949Q87.84875 308.22302 87.53625 307.8949Q87.23937 307.56677 86.58312 307.56677Q86.05187 307.56677 85.64562 307.84802Q85.255 308.12927 85.03625 308.5824L85.03625 313.09802L83.95812 313.09802L83.95812 306.75427L84.97375 306.75427ZM96.3175 310.00427Q96.3175 311.4574 95.64562 312.34802Q94.98937 313.22302 93.86437 313.22302Q92.66125 313.22302 92.005 312.36365L91.9425 313.09802L90.95812 313.09802L90.95812 304.09802L92.03625 304.09802L92.03625 307.4574Q92.6925 306.6449 93.84875 306.6449Q95.005 306.6449 95.66125 307.5199Q96.3175 308.37927 96.3175 309.91052L96.3175 310.00427ZM95.23937 309.87927Q95.23937 308.7699 94.80187 308.17615Q94.38 307.56677 93.58312 307.56677Q92.505 307.56677 92.03625 308.55115L92.03625 311.30115Q92.53625 312.30115 93.58312 312.30115Q94.36437 312.30115 94.80187 311.69177Q95.23937 311.0824 95.23937 309.87927ZM100.58312 313.22302Q99.28625 313.22302 98.47375 312.37927Q97.67687 311.5199 97.67687 310.09802L97.67687 309.91052Q97.67687 308.9574 98.03625 308.22302Q98.39562 307.47302 99.03625 307.06677Q99.6925 306.6449 100.4425 306.6449Q101.67687 306.6449 102.36437 307.4574Q103.05187 308.2699 103.05187 309.78552L103.05187 310.23865L98.755 310.23865Q98.78625 311.17615 99.30187 311.75427Q99.83312 312.3324 100.64562 312.3324Q101.20812 312.3324 101.59875 312.09802Q102.005 311.86365 102.3175 311.47302L102.97375 311.98865Q102.17687 313.22302 100.58312 313.22302ZM100.4425 307.53552Q99.78625 307.53552 99.33312 308.0199Q98.89562 308.48865 98.80187 309.34802L101.97375 309.34802L101.97375 309.2699Q101.92687 308.44177 101.52062 307.98865Q101.13 307.53552 100.4425 307.53552ZM107.02062 307.72302Q106.77062 307.69177 106.48937 307.69177Q105.41125 307.69177 105.03625 308.59802L105.03625 313.09802L103.95812 313.09802L103.95812 306.75427L105.005 306.75427L105.02062 307.48865Q105.55187 306.6449 106.53625 306.6449Q106.84875 306.6449 107.02062 306.72302L107.02062 307.72302ZM110.58312 313.22302Q109.28625 313.22302 108.47375 312.37927Q107.67687 311.5199 107.67687 310.09802L107.67687 309.91052Q107.67687 308.9574 108.03625 308.22302Q108.39562 307.47302 109.03625 307.06677Q109.6925 306.6449 110.4425 306.6449Q111.67687 306.6449 112.36437 307.4574Q113.05187 308.2699 113.05187 309.78552L113.05187 310.23865L108.755 310.23865Q108.78625 311.17615 109.30187 311.75427Q109.83312 312.3324 110.64562 312.3324Q111.20812 312.3324 111.59875 312.09802Q112.005 311.86365 112.3175 311.47302L112.97375 311.98865Q112.17687 313.22302 110.58312 313.22302ZM110.4425 307.53552Q109.78625 307.53552 109.33312 308.0199Q108.89562 308.48865 108.80187 309.34802L111.97375 309.34802L111.97375 309.2699Q111.92687 308.44177 111.52062 307.98865Q111.13 307.53552 110.4425 307.53552ZM115.13 313.09802L114.05187 313.09802L114.05187 306.75427L115.13 306.75427L115.13 313.09802ZM113.95812 305.0824Q113.95812 304.81677 114.11437 304.62927Q114.28625 304.44177 114.59875 304.44177Q114.91125 304.44177 115.0675 304.62927Q115.23937 304.81677 115.23937 305.0824Q115.23937 305.3324 115.0675 305.5199Q114.91125 305.69177 114.59875 305.69177Q114.28625 305.69177 114.11437 305.5199Q113.95812 305.3324 113.95812 305.0824ZM119.48937 312.3324Q120.0675 312.3324 120.505 311.98865Q120.9425 311.62927 120.98937 311.09802L122.02062 311.09802Q121.98937 311.6449 121.63 312.1449Q121.28625 312.62927 120.70812 312.92615Q120.14562 313.22302 119.48937 313.22302Q118.1925 313.22302 117.42687 312.36365Q116.67687 311.48865 116.67687 309.98865L116.67687 309.80115Q116.67687 308.87927 117.005 308.16052Q117.34875 307.44177 117.97375 307.05115Q118.61437 306.6449 119.48937 306.6449Q120.55187 306.6449 121.255 307.28552Q121.97375 307.91052 122.02062 308.94177L120.98937 308.94177Q120.9425 308.31677 120.52062 307.92615Q120.09875 307.53552 119.48937 307.53552Q118.66125 307.53552 118.20812 308.12927Q117.755 308.72302 117.755 309.84802L117.755 310.05115Q117.755 311.1449 118.20812 311.73865Q118.66125 312.3324 119.48937 312.3324ZM124.03625 307.5199Q124.755 306.6449 125.91125 306.6449Q127.92687 306.6449 127.9425 308.91052L127.9425 313.09802L126.84875 313.09802L126.84875 308.8949Q126.84875 308.22302 126.53625 307.8949Q126.23937 307.56677 125.58312 307.56677Q125.05187 307.56677 124.64562 307.84802Q124.255 308.12927 124.03625 308.5824L124.03625 313.09802L122.95812 313.09802L122.95812 304.09802L124.03625 304.09802L124.03625 307.5199ZM129.91125 314.80115L129.30188 314.37927Q129.84875 313.61365 129.88 312.78552L129.88 311.81677L130.9425 311.81677L130.9425 312.66052Q130.9425 313.25427 130.64563 313.84802Q130.34875 314.44177 129.91125 314.80115Z" fill-rule="nonzero"/><path fill="#757575" d="M139.6925 345.8094Q139.6925 347.71564 139.03625 348.65314Q138.39563 349.575 137.005 349.575Q135.64563 349.575 134.98938 348.66876Q134.33313 347.7625 134.30188 345.95L134.30188 344.5125Q134.30188 342.6219 134.9425 341.71564Q135.59875 340.79376 136.98938 340.79376Q138.36438 340.79376 139.02063 341.6844Q139.67688 342.5594 139.6925 344.40314L139.6925 345.8094ZM138.59875 344.325Q138.59875 342.95 138.20813 342.325Q137.83313 341.6844 136.98938 341.6844Q136.16125 341.6844 135.77063 342.325Q135.39563 342.95 135.39563 344.2469L135.39563 345.98126Q135.39563 347.35626 135.78625 348.02814Q136.1925 348.6844 137.005 348.6844Q137.80188 348.6844 138.1925 348.0594Q138.58313 347.4344 138.59875 346.10626L138.59875 344.325Z" fill-rule="nonzero"/><path fill="#757575" d="M251.00688 349.45L245.41313 349.45L245.41313 348.66876L248.36626 345.3875Q249.0225 344.6375 249.2725 344.1844Q249.5225 343.71564 249.5225 343.21564Q249.5225 342.54376 249.11626 342.1219Q248.72563 341.6844 248.03813 341.6844Q247.24126 341.6844 246.78813 342.15314Q246.335 342.60626 246.335 343.4344L245.25688 343.4344Q245.25688 342.2469 246.00688 341.52814Q246.7725 340.79376 248.03813 340.79376Q249.24126 340.79376 249.92876 341.41876Q250.61626 342.04376 250.61626 343.09064Q250.61626 344.34064 249.00688 346.09064L246.72563 348.5594L251.00688 348.5594L251.00688 349.45Z" fill-rule="nonzero"/><path fill="#757575" d="M361.07126 346.59064L362.25876 346.59064L362.25876 347.46564L361.07126 347.46564L361.07126 349.45L359.99313 349.45L359.99313 347.46564L356.1025 347.46564L356.1025 346.825L359.915 340.91876L361.07126 340.91876L361.07126 346.59064ZM357.33688 346.59064L359.99313 346.59064L359.99313 342.40314L359.8525 342.6375L357.33688 346.59064Z" fill-rule="nonzero"/><path fill="#757575" d="M471.83875 340.91876L471.83875 341.825L471.63562 341.825Q470.37 341.85626 469.62 342.59064Q468.87 343.3094 468.745 344.6219Q469.4325 343.85626 470.58875 343.85626Q471.69812 343.85626 472.37 344.6375Q473.04187 345.41876 473.04187 346.66876Q473.04187 347.98126 472.32312 348.77814Q471.60437 349.575 470.38562 349.575Q469.16687 349.575 468.40125 348.6375Q467.65125 347.6844 467.65125 346.2L467.65125 345.79376Q467.65125 343.4344 468.65125 342.1844Q469.65125 340.9344 471.63562 340.91876L471.83875 340.91876ZM470.41687 344.7625Q469.85437 344.7625 469.38562 345.09064Q468.91687 345.41876 468.72937 345.9344L468.72937 346.325Q468.72937 347.3875 469.19812 348.02814Q469.6825 348.66876 470.38562 348.66876Q471.12 348.66876 471.54187 348.1375Q471.96375 347.59064 471.96375 346.71564Q471.96375 345.84064 471.54187 345.3094Q471.12 344.7625 470.41687 344.7625Z" fill-rule="nonzero"/><path fill="#757575" d="M583.84064 343.1375Q583.84064 343.77814 583.4969 344.27814Q583.15314 344.77814 582.59064 345.0594Q583.2469 345.34064 583.6375 345.90314Q584.02814 346.45 584.02814 347.15314Q584.02814 348.2469 583.27814 348.91876Q582.54376 349.575 581.325 349.575Q580.09064 349.575 579.34064 348.91876Q578.60626 348.2469 578.60626 347.15314Q578.60626 346.45 578.98126 345.90314Q579.35626 345.34064 580.02814 345.0594Q579.46564 344.77814 579.1375 344.27814Q578.8094 343.77814 578.8094 343.1375Q578.8094 342.0594 579.4969 341.4344Q580.1844 340.79376 581.325 340.79376Q582.45 340.79376 583.1375 341.4344Q583.84064 342.0594 583.84064 343.1375ZM582.95 347.1219Q582.95 346.40314 582.4969 345.96564Q582.04376 345.5125 581.3094 345.5125Q580.575 345.5125 580.1219 345.96564Q579.6844 346.40314 579.6844 347.1375Q579.6844 347.85626 580.1219 348.27814Q580.5594 348.6844 581.325 348.6844Q582.075 348.6844 582.5125 348.2625Q582.95 347.84064 582.95 347.1219ZM581.325 341.6844Q580.6844 341.6844 580.27814 342.09064Q579.8875 342.48126 579.8875 343.16876Q579.8875 343.8094 580.27814 344.21564Q580.66876 344.6219 581.3094 344.6219Q581.96564 344.6219 582.35626 344.21564Q582.7469 343.8094 582.7469 343.16876Q582.7469 342.5125 582.34064 342.10626Q581.9344 341.6844 581.325 341.6844Z" fill-rule="nonzero"/><path fill="#ffcc00" d="M147.5 21.05C147.5 20.497715 147.94771 20.05 148.5 20.05L158.5 20.05C159.05229 20.05 159.5 20.497715 159.5 21.05L159.5 31.05C159.5 31.602285 159.05229 32.05 158.5 32.05L148.5 32.05C147.94771 32.05 147.5 31.602285 147.5 31.05Z" fill-rule="nonzero"/><path fill="#757575" d="M174.79688 29.425Q174.35938 30.05 173.57812 30.3625Q172.79688 30.675 171.76562 30.675Q170.73438 30.675 169.92188 30.190624Q169.10938 29.690624 168.67188 28.784374Q168.23438 27.878124 168.21875 26.690624L168.21875 25.95625Q168.21875 24.01875 169.10938 22.95625Q170.01562 21.89375 171.64062 21.89375Q172.98438 21.89375 173.79688 22.58125Q174.60938 23.26875 174.79688 24.51875L173.67188 24.51875Q173.34375 22.83125 171.65625 22.83125Q170.51562 22.83125 169.9375 23.628124Q169.35938 24.409374 169.34375 25.925L169.34375 26.6125Q169.34375 28.05 170.0 28.909374Q170.65625 29.753124 171.78125 29.753124Q172.40625 29.753124 172.875 29.6125Q173.35938 29.471874 173.67188 29.128124L173.67188 27.221874L171.70312 27.221874L171.70312 26.3L174.79688 26.3L174.79688 29.425ZM178.95312 30.675Q177.65625 30.675 176.84375 29.83125Q176.04688 28.971874 176.04688 27.55L176.04688 27.3625Q176.04688 26.409374 176.40625 25.675Q176.76562 24.925 177.40625 24.51875Q178.0625 24.096874 178.8125 24.096874Q180.04688 24.096874 180.73438 24.909374Q181.42188 25.721874 181.42188 27.2375L181.42188 27.690624L177.125 27.690624Q177.15625 28.628124 177.67188 29.20625Q178.20312 29.784374 179.01562 29.784374Q179.57812 29.784374 179.96875 29.55Q180.375 29.315624 180.6875 28.925L181.34375 29.440624Q180.54688 30.675 178.95312 30.675ZM178.8125 24.9875Q178.15625 24.9875 177.70312 25.471874Q177.26562 25.940624 177.17188 26.8L180.34375 26.8L180.34375 26.721874Q180.29688 25.89375 179.89062 25.440624Q179.5 24.9875 178.8125 24.9875ZM185.39062 25.175Q185.14062 25.14375 184.85938 25.14375Q183.78125 25.14375 183.40625 26.05L183.40625 30.55L182.32812 30.55L182.32812 24.20625L183.375 24.20625L183.39062 24.940624Q183.92188 24.096874 184.90625 24.096874Q185.21875 24.096874 185.39062 24.175L185.39062 25.175ZM187.34375 24.20625L187.375 24.909374Q188.0625 24.096874 189.25 24.096874Q190.57812 24.096874 191.0625 25.1125Q191.375 24.659374 191.875 24.378124Q192.39062 24.096874 193.07812 24.096874Q195.17188 24.096874 195.20312 26.3L195.20312 30.55L194.125 30.55L194.125 26.3625Q194.125 25.690624 193.8125 25.3625Q193.5 25.01875 192.76562 25.01875Q192.15625 25.01875 191.75 25.378124Q191.35938 25.7375 191.29688 26.346874L191.29688 30.55L190.21875 30.55L190.21875 26.39375Q190.21875 25.01875 188.85938 25.01875Q187.79688 25.01875 187.40625 25.925L187.40625 30.55L186.3125 30.55L186.3125 24.20625L187.34375 24.20625ZM201.23438 30.55Q201.14062 30.3625 201.07812 29.878124Q200.32812 30.675 199.28125 30.675Q198.34375 30.675 197.73438 30.14375Q197.14062 29.6125 197.14062 28.784374Q197.14062 27.8 197.89062 27.253124Q198.64062 26.70625 200.01562 26.70625L201.0625 26.70625L201.0625 26.20625Q201.0625 25.64375 200.71875 25.315624Q200.39062 24.971874 199.71875 24.971874Q199.14062 24.971874 198.75 25.26875Q198.35938 25.55 198.35938 25.971874L197.26562 25.971874Q197.26562 25.4875 197.59375 25.05Q197.9375 24.6125 198.51562 24.3625Q199.09375 24.096874 199.78125 24.096874Q200.89062 24.096874 201.5 24.64375Q202.125 25.190624 202.15625 26.14375L202.15625 29.065624Q202.15625 29.940624 202.375 30.45625L202.375 30.55L201.23438 30.55ZM199.4375 29.721874Q199.95312 29.721874 200.40625 29.45625Q200.85938 29.190624 201.0625 28.76875L201.0625 27.471874L200.21875 27.471874Q198.21875 27.471874 198.21875 28.64375Q198.21875 29.14375 198.5625 29.440624Q198.90625 29.721874 199.4375 29.721874ZM205.34375 24.20625L205.375 25.003124Q206.10938 24.096874 207.28125 24.096874Q209.29688 24.096874 209.3125 26.3625L209.3125 30.55L208.21875 30.55L208.21875 26.346874Q208.21875 25.675 207.90625 25.346874Q207.60938 25.01875 206.95312 25.01875Q206.42188 25.01875 206.01562 25.3Q205.625 25.58125 205.40625 26.034374L205.40625 30.55L204.32812 30.55L204.32812 24.20625L205.34375 24.20625ZM219.20312 28.315624L215.625 28.315624L214.82812 30.55L213.67188 30.55L216.92188 22.01875L217.90625 22.01875L221.17188 30.55L220.01562 30.55L219.20312 28.315624ZM215.96875 27.39375L218.875 27.39375L217.42188 23.409374L215.96875 27.39375ZM223.34375 24.20625L223.375 25.003124Q224.10938 24.096874 225.28125 24.096874Q227.29688 24.096874 227.3125 26.3625L227.3125 30.55L226.21875 30.55L226.21875 26.346874Q226.21875 25.675 225.90625 25.346874Q225.60938 25.01875 224.95312 25.01875Q224.42188 25.01875 224.01562 25.3Q223.625 25.58125 223.40625 26.034374L223.40625 30.55L222.32812 30.55L222.32812 24.20625L223.34375 24.20625ZM233.23438 30.55Q233.14062 30.3625 233.07812 29.878124Q232.32812 30.675 231.28125 30.675Q230.34375 30.675 229.73438 30.14375Q229.14062 29.6125 229.14062 28.784374Q229.14062 27.8 229.89062 27.253124Q230.64062 26.70625 232.01562 26.70625L233.0625 26.70625L233.0625 26.20625Q233.0625 25.64375 232.71875 25.315624Q232.39062 24.971874 231.71875 24.971874Q231.14062 24.971874 230.75 25.26875Q230.35938 25.55 230.35938 25.971874L229.26562 25.971874Q229.26562 25.4875 229.59375 25.05Q229.9375 24.6125 230.51562 24.3625Q231.09375 24.096874 231.78125 24.096874Q232.89062 24.096874 233.5 24.64375Q234.125 25.190624 234.15625 26.14375L234.15625 29.065624Q234.15625 29.940624 234.375 30.45625L234.375 30.55L233.23438 30.55ZM231.4375 29.721874Q231.95312 29.721874 232.40625 29.45625Q232.85938 29.190624 233.0625 28.76875L233.0625 27.471874L232.21875 27.471874Q230.21875 27.471874 230.21875 28.64375Q230.21875 29.14375 230.5625 29.440624Q230.90625 29.721874 231.4375 29.721874ZM237.5 30.55L236.42188 30.55L236.42188 21.55L237.5 21.55L237.5 30.55ZM241.39062 28.95625L242.875 24.20625L244.03125 24.20625L241.48438 31.534374Q240.89062 33.1125 239.60938 33.1125L239.39062 33.096874L239.0 33.01875L239.0 32.14375L239.28125 32.159374Q239.84375 32.159374 240.14062 31.940624Q240.45312 31.721874 240.65625 31.128124L240.89062 30.471874L238.625 24.20625L239.8125 24.20625L241.39062 28.95625ZM246.34375 29.659374L250.04688 29.659374L250.04688 30.55L245.01562 30.55L245.01562 29.753124L248.51562 25.1125L245.0625 25.1125L245.0625 24.20625L249.875 24.20625L249.875 24.971874L246.34375 29.659374ZM253.95312 30.675Q252.65625 30.675 251.84375 29.83125Q251.04688 28.971874 251.04688 27.55L251.04688 27.3625Q251.04688 26.409374 251.40625 25.675Q251.76562 24.925 252.40625 24.51875Q253.0625 24.096874 253.8125 24.096874Q255.04688 24.096874 255.73438 24.909374Q256.42188 25.721874 256.42188 27.2375L256.42188 27.690624L252.125 27.690624Q252.15625 28.628124 252.67188 29.20625Q253.20312 29.784374 254.01562 29.784374Q254.57812 29.784374 254.96875 29.55Q255.375 29.315624 255.6875 28.925L256.34375 29.440624Q255.54688 30.675 253.95312 30.675ZM253.8125 24.9875Q253.15625 24.9875 252.70312 25.471874Q252.26562 25.940624 252.17188 26.8L255.34375 26.8L255.34375 26.721874Q255.29688 25.89375 254.89062 25.440624Q254.5 24.9875 253.8125 24.9875ZM260.39062 25.175Q260.14062 25.14375 259.85938 25.14375Q258.78125 25.14375 258.40625 26.05L258.40625 30.55L257.32812 30.55L257.32812 24.20625L258.375 24.20625L258.39062 24.940624Q258.92188 24.096874 259.90625 24.096874Q260.21875 24.096874 260.39062 24.175L260.39062 25.175Z" fill-rule="nonzero"/><path fill="#22ab82" d="M276.5 21.05C276.5 20.497715 276.94772 20.05 277.5 20.05L287.5 20.05C288.05228 20.05 288.5 20.497715 288.5 21.05L288.5 31.05C288.5 31.602285 288.05228 32.05 287.5 32.05L277.5 32.05C276.94772 32.05 276.5 31.602285 276.5 31.05Z" fill-rule="nonzero"/><path fill="#757575" d="M304.04688 30.55L302.92188 30.55L302.92188 26.6125L298.60938 26.6125L298.60938 30.55L297.48438 30.55L297.48438 22.01875L298.60938 22.01875L298.60938 25.690624L302.92188 25.690624L302.92188 22.01875L304.04688 22.01875L304.04688 30.55ZM308.39062 28.95625L309.875 24.20625L311.03125 24.20625L308.48438 31.534374Q307.89062 33.1125 306.60938 33.1125L306.39062 33.096874L306.0 33.01875L306.0 32.14375L306.28125 32.159374Q306.84375 32.159374 307.14062 31.940624Q307.45312 31.721874 307.65625 31.128124L307.89062 30.471874L305.625 24.20625L306.8125 24.20625L308.39062 28.95625ZM317.67188 27.45625Q317.67188 28.89375 317.01562 29.784374Q316.35938 30.675 315.21875 30.675Q314.0625 30.675 313.40625 29.940624L313.40625 32.9875L312.32812 32.9875L312.32812 24.20625L313.3125 24.20625L313.35938 24.909374Q314.03125 24.096874 315.20312 24.096874Q316.34375 24.096874 317.0 24.95625Q317.67188 25.815624 317.67188 27.346874L317.67188 27.45625ZM316.59375 27.33125Q316.59375 26.253124 316.125 25.64375Q315.67188 25.01875 314.875 25.01875Q313.89062 25.01875 313.40625 25.878124L313.40625 28.909374Q313.89062 29.784374 314.89062 29.784374Q315.67188 29.784374 316.125 29.175Q316.59375 28.55 316.59375 27.33125ZM320.40625 24.971874Q321.125 24.096874 322.28125 24.096874Q324.29688 24.096874 324.3125 26.3625L324.3125 30.55L323.21875 30.55L323.21875 26.346874Q323.21875 25.675 322.90625 25.346874Q322.60938 25.01875 321.95312 25.01875Q321.42188 25.01875 321.01562 25.3Q320.625 25.58125 320.40625 26.034374L320.40625 30.55L319.32812 30.55L319.32812 21.55L320.40625 21.55L320.40625 24.971874ZM328.95312 30.675Q327.65625 30.675 326.84375 29.83125Q326.04688 28.971874 326.04688 27.55L326.04688 27.3625Q326.04688 26.409374 326.40625 25.675Q326.76562 24.925 327.40625 24.51875Q328.0625 24.096874 328.8125 24.096874Q330.04688 24.096874 330.73438 24.909374Q331.42188 25.721874 331.42188 27.2375L331.42188 27.690624L327.125 27.690624Q327.15625 28.628124 327.67188 29.20625Q328.20312 29.784374 329.01562 29.784374Q329.57812 29.784374 329.96875 29.55Q330.375 29.315624 330.6875 28.925L331.34375 29.440624Q330.54688 30.675 328.95312 30.675ZM328.8125 24.9875Q328.15625 24.9875 327.70312 25.471874Q327.26562 25.940624 327.17188 26.8L330.34375 26.8L330.34375 26.721874Q330.29688 25.89375 329.89062 25.440624Q329.5 24.9875 328.8125 24.9875ZM333.34375 24.20625L333.375 25.003124Q334.10938 24.096874 335.28125 24.096874Q337.29688 24.096874 337.3125 26.3625L337.3125 30.55L336.21875 30.55L336.21875 26.346874Q336.21875 25.675 335.90625 25.346874Q335.60938 25.01875 334.95312 25.01875Q334.42188 25.01875 334.01562 25.3Q333.625 25.58125 333.40625 26.034374L333.40625 30.55L332.32812 30.55L332.32812 24.20625L333.34375 24.20625ZM343.23438 30.55Q343.14062 30.3625 343.07812 29.878124Q342.32812 30.675 341.28125 30.675Q340.34375 30.675 339.73438 30.14375Q339.14062 29.6125 339.14062 28.784374Q339.14062 27.8 339.89062 27.253124Q340.64062 26.70625 342.01562 26.70625L343.0625 26.70625L343.0625 26.20625Q343.0625 25.64375 342.71875 25.315624Q342.39062 24.971874 341.71875 24.971874Q341.14062 24.971874 340.75 25.26875Q340.35938 25.55 340.35938 25.971874L339.26562 25.971874Q339.26562 25.4875 339.59375 25.05Q339.9375 24.6125 340.51562 24.3625Q341.09375 24.096874 341.78125 24.096874Q342.89062 24.096874 343.5 24.64375Q344.125 25.190624 344.15625 26.14375L344.15625 29.065624Q344.15625 29.940624 344.375 30.45625L344.375 30.55L343.23438 30.55ZM341.4375 29.721874Q341.95312 29.721874 342.40625 29.45625Q342.85938 29.190624 343.0625 28.76875L343.0625 27.471874L342.21875 27.471874Q340.21875 27.471874 340.21875 28.64375Q340.21875 29.14375 340.5625 29.440624Q340.90625 29.721874 341.4375 29.721874ZM347.79688 22.675L347.79688 24.20625L348.96875 24.20625L348.96875 25.05L347.79688 25.05L347.79688 28.971874Q347.79688 29.3625 347.95312 29.55Q348.10938 29.7375 348.48438 29.7375Q348.67188 29.7375 349.0 29.675L349.0 30.55Q348.57812 30.675 348.17188 30.675Q347.45312 30.675 347.07812 30.2375Q346.70312 29.784374 346.70312 28.971874L346.70312 25.05L345.54688 25.05L345.54688 24.20625L346.70312 24.20625L346.70312 22.675L347.79688 22.675ZM351.5 30.55L350.42188 30.55L350.42188 24.20625L351.5 24.20625L351.5 30.55ZM350.32812 22.534374Q350.32812 22.26875 350.48438 22.08125Q350.65625 21.89375 350.96875 21.89375Q351.28125 21.89375 351.4375 22.08125Q351.60938 22.26875 351.60938 22.534374Q351.60938 22.784374 351.4375 22.971874Q351.28125 23.14375 350.96875 23.14375Q350.65625 23.14375 350.48438 22.971874Q350.32812 22.784374 350.32812 22.534374ZM353.03125 27.315624Q353.03125 26.39375 353.39062 25.64375Q353.76562 24.89375 354.42188 24.503124Q355.07812 24.096874 355.90625 24.096874Q357.20312 24.096874 358.0 24.9875Q358.8125 25.878124 358.8125 27.378124L358.8125 27.45625Q358.8125 28.378124 358.45312 29.1125Q358.09375 29.846874 357.4375 30.26875Q356.78125 30.675 355.92188 30.675Q354.64062 30.675 353.82812 29.784374Q353.03125 28.878124 353.03125 27.39375L353.03125 27.315624ZM354.125 27.45625Q354.125 28.503124 354.60938 29.14375Q355.10938 29.784374 355.92188 29.784374Q356.75 29.784374 357.23438 29.14375Q357.71875 28.4875 357.71875 27.315624Q357.71875 26.284374 357.21875 25.64375Q356.73438 24.9875 355.90625 24.9875Q355.10938 24.9875 354.60938 25.628124Q354.125 26.253124 354.125 27.45625ZM361.34375 24.20625L361.375 25.003124Q362.10938 24.096874 363.28125 24.096874Q365.29688 24.096874 365.3125 26.3625L365.3125 30.55L364.21875 30.55L364.21875 26.346874Q364.21875 25.675 363.90625 25.346874Q363.60938 25.01875 362.95312 25.01875Q362.42188 25.01875 362.01562 25.3Q361.625 25.58125 361.40625 26.034374L361.40625 30.55L360.32812 30.55L360.32812 24.20625L361.34375 24.20625ZM370.48438 30.55L370.48438 22.01875L372.90625 22.01875Q374.01562 22.01875 374.85938 22.51875Q375.71875 23.003124 376.1875 23.909374Q376.65625 24.815624 376.65625 26.003124L376.65625 26.534374Q376.65625 27.753124 376.1875 28.659374Q375.73438 29.565624 374.85938 30.05Q374.0 30.534374 372.85938 30.55L370.48438 30.55ZM371.60938 22.940624L371.60938 29.628124L372.79688 29.628124Q374.09375 29.628124 374.8125 28.83125Q375.54688 28.01875 375.54688 26.51875L375.54688 26.01875Q375.54688 24.565624 374.85938 23.76875Q374.1875 22.95625 372.92188 22.940624L371.60938 22.940624ZM380.95312 30.675Q379.65625 30.675 378.84375 29.83125Q378.04688 28.971874 378.04688 27.55L378.04688 27.3625Q378.04688 26.409374 378.40625 25.675Q378.76562 24.925 379.40625 24.51875Q380.0625 24.096874 380.8125 24.096874Q382.04688 24.096874 382.73438 24.909374Q383.42188 25.721874 383.42188 27.2375L383.42188 27.690624L379.125 27.690624Q379.15625 28.628124 379.67188 29.20625Q380.20312 29.784374 381.01562 29.784374Q381.57812 29.784374 381.96875 29.55Q382.375 29.315624 382.6875 28.925L383.34375 29.440624Q382.54688 30.675 380.95312 30.675ZM380.8125 24.9875Q380.15625 24.9875 379.70312 25.471874Q379.26562 25.940624 379.17188 26.8L382.34375 26.8L382.34375 26.721874Q382.29688 25.89375 381.89062 25.440624Q381.5 24.9875 380.8125 24.9875ZM386.85938 29.784374Q387.4375 29.784374 387.875 29.440624Q388.3125 29.08125 388.35938 28.55L389.39062 28.55Q389.35938 29.096874 389.0 29.596874Q388.65625 30.08125 388.07812 30.378124Q387.51562 30.675 386.85938 30.675Q385.5625 30.675 384.79688 29.815624Q384.04688 28.940624 384.04688 27.440624L384.04688 27.253124Q384.04688 26.33125 384.375 25.6125Q384.71875 24.89375 385.34375 24.503124Q385.98438 24.096874 386.85938 24.096874Q387.92188 24.096874 388.625 24.7375Q389.34375 25.3625 389.39062 26.39375L388.35938 26.39375Q388.3125 25.76875 387.89062 25.378124Q387.46875 24.9875 386.85938 24.9875Q386.03125 24.9875 385.57812 25.58125Q385.125 26.175 385.125 27.3L385.125 27.503124Q385.125 28.596874 385.57812 29.190624Q386.03125 29.784374 386.85938 29.784374ZM390.03125 27.315624Q390.03125 26.39375 390.39062 25.64375Q390.76562 24.89375 391.42188 24.503124Q392.07812 24.096874 392.90625 24.096874Q394.20312 24.096874 395.0 24.9875Q395.8125 25.878124 395.8125 27.378124L395.8125 27.45625Q395.8125 28.378124 395.45312 29.1125Q395.09375 29.846874 394.4375 30.26875Q393.78125 30.675 392.92188 30.675Q391.64062 30.675 390.82812 29.784374Q390.03125 28.878124 390.03125 27.39375L390.03125 27.315624ZM391.125 27.45625Q391.125 28.503124 391.60938 29.14375Q392.10938 29.784374 392.92188 29.784374Q393.75 29.784374 394.23438 29.14375Q394.71875 28.4875 394.71875 27.315624Q394.71875 26.284374 394.21875 25.64375Q393.73438 24.9875 392.90625 24.9875Q392.10938 24.9875 391.60938 25.628124Q391.125 26.253124 391.125 27.45625ZM398.34375 24.20625L398.375 24.909374Q399.0625 24.096874 400.25 24.096874Q401.57812 24.096874 402.0625 25.1125Q402.375 24.659374 402.875 24.378124Q403.39062 24.096874 404.07812 24.096874Q406.17188 24.096874 406.20312 26.3L406.20312 30.55L405.125 30.55L405.125 26.3625Q405.125 25.690624 404.8125 25.3625Q404.5 25.01875 403.76562 25.01875Q403.15625 25.01875 402.75 25.378124Q402.35938 25.7375 402.29688 26.346874L402.29688 30.55L401.21875 30.55L401.21875 26.39375Q401.21875 25.01875 399.85938 25.01875Q398.79688 25.01875 398.40625 25.925L398.40625 30.55L397.3125 30.55L397.3125 24.20625L398.34375 24.20625ZM413.67188 27.45625Q413.67188 28.89375 413.01562 29.784374Q412.35938 30.675 411.21875 30.675Q410.0625 30.675 409.40625 29.940624L409.40625 32.9875L408.32812 32.9875L408.32812 24.20625L409.3125 24.20625L409.35938 24.909374Q410.03125 24.096874 411.20312 24.096874Q412.34375 24.096874 413.0 24.95625Q413.67188 25.815624 413.67188 27.346874L413.67188 27.45625ZM412.59375 27.33125Q412.59375 26.253124 412.125 25.64375Q411.67188 25.01875 410.875 25.01875Q409.89062 25.01875 409.40625 25.878124L409.40625 28.909374Q409.89062 29.784374 410.89062 29.784374Q411.67188 29.784374 412.125 29.175Q412.59375 28.55 412.59375 27.33125ZM415.03125 27.315624Q415.03125 26.39375 415.39062 25.64375Q415.76562 24.89375 416.42188 24.503124Q417.07812 24.096874 417.90625 24.096874Q419.20312 24.096874 420.0 24.9875Q420.8125 25.878124 420.8125 27.378124L420.8125 27.45625Q420.8125 28.378124 420.45312 29.1125Q420.09375 29.846874 419.4375 30.26875Q418.78125 30.675 417.92188 30.675Q416.64062 30.675 415.82812 29.784374Q415.03125 28.878124 415.03125 27.39375L415.03125 27.315624ZM416.125 27.45625Q416.125 28.503124 416.60938 29.14375Q417.10938 29.784374 417.92188 29.784374Q418.75 29.784374 419.23438 29.14375Q419.71875 28.4875 419.71875 27.315624Q419.71875 26.284374 419.21875 25.64375Q418.73438 24.9875 417.90625 24.9875Q417.10938 24.9875 416.60938 25.628124Q416.125 26.253124 416.125 27.45625ZM426.23438 29.925Q425.60938 30.675 424.375 30.675Q423.35938 30.675 422.82812 30.08125Q422.29688 29.4875 422.29688 28.33125L422.29688 24.20625L423.375 24.20625L423.375 28.3Q423.375 29.753124 424.54688 29.753124Q425.79688 29.753124 426.20312 28.815624L426.20312 24.20625L427.29688 24.20625L427.29688 30.55L426.26562 30.55L426.23438 29.925ZM430.34375 24.20625L430.375 25.003124Q431.10938 24.096874 432.28125 24.096874Q434.29688 24.096874 434.3125 26.3625L434.3125 30.55L433.21875 30.55L433.21875 26.346874Q433.21875 25.675 432.90625 25.346874Q432.60938 25.01875 431.95312 25.01875Q431.42188 25.01875 431.01562 25.3Q430.625 25.58125 430.40625 26.034374L430.40625 30.55L429.32812 30.55L429.32812 24.20625L430.34375 24.20625ZM436.0625 27.33125Q436.0625 25.8625 436.75 24.9875Q437.4375 24.096874 438.5625 24.096874Q439.67188 24.096874 440.32812 24.846874L440.32812 21.55L441.40625 21.55L441.40625 30.55L440.40625 30.55L440.35938 29.8625Q439.70312 30.675 438.54688 30.675Q437.45312 30.675 436.75 29.76875Q436.0625 28.8625 436.0625 27.409374L436.0625 27.33125ZM437.14062 27.45625Q437.14062 28.534374 437.57812 29.14375Q438.03125 29.753124 438.8125 29.753124Q439.84375 29.753124 440.32812 28.815624L440.32812 25.909374Q439.84375 25.01875 438.82812 25.01875Q438.03125 25.01875 437.57812 25.628124Q437.14062 26.2375 437.14062 27.45625ZM445.95312 30.675Q444.65625 30.675 443.84375 29.83125Q443.04688 28.971874 443.04688 27.55L443.04688 27.3625Q443.04688 26.409374 443.40625 25.675Q443.76562 24.925 444.40625 24.51875Q445.0625 24.096874 445.8125 24.096874Q447.04688 24.096874 447.73438 24.909374Q448.42188 25.721874 448.42188 27.2375L448.42188 27.690624L444.125 27.690624Q444.15625 28.628124 444.67188 29.20625Q445.20312 29.784374 446.01562 29.784374Q446.57812 29.784374 446.96875 29.55Q447.375 29.315624 447.6875 28.925L448.34375 29.440624Q447.54688 30.675 445.95312 30.675ZM445.8125 24.9875Q445.15625 24.9875 444.70312 25.471874Q444.26562 25.940624 444.17188 26.8L447.34375 26.8L447.34375 26.721874Q447.29688 25.89375 446.89062 25.440624Q446.5 24.9875 445.8125 24.9875ZM452.39062 25.175Q452.14062 25.14375 451.85938 25.14375Q450.78125 25.14375 450.40625 26.05L450.40625 30.55L449.32812 30.55L449.32812 24.20625L450.375 24.20625L450.39062 24.940624Q450.92188 24.096874 451.90625 24.096874Q452.21875 24.096874 452.39062 24.175L452.39062 25.175Z" fill-rule="nonzero"/></svg>