<svg version="1.1" viewBox="0.0 0.0 600.0 371.0" fill="none" stroke="none" stroke-linecap="square" stroke-miterlimit="10" width="600" height="371" xmlns:xlink="http://www.w3.org/1999/xlink" xmlns="http://www.w3.org/2000/svg"><path fill="#ffffff" d="M0 0L600.0 0L600.0 371.0L0 371.0L0 0Z" fill-rule="nonzero"/><path stroke="#333333" stroke-width="1.0" stroke-linecap="butt" d="M45.5 45.5L45.5 331.5" fill-rule="nonzero"/><path stroke="#cccccc" stroke-width="1.0" stroke-linecap="butt" d="M179.5 45.5L179.5 331.5" fill-rule="nonzero"/><path stroke="#cccccc" stroke-width="1.0" stroke-linecap="butt" d="M313.5 45.5L313.5 331.5" fill-rule="nonzero"/><path stroke="#cccccc" stroke-width="1.0" stroke-linecap="butt" d="M447.5 45.5L447.5 331.5" fill-rule="nonzero"/><path stroke="#cccccc" stroke-width="1.0" stroke-linecap="butt" d="M581.5 45.5L581.5 331.5" fill-rule="nonzero"/><clipPath id="id_0"><path d="M45.55 45.916668L581.45 45.916668L581.45 331.45L45.55 331.45L45.55 45.916668Z" clip-rule="nonzero"/></clipPath><path stroke="#000000" stroke-width="2.0" stroke-linecap="butt" stroke-opacity="0.0" clip-path="url(#id_0)" d="M46.0 127.0L46.0 90.0L496.0 90.0C497.10458 90.0 498.0 90.89543 498.0 92.0L498.0 125.0C498.0 126.10457 497.10458 127.0 496.0 127.0Z" fill-rule="nonzero"/><path fill="#fad74b" clip-path="url(#id_0)" d="M46.0 127.0L46.0 90.0L496.0 90.0C497.10458 90.0 498.0 90.89543 498.0 92.0L498.0 125.0C498.0 126.10457 497.10458 127.0 496.0 127.0Z" fill-rule="nonzero"/><path stroke="#000000" stroke-width="2.0" stroke-linecap="butt" stroke-opacity="0.0" clip-path="url(#id_0)" d="M46.0 248.0L46.0 211.0L46.0 211.0L46.0 248.0Z" fill-rule="nonzero"/><path fill="#fad74b" clip-path="url(#id_0)" d="M46.0 248.0L46.0 211.0L46.0 211.0L46.0 248.0Z" fill-rule="nonzero"/><path stroke="#ffffff" stroke-width="2.0" stroke-linecap="butt" clip-path="url(#id_0)" d="M46.0 166.0L46.0 129.0L46.0 129.0L46.0 166.0Z" fill-rule="nonzero"/><path fill="#ffb900" clip-path="url(#id_0)" d="M46.0 166.0L46.0 129.0L46.0 129.0L46.0 166.0Z" fill-rule="nonzero"/><path stroke="#ffffff" stroke-width="2.0" stroke-linecap="butt" clip-path="url(#id_0)" d="M46.0 287.0L46.0 250.0L95.0 250.0C96.10457 250.0 97.0 250.89543 97.0 252.0L97.0 285.0C97.0 286.10458 96.10457 287.0 95.0 287.0Z" fill-rule="nonzero"/><path fill="#ffb900" clip-path="url(#id_0)" d="M46.0 287.0L46.0 250.0L95.0 250.0C96.10457 250.0 97.0 250.89543 97.0 252.0L97.0 285.0C97.0 286.10458 96.10457 287.0 95.0 287.0Z" fill-rule="nonzero"/><path fill="#757575" d="M21.846874 124.556564L21.846874 126.087814L23.01875 126.087814L23.01875 126.931564L21.846874 126.931564L21.846874 130.85344Q21.846874 131.24406 22.003124 131.43156Q22.159374 131.61906 22.534374 131.61906Q22.721874 131.61906 23.05 131.55656L23.05 132.43156Q22.628124 132.55656 22.221874 132.55656Q21.503124 132.55656 21.128124 132.11906Q20.753124 131.66594 20.753124 130.85344L20.753124 126.931564L19.596874 126.931564L19.596874 126.087814L20.753124 126.087814L20.753124 124.556564L21.846874 124.556564ZM27.003124 132.55656Q25.70625 132.55656 24.89375 131.71281Q24.096874 130.85344 24.096874 129.43156L24.096874 129.24406Q24.096874 128.29094 24.45625 127.556564Q24.815624 126.806564 25.45625 126.400314Q26.1125 125.97844 26.8625 125.97844Q28.096874 125.97844 28.784374 126.79094Q29.471874 127.60344 29.471874 129.11906L29.471874 129.57219L25.175 129.57219Q25.20625 130.50969 25.721874 131.08781Q26.253124 131.66594 27.065624 131.66594Q27.628124 131.66594 28.01875 131.43156Q28.425 131.19719 28.7375 130.80656L29.39375 131.32219Q28.596874 132.55656 27.003124 132.55656ZM26.8625 126.869064Q26.20625 126.869064 25.753124 127.35344Q25.315624 127.82219 25.221874 128.68156L28.39375 128.68156L28.39375 128.60344Q28.346874 127.775314 27.940624 127.32219Q27.55 126.869064 26.8625 126.869064ZM34.065624 130.74406Q34.065624 130.30656 33.721874 130.07219Q33.39375 129.82219 32.565624 129.65031Q31.753124 129.47844 31.26875 129.22844Q30.784374 128.97844 30.55 128.65031Q30.33125 128.30656 30.33125 127.837814Q30.33125 127.056564 30.9875 126.525314Q31.64375 125.97844 32.675 125.97844Q33.753124 125.97844 34.409374 126.54094Q35.08125 127.087814 35.08125 127.94719L34.003124 127.94719Q34.003124 127.50969 33.6125 127.19719Q33.2375 126.869064 32.675 126.869064Q32.08125 126.869064 31.7375 127.13469Q31.409374 127.38469 31.409374 127.79094Q31.409374 128.18156 31.721874 128.38469Q32.034374 128.58781 32.846874 128.77531Q33.659374 128.94719 34.159374 129.19719Q34.659374 129.44719 34.89375 129.80656Q35.14375 130.16594 35.14375 130.66594Q35.14375 131.52531 34.45625 132.04094Q33.784374 132.55656 32.70625 132.55656Q31.940624 132.55656 31.346874 132.29094Q30.76875 132.00969 30.440624 131.52531Q30.1125 131.04094 30.1125 130.47844L31.190624 130.47844Q31.221874 131.02531 31.628124 131.35344Q32.034374 131.66594 32.70625 131.66594Q33.315624 131.66594 33.690624 131.41594Q34.065624 131.16594 34.065624 130.74406ZM37.846874 124.556564L37.846874 126.087814L39.01875 126.087814L39.01875 126.931564L37.846874 126.931564L37.846874 130.85344Q37.846874 131.24406 38.003124 131.43156Q38.159374 131.61906 38.534374 131.61906Q38.721874 131.61906 39.05 131.55656L39.05 132.43156Q38.628124 132.55656 38.221874 132.55656Q37.503124 132.55656 37.128124 132.11906Q36.753124 131.66594 36.753124 130.85344L36.753124 126.931564L35.596874 126.931564L35.596874 126.087814L36.753124 126.087814L36.753124 124.556564L37.846874 124.556564Z" fill-rule="nonzero"/><path fill="#757575" d="M22.45625 252.46635L24.034374 247.59135L25.14375 247.59135L22.8625 253.9351L22.034374 253.9351L19.7375 247.59135L20.846874 247.59135L22.45625 252.46635ZM26.08125 250.70073Q26.08125 249.77885 26.440624 249.02885Q26.815624 248.27885 27.471874 247.88823Q28.128124 247.48198 28.95625 247.48198Q30.253124 247.48198 31.05 248.3726Q31.8625 249.26323 31.8625 250.76323L31.8625 250.84135Q31.8625 251.76323 31.503124 252.4976Q31.14375 253.23198 30.4875 253.65385Q29.83125 254.0601 28.971874 254.0601Q27.690624 254.0601 26.878124 253.16948Q26.08125 252.26323 26.08125 250.77885L26.08125 250.70073ZM27.175 250.84135Q27.175 251.88823 27.659374 252.52885Q28.159374 253.16948 28.971874 253.16948Q29.8 253.16948 30.284374 252.52885Q30.76875 251.8726 30.76875 250.70073Q30.76875 249.66948 30.26875 249.02885Q29.784374 248.3726 28.95625 248.3726Q28.159374 248.3726 27.659374 249.01323Q27.175 249.63823 27.175 250.84135ZM34.39375 247.59135L34.425 248.38823Q35.159374 247.48198 36.33125 247.48198Q38.346874 247.48198 38.3625 249.7476L38.3625 253.9351L37.26875 253.9351L37.26875 249.73198Q37.26875 249.0601 36.95625 248.73198Q36.659374 248.40385 36.003124 248.40385Q35.471874 248.40385 35.065624 248.6851Q34.675 248.96635 34.45625 249.41948L34.45625 253.9351L33.378124 253.9351L33.378124 247.59135L34.39375 247.59135Z" fill-rule="nonzero"/><path fill="#757575" d="M48.1125 345.8094Q48.1125 347.71564 47.45625 348.65314Q46.815624 349.575 45.425 349.575Q44.065624 349.575 43.409374 348.66876Q42.753124 347.7625 42.721874 345.95L42.721874 344.5125Q42.721874 342.6219 43.3625 341.71564Q44.01875 340.79376 45.409374 340.79376Q46.784374 340.79376 47.440624 341.6844Q48.096874 342.5594 48.1125 344.40314L48.1125 345.8094ZM47.01875 344.325Q47.01875 342.95 46.628124 342.325Q46.253124 341.6844 45.409374 341.6844Q44.58125 341.6844 44.190624 342.325Q43.815624 342.95 43.815624 344.2469L43.815624 345.98126Q43.815624 347.35626 44.20625 348.02814Q44.6125 348.6844 45.425 348.6844Q46.221874 348.6844 46.6125 348.0594Q47.003124 347.4344 47.01875 346.10626L47.01875 344.325Z" fill-rule="nonzero"/><path fill="#757575" d="M180.29062 349.45L179.2125 349.45L179.2125 342.23126L177.025 343.02814L177.025 342.04376L180.13437 340.8719L180.29062 340.8719L180.29062 349.45Z" fill-rule="nonzero"/><path fill="#757575" d="M316.29688 349.45L310.70312 349.45L310.70312 348.66876L313.65625 345.3875Q314.3125 344.6375 314.5625 344.1844Q314.8125 343.71564 314.8125 343.21564Q314.8125 342.54376 314.40625 342.1219Q314.01562 341.6844 313.32812 341.6844Q312.53125 341.6844 312.07812 342.15314Q311.625 342.60626 311.625 343.4344L310.54688 343.4344Q310.54688 342.2469 311.29688 341.52814Q312.0625 340.79376 313.32812 340.79376Q314.53125 340.79376 315.21875 341.41876Q315.90625 342.04376 315.90625 343.09064Q315.90625 344.34064 314.29688 346.09064L312.01562 348.5594L316.29688 348.5594L316.29688 349.45Z" fill-rule="nonzero"/><path fill="#757575" d="M446.25626 344.65314L447.06876 344.65314Q447.85 344.6375 448.2875 344.2469Q448.725 343.85626 448.725 343.1844Q448.725 341.6844 447.225 341.6844Q446.52188 341.6844 446.1 342.09064Q445.69376 342.4969 445.69376 343.15314L444.6 343.15314Q444.6 342.1375 445.33438 341.46564Q446.08438 340.79376 447.225 340.79376Q448.42813 340.79376 449.11563 341.4344Q449.80313 342.075 449.80313 343.21564Q449.80313 343.77814 449.44376 344.29376Q449.08438 344.8094 448.45938 345.075Q449.1625 345.29376 449.5375 345.8094Q449.92813 346.325 449.92813 347.075Q449.92813 348.21564 449.17813 348.90314Q448.42813 349.575 447.225 349.575Q446.0375 349.575 445.27188 348.91876Q444.52188 348.2625 444.52188 347.2L445.61563 347.2Q445.61563 347.8719 446.05313 348.27814Q446.49063 348.6844 447.24063 348.6844Q448.02188 348.6844 448.42813 348.27814Q448.85 347.85626 448.85 347.09064Q448.85 346.35626 448.39688 345.96564Q447.94376 345.5594 447.06876 345.54376L446.25626 345.54376L446.25626 344.65314Z" fill-rule="nonzero"/><path fill="#757575" d="M583.23126 346.59064L584.41876 346.59064L584.41876 347.46564L583.23126 347.46564L583.23126 349.45L582.15314 349.45L582.15314 347.46564L578.2625 347.46564L578.2625 346.825L582.075 340.91876L583.23126 340.91876L583.23126 346.59064ZM579.4969 346.59064L582.15314 346.59064L582.15314 342.40314L582.0125 342.6375L579.4969 346.59064Z" fill-rule="nonzero"/><path fill="#fad74b" d="M175.5 21.05C175.5 20.497715 175.94771 20.05 176.5 20.05L186.5 20.05C187.05229 20.05 187.5 20.497715 187.5 21.05L187.5 31.05C187.5 31.602285 187.05229 32.05 186.5 32.05L176.5 32.05C175.94771 32.05 175.5 31.602285 175.5 31.05Z" fill-rule="nonzero"/><path fill="#757575" d="M202.79688 29.425Q202.35938 30.05 201.57812 30.3625Q200.79688 30.675 199.76562 30.675Q198.73438 30.675 197.92188 30.190624Q197.10938 29.690624 196.67188 28.784374Q196.23438 27.878124 196.21875 26.690624L196.21875 25.95625Q196.21875 24.01875 197.10938 22.95625Q198.01562 21.89375 199.64062 21.89375Q200.98438 21.89375 201.79688 22.58125Q202.60938 23.26875 202.79688 24.51875L201.67188 24.51875Q201.34375 22.83125 199.65625 22.83125Q198.51562 22.83125 197.9375 23.628124Q197.35938 24.409374 197.34375 25.925L197.34375 26.6125Q197.34375 28.05 198.0 28.909374Q198.65625 29.753124 199.78125 29.753124Q200.40625 29.753124 200.875 29.6125Q201.35938 29.471874 201.67188 29.128124L201.67188 27.221874L199.70312 27.221874L199.70312 26.3L202.79688 26.3L202.79688 29.425ZM206.95312 30.675Q205.65625 30.675 204.84375 29.83125Q204.04688 28.971874 204.04688 27.55L204.04688 27.3625Q204.04688 26.409374 204.40625 25.675Q204.76562 24.925 205.40625 24.51875Q206.0625 24.096874 206.8125 24.096874Q208.04688 24.096874 208.73438 24.909374Q209.42188 25.721874 209.42188 27.2375L209.42188 27.690624L205.125 27.690624Q205.15625 28.628124 205.67188 29.20625Q206.20312 29.784374 207.01562 29.784374Q207.57812 29.784374 207.96875 29.55Q208.375 29.315624 208.6875 28.925L209.34375 29.440624Q208.54688 30.675 206.95312 30.675ZM206.8125 24.9875Q206.15625 24.9875 205.70312 25.471874Q205.26562 25.940624 205.17188 26.8L208.34375 26.8L208.34375 26.721874Q208.29688 25.89375 207.89062 25.440624Q207.5 24.9875 206.8125 24.9875ZM213.39062 25.175Q213.14062 25.14375 212.85938 25.14375Q211.78125 25.14375 211.40625 26.05L211.40625 30.55L210.32812 30.55L210.32812 24.20625L211.375 24.20625L211.39062 24.940624Q211.92188 24.096874 212.90625 24.096874Q213.21875 24.096874 213.39062 24.175L213.39062 25.175ZM215.34375 24.20625L215.375 24.909374Q216.0625 24.096874 217.25 24.096874Q218.57812 24.096874 219.0625 25.1125Q219.375 24.659374 219.875 24.378124Q220.39062 24.096874 221.07812 24.096874Q223.17188 24.096874 223.20312 26.3L223.20312 30.55L222.125 30.55L222.125 26.3625Q222.125 25.690624 221.8125 25.3625Q221.5 25.01875 220.76562 25.01875Q220.15625 25.01875 219.75 25.378124Q219.35938 25.7375 219.29688 26.346874L219.29688 30.55L218.21875 30.55L218.21875 26.39375Q218.21875 25.01875 216.85938 25.01875Q215.79688 25.01875 215.40625 25.925L215.40625 30.55L214.3125 30.55L214.3125 24.20625L215.34375 24.20625ZM229.23438 30.55Q229.14062 30.3625 229.07812 29.878124Q228.32812 30.675 227.28125 30.675Q226.34375 30.675 225.73438 30.14375Q225.14062 29.6125 225.14062 28.784374Q225.14062 27.8 225.89062 27.253124Q226.64062 26.70625 228.01562 26.70625L229.0625 26.70625L229.0625 26.20625Q229.0625 25.64375 228.71875 25.315624Q228.39062 24.971874 227.71875 24.971874Q227.14062 24.971874 226.75 25.26875Q226.35938 25.55 226.35938 25.971874L225.26562 25.971874Q225.26562 25.4875 225.59375 25.05Q225.9375 24.6125 226.51562 24.3625Q227.09375 24.096874 227.78125 24.096874Q228.89062 24.096874 229.5 24.64375Q230.125 25.190624 230.15625 26.14375L230.15625 29.065624Q230.15625 29.940624 230.375 30.45625L230.375 30.55L229.23438 30.55ZM227.4375 29.721874Q227.95312 29.721874 228.40625 29.45625Q228.85938 29.190624 229.0625 28.76875L229.0625 27.471874L228.21875 27.471874Q226.21875 27.471874 226.21875 28.64375Q226.21875 29.14375 226.5625 29.440624Q226.90625 29.721874 227.4375 29.721874ZM233.34375 24.20625L233.375 25.003124Q234.10938 24.096874 235.28125 24.096874Q237.29688 24.096874 237.3125 26.3625L237.3125 30.55L236.21875 30.55L236.21875 26.346874Q236.21875 25.675 235.90625 25.346874Q235.60938 25.01875 234.95312 25.01875Q234.42188 25.01875 234.01562 25.3Q233.625 25.58125 233.40625 26.034374L233.40625 30.55L232.32812 30.55L232.32812 24.20625L233.34375 24.20625ZM247.20312 28.315624L243.625 28.315624L242.82812 30.55L241.67188 30.55L244.92188 22.01875L245.90625 22.01875L249.17188 30.55L248.01562 30.55L247.20312 28.315624ZM243.96875 27.39375L246.875 27.39375L245.42188 23.409374L243.96875 27.39375ZM251.34375 24.20625L251.375 25.003124Q252.10938 24.096874 253.28125 24.096874Q255.29688 24.096874 255.3125 26.3625L255.3125 30.55L254.21875 30.55L254.21875 26.346874Q254.21875 25.675 253.90625 25.346874Q253.60938 25.01875 252.95312 25.01875Q252.42188 25.01875 252.01562 25.3Q251.625 25.58125 251.40625 26.034374L251.40625 30.55L250.32812 30.55L250.32812 24.20625L251.34375 24.20625ZM261.23438 30.55Q261.14062 30.3625 261.07812 29.878124Q260.32812 30.675 259.28125 30.675Q258.34375 30.675 257.73438 30.14375Q257.14062 29.6125 257.14062 28.784374Q257.14062 27.8 257.89062 27.253124Q258.64062 26.70625 260.01562 26.70625L261.0625 26.70625L261.0625 26.20625Q261.0625 25.64375 260.71875 25.315624Q260.39062 24.971874 259.71875 24.971874Q259.14062 24.971874 258.75 25.26875Q258.35938 25.55 258.35938 25.971874L257.26562 25.971874Q257.26562 25.4875 257.59375 25.05Q257.9375 24.6125 258.51562 24.3625Q259.09375 24.096874 259.78125 24.096874Q260.89062 24.096874 261.5 24.64375Q262.125 25.190624 262.15625 26.14375L262.15625 29.065624Q262.15625 29.940624 262.375 30.45625L262.375 30.55L261.23438 30.55ZM259.4375 29.721874Q259.95312 29.721874 260.40625 29.45625Q260.85938 29.190624 261.0625 28.76875L261.0625 27.471874L260.21875 27.471874Q258.21875 27.471874 258.21875 28.64375Q258.21875 29.14375 258.5625 29.440624Q258.90625 29.721874 259.4375 29.721874ZM265.5 30.55L264.42188 30.55L264.42188 21.55L265.5 21.55L265.5 30.55ZM269.39062 28.95625L270.875 24.20625L272.03125 24.20625L269.48438 31.534374Q268.89062 33.1125 267.60938 33.1125L267.39062 33.096874L267.0 33.01875L267.0 32.14375L267.28125 32.159374Q267.84375 32.159374 268.14062 31.940624Q268.45312 31.721874 268.65625 31.128124L268.89062 30.471874L266.625 24.20625L267.8125 24.20625L269.39062 28.95625ZM274.34375 29.659374L278.04688 29.659374L278.04688 30.55L273.01562 30.55L273.01562 29.753124L276.51562 25.1125L273.0625 25.1125L273.0625 24.20625L277.875 24.20625L277.875 24.971874L274.34375 29.659374ZM281.95312 30.675Q280.65625 30.675 279.84375 29.83125Q279.04688 28.971874 279.04688 27.55L279.04688 27.3625Q279.04688 26.409374 279.40625 25.675Q279.76562 24.925 280.40625 24.51875Q281.0625 24.096874 281.8125 24.096874Q283.04688 24.096874 283.73438 24.909374Q284.42188 25.721874 284.42188 27.2375L284.42188 27.690624L280.125 27.690624Q280.15625 28.628124 280.67188 29.20625Q281.20312 29.784374 282.01562 29.784374Q282.57812 29.784374 282.96875 29.55Q283.375 29.315624 283.6875 28.925L284.34375 29.440624Q283.54688 30.675 281.95312 30.675ZM281.8125 24.9875Q281.15625 24.9875 280.70312 25.471874Q280.26562 25.940624 280.17188 26.8L283.34375 26.8L283.34375 26.721874Q283.29688 25.89375 282.89062 25.440624Q282.5 24.9875 281.8125 24.9875ZM288.39062 25.175Q288.14062 25.14375 287.85938 25.14375Q286.78125 25.14375 286.40625 26.05L286.40625 30.55L285.32812 30.55L285.32812 24.20625L286.375 24.20625L286.39062 24.940624Q286.92188 24.096874 287.90625 24.096874Q288.21875 24.096874 288.39062 24.175L288.39062 25.175Z" fill-rule="nonzero"/><path fill="#ffb900" d="M304.5 21.05C304.5 20.497715 304.94772 20.05 305.5 20.05L315.5 20.05C316.05228 20.05 316.5 20.497715 316.5 21.05L316.5 31.05C316.5 31.602285 316.05228 32.05 315.5 32.05L305.5 32.05C304.94772 32.05 304.5 31.602285 304.5 31.05Z" fill-rule="nonzero"/><path fill="#757575" d="M328.0 26.753124Q326.5625 26.33125 325.89062 25.721874Q325.23438 25.1125 325.23438 24.221874Q325.23438 23.221874 326.03125 22.565624Q326.84375 21.89375 328.14062 21.89375Q329.01562 21.89375 329.70312 22.2375Q330.39062 22.58125 330.76562 23.175Q331.15625 23.76875 331.15625 24.4875L330.01562 24.4875Q330.01562 23.70625 329.51562 23.26875Q329.03125 22.83125 328.14062 22.83125Q327.3125 22.83125 326.84375 23.20625Q326.375 23.565624 326.375 24.20625Q326.375 24.7375 326.8125 25.096874Q327.26562 25.45625 328.32812 25.753124Q329.39062 26.05 329.98438 26.409374Q330.59375 26.76875 330.875 27.253124Q331.17188 27.7375 331.17188 28.378124Q331.17188 29.425 330.35938 30.05Q329.54688 30.675 328.20312 30.675Q327.3125 30.675 326.54688 30.33125Q325.79688 29.9875 325.375 29.409374Q324.96875 28.815624 324.96875 28.08125L326.09375 28.08125Q326.09375 28.846874 326.67188 29.3Q327.25 29.753124 328.20312 29.753124Q329.09375 29.753124 329.5625 29.39375Q330.03125 29.01875 330.03125 28.39375Q330.03125 27.76875 329.59375 27.425Q329.15625 27.08125 328.0 26.753124ZM333.79688 22.675L333.79688 24.20625L334.96875 24.20625L334.96875 25.05L333.79688 25.05L333.79688 28.971874Q333.79688 29.3625 333.95312 29.55Q334.10938 29.7375 334.48438 29.7375Q334.67188 29.7375 335.0 29.675L335.0 30.55Q334.57812 30.675 334.17188 30.675Q333.45312 30.675 333.07812 30.2375Q332.70312 29.784374 332.70312 28.971874L332.70312 25.05L331.54688 25.05L331.54688 24.20625L332.70312 24.20625L332.70312 22.675L333.79688 22.675ZM340.23438 30.55Q340.14062 30.3625 340.07812 29.878124Q339.32812 30.675 338.28125 30.675Q337.34375 30.675 336.73438 30.14375Q336.14062 29.6125 336.14062 28.784374Q336.14062 27.8 336.89062 27.253124Q337.64062 26.70625 339.01562 26.70625L340.0625 26.70625L340.0625 26.20625Q340.0625 25.64375 339.71875 25.315624Q339.39062 24.971874 338.71875 24.971874Q338.14062 24.971874 337.75 25.26875Q337.35938 25.55 337.35938 25.971874L336.26562 25.971874Q336.26562 25.4875 336.59375 25.05Q336.9375 24.6125 337.51562 24.3625Q338.09375 24.096874 338.78125 24.096874Q339.89062 24.096874 340.5 24.64375Q341.125 25.190624 341.15625 26.14375L341.15625 29.065624Q341.15625 29.940624 341.375 30.45625L341.375 30.55L340.23438 30.55ZM338.4375 29.721874Q338.95312 29.721874 339.40625 29.45625Q339.85938 29.190624 340.0625 28.76875L340.0625 27.471874L339.21875 27.471874Q337.21875 27.471874 337.21875 28.64375Q337.21875 29.14375 337.5625 29.440624Q337.90625 29.721874 338.4375 29.721874ZM344.34375 24.20625L344.375 25.003124Q345.10938 24.096874 346.28125 24.096874Q348.29688 24.096874 348.3125 26.3625L348.3125 30.55L347.21875 30.55L347.21875 26.346874Q347.21875 25.675 346.90625 25.346874Q346.60938 25.01875 345.95312 25.01875Q345.42188 25.01875 345.01562 25.3Q344.625 25.58125 344.40625 26.034374L344.40625 30.55L343.32812 30.55L343.32812 24.20625L344.34375 24.20625ZM350.0625 27.33125Q350.0625 25.8625 350.75 24.9875Q351.4375 24.096874 352.5625 24.096874Q353.67188 24.096874 354.32812 24.846874L354.32812 21.55L355.40625 21.55L355.40625 30.55L354.40625 30.55L354.35938 29.8625Q353.70312 30.675 352.54688 30.675Q351.45312 30.675 350.75 29.76875Q350.0625 28.8625 350.0625 27.409374L350.0625 27.33125ZM351.14062 27.45625Q351.14062 28.534374 351.57812 29.14375Q352.03125 29.753124 352.8125 29.753124Q353.84375 29.753124 354.32812 28.815624L354.32812 25.909374Q353.84375 25.01875 352.82812 25.01875Q352.03125 25.01875 351.57812 25.628124Q351.14062 26.2375 351.14062 27.45625ZM361.23438 30.55Q361.14062 30.3625 361.07812 29.878124Q360.32812 30.675 359.28125 30.675Q358.34375 30.675 357.73438 30.14375Q357.14062 29.6125 357.14062 28.784374Q357.14062 27.8 357.89062 27.253124Q358.64062 26.70625 360.01562 26.70625L361.0625 26.70625L361.0625 26.20625Q361.0625 25.64375 360.71875 25.315624Q360.39062 24.971874 359.71875 24.971874Q359.14062 24.971874 358.75 25.26875Q358.35938 25.55 358.35938 25.971874L357.26562 25.971874Q357.26562 25.4875 357.59375 25.05Q357.9375 24.6125 358.51562 24.3625Q359.09375 24.096874 359.78125 24.096874Q360.89062 24.096874 361.5 24.64375Q362.125 25.190624 362.15625 26.14375L362.15625 29.065624Q362.15625 29.940624 362.375 30.45625L362.375 30.55L361.23438 30.55ZM359.4375 29.721874Q359.95312 29.721874 360.40625 29.45625Q360.85938 29.190624 361.0625 28.76875L361.0625 27.471874L360.21875 27.471874Q358.21875 27.471874 358.21875 28.64375Q358.21875 29.14375 358.5625 29.440624Q358.90625 29.721874 359.4375 29.721874ZM367.39062 25.175Q367.14062 25.14375 366.85938 25.14375Q365.78125 25.14375 365.40625 26.05L365.40625 30.55L364.32812 30.55L364.32812 24.20625L365.375 24.20625L365.39062 24.940624Q365.92188 24.096874 366.90625 24.096874Q367.21875 24.096874 367.39062 24.175L367.39062 25.175ZM368.0625 27.33125Q368.0625 25.8625 368.75 24.9875Q369.4375 24.096874 370.5625 24.096874Q371.67188 24.096874 372.32812 24.846874L372.32812 21.55L373.40625 21.55L373.40625 30.55L372.40625 30.55L372.35938 29.8625Q371.70312 30.675 370.54688 30.675Q369.45312 30.675 368.75 29.76875Q368.0625 28.8625 368.0625 27.409374L368.0625 27.33125ZM369.14062 27.45625Q369.14062 28.534374 369.57812 29.14375Q370.03125 29.753124 370.8125 29.753124Q371.84375 29.753124 372.32812 28.815624L372.32812 25.909374Q371.84375 25.01875 370.82812 25.01875Q370.03125 25.01875 369.57812 25.628124Q369.14062 26.2375 369.14062 27.45625ZM383.20312 28.315624L379.625 28.315624L378.82812 30.55L377.67188 30.55L380.92188 22.01875L381.90625 22.01875L385.17188 30.55L384.01562 30.55L383.20312 28.315624ZM379.96875 27.39375L382.875 27.39375L381.42188 23.409374L379.96875 27.39375ZM387.34375 24.20625L387.375 25.003124Q388.10938 24.096874 389.28125 24.096874Q391.29688 24.096874 391.3125 26.3625L391.3125 30.55L390.21875 30.55L390.21875 26.346874Q390.21875 25.675 389.90625 25.346874Q389.60938 25.01875 388.95312 25.01875Q388.42188 25.01875 388.01562 25.3Q387.625 25.58125 387.40625 26.034374L387.40625 30.55L386.32812 30.55L386.32812 24.20625L387.34375 24.20625ZM397.23438 30.55Q397.14062 30.3625 397.07812 29.878124Q396.32812 30.675 395.28125 30.675Q394.34375 30.675 393.73438 30.14375Q393.14062 29.6125 393.14062 28.784374Q393.14062 27.8 393.89062 27.253124Q394.64062 26.70625 396.01562 26.70625L397.0625 26.70625L397.0625 26.20625Q397.0625 25.64375 396.71875 25.315624Q396.39062 24.971874 395.71875 24.971874Q395.14062 24.971874 394.75 25.26875Q394.35938 25.55 394.35938 25.971874L393.26562 25.971874Q393.26562 25.4875 393.59375 25.05Q393.9375 24.6125 394.51562 24.3625Q395.09375 24.096874 395.78125 24.096874Q396.89062 24.096874 397.5 24.64375Q398.125 25.190624 398.15625 26.14375L398.15625 29.065624Q398.15625 29.940624 398.375 30.45625L398.375 30.55L397.23438 30.55ZM395.4375 29.721874Q395.95312 29.721874 396.40625 29.45625Q396.85938 29.190624 397.0625 28.76875L397.0625 27.471874L396.21875 27.471874Q394.21875 27.471874 394.21875 28.64375Q394.21875 29.14375 394.5625 29.440624Q394.90625 29.721874 395.4375 29.721874ZM401.5 30.55L400.42188 30.55L400.42188 21.55L401.5 21.55L401.5 30.55ZM405.39062 28.95625L406.875 24.20625L408.03125 24.20625L405.48438 31.534374Q404.89062 33.1125 403.60938 33.1125L403.39062 33.096874L403.0 33.01875L403.0 32.14375L403.28125 32.159374Q403.84375 32.159374 404.14062 31.940624Q404.45312 31.721874 404.65625 31.128124L404.89062 30.471874L402.625 24.20625L403.8125 24.20625L405.39062 28.95625ZM410.34375 29.659374L414.04688 29.659374L414.04688 30.55L409.01562 30.55L409.01562 29.753124L412.51562 25.1125L409.0625 25.1125L409.0625 24.20625L413.875 24.20625L413.875 24.971874L410.34375 29.659374ZM417.95312 30.675Q416.65625 30.675 415.84375 29.83125Q415.04688 28.971874 415.04688 27.55L415.04688 27.3625Q415.04688 26.409374 415.40625 25.675Q415.76562 24.925 416.40625 24.51875Q417.0625 24.096874 417.8125 24.096874Q419.04688 24.096874 419.73438 24.909374Q420.42188 25.721874 420.42188 27.2375L420.42188 27.690624L416.125 27.690624Q416.15625 28.628124 416.67188 29.20625Q417.20312 29.784374 418.01562 29.784374Q418.57812 29.784374 418.96875 29.55Q419.375 29.315624 419.6875 28.925L420.34375 29.440624Q419.54688 30.675 417.95312 30.675ZM417.8125 24.9875Q417.15625 24.9875 416.70312 25.471874Q416.26562 25.940624 416.17188 26.8L419.34375 26.8L419.34375 26.721874Q419.29688 25.89375 418.89062 25.440624Q418.5 24.9875 417.8125 24.9875ZM424.39062 25.175Q424.14062 25.14375 423.85938 25.14375Q422.78125 25.14375 422.40625 26.05L422.40625 30.55L421.32812 30.55L421.32812 24.20625L422.375 24.20625L422.39062 24.940624Q422.92188 24.096874 423.90625 24.096874Q424.21875 24.096874 424.39062 24.175L424.39062 25.175Z" fill-rule="nonzero"/></svg>