<svg version="1.1" viewBox="0.0 0.0 600.0 371.0" fill="none" stroke="none" stroke-linecap="square" stroke-miterlimit="10" width="600" height="371" xmlns:xlink="http://www.w3.org/1999/xlink" xmlns="http://www.w3.org/2000/svg"><path fill="#ffffff" d="M0 0L600.0 0L600.0 371.0L0 371.0L0 0Z" fill-rule="nonzero"/><path stroke="#333333" stroke-width="1.0" stroke-linecap="butt" d="M137.5 45.5L137.5 331.5" fill-rule="nonzero"/><path stroke="#cccccc" stroke-width="1.0" stroke-linecap="butt" d="M211.5 45.5L211.5 331.5" fill-rule="nonzero"/><path stroke="#cccccc" stroke-width="1.0" stroke-linecap="butt" d="M285.5 45.5L285.5 331.5" fill-rule="nonzero"/><path stroke="#cccccc" stroke-width="1.0" stroke-linecap="butt" d="M359.5 45.5L359.5 331.5" fill-rule="nonzero"/><path stroke="#cccccc" stroke-width="1.0" stroke-linecap="butt" d="M433.5 45.5L433.5 331.5" fill-rule="nonzero"/><path stroke="#cccccc" stroke-width="1.0" stroke-linecap="butt" d="M507.5 45.5L507.5 331.5" fill-rule="nonzero"/><path stroke="#cccccc" stroke-width="1.0" stroke-linecap="butt" d="M581.5 45.5L581.5 331.5" fill-rule="nonzero"/><clipPath id="id_0"><path d="M137.13 45.916668L581.45 45.916668L581.45 331.45L137.13 331.45L137.13 45.916668Z" clip-rule="nonzero"/></clipPath><path stroke="#000000" stroke-width="2.0" stroke-linecap="butt" stroke-opacity="0.0" clip-path="url(#id_0)" d="M137.0 71.0L137.0 60.0L254.0 60.0C255.10457 60.0 256.0 60.89543 256.0 62.0L256.0 69.0C256.0 70.10457 255.10457 71.0 254.0 71.0Z" fill-rule="nonzero"/><path fill="#8cab13" clip-path="url(#id_0)" d="M137.0 71.0L137.0 60.0L254.0 60.0C255.10457 60.0 256.0 60.89543 256.0 62.0L256.0 69.0C256.0 70.10457 255.10457 71.0 254.0 71.0Z" fill-rule="nonzero"/><path stroke="#000000" stroke-width="2.0" stroke-linecap="butt" stroke-opacity="0.0" clip-path="url(#id_0)" d="M137.0 110.0L137.0 99.0L258.0 99.0C259.10458 99.0 260.0 99.89543 260.0 101.0L260.0 108.0C260.0 109.10457 259.10458 110.0 258.0 110.0Z" fill-rule="nonzero"/><path fill="#8cab13" clip-path="url(#id_0)" d="M137.0 110.0L137.0 99.0L258.0 99.0C259.10458 99.0 260.0 99.89543 260.0 101.0L260.0 108.0C260.0 109.10457 259.10458 110.0 258.0 110.0Z" fill-rule="nonzero"/><path stroke="#000000" stroke-width="2.0" stroke-linecap="butt" stroke-opacity="0.0" clip-path="url(#id_0)" d="M137.0 149.0L137.0 138.0L496.0 138.0C497.10458 138.0 498.0 138.89543 498.0 140.0L498.0 147.0C498.0 148.10457 497.10458 149.0 496.0 149.0Z" fill-rule="nonzero"/><path fill="#8cab13" clip-path="url(#id_0)" d="M137.0 149.0L137.0 138.0L496.0 138.0C497.10458 138.0 498.0 138.89543 498.0 140.0L498.0 147.0C498.0 148.10457 497.10458 149.0 496.0 149.0Z" fill-rule="nonzero"/><path stroke="#000000" stroke-width="2.0" stroke-linecap="butt" stroke-opacity="0.0" clip-path="url(#id_0)" d="M137.0 188.0L137.0 177.0L517.0 177.0C518.10455 177.0 519.0 177.89543 519.0 179.0L519.0 186.0C519.0 187.10457 518.10455 188.0 517.0 188.0Z" fill-rule="nonzero"/><path fill="#8cab13" clip-path="url(#id_0)" d="M137.0 188.0L137.0 177.0L517.0 177.0C518.10455 177.0 519.0 177.89543 519.0 179.0L519.0 186.0C519.0 187.10457 518.10455 188.0 517.0 188.0Z" fill-rule="nonzero"/><path stroke="#000000" stroke-width="2.0" stroke-linecap="butt" stroke-opacity="0.0" clip-path="url(#id_0)" d="M137.0 227.0L137.0 216.0L517.0 216.0C518.10455 216.0 519.0 216.89543 519.0 218.0L519.0 225.0C519.0 226.10457 518.10455 227.0 517.0 227.0Z" fill-rule="nonzero"/><path fill="#8cab13" clip-path="url(#id_0)" d="M137.0 227.0L137.0 216.0L517.0 216.0C518.10455 216.0 519.0 216.89543 519.0 218.0L519.0 225.0C519.0 226.10457 518.10455 227.0 517.0 227.0Z" fill-rule="nonzero"/><path stroke="#000000" stroke-width="2.0" stroke-linecap="butt" stroke-opacity="0.0" clip-path="url(#id_0)" d="M137.0 265.0L137.0 254.0L228.0 254.0C229.10457 254.0 230.0 254.89543 230.0 256.0L230.0 263.0C230.0 264.10458 229.10457 265.0 228.0 265.0Z" fill-rule="nonzero"/><path fill="#8cab13" clip-path="url(#id_0)" d="M137.0 265.0L137.0 254.0L228.0 254.0C229.10457 254.0 230.0 254.89543 230.0 256.0L230.0 263.0C230.0 264.10458 229.10457 265.0 228.0 265.0Z" fill-rule="nonzero"/><path stroke="#000000" stroke-width="2.0" stroke-linecap="butt" stroke-opacity="0.0" clip-path="url(#id_0)" d="M137.0 304.0L137.0 293.0L238.0 293.0C239.10457 293.0 240.0 293.89542 240.0 295.0L240.0 302.0C240.0 303.10458 239.10457 304.0 238.0 304.0Z" fill-rule="nonzero"/><path fill="#8cab13" clip-path="url(#id_0)" d="M137.0 304.0L137.0 293.0L238.0 293.0C239.10457 293.0 240.0 293.89542 240.0 295.0L240.0 302.0C240.0 303.10458 239.10457 304.0 238.0 304.0Z" fill-rule="nonzero"/><path stroke="#000000" stroke-width="2.0" stroke-linecap="butt" stroke-opacity="0.0" clip-path="url(#id_0)" d="M137.0 84.0L137.0 73.0L256.0 73.0C257.10458 73.0 258.0 73.89543 258.0 75.0L258.0 82.0C258.0 83.10457 257.10458 84.0 256.0 84.0Z" fill-rule="nonzero"/><path fill="#22ab82" clip-path="url(#id_0)" d="M137.0 84.0L137.0 73.0L256.0 73.0C257.10458 73.0 258.0 73.89543 258.0 75.0L258.0 82.0C258.0 83.10457 257.10458 84.0 256.0 84.0Z" fill-rule="nonzero"/><path stroke="#000000" stroke-width="2.0" stroke-linecap="butt" stroke-opacity="0.0" clip-path="url(#id_0)" d="M137.0 123.0L137.0 112.0L254.0 112.0C255.10457 112.0 256.0 112.89543 256.0 114.0L256.0 121.0C256.0 122.10457 255.10457 123.0 254.0 123.0Z" fill-rule="nonzero"/><path fill="#22ab82" clip-path="url(#id_0)" d="M137.0 123.0L137.0 112.0L254.0 112.0C255.10457 112.0 256.0 112.89543 256.0 114.0L256.0 121.0C256.0 122.10457 255.10457 123.0 254.0 123.0Z" fill-rule="nonzero"/><path stroke="#000000" stroke-width="2.0" stroke-linecap="butt" stroke-opacity="0.0" clip-path="url(#id_0)" d="M137.0 162.0L137.0 151.0L485.0 151.0C486.10458 151.0 487.0 151.89543 487.0 153.0L487.0 160.0C487.0 161.10457 486.10458 162.0 485.0 162.0Z" fill-rule="nonzero"/><path fill="#22ab82" clip-path="url(#id_0)" d="M137.0 162.0L137.0 151.0L485.0 151.0C486.10458 151.0 487.0 151.89543 487.0 153.0L487.0 160.0C487.0 161.10457 486.10458 162.0 485.0 162.0Z" fill-rule="nonzero"/><path stroke="#000000" stroke-width="2.0" stroke-linecap="butt" stroke-opacity="0.0" clip-path="url(#id_0)" d="M137.0 201.0L137.0 190.0L137.0 190.0L137.0 201.0Z" fill-rule="nonzero"/><path fill="#22ab82" clip-path="url(#id_0)" d="M137.0 201.0L137.0 190.0L137.0 190.0L137.0 201.0Z" fill-rule="nonzero"/><path stroke="#000000" stroke-width="2.0" stroke-linecap="butt" stroke-opacity="0.0" clip-path="url(#id_0)" d="M137.0 240.0L137.0 229.0L137.0 229.0L137.0 240.0Z" fill-rule="nonzero"/><path fill="#22ab82" clip-path="url(#id_0)" d="M137.0 240.0L137.0 229.0L137.0 229.0L137.0 240.0Z" fill-rule="nonzero"/><path stroke="#000000" stroke-width="2.0" stroke-linecap="butt" stroke-opacity="0.0" clip-path="url(#id_0)" d="M137.0 278.0L137.0 267.0L137.0 267.0L137.0 278.0Z" fill-rule="nonzero"/><path fill="#22ab82" clip-path="url(#id_0)" d="M137.0 278.0L137.0 267.0L137.0 267.0L137.0 278.0Z" fill-rule="nonzero"/><path stroke="#000000" stroke-width="2.0" stroke-linecap="butt" stroke-opacity="0.0" clip-path="url(#id_0)" d="M137.0 317.0L137.0 306.0L137.0 306.0L137.0 317.0Z" fill-rule="nonzero"/><path fill="#22ab82" clip-path="url(#id_0)" d="M137.0 317.0L137.0 306.0L137.0 306.0L137.0 317.0Z" fill-rule="nonzero"/><path fill="#757575" d="M120.86437 76.639114Q120.77062 76.451614 120.70812 75.96724Q119.95812 76.764114 118.91125 76.764114Q117.97375 76.764114 117.36437 76.232864Q116.77062 75.701614 116.77062 74.87349Q116.77062 73.889114 117.52062 73.34224Q118.27062 72.795364 119.64562 72.795364L120.6925 72.795364L120.6925 72.295364Q120.6925 71.732864 120.34875 71.40474Q120.02062 71.06099 119.34875 71.06099Q118.77062 71.06099 118.38 71.357864Q117.98937 71.639114 117.98937 72.06099L116.89562 72.06099Q116.89562 71.576614 117.22375 71.139114Q117.5675 70.701614 118.14562 70.451614Q118.72375 70.18599 119.41125 70.18599Q120.52062 70.18599 121.13 70.732864Q121.755 71.27974 121.78625 72.232864L121.78625 75.15474Q121.78625 76.02974 122.005 76.545364L122.005 76.639114L120.86437 76.639114ZM119.0675 75.81099Q119.58312 75.81099 120.03625 75.545364Q120.48937 75.27974 120.6925 74.857864L120.6925 73.56099L119.84875 73.56099Q117.84875 73.56099 117.84875 74.732864Q117.84875 75.232864 118.1925 75.52974Q118.53625 75.81099 119.0675 75.81099ZM124.48937 76.639114L124.48937 71.139114L123.48937 71.139114L123.48937 70.295364L124.48937 70.295364L124.48937 69.65474Q124.48937 68.62349 125.02062 68.076614Q125.5675 67.514114 126.5675 67.514114Q126.9425 67.514114 127.3175 67.607864L127.255 68.49849Q126.97375 68.43599 126.67687 68.43599Q126.14562 68.43599 125.84875 68.74849Q125.5675 69.06099 125.5675 69.62349L125.5675 70.295364L126.92687 70.295364L126.92687 71.139114L125.5675 71.139114L125.5675 76.639114L124.48937 76.639114ZM128.48938 76.639114L128.48938 71.139114L127.48937 71.139114L127.48937 70.295364L128.48938 70.295364L128.48938 69.65474Q128.48938 68.62349 129.02063 68.076614Q129.5675 67.514114 130.5675 67.514114Q130.9425 67.514114 131.3175 67.607864L131.255 68.49849Q130.97375 68.43599 130.67688 68.43599Q130.14563 68.43599 129.84875 68.74849Q129.5675 69.06099 129.5675 69.62349L129.5675 70.295364L130.92688 70.295364L130.92688 71.139114L129.5675 71.139114L129.5675 76.639114L128.48938 76.639114Z" fill-rule="nonzero"/><path fill="#757575" d="M84.13 107.98719L83.05187 107.98719L83.05187 101.64344L84.13 101.64344L84.13 107.98719ZM82.95812 99.971565Q82.95812 99.70594 83.11437 99.51844Q83.28625 99.33094 83.59875 99.33094Q83.91125 99.33094 84.0675 99.51844Q84.23937 99.70594 84.23937 99.971565Q84.23937 100.221565 84.0675 100.409065Q83.91125 100.58094 83.59875 100.58094Q83.28625 100.58094 83.11437 100.409065Q82.95812 100.221565 82.95812 99.971565ZM86.97375 101.64344L87.005 102.440315Q87.73937 101.534065 88.91125 101.534065Q90.92687 101.534065 90.9425 103.79969L90.9425 107.98719L89.84875 107.98719L89.84875 103.784065Q89.84875 103.11219 89.53625 102.784065Q89.23937 102.45594 88.58312 102.45594Q88.05187 102.45594 87.64562 102.73719Q87.255 103.01844 87.03625 103.471565L87.03625 107.98719L85.95812 107.98719L85.95812 101.64344L86.97375 101.64344ZM93.48937 107.98719L93.48937 102.48719L92.48937 102.48719L92.48937 101.64344L93.48937 101.64344L93.48937 101.002815Q93.48937 99.971565 94.02062 99.42469Q94.5675 98.86219 95.5675 98.86219Q95.9425 98.86219 96.3175 98.95594L96.255 99.846565Q95.97375 99.784065 95.67687 99.784065Q95.14562 99.784065 94.84875 100.096565Q94.5675 100.409065 94.5675 100.971565L94.5675 101.64344L95.92687 101.64344L95.92687 102.48719L94.5675 102.48719L94.5675 107.98719L93.48937 107.98719ZM99.58312 108.11219Q98.28625 108.11219 97.47375 107.26844Q96.67687 106.409065 96.67687 104.98719L96.67687 104.79969Q96.67687 103.846565 97.03625 103.11219Q97.39562 102.36219 98.03625 101.95594Q98.6925 101.534065 99.4425 101.534065Q100.67687 101.534065 101.36437 102.346565Q102.05187 103.159065 102.05187 104.67469L102.05187 105.127815L97.755 105.127815Q97.78625 106.065315 98.30187 106.64344Q98.83312 107.221565 99.64562 107.221565Q100.20812 107.221565 100.59875 106.98719Q101.005 106.752815 101.3175 106.36219L101.97375 106.877815Q101.17687 108.11219 99.58312 108.11219ZM99.4425 102.42469Q98.78625 102.42469 98.33312 102.909065Q97.89562 103.377815 97.80187 104.23719L100.97375 104.23719L100.97375 104.159065Q100.92687 103.33094 100.52062 102.877815Q100.13 102.42469 99.4425 102.42469ZM104.72375 105.04969L104.03625 105.752815L104.03625 107.98719L102.95812 107.98719L102.95812 98.98719L104.03625 98.98719L104.03625 104.42469L104.61437 103.73719L106.59875 101.64344L107.91125 101.64344L105.4425 104.29969L108.20812 107.98719L106.92687 107.98719L104.72375 105.04969ZM110.42687 100.11219L110.42687 101.64344L111.59875 101.64344L111.59875 102.48719L110.42687 102.48719L110.42687 106.409065Q110.42687 106.79969 110.58312 106.98719Q110.73937 107.17469 111.11437 107.17469Q111.30187 107.17469 111.63 107.11219L111.63 107.98719Q111.20812 108.11219 110.80187 108.11219Q110.08312 108.11219 109.70812 107.67469Q109.33312 107.221565 109.33312 106.409065L109.33312 102.48719L108.17687 102.48719L108.17687 101.64344L109.33312 101.64344L109.33312 100.11219L110.42687 100.11219ZM114.13 107.98719L113.05187 107.98719L113.05187 101.64344L114.13 101.64344L114.13 107.98719ZM112.95812 99.971565Q112.95812 99.70594 113.11437 99.51844Q113.28625 99.33094 113.59875 99.33094Q113.91125 99.33094 114.0675 99.51844Q114.23937 99.70594 114.23937 99.971565Q114.23937 100.221565 114.0675 100.409065Q113.91125 100.58094 113.59875 100.58094Q113.28625 100.58094 113.11437 100.409065Q112.95812 100.221565 112.95812 99.971565ZM115.66125 104.752815Q115.66125 103.83094 116.02062 103.08094Q116.39562 102.33094 117.05187 101.940315Q117.70812 101.534065 118.53625 101.534065Q119.83312 101.534065 120.63 102.42469Q121.4425 103.315315 121.4425 104.815315L121.4425 104.89344Q121.4425 105.815315 121.08312 106.54969Q120.72375 107.284065 120.0675 107.70594Q119.41125 108.11219 118.55187 108.11219Q117.27062 108.11219 116.45812 107.221565Q115.66125 106.315315 115.66125 104.83094L115.66125 104.752815ZM116.755 104.89344Q116.755 105.940315 117.23937 106.58094Q117.73937 107.221565 118.55187 107.221565Q119.38 107.221565 119.86437 106.58094Q120.34875 105.92469 120.34875 104.752815Q120.34875 103.721565 119.84875 103.08094Q119.36437 102.42469 118.53625 102.42469Q117.73937 102.42469 117.23937 103.065315Q116.755 103.690315 116.755 104.89344ZM123.97375 101.64344L124.005 102.440315Q124.73937 101.534065 125.91125 101.534065Q127.92687 101.534065 127.9425 103.79969L127.9425 107.98719L126.84875 107.98719L126.84875 103.784065Q126.84875 103.11219 126.53625 102.784065Q126.23937 102.45594 125.58312 102.45594Q125.05187 102.45594 124.64562 102.73719Q124.255 103.01844 124.03625 103.471565L124.03625 107.98719L122.95812 107.98719L122.95812 101.64344L123.97375 101.64344ZM129.91125 109.690315L129.30188 109.26844Q129.84875 108.502815 129.88 107.67469L129.88 106.70594L130.9425 106.70594L130.9425 107.54969Q130.9425 108.14344 130.64563 108.73719Q130.34875 109.33094 129.91125 109.690315Z" fill-rule="nonzero"/><path fill="#757575" d="M28.13 122.98719L27.051874 122.98719L27.051874 116.64344L28.13 116.64344L28.13 122.98719ZM26.958124 114.971565Q26.958124 114.70594 27.114374 114.51844Q27.28625 114.33094 27.59875 114.33094Q27.91125 114.33094 28.0675 114.51844Q28.239374 114.70594 28.239374 114.971565Q28.239374 115.221565 28.0675 115.409065Q27.91125 115.58094 27.59875 115.58094Q27.28625 115.58094 27.114374 115.409065Q26.958124 115.221565 26.958124 114.971565ZM30.97375 116.64344L31.005 117.440315Q31.739374 116.534065 32.911247 116.534065Q34.926872 116.534065 34.942497 118.79969L34.942497 122.98719L33.848747 122.98719L33.848747 118.784065Q33.848747 118.11219 33.536247 117.784065Q33.239372 117.45594 32.583122 117.45594Q32.051872 117.45594 31.645624 117.73719Q31.255 118.01844 31.03625 118.471565L31.03625 122.98719L29.958124 122.98719L29.958124 116.64344L30.97375 116.64344ZM37.489372 122.98719L37.489372 117.48719L36.489372 117.48719L36.489372 116.64344L37.489372 116.64344L37.489372 116.002815Q37.489372 114.971565 38.020622 114.42469Q38.567497 113.86219 39.567497 113.86219Q39.942497 113.86219 40.317497 113.95594L40.254997 114.846565Q39.973747 114.784065 39.676872 114.784065Q39.145622 114.784065 38.848747 115.096565Q38.567497 115.409065 38.567497 115.971565L38.567497 116.64344L39.926872 116.64344L39.926872 117.48719L38.567497 117.48719L38.567497 122.98719L37.489372 122.98719ZM43.583122 123.11219Q42.286247 123.11219 41.473747 122.26844Q40.676872 121.409065 40.676872 119.98719L40.676872 119.79969Q40.676872 118.846565 41.036247 118.11219Q41.395622 117.36219 42.036247 116.95594Q42.692497 116.534065 43.442497 116.534065Q44.676872 116.534065 45.364372 117.346565Q46.051872 118.159065 46.051872 119.67469L46.051872 120.127815L41.754997 120.127815Q41.786247 121.065315 42.301872 121.64344Q42.833122 122.221565 43.645622 122.221565Q44.208122 122.221565 44.598747 121.98719Q45.004997 121.752815 45.317497 121.36219L45.973747 121.877815Q45.176872 123.11219 43.583122 123.11219ZM43.442497 117.42469Q42.786247 117.42469 42.333122 117.909065Q41.895622 118.377815 41.801872 119.23719L44.973747 119.23719L44.973747 119.159065Q44.926872 118.33094 44.520622 117.877815Q44.129997 117.42469 43.442497 117.42469ZM48.723747 120.04969L48.036247 120.752815L48.036247 122.98719L46.958122 122.98719L46.958122 113.98719L48.036247 113.98719L48.036247 119.42469L48.614372 118.73719L50.598747 116.64344L51.911247 116.64344L49.442497 119.29969L52.208122 122.98719L50.926872 122.98719L48.723747 120.04969ZM54.426872 115.11219L54.426872 116.64344L55.598747 116.64344L55.598747 117.48719L54.426872 117.48719L54.426872 121.409065Q54.426872 121.79969 54.583122 121.98719Q54.739372 122.17469 55.114372 122.17469Q55.301872 122.17469 55.629997 122.11219L55.629997 122.98719Q55.208122 123.11219 54.801872 123.11219Q54.083122 123.11219 53.708122 122.67469Q53.333122 122.221565 53.333122 121.409065L53.333122 117.48719L52.176872 117.48719L52.176872 116.64344L53.333122 116.64344L53.333122 115.11219L54.426872 115.11219ZM58.129997 122.98719L57.051872 122.98719L57.051872 116.64344L58.129997 116.64344L58.129997 122.98719ZM56.958122 114.971565Q56.958122 114.70594 57.114372 114.51844Q57.286247 114.33094 57.598747 114.33094Q57.911247 114.33094 58.067497 114.51844Q58.239372 114.70594 58.239372 114.971565Q58.239372 115.221565 58.067497 115.409065Q57.911247 115.58094 57.598747 115.58094Q57.286247 115.58094 57.114372 115.409065Q56.958122 115.221565 56.958122 114.971565ZM59.661247 119.752815Q59.661247 118.83094 60.020622 118.08094Q60.395622 117.33094 61.051872 116.940315Q61.708122 116.534065 62.536247 116.534065Q63.833122 116.534065 64.63 117.42469Q65.4425 118.315315 65.4425 119.815315L65.4425 119.89344Q65.4425 120.815315 65.08312 121.54969Q64.72375 122.284065 64.0675 122.70594Q63.411247 123.11219 62.551872 123.11219Q61.270622 123.11219 60.458122 122.221565Q59.661247 121.315315 59.661247 119.83094L59.661247 119.752815ZM60.754997 119.89344Q60.754997 120.940315 61.239372 121.58094Q61.739372 122.221565 62.551872 122.221565Q63.379997 122.221565 63.864372 121.58094Q64.34875 120.92469 64.34875 119.752815Q64.34875 118.721565 63.848747 118.08094Q63.364372 117.42469 62.536247 117.42469Q61.739372 117.42469 61.239372 118.065315Q60.754997 118.690315 60.754997 119.89344ZM67.97375 116.64344L68.005 117.440315Q68.73937 116.534065 69.91125 116.534065Q71.92687 116.534065 71.9425 118.79969L71.9425 122.98719L70.84875 122.98719L70.84875 118.784065Q70.84875 118.11219 70.53625 117.784065Q70.23937 117.45594 69.58312 117.45594Q69.05187 117.45594 68.64562 117.73719Q68.255 118.01844 68.03625 118.471565L68.03625 122.98719L66.95812 122.98719L66.95812 116.64344L67.97375 116.64344ZM77.64562 121.29969Q77.64562 120.86219 77.30187 120.627815Q76.97375 120.377815 76.14562 120.20594Q75.33312 120.034065 74.84875 119.784065Q74.36437 119.534065 74.13 119.20594Q73.91125 118.86219 73.91125 118.39344Q73.91125 117.61219 74.5675 117.08094Q75.22375 116.534065 76.255 116.534065Q77.33312 116.534065 77.98937 117.096565Q78.66125 117.64344 78.66125 118.502815L77.58312 118.502815Q77.58312 118.065315 77.1925 117.752815Q76.8175 117.42469 76.255 117.42469Q75.66125 117.42469 75.3175 117.690315Q74.98937 117.940315 74.98937 118.346565Q74.98937 118.73719 75.30187 118.940315Q75.61437 119.14344 76.42687 119.33094Q77.23937 119.502815 77.73937 119.752815Q78.23937 120.002815 78.47375 120.36219Q78.72375 120.721565 78.72375 121.221565Q78.72375 122.08094 78.03625 122.596565Q77.36437 123.11219 76.28625 123.11219Q75.52062 123.11219 74.92687 122.846565Q74.34875 122.565315 74.02062 122.08094Q73.6925 121.596565 73.6925 121.034065L74.77062 121.034065Q74.80187 121.58094 75.20812 121.909065Q75.61437 122.221565 76.28625 122.221565Q76.89562 122.221565 77.27062 121.971565Q77.64562 121.721565 77.64562 121.29969ZM81.72375 120.04969L81.03625 120.752815L81.03625 122.98719L79.95812 122.98719L79.95812 113.98719L81.03625 113.98719L81.03625 119.42469L81.61437 118.73719L83.59875 116.64344L84.91125 116.64344L82.4425 119.29969L85.20812 122.98719L83.92687 122.98719L81.72375 120.04969ZM89.02062 117.61219Q88.77062 117.58094 88.48937 117.58094Q87.41125 117.58094 87.03625 118.48719L87.03625 122.98719L85.95812 122.98719L85.95812 116.64344L87.005 116.64344L87.02062 117.377815Q87.55187 116.534065 88.53625 116.534065Q88.84875 116.534065 89.02062 116.61219L89.02062 117.61219ZM93.86437 122.98719Q93.77062 122.79969 93.70812 122.315315Q92.95812 123.11219 91.91125 123.11219Q90.97375 123.11219 90.36437 122.58094Q89.77062 122.04969 89.77062 121.221565Q89.77062 120.23719 90.52062 119.690315Q91.27062 119.14344 92.64562 119.14344L93.6925 119.14344L93.6925 118.64344Q93.6925 118.08094 93.34875 117.752815Q93.02062 117.409065 92.34875 117.409065Q91.77062 117.409065 91.38 117.70594Q90.98937 117.98719 90.98937 118.409065L89.89562 118.409065Q89.89562 117.92469 90.22375 117.48719Q90.5675 117.04969 91.14562 116.79969Q91.72375 116.534065 92.41125 116.534065Q93.52062 116.534065 94.13 117.08094Q94.755 117.627815 94.78625 118.58094L94.78625 121.502815Q94.78625 122.377815 95.005 122.89344L95.005 122.98719L93.86437 122.98719ZM92.0675 122.159065Q92.58312 122.159065 93.03625 121.89344Q93.48937 121.627815 93.6925 121.20594L93.6925 119.909065L92.84875 119.909065Q90.84875 119.909065 90.84875 121.08094Q90.84875 121.58094 91.1925 121.877815Q91.53625 122.159065 92.0675 122.159065ZM97.97375 116.64344L98.005 117.440315Q98.73937 116.534065 99.91125 116.534065Q101.92687 116.534065 101.9425 118.79969L101.9425 122.98719L100.84875 122.98719L100.84875 118.784065Q100.84875 118.11219 100.53625 117.784065Q100.23937 117.45594 99.58312 117.45594Q99.05187 117.45594 98.64562 117.73719Q98.255 118.01844 98.03625 118.471565L98.03625 122.98719L96.95812 122.98719L96.95812 116.64344L97.97375 116.64344ZM105.72375 120.04969L105.03625 120.752815L105.03625 122.98719L103.95812 122.98719L103.95812 113.98719L105.03625 113.98719L105.03625 119.42469L105.61437 118.73719L107.59875 116.64344L108.91125 116.64344L106.4425 119.29969L109.20812 122.98719L107.92687 122.98719L105.72375 120.04969ZM111.03625 117.409065Q111.755 116.534065 112.91125 116.534065Q114.92687 116.534065 114.9425 118.79969L114.9425 122.98719L113.84875 122.98719L113.84875 118.784065Q113.84875 118.11219 113.53625 117.784065Q113.23937 117.45594 112.58312 117.45594Q112.05187 117.45594 111.64562 117.73719Q111.255 118.01844 111.03625 118.471565L111.03625 122.98719L109.95812 122.98719L109.95812 113.98719L111.03625 113.98719L111.03625 117.409065ZM119.58312 123.11219Q118.28625 123.11219 117.47375 122.26844Q116.67687 121.409065 116.67687 119.98719L116.67687 119.79969Q116.67687 118.846565 117.03625 118.11219Q117.39562 117.36219 118.03625 116.95594Q118.6925 116.534065 119.4425 116.534065Q120.67687 116.534065 121.36437 117.346565Q122.05187 118.159065 122.05187 119.67469L122.05187 120.127815L117.755 120.127815Q117.78625 121.065315 118.30187 121.64344Q118.83312 122.221565 119.64562 122.221565Q120.20812 122.221565 120.59875 121.98719Q121.005 121.752815 121.3175 121.36219L121.97375 121.877815Q121.17687 123.11219 119.58312 123.11219ZM119.4425 117.42469Q118.78625 117.42469 118.33312 117.909065Q117.89562 118.377815 117.80187 119.23719L120.97375 119.23719L120.97375 119.159065Q120.92687 118.33094 120.52062 117.877815Q120.13 117.42469 119.4425 117.42469ZM124.13 122.98719L123.05187 122.98719L123.05187 116.64344L124.13 116.64344L124.13 122.98719ZM122.95812 114.971565Q122.95812 114.70594 123.11437 114.51844Q123.28625 114.33094 123.59875 114.33094Q123.91125 114.33094 124.0675 114.51844Q124.23937 114.70594 124.23937 114.971565Q124.23937 115.221565 124.0675 115.409065Q123.91125 115.58094 123.59875 115.58094Q123.28625 115.58094 123.11437 115.409065Q122.95812 115.221565 122.95812 114.971565ZM127.42687 115.11219L127.42687 116.64344L128.59875 116.64344L128.59875 117.48719L127.42687 117.48719L127.42687 121.409065Q127.42687 121.79969 127.58312 121.98719Q127.73937 122.17469 128.11438 122.17469Q128.30188 122.17469 128.63 122.11219L128.63 122.98719Q128.20813 123.11219 127.80187 123.11219Q127.08312 123.11219 126.70812 122.67469Q126.33312 122.221565 126.33312 121.409065L126.33312 117.48719L125.17687 117.48719L125.17687 116.64344L126.33312 116.64344L126.33312 115.11219L127.42687 115.11219ZM129.91125 124.690315L129.30188 124.26844Q129.84875 123.502815 129.88 122.67469L129.88 121.70594L130.9425 121.70594L130.9425 122.54969Q130.9425 123.14344 130.64563 123.73719Q130.34875 124.33094 129.91125 124.690315Z" fill-rule="nonzero"/><path fill="#757575" d="M102.97375 147.99152L103.005 148.69464Q103.6925 147.88214 104.88 147.88214Q106.20812 147.88214 106.6925 148.89777Q107.005 148.44464 107.505 148.16339Q108.02062 147.88214 108.70812 147.88214Q110.80187 147.88214 110.83312 150.08527L110.83312 154.33527L109.755 154.33527L109.755 150.14777Q109.755 149.47589 109.4425 149.14777Q109.13 148.80402 108.39562 148.80402Q107.78625 148.80402 107.38 149.16339Q106.98937 149.52277 106.92687 150.13214L106.92687 154.33527L105.84875 154.33527L105.84875 150.17902Q105.84875 148.80402 104.48937 148.80402Q103.42687 148.80402 103.03625 149.71027L103.03625 154.33527L101.9425 154.33527L101.9425 147.99152L102.97375 147.99152ZM116.86437 153.71027Q116.23937 154.46027 115.005 154.46027Q113.98937 154.46027 113.45812 153.86652Q112.92687 153.27277 112.92687 152.11652L112.92687 147.99152L114.005 147.99152L114.005 152.08527Q114.005 153.53839 115.17687 153.53839Q116.42687 153.53839 116.83312 152.60089L116.83312 147.99152L117.92687 147.99152L117.92687 154.33527L116.89562 154.33527L116.86437 153.71027ZM122.48937 153.56964Q123.0675 153.56964 123.505 153.22589Q123.9425 152.86652 123.98937 152.33527L125.02062 152.33527Q124.98937 152.88214 124.63 153.38214Q124.28625 153.86652 123.70812 154.16339Q123.14562 154.46027 122.48937 154.46027Q121.1925 154.46027 120.42687 153.60089Q119.67687 152.72589 119.67687 151.22589L119.67687 151.03839Q119.67687 150.11652 120.005 149.39777Q120.34875 148.67902 120.97375 148.28839Q121.61437 147.88214 122.48937 147.88214Q123.55187 147.88214 124.255 148.52277Q124.97375 149.14777 125.02062 150.17902L123.98937 150.17902Q123.9425 149.55402 123.52062 149.16339Q123.09875 148.77277 122.48937 148.77277Q121.66125 148.77277 121.20812 149.36652Q120.755 149.96027 120.755 151.08527L120.755 151.28839Q120.755 152.38214 121.20812 152.97589Q121.66125 153.56964 122.48937 153.56964ZM127.72375 151.39777L127.03625 152.10089L127.03625 154.33527L125.95812 154.33527L125.95812 145.33527L127.03625 145.33527L127.03625 150.77277L127.61437 150.08527L129.59875 147.99152L130.91125 147.99152L128.4425 150.64777L131.20813 154.33527L129.92688 154.33527L127.72375 151.39777Z" fill-rule="nonzero"/><path fill="#757575" d="M92.86437 193.18333Q92.77062 192.99583 92.70812 192.51146Q91.95812 193.30833 90.91125 193.30833Q89.97375 193.30833 89.36437 192.77708Q88.77062 192.24583 88.77062 191.41771Q88.77062 190.43333 89.52062 189.88646Q90.27062 189.33958 91.64562 189.33958L92.6925 189.33958L92.6925 188.83958Q92.6925 188.27708 92.34875 187.94896Q92.02062 187.60521 91.34875 187.60521Q90.77062 187.60521 90.38 187.90208Q89.98937 188.18333 89.98937 188.60521L88.89562 188.60521Q88.89562 188.12083 89.22375 187.68333Q89.5675 187.24583 90.14562 186.99583Q90.72375 186.73021 91.41125 186.73021Q92.52062 186.73021 93.13 187.27708Q93.755 187.82396 93.78625 188.77708L93.78625 191.69896Q93.78625 192.57396 94.005 193.08958L94.005 193.18333L92.86437 193.18333ZM91.0675 192.35521Q91.58312 192.35521 92.03625 192.08958Q92.48937 191.82396 92.6925 191.40208L92.6925 190.10521L91.84875 190.10521Q89.84875 190.10521 89.84875 191.27708Q89.84875 191.77708 90.1925 192.07396Q90.53625 192.35521 91.0675 192.35521ZM99.02062 187.80833Q98.77062 187.77708 98.48937 187.77708Q97.41125 187.77708 97.03625 188.68333L97.03625 193.18333L95.95812 193.18333L95.95812 186.83958L97.005 186.83958L97.02062 187.57396Q97.55187 186.73021 98.53625 186.73021Q98.84875 186.73021 99.02062 186.80833L99.02062 187.80833ZM101.13 193.18333L100.05187 193.18333L100.05187 186.83958L101.13 186.83958L101.13 193.18333ZM99.95812 185.16771Q99.95812 184.90208 100.11437 184.71458Q100.28625 184.52708 100.59875 184.52708Q100.91125 184.52708 101.0675 184.71458Q101.23937 184.90208 101.23937 185.16771Q101.23937 185.41771 101.0675 185.60521Q100.91125 185.77708 100.59875 185.77708Q100.28625 185.77708 100.11437 185.60521Q99.95812 185.41771 99.95812 185.16771ZM102.91125 194.88646L102.30187 194.46458Q102.84875 193.69896 102.88 192.87083L102.88 191.90208L103.9425 191.90208L103.9425 192.74583Q103.9425 193.33958 103.64562 193.93333Q103.34875 194.52708 102.91125 194.88646ZM108.48937 193.18333L108.48937 187.68333L107.48937 187.68333L107.48937 186.83958L108.48937 186.83958L108.48937 186.19896Q108.48937 185.16771 109.02062 184.62083Q109.5675 184.05833 110.5675 184.05833Q110.9425 184.05833 111.3175 184.15208L111.255 185.04271Q110.97375 184.98021 110.67687 184.98021Q110.14562 184.98021 109.84875 185.29271Q109.5675 185.60521 109.5675 186.16771L109.5675 186.83958L110.92687 186.83958L110.92687 187.68333L109.5675 187.68333L109.5675 193.18333L108.48937 193.18333ZM113.13 193.18333L112.05187 193.18333L112.05187 186.83958L113.13 186.83958L113.13 193.18333ZM111.95812 185.16771Q111.95812 184.90208 112.11437 184.71458Q112.28625 184.52708 112.59875 184.52708Q112.91125 184.52708 113.0675 184.71458Q113.23937 184.90208 113.23937 185.16771Q113.23937 185.41771 113.0675 185.60521Q112.91125 185.77708 112.59875 185.77708Q112.28625 185.77708 112.11437 185.60521Q111.95812 185.41771 111.95812 185.16771ZM116.13 193.18333L115.05187 193.18333L115.05187 184.18333L116.13 184.18333L116.13 193.18333ZM121.86437 193.18333Q121.77062 192.99583 121.70812 192.51146Q120.95812 193.30833 119.91125 193.30833Q118.97375 193.30833 118.36437 192.77708Q117.77062 192.24583 117.77062 191.41771Q117.77062 190.43333 118.52062 189.88646Q119.27062 189.33958 120.64562 189.33958L121.6925 189.33958L121.6925 188.83958Q121.6925 188.27708 121.34875 187.94896Q121.02062 187.60521 120.34875 187.60521Q119.77062 187.60521 119.38 187.90208Q118.98937 188.18333 118.98937 188.60521L117.89562 188.60521Q117.89562 188.12083 118.22375 187.68333Q118.5675 187.24583 119.14562 186.99583Q119.72375 186.73021 120.41125 186.73021Q121.52062 186.73021 122.13 187.27708Q122.755 187.82396 122.78625 188.77708L122.78625 191.69896Q122.78625 192.57396 123.005 193.08958L123.005 193.18333L121.86437 193.18333ZM120.0675 192.35521Q120.58312 192.35521 121.03625 192.08958Q121.48937 191.82396 121.6925 191.40208L121.6925 190.10521L120.84875 190.10521Q118.84875 190.10521 118.84875 191.27708Q118.84875 191.77708 119.1925 192.07396Q119.53625 192.35521 120.0675 192.35521ZM128.02063 187.80833Q127.77062 187.77708 127.48937 187.77708Q126.41125 187.77708 126.03625 188.68333L126.03625 193.18333L124.95812 193.18333L124.95812 186.83958L126.005 186.83958L126.02062 187.57396Q126.55187 186.73021 127.53625 186.73021Q127.84875 186.73021 128.02063 186.80833L128.02063 187.80833ZM130.13 193.18333L129.05188 193.18333L129.05188 186.83958L130.13 186.83958L130.13 193.18333ZM128.95813 185.16771Q128.95813 184.90208 129.11438 184.71458Q129.28625 184.52708 129.59875 184.52708Q129.91125 184.52708 130.0675 184.71458Q130.23938 184.90208 130.23938 185.16771Q130.23938 185.41771 130.0675 185.60521Q129.91125 185.77708 129.59875 185.77708Q129.28625 185.77708 129.11438 185.60521Q128.95813 185.41771 128.95813 185.16771Z" fill-rule="nonzero"/><path fill="#757575" d="M39.864376 224.5314Q39.770626 224.3439 39.708126 223.85953Q38.958126 224.6564 37.91125 224.6564Q36.97375 224.6564 36.364376 224.12515Q35.770626 223.5939 35.770626 222.76578Q35.770626 221.7814 36.520626 221.23453Q37.270626 220.68765 38.645626 220.68765L39.6925 220.68765L39.6925 220.18765Q39.6925 219.62515 39.34875 219.29703Q39.020626 218.95328 38.34875 218.95328Q37.770626 218.95328 37.38 219.25015Q36.989376 219.5314 36.989376 219.95328L35.895626 219.95328Q35.895626 219.4689 36.22375 219.0314Q36.5675 218.5939 37.145626 218.3439Q37.72375 218.07828 38.41125 218.07828Q39.520626 218.07828 40.13 218.62515Q40.755 219.17203 40.78625 220.12515L40.78625 223.04703Q40.78625 223.92203 41.005 224.43765L41.005 224.5314L39.864376 224.5314ZM38.0675 223.70328Q38.583126 223.70328 39.03625 223.43765Q39.489376 223.17203 39.6925 222.75015L39.6925 221.45328L38.84875 221.45328Q36.84875 221.45328 36.84875 222.62515Q36.84875 223.12515 37.1925 223.42203Q37.53625 223.70328 38.0675 223.70328ZM46.020626 219.1564Q45.770626 219.12515 45.489376 219.12515Q44.41125 219.12515 44.03625 220.0314L44.03625 224.5314L42.958126 224.5314L42.958126 218.18765L44.005 218.18765L44.020626 218.92203Q44.551876 218.07828 45.53625 218.07828Q45.84875 218.07828 46.020626 218.1564L46.020626 219.1564ZM48.13 224.5314L47.051876 224.5314L47.051876 218.18765L48.13 218.18765L48.13 224.5314ZM46.958126 216.51578Q46.958126 216.25015 47.114376 216.06265Q47.28625 215.87515 47.59875 215.87515Q47.91125 215.87515 48.0675 216.06265Q48.239376 216.25015 48.239376 216.51578Q48.239376 216.76578 48.0675 216.95328Q47.91125 217.12515 47.59875 217.12515Q47.28625 217.12515 47.114376 216.95328Q46.958126 216.76578 46.958126 216.51578ZM49.91125 226.23453L49.301876 225.81265Q49.84875 225.04703 49.88 224.2189L49.88 223.25015L50.9425 223.25015L50.9425 224.0939Q50.9425 224.68765 50.645626 225.2814Q50.34875 225.87515 49.91125 226.23453ZM55.489376 224.5314L55.489376 219.0314L54.489376 219.0314L54.489376 218.18765L55.489376 218.18765L55.489376 217.54703Q55.489376 216.51578 56.020626 215.9689Q56.5675 215.4064 57.5675 215.4064Q57.9425 215.4064 58.3175 215.50015L58.255 216.39078Q57.97375 216.32828 57.676876 216.32828Q57.145626 216.32828 56.84875 216.64078Q56.5675 216.95328 56.5675 217.51578L56.5675 218.18765L57.926876 218.18765L57.926876 219.0314L56.5675 219.0314L56.5675 224.5314L55.489376 224.5314ZM60.13 224.5314L59.051876 224.5314L59.051876 218.18765L60.13 218.18765L60.13 224.5314ZM58.958126 216.51578Q58.958126 216.25015 59.114376 216.06265Q59.28625 215.87515 59.59875 215.87515Q59.91125 215.87515 60.0675 216.06265Q60.239376 216.25015 60.239376 216.51578Q60.239376 216.76578 60.0675 216.95328Q59.91125 217.12515 59.59875 217.12515Q59.28625 217.12515 59.114376 216.95328Q58.958126 216.76578 58.958126 216.51578ZM63.13 224.5314L62.051876 224.5314L62.051876 215.5314L63.13 215.5314L63.13 224.5314ZM68.86438 224.5314Q68.77063 224.3439 68.70813 223.85953Q67.95813 224.6564 66.911255 224.6564Q65.973755 224.6564 65.36438 224.12515Q64.77063 223.5939 64.77063 222.76578Q64.77063 221.7814 65.52063 221.23453Q66.27063 220.68765 67.64563 220.68765L68.692505 220.68765L68.692505 220.18765Q68.692505 219.62515 68.348755 219.29703Q68.02063 218.95328 67.348755 218.95328Q66.77063 218.95328 66.380005 219.25015Q65.98938 219.5314 65.98938 219.95328L64.89563 219.95328Q64.89563 219.4689 65.223755 219.0314Q65.567505 218.5939 66.14563 218.3439Q66.723755 218.07828 67.411255 218.07828Q68.52063 218.07828 69.130005 218.62515Q69.755005 219.17203 69.786255 220.12515L69.786255 223.04703Q69.786255 223.92203 70.005005 224.43765L70.005005 224.5314L68.86438 224.5314ZM67.067505 223.70328Q67.58313 223.70328 68.036255 223.43765Q68.48938 223.17203 68.692505 222.75015L68.692505 221.45328L67.848755 221.45328Q65.848755 221.45328 65.848755 222.62515Q65.848755 223.12515 66.192505 223.42203Q66.536255 223.70328 67.067505 223.70328ZM75.02063 219.1564Q74.77063 219.12515 74.48938 219.12515Q73.411255 219.12515 73.036255 220.0314L73.036255 224.5314L71.95813 224.5314L71.95813 218.18765L73.005005 218.18765L73.02063 218.92203Q73.55188 218.07828 74.536255 218.07828Q74.848755 218.07828 75.02063 218.1564L75.02063 219.1564ZM77.130005 224.5314L76.05188 224.5314L76.05188 218.18765L77.130005 218.18765L77.130005 224.5314ZM75.95813 216.51578Q75.95813 216.25015 76.11438 216.06265Q76.286255 215.87515 76.598755 215.87515Q76.911255 215.87515 77.067505 216.06265Q77.23938 216.25015 77.23938 216.51578Q77.23938 216.76578 77.067505 216.95328Q76.911255 217.12515 76.598755 217.12515Q76.286255 217.12515 76.11438 216.95328Q75.95813 216.76578 75.95813 216.51578ZM81.58313 224.6564Q80.286255 224.6564 79.473755 223.81265Q78.67688 222.95328 78.67688 221.5314L78.67688 221.3439Q78.67688 220.39078 79.036255 219.6564Q79.39563 218.9064 80.036255 218.50015Q80.692505 218.07828 81.442505 218.07828Q82.67688 218.07828 83.36438 218.89078Q84.05188 219.70328 84.05188 221.2189L84.05188 221.67203L79.755005 221.67203Q79.786255 222.60953 80.30188 223.18765Q80.83313 223.76578 81.64563 223.76578Q82.20813 223.76578 82.598755 223.5314Q83.005005 223.29703 83.317505 222.9064L83.973755 223.42203Q83.17688 224.6564 81.58313 224.6564ZM81.442505 218.9689Q80.786255 218.9689 80.33313 219.45328Q79.89563 219.92203 79.80188 220.7814L82.973755 220.7814L82.973755 220.70328Q82.92688 219.87515 82.52063 219.42203Q82.130005 218.9689 81.442505 218.9689ZM85.973755 218.18765L86.005005 218.98453Q86.73938 218.07828 87.911255 218.07828Q89.92688 218.07828 89.942505 220.3439L89.942505 224.5314L88.848755 224.5314L88.848755 220.32828Q88.848755 219.6564 88.536255 219.32828Q88.23938 219.00015 87.58313 219.00015Q87.05188 219.00015 86.64563 219.2814Q86.255005 219.56265 86.036255 220.01578L86.036255 224.5314L84.95813 224.5314L84.95813 218.18765L85.973755 218.18765ZM97.30188 221.43765Q97.30188 222.87515 96.64563 223.76578Q95.98938 224.6564 94.848755 224.6564Q93.692505 224.6564 93.036255 223.92203L93.036255 226.9689L91.95813 226.9689L91.95813 218.18765L92.942505 218.18765L92.98938 218.89078Q93.661255 218.07828 94.83313 218.07828Q95.973755 218.07828 96.630005 218.93765Q97.30188 219.79703 97.30188 221.32828L97.30188 221.43765ZM96.223755 221.31265Q96.223755 220.23453 95.755005 219.62515Q95.30188 219.00015 94.505005 219.00015Q93.52063 219.00015 93.036255 219.85953L93.036255 222.89078Q93.52063 223.76578 94.52063 223.76578Q95.30188 223.76578 95.755005 223.1564Q96.223755 222.5314 96.223755 221.31265ZM102.86438 224.5314Q102.77063 224.3439 102.70813 223.85953Q101.95813 224.6564 100.911255 224.6564Q99.973755 224.6564 99.36438 224.12515Q98.77063 223.5939 98.77063 222.76578Q98.77063 221.7814 99.52063 221.23453Q100.27063 220.68765 101.64563 220.68765L102.692505 220.68765L102.692505 220.18765Q102.692505 219.62515 102.348755 219.29703Q102.02063 218.95328 101.348755 218.95328Q100.77063 218.95328 100.380005 219.25015Q99.98938 219.5314 99.98938 219.95328L98.89563 219.95328Q98.89563 219.4689 99.223755 219.0314Q99.567505 218.5939 100.14563 218.3439Q100.723755 218.07828 101.411255 218.07828Q102.52063 218.07828 103.130005 218.62515Q103.755005 219.17203 103.786255 220.12515L103.786255 223.04703Q103.786255 223.92203 104.005005 224.43765L104.005005 224.5314L102.86438 224.5314ZM101.067505 223.70328Q101.58313 223.70328 102.036255 223.43765Q102.48938 223.17203 102.692505 222.75015L102.692505 221.45328L101.848755 221.45328Q99.848755 221.45328 99.848755 222.62515Q99.848755 223.12515 100.192505 223.42203Q100.536255 223.70328 101.067505 223.70328ZM109.02063 219.1564Q108.77063 219.12515 108.48938 219.12515Q107.411255 219.12515 107.036255 220.0314L107.036255 224.5314L105.95813 224.5314L105.95813 218.18765L107.005005 218.18765L107.02063 218.92203Q107.55188 218.07828 108.536255 218.07828Q108.848755 218.07828 109.02063 218.1564L109.02063 219.1564ZM113.86438 224.5314Q113.77063 224.3439 113.70813 223.85953Q112.95813 224.6564 111.911255 224.6564Q110.973755 224.6564 110.36438 224.12515Q109.77063 223.5939 109.77063 222.76578Q109.77063 221.7814 110.52063 221.23453Q111.27063 220.68765 112.64563 220.68765L113.692505 220.68765L113.692505 220.18765Q113.692505 219.62515 113.348755 219.29703Q113.02063 218.95328 112.348755 218.95328Q111.77063 218.95328 111.380005 219.25015Q110.98938 219.5314 110.98938 219.95328L109.89563 219.95328Q109.89563 219.4689 110.223755 219.0314Q110.567505 218.5939 111.14563 218.3439Q111.723755 218.07828 112.411255 218.07828Q113.52063 218.07828 114.130005 218.62515Q114.755005 219.17203 114.786255 220.12515L114.786255 223.04703Q114.786255 223.92203 115.005005 224.43765L115.005005 224.5314L113.86438 224.5314ZM112.067505 223.70328Q112.58313 223.70328 113.036255 223.43765Q113.48938 223.17203 113.692505 222.75015L113.692505 221.45328L112.848755 221.45328Q110.848755 221.45328 110.848755 222.62515Q110.848755 223.12515 111.192505 223.42203Q111.536255 223.70328 112.067505 223.70328ZM120.64563 222.8439Q120.64563 222.4064 120.30188 222.17203Q119.973755 221.92203 119.14563 221.75015Q118.33313 221.57828 117.848755 221.32828Q117.36438 221.07828 117.130005 220.75015Q116.911255 220.4064 116.911255 219.93765Q116.911255 219.1564 117.567505 218.62515Q118.223755 218.07828 119.255005 218.07828Q120.33313 218.07828 120.98938 218.64078Q121.661255 219.18765 121.661255 220.04703L120.58313 220.04703Q120.58313 219.60953 120.192505 219.29703Q119.817505 218.9689 119.255005 218.9689Q118.661255 218.9689 118.317505 219.23453Q117.98938 219.48453 117.98938 219.89078Q117.98938 220.2814 118.30188 220.48453Q118.61438 220.68765 119.42688 220.87515Q120.23938 221.04703 120.73938 221.29703Q121.23938 221.54703 121.473755 221.9064Q121.723755 222.26578 121.723755 222.76578Q121.723755 223.62515 121.036255 224.14078Q120.36438 224.6564 119.286255 224.6564Q118.52063 224.6564 117.92688 224.39078Q117.348755 224.10953 117.02063 223.62515Q116.692505 223.14078 116.692505 222.57828L117.77063 222.57828Q117.80188 223.12515 118.20813 223.45328Q118.61438 223.76578 119.286255 223.76578Q119.89563 223.76578 120.27063 223.51578Q120.64563 223.26578 120.64563 222.8439ZM124.130005 224.5314L123.05188 224.5314L123.05188 218.18765L124.130005 218.18765L124.130005 224.5314ZM122.95813 216.51578Q122.95813 216.25015 123.11438 216.06265Q123.286255 215.87515 123.598755 215.87515Q123.911255 215.87515 124.067505 216.06265Q124.23938 216.25015 124.23938 216.51578Q124.23938 216.76578 124.067505 216.95328Q123.911255 217.12515 123.598755 217.12515Q123.286255 217.12515 123.11438 216.95328Q122.95813 216.76578 122.95813 216.51578ZM127.42688 216.6564L127.42688 218.18765L128.59875 218.18765L128.59875 219.0314L127.42688 219.0314L127.42688 222.95328Q127.42688 223.3439 127.58313 223.5314Q127.73938 223.7189 128.11438 223.7189Q128.30188 223.7189 128.63 223.6564L128.63 224.5314Q128.20813 224.6564 127.80188 224.6564Q127.08313 224.6564 126.70813 224.2189Q126.33313 223.76578 126.33313 222.95328L126.33313 219.0314L125.17688 219.0314L125.17688 218.18765L126.33313 218.18765L126.33313 216.6564L127.42688 216.6564ZM129.91125 226.23453L129.30188 225.81265Q129.84875 225.04703 129.88 224.2189L129.88 223.25015L130.9425 223.25015L130.9425 224.0939Q130.9425 224.68765 130.64563 225.2814Q130.34875 225.87515 129.91125 226.23453Z" fill-rule="nonzero"/><path fill="#757575" d="M99.30187 236.43765Q99.30187 237.87515 98.64562 238.76578Q97.98937 239.6564 96.84875 239.6564Q95.6925 239.6564 95.03625 238.92203L95.03625 241.9689L93.95812 241.9689L93.95812 233.18765L94.9425 233.18765L94.98937 233.89078Q95.66125 233.07828 96.83312 233.07828Q97.97375 233.07828 98.63 233.93765Q99.30187 234.79703 99.30187 236.32828L99.30187 236.43765ZM98.22375 236.31265Q98.22375 235.23453 97.755 234.62515Q97.30187 234.00015 96.505 234.00015Q95.52062 234.00015 95.03625 234.85953L95.03625 237.89078Q95.52062 238.76578 96.52062 238.76578Q97.30187 238.76578 97.755 238.1564Q98.22375 237.5314 98.22375 236.31265ZM104.86437 239.5314Q104.77062 239.3439 104.70812 238.85953Q103.95812 239.6564 102.91125 239.6564Q101.97375 239.6564 101.36437 239.12515Q100.77062 238.5939 100.77062 237.76578Q100.77062 236.7814 101.52062 236.23453Q102.27062 235.68765 103.64562 235.68765L104.6925 235.68765L104.6925 235.18765Q104.6925 234.62515 104.34875 234.29703Q104.02062 233.95328 103.34875 233.95328Q102.77062 233.95328 102.38 234.25015Q101.98937 234.5314 101.98937 234.95328L100.89562 234.95328Q100.89562 234.4689 101.22375 234.0314Q101.5675 233.5939 102.14562 233.3439Q102.72375 233.07828 103.41125 233.07828Q104.52062 233.07828 105.13 233.62515Q105.755 234.17203 105.78625 235.12515L105.78625 238.04703Q105.78625 238.92203 106.005 239.43765L106.005 239.5314L104.86437 239.5314ZM103.0675 238.70328Q103.58312 238.70328 104.03625 238.43765Q104.48937 238.17203 104.6925 237.75015L104.6925 236.45328L103.84875 236.45328Q101.84875 236.45328 101.84875 237.62515Q101.84875 238.12515 102.1925 238.42203Q102.53625 238.70328 103.0675 238.70328ZM111.02062 234.1564Q110.77062 234.12515 110.48937 234.12515Q109.41125 234.12515 109.03625 235.0314L109.03625 239.5314L107.95812 239.5314L107.95812 233.18765L109.005 233.18765L109.02062 233.92203Q109.55187 233.07828 110.53625 233.07828Q110.84875 233.07828 111.02062 233.1564L111.02062 234.1564ZM115.86437 239.5314Q115.77062 239.3439 115.70812 238.85953Q114.95812 239.6564 113.91125 239.6564Q112.97375 239.6564 112.36437 239.12515Q111.77062 238.5939 111.77062 237.76578Q111.77062 236.7814 112.52062 236.23453Q113.27062 235.68765 114.64562 235.68765L115.6925 235.68765L115.6925 235.18765Q115.6925 234.62515 115.34875 234.29703Q115.02062 233.95328 114.34875 233.95328Q113.77062 233.95328 113.38 234.25015Q112.98937 234.5314 112.98937 234.95328L111.89562 234.95328Q111.89562 234.4689 112.22375 234.0314Q112.5675 233.5939 113.14562 233.3439Q113.72375 233.07828 114.41125 233.07828Q115.52062 233.07828 116.13 233.62515Q116.755 234.17203 116.78625 235.12515L116.78625 238.04703Q116.78625 238.92203 117.005 239.43765L117.005 239.5314L115.86437 239.5314ZM114.0675 238.70328Q114.58312 238.70328 115.03625 238.43765Q115.48937 238.17203 115.6925 237.75015L115.6925 236.45328L114.84875 236.45328Q112.84875 236.45328 112.84875 237.62515Q112.84875 238.12515 113.1925 238.42203Q113.53625 238.70328 114.0675 238.70328ZM122.64562 237.8439Q122.64562 237.4064 122.30187 237.17203Q121.97375 236.92203 121.14562 236.75015Q120.33312 236.57828 119.84875 236.32828Q119.36437 236.07828 119.13 235.75015Q118.91125 235.4064 118.91125 234.93765Q118.91125 234.1564 119.5675 233.62515Q120.22375 233.07828 121.255 233.07828Q122.33312 233.07828 122.98937 233.64078Q123.66125 234.18765 123.66125 235.04703L122.58312 235.04703Q122.58312 234.60953 122.1925 234.29703Q121.8175 233.9689 121.255 233.9689Q120.66125 233.9689 120.3175 234.23453Q119.98937 234.48453 119.98937 234.89078Q119.98937 235.2814 120.30187 235.48453Q120.61437 235.68765 121.42687 235.87515Q122.23937 236.04703 122.73937 236.29703Q123.23937 236.54703 123.47375 236.9064Q123.72375 237.26578 123.72375 237.76578Q123.72375 238.62515 123.03625 239.14078Q122.36437 239.6564 121.28625 239.6564Q120.52062 239.6564 119.92687 239.39078Q119.34875 239.10953 119.02062 238.62515Q118.6925 238.14078 118.6925 237.57828L119.77062 237.57828Q119.80187 238.12515 120.20812 238.45328Q120.61437 238.76578 121.28625 238.76578Q121.89562 238.76578 122.27062 238.51578Q122.64562 238.26578 122.64562 237.8439ZM126.13 239.5314L125.05187 239.5314L125.05187 233.18765L126.13 233.18765L126.13 239.5314ZM124.95812 231.51578Q124.95812 231.25015 125.11437 231.06265Q125.28625 230.87515 125.59875 230.87515Q125.91125 230.87515 126.0675 231.06265Q126.23937 231.25015 126.23937 231.51578Q126.23937 231.76578 126.0675 231.95328Q125.91125 232.12515 125.59875 232.12515Q125.28625 232.12515 125.11437 231.95328Q124.95812 231.76578 124.95812 231.51578ZM129.42688 231.6564L129.42688 233.18765L130.59875 233.18765L130.59875 234.0314L129.42688 234.0314L129.42688 237.95328Q129.42688 238.3439 129.58313 238.5314Q129.73938 238.7189 130.11438 238.7189Q130.30188 238.7189 130.63 238.6564L130.63 239.5314Q130.20813 239.6564 129.80188 239.6564Q129.08313 239.6564 128.70813 239.2189Q128.33313 238.76578 128.33313 237.95328L128.33313 234.0314L127.17687 234.0314L127.17687 233.18765L128.33313 233.18765L128.33313 231.6564L129.42688 231.6564Z" fill-rule="nonzero"/><path fill="#757575" d="M70.58312 263.5045Q69.28625 263.5045 68.47375 262.66074Q67.67687 261.80136 67.67687 260.3795L67.67687 260.192Q67.67687 259.23886 68.03625 258.5045Q68.39562 257.7545 69.03625 257.34824Q69.6925 256.92636 70.4425 256.92636Q71.67687 256.92636 72.36437 257.73886Q73.05187 258.55136 73.05187 260.067L73.05187 260.5201L68.755 260.5201Q68.78625 261.4576 69.30187 262.03574Q69.83312 262.61386 70.64562 262.61386Q71.20812 262.61386 71.59875 262.3795Q72.005 262.1451 72.3175 261.7545L72.97375 262.2701Q72.17687 263.5045 70.58312 263.5045ZM70.4425 257.817Q69.78625 257.817 69.33312 258.30136Q68.89562 258.7701 68.80187 259.6295L71.97375 259.6295L71.97375 259.55136Q71.92687 258.72324 71.52062 258.2701Q71.13 257.817 70.4425 257.817ZM77.02062 258.0045Q76.77062 257.97324 76.48937 257.97324Q75.41125 257.97324 75.03625 258.8795L75.03625 263.3795L73.95812 263.3795L73.95812 257.03574L75.005 257.03574L75.02062 257.7701Q75.55187 256.92636 76.53625 256.92636Q76.84875 256.92636 77.02062 257.0045L77.02062 258.0045ZM79.42687 255.50449L79.42687 257.03574L80.59875 257.03574L80.59875 257.8795L79.42687 257.8795L79.42687 261.80136Q79.42687 262.192 79.58312 262.3795Q79.73937 262.567 80.11437 262.567Q80.30187 262.567 80.63 262.5045L80.63 263.3795Q80.20812 263.5045 79.80187 263.5045Q79.08312 263.5045 78.70812 263.067Q78.33312 262.61386 78.33312 261.80136L78.33312 257.8795L77.17687 257.8795L77.17687 257.03574L78.33312 257.03574L78.33312 255.50449L79.42687 255.50449ZM85.02062 258.0045Q84.77062 257.97324 84.48937 257.97324Q83.41125 257.97324 83.03625 258.8795L83.03625 263.3795L81.95812 263.3795L81.95812 257.03574L83.005 257.03574L83.02062 257.7701Q83.55187 256.92636 84.53625 256.92636Q84.84875 256.92636 85.02062 257.0045L85.02062 258.0045ZM89.86437 263.3795Q89.77062 263.192 89.70812 262.7076Q88.95812 263.5045 87.91125 263.5045Q86.97375 263.5045 86.36437 262.97324Q85.77062 262.442 85.77062 261.61386Q85.77062 260.6295 86.52062 260.0826Q87.27062 259.53574 88.64562 259.53574L89.6925 259.53574L89.6925 259.03574Q89.6925 258.47324 89.34875 258.1451Q89.02062 257.80136 88.34875 257.80136Q87.77062 257.80136 87.38 258.09824Q86.98937 258.3795 86.98937 258.80136L85.89562 258.80136Q85.89562 258.317 86.22375 257.8795Q86.5675 257.442 87.14562 257.192Q87.72375 256.92636 88.41125 256.92636Q89.52062 256.92636 90.13 257.47324Q90.755 258.0201 90.78625 258.97324L90.78625 261.8951Q90.78625 262.7701 91.005 263.28574L91.005 263.3795L89.86437 263.3795ZM88.0675 262.55136Q88.58312 262.55136 89.03625 262.28574Q89.48937 262.0201 89.6925 261.59824L89.6925 260.30136L88.84875 260.30136Q86.84875 260.30136 86.84875 261.47324Q86.84875 261.97324 87.1925 262.2701Q87.53625 262.55136 88.0675 262.55136ZM92.6925 260.16074Q92.6925 258.67636 93.38 257.80136Q94.0675 256.92636 95.1925 256.92636Q96.34875 256.92636 97.005 257.73886L97.05187 257.03574L98.05187 257.03574L98.05187 263.22324Q98.05187 264.4576 97.3175 265.16074Q96.58312 265.8795 95.36437 265.8795Q94.67687 265.8795 94.02062 265.5826Q93.36437 265.28574 93.02062 264.78574L93.58312 264.1295Q94.27062 264.98886 95.28625 264.98886Q96.0675 264.98886 96.505 264.53574Q96.95812 264.09824 96.95812 263.28574L96.95812 262.73886Q96.30187 263.5045 95.17687 263.5045Q94.0675 263.5045 93.38 262.61386Q92.6925 261.7076 92.6925 260.16074ZM93.78625 260.28574Q93.78625 261.34824 94.22375 261.97324Q94.66125 262.5826 95.45812 262.5826Q96.47375 262.5826 96.95812 261.6451L96.95812 258.7545Q96.45812 257.84824 95.45812 257.84824Q94.67687 257.84824 94.22375 258.4576Q93.78625 259.067 93.78625 260.28574ZM102.91125 265.0826L102.30187 264.66074Q102.84875 263.8951 102.88 263.067L102.88 262.09824L103.9425 262.09824L103.9425 262.942Q103.9425 263.53574 103.64562 264.1295Q103.34875 264.72324 102.91125 265.0826ZM109.42687 255.50449L109.42687 257.03574L110.59875 257.03574L110.59875 257.8795L109.42687 257.8795L109.42687 261.80136Q109.42687 262.192 109.58312 262.3795Q109.73937 262.567 110.11437 262.567Q110.30187 262.567 110.63 262.5045L110.63 263.3795Q110.20812 263.5045 109.80187 263.5045Q109.08312 263.5045 108.70812 263.067Q108.33312 262.61386 108.33312 261.80136L108.33312 257.8795L107.17687 257.8795L107.17687 257.03574L108.33312 257.03574L108.33312 255.50449L109.42687 255.50449ZM115.02062 258.0045Q114.77062 257.97324 114.48937 257.97324Q113.41125 257.97324 113.03625 258.8795L113.03625 263.3795L111.95812 263.3795L111.95812 257.03574L113.005 257.03574L113.02062 257.7701Q113.55187 256.92636 114.53625 256.92636Q114.84875 256.92636 115.02062 257.0045L115.02062 258.0045ZM119.86437 263.3795Q119.77062 263.192 119.70812 262.7076Q118.95812 263.5045 117.91125 263.5045Q116.97375 263.5045 116.36437 262.97324Q115.77062 262.442 115.77062 261.61386Q115.77062 260.6295 116.52062 260.0826Q117.27062 259.53574 118.64562 259.53574L119.6925 259.53574L119.6925 259.03574Q119.6925 258.47324 119.34875 258.1451Q119.02062 257.80136 118.34875 257.80136Q117.77062 257.80136 117.38 258.09824Q116.98937 258.3795 116.98937 258.80136L115.89562 258.80136Q115.89562 258.317 116.22375 257.8795Q116.5675 257.442 117.14562 257.192Q117.72375 256.92636 118.41125 256.92636Q119.52062 256.92636 120.13 257.47324Q120.755 258.0201 120.78625 258.97324L120.78625 261.8951Q120.78625 262.7701 121.005 263.28574L121.005 263.3795L119.86437 263.3795ZM118.0675 262.55136Q118.58312 262.55136 119.03625 262.28574Q119.48937 262.0201 119.6925 261.59824L119.6925 260.30136L118.84875 260.30136Q116.84875 260.30136 116.84875 261.47324Q116.84875 261.97324 117.1925 262.2701Q117.53625 262.55136 118.0675 262.55136ZM122.6925 260.16074Q122.6925 258.67636 123.38 257.80136Q124.0675 256.92636 125.1925 256.92636Q126.34875 256.92636 127.005 257.73886L127.05187 257.03574L128.05188 257.03574L128.05188 263.22324Q128.05188 264.4576 127.3175 265.16074Q126.58312 265.8795 125.36437 265.8795Q124.67687 265.8795 124.02062 265.5826Q123.36437 265.28574 123.02062 264.78574L123.58312 264.1295Q124.27062 264.98886 125.28625 264.98886Q126.0675 264.98886 126.505 264.53574Q126.95812 264.09824 126.95812 263.28574L126.95812 262.73886Q126.30187 263.5045 125.17687 263.5045Q124.0675 263.5045 123.38 262.61386Q122.6925 261.7076 122.6925 260.16074ZM123.78625 260.28574Q123.78625 261.34824 124.22375 261.97324Q124.66125 262.5826 125.45812 262.5826Q126.47375 262.5826 126.95812 261.6451L126.95812 258.7545Q126.45812 257.84824 125.45812 257.84824Q124.67687 257.84824 124.22375 258.4576Q123.78625 259.067 123.78625 260.28574ZM129.91125 265.0826L129.30188 264.66074Q129.84875 263.8951 129.88 263.067L129.88 262.09824L130.9425 262.09824L130.9425 262.942Q130.9425 263.53574 130.64563 264.1295Q130.34875 264.72324 129.91125 265.0826Z" fill-rule="nonzero"/><path fill="#757575" d="M87.86437 277.7545Q87.23937 278.5045 86.005 278.5045Q84.98937 278.5045 84.45812 277.91074Q83.92687 277.317 83.92687 276.16074L83.92687 272.03574L85.005 272.03574L85.005 276.1295Q85.005 277.5826 86.17687 277.5826Q87.42687 277.5826 87.83312 276.6451L87.83312 272.03574L88.92687 272.03574L88.92687 278.3795L87.89562 278.3795L87.86437 277.7545ZM96.3175 275.28574Q96.3175 276.73886 95.64562 277.6295Q94.98937 278.5045 93.86437 278.5045Q92.66125 278.5045 92.005 277.6451L91.9425 278.3795L90.95812 278.3795L90.95812 269.3795L92.03625 269.3795L92.03625 272.73886Q92.6925 271.92636 93.84875 271.92636Q95.005 271.92636 95.66125 272.80136Q96.3175 273.66074 96.3175 275.192L96.3175 275.28574ZM95.23937 275.16074Q95.23937 274.05136 94.80187 273.4576Q94.38 272.84824 93.58312 272.84824Q92.505 272.84824 92.03625 273.8326L92.03625 276.5826Q92.53625 277.5826 93.58312 277.5826Q94.36437 277.5826 94.80187 276.97324Q95.23937 276.36386 95.23937 275.16074ZM100.58312 278.5045Q99.28625 278.5045 98.47375 277.66074Q97.67687 276.80136 97.67687 275.3795L97.67687 275.192Q97.67687 274.23886 98.03625 273.5045Q98.39562 272.7545 99.03625 272.34824Q99.6925 271.92636 100.4425 271.92636Q101.67687 271.92636 102.36437 272.73886Q103.05187 273.55136 103.05187 275.067L103.05187 275.5201L98.755 275.5201Q98.78625 276.4576 99.30187 277.03574Q99.83312 277.61386 100.64562 277.61386Q101.20812 277.61386 101.59875 277.3795Q102.005 277.1451 102.3175 276.7545L102.97375 277.2701Q102.17687 278.5045 100.58312 278.5045ZM100.4425 272.817Q99.78625 272.817 99.33312 273.30136Q98.89562 273.7701 98.80187 274.6295L101.97375 274.6295L101.97375 274.55136Q101.92687 273.72324 101.52062 273.2701Q101.13 272.817 100.4425 272.817ZM107.02062 273.0045Q106.77062 272.97324 106.48937 272.97324Q105.41125 272.97324 105.03625 273.8795L105.03625 278.3795L103.95812 278.3795L103.95812 272.03574L105.005 272.03574L105.02062 272.7701Q105.55187 271.92636 106.53625 271.92636Q106.84875 271.92636 107.02062 272.0045L107.02062 273.0045ZM109.42687 270.5045L109.42687 272.03574L110.59875 272.03574L110.59875 272.8795L109.42687 272.8795L109.42687 276.80136Q109.42687 277.192 109.58312 277.3795Q109.73937 277.567 110.11437 277.567Q110.30187 277.567 110.63 277.5045L110.63 278.3795Q110.20812 278.5045 109.80187 278.5045Q109.08312 278.5045 108.70812 278.067Q108.33312 277.61386 108.33312 276.80136L108.33312 272.8795L107.17687 272.8795L107.17687 272.03574L108.33312 272.03574L108.33312 270.5045L109.42687 270.5045ZM115.02062 273.0045Q114.77062 272.97324 114.48937 272.97324Q113.41125 272.97324 113.03625 273.8795L113.03625 278.3795L111.95812 278.3795L111.95812 272.03574L113.005 272.03574L113.02062 272.7701Q113.55187 271.92636 114.53625 271.92636Q114.84875 271.92636 115.02062 272.0045L115.02062 273.0045ZM119.86437 278.3795Q119.77062 278.192 119.70812 277.7076Q118.95812 278.5045 117.91125 278.5045Q116.97375 278.5045 116.36437 277.97324Q115.77062 277.442 115.77062 276.61386Q115.77062 275.6295 116.52062 275.0826Q117.27062 274.53574 118.64562 274.53574L119.6925 274.53574L119.6925 274.03574Q119.6925 273.47324 119.34875 273.1451Q119.02062 272.80136 118.34875 272.80136Q117.77062 272.80136 117.38 273.09824Q116.98937 273.3795 116.98937 273.80136L115.89562 273.80136Q115.89562 273.317 116.22375 272.8795Q116.5675 272.442 117.14562 272.192Q117.72375 271.92636 118.41125 271.92636Q119.52062 271.92636 120.13 272.47324Q120.755 273.0201 120.78625 273.97324L120.78625 276.8951Q120.78625 277.7701 121.005 278.28574L121.005 278.3795L119.86437 278.3795ZM118.0675 277.55136Q118.58312 277.55136 119.03625 277.28574Q119.48937 277.0201 119.6925 276.59824L119.6925 275.30136L118.84875 275.30136Q116.84875 275.30136 116.84875 276.47324Q116.84875 276.97324 117.1925 277.2701Q117.53625 277.55136 118.0675 277.55136ZM122.6925 275.16074Q122.6925 273.67636 123.38 272.80136Q124.0675 271.92636 125.1925 271.92636Q126.34875 271.92636 127.005 272.73886L127.05187 272.03574L128.05188 272.03574L128.05188 278.22324Q128.05188 279.4576 127.3175 280.16074Q126.58312 280.8795 125.36437 280.8795Q124.67687 280.8795 124.02062 280.5826Q123.36437 280.28574 123.02062 279.78574L123.58312 279.1295Q124.27062 279.98886 125.28625 279.98886Q126.0675 279.98886 126.505 279.53574Q126.95812 279.09824 126.95812 278.28574L126.95812 277.73886Q126.30187 278.5045 125.17687 278.5045Q124.0675 278.5045 123.38 277.61386Q122.6925 276.7076 122.6925 275.16074ZM123.78625 275.28574Q123.78625 276.34824 124.22375 276.97324Q124.66125 277.5826 125.45812 277.5826Q126.47375 277.5826 126.95812 276.6451L126.95812 273.7545Q126.45812 272.84824 125.45812 272.84824Q124.67687 272.84824 124.22375 273.4576Q123.78625 274.067 123.78625 275.28574ZM129.91125 280.0826L129.30188 279.66074Q129.84875 278.8951 129.88 278.067L129.88 277.09824L130.9425 277.09824L130.9425 277.942Q130.9425 278.53574 130.64563 279.1295Q130.34875 279.72324 129.91125 280.0826Z" fill-rule="nonzero"/><path fill="#757575" d="M41.489376 309.72754L41.489376 304.22754L40.489376 304.22754L40.489376 303.3838L41.489376 303.3838L41.489376 302.74316Q41.489376 301.7119 42.020626 301.16504Q42.5675 300.60254 43.5675 300.60254Q43.9425 300.60254 44.3175 300.6963L44.255 301.5869Q43.97375 301.5244 43.676876 301.5244Q43.145626 301.5244 42.84875 301.8369Q42.5675 302.1494 42.5675 302.7119L42.5675 303.3838L43.926876 303.3838L43.926876 304.22754L42.5675 304.22754L42.5675 309.72754L41.489376 309.72754ZM44.66125 306.49316Q44.66125 305.5713 45.020626 304.8213Q45.395626 304.0713 46.051876 303.68066Q46.708126 303.2744 47.53625 303.2744Q48.833126 303.2744 49.63 304.16504Q50.4425 305.05566 50.4425 306.55566L50.4425 306.6338Q50.4425 307.55566 50.083126 308.29004Q49.72375 309.0244 49.0675 309.4463Q48.41125 309.85254 47.551876 309.85254Q46.270626 309.85254 45.458126 308.9619Q44.66125 308.05566 44.66125 306.5713L44.66125 306.49316ZM45.755 306.6338Q45.755 307.68066 46.239376 308.3213Q46.739376 308.9619 47.551876 308.9619Q48.38 308.9619 48.864376 308.3213Q49.34875 307.66504 49.34875 306.49316Q49.34875 305.4619 48.84875 304.8213Q48.364376 304.16504 47.53625 304.16504Q46.739376 304.16504 46.239376 304.80566Q45.755 305.43066 45.755 306.6338ZM55.020626 304.35254Q54.770626 304.3213 54.489376 304.3213Q53.41125 304.3213 53.03625 305.22754L53.03625 309.72754L51.958126 309.72754L51.958126 303.3838L53.005 303.3838L53.020626 304.11816Q53.551876 303.2744 54.53625 303.2744Q54.84875 303.2744 55.020626 303.35254L55.020626 304.35254ZM56.97375 303.3838L57.005 304.0869Q57.6925 303.2744 58.88 303.2744Q60.208126 303.2744 60.6925 304.29004Q61.005 303.8369 61.505 303.55566Q62.020626 303.2744 62.708126 303.2744Q64.80188 303.2744 64.83313 305.47754L64.83313 309.72754L63.755 309.72754L63.755 305.54004Q63.755 304.86816 63.4425 304.54004Q63.13 304.1963 62.395626 304.1963Q61.78625 304.1963 61.38 304.55566Q60.989376 304.91504 60.926876 305.5244L60.926876 309.72754L59.84875 309.72754L59.84875 305.5713Q59.84875 304.1963 58.489376 304.1963Q57.426876 304.1963 57.03625 305.10254L57.03625 309.72754L55.9425 309.72754L55.9425 303.3838L56.97375 303.3838ZM66.911255 311.43066L66.30188 311.0088Q66.848755 310.24316 66.880005 309.41504L66.880005 308.4463L67.942505 308.4463L67.942505 309.29004Q67.942505 309.8838 67.64563 310.47754Q67.348755 311.0713 66.911255 311.43066ZM72.48938 309.72754L72.48938 304.22754L71.48938 304.22754L71.48938 303.3838L72.48938 303.3838L72.48938 302.74316Q72.48938 301.7119 73.02063 301.16504Q73.567505 300.60254 74.567505 300.60254Q74.942505 300.60254 75.317505 300.6963L75.255005 301.5869Q74.973755 301.5244 74.67688 301.5244Q74.14563 301.5244 73.848755 301.8369Q73.567505 302.1494 73.567505 302.7119L73.567505 303.3838L74.92688 303.3838L74.92688 304.22754L73.567505 304.22754L73.567505 309.72754L72.48938 309.72754ZM75.661255 306.49316Q75.661255 305.5713 76.02063 304.8213Q76.39563 304.0713 77.05188 303.68066Q77.70813 303.2744 78.536255 303.2744Q79.83313 303.2744 80.630005 304.16504Q81.442505 305.05566 81.442505 306.55566L81.442505 306.6338Q81.442505 307.55566 81.08313 308.29004Q80.723755 309.0244 80.067505 309.4463Q79.411255 309.85254 78.55188 309.85254Q77.27063 309.85254 76.45813 308.9619Q75.661255 308.05566 75.661255 306.5713L75.661255 306.49316ZM76.755005 306.6338Q76.755005 307.68066 77.23938 308.3213Q77.73938 308.9619 78.55188 308.9619Q79.380005 308.9619 79.86438 308.3213Q80.348755 307.66504 80.348755 306.49316Q80.348755 305.4619 79.848755 304.8213Q79.36438 304.16504 78.536255 304.16504Q77.73938 304.16504 77.23938 304.80566Q76.755005 305.43066 76.755005 306.6338ZM86.02063 304.35254Q85.77063 304.3213 85.48938 304.3213Q84.411255 304.3213 84.036255 305.22754L84.036255 309.72754L82.95813 309.72754L82.95813 303.3838L84.005005 303.3838L84.02063 304.11816Q84.55188 303.2744 85.536255 303.2744Q85.848755 303.2744 86.02063 303.35254L86.02063 304.35254ZM87.973755 303.3838L88.005005 304.0869Q88.692505 303.2744 89.880005 303.2744Q91.20813 303.2744 91.692505 304.29004Q92.005005 303.8369 92.505005 303.55566Q93.02063 303.2744 93.70813 303.2744Q95.80188 303.2744 95.83313 305.47754L95.83313 309.72754L94.755005 309.72754L94.755005 305.54004Q94.755005 304.86816 94.442505 304.54004Q94.130005 304.1963 93.39563 304.1963Q92.786255 304.1963 92.380005 304.55566Q91.98938 304.91504 91.92688 305.5244L91.92688 309.72754L90.848755 309.72754L90.848755 305.5713Q90.848755 304.1963 89.48938 304.1963Q88.42688 304.1963 88.036255 305.10254L88.036255 309.72754L86.942505 309.72754L86.942505 303.3838L87.973755 303.3838ZM97.661255 306.49316Q97.661255 305.5713 98.02063 304.8213Q98.39563 304.0713 99.05188 303.68066Q99.70813 303.2744 100.536255 303.2744Q101.83313 303.2744 102.630005 304.16504Q103.442505 305.05566 103.442505 306.55566L103.442505 306.6338Q103.442505 307.55566 103.08313 308.29004Q102.723755 309.0244 102.067505 309.4463Q101.411255 309.85254 100.55188 309.85254Q99.27063 309.85254 98.45813 308.9619Q97.661255 308.05566 97.661255 306.5713L97.661255 306.49316ZM98.755005 306.6338Q98.755005 307.68066 99.23938 308.3213Q99.73938 308.9619 100.55188 308.9619Q101.380005 308.9619 101.86438 308.3213Q102.348755 307.66504 102.348755 306.49316Q102.348755 305.4619 101.848755 304.8213Q101.36438 304.16504 100.536255 304.16504Q99.73938 304.16504 99.23938 304.80566Q98.755005 305.43066 98.755005 306.6338ZM108.64563 308.04004Q108.64563 307.60254 108.30188 307.36816Q107.973755 307.11816 107.14563 306.9463Q106.33313 306.7744 105.848755 306.5244Q105.36438 306.2744 105.130005 305.9463Q104.911255 305.60254 104.911255 305.1338Q104.911255 304.35254 105.567505 303.8213Q106.223755 303.2744 107.255005 303.2744Q108.33313 303.2744 108.98938 303.8369Q109.661255 304.3838 109.661255 305.24316L108.58313 305.24316Q108.58313 304.80566 108.192505 304.49316Q107.817505 304.16504 107.255005 304.16504Q106.661255 304.16504 106.317505 304.43066Q105.98938 304.68066 105.98938 305.0869Q105.98938 305.47754 106.30188 305.68066Q106.61438 305.8838 107.42688 306.0713Q108.23938 306.24316 108.73938 306.49316Q109.23938 306.74316 109.473755 307.10254Q109.723755 307.4619 109.723755 307.9619Q109.723755 308.8213 109.036255 309.3369Q108.36438 309.85254 107.286255 309.85254Q106.52063 309.85254 105.92688 309.5869Q105.348755 309.30566 105.02063 308.8213Q104.692505 308.3369 104.692505 307.7744L105.77063 307.7744Q105.80188 308.3213 106.20813 308.6494Q106.61438 308.9619 107.286255 308.9619Q107.89563 308.9619 108.27063 308.7119Q108.64563 308.4619 108.64563 308.04004ZM114.86438 309.72754Q114.77063 309.54004 114.70813 309.05566Q113.95813 309.85254 112.911255 309.85254Q111.973755 309.85254 111.36438 309.3213Q110.77063 308.79004 110.77063 307.9619Q110.77063 306.97754 111.52063 306.43066Q112.27063 305.8838 113.64563 305.8838L114.692505 305.8838L114.692505 305.3838Q114.692505 304.8213 114.348755 304.49316Q114.02063 304.1494 113.348755 304.1494Q112.77063 304.1494 112.380005 304.4463Q111.98938 304.72754 111.98938 305.1494L110.89563 305.1494Q110.89563 304.66504 111.223755 304.22754Q111.567505 303.79004 112.14563 303.54004Q112.723755 303.2744 113.411255 303.2744Q114.52063 303.2744 115.130005 303.8213Q115.755005 304.36816 115.786255 305.3213L115.786255 308.24316Q115.786255 309.11816 116.005005 309.6338L116.005005 309.72754L114.86438 309.72754ZM113.067505 308.8994Q113.58313 308.8994 114.036255 308.6338Q114.48938 308.36816 114.692505 307.9463L114.692505 306.6494L113.848755 306.6494Q111.848755 306.6494 111.848755 307.8213Q111.848755 308.3213 112.192505 308.61816Q112.536255 308.8994 113.067505 308.8994ZM118.973755 303.3838L119.005005 304.18066Q119.73938 303.2744 120.911255 303.2744Q122.92688 303.2744 122.942505 305.54004L122.942505 309.72754L121.848755 309.72754L121.848755 305.5244Q121.848755 304.85254 121.536255 304.5244Q121.23938 304.1963 120.58313 304.1963Q120.05188 304.1963 119.64563 304.47754Q119.255005 304.7588 119.036255 305.2119L119.036255 309.72754L117.95813 309.72754L117.95813 303.3838L118.973755 303.3838ZM128.86438 309.72754Q128.77063 309.54004 128.70813 309.05566Q127.95813 309.85254 126.911255 309.85254Q125.973755 309.85254 125.36438 309.3213Q124.77063 308.79004 124.77063 307.9619Q124.77063 306.97754 125.52063 306.43066Q126.27063 305.8838 127.64563 305.8838L128.6925 305.8838L128.6925 305.3838Q128.6925 304.8213 128.34875 304.49316Q128.02063 304.1494 127.348755 304.1494Q126.77063 304.1494 126.380005 304.4463Q125.98938 304.72754 125.98938 305.1494L124.89563 305.1494Q124.89563 304.66504 125.223755 304.22754Q125.567505 303.79004 126.14563 303.54004Q126.723755 303.2744 127.411255 303.2744Q128.52063 303.2744 129.13 303.8213Q129.755 304.36816 129.78625 305.3213L129.78625 308.24316Q129.78625 309.11816 130.005 309.6338L130.005 309.72754L128.86438 309.72754ZM127.067505 308.8994Q127.58313 308.8994 128.03625 308.6338Q128.48938 308.36816 128.6925 307.9463L128.6925 306.6494L127.848755 306.6494Q125.848755 306.6494 125.848755 307.8213Q125.848755 308.3213 126.192505 308.61816Q126.536255 308.8994 127.067505 308.8994Z" fill-rule="nonzero"/><path fill="#757575" d="M139.6925 345.8094Q139.6925 347.71564 139.03625 348.65314Q138.39563 349.575 137.005 349.575Q135.64563 349.575 134.98938 348.66876Q134.33313 347.7625 134.30188 345.95L134.30188 344.5125Q134.30188 342.6219 134.9425 341.71564Q135.59875 340.79376 136.98938 340.79376Q138.36438 340.79376 139.02063 341.6844Q139.67688 342.5594 139.6925 344.40314L139.6925 345.8094ZM138.59875 344.325Q138.59875 342.95 138.20813 342.325Q137.83313 341.6844 136.98938 341.6844Q136.16125 341.6844 135.77063 342.325Q135.39563 342.95 135.39563 344.2469L135.39563 345.98126Q135.39563 347.35626 135.78625 348.02814Q136.1925 348.6844 137.005 348.6844Q137.80188 348.6844 138.1925 348.0594Q138.58313 347.4344 138.59875 346.10626L138.59875 344.325Z" fill-rule="nonzero"/><path fill="#757575" d="M213.98021 349.45L208.38646 349.45L208.38646 348.66876L211.33958 345.3875Q211.99583 344.6375 212.24583 344.1844Q212.49583 343.71564 212.49583 343.21564Q212.49583 342.54376 212.08958 342.1219Q211.69896 341.6844 211.01146 341.6844Q210.21458 341.6844 209.76146 342.15314Q209.30833 342.60626 209.30833 343.4344L208.23021 343.4344Q208.23021 342.2469 208.98021 341.52814Q209.74583 340.79376 211.01146 340.79376Q212.21458 340.79376 212.90208 341.41876Q213.58958 342.04376 213.58958 343.09064Q213.58958 344.34064 211.98021 346.09064L209.69896 348.5594L213.98021 348.5594L213.98021 349.45Z" fill-rule="nonzero"/><path fill="#757575" d="M287.0179 346.59064L288.2054 346.59064L288.2054 347.46564L287.0179 347.46564L287.0179 349.45L285.9398 349.45L285.9398 347.46564L282.04916 347.46564L282.04916 346.825L285.86166 340.91876L287.0179 340.91876L287.0179 346.59064ZM283.28354 346.59064L285.9398 346.59064L285.9398 342.40314L285.79916 342.6375L283.28354 346.59064Z" fill-rule="nonzero"/><path fill="#757575" d="M360.75876 340.91876L360.75876 341.825L360.55563 341.825Q359.29 341.85626 358.54 342.59064Q357.79 343.3094 357.665 344.6219Q358.3525 343.85626 359.50876 343.85626Q360.61813 343.85626 361.29 344.6375Q361.96188 345.41876 361.96188 346.66876Q361.96188 347.98126 361.24313 348.77814Q360.52438 349.575 359.30563 349.575Q358.08688 349.575 357.32126 348.6375Q356.57126 347.6844 356.57126 346.2L356.57126 345.79376Q356.57126 343.4344 357.57126 342.1844Q358.57126 340.9344 360.55563 340.91876L360.75876 340.91876ZM359.33688 344.7625Q358.77438 344.7625 358.30563 345.09064Q357.83688 345.41876 357.64938 345.9344L357.64938 346.325Q357.64938 347.3875 358.11813 348.02814Q358.6025 348.66876 359.30563 348.66876Q360.04 348.66876 360.46188 348.1375Q360.88376 347.59064 360.88376 346.71564Q360.88376 345.84064 360.46188 345.3094Q360.04 344.7625 359.33688 344.7625Z" fill-rule="nonzero"/><path fill="#757575" d="M435.73395 343.1375Q435.73395 343.77814 435.3902 344.27814Q435.04645 344.77814 434.48395 345.0594Q435.1402 345.34064 435.53082 345.90314Q435.92145 346.45 435.92145 347.15314Q435.92145 348.2469 435.17145 348.91876Q434.43707 349.575 433.21832 349.575Q431.98395 349.575 431.23395 348.91876Q430.49957 348.2469 430.49957 347.15314Q430.49957 346.45 430.87457 345.90314Q431.24957 345.34064 431.92145 345.0594Q431.35895 344.77814 431.03082 344.27814Q430.7027 343.77814 430.7027 343.1375Q430.7027 342.0594 431.3902 341.4344Q432.0777 340.79376 433.21832 340.79376Q434.34332 340.79376 435.03082 341.4344Q435.73395 342.0594 435.73395 343.1375ZM434.84332 347.1219Q434.84332 346.40314 434.3902 345.96564Q433.93707 345.5125 433.2027 345.5125Q432.46832 345.5125 432.0152 345.96564Q431.5777 346.40314 431.5777 347.1375Q431.5777 347.85626 432.0152 348.27814Q432.4527 348.6844 433.21832 348.6844Q433.96832 348.6844 434.40582 348.2625Q434.84332 347.84064 434.84332 347.1219ZM433.21832 341.6844Q432.5777 341.6844 432.17145 342.09064Q431.78082 342.48126 431.78082 343.16876Q431.78082 343.8094 432.17145 344.21564Q432.56207 344.6219 433.2027 344.6219Q433.85895 344.6219 434.24957 344.21564Q434.6402 343.8094 434.6402 343.16876Q434.6402 342.5125 434.23395 342.10626Q433.8277 341.6844 433.21832 341.6844Z" fill-rule="nonzero"/><path fill="#757575" d="M504.6623 349.45L503.58417 349.45L503.58417 342.23126L501.39667 343.02814L501.39667 342.04376L504.50604 340.8719L504.6623 340.8719L504.6623 349.45ZM513.45917 345.8094Q513.45917 347.71564 512.8029 348.65314Q512.1623 349.575 510.77167 349.575Q509.4123 349.575 508.75604 348.66876Q508.0998 347.7625 508.06854 345.95L508.06854 344.5125Q508.06854 342.6219 508.70917 341.71564Q509.36542 340.79376 510.75604 340.79376Q512.13104 340.79376 512.7873 341.6844Q513.44354 342.5594 513.45917 344.40314L513.45917 345.8094ZM512.3654 344.325Q512.3654 342.95 511.9748 342.325Q511.5998 341.6844 510.75604 341.6844Q509.92792 341.6844 509.5373 342.325Q509.1623 342.95 509.1623 344.2469L509.1623 345.98126Q509.1623 347.35626 509.55292 348.02814Q509.95917 348.6844 510.77167 348.6844Q511.56854 348.6844 511.95917 348.0594Q512.3498 347.4344 512.3654 346.10626L512.3654 344.325Z" fill-rule="nonzero"/><path fill="#757575" d="M578.71564 349.45L577.6375 349.45L577.6375 342.23126L575.45 343.02814L575.45 342.04376L578.5594 340.8719L578.71564 340.8719L578.71564 349.45ZM587.7469 349.45L582.15314 349.45L582.15314 348.66876L585.10626 345.3875Q585.7625 344.6375 586.0125 344.1844Q586.2625 343.71564 586.2625 343.21564Q586.2625 342.54376 585.85626 342.1219Q585.46564 341.6844 584.77814 341.6844Q583.98126 341.6844 583.52814 342.15314Q583.075 342.60626 583.075 343.4344L581.9969 343.4344Q581.9969 342.2469 582.7469 341.52814Q583.5125 340.79376 584.77814 340.79376Q585.98126 340.79376 586.66876 341.41876Q587.35626 342.04376 587.35626 343.09064Q587.35626 344.34064 585.7469 346.09064L583.46564 348.5594L587.7469 348.5594L587.7469 349.45Z" fill-rule="nonzero"/><path fill="#8cab13" d="M120.5 21.05C120.5 20.497715 120.947716 20.05 121.5 20.05L131.5 20.05C132.05229 20.05 132.5 20.497715 132.5 21.05L132.5 31.05C132.5 31.602285 132.05229 32.05 131.5 32.05L121.5 32.05C120.947716 32.05 120.5 31.602285 120.5 31.05Z" fill-rule="nonzero"/><path fill="#757575" d="M141.48438 30.55L141.48438 22.01875L143.90625 22.01875Q145.01562 22.01875 145.85938 22.51875Q146.71875 23.003124 147.1875 23.909374Q147.65625 24.815624 147.65625 26.003124L147.65625 26.534374Q147.65625 27.753124 147.1875 28.659374Q146.73438 29.565624 145.85938 30.05Q145.0 30.534374 143.85938 30.55L141.48438 30.55ZM142.60938 22.940624L142.60938 29.628124L143.79688 29.628124Q145.09375 29.628124 145.8125 28.83125Q146.54688 28.01875 146.54688 26.51875L146.54688 26.01875Q146.54688 24.565624 145.85938 23.76875Q145.1875 22.95625 143.92188 22.940624L142.60938 22.940624ZM150.5 30.55L149.42188 30.55L149.42188 24.20625L150.5 24.20625L150.5 30.55ZM149.32812 22.534374Q149.32812 22.26875 149.48438 22.08125Q149.65625 21.89375 149.96875 21.89375Q150.28125 21.89375 150.4375 22.08125Q150.60938 22.26875 150.60938 22.534374Q150.60938 22.784374 150.4375 22.971874Q150.28125 23.14375 149.96875 23.14375Q149.65625 23.14375 149.48438 22.971874Q149.32812 22.784374 149.32812 22.534374ZM154.85938 29.784374Q155.4375 29.784374 155.875 29.440624Q156.3125 29.08125 156.35938 28.55L157.39062 28.55Q157.35938 29.096874 157.0 29.596874Q156.65625 30.08125 156.07812 30.378124Q155.51562 30.675 154.85938 30.675Q153.5625 30.675 152.79688 29.815624Q152.04688 28.940624 152.04688 27.440624L152.04688 27.253124Q152.04688 26.33125 152.375 25.6125Q152.71875 24.89375 153.34375 24.503124Q153.98438 24.096874 154.85938 24.096874Q155.92188 24.096874 156.625 24.7375Q157.34375 25.3625 157.39062 26.39375L156.35938 26.39375Q156.3125 25.76875 155.89062 25.378124Q155.46875 24.9875 154.85938 24.9875Q154.03125 24.9875 153.57812 25.58125Q153.125 26.175 153.125 27.3L153.125 27.503124Q153.125 28.596874 153.57812 29.190624Q154.03125 29.784374 154.85938 29.784374ZM159.5 30.55L158.42188 30.55L158.42188 24.20625L159.5 24.20625L159.5 30.55ZM158.32812 22.534374Q158.32812 22.26875 158.48438 22.08125Q158.65625 21.89375 158.96875 21.89375Q159.28125 21.89375 159.4375 22.08125Q159.60938 22.26875 159.60938 22.534374Q159.60938 22.784374 159.4375 22.971874Q159.28125 23.14375 158.96875 23.14375Q158.65625 23.14375 158.48438 22.971874Q158.32812 22.784374 158.32812 22.534374ZM162.79688 22.675L162.79688 24.20625L163.96875 24.20625L163.96875 25.05L162.79688 25.05L162.79688 28.971874Q162.79688 29.3625 162.95312 29.55Q163.10938 29.7375 163.48438 29.7375Q163.67188 29.7375 164.0 29.675L164.0 30.55Q163.57812 30.675 163.17188 30.675Q162.45312 30.675 162.07812 30.2375Q161.70312 29.784374 161.70312 28.971874L161.70312 25.05L160.54688 25.05L160.54688 24.20625L161.70312 24.20625L161.70312 22.675L162.79688 22.675ZM166.5 30.55L165.42188 30.55L165.42188 24.20625L166.5 24.20625L166.5 30.55ZM165.32812 22.534374Q165.32812 22.26875 165.48438 22.08125Q165.65625 21.89375 165.96875 21.89375Q166.28125 21.89375 166.4375 22.08125Q166.60938 22.26875 166.60938 22.534374Q166.60938 22.784374 166.4375 22.971874Q166.28125 23.14375 165.96875 23.14375Q165.65625 23.14375 165.48438 22.971874Q165.32812 22.784374 165.32812 22.534374ZM168.03125 27.315624Q168.03125 26.39375 168.39062 25.64375Q168.76562 24.89375 169.42188 24.503124Q170.07812 24.096874 170.90625 24.096874Q172.20312 24.096874 173.0 24.9875Q173.8125 25.878124 173.8125 27.378124L173.8125 27.45625Q173.8125 28.378124 173.45312 29.1125Q173.09375 29.846874 172.4375 30.26875Q171.78125 30.675 170.92188 30.675Q169.64062 30.675 168.82812 29.784374Q168.03125 28.878124 168.03125 27.39375L168.03125 27.315624ZM169.125 27.45625Q169.125 28.503124 169.60938 29.14375Q170.10938 29.784374 170.92188 29.784374Q171.75 29.784374 172.23438 29.14375Q172.71875 28.4875 172.71875 27.315624Q172.71875 26.284374 172.21875 25.64375Q171.73438 24.9875 170.90625 24.9875Q170.10938 24.9875 169.60938 25.628124Q169.125 26.253124 169.125 27.45625ZM176.34375 24.20625L176.375 25.003124Q177.10938 24.096874 178.28125 24.096874Q180.29688 24.096874 180.3125 26.3625L180.3125 30.55L179.21875 30.55L179.21875 26.346874Q179.21875 25.675 178.90625 25.346874Q178.60938 25.01875 177.95312 25.01875Q177.42188 25.01875 177.01562 25.3Q176.625 25.58125 176.40625 26.034374L176.40625 30.55L175.32812 30.55L175.32812 24.20625L176.34375 24.20625ZM186.23438 30.55Q186.14062 30.3625 186.07812 29.878124Q185.32812 30.675 184.28125 30.675Q183.34375 30.675 182.73438 30.14375Q182.14062 29.6125 182.14062 28.784374Q182.14062 27.8 182.89062 27.253124Q183.64062 26.70625 185.01562 26.70625L186.0625 26.70625L186.0625 26.20625Q186.0625 25.64375 185.71875 25.315624Q185.39062 24.971874 184.71875 24.971874Q184.14062 24.971874 183.75 25.26875Q183.35938 25.55 183.35938 25.971874L182.26562 25.971874Q182.26562 25.4875 182.59375 25.05Q182.9375 24.6125 183.51562 24.3625Q184.09375 24.096874 184.78125 24.096874Q185.89062 24.096874 186.5 24.64375Q187.125 25.190624 187.15625 26.14375L187.15625 29.065624Q187.15625 29.940624 187.375 30.45625L187.375 30.55L186.23438 30.55ZM184.4375 29.721874Q184.95312 29.721874 185.40625 29.45625Q185.85938 29.190624 186.0625 28.76875L186.0625 27.471874L185.21875 27.471874Q183.21875 27.471874 183.21875 28.64375Q183.21875 29.14375 183.5625 29.440624Q183.90625 29.721874 184.4375 29.721874ZM192.39062 25.175Q192.14062 25.14375 191.85938 25.14375Q190.78125 25.14375 190.40625 26.05L190.40625 30.55L189.32812 30.55L189.32812 24.20625L190.375 24.20625L190.39062 24.940624Q190.92188 24.096874 191.90625 24.096874Q192.21875 24.096874 192.39062 24.175L192.39062 25.175ZM195.39062 28.95625L196.875 24.20625L198.03125 24.20625L195.48438 31.534374Q194.89062 33.1125 193.60938 33.1125L193.39062 33.096874L193.0 33.01875L193.0 32.14375L193.28125 32.159374Q193.84375 32.159374 194.14062 31.940624Q194.45312 31.721874 194.65625 31.128124L194.89062 30.471874L192.625 24.20625L193.8125 24.20625L195.39062 28.95625ZM202.48438 30.55L202.48438 22.01875L204.90625 22.01875Q206.01562 22.01875 206.85938 22.51875Q207.71875 23.003124 208.1875 23.909374Q208.65625 24.815624 208.65625 26.003124L208.65625 26.534374Q208.65625 27.753124 208.1875 28.659374Q207.73438 29.565624 206.85938 30.05Q206.0 30.534374 204.85938 30.55L202.48438 30.55ZM203.60938 22.940624L203.60938 29.628124L204.79688 29.628124Q206.09375 29.628124 206.8125 28.83125Q207.54688 28.01875 207.54688 26.51875L207.54688 26.01875Q207.54688 24.565624 206.85938 23.76875Q206.1875 22.95625 204.92188 22.940624L203.60938 22.940624ZM212.95312 30.675Q211.65625 30.675 210.84375 29.83125Q210.04688 28.971874 210.04688 27.55L210.04688 27.3625Q210.04688 26.409374 210.40625 25.675Q210.76562 24.925 211.40625 24.51875Q212.0625 24.096874 212.8125 24.096874Q214.04688 24.096874 214.73438 24.909374Q215.42188 25.721874 215.42188 27.2375L215.42188 27.690624L211.125 27.690624Q211.15625 28.628124 211.67188 29.20625Q212.20312 29.784374 213.01562 29.784374Q213.57812 29.784374 213.96875 29.55Q214.375 29.315624 214.6875 28.925L215.34375 29.440624Q214.54688 30.675 212.95312 30.675ZM212.8125 24.9875Q212.15625 24.9875 211.70312 25.471874Q211.26562 25.940624 211.17188 26.8L214.34375 26.8L214.34375 26.721874Q214.29688 25.89375 213.89062 25.440624Q213.5 24.9875 212.8125 24.9875ZM218.85938 29.784374Q219.4375 29.784374 219.875 29.440624Q220.3125 29.08125 220.35938 28.55L221.39062 28.55Q221.35938 29.096874 221.0 29.596874Q220.65625 30.08125 220.07812 30.378124Q219.51562 30.675 218.85938 30.675Q217.5625 30.675 216.79688 29.815624Q216.04688 28.940624 216.04688 27.440624L216.04688 27.253124Q216.04688 26.33125 216.375 25.6125Q216.71875 24.89375 217.34375 24.503124Q217.98438 24.096874 218.85938 24.096874Q219.92188 24.096874 220.625 24.7375Q221.34375 25.3625 221.39062 26.39375L220.35938 26.39375Q220.3125 25.76875 219.89062 25.378124Q219.46875 24.9875 218.85938 24.9875Q218.03125 24.9875 217.57812 25.58125Q217.125 26.175 217.125 27.3L217.125 27.503124Q217.125 28.596874 217.57812 29.190624Q218.03125 29.784374 218.85938 29.784374ZM222.03125 27.315624Q222.03125 26.39375 222.39062 25.64375Q222.76562 24.89375 223.42188 24.503124Q224.07812 24.096874 224.90625 24.096874Q226.20312 24.096874 227.0 24.9875Q227.8125 25.878124 227.8125 27.378124L227.8125 27.45625Q227.8125 28.378124 227.45312 29.1125Q227.09375 29.846874 226.4375 30.26875Q225.78125 30.675 224.92188 30.675Q223.64062 30.675 222.82812 29.784374Q222.03125 28.878124 222.03125 27.39375L222.03125 27.315624ZM223.125 27.45625Q223.125 28.503124 223.60938 29.14375Q224.10938 29.784374 224.92188 29.784374Q225.75 29.784374 226.23438 29.14375Q226.71875 28.4875 226.71875 27.315624Q226.71875 26.284374 226.21875 25.64375Q225.73438 24.9875 224.90625 24.9875Q224.10938 24.9875 223.60938 25.628124Q223.125 26.253124 223.125 27.45625ZM230.34375 24.20625L230.375 24.909374Q231.0625 24.096874 232.25 24.096874Q233.57812 24.096874 234.0625 25.1125Q234.375 24.659374 234.875 24.378124Q235.39062 24.096874 236.07812 24.096874Q238.17188 24.096874 238.20312 26.3L238.20312 30.55L237.125 30.55L237.125 26.3625Q237.125 25.690624 236.8125 25.3625Q236.5 25.01875 235.76562 25.01875Q235.15625 25.01875 234.75 25.378124Q234.35938 25.7375 234.29688 26.346874L234.29688 30.55L233.21875 30.55L233.21875 26.39375Q233.21875 25.01875 231.85938 25.01875Q230.79688 25.01875 230.40625 25.925L230.40625 30.55L229.3125 30.55L229.3125 24.20625L230.34375 24.20625ZM245.67188 27.45625Q245.67188 28.89375 245.01562 29.784374Q244.35938 30.675 243.21875 30.675Q242.0625 30.675 241.40625 29.940624L241.40625 32.9875L240.32812 32.9875L240.32812 24.20625L241.3125 24.20625L241.35938 24.909374Q242.03125 24.096874 243.20312 24.096874Q244.34375 24.096874 245.0 24.95625Q245.67188 25.815624 245.67188 27.346874L245.67188 27.45625ZM244.59375 27.33125Q244.59375 26.253124 244.125 25.64375Q243.67188 25.01875 242.875 25.01875Q241.89062 25.01875 241.40625 25.878124L241.40625 28.909374Q241.89062 29.784374 242.89062 29.784374Q243.67188 29.784374 244.125 29.175Q244.59375 28.55 244.59375 27.33125ZM247.03125 27.315624Q247.03125 26.39375 247.39062 25.64375Q247.76562 24.89375 248.42188 24.503124Q249.07812 24.096874 249.90625 24.096874Q251.20312 24.096874 252.0 24.9875Q252.8125 25.878124 252.8125 27.378124L252.8125 27.45625Q252.8125 28.378124 252.45312 29.1125Q252.09375 29.846874 251.4375 30.26875Q250.78125 30.675 249.92188 30.675Q248.64062 30.675 247.82812 29.784374Q247.03125 28.878124 247.03125 27.39375L247.03125 27.315624ZM248.125 27.45625Q248.125 28.503124 248.60938 29.14375Q249.10938 29.784374 249.92188 29.784374Q250.75 29.784374 251.23438 29.14375Q251.71875 28.4875 251.71875 27.315624Q251.71875 26.284374 251.21875 25.64375Q250.73438 24.9875 249.90625 24.9875Q249.10938 24.9875 248.60938 25.628124Q248.125 26.253124 248.125 27.45625ZM258.23438 29.925Q257.60938 30.675 256.375 30.675Q255.35938 30.675 254.82812 30.08125Q254.29688 29.4875 254.29688 28.33125L254.29688 24.20625L255.375 24.20625L255.375 28.3Q255.375 29.753124 256.54688 29.753124Q257.79688 29.753124 258.20312 28.815624L258.20312 24.20625L259.29688 24.20625L259.29688 30.55L258.26562 30.55L258.23438 29.925ZM262.34375 24.20625L262.375 25.003124Q263.10938 24.096874 264.28125 24.096874Q266.29688 24.096874 266.3125 26.3625L266.3125 30.55L265.21875 30.55L265.21875 26.346874Q265.21875 25.675 264.90625 25.346874Q264.60938 25.01875 263.95312 25.01875Q263.42188 25.01875 263.01562 25.3Q262.625 25.58125 262.40625 26.034374L262.40625 30.55L261.32812 30.55L261.32812 24.20625L262.34375 24.20625ZM268.0625 27.33125Q268.0625 25.8625 268.75 24.9875Q269.4375 24.096874 270.5625 24.096874Q271.67188 24.096874 272.32812 24.846874L272.32812 21.55L273.40625 21.55L273.40625 30.55L272.40625 30.55L272.35938 29.8625Q271.70312 30.675 270.54688 30.675Q269.45312 30.675 268.75 29.76875Q268.0625 28.8625 268.0625 27.409374L268.0625 27.33125ZM269.14062 27.45625Q269.14062 28.534374 269.57812 29.14375Q270.03125 29.753124 270.8125 29.753124Q271.84375 29.753124 272.32812 28.815624L272.32812 25.909374Q271.84375 25.01875 270.82812 25.01875Q270.03125 25.01875 269.57812 25.628124Q269.14062 26.2375 269.14062 27.45625ZM277.95312 30.675Q276.65625 30.675 275.84375 29.83125Q275.04688 28.971874 275.04688 27.55L275.04688 27.3625Q275.04688 26.409374 275.40625 25.675Q275.76562 24.925 276.40625 24.51875Q277.0625 24.096874 277.8125 24.096874Q279.04688 24.096874 279.73438 24.909374Q280.42188 25.721874 280.42188 27.2375L280.42188 27.690624L276.125 27.690624Q276.15625 28.628124 276.67188 29.20625Q277.20312 29.784374 278.01562 29.784374Q278.57812 29.784374 278.96875 29.55Q279.375 29.315624 279.6875 28.925L280.34375 29.440624Q279.54688 30.675 277.95312 30.675ZM277.8125 24.9875Q277.15625 24.9875 276.70312 25.471874Q276.26562 25.940624 276.17188 26.8L279.34375 26.8L279.34375 26.721874Q279.29688 25.89375 278.89062 25.440624Q278.5 24.9875 277.8125 24.9875ZM284.39062 25.175Q284.14062 25.14375 283.85938 25.14375Q282.78125 25.14375 282.40625 26.05L282.40625 30.55L281.32812 30.55L281.32812 24.20625L282.375 24.20625L282.39062 24.940624Q282.92188 24.096874 283.90625 24.096874Q284.21875 24.096874 284.39062 24.175L284.39062 25.175Z" fill-rule="nonzero"/><path fill="#22ab82" d="M300.5 21.05C300.5 20.497715 300.94772 20.05 301.5 20.05L311.5 20.05C312.05228 20.05 312.5 20.497715 312.5 21.05L312.5 31.05C312.5 31.602285 312.05228 32.05 311.5 32.05L301.5 32.05C300.94772 32.05 300.5 31.602285 300.5 31.05Z" fill-rule="nonzero"/><path fill="#757575" d="M331.04688 30.55L329.92188 30.55L329.92188 26.6125L325.60938 26.6125L325.60938 30.55L324.48438 30.55L324.48438 22.01875L325.60938 22.01875L325.60938 25.690624L329.92188 25.690624L329.92188 22.01875L331.04688 22.01875L331.04688 30.55ZM335.39062 28.95625L336.875 24.20625L338.03125 24.20625L335.48438 31.534374Q334.89062 33.1125 333.60938 33.1125L333.39062 33.096874L333.0 33.01875L333.0 32.14375L333.28125 32.159374Q333.84375 32.159374 334.14062 31.940624Q334.45312 31.721874 334.65625 31.128124L334.89062 30.471874L332.625 24.20625L333.8125 24.20625L335.39062 28.95625ZM344.67188 27.45625Q344.67188 28.89375 344.01562 29.784374Q343.35938 30.675 342.21875 30.675Q341.0625 30.675 340.40625 29.940624L340.40625 32.9875L339.32812 32.9875L339.32812 24.20625L340.3125 24.20625L340.35938 24.909374Q341.03125 24.096874 342.20312 24.096874Q343.34375 24.096874 344.0 24.95625Q344.67188 25.815624 344.67188 27.346874L344.67188 27.45625ZM343.59375 27.33125Q343.59375 26.253124 343.125 25.64375Q342.67188 25.01875 341.875 25.01875Q340.89062 25.01875 340.40625 25.878124L340.40625 28.909374Q340.89062 29.784374 341.89062 29.784374Q342.67188 29.784374 343.125 29.175Q343.59375 28.55 343.59375 27.33125ZM347.40625 24.971874Q348.125 24.096874 349.28125 24.096874Q351.29688 24.096874 351.3125 26.3625L351.3125 30.55L350.21875 30.55L350.21875 26.346874Q350.21875 25.675 349.90625 25.346874Q349.60938 25.01875 348.95312 25.01875Q348.42188 25.01875 348.01562 25.3Q347.625 25.58125 347.40625 26.034374L347.40625 30.55L346.32812 30.55L346.32812 21.55L347.40625 21.55L347.40625 24.971874ZM355.95312 30.675Q354.65625 30.675 353.84375 29.83125Q353.04688 28.971874 353.04688 27.55L353.04688 27.3625Q353.04688 26.409374 353.40625 25.675Q353.76562 24.925 354.40625 24.51875Q355.0625 24.096874 355.8125 24.096874Q357.04688 24.096874 357.73438 24.909374Q358.42188 25.721874 358.42188 27.2375L358.42188 27.690624L354.125 27.690624Q354.15625 28.628124 354.67188 29.20625Q355.20312 29.784374 356.01562 29.784374Q356.57812 29.784374 356.96875 29.55Q357.375 29.315624 357.6875 28.925L358.34375 29.440624Q357.54688 30.675 355.95312 30.675ZM355.8125 24.9875Q355.15625 24.9875 354.70312 25.471874Q354.26562 25.940624 354.17188 26.8L357.34375 26.8L357.34375 26.721874Q357.29688 25.89375 356.89062 25.440624Q356.5 24.9875 355.8125 24.9875ZM360.34375 24.20625L360.375 25.003124Q361.10938 24.096874 362.28125 24.096874Q364.29688 24.096874 364.3125 26.3625L364.3125 30.55L363.21875 30.55L363.21875 26.346874Q363.21875 25.675 362.90625 25.346874Q362.60938 25.01875 361.95312 25.01875Q361.42188 25.01875 361.01562 25.3Q360.625 25.58125 360.40625 26.034374L360.40625 30.55L359.32812 30.55L359.32812 24.20625L360.34375 24.20625ZM370.23438 30.55Q370.14062 30.3625 370.07812 29.878124Q369.32812 30.675 368.28125 30.675Q367.34375 30.675 366.73438 30.14375Q366.14062 29.6125 366.14062 28.784374Q366.14062 27.8 366.89062 27.253124Q367.64062 26.70625 369.01562 26.70625L370.0625 26.70625L370.0625 26.20625Q370.0625 25.64375 369.71875 25.315624Q369.39062 24.971874 368.71875 24.971874Q368.14062 24.971874 367.75 25.26875Q367.35938 25.55 367.35938 25.971874L366.26562 25.971874Q366.26562 25.4875 366.59375 25.05Q366.9375 24.6125 367.51562 24.3625Q368.09375 24.096874 368.78125 24.096874Q369.89062 24.096874 370.5 24.64375Q371.125 25.190624 371.15625 26.14375L371.15625 29.065624Q371.15625 29.940624 371.375 30.45625L371.375 30.55L370.23438 30.55ZM368.4375 29.721874Q368.95312 29.721874 369.40625 29.45625Q369.85938 29.190624 370.0625 28.76875L370.0625 27.471874L369.21875 27.471874Q367.21875 27.471874 367.21875 28.64375Q367.21875 29.14375 367.5625 29.440624Q367.90625 29.721874 368.4375 29.721874ZM374.79688 22.675L374.79688 24.20625L375.96875 24.20625L375.96875 25.05L374.79688 25.05L374.79688 28.971874Q374.79688 29.3625 374.95312 29.55Q375.10938 29.7375 375.48438 29.7375Q375.67188 29.7375 376.0 29.675L376.0 30.55Q375.57812 30.675 375.17188 30.675Q374.45312 30.675 374.07812 30.2375Q373.70312 29.784374 373.70312 28.971874L373.70312 25.05L372.54688 25.05L372.54688 24.20625L373.70312 24.20625L373.70312 22.675L374.79688 22.675ZM378.5 30.55L377.42188 30.55L377.42188 24.20625L378.5 24.20625L378.5 30.55ZM377.32812 22.534374Q377.32812 22.26875 377.48438 22.08125Q377.65625 21.89375 377.96875 21.89375Q378.28125 21.89375 378.4375 22.08125Q378.60938 22.26875 378.60938 22.534374Q378.60938 22.784374 378.4375 22.971874Q378.28125 23.14375 377.96875 23.14375Q377.65625 23.14375 377.48438 22.971874Q377.32812 22.784374 377.32812 22.534374ZM380.03125 27.315624Q380.03125 26.39375 380.39062 25.64375Q380.76562 24.89375 381.42188 24.503124Q382.07812 24.096874 382.90625 24.096874Q384.20312 24.096874 385.0 24.9875Q385.8125 25.878124 385.8125 27.378124L385.8125 27.45625Q385.8125 28.378124 385.45312 29.1125Q385.09375 29.846874 384.4375 30.26875Q383.78125 30.675 382.92188 30.675Q381.64062 30.675 380.82812 29.784374Q380.03125 28.878124 380.03125 27.39375L380.03125 27.315624ZM381.125 27.45625Q381.125 28.503124 381.60938 29.14375Q382.10938 29.784374 382.92188 29.784374Q383.75 29.784374 384.23438 29.14375Q384.71875 28.4875 384.71875 27.315624Q384.71875 26.284374 384.21875 25.64375Q383.73438 24.9875 382.90625 24.9875Q382.10938 24.9875 381.60938 25.628124Q381.125 26.253124 381.125 27.45625ZM388.34375 24.20625L388.375 25.003124Q389.10938 24.096874 390.28125 24.096874Q392.29688 24.096874 392.3125 26.3625L392.3125 30.55L391.21875 30.55L391.21875 26.346874Q391.21875 25.675 390.90625 25.346874Q390.60938 25.01875 389.95312 25.01875Q389.42188 25.01875 389.01562 25.3Q388.625 25.58125 388.40625 26.034374L388.40625 30.55L387.32812 30.55L387.32812 24.20625L388.34375 24.20625ZM397.48438 30.55L397.48438 22.01875L399.90625 22.01875Q401.01562 22.01875 401.85938 22.51875Q402.71875 23.003124 403.1875 23.909374Q403.65625 24.815624 403.65625 26.003124L403.65625 26.534374Q403.65625 27.753124 403.1875 28.659374Q402.73438 29.565624 401.85938 30.05Q401.0 30.534374 399.85938 30.55L397.48438 30.55ZM398.60938 22.940624L398.60938 29.628124L399.79688 29.628124Q401.09375 29.628124 401.8125 28.83125Q402.54688 28.01875 402.54688 26.51875L402.54688 26.01875Q402.54688 24.565624 401.85938 23.76875Q401.1875 22.95625 399.92188 22.940624L398.60938 22.940624ZM407.95312 30.675Q406.65625 30.675 405.84375 29.83125Q405.04688 28.971874 405.04688 27.55L405.04688 27.3625Q405.04688 26.409374 405.40625 25.675Q405.76562 24.925 406.40625 24.51875Q407.0625 24.096874 407.8125 24.096874Q409.04688 24.096874 409.73438 24.909374Q410.42188 25.721874 410.42188 27.2375L410.42188 27.690624L406.125 27.690624Q406.15625 28.628124 406.67188 29.20625Q407.20312 29.784374 408.01562 29.784374Q408.57812 29.784374 408.96875 29.55Q409.375 29.315624 409.6875 28.925L410.34375 29.440624Q409.54688 30.675 407.95312 30.675ZM407.8125 24.9875Q407.15625 24.9875 406.70312 25.471874Q406.26562 25.940624 406.17188 26.8L409.34375 26.8L409.34375 26.721874Q409.29688 25.89375 408.89062 25.440624Q408.5 24.9875 407.8125 24.9875ZM413.85938 29.784374Q414.4375 29.784374 414.875 29.440624Q415.3125 29.08125 415.35938 28.55L416.39062 28.55Q416.35938 29.096874 416.0 29.596874Q415.65625 30.08125 415.07812 30.378124Q414.51562 30.675 413.85938 30.675Q412.5625 30.675 411.79688 29.815624Q411.04688 28.940624 411.04688 27.440624L411.04688 27.253124Q411.04688 26.33125 411.375 25.6125Q411.71875 24.89375 412.34375 24.503124Q412.98438 24.096874 413.85938 24.096874Q414.92188 24.096874 415.625 24.7375Q416.34375 25.3625 416.39062 26.39375L415.35938 26.39375Q415.3125 25.76875 414.89062 25.378124Q414.46875 24.9875 413.85938 24.9875Q413.03125 24.9875 412.57812 25.58125Q412.125 26.175 412.125 27.3L412.125 27.503124Q412.125 28.596874 412.57812 29.190624Q413.03125 29.784374 413.85938 29.784374ZM417.03125 27.315624Q417.03125 26.39375 417.39062 25.64375Q417.76562 24.89375 418.42188 24.503124Q419.07812 24.096874 419.90625 24.096874Q421.20312 24.096874 422.0 24.9875Q422.8125 25.878124 422.8125 27.378124L422.8125 27.45625Q422.8125 28.378124 422.45312 29.1125Q422.09375 29.846874 421.4375 30.26875Q420.78125 30.675 419.92188 30.675Q418.64062 30.675 417.82812 29.784374Q417.03125 28.878124 417.03125 27.39375L417.03125 27.315624ZM418.125 27.45625Q418.125 28.503124 418.60938 29.14375Q419.10938 29.784374 419.92188 29.784374Q420.75 29.784374 421.23438 29.14375Q421.71875 28.4875 421.71875 27.315624Q421.71875 26.284374 421.21875 25.64375Q420.73438 24.9875 419.90625 24.9875Q419.10938 24.9875 418.60938 25.628124Q418.125 26.253124 418.125 27.45625ZM425.34375 24.20625L425.375 24.909374Q426.0625 24.096874 427.25 24.096874Q428.57812 24.096874 429.0625 25.1125Q429.375 24.659374 429.875 24.378124Q430.39062 24.096874 431.07812 24.096874Q433.17188 24.096874 433.20312 26.3L433.20312 30.55L432.125 30.55L432.125 26.3625Q432.125 25.690624 431.8125 25.3625Q431.5 25.01875 430.76562 25.01875Q430.15625 25.01875 429.75 25.378124Q429.35938 25.7375 429.29688 26.346874L429.29688 30.55L428.21875 30.55L428.21875 26.39375Q428.21875 25.01875 426.85938 25.01875Q425.79688 25.01875 425.40625 25.925L425.40625 30.55L424.3125 30.55L424.3125 24.20625L425.34375 24.20625ZM440.67188 27.45625Q440.67188 28.89375 440.01562 29.784374Q439.35938 30.675 438.21875 30.675Q437.0625 30.675 436.40625 29.940624L436.40625 32.9875L435.32812 32.9875L435.32812 24.20625L436.3125 24.20625L436.35938 24.909374Q437.03125 24.096874 438.20312 24.096874Q439.34375 24.096874 440.0 24.95625Q440.67188 25.815624 440.67188 27.346874L440.67188 27.45625ZM439.59375 27.33125Q439.59375 26.253124 439.125 25.64375Q438.67188 25.01875 437.875 25.01875Q436.89062 25.01875 436.40625 25.878124L436.40625 28.909374Q436.89062 29.784374 437.89062 29.784374Q438.67188 29.784374 439.125 29.175Q439.59375 28.55 439.59375 27.33125ZM442.03125 27.315624Q442.03125 26.39375 442.39062 25.64375Q442.76562 24.89375 443.42188 24.503124Q444.07812 24.096874 444.90625 24.096874Q446.20312 24.096874 447.0 24.9875Q447.8125 25.878124 447.8125 27.378124L447.8125 27.45625Q447.8125 28.378124 447.45312 29.1125Q447.09375 29.846874 446.4375 30.26875Q445.78125 30.675 444.92188 30.675Q443.64062 30.675 442.82812 29.784374Q442.03125 28.878124 442.03125 27.39375L442.03125 27.315624ZM443.125 27.45625Q443.125 28.503124 443.60938 29.14375Q444.10938 29.784374 444.92188 29.784374Q445.75 29.784374 446.23438 29.14375Q446.71875 28.4875 446.71875 27.315624Q446.71875 26.284374 446.21875 25.64375Q445.73438 24.9875 444.90625 24.9875Q444.10938 24.9875 443.60938 25.628124Q443.125 26.253124 443.125 27.45625ZM453.23438 29.925Q452.60938 30.675 451.375 30.675Q450.35938 30.675 449.82812 30.08125Q449.29688 29.4875 449.29688 28.33125L449.29688 24.20625L450.375 24.20625L450.375 28.3Q450.375 29.753124 451.54688 29.753124Q452.79688 29.753124 453.20312 28.815624L453.20312 24.20625L454.29688 24.20625L454.29688 30.55L453.26562 30.55L453.23438 29.925ZM457.34375 24.20625L457.375 25.003124Q458.10938 24.096874 459.28125 24.096874Q461.29688 24.096874 461.3125 26.3625L461.3125 30.55L460.21875 30.55L460.21875 26.346874Q460.21875 25.675 459.90625 25.346874Q459.60938 25.01875 458.95312 25.01875Q458.42188 25.01875 458.01562 25.3Q457.625 25.58125 457.40625 26.034374L457.40625 30.55L456.32812 30.55L456.32812 24.20625L457.34375 24.20625ZM463.0625 27.33125Q463.0625 25.8625 463.75 24.9875Q464.4375 24.096874 465.5625 24.096874Q466.67188 24.096874 467.32812 24.846874L467.32812 21.55L468.40625 21.55L468.40625 30.55L467.40625 30.55L467.35938 29.8625Q466.70312 30.675 465.54688 30.675Q464.45312 30.675 463.75 29.76875Q463.0625 28.8625 463.0625 27.409374L463.0625 27.33125ZM464.14062 27.45625Q464.14062 28.534374 464.57812 29.14375Q465.03125 29.753124 465.8125 29.753124Q466.84375 29.753124 467.32812 28.815624L467.32812 25.909374Q466.84375 25.01875 465.82812 25.01875Q465.03125 25.01875 464.57812 25.628124Q464.14062 26.2375 464.14062 27.45625ZM472.95312 30.675Q471.65625 30.675 470.84375 29.83125Q470.04688 28.971874 470.04688 27.55L470.04688 27.3625Q470.04688 26.409374 470.40625 25.675Q470.76562 24.925 471.40625 24.51875Q472.0625 24.096874 472.8125 24.096874Q474.04688 24.096874 474.73438 24.909374Q475.42188 25.721874 475.42188 27.2375L475.42188 27.690624L471.125 27.690624Q471.15625 28.628124 471.67188 29.20625Q472.20312 29.784374 473.01562 29.784374Q473.57812 29.784374 473.96875 29.55Q474.375 29.315624 474.6875 28.925L475.34375 29.440624Q474.54688 30.675 472.95312 30.675ZM472.8125 24.9875Q472.15625 24.9875 471.70312 25.471874Q471.26562 25.940624 471.17188 26.8L474.34375 26.8L474.34375 26.721874Q474.29688 25.89375 473.89062 25.440624Q473.5 24.9875 472.8125 24.9875ZM479.39062 25.175Q479.14062 25.14375 478.85938 25.14375Q477.78125 25.14375 477.40625 26.05L477.40625 30.55L476.32812 30.55L476.32812 24.20625L477.375 24.20625L477.39062 24.940624Q477.92188 24.096874 478.90625 24.096874Q479.21875 24.096874 479.39062 24.175L479.39062 25.175Z" fill-rule="nonzero"/></svg>